<svg width="175" height="128" viewBox="0 0 175 128" fill="none" xmlns="http://www.w3.org/2000/svg">
<g clip-path="url(#clip0_763_3927)">
<path d="M11.7438 127.088L11.5301 126.682C14.3946 125.09 17.9597 123.109 19.8218 119.858C21.6573 116.653 21.6985 112.301 19.9292 108.5C18.4236 105.265 15.6577 102.366 11.9307 100.118C11.1956 99.6747 10.4239 99.2545 9.67754 98.848C7.8736 97.8656 6.00825 96.8496 4.47016 95.4083C2.35173 93.4231 0.748878 90.0917 1.94354 87.1243C2.33644 86.1772 2.97989 85.3622 3.80084 84.772C4.6218 84.1817 5.58735 83.8399 6.58787 83.7852L6.61321 84.2461C5.69661 84.2961 4.81199 84.609 4.05974 85.1495C3.30749 85.69 2.71773 86.4363 2.35739 87.3038C1.24723 90.0614 2.77036 93.1906 4.77286 95.0672C6.26889 96.4691 8.10869 97.4711 9.8879 98.4401C10.6384 98.8489 11.4146 99.2716 12.1582 99.7201C15.9627 102.015 18.79 104.982 20.3345 108.3C22.1674 112.238 22.1193 116.756 20.2089 120.092C18.2834 123.454 14.6574 125.469 11.7438 127.088Z" fill="#F1F1F1"/>
<path d="M9.43455 86.2177C11.6054 86.2177 13.3652 85.3393 13.3652 84.2558C13.3652 83.1723 11.6054 82.2939 9.43455 82.2939C7.26371 82.2939 5.50391 83.1723 5.50391 84.2558C5.50391 85.3393 7.26371 86.2177 9.43455 86.2177Z" fill="#F1F1F1"/>
<path d="M12.5791 99.1435C14.7499 99.1435 16.5097 98.2651 16.5097 97.1816C16.5097 96.0981 14.7499 95.2197 12.5791 95.2197C10.4082 95.2197 8.64844 96.0981 8.64844 97.1816C8.64844 98.2651 10.4082 99.1435 12.5791 99.1435Z" fill="#F1F1F1"/>
<path d="M5.39158 101.221C7.56241 101.221 9.32222 100.342 9.32222 99.2587C9.32222 98.1752 7.56241 97.2969 5.39158 97.2969C3.22075 97.2969 1.46094 98.1752 1.46094 99.2587C1.46094 100.342 3.22075 101.221 5.39158 101.221Z" fill="#F1F1F1"/>
<path d="M16.622 112.068C18.7929 112.068 20.5527 111.19 20.5527 110.106C20.5527 109.023 18.7929 108.145 16.622 108.145C14.4512 108.145 12.6914 109.023 12.6914 110.106C12.6914 111.19 14.4512 112.068 16.622 112.068Z" fill="#F1F1F1"/>
<path d="M24.4834 112.068C26.6542 112.068 28.414 111.19 28.414 110.106C28.414 109.023 26.6542 108.145 24.4834 108.145C22.3125 108.145 20.5527 109.023 20.5527 110.106C20.5527 111.19 22.3125 112.068 24.4834 112.068Z" fill="#F1F1F1"/>
<path d="M169.28 107.183H105.304C103.788 107.181 102.334 106.561 101.262 105.459C100.19 104.358 99.5867 102.864 99.585 101.306V5.96515C99.5867 4.40695 100.19 2.91306 101.262 1.81125C102.334 0.709426 103.788 0.0896494 105.304 0.0878906H169.28C170.797 0.08965 172.25 0.709426 173.323 1.81125C174.395 2.91306 174.998 4.40695 175 5.96515V101.306C174.998 102.864 174.395 104.358 173.323 105.459C172.25 106.561 170.797 107.181 169.28 107.183Z" fill="#E6E6E6"/>
<path d="M169.393 103.433H105.192C104.724 103.433 104.276 103.242 103.946 102.902C103.615 102.562 103.429 102.102 103.429 101.621V5.64962C103.429 5.16929 103.615 4.70879 103.946 4.36914C104.276 4.02949 104.724 3.83844 105.192 3.83789H169.393C169.86 3.83844 170.308 4.02949 170.639 4.36914C170.969 4.70879 171.155 5.16929 171.156 5.64962V101.621C171.155 102.102 170.969 102.562 170.639 102.902C170.308 103.242 169.86 103.433 169.393 103.433Z" fill="white"/>
<path d="M137.049 2.38765C137.318 2.38765 137.536 2.1638 137.536 1.88767C137.536 1.61154 137.318 1.3877 137.049 1.3877C136.78 1.3877 136.562 1.61154 136.562 1.88767C136.562 2.1638 136.78 2.38765 137.049 2.38765Z" fill="white"/>
<path d="M163.17 67.0335H111.416C111.373 67.0335 111.332 67.016 111.301 66.9848C111.271 66.9536 111.254 66.9112 111.254 66.8671V41.3764C111.254 41.3323 111.271 41.2899 111.301 41.2587C111.332 41.2275 111.373 41.21 111.416 41.21C111.459 41.21 111.5 41.2275 111.53 41.2587C111.561 41.2899 111.578 41.3323 111.578 41.3764V66.7007H163.17C163.213 66.7008 163.254 66.7184 163.285 66.7496C163.315 66.7808 163.332 66.8231 163.332 66.8671C163.332 66.9111 163.315 66.9534 163.285 66.9846C163.254 67.0158 163.213 67.0334 163.17 67.0335Z" fill="#3F3D56"/>
<path d="M122.473 65.2031H117.766C117.638 65.2029 117.516 65.1508 117.426 65.0582C117.336 64.9656 117.285 64.84 117.285 64.709V58.0409C117.285 57.9099 117.336 57.7843 117.426 57.6917C117.516 57.5991 117.638 57.547 117.766 57.5469H122.473C122.601 57.547 122.723 57.5991 122.813 57.6917C122.903 57.7843 122.954 57.9099 122.954 58.0409V64.709C122.954 64.84 122.903 64.9656 122.813 65.0582C122.723 65.1508 122.601 65.2029 122.473 65.2031Z" fill="white"/>
<path d="M131.057 65.2026H126.35C126.222 65.2024 126.1 65.1503 126.01 65.0577C125.92 64.9651 125.869 64.8395 125.869 64.7085V51.7157C125.869 51.5847 125.92 51.4592 126.01 51.3665C126.1 51.2739 126.222 51.2218 126.35 51.2217H131.057C131.185 51.2218 131.307 51.2739 131.397 51.3665C131.487 51.4592 131.538 51.5847 131.538 51.7157V64.7085C131.538 64.8395 131.487 64.9651 131.397 65.0577C131.307 65.1503 131.185 65.2024 131.057 65.2026Z" fill="white"/>
<path d="M139.642 65.2031H134.935C134.807 65.2029 134.685 65.1508 134.595 65.0582C134.505 64.9656 134.454 64.84 134.454 64.709V58.0409C134.454 57.9099 134.505 57.7843 134.595 57.6917C134.685 57.5991 134.807 57.547 134.935 57.5469H139.642C139.77 57.547 139.892 57.5991 139.982 57.6917C140.072 57.7843 140.123 57.9099 140.123 58.0409V64.709C140.123 64.84 140.072 64.9656 139.982 65.0582C139.892 65.1508 139.77 65.2029 139.642 65.2031Z" fill="white"/>
<path d="M148.226 65.2032H143.519C143.394 65.2059 143.274 65.1578 143.184 65.0694C143.094 64.981 143.041 64.8595 143.038 64.7315V49.1974C143.041 49.0694 143.094 48.9479 143.184 48.8594C143.274 48.771 143.394 48.7229 143.519 48.7257H148.226C148.351 48.7229 148.471 48.771 148.561 48.8594C148.652 48.9479 148.704 49.0694 148.707 49.1974V64.7315C148.704 64.8595 148.652 64.981 148.561 65.0694C148.471 65.1578 148.351 65.2059 148.226 65.2032Z" fill="white"/>
<path d="M156.81 65.2028H152.103C151.975 65.2026 151.853 65.1505 151.763 65.0579C151.673 64.9653 151.622 64.8397 151.622 64.7087V44.7255C151.622 44.5945 151.673 44.4689 151.763 44.3763C151.853 44.2837 151.975 44.2316 152.103 44.2314H156.81C156.938 44.2316 157.06 44.2837 157.15 44.3763C157.24 44.4689 157.291 44.5945 157.291 44.7255V64.7087C157.291 64.8397 157.24 64.9653 157.15 65.0579C157.06 65.1505 156.938 65.2026 156.81 65.2028Z" fill="white"/>
<path d="M120.119 55.549C120.656 55.549 121.091 55.1019 121.091 54.5504C121.091 53.9989 120.656 53.5518 120.119 53.5518C119.583 53.5518 119.147 53.9989 119.147 54.5504C119.147 55.1019 119.583 55.549 120.119 55.549Z" fill="#3F3D56"/>
<path d="M128.704 49.0578C129.241 49.0578 129.676 48.6107 129.676 48.0592C129.676 47.5077 129.241 47.0605 128.704 47.0605C128.168 47.0605 127.732 47.5077 127.732 48.0592C127.732 48.6107 128.168 49.0578 128.704 49.0578Z" fill="#3F3D56"/>
<path d="M137.288 55.549C137.825 55.549 138.26 55.1019 138.26 54.5504C138.26 53.9989 137.825 53.5518 137.288 53.5518C136.751 53.5518 136.316 53.9989 136.316 54.5504C136.316 55.1019 136.751 55.549 137.288 55.549Z" fill="#3F3D56"/>
<path d="M145.872 45.8957C146.409 45.8957 146.844 45.4486 146.844 44.8971C146.844 44.3455 146.409 43.8984 145.872 43.8984C145.335 43.8984 144.9 44.3455 144.9 44.8971C144.9 45.4486 145.335 45.8957 145.872 45.8957Z" fill="#3F3D56"/>
<path d="M154.457 42.2346C154.994 42.2346 155.429 41.7875 155.429 41.2359C155.429 40.6844 154.994 40.2373 154.457 40.2373C153.92 40.2373 153.485 40.6844 153.485 41.2359C153.485 41.7875 153.92 42.2346 154.457 42.2346Z" fill="#3F3D56"/>
<path d="M137.309 54.7743L128.704 48.1515L120.217 54.6838L120.022 54.4175L128.704 47.7353L137.268 54.327L145.778 44.757L145.812 44.7427L154.396 41.1885L154.518 41.4973L145.967 45.0374L137.309 54.7743Z" fill="#3F3D56"/>
<path d="M61.6838 51.9009C61.3554 51.9007 61.0309 51.9746 60.7333 52.1176C60.4358 52.2605 60.1725 52.4689 59.962 52.728L49.8974 52.4047L49.5035 50.6611L44.2949 53.273L44.9687 58.0482L60.3073 56.0301C60.5895 56.2554 60.92 56.4082 61.2713 56.4758C61.6226 56.5435 61.9846 56.5239 62.327 56.4189C62.6695 56.3138 62.9826 56.1262 63.2403 55.8717C63.498 55.6173 63.6929 55.3033 63.8087 54.9558C63.9246 54.6084 63.958 54.2375 63.9063 53.8741C63.8545 53.5107 63.7191 53.1653 63.5113 52.8665C63.3035 52.5677 63.0292 52.3242 62.7114 52.1563C62.3935 51.9883 62.0412 51.9008 61.6838 51.9009Z" fill="#9F616A"/>
<path d="M43.0405 124.051H45.7942L47.1043 113.137L43.04 113.137L43.0405 124.051Z" fill="#9F616A"/>
<path d="M42.3389 123.127L47.7618 123.127H47.762C48.6786 123.127 49.5576 123.501 50.2057 124.167C50.8538 124.833 51.2179 125.736 51.218 126.678V126.794L42.339 126.794L42.3389 123.127Z" fill="#2F2E41"/>
<path d="M32.6504 121.802L35.2958 122.587L39.5032 112.476L35.5988 111.316L32.6504 121.802Z" fill="#9F616A"/>
<path d="M32.2249 120.714L37.4347 122.261C38.3152 122.522 39.0588 123.133 39.5015 123.957C39.9441 124.782 40.0499 125.754 39.7955 126.659L39.7643 126.769L31.2344 124.237L32.2249 120.714Z" fill="#2F2E41"/>
<path d="M39.6596 76.6582C39.6596 76.6582 38.6802 79.4663 40.2253 83.2977L41.4176 99.0775L41.7704 121.519H46.7905L49.8286 98.6413L51.6532 77.8968L39.6596 76.6582Z" fill="#2F2E41"/>
<path d="M36.8355 76.6582C36.8355 76.6582 35.856 79.4663 37.4011 83.2977L38.5934 99.0775L32.6572 120.451H37.6773L47.0044 98.6413L48.829 77.8967L36.8355 76.6582Z" fill="#2F2E41"/>
<path d="M51.5625 40.4647C54.6092 40.4647 57.0791 37.9267 57.0791 34.7958C57.0791 31.665 54.6092 29.127 51.5625 29.127C48.5158 29.127 46.0459 31.665 46.0459 34.7958C46.0459 37.9267 48.5158 40.4647 51.5625 40.4647Z" fill="#9F616A"/>
<path d="M52.3 48.5859L51.1821 43.2481L45.4896 39.9268L44.3353 41.5874C44.3353 41.5874 36.19 43.787 37.175 53.3983C38.1601 63.0097 37.7109 67.6259 37.7109 67.6259L35.4648 78.243C35.4648 78.243 36.1562 78.3651 52.0251 81.2139L52.6989 58.1331L52.3 48.5859Z" fill="#CBCBCB"/>
<path opacity="0.1" d="M46.7778 100.528L41.6084 111.258V114.334L46.7778 100.528Z" fill="black"/>
<path d="M45.615 36.5896C46.141 38.0371 48.1313 38.2377 48.8333 36.8713C48.8879 36.7653 48.9324 36.654 48.9661 36.5392C49.1584 35.8829 49.0374 35.1599 49.3926 34.5324C49.4791 34.3754 49.6032 34.2436 49.753 34.1497C50.9336 33.4342 52.0957 35.7047 53.1935 35.0694C53.8667 34.6799 53.7227 33.5488 54.3217 33.0475C55.1124 32.3858 56.2544 33.3713 57.2681 33.2587C58.396 33.1335 58.9298 31.6652 58.6846 30.527C58.3855 29.1389 57.3287 28.0122 56.0886 27.3819C54.8484 26.7515 53.4394 26.5612 52.0563 26.5259C50.4848 26.4857 48.8403 26.6571 47.5116 27.5203C45.8957 28.5699 44.9853 30.524 44.7837 32.4775C44.6611 33.6659 45.1854 35.4076 45.615 36.5896Z" fill="#2F2E41"/>
<path d="M72.647 75.5005C72.6552 75.5006 72.6633 75.5004 72.6714 75.5C76.8277 75.2765 80.7451 73.4347 83.6271 70.3491C86.509 67.2635 88.139 63.1657 88.1857 58.8891C88.2323 54.6125 86.6921 50.4782 83.8782 47.327C81.0643 44.1757 77.1881 42.2441 73.0377 41.925C72.9864 41.9209 72.9348 41.9277 72.8861 41.945C72.8375 41.9623 72.7928 41.9898 72.755 42.0257C72.7173 42.061 72.6871 42.1039 72.6664 42.1517C72.6456 42.1996 72.6347 42.2514 72.6343 42.3038L72.2764 75.112C72.2755 75.214 72.314 75.3122 72.3835 75.385C72.453 75.4578 72.5478 75.4994 72.647 75.5005Z" fill="#3F3D56"/>
<path d="M59.8086 47.3497C59.9361 47.3512 60.0577 47.4046 60.147 47.4982L71.1381 59.0487C71.1823 59.095 71.2172 59.1497 71.2407 59.2098C71.2641 59.27 71.2758 59.3343 71.2749 59.3991L71.1036 75.098C71.1032 75.1653 71.0891 75.2319 71.0624 75.2934C71.0357 75.3549 70.9969 75.4101 70.9484 75.4554C70.8998 75.5014 70.8425 75.5365 70.7801 75.5588C70.7178 75.5811 70.6516 75.5899 70.5858 75.5848C67.5298 75.3498 64.5981 74.2437 62.1202 72.3908C59.6423 70.5379 57.7164 68.0116 56.5587 65.0958C55.4011 62.18 55.0577 58.9903 55.5671 55.885C56.0766 52.7797 57.4186 49.8819 59.4425 47.5172C59.4863 47.4662 59.5398 47.4251 59.5997 47.3963C59.6596 47.3675 59.7247 47.3516 59.7908 47.3497C59.7967 47.3496 59.8027 47.3496 59.8086 47.3497Z" fill="#E6E6E6"/>
<path d="M70.9849 41.791C71.1076 41.7926 71.2252 41.8419 71.3138 41.9291C71.3613 41.9756 71.399 42.0318 71.4244 42.0939C71.4498 42.1561 71.4624 42.2231 71.4614 42.2905L71.3069 56.455C71.3058 56.5525 71.2766 56.6475 71.223 56.728C71.1694 56.8085 71.0937 56.8708 71.0057 56.9072C70.9176 56.9435 70.821 56.9521 70.7281 56.932C70.6352 56.912 70.5502 56.864 70.4838 56.7943L60.8927 46.715C60.8486 46.6685 60.8138 46.6136 60.7903 46.5534C60.7669 46.4931 60.7551 46.4287 60.7559 46.3638C60.7566 46.2989 60.7698 46.2348 60.7947 46.1751C60.8195 46.1154 60.8556 46.0614 60.9008 46.0161C60.9066 46.0102 60.9125 46.0046 60.9186 45.9991C63.708 43.476 67.2442 41.9936 70.9551 41.7916C70.965 41.7911 70.975 41.7909 70.9849 41.791Z" fill="white"/>
<path d="M56.0686 58.3638C55.7401 58.3635 55.4157 58.4375 55.1181 58.5804C54.8205 58.7234 54.5572 58.9318 54.3468 59.1909L44.2822 58.8676L43.8882 57.124L38.6797 59.7359L39.3535 64.5111L54.6921 62.493C54.9743 62.7183 55.3048 62.8711 55.6561 62.9387C56.0074 63.0064 56.3693 62.9868 56.7118 62.8817C57.0543 62.7767 57.3674 62.5891 57.6251 62.3346C57.8828 62.0802 58.0777 61.7662 58.1935 61.4187C58.3093 61.0713 58.3428 60.7004 58.291 60.337C58.2393 59.9736 58.1039 59.6281 57.8961 59.3294C57.6882 59.0306 57.414 58.7871 57.0961 58.6191C56.7783 58.4512 56.426 58.3637 56.0686 58.3638Z" fill="#9F616A"/>
<path d="M37.8313 61.7024L37.5515 47.4771C37.5417 46.9793 37.6281 46.4844 37.8055 46.0211C37.983 45.5578 38.2481 45.1352 38.5855 44.7779C38.9228 44.4205 39.3258 44.1354 39.7711 43.939C40.2164 43.7427 40.6951 43.639 41.1796 43.634C41.6641 43.6289 42.1448 43.7227 42.5938 43.9097C43.0429 44.0968 43.4514 44.3734 43.7957 44.7237C44.1401 45.074 44.4134 45.491 44.6 45.9505C44.7865 46.41 44.8826 46.903 44.8825 47.4009V57.7972L37.8313 61.7024Z" fill="#CBCBCB"/>
<path d="M85.8003 127.032H0.224608C0.165038 127.032 0.107908 127.008 0.065786 126.964C0.0236638 126.921 0 126.862 0 126.801C0 126.74 0.0236638 126.681 0.065786 126.638C0.107908 126.595 0.165038 126.57 0.224608 126.57H85.8003C85.8598 126.57 85.917 126.595 85.9591 126.638C86.0012 126.681 86.0249 126.74 86.0249 126.801C86.0249 126.862 86.0012 126.921 85.9591 126.964C85.917 127.008 85.8598 127.032 85.8003 127.032Z" fill="#CBCBCB"/>
</g>
<defs>
<clipPath id="clip0_763_3927">
<rect width="175" height="127" fill="white" transform="translate(0 0.0878906)"/>
</clipPath>
</defs>
</svg>
