<svg width="207" height="139" viewBox="0 0 207 139" fill="none" xmlns="http://www.w3.org/2000/svg">
<g clip-path="url(#clip0_763_3813)">
<path d="M133.328 31.5116C137.228 31.5116 140.391 28.347 140.391 24.4433C140.391 20.5396 137.228 17.375 133.328 17.375C129.427 17.375 126.265 20.5396 126.265 24.4433C126.265 28.347 129.427 31.5116 133.328 31.5116Z" fill="#F2F2F2"/>
<path d="M160.511 74.0082L39.6387 0L0.128541 64.6273L121.001 138.635L160.511 74.0082Z" fill="#F2F2F2"/>
<path d="M149.771 94.508C148.667 91.9679 146.968 89.7369 143.569 87.8594C141.812 86.8654 139.925 86.1219 137.963 85.6506C139.283 85.0366 140.497 84.2165 141.56 83.2208C143.123 81.8229 144.307 80.0526 145.004 78.0742C145.644 76.0637 145.906 73.9515 145.776 71.8453C145.533 68.1344 144.805 64.534 142.863 61.9496C140.92 59.3652 138.183 57.3773 134.564 55.9857C131.783 54.9255 128.935 54.2628 124.521 54.0198V39.9053L115.692 45.4274V54.0419H108.629V44.9856L99.5799 39.9053V54.0419H80.3555L86.5356 64.6444C88.4448 64.6466 89.7382 64.8233 90.3981 65.1524C91.0142 65.4163 91.5207 65.8843 91.8328 66.4777C92.1197 67.03 92.2521 68.3332 92.2521 70.3432V108.601C92.2521 110.588 92.1197 111.87 91.8328 112.444C91.5458 113.018 91.3913 113.526 90.7071 113.836C90.0229 114.145 90.0008 114.123 88.1026 114.123H88.0806L80.3555 124.725H99.5579V138.862H108.607V124.725H115.67V138.862H124.499V124.637C130.238 124.35 134.321 123.599 137.609 122.362C141.869 120.771 145.136 118.452 147.476 115.404C149.815 112.356 150.764 107.695 150.963 104.094C151.117 100.892 150.764 96.7611 149.771 94.508ZM108.607 65.9697H108.609V65.6759H114.781C118.253 65.6759 129.823 64.5185 130.015 73.9746C130.209 83.4307 114.781 83.0441 114.781 83.0441H108.609V82.3152H108.607V65.9697ZM108.607 92.9177H115.67C117.105 92.9177 122.04 93.1364 123.837 93.2181C124.569 93.2447 125.294 93.3741 125.991 93.6024C126.245 93.6886 126.485 93.7858 126.746 93.894C127.834 94.246 128.861 94.7662 129.789 95.4358C130.395 95.8357 130.927 96.3362 131.363 96.9157C131.552 97.1772 131.726 97.4493 131.884 97.7308C132.302 98.4385 132.612 99.2045 132.804 100.004C133.015 100.776 133.124 101.572 133.129 102.372C133.129 104.092 132.811 105.517 132.028 106.723C130.966 108.503 129.224 109.765 127.264 110.655C122.197 112.961 115.67 112.797 115.67 112.797H108.607V92.9177Z" fill="#3F3D56"/>
<path opacity="0.3" d="M135.239 24.7402C135.172 24.5747 135.049 24.438 134.891 24.3544C134.793 24.2968 134.687 24.2536 134.577 24.2262C134.651 24.1903 134.72 24.1427 134.779 24.0851C134.867 24.0032 134.933 23.9005 134.972 23.7865C135.008 23.6695 135.022 23.5471 135.015 23.425C135.014 23.2221 134.958 23.0234 134.852 22.8507C134.733 22.6928 134.572 22.5726 134.387 22.5045C134.207 22.4347 134.016 22.3961 133.824 22.3904V21.5713L133.329 21.8918V22.3917H132.933V21.8661L132.425 21.5713V22.3917H131.348L131.694 23.007C131.768 23.002 131.841 23.012 131.911 23.0365C131.945 23.0522 131.974 23.0793 131.991 23.1134C132.012 23.1862 132.02 23.2622 132.015 23.3378V25.5581C132.02 25.6332 132.012 25.7087 131.991 25.7811C131.975 25.8145 131.966 25.8439 131.928 25.8619C131.89 25.8798 131.888 25.8785 131.782 25.8785H131.781L131.348 26.4939H132.424V27.3143H132.931V26.4939H133.327V27.3143H133.822V26.4887C134.073 26.4843 134.321 26.4397 134.557 26.3567C134.777 26.2783 134.969 26.138 135.11 25.9529C135.234 25.7559 135.301 25.529 135.306 25.2966C135.319 25.1086 135.296 24.9198 135.239 24.7402ZM132.931 23.084L132.932 23.0669H133.278C133.472 23.0669 134.121 22.9998 134.132 23.5485C134.142 24.0973 133.278 24.0749 133.278 24.0749H132.932V24.0326L132.931 23.084ZM132.931 24.6479H133.327C133.408 24.6479 133.684 24.6606 133.785 24.6654C133.826 24.6669 133.867 24.6744 133.906 24.6877C133.92 24.6927 133.934 24.6983 133.948 24.7046C134.01 24.7251 134.067 24.7553 134.119 24.7941C134.153 24.8174 134.183 24.8465 134.207 24.88C134.245 24.9343 134.272 24.995 134.288 25.0592C134.3 25.104 134.306 25.1502 134.306 25.1966C134.31 25.285 134.289 25.3726 134.244 25.4491C134.181 25.5508 134.088 25.6304 133.977 25.6773C133.771 25.7618 133.55 25.8041 133.327 25.8017H132.931V24.6479Z" fill="#235FA9"/>
<path d="M176.29 105.096C177.72 105.096 178.879 103.936 178.879 102.505C178.879 101.074 177.72 99.9141 176.29 99.9141C174.86 99.9141 173.701 101.074 173.701 102.505C173.701 103.936 174.86 105.096 176.29 105.096Z" fill="#FF6584"/>
<path d="M196.699 130.707V101.208" stroke="#3F3D56" stroke-width="2" stroke-miterlimit="10"/>
<path d="M196.699 105.38C199.001 105.38 200.867 103.513 200.867 101.209C200.867 98.9048 199.001 97.0371 196.699 97.0371C194.397 97.0371 192.53 98.9048 192.53 101.209C192.53 103.513 194.397 105.38 196.699 105.38Z" fill="#3F3D56"/>
<path d="M188.489 117.725C182.468 126.965 184.118 138.718 184.118 138.718C184.118 138.718 195.53 135.489 201.551 126.248C207.572 117.008 205.922 105.255 205.922 105.255C205.922 105.255 194.51 108.484 188.489 117.725Z" fill="#F7F7FB"/>
<path d="M184.086 138.611C184.086 138.611 183.939 138.588 183.67 138.533C183.454 138.489 183.158 138.427 182.796 138.341C179.562 137.578 170.964 134.998 165.343 128.216C158.307 119.724 158.603 107.859 158.603 107.859C158.603 107.859 169.361 109.609 176.45 117.235C176.757 117.563 177.056 117.902 177.347 118.254C183.468 125.643 184.039 135.585 184.084 138.043C184.091 138.411 184.086 138.611 184.086 138.611Z" fill="#F7F7FB"/>
<path d="M179.746 117.725C185.767 126.965 184.117 138.718 184.117 138.718C184.117 138.718 172.706 135.489 166.684 126.248C160.663 117.008 162.313 105.255 162.313 105.255C162.313 105.255 173.725 108.484 179.746 117.725Z" stroke="#3F3D56" stroke-width="2" stroke-miterlimit="10"/>
<path opacity="0.1" d="M184.085 138.043C183.925 138.235 183.785 138.399 183.67 138.533C183.414 138.825 183.269 138.978 183.269 138.978C183.269 138.978 183.093 138.756 182.797 138.341C181.17 136.072 175.939 128.004 176.342 118.685C176.364 118.197 176.4 117.713 176.45 117.235C176.757 117.563 177.056 117.903 177.347 118.254C183.469 125.643 184.039 135.585 184.085 138.043Z" fill="black"/>
<path d="M193.012 119.359C192.536 130.381 184.361 138.978 184.361 138.978C184.361 138.978 176.957 129.707 177.433 118.686C177.909 107.664 186.084 99.0664 186.084 99.0664C186.084 99.0664 193.488 108.338 193.012 119.359Z" fill="#F7F7FB"/>
<path d="M184.361 138.666L186.159 99.5156" stroke="#3F3D56" stroke-width="2" stroke-miterlimit="10"/>
<path d="M12.8135 138.709H199.545" stroke="#3F3D56" stroke-width="2" stroke-miterlimit="10"/>
<path d="M52.4732 90.9637C57.6819 90.9637 61.9044 86.7379 61.9044 81.5253C61.9044 76.3126 57.6819 72.0869 52.4732 72.0869C47.2645 72.0869 43.042 76.3126 43.042 81.5253C43.042 86.7379 47.2645 90.9637 52.4732 90.9637Z" fill="#F7F7FB"/>
<path d="M36.4429 113.177C41.6516 113.177 45.8741 108.951 45.8741 103.738C45.8741 98.5255 41.6516 94.2998 36.4429 94.2998C31.2342 94.2998 27.0117 98.5255 27.0117 103.738C27.0117 108.951 31.2342 113.177 36.4429 113.177Z" fill="#F7F7FB"/>
<path d="M16.7124 130.917C21.9211 130.917 26.1436 126.691 26.1436 121.478C26.1436 116.266 21.9211 112.04 16.7124 112.04C11.5037 112.04 7.28125 116.266 7.28125 121.478C7.28125 126.691 11.5037 130.917 16.7124 130.917Z" fill="#F7F7FB"/>
<path d="M16.7041 138.547V121.426" stroke="#3F3D56" stroke-width="2" stroke-miterlimit="10"/>
<path d="M16.7044 123.847C18.0406 123.847 19.1237 122.763 19.1237 121.426C19.1237 120.089 18.0406 119.005 16.7044 119.005C15.3683 119.005 14.2852 120.089 14.2852 121.426C14.2852 122.763 15.3683 123.847 16.7044 123.847Z" fill="#3F3D56"/>
<path d="M16.7041 131.978C16.7041 131.978 16.3585 124.539 9.27344 125.404L16.7041 131.978Z" fill="#3F3D56"/>
<path d="M52.4795 138.667V81.5596" stroke="#3F3D56" stroke-width="2" stroke-miterlimit="10"/>
<path d="M52.4789 83.9536C53.815 83.9536 54.8981 82.8696 54.8981 81.5325C54.8981 80.1953 53.815 79.1113 52.4789 79.1113C51.1427 79.1113 50.0596 80.1953 50.0596 81.5325C50.0596 82.8696 51.1427 83.9536 52.4789 83.9536Z" fill="#3F3D56"/>
<path d="M45.0482 125.271C46.3843 125.271 47.4675 124.187 47.4675 122.85C47.4675 121.513 46.3843 120.429 45.0482 120.429C43.7121 120.429 42.6289 121.513 42.6289 122.85C42.6289 124.187 43.7121 125.271 45.0482 125.271Z" fill="#3F3D56"/>
<path d="M52.4795 93.9002C52.4795 93.9002 52.1339 86.4611 45.0488 87.3258L52.4795 93.9002Z" fill="#3F3D56"/>
<path d="M52.4795 114.989C52.4795 114.989 52.1339 107.55 45.0488 108.415L52.4795 114.989Z" fill="#3F3D56"/>
<path d="M52.4795 138.001C52.4795 138.001 54.0347 123.541 45.0488 122.85" stroke="#3F3D56" stroke-width="2" stroke-miterlimit="10"/>
<path d="M59.9105 125.271C61.2466 125.271 62.3298 124.187 62.3298 122.85C62.3298 121.513 61.2466 120.429 59.9105 120.429C58.5744 120.429 57.4912 121.513 57.4912 122.85C57.4912 124.187 58.5744 125.271 59.9105 125.271Z" fill="#3F3D56"/>
<path d="M52.4798 138.001C52.4798 138.001 50.9245 123.541 59.9105 122.85" stroke="#3F3D56" stroke-width="2" stroke-miterlimit="10"/>
<path d="M60.058 102.56C61.3941 102.56 62.4772 101.476 62.4772 100.139C62.4772 98.8017 61.3941 97.7178 60.058 97.7178C58.7218 97.7178 57.6387 98.8017 57.6387 100.139C57.6387 101.476 58.7218 102.56 60.058 102.56Z" fill="#3F3D56"/>
<path d="M52.6273 114.519C52.6273 114.519 51.072 100.83 60.0579 100.139" stroke="#3F3D56" stroke-width="2" stroke-miterlimit="10"/>
<path d="M36.4512 138.586V103.728" stroke="#3F3D56" stroke-width="2" stroke-miterlimit="10"/>
<path d="M36.4515 106.149C37.7876 106.149 38.8708 105.065 38.8708 103.728C38.8708 102.391 37.7876 101.307 36.4515 101.307C35.1154 101.307 34.0322 102.391 34.0322 103.728C34.0322 105.065 35.1154 106.149 36.4515 106.149Z" fill="#3F3D56"/>
<path d="M36.4512 113.588C36.4512 113.588 36.1056 106.149 29.0205 107.013L36.4512 113.588Z" fill="#3F3D56"/>
<path d="M36.4512 137.921C36.4512 137.921 38.0064 123.616 29.0205 122.924" stroke="#3F3D56" stroke-width="2" stroke-miterlimit="10"/>
<path d="M29.0209 125.345C30.357 125.345 31.4401 124.261 31.4401 122.924C31.4401 121.587 30.357 120.503 29.0209 120.503C27.6847 120.503 26.6016 121.587 26.6016 122.924C26.6016 124.261 27.6847 125.345 29.0209 125.345Z" fill="#3F3D56"/>
<path d="M169.305 85.6276C171.499 85.6276 173.278 83.8476 173.278 81.6517C173.278 79.4559 171.499 77.6758 169.305 77.6758C167.111 77.6758 165.332 79.4559 165.332 81.6517C165.332 83.8476 167.111 85.6276 169.305 85.6276Z" fill="#F2F2F2"/>
<path opacity="0.1" d="M127.265 110.655C122.197 112.961 115.67 112.797 115.67 112.797H108.607V111.448C111.486 110.644 115.465 110.147 119.864 110.147C122.34 110.138 124.813 110.308 127.265 110.655Z" fill="black"/>
<path opacity="0.1" d="M135.756 114.564C135.756 117.005 128.64 118.982 119.864 118.982C111.089 118.982 103.973 117.005 103.973 114.564C103.973 113.347 105.743 112.245 108.608 111.447V112.797H115.671C115.671 112.797 122.197 112.96 127.265 110.654C132.313 111.392 135.756 112.865 135.756 114.564Z" fill="black"/>
<path d="M121.893 87.0576H115.132V93.8365H121.893V87.0576Z" fill="#2F2E41"/>
<path d="M117.647 91.8509C117.647 91.8509 118.206 93.8113 117.227 93.9513C116.619 94.0462 116.043 94.2863 115.548 94.6515L117.367 97.0319H120.725L122.824 94.9315C122.824 94.9315 120.025 92.8311 120.585 91.5709C121.145 90.3107 117.647 91.8509 117.647 91.8509Z" fill="#FFB9B9"/>
<path opacity="0.1" d="M117.647 91.8509C117.647 91.8509 118.206 93.8113 117.227 93.9513C116.619 94.0462 116.043 94.2863 115.548 94.6515L117.367 97.0319H120.725L122.824 94.9315C122.824 94.9315 120.025 92.8311 120.585 91.5709C121.145 90.3107 117.647 91.8509 117.647 91.8509Z" fill="black"/>
<path d="M118.486 116.215L121.705 117.335L123.943 117.475L123.803 115.515L119.186 114.148L118.486 116.215Z" fill="#FFB9B9"/>
<path d="M122.613 115.796C122.613 115.796 122.613 117.756 122.893 117.756C123.173 117.756 126.951 117.336 128.07 117.756C129.19 118.176 130.869 116.636 130.029 115.796C129.19 114.956 127.82 113.695 126.966 113.975C126.111 114.255 122.613 114.956 122.613 114.956L122.613 115.796Z" fill="#2F2E41"/>
<path d="M112.329 113.976C112.329 113.976 110.65 117.336 111.77 117.616C112.889 117.896 114.148 117.476 114.288 117.336C114.428 117.196 116.387 116.636 116.667 116.916C116.947 117.196 116.947 115.796 116.947 115.796L112.329 113.976Z" fill="#2F2E41"/>
<path d="M113.729 109.354C113.729 109.354 111.071 112.995 113.03 113.975C114.989 114.956 124.363 114.956 125.063 113.975C125.762 112.995 126.042 109.915 125.063 109.635C124.083 109.354 113.729 109.354 113.729 109.354Z" fill="#2F2E41"/>
<path opacity="0.2" d="M113.729 109.354C113.729 109.354 111.071 112.995 113.03 113.975C114.989 114.956 124.363 114.956 125.063 113.975C125.762 112.995 126.042 109.915 125.063 109.635C124.083 109.354 113.729 109.354 113.729 109.354Z" fill="black"/>
<path d="M118.766 92.8309C120.543 92.8309 121.984 91.3889 121.984 89.6103C121.984 87.8316 120.543 86.3896 118.766 86.3896C116.989 86.3896 115.548 87.8316 115.548 89.6103C115.548 91.3889 116.989 92.8309 118.766 92.8309Z" fill="#FFB9B9"/>
<path d="M113.729 94.6519L116.527 94.0918C116.527 94.0918 117.227 96.3322 119.465 95.9121C121.704 95.4921 122.264 94.0918 122.264 94.0918C122.264 94.0918 123.943 94.7919 124.083 94.7919C124.222 94.7919 126.041 95.4921 126.041 95.9121C126.041 96.3322 123.943 100.533 123.943 100.533L124.222 108.094L113.868 107.814L114.568 100.393L113.729 94.6519Z" fill="#235FA9"/>
<path d="M112.19 98.292C112.19 98.292 111.35 105.713 111.91 106.273C112.47 106.834 114.709 108.374 114.709 108.374V106.694L113.589 104.593L114.709 99.6922L112.19 98.292Z" fill="#FFB9B9"/>
<path d="M126.671 98.082C126.671 98.082 126.181 105.713 126.181 105.994C126.181 106.274 124.922 107.254 124.502 107.254C124.083 107.254 123.803 106.554 123.803 106.554L124.782 105.433L124.083 99.6923L126.671 98.082Z" fill="#FFB9B9"/>
<path d="M125.342 108.794C125.342 108.794 131.638 105.293 131.778 108.794C131.918 112.295 128.56 113.695 128.56 113.695C128.56 113.695 119.885 116.298 119.535 115.347C119.185 114.395 118.486 112.855 119.046 112.715C119.605 112.575 120.305 112.295 120.585 112.575C120.865 112.855 124.362 110.474 124.362 110.474L125.342 108.794Z" fill="#2F2E41"/>
<path opacity="0.2" d="M128.28 108.374C128.28 108.374 127.021 108.934 126.601 109.354C126.181 109.774 124.362 110.474 124.362 110.474" stroke="black" stroke-width="2" stroke-miterlimit="10"/>
<path d="M114.568 94.9314L113.729 94.6514C113.729 94.6514 110.65 97.872 111.63 98.7121C112.609 99.5523 113.169 99.8323 113.449 100.112C113.729 100.392 115.128 100.532 115.128 100.532L114.568 94.9314Z" fill="#235FA9"/>
<path d="M124.782 95.6318L126.041 95.9119C126.041 95.9119 127.021 98.0123 127.301 98.2923C127.58 98.5724 126.881 98.4324 126.461 98.9925C126.041 99.5526 125.622 100.533 124.782 100.533C123.943 100.533 122.823 99.1325 122.823 99.1325L124.782 95.6318Z" fill="#235FA9"/>
<path d="M114.009 110.054C114.009 110.054 108.692 106.274 106.873 109.074C105.054 111.875 114.708 115.655 116.107 116.215C117.507 116.776 118.766 117.336 118.766 117.336C118.766 117.336 120.025 114.255 120.025 113.695C120.025 113.135 119.046 113.135 118.766 113.135C118.486 113.135 117.227 112.855 116.947 112.435C116.667 112.015 114.009 110.054 114.009 110.054Z" fill="#2F2E41"/>
<path opacity="0.2" d="M111.07 109.074C111.07 109.074 112.47 110.194 113.729 110.474C114.988 110.755 115.408 111.455 115.408 111.455" stroke="black" stroke-width="2" stroke-miterlimit="10"/>
<path d="M113.043 103.809L113.155 109.738C113.159 109.934 113.239 110.12 113.38 110.256C113.52 110.393 113.709 110.468 113.905 110.466L124.929 110.342C125.117 110.34 125.297 110.266 125.433 110.137C125.569 110.007 125.651 109.83 125.661 109.642L125.996 103.838C126.002 103.737 125.987 103.636 125.953 103.541C125.918 103.446 125.864 103.359 125.795 103.285C125.726 103.212 125.642 103.153 125.549 103.113C125.457 103.073 125.357 103.053 125.256 103.053H113.785C113.686 103.053 113.588 103.072 113.498 103.111C113.407 103.149 113.324 103.205 113.255 103.275C113.186 103.345 113.132 103.429 113.095 103.521C113.059 103.612 113.041 103.71 113.043 103.809Z" fill="#575A89"/>
<path d="M111.768 94.6866C112.068 94.0235 112.472 93.4012 112.664 92.6991C112.895 91.8576 112.805 90.9672 112.777 90.0951C112.734 89.3237 112.799 88.5501 112.973 87.7972C113.148 87.0407 113.543 86.3529 114.107 85.8197C115.574 84.5098 118.257 84.4157 120.048 84.961C120.754 85.176 121.506 85.5854 121.681 86.3027C121.707 86.411 121.719 86.5226 121.748 86.6301C121.895 87.1642 122.441 87.5021 122.638 88.0197C122.893 88.6891 122.5 89.4171 122.448 90.1316C122.389 90.9658 122.798 91.7539 123.202 92.4861C123.442 92.9214 123.692 93.385 123.668 93.8816C123.648 94.1532 123.566 94.4165 123.427 94.6509C123.17 95.0757 122.809 95.4282 122.378 95.6753C121.947 95.9224 121.461 96.0559 120.965 96.0634C120.642 96.0893 120.319 96.0131 120.042 95.8455C119.605 95.5444 119.477 94.9381 119.568 94.415C119.659 93.892 119.925 93.4189 120.133 92.9304C120.196 92.7805 120.254 92.6281 120.307 92.4741C120.952 92.114 121.448 91.5375 121.71 90.8465C121.971 90.1554 121.979 89.3943 121.734 88.6974C121.489 88.0006 121.006 87.4128 120.369 87.038C119.733 86.6632 118.985 86.5254 118.257 86.6489C117.529 86.7725 116.869 87.1494 116.392 87.7132C115.915 88.277 115.652 88.9914 115.65 89.7302C115.648 90.469 115.907 91.1847 116.381 91.751C116.856 92.3172 117.515 92.6975 118.242 92.8247C118.398 93.615 118.327 94.4336 118.036 95.1848C117.772 95.796 117.44 96.3757 117.046 96.9128C116.885 97.1882 116.671 97.4284 116.415 97.6194C116.247 97.7191 116.066 97.7963 115.878 97.8491C115.087 98.1034 114.255 98.3081 113.433 98.1937C112.611 98.0793 111.796 97.5829 111.516 96.8009C111.271 96.1156 111.468 95.3497 111.768 94.6866Z" fill="#2F2E41"/>
<path d="M118.61 89.7388C120.496 89.7388 122.025 88.8717 122.025 87.802C122.025 86.7324 120.496 85.8652 118.61 85.8652C116.723 85.8652 115.194 86.7324 115.194 87.802C115.194 88.8717 116.723 89.7388 118.61 89.7388Z" fill="#2F2E41"/>
<path opacity="0.3" d="M170.789 81.8833C170.737 81.7547 170.642 81.6485 170.519 81.5835C170.443 81.5388 170.361 81.5053 170.275 81.4839C170.333 81.456 170.386 81.419 170.432 81.3743C170.5 81.3106 170.552 81.2309 170.582 81.1422C170.61 81.0514 170.621 80.9562 170.615 80.8613C170.615 80.7037 170.571 80.5493 170.489 80.415C170.396 80.2924 170.271 80.199 170.127 80.1461C169.987 80.0919 169.839 80.0619 169.69 80.0574V79.4209L169.305 79.6699V80.0584H168.997V79.65L168.603 79.4209V80.0584H167.766L168.035 80.5366C168.092 80.5327 168.149 80.5404 168.203 80.5595C168.23 80.5716 168.252 80.5927 168.266 80.6192C168.282 80.6758 168.288 80.7348 168.284 80.7936V82.5189C168.288 82.5773 168.282 82.636 168.266 82.6922C168.253 82.7181 168.246 82.741 168.217 82.755C168.187 82.7689 168.186 82.7679 168.103 82.7679H168.102L167.766 83.2461H168.602V83.8836H168.996V83.2461H169.304V83.8836H169.689V83.2421C169.883 83.2386 170.076 83.204 170.26 83.1395C170.43 83.0785 170.579 82.9695 170.689 82.8257C170.785 82.6726 170.838 82.4963 170.841 82.3157C170.852 82.1696 170.834 82.0229 170.789 81.8833ZM168.996 80.5963L168.996 80.5831H169.265C169.416 80.5831 169.921 80.5309 169.929 80.9573C169.937 81.3838 169.265 81.3663 169.265 81.3663H168.996V81.3335L168.996 80.5963ZM168.996 81.8116H169.304C169.366 81.8116 169.581 81.8215 169.66 81.8252C169.692 81.8264 169.723 81.8322 169.754 81.8425C169.765 81.8464 169.775 81.8508 169.786 81.8557C169.834 81.8716 169.879 81.8951 169.919 81.9252C169.946 81.9434 169.969 81.9659 169.988 81.9919C170.017 82.0342 170.038 82.0814 170.05 82.1312C170.06 82.166 170.064 82.2019 170.065 82.238C170.068 82.3066 170.051 82.3748 170.017 82.4342C169.967 82.5132 169.895 82.5751 169.809 82.6115C169.649 82.6772 169.477 82.71 169.304 82.7081H168.996V81.8116Z" fill="#235FA9"/>
<path d="M14.3616 99.5437C16.5558 99.5437 18.3345 97.7636 18.3345 95.5677C18.3345 93.3719 16.5558 91.5918 14.3616 91.5918C12.1674 91.5918 10.3887 93.3719 10.3887 95.5677C10.3887 97.7636 12.1674 99.5437 14.3616 99.5437Z" fill="#F2F2F2"/>
<path opacity="0.3" d="M15.8461 95.7994C15.7941 95.6707 15.6985 95.5646 15.576 95.4995C15.4997 95.4548 15.4175 95.4213 15.3317 95.3999C15.3895 95.372 15.4424 95.335 15.4885 95.2903C15.5569 95.2266 15.6085 95.1469 15.6384 95.0582C15.6664 94.9674 15.6778 94.8722 15.6721 94.7773C15.6716 94.6197 15.6277 94.4653 15.5452 94.331C15.4531 94.2084 15.3276 94.115 15.1837 94.0621C15.0439 94.0079 14.896 93.9779 14.7462 93.9734V93.3369L14.3616 93.5859V93.9744H14.0539V93.566L13.6597 93.3369V93.9744H12.8223L13.0915 94.4526C13.1485 94.4487 13.2058 94.4565 13.2597 94.4755C13.2868 94.4876 13.3089 94.5087 13.3222 94.5353C13.3386 94.5918 13.3448 94.6509 13.3405 94.7096V96.4349C13.3447 96.4933 13.3385 96.552 13.3222 96.6082C13.3097 96.6341 13.303 96.657 13.2732 96.671C13.2434 96.6849 13.2424 96.6839 13.1598 96.6839H13.1588L12.8223 97.1621H13.6588V97.7996H14.053V97.1621H14.3606V97.7996H14.7452V97.1581C14.9399 97.1546 15.1327 97.12 15.3164 97.0555C15.4868 96.9945 15.6361 96.8855 15.7461 96.7417C15.8421 96.5886 15.8946 96.4123 15.8981 96.2317C15.9082 96.0856 15.8906 95.9389 15.8461 95.7994ZM14.053 94.5123L14.0531 94.4991H14.3219C14.4731 94.4991 14.9772 94.4469 14.9855 94.8733C14.994 95.2998 14.3219 95.2824 14.3219 95.2824H14.0531V95.2495L14.053 94.5123ZM14.053 95.7276H14.3607C14.4231 95.7276 14.6381 95.7375 14.7164 95.7412C14.7484 95.7424 14.78 95.7482 14.8102 95.7585C14.8213 95.7624 14.8318 95.7668 14.8431 95.7717C14.8907 95.7876 14.9355 95.8111 14.9757 95.8412C15.0022 95.8594 15.0254 95.8819 15.0443 95.9079C15.0734 95.9502 15.0947 95.9974 15.1071 96.0472C15.1162 96.0821 15.121 96.1179 15.1212 96.154C15.1244 96.2226 15.1077 96.2908 15.0732 96.3502C15.0238 96.4292 14.9514 96.4911 14.8657 96.5275C14.7055 96.5932 14.5338 96.626 14.3606 96.6242H14.053L14.053 95.7276Z" fill="#235FA9"/>
</g>
<defs>
<clipPath id="clip0_763_3813">
<rect x="0.128906" width="206" height="139" rx="15" fill="white"/>
</clipPath>
</defs>
</svg>
