<svg width="182" height="126" viewBox="0 0 182 126" fill="none" xmlns="http://www.w3.org/2000/svg">
<g clip-path="url(#clip0_763_3878)">
<path d="M182 51.4268H181.692V42.2257C181.692 41.5264 181.566 40.8339 181.321 40.1878C181.076 39.5417 180.717 38.9546 180.265 38.4601C179.812 37.9656 179.275 37.5734 178.684 37.3058C178.092 37.0381 177.459 36.9004 176.819 36.9004H158.979C158.339 36.9004 157.705 37.0381 157.114 37.3058C156.523 37.5734 155.985 37.9656 155.533 38.4601C155.08 38.9546 154.721 39.5417 154.476 40.1878C154.232 40.8339 154.105 41.5264 154.105 42.2257V92.7034C154.105 93.4028 154.232 94.0953 154.476 94.7414C154.721 95.3875 155.08 95.9745 155.533 96.469C155.985 96.9635 156.523 97.3558 157.114 97.6234C157.705 97.891 158.339 98.0288 158.979 98.0288H176.819C177.459 98.0288 178.092 97.891 178.684 97.6234C179.275 97.3558 179.812 96.9635 180.265 96.469C180.717 95.9745 181.076 95.3875 181.321 94.7414C181.566 94.0953 181.692 93.4028 181.692 92.7034V57.9762H182V51.4268Z" fill="#3F3D56"/>
<path d="M180.656 42.5382V92.9425C180.656 93.9974 180.272 95.009 179.59 95.7549C178.907 96.5008 177.981 96.9199 177.016 96.9199H159.09C158.613 96.9199 158.139 96.817 157.698 96.617C157.256 96.4171 156.855 96.1241 156.517 95.7547C156.179 95.3854 155.911 94.9469 155.729 94.4644C155.546 93.9818 155.452 93.4647 155.452 92.9425V42.5382C155.452 41.4838 155.835 40.4725 156.518 39.727C157.2 38.9814 158.126 38.5625 159.09 38.5625H161.265C161.159 38.8494 161.118 39.1605 161.147 39.4685C161.176 39.7765 161.274 40.072 161.432 40.329C161.59 40.586 161.804 40.7966 162.054 40.9423C162.304 41.0881 162.583 41.1644 162.866 41.1648H173.087C173.37 41.1653 173.65 41.0895 173.9 40.9441C174.151 40.7986 174.364 40.5879 174.523 40.3306C174.681 40.0734 174.779 39.7775 174.808 39.4691C174.836 39.1607 174.795 38.8493 174.687 38.5625H177.016C177.981 38.5624 178.907 38.9812 179.589 39.7268C180.272 40.4723 180.656 41.4836 180.656 42.5382Z" fill="#D0CDE1"/>
<path d="M177.262 64.3682H156.424V70.5124H177.262V64.3682Z" fill="white"/>
<path d="M178.088 69.4285H157.912C157.781 69.4283 157.655 69.3712 157.561 69.2695C157.468 69.1679 157.416 69.0301 157.416 68.8864V63.465C157.416 63.3213 157.468 63.1834 157.561 63.0818C157.655 62.9802 157.781 62.923 157.912 62.9229H178.088C178.22 62.923 178.346 62.9802 178.439 63.0818C178.532 63.1834 178.584 63.3213 178.585 63.465V68.8864C178.584 69.0301 178.532 69.1679 178.439 69.2695C178.346 69.3712 178.22 69.4283 178.088 69.4285ZM157.912 63.2843C157.868 63.2843 157.826 63.3034 157.795 63.3373C157.764 63.3711 157.747 63.4171 157.747 63.465V68.8864C157.747 68.9343 157.764 68.9802 157.795 69.0141C157.826 69.048 157.868 69.067 157.912 69.0671H178.088C178.132 69.067 178.174 69.048 178.205 69.0141C178.236 68.9802 178.254 68.9343 178.254 68.8864V63.465C178.254 63.4171 178.236 63.3711 178.205 63.3373C178.174 63.3034 178.132 63.2843 178.088 63.2843H157.912Z" fill="#3F3D56"/>
<path d="M161.385 67.8018H158.739V68.1632H161.385V67.8018Z" fill="#3F3D56"/>
<path d="M165.024 67.8018H162.378V68.1632H165.024V67.8018Z" fill="#3F3D56"/>
<path d="M168.663 67.8018H166.017V68.1632H168.663V67.8018Z" fill="#3F3D56"/>
<path d="M172.3 67.8018H169.654V68.1632H172.3V67.8018Z" fill="#3F3D56"/>
<path d="M175.939 67.8018H173.293V68.1632H175.939V67.8018Z" fill="#3F3D56"/>
<path opacity="0.1" d="M180.656 87.8179V92.9429C180.656 93.9978 180.272 95.0095 179.59 95.7554C178.907 96.5013 177.981 96.9203 177.016 96.9204H159.09C158.613 96.9203 158.139 96.8174 157.698 96.6175C157.256 96.4175 156.855 96.1245 156.517 95.7552C156.179 95.3858 155.911 94.9474 155.729 94.4648C155.546 93.9823 155.452 93.4652 155.452 92.9429V69.3672L180.656 87.8179Z" fill="black"/>
<path d="M94.7381 83.1631H16.5137V125.088H94.7381V83.1631Z" fill="#D0CDE1"/>
<path opacity="0.1" d="M74.8512 125.088H16.8444C16.7568 125.088 16.6728 125.05 16.6108 124.982C16.5489 124.914 16.5139 124.823 16.5137 124.727V83.5245C16.5139 83.4287 16.5489 83.337 16.6108 83.2693C16.6728 83.2015 16.7568 83.1634 16.8444 83.1631H17.5787L74.8512 125.088Z" fill="black"/>
<path d="M173.954 88.7646H52.7314V89.1261H173.954V88.7646Z" fill="#3F3D56"/>
<path d="M91.0566 0.868163H56.4114V0.0878906H40.7019V0.868163H5.9138C5.60605 0.868163 5.30131 0.934399 5.01699 1.06309C4.73266 1.19178 4.47432 1.3804 4.2567 1.61819C4.03909 1.85598 3.86647 2.13828 3.7487 2.44897C3.63093 2.75965 3.57031 3.09265 3.57031 3.42893V55.2673C3.57031 55.9465 3.81721 56.5978 4.2567 57.0781C4.69619 57.5583 5.29227 57.8281 5.9138 57.8281H91.0566C91.6782 57.8281 92.2743 57.5583 92.7137 57.0781C93.1532 56.5978 93.4001 55.9465 93.4001 55.2673V3.42893C93.4001 3.09265 93.3395 2.75965 93.2218 2.44897C93.104 2.13828 92.9314 1.85598 92.7137 1.61819C92.4961 1.3804 92.2378 1.19178 91.9535 1.06309C91.6691 0.934399 91.3644 0.868163 91.0566 0.868163Z" fill="#3F3D56"/>
<path d="M90.2575 5.39258H6.71289V56.892H90.2575V5.39258Z" fill="#D0CDE1"/>
<path d="M48.4135 3.98887C48.8868 3.98887 49.2704 3.56966 49.2704 3.05254C49.2704 2.53542 48.8868 2.11621 48.4135 2.11621C47.9403 2.11621 47.5566 2.53542 47.5566 3.05254C47.5566 3.56966 47.9403 3.98887 48.4135 3.98887Z" fill="white"/>
<path d="M31.5627 24.6122H29.5782C29.4466 24.612 29.3205 24.5549 29.2275 24.4532C29.1345 24.3516 29.0822 24.2138 29.082 24.0701V21.9015C29.0822 21.7578 29.1345 21.62 29.2275 21.5183C29.3205 21.4167 29.4466 21.3595 29.5782 21.3594H31.5627C31.6943 21.3595 31.8204 21.4167 31.9134 21.5183C32.0064 21.62 32.0587 21.7578 32.0589 21.9015V24.0701C32.0587 24.2138 32.0064 24.3516 31.9134 24.4532C31.8204 24.5549 31.6943 24.612 31.5627 24.6122ZM29.5782 21.7208C29.5343 21.7209 29.4923 21.7399 29.4613 21.7738C29.4303 21.8077 29.4128 21.8536 29.4128 21.9015V24.0701C29.4128 24.118 29.4303 24.1639 29.4613 24.1978C29.4923 24.2317 29.5343 24.2507 29.5782 24.2508H31.5627C31.6066 24.2507 31.6486 24.2317 31.6796 24.1978C31.7106 24.1639 31.728 24.118 31.7281 24.0701V21.9015C31.728 21.8536 31.7106 21.8077 31.6796 21.7738C31.6486 21.7399 31.6066 21.7209 31.5627 21.7208H29.5782Z" fill="#3F3D56"/>
<path d="M66.9535 24.25H29.2471V24.6114H66.9535V24.25Z" fill="#3F3D56"/>
<path d="M65.9614 34.1895H57.1963V37.0809H65.9614V34.1895Z" fill="white"/>
<path d="M66.6232 36.3583H58.5196C58.388 36.3581 58.2619 36.301 58.1689 36.1993C58.0759 36.0977 58.0236 35.9599 58.0234 35.8162V33.6476C58.0236 33.5039 58.0759 33.3661 58.1689 33.2644C58.2619 33.1628 58.388 33.1056 58.5196 33.1055H66.6232C66.7547 33.1056 66.8808 33.1628 66.9738 33.2644C67.0668 33.3661 67.1192 33.5039 67.1193 33.6476V35.8162C67.1192 35.9599 67.0668 36.0977 66.9738 36.1993C66.8808 36.301 66.7547 36.3581 66.6232 36.3583ZM58.5196 33.4669C58.4757 33.467 58.4337 33.486 58.4027 33.5199C58.3717 33.5538 58.3543 33.5997 58.3542 33.6476V35.8162C58.3543 35.8641 58.3717 35.91 58.4027 35.9439C58.4337 35.9777 58.4757 35.9968 58.5196 35.9969H66.6232C66.667 35.9968 66.709 35.9777 66.74 35.9439C66.771 35.91 66.7885 35.8641 66.7885 35.8162V33.6476C66.7885 33.5997 66.771 33.5538 66.74 33.5199C66.709 33.486 66.667 33.467 66.6232 33.4669H58.5196Z" fill="#3F3D56"/>
<path d="M132.94 37.4424H116.402V50.0922H132.94V37.4424Z" fill="white"/>
<path d="M134.595 49.0983H118.718C118.543 49.0981 118.375 49.0219 118.251 48.8864C118.127 48.7508 118.057 48.5671 118.057 48.3755V36.4484C118.057 36.2568 118.127 36.073 118.251 35.9375C118.375 35.802 118.543 35.7258 118.718 35.7256H134.595C134.77 35.7258 134.938 35.802 135.062 35.9375C135.186 36.073 135.256 36.2568 135.256 36.4484V48.3755C135.256 48.5671 135.186 48.7508 135.062 48.8864C134.938 49.0219 134.77 49.0981 134.595 49.0983ZM118.718 36.4484V48.3755H134.595L134.595 36.4484H118.718Z" fill="#3F3D56"/>
<path d="M132.775 35.9969H132.114C132.114 34.4153 131.539 32.8984 130.515 31.7801C129.492 30.6617 128.104 30.0334 126.656 30.0334C125.209 30.0334 123.821 30.6617 122.797 31.7801C121.774 32.8984 121.199 34.4153 121.199 35.9969H120.537C120.537 34.2236 121.182 32.5229 122.329 31.2689C123.477 30.015 125.033 29.3105 126.656 29.3105C128.279 29.3105 129.835 30.015 130.983 31.2689C132.13 32.5229 132.775 34.2236 132.775 35.9969Z" fill="#3F3D56"/>
<path d="M128.31 40.9665C128.31 40.6518 128.235 40.3425 128.092 40.0691C127.95 39.7957 127.744 39.5678 127.496 39.4079C127.248 39.248 126.966 39.1617 126.678 39.1574C126.39 39.1531 126.106 39.2311 125.854 39.3836C125.602 39.5361 125.391 39.7578 125.242 40.0268C125.093 40.2959 125.01 40.6028 125.003 40.9174C124.995 41.232 125.063 41.5433 125.199 41.8204C125.336 42.0976 125.536 42.331 125.78 42.4976V44.4372C125.78 44.5628 125.803 44.6873 125.847 44.8033C125.891 44.9194 125.955 45.0249 126.037 45.1137C126.118 45.2025 126.215 45.273 126.321 45.3211C126.427 45.3692 126.541 45.3939 126.656 45.3939C126.888 45.3939 127.111 45.2931 127.275 45.1137C127.439 44.9343 127.531 44.6909 127.531 44.4372V42.4976C127.769 42.3356 127.966 42.11 128.102 41.8421C128.238 41.5743 128.31 41.2729 128.31 40.9665Z" fill="#3F3D56"/>
<path d="M49.6715 101.776H47.0254V102.138H49.6715V101.776Z" fill="#3F3D56"/>
<path d="M53.3101 101.776H50.6641V102.138H53.3101V101.776Z" fill="#3F3D56"/>
<path d="M56.9488 101.776H54.3027V102.138H56.9488V101.776Z" fill="#3F3D56"/>
<path d="M60.5865 101.776H57.9404V102.138H60.5865V101.776Z" fill="#3F3D56"/>
<path d="M64.2252 101.776H61.5791V102.138H64.2252V101.776Z" fill="#3F3D56"/>
<path d="M98.2106 122.015H20.6478C20.4725 122.015 20.3043 121.939 20.1803 121.803C20.0563 121.668 19.9865 121.484 19.9863 121.292V80.09C19.9865 79.8984 20.0563 79.7147 20.1803 79.5791C20.3043 79.4436 20.4725 79.3674 20.6478 79.3672H98.2106C98.386 79.3674 98.5542 79.4436 98.6782 79.5791C98.8022 79.7146 98.872 79.8984 98.8722 80.09V121.292C98.872 121.484 98.8022 121.668 98.6782 121.803C98.5542 121.939 98.386 122.015 98.2106 122.015ZM20.6478 80.09V121.292H98.2111L98.2106 80.09H20.6478Z" fill="#3F3D56"/>
<path d="M24.1212 86.235C24.6692 86.235 25.1135 85.7495 25.1135 85.1507C25.1135 84.5519 24.6692 84.0664 24.1212 84.0664C23.5732 84.0664 23.1289 84.5519 23.1289 85.1507C23.1289 85.7495 23.5732 86.235 24.1212 86.235Z" fill="#3F3D56"/>
<path d="M27.5938 86.235C28.1419 86.235 28.5861 85.7495 28.5861 85.1507C28.5861 84.5519 28.1419 84.0664 27.5938 84.0664C27.0458 84.0664 26.6016 84.5519 26.6016 85.1507C26.6016 85.7495 27.0458 86.235 27.5938 86.235Z" fill="#3F3D56"/>
<path d="M31.0665 86.235C31.6145 86.235 32.0588 85.7495 32.0588 85.1507C32.0588 84.5519 31.6145 84.0664 31.0665 84.0664C30.5185 84.0664 30.0742 84.5519 30.0742 85.1507C30.0742 85.7495 30.5185 86.235 31.0665 86.235Z" fill="#3F3D56"/>
<path d="M66.7882 104.306H44.462C44.3304 104.305 44.2043 104.248 44.1113 104.147C44.0183 104.045 43.966 103.907 43.9658 103.764V97.6193C43.966 97.4756 44.0183 97.3377 44.1113 97.2361C44.2043 97.1345 44.3304 97.0773 44.462 97.0771H66.7882C66.9197 97.0773 67.0458 97.1345 67.1388 97.2361C67.2318 97.3377 67.2842 97.4756 67.2843 97.6193V103.764C67.2842 103.907 67.2318 104.045 67.1388 104.147C67.0458 104.248 66.9197 104.305 66.7882 104.306ZM44.462 97.4386C44.4181 97.4386 44.3761 97.4577 44.3451 97.4916C44.3141 97.5254 44.2966 97.5714 44.2966 97.6193V103.764C44.2966 103.811 44.3141 103.857 44.3451 103.891C44.3761 103.925 44.4181 103.944 44.462 103.944H66.7882C66.832 103.944 66.874 103.925 66.905 103.891C66.9361 103.857 66.9535 103.811 66.9535 103.764V97.6193C66.9535 97.5714 66.9361 97.5254 66.905 97.4916C66.874 97.4577 66.832 97.4386 66.7882 97.4386H44.462Z" fill="#3F3D56"/>
<path d="M72.4114 104.487C74.0555 104.487 75.3882 103.031 75.3882 101.234C75.3882 99.4378 74.0555 97.9814 72.4114 97.9814C70.7673 97.9814 69.4346 99.4378 69.4346 101.234C69.4346 103.031 70.7673 104.487 72.4114 104.487Z" fill="white"/>
<path d="M73.4039 104.125C72.7825 104.125 72.1749 103.924 71.6582 103.546C71.1415 103.169 70.7387 102.633 70.5009 102.005C70.2631 101.378 70.2009 100.688 70.3221 100.021C70.4433 99.3555 70.7426 98.7437 71.1821 98.2635C71.6215 97.7833 72.1814 97.4563 72.7909 97.3238C73.4004 97.1913 74.0322 97.2593 74.6064 97.5192C75.1806 97.779 75.6713 98.2191 76.0166 98.7838C76.3618 99.3484 76.5461 100.012 76.5461 100.691C76.5452 101.602 76.2138 102.474 75.6248 103.118C75.0357 103.762 74.237 104.124 73.4039 104.125ZM73.4039 97.6192C72.8479 97.6192 72.3043 97.7994 71.842 98.137C71.3796 98.4746 71.0193 98.9543 70.8065 99.5157C70.5937 100.077 70.538 100.695 70.6465 101.291C70.755 101.887 71.0227 102.434 71.4159 102.864C71.8091 103.293 72.3101 103.586 72.8554 103.704C73.4008 103.823 73.9661 103.762 74.4798 103.53C74.9935 103.297 75.4326 102.903 75.7416 102.398C76.0505 101.893 76.2154 101.299 76.2154 100.691C76.2145 99.8768 75.9181 99.096 75.391 98.52C74.8639 97.9441 74.1493 97.6201 73.4039 97.6192Z" fill="#3F3D56"/>
<path d="M73.4477 101.974L71.8467 100.224L72.3144 99.7133L73.3594 100.855L76.2754 96.3271L76.8163 96.7433L73.4477 101.974Z" fill="#3F3D56"/>
<path opacity="0.1" d="M71.7351 56.8928H6.71289V9.29492L71.7351 56.8928Z" fill="black"/>
<path d="M95.7459 55.9557H87.5924V55.3138C87.5924 55.2971 87.5894 55.2805 87.5835 55.2651C87.5777 55.2497 87.5691 55.2356 87.5583 55.2238C87.5475 55.212 87.5346 55.2026 87.5205 55.1962C87.5064 55.1898 87.4912 55.1865 87.4759 55.1865H84.6804C84.6651 55.1865 84.65 55.1898 84.6358 55.1962C84.6217 55.2026 84.6089 55.212 84.5981 55.2238C84.5872 55.2356 84.5787 55.2497 84.5728 55.2651C84.567 55.2805 84.5639 55.2971 84.5639 55.3138V55.9557H82.8168V55.3138C82.8168 55.2971 82.8137 55.2805 82.8079 55.2651C82.802 55.2497 82.7934 55.2356 82.7826 55.2238C82.7718 55.212 82.759 55.2026 82.7449 55.1962C82.7307 55.1898 82.7156 55.1865 82.7003 55.1865H79.9048C79.8895 55.1865 79.8743 55.1898 79.8602 55.1962C79.8461 55.2026 79.8332 55.212 79.8224 55.2238C79.8116 55.2356 79.803 55.2497 79.7972 55.2651C79.7913 55.2805 79.7883 55.2971 79.7883 55.3138V55.9557H78.0411V55.3138C78.0411 55.2971 78.0381 55.2805 78.0322 55.2651C78.0264 55.2497 78.0178 55.2356 78.007 55.2238C77.9962 55.212 77.9833 55.2026 77.9692 55.1962C77.9551 55.1898 77.9399 55.1865 77.9246 55.1865H75.1291C75.1138 55.1865 75.0987 55.1898 75.0845 55.1962C75.0704 55.2026 75.0576 55.212 75.0468 55.2238C75.0359 55.2356 75.0274 55.2497 75.0215 55.2651C75.0157 55.2805 75.0126 55.2971 75.0126 55.3138V55.9557H73.2655V55.3138C73.2655 55.2971 73.2624 55.2805 73.2566 55.2651C73.2507 55.2497 73.2422 55.2356 73.2313 55.2238C73.2205 55.212 73.2077 55.2026 73.1936 55.1962C73.1794 55.1898 73.1643 55.1865 73.149 55.1865H70.3535C70.3382 55.1865 70.323 55.1898 70.3089 55.1962C70.2948 55.2026 70.2819 55.212 70.2711 55.2238C70.2603 55.2356 70.2517 55.2497 70.2459 55.2651C70.24 55.2805 70.237 55.2971 70.237 55.3138V55.9557H68.4898V55.3138C68.4898 55.2971 68.4868 55.2805 68.4809 55.2651C68.4751 55.2497 68.4665 55.2356 68.4557 55.2238C68.4449 55.212 68.432 55.2026 68.4179 55.1962C68.4038 55.1898 68.3886 55.1865 68.3733 55.1865H65.5778C65.5625 55.1865 65.5474 55.1898 65.5332 55.1962C65.5191 55.2026 65.5063 55.212 65.4955 55.2238C65.4846 55.2356 65.4761 55.2497 65.4702 55.2651C65.4644 55.2805 65.4613 55.2971 65.4613 55.3138V55.9557H63.7142V55.3138C63.7142 55.2971 63.7111 55.2805 63.7053 55.2651C63.6994 55.2497 63.6909 55.2356 63.68 55.2238C63.6692 55.212 63.6564 55.2026 63.6423 55.1962C63.6281 55.1898 63.613 55.1865 63.5977 55.1865H60.8022C60.7869 55.1865 60.7717 55.1898 60.7576 55.1962C60.7435 55.2026 60.7306 55.212 60.7198 55.2238C60.709 55.2356 60.7004 55.2497 60.6946 55.2651C60.6887 55.2805 60.6857 55.2971 60.6857 55.3138V55.9557H58.9385V55.3138C58.9385 55.2971 58.9355 55.2805 58.9296 55.2651C58.9238 55.2497 58.9152 55.2356 58.9044 55.2238C58.8936 55.212 58.8807 55.2026 58.8666 55.1962C58.8525 55.1898 58.8373 55.1865 58.822 55.1865H36.9239C36.9086 55.1865 36.8935 55.1898 36.8793 55.1962C36.8652 55.2026 36.8524 55.212 36.8416 55.2238C36.8307 55.2356 36.8222 55.2497 36.8163 55.2651C36.8105 55.2805 36.8074 55.2971 36.8074 55.3138V55.9557H35.0603V55.3138C35.0603 55.2971 35.0572 55.2805 35.0514 55.2651C35.0455 55.2497 35.037 55.2356 35.0261 55.2238C35.0153 55.212 35.0025 55.2026 34.9884 55.1962C34.9742 55.1898 34.9591 55.1865 34.9438 55.1865H32.1483C32.133 55.1865 32.1178 55.1898 32.1037 55.1962C32.0896 55.2026 32.0767 55.212 32.0659 55.2238C32.0551 55.2356 32.0465 55.2497 32.0407 55.2651C32.0348 55.2805 32.0318 55.2971 32.0318 55.3138V55.9557H30.2846V55.3138C30.2846 55.2971 30.2816 55.2805 30.2757 55.2651C30.2699 55.2497 30.2613 55.2356 30.2505 55.2238C30.2397 55.212 30.2268 55.2026 30.2127 55.1962C30.1986 55.1898 30.1834 55.1865 30.1681 55.1865H27.3726C27.3573 55.1865 27.3422 55.1898 27.3281 55.1962C27.3139 55.2026 27.3011 55.212 27.2903 55.2238C27.2794 55.2356 27.2709 55.2497 27.265 55.2651C27.2592 55.2805 27.2561 55.2971 27.2561 55.3138V55.9557H25.509V55.3138C25.509 55.2971 25.5059 55.2805 25.5001 55.2651C25.4942 55.2497 25.4857 55.2356 25.4748 55.2238C25.464 55.212 25.4512 55.2026 25.4371 55.1962C25.4229 55.1898 25.4078 55.1865 25.3925 55.1865H22.597C22.5817 55.1865 22.5665 55.1898 22.5524 55.1962C22.5383 55.2026 22.5254 55.212 22.5146 55.2238C22.5038 55.2356 22.4952 55.2497 22.4894 55.2651C22.4835 55.2805 22.4805 55.2971 22.4805 55.3138V55.9557H20.7333V55.3138C20.7333 55.2971 20.7303 55.2805 20.7244 55.2651C20.7186 55.2497 20.71 55.2356 20.6992 55.2238C20.6884 55.212 20.6755 55.2026 20.6614 55.1962C20.6473 55.1898 20.6321 55.1865 20.6168 55.1865H17.8213C17.806 55.1865 17.7909 55.1898 17.7767 55.1962C17.7626 55.2026 17.7498 55.212 17.739 55.2238C17.7281 55.2356 17.7196 55.2497 17.7137 55.2651C17.7079 55.2805 17.7048 55.2971 17.7048 55.3138V55.9557H15.9577V55.3138C15.9577 55.2971 15.9547 55.2805 15.9488 55.2651C15.9429 55.2497 15.9344 55.2356 15.9235 55.2238C15.9127 55.212 15.8999 55.2026 15.8858 55.1962C15.8716 55.1898 15.8565 55.1865 15.8412 55.1865H13.0457C13.0304 55.1865 13.0152 55.1898 13.0011 55.1962C12.987 55.2026 12.9741 55.212 12.9633 55.2238C12.9525 55.2356 12.9439 55.2497 12.9381 55.2651C12.9322 55.2805 12.9292 55.2971 12.9292 55.3138V55.9557H11.182V55.3138C11.182 55.2971 11.179 55.2805 11.1731 55.2651C11.1673 55.2497 11.1587 55.2356 11.1479 55.2238C11.1371 55.212 11.1242 55.2026 11.1101 55.1962C11.096 55.1898 11.0808 55.1865 11.0655 55.1865H8.27003C8.25473 55.1865 8.23958 55.1898 8.22545 55.1962C8.21132 55.2026 8.19848 55.212 8.18766 55.2238C8.17685 55.2356 8.16827 55.2497 8.16241 55.2651C8.15656 55.2805 8.15355 55.2971 8.15355 55.3138V55.9557H2.7955C2.42839 55.9557 2.06487 56.0347 1.72571 56.1883C1.38654 56.3418 1.07837 56.5668 0.818783 56.8504C0.559196 57.1341 0.353281 57.4708 0.212794 57.8414C0.0723073 58.212 -2.17179e-07 58.6093 0 59.0104V60.3917C1.75445e-06 61.2018 0.294528 61.9788 0.818786 62.5517C1.34304 63.1245 2.05409 63.4464 2.7955 63.4464H95.7459C96.1131 63.4464 96.4766 63.3673 96.8157 63.2138C97.1549 63.0603 97.4631 62.8353 97.7227 62.5517C97.9823 62.268 98.1882 61.9313 98.3287 61.5606C98.4691 61.19 98.5415 60.7928 98.5415 60.3917V59.0104C98.5415 58.6093 98.4691 58.212 98.3287 57.8414C98.1882 57.4708 97.9823 57.1341 97.7227 56.8504C97.4631 56.5668 97.1549 56.3418 96.8157 56.1883C96.4766 56.0347 96.1131 55.9557 95.7459 55.9557Z" fill="#3F3D56"/>
<path d="M70.2617 39.4304H26.6016C26.4701 39.4303 26.344 39.3731 26.2509 39.2715C26.1579 39.1698 26.1056 39.032 26.1055 38.8883V19.0099C26.1056 18.8662 26.1579 18.7284 26.2509 18.6267C26.344 18.5251 26.4701 18.4679 26.6016 18.4678H70.2617C70.3933 18.4679 70.5194 18.5251 70.6124 18.6267C70.7054 18.7284 70.7577 18.8662 70.7579 19.0099V38.8883C70.7577 39.032 70.7054 39.1698 70.6124 39.2715C70.5194 39.3731 70.3933 39.4303 70.2617 39.4304ZM26.6016 18.8292C26.5578 18.8293 26.5157 18.8483 26.4847 18.8822C26.4537 18.9161 26.4363 18.962 26.4362 19.0099V38.8883C26.4363 38.9362 26.4537 38.9821 26.4847 39.016C26.5157 39.0499 26.5578 39.0689 26.6016 39.069H70.2617C70.3056 39.0689 70.3476 39.0499 70.3786 39.016C70.4096 38.9821 70.4271 38.9362 70.4271 38.8883V19.0099C70.4271 18.962 70.4096 18.9161 70.3786 18.8822C70.3476 18.8483 70.3056 18.8293 70.2617 18.8292H26.6016Z" fill="#3F3D56"/>
<path d="M31.5627 30.0331H29.5782C29.4466 30.0329 29.3205 29.9758 29.2275 29.8741C29.1345 29.7725 29.0822 29.6347 29.082 29.491V27.3224C29.0822 27.1787 29.1345 27.0409 29.2275 26.9392C29.3205 26.8376 29.4466 26.7804 29.5782 26.7803H31.5627C31.6943 26.7804 31.8204 26.8376 31.9134 26.9392C32.0064 27.0409 32.0587 27.1787 32.0589 27.3224V29.491C32.0587 29.6347 32.0064 29.7725 31.9134 29.8741C31.8204 29.9758 31.6943 30.0329 31.5627 30.0331ZM29.5782 27.1417C29.5343 27.1418 29.4923 27.1608 29.4613 27.1947C29.4303 27.2286 29.4128 27.2745 29.4128 27.3224V29.491C29.4128 29.5389 29.4303 29.5848 29.4613 29.6187C29.4923 29.6526 29.5343 29.6716 29.5782 29.6717H31.5627C31.6066 29.6716 31.6486 29.6526 31.6796 29.6187C31.7106 29.5848 31.728 29.5389 31.7281 29.491V27.3224C31.728 27.2745 31.7106 27.2286 31.6796 27.1947C31.6486 27.1608 31.6066 27.1418 31.5627 27.1417H29.5782Z" fill="#3F3D56"/>
<path d="M66.9535 29.6719H29.2471V30.0333H66.9535V29.6719Z" fill="#3F3D56"/>
<path d="M165.024 48.8271H43.8008V49.1886H165.024V48.8271Z" fill="#3F3D56"/>
<path d="M43.8007 51.3568C45.0794 51.3568 46.116 50.2241 46.116 48.8268C46.116 47.4296 45.0794 46.2969 43.8007 46.2969C42.522 46.2969 41.4854 47.4296 41.4854 48.8268C41.4854 50.2241 42.522 51.3568 43.8007 51.3568Z" fill="#3F3D56"/>
<path d="M165.024 51.1768C166.029 51.1768 166.843 50.2869 166.843 49.189C166.843 48.0912 166.029 47.2012 165.024 47.2012C164.02 47.2012 163.205 48.0912 163.205 49.189C163.205 50.2869 164.02 51.1768 165.024 51.1768Z" fill="#3F3D56"/>
<path d="M173.954 91.1143C174.959 91.1143 175.773 90.2244 175.773 89.1265C175.773 88.0287 174.959 87.1387 173.954 87.1387C172.949 87.1387 172.135 88.0287 172.135 89.1265C172.135 90.2244 172.949 91.1143 173.954 91.1143Z" fill="#3F3D56"/>
<path d="M53.2274 91.1143C54.2321 91.1143 55.0465 90.2244 55.0465 89.1265C55.0465 88.0287 54.2321 87.1387 53.2274 87.1387C52.2227 87.1387 51.4082 88.0287 51.4082 89.1265C51.4082 90.2244 52.2227 91.1143 53.2274 91.1143Z" fill="#3F3D56"/>
</g>
<defs>
<clipPath id="clip0_763_3878">
<rect width="182" height="125" fill="white" transform="translate(0 0.0878906)"/>
</clipPath>
</defs>
</svg>
