<svg width="186" height="118" viewBox="0 0 186 118" fill="none" xmlns="http://www.w3.org/2000/svg">
<path d="M59.8491 0H59.4697V19.8867H59.8491V0Z" fill="white"/>
<path d="M59.8491 25.8057H59.4697V43.304H59.8491V25.8057Z" fill="white"/>
<path d="M88.3039 46.0928H58.9004V46.4645H88.3039V46.0928Z" fill="white"/>
<path d="M46.7603 51.1104H46.3809V66.9082H46.7603V51.1104Z" fill="white"/>
<path d="M94.3745 69.6953H49.7949V70.067H94.3745V69.6953Z" fill="white"/>
<path d="M128.331 9.10645H100.438V9.47816H128.331V9.10645Z" fill="white"/>
<path d="M97.6001 12.0811H97.2207V37.1717H97.6001V12.0811Z" fill="white"/>
<path d="M59.6595 26.0193C59.0217 26.0193 58.3982 25.834 57.8678 25.4869C57.3375 25.1397 56.9241 24.6462 56.6801 24.0689C56.436 23.4915 56.3721 22.8563 56.4965 22.2434C56.621 21.6305 56.9281 21.0675 57.3791 20.6256C57.8301 20.1837 58.4048 19.8828 59.0303 19.7609C59.6559 19.639 60.3043 19.7016 60.8936 19.9407C61.4829 20.1798 61.9865 20.5848 62.3409 21.1044C62.6952 21.624 62.8844 22.2349 62.8844 22.8598C62.8834 23.6974 62.5434 24.5006 61.9388 25.0929C61.3342 25.6852 60.5145 26.0184 59.6595 26.0193ZM59.6595 20.0719C59.0967 20.0719 58.5465 20.2354 58.0786 20.5418C57.6107 20.8481 57.2459 21.2835 57.0306 21.7929C56.8152 22.3023 56.7589 22.8629 56.8686 23.4036C56.9784 23.9444 57.2494 24.4412 57.6474 24.8311C58.0454 25.221 58.5524 25.4865 59.1043 25.5941C59.6563 25.7016 60.2285 25.6464 60.7484 25.4354C61.2684 25.2244 61.7128 24.8671 62.0254 24.4086C62.3381 23.9502 62.505 23.4111 62.505 22.8598C62.5041 22.1206 62.2041 21.412 61.6706 20.8894C61.1372 20.3667 60.4139 20.0727 59.6595 20.0719Z" fill="white"/>
<path d="M46.7601 73.0418C46.1222 73.0418 45.4987 72.8565 44.9684 72.5093C44.4381 72.1621 44.0247 71.6687 43.7806 71.0913C43.5366 70.514 43.4727 69.8787 43.5971 69.2658C43.7216 68.6529 44.0287 68.0899 44.4797 67.6481C44.9307 67.2062 45.5053 66.9053 46.1309 66.7834C46.7565 66.6615 47.4049 66.724 47.9942 66.9632C48.5835 67.2023 49.0871 67.6073 49.4415 68.1269C49.7958 68.6464 49.985 69.2573 49.985 69.8822C49.984 70.7199 49.6439 71.523 49.0394 72.1153C48.4348 72.7077 47.6151 73.0409 46.7601 73.0418ZM46.7601 67.0944C46.1973 67.0944 45.6471 67.2579 45.1792 67.5642C44.7112 67.8705 44.3465 68.3059 44.1312 68.8154C43.9158 69.3248 43.8594 69.8853 43.9692 70.4261C44.079 70.9669 44.35 71.4637 44.748 71.8535C45.1459 72.2434 45.653 72.5089 46.2049 72.6165C46.7569 72.7241 47.329 72.6689 47.849 72.4579C48.3689 72.2469 48.8134 71.8895 49.126 71.4311C49.4387 70.9726 49.6056 70.4336 49.6056 69.8822C49.6047 69.1431 49.3047 68.4345 48.7712 67.9118C48.2378 67.3892 47.5145 67.0952 46.7601 67.0944Z" fill="white"/>
<path d="M59.8497 49.2521C61.526 49.2521 62.8849 47.9207 62.8849 46.2784C62.8849 44.6361 61.526 43.3047 59.8497 43.3047C58.1734 43.3047 56.8145 44.6361 56.8145 46.2784C56.8145 47.9207 58.1734 49.2521 59.8497 49.2521Z" fill="white"/>
<path d="M169.686 22.6748H138.195V23.0465H169.686V22.6748Z" fill="white"/>
<path d="M135.35 25.8057H134.971V43.304H135.35V25.8057Z" fill="white"/>
<path d="M131.935 46.0928H106.705V46.4645H131.935V46.0928Z" fill="white"/>
<path d="M177.274 47.7656H151.096V48.1373H177.274V47.7656Z" fill="white"/>
<path d="M148.44 51.1104H148.061V66.9082H148.44V51.1104Z" fill="white"/>
<path d="M145.025 69.6953H100.445V70.067H145.025V69.6953Z" fill="white"/>
<path d="M97.6001 55.3857H97.2207V66.9089H97.6001V55.3857Z" fill="white"/>
<path d="M135.16 25.8341C136.837 25.8341 138.195 24.5028 138.195 22.8604C138.195 21.2181 136.837 19.8867 135.16 19.8867C133.484 19.8867 132.125 21.2181 132.125 22.8604C132.125 24.5028 133.484 25.8341 135.16 25.8341Z" fill="white"/>
<path d="M131.367 12.2664C130.729 12.2664 130.105 12.0811 129.575 11.7339C129.045 11.3867 128.631 10.8933 128.387 10.3159C128.143 9.73861 128.079 9.10333 128.204 8.49044C128.328 7.87754 128.635 7.31456 129.086 6.87268C129.537 6.43081 130.112 6.12989 130.737 6.00798C131.363 5.88606 132.011 5.94864 132.601 6.18778C133.19 6.42692 133.694 6.83189 134.048 7.35148C134.402 7.87106 134.591 8.48193 134.591 9.10684C134.59 9.94452 134.25 10.7476 133.646 11.34C133.041 11.9323 132.222 12.2655 131.367 12.2664ZM131.367 6.31898C130.804 6.31898 130.254 6.48249 129.786 6.78882C129.318 7.09515 128.953 7.53056 128.738 8.03997C128.522 8.54938 128.466 9.10993 128.576 9.65072C128.685 10.1915 128.956 10.6883 129.354 11.0781C129.752 11.468 130.259 11.7336 130.811 11.8411C131.363 11.9487 131.935 11.8935 132.455 11.6825C132.975 11.4715 133.42 11.1141 133.732 10.6557C134.045 10.1972 134.212 9.65822 134.212 9.10684C134.211 8.3677 133.911 7.65908 133.378 7.13643C132.844 6.61379 132.121 6.3198 131.367 6.31898Z" fill="white"/>
<path d="M97.4105 12.2664C96.7726 12.2664 96.1491 12.0811 95.6188 11.7339C95.0885 11.3867 94.6751 10.8933 94.431 10.3159C94.1869 9.73861 94.1231 9.10333 94.2475 8.49044C94.3719 7.87754 94.6791 7.31456 95.1301 6.87268C95.5811 6.43081 96.1557 6.12989 96.7813 6.00798C97.4069 5.88606 98.0553 5.94864 98.6446 6.18778C99.2338 6.42692 99.7375 6.83189 100.092 7.35148C100.446 7.87106 100.635 8.48193 100.635 9.10684C100.634 9.94452 100.294 10.7476 99.6898 11.34C99.0852 11.9323 98.2655 12.2655 97.4105 12.2664ZM97.4105 6.31898C96.8477 6.31898 96.2975 6.48249 95.8296 6.78882C95.3616 7.09515 94.9969 7.53056 94.7816 8.03997C94.5662 8.54938 94.5098 9.10993 94.6196 9.65072C94.7294 10.1915 95.0004 10.6883 95.3984 11.0781C95.7963 11.468 96.3034 11.7336 96.8553 11.8411C97.4073 11.9487 97.9794 11.8935 98.4994 11.6825C99.0193 11.4715 99.4637 11.1141 99.7764 10.6557C100.089 10.1972 100.256 9.65822 100.256 9.10684C100.255 8.3677 99.9551 7.65908 99.4216 7.13643C98.8882 6.61379 98.1649 6.3198 97.4105 6.31898Z" fill="white"/>
<path d="M148.06 51.2967C147.422 51.2967 146.799 51.1114 146.268 50.7642C145.738 50.417 145.325 49.9236 145.08 49.3462C144.836 48.7689 144.772 48.1336 144.897 47.5207C145.021 46.9078 145.329 46.3448 145.78 45.903C146.231 45.4611 146.805 45.1602 147.431 45.0383C148.056 44.9163 148.705 44.9789 149.294 45.218C149.883 45.4572 150.387 45.8622 150.741 46.3817C151.096 46.9013 151.285 47.5122 151.285 48.1371C151.284 48.9748 150.944 49.7779 150.339 50.3702C149.735 50.9626 148.915 51.2957 148.06 51.2967ZM148.06 45.3493C147.497 45.3493 146.947 45.5128 146.479 45.8191C146.011 46.1254 145.646 46.5608 145.431 47.0702C145.216 47.5797 145.159 48.1402 145.269 48.681C145.379 49.2218 145.65 49.7185 146.048 50.1084C146.446 50.4983 146.953 50.7638 147.505 50.8714C148.057 50.979 148.629 50.9238 149.149 50.7128C149.669 50.5017 150.113 50.1444 150.426 49.686C150.738 49.2275 150.905 48.6885 150.905 48.1371C150.905 47.398 150.604 46.6894 150.071 46.1667C149.538 45.6441 148.814 45.3501 148.06 45.3493Z" fill="white"/>
<path d="M148.06 72.8566C149.736 72.8566 151.095 71.5252 151.095 69.8829C151.095 68.2406 149.736 66.9092 148.06 66.9092C146.383 66.9092 145.024 68.2406 145.024 69.8829C145.024 71.5252 146.383 72.8566 148.06 72.8566Z" fill="white"/>
<path d="M97.4105 73.0418C96.7726 73.0418 96.1491 72.8565 95.6188 72.5093C95.0885 72.1621 94.6751 71.6687 94.431 71.0913C94.1869 70.514 94.1231 69.8787 94.2475 69.2658C94.3719 68.6529 94.6791 68.0899 95.1301 67.6481C95.5811 67.2062 96.1557 66.9053 96.7813 66.7834C97.4069 66.6615 98.0553 66.724 98.6446 66.9632C99.2338 67.2023 99.7375 67.6073 100.092 68.1269C100.446 68.6464 100.635 69.2573 100.635 69.8822C100.634 70.7199 100.294 71.523 99.6898 72.1153C99.0852 72.7077 98.2655 73.0409 97.4105 73.0418ZM97.4105 67.0944C96.8477 67.0944 96.2975 67.2579 95.8296 67.5642C95.3616 67.8705 94.9969 68.3059 94.7816 68.8154C94.5662 69.3248 94.5098 69.8853 94.6196 70.4261C94.7294 70.9669 95.0004 71.4637 95.3984 71.8535C95.7963 72.2434 96.3034 72.5089 96.8553 72.6165C97.4073 72.7241 97.9794 72.6689 98.4994 72.4579C99.0193 72.2469 99.4637 71.8895 99.7764 71.4311C100.089 70.9726 100.256 70.4336 100.256 69.8822C100.255 69.1431 99.9551 68.4345 99.4216 67.9118C98.8882 67.3892 98.1649 67.0952 97.4105 67.0944Z" fill="white"/>
<path d="M134.971 49.4373C134.333 49.4373 133.71 49.252 133.179 48.9048C132.649 48.5576 132.236 48.0642 131.992 47.4869C131.747 46.9095 131.684 46.2742 131.808 45.6613C131.932 45.0484 132.24 44.4855 132.691 44.0436C133.142 43.6017 133.716 43.3008 134.342 43.1789C134.967 43.057 135.616 43.1195 136.205 43.3587C136.794 43.5978 137.298 44.0028 137.652 44.5224C138.007 45.042 138.196 45.6528 138.196 46.2777C138.195 47.1154 137.855 47.9185 137.25 48.5109C136.646 49.1032 135.826 49.4364 134.971 49.4373ZM134.971 43.4899C134.408 43.4899 133.858 43.6534 133.39 43.9597C132.922 44.2661 132.557 44.7015 132.342 45.2109C132.127 45.7203 132.07 46.2808 132.18 46.8216C132.29 47.3624 132.561 47.8592 132.959 48.249C133.357 48.6389 133.864 48.9045 134.416 49.012C134.968 49.1196 135.54 49.0644 136.06 48.8534C136.58 48.6424 137.024 48.285 137.337 47.8266C137.65 47.3681 137.817 46.8291 137.817 46.2777C137.816 45.5386 137.516 44.83 136.982 44.3073C136.449 43.7847 135.725 43.4907 134.971 43.4899Z" fill="white"/>
<path d="M46.7598 41.8184C46.0094 41.8184 45.2759 42.0364 44.652 42.4448C44.0281 42.8533 43.5418 43.4338 43.2546 44.113C42.9675 44.7922 42.8923 45.5396 43.0387 46.2607C43.1851 46.9817 43.5465 47.6441 44.0771 48.1639C44.6077 48.6838 45.2837 49.0378 46.0197 49.1812C46.7556 49.3246 47.5185 49.251 48.2117 48.9697C48.905 48.6883 49.4975 48.2119 49.9144 47.6006C50.3313 46.9894 50.5538 46.2707 50.5538 45.5355C50.5509 44.5505 50.1502 43.6067 49.4393 42.9103C48.7285 42.2138 47.7652 41.8212 46.7598 41.8184ZM46.7598 42.9335C46.9849 42.9335 47.205 42.9989 47.3922 43.1214C47.5794 43.244 47.7252 43.4181 47.8114 43.6219C47.8975 43.8257 47.9201 44.0499 47.8762 44.2662C47.8322 44.4825 47.7238 44.6812 47.5647 44.8372C47.4055 44.9931 47.2027 45.0993 46.9819 45.1424C46.7611 45.1854 46.5322 45.1633 46.3243 45.0789C46.1163 44.9945 45.9385 44.8516 45.8134 44.6682C45.6884 44.4848 45.6216 44.2692 45.6216 44.0486C45.6226 43.7532 45.7429 43.4701 45.9561 43.2612C46.1693 43.0523 46.4583 42.9345 46.7598 42.9335ZM46.7598 48.3019C46.3102 48.2999 45.8679 48.1904 45.4712 47.983C45.0745 47.7756 44.7354 47.4765 44.4834 47.1117C44.5017 46.3683 46.001 45.959 46.7598 45.959C47.5186 45.959 49.018 46.3683 49.0362 47.1117C48.7839 47.4763 48.4448 47.7752 48.0482 47.9825C47.6516 48.1899 47.2094 48.2995 46.7598 48.3019Z" fill="white"/>
<path d="M174.997 18.957C174.247 18.957 173.513 19.175 172.889 19.5835C172.265 19.9919 171.779 20.5725 171.492 21.2517C171.205 21.9309 171.13 22.6783 171.276 23.3993C171.422 24.1204 171.784 24.7827 172.314 25.3026C172.845 25.8224 173.521 26.1765 174.257 26.3199C174.993 26.4633 175.756 26.3897 176.449 26.1084C177.142 25.827 177.735 25.3506 178.152 24.7393C178.569 24.128 178.791 23.4094 178.791 22.6742C178.788 21.6892 178.388 20.7454 177.677 20.0489C176.966 19.3525 176.002 18.9599 174.997 18.957ZM174.997 20.0722C175.222 20.0722 175.442 20.1376 175.629 20.2601C175.817 20.3826 175.963 20.5568 176.049 20.7606C176.135 20.9643 176.157 21.1885 176.113 21.4049C176.07 21.6212 175.961 21.8199 175.802 21.9758C175.643 22.1318 175.44 22.238 175.219 22.281C174.998 22.3241 174.77 22.302 174.562 22.2176C174.354 22.1332 174.176 21.9902 174.051 21.8069C173.926 21.6235 173.859 21.4079 173.859 21.1873C173.86 20.8919 173.98 20.6088 174.193 20.3999C174.407 20.191 174.696 20.0732 174.997 20.0722ZM174.997 25.4406C174.548 25.4386 174.105 25.3291 173.708 25.1217C173.312 24.9143 172.973 24.6152 172.721 24.2504C172.739 23.507 174.238 23.0977 174.997 23.0977C175.756 23.0977 177.255 23.507 177.274 24.2504C177.021 24.6149 176.682 24.9138 176.286 25.1212C175.889 25.3286 175.447 25.4382 174.997 25.4406Z" fill="white"/>
<path d="M182.206 44.0479C181.456 44.0479 180.722 44.2659 180.098 44.6743C179.474 45.0827 178.988 45.6633 178.701 46.3425C178.414 47.0217 178.339 47.7691 178.485 48.4902C178.631 49.2112 178.993 49.8736 179.523 50.3934C180.054 50.9133 180.73 51.2673 181.466 51.4107C182.202 51.5541 182.965 51.4805 183.658 51.1992C184.351 50.9178 184.944 50.4414 185.361 49.8301C185.778 49.2188 186 48.5002 186 47.765C185.997 46.78 185.597 45.8362 184.886 45.1398C184.175 44.4433 183.211 44.0507 182.206 44.0479ZM182.206 45.163C182.431 45.163 182.651 45.2284 182.838 45.3509C183.026 45.4735 183.172 45.6476 183.258 45.8514C183.344 46.0552 183.366 46.2794 183.322 46.4957C183.279 46.712 183.17 46.9107 183.011 47.0667C182.852 47.2226 182.649 47.3288 182.428 47.3718C182.207 47.4149 181.979 47.3928 181.771 47.3084C181.563 47.224 181.385 47.0811 181.26 46.8977C181.135 46.7143 181.068 46.4987 181.068 46.2781C181.069 45.9827 181.189 45.6996 181.402 45.4907C181.616 45.2818 181.905 45.164 182.206 45.163ZM182.206 50.5314C181.756 50.5294 181.314 50.4199 180.917 50.2125C180.521 50.0051 180.182 49.706 179.93 49.3412C179.948 48.5978 181.447 48.1885 182.206 48.1885C182.965 48.1885 184.464 48.5978 184.483 49.3412C184.23 49.7058 183.891 50.0046 183.494 50.212C183.098 50.4194 182.656 50.529 182.206 50.5314Z" fill="white"/>
<path d="M97.6524 43.9863L97.2637 45.5131C97.7043 45.6208 99.0626 46.0597 99.2827 45.1957C99.512 44.2948 98.093 44.0939 97.6524 43.9863Z" fill="white"/>
<path d="M97.0674 46.2832L96.6387 47.9667C97.1677 48.0955 98.7997 48.6088 99.041 47.6591C99.2931 46.6689 97.5965 46.4126 97.0674 46.2832Z" fill="white"/>
<path d="M99.4093 39.4424C98.0444 39.1089 96.6092 39.1795 95.2853 39.6452C93.9613 40.1109 92.808 40.9508 91.9713 42.0586C91.1345 43.1665 90.6519 44.4926 90.5844 45.8692C90.5169 47.2458 90.8675 48.611 91.592 49.7924C92.3164 50.9738 93.3822 51.9181 94.6544 52.506C95.9267 53.094 97.3483 53.2991 98.7396 53.0954C100.131 52.8918 101.429 52.2885 102.47 51.3619C103.512 50.4353 104.249 49.227 104.59 47.8897C104.816 47.0018 104.861 46.0789 104.723 45.1738C104.585 44.2687 104.267 43.3991 103.786 42.6146C103.304 41.8302 102.67 41.1463 101.919 40.602C101.169 40.0577 100.316 39.6636 99.4093 39.4424ZM100.825 45.2108C100.722 45.8897 100.338 46.2185 99.8281 46.3336C100.528 46.6906 100.885 47.2385 100.545 48.1882C100.124 49.3675 99.123 49.4671 97.7923 49.2203L97.4692 50.4886L96.6886 50.2981L97.0073 49.0467C96.7994 48.9962 96.592 48.9436 96.3852 48.8887L96.0654 50.1459L95.2857 49.9552L95.6088 48.6846C95.4265 48.6389 95.2414 48.5902 95.0524 48.544L94.0368 48.2957L94.4241 47.4204C94.4241 47.4204 94.9993 47.5704 94.9915 47.5593C95.0272 47.5705 95.0647 47.5747 95.1021 47.5716C95.1394 47.5685 95.1757 47.5582 95.2089 47.5413C95.2422 47.5244 95.2717 47.5013 95.2957 47.4732C95.3198 47.445 95.3379 47.4125 95.3491 47.3775L95.8596 45.3727C95.8882 45.3796 95.9161 45.3862 95.9419 45.3927C95.9155 45.3826 95.8884 45.3741 95.8609 45.3673L96.2249 43.936C96.2358 43.83 96.2038 43.7241 96.1358 43.641C96.0678 43.5578 95.9692 43.5041 95.8613 43.4914C95.8736 43.4833 95.2945 43.3533 95.2945 43.3533L95.5022 42.5365L96.5787 42.7999L96.5778 42.8038C96.7396 42.8432 96.9063 42.8805 97.0763 42.9184L97.3962 41.6626L98.1762 41.8531L97.8628 43.0844C98.0723 43.1312 98.283 43.1785 98.4883 43.2284L98.7996 42.0053L99.58 42.1958L99.2603 43.4522C100.246 43.7847 100.966 44.2832 100.825 45.2108Z" fill="white"/>
<path d="M28.8344 114.543C28.2946 119.352 -0.0428918 118.949 4.87522e-05 114.543C0.539818 109.734 28.8773 110.138 28.8344 114.543Z" fill="#E6E6E6"/>
<path d="M19.6816 102.436L20.8305 104.874L22.9363 104.687L24.2766 100.372L22.1705 99.2471L19.6816 102.436Z" fill="#FFB8B8"/>
<path d="M12.4526 108.052L12.4072 109.752L15.6619 109.939V107.876L12.4526 108.052Z" fill="#FFB8B8"/>
<path d="M13.5559 77.1144L14.3217 92.1203L12.4072 108.439L18.1508 109.19L21.7885 88.5565L22.9371 74.4883L13.5559 77.1144Z" fill="#2F2E41"/>
<path d="M4.55702 71.674C4.55702 71.674 2.25957 86.4924 7.04592 91.3694C11.8323 96.2463 18.3417 104.875 18.3417 104.875L22.9366 99.2475L11.2579 87.0551L13.5554 78.8018L22.9366 74.4876L21.405 64.171L7.62028 63.9834L4.55702 71.674Z" fill="#2F2E41"/>
<path d="M15.8526 37.348C18.1788 37.348 20.0646 35.5005 20.0646 33.2214C20.0646 30.9423 18.1788 29.0947 15.8526 29.0947C13.5264 29.0947 11.6406 30.9423 11.6406 33.2214C11.6406 35.5005 13.5264 37.348 15.8526 37.348Z" fill="#FFB8B8"/>
<path d="M12.2156 34.1572C12.2156 34.1572 12.0241 39.9721 11.0668 40.7224C10.1096 41.4727 14.513 44.6614 14.513 44.6614L17.3848 40.1596V36.033L12.2156 34.1572Z" fill="#FFB8B8"/>
<path d="M14.1303 42.0364L11.8059 38.5977L10.4926 40.3482L8.57812 45.6004L10.1098 66.0459L19.108 66.2335L20.2568 42.7867L17.385 39.4104L14.1303 42.0364Z" fill="#D0CDE1"/>
<path d="M23.894 43.3507L25.4257 43.1631C25.4257 43.1631 25.8086 43.3507 26 44.6637C26.1915 45.9767 28.4889 57.6064 28.4889 57.6064L25.4257 71.8621L21.9795 67.3603L24.0855 59.4821L21.9795 51.604L23.894 43.3507Z" fill="#2F2E41"/>
<path d="M4.36621 43.1631H3.21739L0.345703 58.3567L3.02598 70.174L5.70625 65.8597L4.94043 61.1704L5.32344 57.0438L6.66367 54.6052L4.36621 43.1631Z" fill="#2F2E41"/>
<path d="M21.4056 104.123C21.4056 104.123 20.2568 103.748 20.2568 104.498C20.2568 105.249 21.0227 107.499 21.0227 107.499C21.0227 107.499 19.8739 114.44 21.597 114.065C23.3201 113.689 24.6603 110.501 24.8517 109.563C25.0432 108.625 26.0005 103.748 26.0005 103.748C26.0005 103.748 27.5321 100.184 26.5748 99.9965C25.6175 99.8089 22.9372 99.0586 22.9372 99.0586C22.9372 99.0586 24.4688 103.748 21.4056 104.123Z" fill="#2F2E41"/>
<path d="M15.8538 109.939C15.8538 109.939 12.7905 108.064 12.2161 109.564C11.8352 110.659 11.5784 111.791 11.4503 112.941C11.4503 112.941 10.6845 115.379 13.7478 115.004C16.811 114.629 16.4281 114.629 16.6196 113.503C16.811 112.378 15.8538 109.939 15.8538 109.939Z" fill="#2F2E41"/>
<path d="M13.3642 33.2207L14.13 33.0331C14.13 33.0331 14.7044 29.8443 16.0446 30.2195C17.3848 30.5946 20.8309 30.9698 20.8309 29.4692C20.8309 27.9686 17.5762 26.6555 15.6617 26.8431C13.7471 27.0307 10.4924 27.5934 10.6839 30.407C10.8753 33.2207 12.1107 35.9577 12.1107 35.9577L12.2105 34.2895L13.3642 33.2207Z" fill="#2F2E41"/>
<path d="M17.3846 44.287L14.1299 42.0361L17.3846 39.4102L18.5146 40.7385L17.3846 44.287Z" fill="#D0CDE1"/>
<path d="M11.258 44.1008L14.1299 42.0374L11.8324 38.6611L10.4922 40.3493L11.258 44.1008Z" fill="#D0CDE1"/>
<path d="M25.2342 43.1618L19.1077 40.7233L17.6718 39.6916L13.3641 58.3554L10.4923 49.9145L11.3538 39.1289L3.40846 43.1618L6.08882 55.9169L6.47173 60.7938L5.323 64.7329C5.323 64.7329 1.30247 67.5465 2.64265 70.5477C3.98282 73.5489 5.51446 73.7365 5.51446 73.7365C5.51446 73.7365 12.0239 67.7341 12.4068 66.2335C12.7897 64.7329 13.3641 62.1069 13.3641 62.1069C13.3641 62.1069 16.6188 74.1117 20.4479 73.9241C24.2769 73.7365 24.2769 69.7974 24.2769 69.7974L23.3197 65.6708L21.788 61.3566L22.5539 54.2287L25.2342 43.1618Z" fill="#2F2E41"/>
</svg>
