<svg xmlns="http://www.w3.org/2000/svg" width="688" height="555" viewBox="0 0 688 555" fill="none" style="&#10;">
<g clip-path="url(#clip0_1021_1435)">
<path d="M606.228 314.998L621.273 299.314C619.902 288.916 617.97 278.607 615.485 268.437L606.91 272.959L614.613 264.928C611.421 252.384 608.544 244.287 608.544 244.287C608.544 244.287 578.223 276.46 562.552 314.188L572.262 340.785L558.977 323.687C557.462 328.152 556.218 332.71 555.252 337.337C545.664 384.02 552.524 425.127 570.575 429.152C588.626 433.177 611.031 398.596 620.62 351.913C623.592 337.44 623.56 321.599 622.102 306.626L606.228 314.998Z" fill="#E6E6E6" style="&#10;    fill: #009951;&#10;"/>
<path d="M650.937 347.575L671.598 342.252C675.582 332.613 679.042 322.747 681.961 312.702L672.377 311.955L682.955 309.23C686.446 296.771 688 288.291 688 288.291C688 288.291 646.083 299.503 613.95 323.36L609.068 351.357L606.177 329.566C602.666 332.571 599.339 335.804 596.217 339.245C564.849 374.043 550.329 412.927 563.784 426.094C577.24 439.262 613.576 421.726 644.944 386.927C654.668 376.139 662.499 362.56 668.679 348.958L650.937 347.575Z" fill="#E6E6E6" style="&#10;    fill: #009951;&#10;"/>
<path d="M453.754 154.192L458.83 112.685C445.263 98.8161 430.956 85.7552 415.978 73.5649L408.192 90.6283L410.79 69.3771C392.125 54.495 378.861 45.8711 378.861 45.8711C378.861 45.8711 369.257 130.362 387.672 205.521L431.633 233.536L392.861 223.999C395.546 232.484 398.741 240.785 402.426 248.852C439.843 330.059 495.629 383.158 527.029 367.452C558.429 351.746 553.552 273.182 516.136 191.975C504.537 166.8 486.935 143.195 468.169 122.603L453.754 154.192Z" fill="#E6E6E6" style="&#10;    fill: #009951;&#10;"/>
<path d="M556.581 149.032L581.517 116.234C576.784 97.0547 571.016 78.1687 564.242 59.6662L549.111 70.0798L561.878 53.2874C553.283 30.4952 546.206 15.9688 546.206 15.9688C546.206 15.9688 496.069 83.1241 474.546 157.382L498.281 205.04L469.822 175.994C467.911 184.704 466.528 193.53 465.681 202.421C457.424 292.089 478.837 367.59 513.509 371.056C548.18 374.522 582.981 304.641 591.238 214.973C593.798 187.175 590.44 157.488 584.591 129.753L556.581 149.032Z" fill="#E6E6E6" style="&#10;    fill: #009951;&#10;"/>
<path d="M96.8876 160.292L94.3651 116.742C77.8845 105.272 60.7963 94.7803 43.1816 85.316L38.379 104.371L37.0876 82.0732C15.1951 70.5958 0 64.4395 0 64.4395C0 64.4395 5.8807 152.945 38.7323 226.231L88.9862 246.054L47.4872 244.114C51.8171 252.265 56.6346 260.124 61.9114 267.645C115.356 343.289 182.393 386.424 211.642 363.99C240.891 341.555 221.276 262.047 167.831 186.403C151.263 162.953 128.837 142.324 105.778 125.016L96.8876 160.292Z" fill="#E6E6E6" style="&#10;    fill: #009951;&#10;"/>
<path d="M201.279 134.235L220.725 95.5955C212.307 76.9011 202.884 58.7163 192.5 41.1277L178.935 54.8533L188.892 35.0697C175.845 13.4537 165.891 0 165.891 0C165.891 0 127.018 78.9321 118.783 159.361L151.968 203.396L117.406 179.385C117.068 188.694 117.293 198.017 118.079 207.297C126.304 300.836 162.291 373.865 198.459 370.413C234.627 366.961 257.28 288.334 249.056 194.796C246.507 165.798 237.543 136.061 226.39 108.826L201.279 134.235Z" fill="#E6E6E6" style="&#10;    fill: #009951;&#10;"/>
<path d="M310.071 525.227C324.234 525.227 335.715 521.809 335.715 517.593C335.715 513.377 324.234 509.959 310.071 509.959C295.908 509.959 284.427 513.377 284.427 517.593C284.427 521.809 295.908 525.227 310.071 525.227Z" fill="#E6E6E6" style="&#10;    fill: #009951;&#10;"/>
<path d="M589.226 555.001C603.389 555.001 614.871 551.583 614.871 547.367C614.871 543.15 603.389 539.732 589.226 539.732C575.063 539.732 563.582 543.15 563.582 547.367C563.582 551.583 575.063 555.001 589.226 555.001Z" fill="#E6E6E6" style="&#10;    fill: #009951;&#10;"/>
<path d="M642.714 492.401C656.877 492.401 668.358 488.983 668.358 484.767C668.358 480.551 656.877 477.133 642.714 477.133C628.551 477.133 617.069 480.551 617.069 484.767C617.069 488.983 628.551 492.401 642.714 492.401Z" fill="#E6E6E6" style="&#10;    fill: #009951;&#10;"/>
<path d="M537.572 470.261C548.295 470.261 556.988 467.674 556.988 464.481C556.988 461.289 548.295 458.701 537.572 458.701C526.848 458.701 518.155 461.289 518.155 464.481C518.155 467.674 526.848 470.261 537.572 470.261Z" fill="#E6E6E6" style="&#10;    fill: #009951;&#10;"/>
<path d="M117.007 464.808C124.088 464.808 129.829 462.953 129.829 460.664C129.829 458.375 124.088 456.52 117.007 456.52C109.925 456.52 104.185 458.375 104.185 460.664C104.185 462.953 109.925 464.808 117.007 464.808Z" fill="#E6E6E6" style="&#10;    fill: #009951;&#10;"/>
<path d="M66.4501 511.376C73.5315 511.376 79.2722 509.521 79.2722 507.232C79.2722 504.943 73.5315 503.088 66.4501 503.088C59.3686 503.088 53.6279 504.943 53.6279 507.232C53.6279 509.521 59.3686 511.376 66.4501 511.376Z" fill="#E6E6E6" style="&#10;    fill: #009951;&#10;"/>
<path d="M66.4501 438.089C73.5315 438.089 79.2722 436.234 79.2722 433.945C79.2722 431.656 73.5315 429.801 66.4501 429.801C59.3686 429.801 53.6279 431.656 53.6279 433.945C53.6279 436.234 59.3686 438.089 66.4501 438.089Z" fill="#E6E6E6" style="&#10;    fill: #009951;&#10;"/>
<path d="M615.51 447.325L491.274 442.744L425.757 449.256L313.823 460.379L271.701 464.562L174.15 498.458C173.759 498.594 173.338 498.611 172.937 498.509C172.536 498.406 172.172 498.186 171.886 497.876C171.6 497.566 171.404 497.178 171.321 496.757C171.238 496.335 171.271 495.898 171.417 495.496L171.425 495.488L188.343 448.867L186.562 447.5L140.007 411.857L139.758 411.666L79.3911 402.077C78.5412 401.941 77.7386 401.582 77.0588 401.034C76.3791 400.485 75.8447 399.765 75.506 398.942C75.1673 398.118 75.0355 397.218 75.123 396.327C75.2104 395.436 75.5144 394.583 76.006 393.848L167.944 256.388L216.258 184.169L221.497 176.329L422.474 173.436L618.697 440.897C619.139 441.499 619.407 442.22 619.471 442.975C619.535 443.73 619.392 444.489 619.058 445.163C618.724 445.836 618.213 446.397 617.585 446.78C616.957 447.163 616.237 447.352 615.51 447.325Z" fill="#39A7FF"/>
<path opacity="0.2" d="M268.576 187.483L186.561 447.5L140.011 411.856L167.947 256.389L216.12 183.996L216.257 184.165L268.576 187.483Z" fill="black"/>
<path d="M195.366 287.091C186.06 310.401 182.766 329.871 171.727 326.355C156.615 321.542 172.482 304.516 181.788 281.207C191.094 257.897 197.67 240.016 205.428 241.943C219.89 245.535 204.672 263.782 195.366 287.091Z" fill="#3F3D56"/>
<path d="M216.451 240.433C216.449 238.891 216.155 237.364 215.586 235.939C215.017 234.515 214.185 233.221 213.136 232.132C212.088 231.043 210.843 230.18 209.475 229.592C208.106 229.004 206.639 228.703 205.159 228.705C204.904 228.705 204.653 228.718 204.403 228.736L193.763 227.368C192.543 226.915 191.256 226.684 189.96 226.688C189.602 226.688 189.248 226.708 188.899 226.743L188.489 226.69L188.478 226.794C185.981 227.143 183.668 228.354 181.909 230.232C180.149 232.111 179.044 234.55 178.77 237.159C178.496 239.768 179.068 242.398 180.396 244.629C181.724 246.859 183.73 248.563 186.096 249.466L186.073 249.678L187.12 249.8C188.059 250.055 189.025 250.184 189.996 250.182C190.103 250.182 190.21 250.176 190.317 250.173L201.193 251.442C202.472 251.946 203.828 252.203 205.195 252.199C205.705 252.198 206.214 252.16 206.719 252.087L207.646 252.195L207.652 251.912C210.152 251.326 212.386 249.869 213.986 247.783C215.585 245.696 216.455 243.104 216.451 240.433Z" fill="#39A7FF"/>
<path opacity="0.2" d="M216.451 240.433C216.449 238.891 216.155 237.364 215.586 235.939C215.017 234.515 214.185 233.221 213.136 232.132C212.088 231.043 210.843 230.18 209.475 229.592C208.106 229.004 206.639 228.703 205.159 228.705C204.904 228.705 204.653 228.718 204.403 228.736L193.763 227.368C192.543 226.915 191.256 226.684 189.96 226.688C189.602 226.688 189.248 226.708 188.899 226.743L188.489 226.69L188.478 226.794C185.981 227.143 183.668 228.354 181.909 230.232C180.149 232.111 179.044 234.55 178.77 237.159C178.496 239.768 179.068 242.398 180.396 244.629C181.724 246.859 183.73 248.563 186.096 249.466L186.073 249.678L187.12 249.8C188.059 250.055 189.025 250.184 189.996 250.182C190.103 250.182 190.21 250.176 190.317 250.173L201.193 251.442C202.472 251.946 203.828 252.203 205.195 252.199C205.705 252.198 206.214 252.16 206.719 252.087L207.646 252.195L207.652 251.912C210.152 251.326 212.386 249.869 213.986 247.783C215.585 245.696 216.455 243.104 216.451 240.433Z" fill="white"/>
<path d="M65.8794 400.907L64.5771 400.195C97.9327 333.955 192.274 192.424 193.223 191.002L194.431 191.877C193.482 193.298 99.1925 334.751 65.8794 400.907Z" fill="#3F3D56"/>
<path d="M168.051 500.178L166.633 499.776C167.32 497.144 235.642 236.025 259.363 191.977L260.646 192.726C237.013 236.611 168.739 497.548 168.051 500.178Z" fill="#3F3D56"/>
<path d="M624.48 449.553C588.056 387.035 450.504 193.415 449.118 191.466L450.3 190.555C451.686 192.504 589.278 386.181 625.736 448.758L624.48 449.553Z" fill="#3F3D56"/>
<path d="M165.405 507.127C168.247 507.122 170.547 504.032 170.541 500.224C170.535 496.415 168.226 493.332 165.383 493.337C162.541 493.342 160.241 496.433 160.247 500.241C160.253 504.049 162.562 507.132 165.405 507.127Z" fill="#3F3D56"/>
<path d="M66.2133 403.869C69.0559 403.865 71.3555 400.774 71.3497 396.966C71.3438 393.158 69.0346 390.074 66.192 390.079C63.3493 390.084 61.0497 393.175 61.0556 396.983C61.0614 400.791 63.3706 403.874 66.2133 403.869Z" fill="#3F3D56"/>
<path d="M625.843 452.994C628.686 452.99 630.985 449.899 630.98 446.091C630.974 442.283 628.665 439.199 625.822 439.204C622.979 439.209 620.68 442.3 620.685 446.108C620.691 449.916 623.001 452.999 625.843 452.994Z" fill="#3F3D56"/>
<path d="M187.507 198.607L464.92 201.704C464.727 178.098 455.589 155.526 439.495 138.909C423.402 122.291 401.658 112.973 379 112.984L273.129 113.162C228.846 113.236 191.349 149.318 187.765 195.307L187.507 198.607Z" fill="#3F3D56"/>
<path opacity="0.2" d="M431.252 294.154H329.862C328.628 294.153 327.405 294.407 326.266 294.903C325.127 295.398 324.093 296.124 323.225 297.039C322.357 297.953 321.673 299.039 321.211 300.232C320.749 301.424 320.519 302.701 320.535 303.987L320.623 311.713L321.524 394.421L321.539 396.016L321.568 398.65L321.597 401.223L321.766 416.728C321.794 419.251 322.761 421.664 324.465 423.457C326.168 425.251 328.474 426.284 330.895 426.339C331.144 426.339 331.401 426.331 331.657 426.316L355.734 424.789L390.566 422.575L402.86 421.797L405.601 421.621L424.76 420.407H424.768L431.816 419.957C434.187 419.804 436.413 418.715 438.041 416.912C439.669 415.11 440.577 412.729 440.579 410.254V303.873C440.577 301.296 439.593 298.826 437.845 297.004C436.096 295.182 433.725 294.157 431.252 294.154Z" fill="black"/>
<path d="M452.131 280.645C451.764 280.675 451.409 280.79 451.09 280.981C450.771 281.171 450.496 281.433 450.285 281.747L439.114 281.766V278.679C439.111 276.103 438.128 273.632 436.379 271.81C434.63 269.988 432.26 268.964 429.787 268.961H328.397C327.162 268.96 325.94 269.214 324.8 269.709C323.661 270.204 322.628 270.93 321.76 271.845C320.892 272.76 320.207 273.845 319.745 275.038C319.284 276.231 319.054 277.508 319.069 278.794L319.106 281.967L311.901 281.979C311.506 281.541 310.964 281.279 310.388 281.249C307.862 281.253 305.824 286.999 305.835 294.083C305.846 301.167 307.902 306.906 310.427 306.902C310.867 306.852 311.289 306.692 311.658 306.436C312.026 306.181 312.33 305.836 312.543 305.432L450.322 305.201C450.533 305.515 450.809 305.776 451.128 305.965C451.448 306.155 451.804 306.268 452.171 306.298C454.696 306.293 456.734 300.547 456.723 293.464C456.712 286.38 454.656 280.641 452.131 280.645Z" fill="#39A7FF"/>
<path opacity="0.2" d="M452.131 280.645C451.765 280.675 451.409 280.79 451.09 280.981C450.771 281.171 450.496 281.433 450.286 281.747L439.114 281.766V278.679C439.111 276.103 438.128 273.632 436.379 271.81C434.631 269.988 432.26 268.964 429.787 268.961H328.397C327.162 268.96 325.94 269.214 324.8 269.709C323.661 270.204 322.628 270.93 321.76 271.845C320.892 272.76 320.207 273.845 319.746 275.038C319.284 276.231 319.054 277.508 319.069 278.794L319.106 281.967L311.901 281.979C311.506 281.541 310.964 281.279 310.388 281.249C307.862 281.253 305.824 286.999 305.835 294.083C305.846 301.167 307.902 306.906 310.427 306.902C310.867 306.852 311.289 306.692 311.658 306.436C312.026 306.181 312.33 305.836 312.544 305.432L450.322 305.201C450.533 305.515 450.809 305.776 451.128 305.965C451.448 306.155 451.804 306.268 452.171 306.298C454.696 306.293 456.734 300.547 456.723 293.464C456.712 286.38 454.656 280.641 452.131 280.645Z" fill="white"/>
<path d="M440.781 442.824C440.11 443.478 439.302 443.962 438.422 444.237C437.541 444.512 436.612 444.571 435.706 444.41C434.8 444.248 433.942 443.871 433.199 443.307C432.456 442.743 431.849 442.007 431.424 441.158L425.912 430.13L428.105 425.18L439.922 433.06C440.687 433.57 441.33 434.255 441.801 435.063C442.273 435.871 442.561 436.781 442.644 437.723C442.727 438.665 442.602 439.614 442.279 440.498C441.956 441.382 441.444 442.178 440.781 442.824Z" fill="#FFB8B8"/>
<path d="M464.592 507.161C464.461 505.887 463.878 504.71 462.958 503.86C462.038 503.01 460.846 502.549 459.616 502.567C458.496 502.559 457.406 502.943 456.521 503.659C455.635 504.374 455.006 505.378 454.735 506.51L449.853 531.21C449.692 531.932 449.608 532.67 449.604 533.412C449.604 538.982 454.077 542.852 459.616 542.852C465.155 542.852 469.632 538.982 469.632 533.412C469.629 532.519 469.512 531.631 469.286 530.771L464.592 507.161Z" fill="#3F3D56"/>
<path d="M501.518 518.208C501.022 517.755 500.488 517.348 499.922 516.993L481.273 503.413C479.457 502.225 477.518 502.259 476.11 503.693C475.495 504.302 475.105 505.117 475.007 505.995C474.909 506.873 475.109 507.759 475.573 508.5L489.655 527.783C489.976 528.25 490.335 528.689 490.728 529.093C493.169 531.936 498.581 532.092 501.556 529.093C504.49 526.044 504.455 520.612 501.518 518.208Z" fill="#3F3D56"/>
<path d="M515.533 498.092H496.645C496.04 498.068 495.45 498.294 495.003 498.721C494.557 499.148 494.291 499.742 494.263 500.372C494.253 500.954 494.431 501.522 494.767 501.986C495.104 502.45 495.58 502.783 496.119 502.932L513.937 508.675C516.526 509.304 520.012 506.9 520.012 503.899C520.012 500.081 517.974 498.092 515.533 498.092Z" fill="#3F3D56"/>
<path d="M425.657 500.361C425.637 500.037 425.556 499.72 425.417 499.429C425.278 499.138 425.085 498.879 424.849 498.666C424.613 498.454 424.339 498.293 424.042 498.192C423.746 498.092 423.433 498.054 423.122 498.081H404.234C401.855 498.081 399.849 500.758 399.849 503.759C399.849 506.761 403.234 509.304 405.83 508.675L423.916 502.932C424.459 502.801 424.936 502.466 425.257 501.992C425.578 501.518 425.72 500.938 425.657 500.361Z" fill="#3F3D56"/>
<path d="M438.62 503.436L419.965 516.957C419.386 517.296 418.846 517.704 418.356 518.172C416.985 519.501 416.176 521.344 416.108 523.294C416.04 525.244 416.719 527.143 417.994 528.572C418.111 528.702 418.231 528.827 418.356 528.949C419.819 530.389 421.756 531.191 423.769 531.191C425.782 531.191 427.718 530.389 429.182 528.949C429.58 528.551 429.94 528.113 430.254 527.641L444.347 508.466C444.819 507.736 445.024 506.854 444.926 505.979C444.827 505.104 444.432 504.296 443.81 503.699C443.115 503.023 442.212 502.625 441.262 502.577C440.311 502.529 439.376 502.833 438.62 503.436Z" fill="#3F3D56"/>
<path d="M467.637 477.011C467.854 476.68 467.974 476.29 467.983 475.889C467.983 473.522 463.507 471.877 457.968 471.877C452.429 471.877 447.955 473.522 447.955 475.889C447.963 476.218 448.049 476.539 448.205 476.825L453.086 487.322C453.645 488.312 455.662 489.005 457.968 488.998C460.567 488.998 462.726 488.141 462.943 487.045L467.637 477.011Z" fill="#3F3D56"/>
<path d="M499.908 477.724C496.933 476.45 491.52 476.516 489.079 477.724C488.71 477.884 488.352 478.07 488.006 478.281L473.925 486.476C472.967 487.125 473.193 487.984 474.461 488.519C476.128 489.121 477.934 489.162 479.625 488.638L498.274 482.867C498.814 482.724 499.347 482.551 499.87 482.35C502.807 481.329 502.842 479.02 499.908 477.724Z" fill="#3F3D56"/>
<path d="M518.364 488.432C518.364 487.156 514.877 486.135 512.288 486.402L494.47 488.843C493.406 488.998 492.614 489.36 492.614 489.931C492.614 490.502 493.776 490.9 494.996 490.9H513.884C516.325 490.9 518.364 490.054 518.364 488.432Z" fill="#3F3D56"/>
<path d="M422.268 488.843L404.182 486.402C401.585 486.135 398.2 487.216 398.2 488.491C398.2 489.767 400.207 490.905 402.586 490.905H421.474C422.788 490.905 424.009 490.529 424.009 489.936C424.009 489.342 423.445 488.999 422.268 488.843Z" fill="#3F3D56"/>
<path d="M442.162 488.518C443.482 487.975 443.637 487.154 442.698 486.492L428.606 478.343C428.263 478.128 427.905 477.942 427.533 477.787C424.028 476.516 420.213 476.516 416.708 477.787C416.583 477.838 416.462 477.892 416.346 477.947C413.69 479.212 413.852 481.19 416.708 482.367C417.232 482.577 417.77 482.749 418.317 482.883L436.972 488.629C438.671 489.155 440.485 489.116 442.162 488.518Z" fill="#3F3D56"/>
<path d="M496.384 475.312C496.384 505.667 480.147 506.229 460.117 506.229C440.088 506.229 407.203 500.224 423.851 475.312C441.409 449.038 471.53 398.955 460.117 396.303C460.117 396.303 496.384 444.957 496.384 475.312Z" fill="#F9A825"/>
<path opacity="0.5" d="M472.89 493.991C472.89 506.007 466.463 506.229 458.535 506.229C450.606 506.229 437.59 503.852 444.179 493.991C451.129 483.591 463.052 463.767 458.535 462.717C458.535 462.717 472.89 481.976 472.89 493.991Z" fill="#FF6584"/>
<path d="M440.58 404.825V410.253C440.577 412.728 439.669 415.109 438.041 416.911C436.413 418.714 434.188 419.802 431.817 419.956L331.658 426.315C330.396 426.395 329.133 426.208 327.943 425.764C326.753 425.32 325.663 424.628 324.738 423.731C323.813 422.835 323.072 421.751 322.561 420.547C322.051 419.343 321.78 418.043 321.766 416.726L321.524 394.419L382.111 393.396L440.58 404.825Z" fill="#3F3D56"/>
<path d="M424.247 431.711L379.061 407.258C378.853 407.145 378.67 406.988 378.524 406.795C378.379 406.603 378.274 406.381 378.218 406.143L368.416 364.982C367.847 362.594 368.154 360.07 369.277 357.905C370.4 355.741 372.258 354.09 374.487 353.277L376.848 352.416C377.375 352.224 377.933 352.147 378.49 352.189C379.046 352.231 379.588 352.392 380.082 352.661C380.576 352.93 381.012 353.302 381.363 353.754C381.714 354.206 381.972 354.728 382.121 355.287L391.782 391.526C391.873 391.865 392.061 392.167 392.321 392.392L429.137 424.176C429.455 424.45 429.662 424.838 429.72 425.263C429.777 425.689 429.68 426.122 429.447 426.476L426.375 431.154C426.147 431.502 425.804 431.75 425.412 431.853C425.02 431.955 424.606 431.905 424.247 431.711Z" fill="#E6E6E6"/>
<path d="M394.479 367.675C372.564 355.653 349.623 349.616 325.034 353.204C332.446 340.115 337.951 328.014 337.583 318.956C337.425 316.045 337.954 313.138 339.125 310.489C340.295 307.841 342.071 305.532 344.297 303.765C347.879 300.998 352.22 299.505 356.679 299.507C360.66 297.658 365.171 297.471 369.281 298.985C371.025 299.67 372.612 300.73 373.936 302.096C375.26 303.463 376.293 305.105 376.967 306.916C377.808 309.038 379.618 310.897 382.243 312.534C384.674 314 386.656 316.157 387.955 318.752C389.684 322.338 389.803 325.948 387.537 329.592C396.023 338.881 396.047 352.839 394.479 367.675Z" fill="#2F2E41"/>
<path d="M363.412 337.589C371.89 337.589 378.763 330.428 378.763 321.594C378.763 312.761 371.89 305.6 363.412 305.6C354.933 305.6 348.061 312.761 348.061 321.594C348.061 330.428 354.933 337.589 363.412 337.589Z" fill="#FFB8B8"/>
<path d="M370.722 356.25L352.812 358.154C353.773 347.243 354.152 337.175 352.812 329.592H370.722C367.321 341.666 367.619 350.272 370.722 356.25Z" fill="#FFB8B8"/>
<path d="M380.316 355.838C380.301 357.51 380.267 359.164 380.213 360.8C379.839 372.511 378.425 383.053 374.571 390.817C373.789 392.425 372.854 393.946 371.78 395.36C371.772 395.374 371.762 395.387 371.751 395.398C371.677 395.505 371.596 395.607 371.509 395.703C370.721 396.723 369.845 397.666 368.893 398.52L361.559 406.536L361.222 406.902L359.082 408.391L348.063 416.04L321.598 401.223L321.568 398.65L321.539 396.016C327.423 387.329 331.093 376.03 333.423 363.167C334.061 359.647 334.603 356.006 335.065 352.265C335.38 349.677 335.658 347.036 335.9 344.356C335.937 343.533 336.205 342.74 336.669 342.074C336.669 342.073 336.669 342.072 336.67 342.071C336.67 342.07 336.671 342.069 336.671 342.068C336.672 342.067 336.673 342.067 336.674 342.066C336.675 342.066 336.676 342.066 336.677 342.066C337.805 340.57 340.047 340.6 342.758 340.447C346.561 340.234 350.305 338.18 353.668 340.119C353.751 340.159 353.832 340.205 353.909 340.257L363.779 351.677L368.314 346.585L368.527 346.349L377.868 350.517C378.824 350.947 379.598 351.722 380.048 352.7C380.497 353.678 380.593 354.793 380.316 355.838Z" fill="#E6E6E6"/>
<path d="M359.485 411.972C359.486 413.919 359.133 415.848 358.445 417.659L355.734 424.789L331.658 426.316C331.401 426.331 331.145 426.339 330.896 426.339C328.474 426.284 326.169 425.251 324.465 423.457C322.762 421.664 321.794 419.251 321.766 416.728L321.598 401.223L321.568 398.65L330.331 402.521L338.875 397.742C339.34 397.534 339.817 397.356 340.303 397.207C340.936 396.998 341.583 396.838 342.238 396.726H342.245C342.56 396.673 342.875 396.627 343.19 396.596C346.811 396.218 350.439 397.243 353.382 399.474C355.102 400.772 356.529 402.445 357.566 404.376C357.645 404.508 357.716 404.646 357.778 404.788C358.361 405.925 358.799 407.136 359.082 408.391C359.349 409.564 359.484 410.766 359.485 411.972Z" fill="#2F2E41"/>
<path opacity="0.2" d="M352.63 366.342L355.832 381.652L375.291 399.093L358.113 380.814L352.63 366.342Z" fill="black"/>
<path opacity="0.2" d="M334.721 373.576L340.568 398.33L357.747 404.804L341.665 396.426L334.721 373.576Z" fill="black"/>
<path d="M381.87 322.547C370.556 317.124 357.764 315.577 346.416 321.405L347.878 307.695L372.732 303.506L381.87 322.547Z" fill="#2F2E41"/>
<path d="M472.818 443.019L389.623 428.128L390.643 422.891L472.818 443.019Z" fill="#3F3D56"/>
<path d="M403.501 431.398C402.829 432.052 402.022 432.536 401.142 432.811C400.261 433.086 399.332 433.145 398.426 432.984C397.519 432.823 396.662 432.445 395.919 431.881C395.176 431.317 394.569 430.581 394.144 429.732L388.632 418.705L390.825 413.754L402.642 421.634C403.406 422.144 404.049 422.829 404.521 423.637C404.993 424.445 405.281 425.355 405.364 426.297C405.447 427.239 405.322 428.188 404.999 429.072C404.676 429.956 404.164 430.752 403.501 431.398Z" fill="#FFB8B8"/>
<path d="M386.966 420.287L341.78 395.834C341.571 395.721 341.388 395.564 341.243 395.372C341.098 395.179 340.993 394.957 340.937 394.72L331.135 353.558C330.566 351.17 330.873 348.646 331.996 346.482C333.119 344.317 334.976 342.666 337.206 341.853L339.567 340.992C340.093 340.8 340.652 340.723 341.208 340.765C341.765 340.807 342.307 340.968 342.801 341.237C343.295 341.506 343.731 341.878 344.082 342.33C344.433 342.782 344.691 343.304 344.84 343.864L354.501 380.102C354.592 380.441 354.779 380.744 355.04 380.968L391.856 412.752C392.173 413.026 392.381 413.414 392.439 413.84C392.496 414.265 392.398 414.698 392.166 415.052L389.093 419.731C388.865 420.078 388.523 420.327 388.131 420.429C387.739 420.532 387.324 420.481 386.966 420.287Z" fill="#E6E6E6"/>
<path d="M463.851 445.73C464.25 445.811 464.664 445.725 465.003 445.489C465.341 445.254 465.577 444.889 465.658 444.473L466.492 440.126C466.572 439.71 466.489 439.278 466.263 438.925C466.037 438.571 465.686 438.326 465.287 438.243L453.211 435.728C452.811 435.645 452.397 435.732 452.058 435.967C451.719 436.202 451.484 436.568 451.403 436.984L450.57 441.331C450.53 441.537 450.53 441.749 450.569 441.955C450.608 442.162 450.686 442.358 450.798 442.533C450.91 442.707 451.054 442.858 451.221 442.975C451.389 443.092 451.577 443.173 451.775 443.214L463.851 445.73Z" fill="#E6E6E6"/>
</g>
<defs>
<clipPath id="clip0_1021_1435">
<rect width="688" height="555" fill="white"/>
</clipPath>
</defs>
</svg>