<svg width="225" height="115" viewBox="0 0 225 115" fill="none" xmlns="http://www.w3.org/2000/svg">
<g clip-path="url(#clip0_815_1826)">
<path d="M61.0178 27.6146L69.7872 22.5947L73.5485 33.0828L64.3332 38.1989L61.0178 27.6146Z" fill="#FFB6B6"/>
<path opacity="0.1" d="M61.0178 27.6146L69.7872 22.5947L73.5485 33.0828L64.3332 38.1989L61.0178 27.6146Z" fill="black"/>
<path d="M62.2645 23.618L70.9156 37.1757C70.9156 37.1757 64.8974 63.0121 58.8792 65.3143C52.8611 67.6166 41.7651 78.872 41.7651 78.872L27.8481 66.5933L34.6186 53.0356C34.6186 53.0356 50.9804 22.5947 55.306 22.5947C59.6315 22.5947 62.2645 23.618 62.2645 23.618Z" fill="#404040"/>
<path d="M50.576 111.999H30.4378L29.1646 109.684L23.9664 100.232L22.7703 98.0573C22.7703 98.0573 18.2567 86.8019 19.197 76.5696C20.1373 66.3374 29.9168 64.0352 29.9168 64.0352H30.3193L42.2917 78.3449L41.577 91.6622L45.3684 100.232L50.576 111.999Z" fill="#2F2E41"/>
<path d="M34.5623 111.999H29.1648V101.127L34.5623 111.999Z" fill="#2F2E41"/>
<path d="M182.933 35.9561L184.946 53.0363L172.227 53.2594V38.4096L182.933 35.9561Z" fill="#A0616A"/>
<path d="M213.23 95.4943L212.559 100.232L210.892 111.999H177.418C177.68 109.362 178.037 105.565 178.419 101.467C178.456 101.058 178.496 100.646 178.533 100.232C179.491 89.9305 180.538 78.2734 180.538 78.2734L184.939 78.9999L193.477 80.4069L196.957 80.9799L206.273 82.5173C210.919 83.2821 214.114 89.2424 213.23 95.4943Z" fill="#F2F2F2"/>
<path d="M198.352 111.999H180.196C180.472 111.556 180.629 111.3 180.629 111.3L186.071 110.078L197.286 107.561C197.286 107.561 197.797 109.359 198.352 111.999Z" fill="#2F2E41"/>
<path d="M173.375 111.999H145.956C146.229 111.262 146.511 110.523 146.801 109.786C147.188 108.801 147.602 107.924 148.04 107.144C148.332 106.625 148.632 106.149 148.943 105.714C149.855 104.437 150.848 103.509 151.894 102.872C155.627 100.588 160.026 101.987 163.772 104.263C165.179 105.118 166.493 106.095 167.646 107.047C169.677 108.725 171.21 110.326 171.863 111.037C172.088 111.28 172.209 111.421 172.209 111.421L173.375 111.999Z" fill="#2F2E41"/>
<path d="M151.623 111.999H147.734L148.759 110.38L149.338 109.464L149.586 109.738L151.623 111.999Z" fill="#FFB6B6"/>
<path d="M199.68 111.999H166.189L167.646 107.047L169.649 100.232L170.655 96.8095L169.824 91.9978C169.824 91.9978 169.414 91.6039 168.79 90.8953C166.565 88.3884 161.613 81.9318 162.751 75.3013C164.045 67.7551 165.67 53.0488 166.014 49.8793C166.057 49.4828 166.08 49.268 166.08 49.268L170.913 47.6564L171.073 47.6027L171.592 47.4287H184.538L194.06 56.2003L194.058 56.2924L193.477 80.4072L193.229 90.7239C193.229 90.7239 192.93 92.2126 193.001 94.5251C193.048 96.1111 193.268 98.0834 193.878 100.232C194.523 102.517 195.608 104.998 197.389 107.42C198.734 109.249 199.386 110.789 199.68 111.999Z" fill="#404040"/>
<path d="M196.956 80.9798C196.639 84.5252 196.334 87.0449 196.334 87.0449L193.001 94.5247L190.459 100.232L186.071 110.078L185.428 111.523L184.969 111.999H171.204L171.863 111.037L178.419 101.467L179.267 100.232L180.642 98.2236L184.939 78.9998L190.004 56.3431C190.004 56.3431 192.055 55.371 194.058 56.2919C195.111 56.7754 196.153 57.7833 196.87 59.7376C198.241 63.4673 197.573 74.1344 196.956 80.9798Z" fill="#404040"/>
<path d="M172.743 80.3605L168.79 90.8946L165.286 100.232L163.772 104.263L163.176 105.854L158.066 111.999H146.496L148.403 108.775L149.112 107.573L151.894 102.871L153.455 100.232L157.692 93.0638L158.822 60.4183C159.009 55.0038 162.042 50.6267 165.99 49.8841C165.998 49.8825 166.006 49.8807 166.014 49.8787C167.296 49.5282 169.335 49.4259 170.913 51.5005C170.967 51.5696 171.02 51.6438 171.073 51.7205C171.338 52.1016 171.588 52.5493 171.817 53.0737C171.84 53.1249 171.863 53.1786 171.883 53.2323C171.949 53.396 172.013 53.5751 172.071 53.7669C174.086 60.1467 172.743 80.3605 172.743 80.3605Z" fill="#404040"/>
<path d="M176.193 43.5585C181.243 43.5585 185.337 37.9901 185.337 31.121C185.337 24.252 181.243 18.6836 176.193 18.6836C171.142 18.6836 167.049 24.252 167.049 31.121C167.049 37.9901 171.142 43.5585 176.193 43.5585Z" fill="#A0616A"/>
<path d="M179.984 36.0105C179.984 36.0105 179.036 32.4582 178.499 30.6149C177.961 28.7716 178.312 26.3796 178.312 26.3796C178.312 26.3796 171.139 24.2261 168.33 26.3606C165.521 28.4951 165.332 17.759 168.183 14.837C168.183 14.837 168.946 16.6417 168.65 17.1605L168.354 17.6794C168.354 17.6794 170.511 11.4738 174.154 11.1631C174.154 11.1631 175.881 13.037 175.23 13.6556C174.579 14.2741 180.028 10.1589 180.976 13.7112C180.976 13.7112 184.45 14.553 183.773 16.167L183.83 17.2809C183.83 17.2809 186.978 16.8362 186.754 19.871C186.754 19.871 185.695 19.5839 185.017 20.1991C184.34 20.8144 186.629 23.7316 186.629 23.7316C186.629 23.7316 188.004 35.8878 183.233 39.3878C183.233 39.3878 184.007 33.8557 182.186 34.76C180.365 35.6644 179.984 36.0105 179.984 36.0105Z" fill="#2F2E41"/>
<path d="M219.506 115H5.49364C2.46443 115 0 111.648 0 107.528C0 103.408 2.46443 100.056 5.49364 100.056H219.506C222.536 100.056 225 103.408 225 107.528C225 111.648 222.536 115 219.506 115Z" fill="#E6E6E6"/>
<path d="M212.207 77.2785L211.791 103.689C211.751 106.245 210.216 108.289 208.336 108.289H172.618C170.782 108.289 169.267 106.338 169.167 103.845L168.105 77.4344C167.997 74.7412 169.573 72.4766 171.556 72.4766H208.752C210.69 72.4766 212.249 74.6433 212.207 77.2785Z" fill="#3F3D56"/>
<path d="M76.9338 33.9895C81.6535 33.9895 85.4795 28.7854 85.4795 22.3658C85.4795 15.9463 81.6535 10.7422 76.9338 10.7422C72.2142 10.7422 68.3882 15.9463 68.3882 22.3658C68.3882 28.7854 72.2142 33.9895 76.9338 33.9895Z" fill="#FFB6B6"/>
<path d="M62.6406 52.7798L63.581 66.5934L69.9753 101.639L64.451 104.272L55.1179 66.0818L53.8289 50.7334L62.6406 52.7798Z" fill="#FFB6B6"/>
<path d="M60.0971 77.2785L59.681 103.689C59.6407 106.245 58.1055 108.289 56.2255 108.289H20.5074C18.6718 108.289 17.1564 106.338 17.0562 103.845L15.9948 77.4344C15.8865 74.7412 17.4629 72.4766 19.4459 72.4766H56.6415C58.5794 72.4766 60.1386 74.6433 60.0971 77.2785Z" fill="#3F3D56"/>
<path d="M70.9936 108.468C74.7209 108.468 77.7425 106.65 77.7425 104.408C77.7425 102.166 74.7209 100.348 70.9936 100.348C67.2662 100.348 64.2446 102.166 64.2446 104.408C64.2446 106.65 67.2662 108.468 70.9936 108.468Z" fill="#FFB6B6"/>
<path d="M49.3818 54.8916L53.2372 26.9433C53.2372 26.9433 63.9571 24.8968 64.3332 29.7572C64.7093 34.6175 64.0644 58.3705 64.0644 58.3705L49.3818 54.8916Z" fill="#404040"/>
<path d="M73.4842 24.1938C73.4842 24.1938 78.7705 21.6275 81.0004 20.2468C83.2303 18.866 87.6603 28.4967 87.7589 23.4104C87.8574 18.3241 86.3267 16.1912 86.3267 16.1912C86.3267 16.1912 85.9444 5.06423 77.7028 6.45536C77.7028 6.45536 79.5156 0.888418 73.565 0.0275928C67.6144 -0.833233 58.3567 18.7123 59.1858 21.6333C60.0149 24.5542 61.0088 26.9691 58.6565 30.0923C56.3043 33.2155 51.8997 50.8418 55.2509 55.5849C58.6021 60.328 58.822 62.3863 56.5259 65.3371C54.2298 68.2879 48.8025 74.7041 54.6707 75.818C60.5389 76.9318 54.1338 76.0999 58.5087 70.8657C62.8835 65.6316 69.2673 65.8453 66.8837 57.4475C64.5001 49.0497 68.6413 37.0158 68.1231 35.1902C67.605 33.3645 69.2841 21.7718 69.2841 21.7718C69.2841 21.7718 73.192 20.9909 73.4842 24.1938Z" fill="#2F2E41"/>
<path d="M143.778 78.3747C139.559 99.0209 122.416 111.586 105.489 106.437C88.5692 101.29 78.2688 80.3775 82.4905 59.7325C86.7082 39.0838 103.85 26.5176 120.773 31.665C137.699 36.8124 147.998 57.7273 143.778 78.3747Z" fill="#F7931A"/>
<path d="M127.064 63.5616C127.692 58.4334 124.492 55.6767 120.115 53.8376L121.535 46.8909L118.068 45.8371L116.686 52.6007C115.775 52.3237 114.839 52.0624 113.909 51.8034L115.301 44.9952L111.837 43.9414L110.416 50.8857C109.662 50.6761 108.921 50.469 108.202 50.251L108.206 50.2293L103.426 48.7732L102.504 53.2896C102.504 53.2896 105.076 54.0085 105.021 54.0531C106.425 54.4807 106.679 55.614 106.637 56.5124L105.019 64.4262C105.116 64.4563 105.242 64.4997 105.38 64.5672C105.264 64.5322 105.141 64.4937 105.013 64.4563L102.747 75.5424C102.575 76.0627 102.14 76.8431 101.158 76.5469C101.193 76.6083 98.6386 75.7797 98.6386 75.7797L96.9177 80.62L101.429 81.9918C102.268 82.2483 103.09 82.5169 103.9 82.7698L102.465 89.796L105.928 90.8498L107.348 83.8983C108.294 84.2114 109.212 84.5005 110.111 84.7727L108.695 91.6917L112.161 92.7455L113.596 85.7325C119.507 87.0971 123.952 86.5467 125.823 80.0251C127.33 74.7741 125.747 71.7451 122.638 69.77C124.902 69.1329 126.608 67.3155 127.064 63.5616ZM119.144 77.1093C118.072 82.3603 110.825 79.5217 108.475 78.8099L110.378 69.5014C112.728 70.2168 120.263 71.6331 119.144 77.1093ZM120.216 63.4857C119.238 68.2621 113.206 65.8353 111.249 65.2404L112.975 56.7979C114.932 57.3928 121.234 58.5032 120.216 63.4857Z" fill="white"/>
</g>
<defs>
<clipPath id="clip0_815_1826">
<rect width="225" height="115" fill="white"/>
</clipPath>
</defs>
</svg>
