<svg width="657" height="461" viewBox="0 0 657 461" fill="none" xmlns="http://www.w3.org/2000/svg">
<g clip-path="url(#clip0_810_1495)">
<path d="M539.271 276.001C539.705 275.865 540.149 275.766 540.599 275.703L558.539 237.504L553.062 228.9L564.374 218.541L578.594 236.775L549.633 280.942C550.345 282.612 550.556 284.47 550.236 286.269C549.916 288.068 549.081 289.722 547.842 291.011C546.604 292.301 545.02 293.164 543.301 293.487C541.582 293.81 539.81 293.578 538.221 292.82C536.632 292.062 535.301 290.815 534.404 289.245C533.507 287.675 533.088 285.856 533.202 284.031C533.316 282.205 533.958 280.459 535.042 279.024C536.126 277.59 537.601 276.536 539.271 276.001Z" fill="#A0616A"/>
<path d="M569.897 223.819C569.652 224.089 569.372 224.321 569.064 224.507L550.708 235.657C550.267 235.926 549.778 236.095 549.271 236.154C548.764 236.214 548.251 236.163 547.764 236.004C547.277 235.845 546.827 235.582 546.442 235.232C546.057 234.882 545.745 234.451 545.527 233.968L536.6 214.204C536.22 213.372 536.138 212.425 536.369 211.535C536.601 210.646 537.129 209.873 537.859 209.358L549.238 201.247C549.948 200.741 550.805 200.51 551.66 200.595C552.516 200.681 553.316 201.076 553.922 201.713L569.827 218.438C570.503 219.149 570.889 220.109 570.902 221.114C570.915 222.118 570.555 223.088 569.897 223.819Z" fill="white"/>
<path d="M595.67 442.704L585.979 445.468L571.195 407.612L585.499 403.533L595.67 442.704Z" fill="#A0616A"/>
<path d="M578.302 444.541L596.993 439.212L600.195 451.544L569.736 460.228C569.316 458.609 569.204 456.918 569.407 455.254C569.609 453.589 570.123 451.982 570.919 450.526C571.714 449.069 572.776 447.791 574.043 446.764C575.309 445.737 576.757 444.982 578.302 444.541Z" fill="#2F2E41"/>
<path d="M512.819 450.454L502.776 450.453L497.997 409.857L512.82 409.858L512.819 450.454Z" fill="#A0616A"/>
<path d="M495.601 447.447H514.971V460.227H483.405C483.405 458.549 483.72 456.887 484.333 455.337C484.946 453.786 485.844 452.377 486.977 451.19C488.109 450.004 489.454 449.062 490.934 448.42C492.413 447.778 493.999 447.447 495.601 447.447Z" fill="#2F2E41"/>
<path d="M523.401 187.772C534.514 187.772 543.523 178.331 543.523 166.687C543.523 155.042 534.514 145.602 523.401 145.602C512.288 145.602 503.279 155.042 503.279 166.687C503.279 178.331 512.288 187.772 523.401 187.772Z" fill="#A0616A"/>
<path d="M512.204 421.511H498.479C497.54 421.509 496.638 421.134 495.954 420.461C495.27 419.788 494.856 418.867 494.796 417.886C490.706 349.757 493.098 300.886 502.324 264.088C502.365 263.927 502.414 263.769 502.474 263.614L503.209 261.688C503.48 260.97 503.952 260.354 504.563 259.921C505.173 259.488 505.894 259.257 506.632 259.26H534.857C535.388 259.259 535.914 259.38 536.397 259.613C536.881 259.845 537.31 260.185 537.656 260.609L541.489 265.296C541.564 265.387 541.634 265.48 541.702 265.578C558.989 290.84 574.481 340.226 592.423 406.607C592.688 407.572 592.583 408.607 592.13 409.491C591.678 410.376 590.913 411.04 590 411.343L575.249 416.289C574.402 416.568 573.488 416.52 572.672 416.153C571.856 415.785 571.194 415.123 570.805 414.287L532.527 331.095C532.259 330.513 531.82 330.038 531.274 329.738C530.729 329.439 530.105 329.332 529.497 329.432C528.888 329.533 528.327 329.837 527.896 330.298C527.465 330.759 527.187 331.353 527.103 331.993L515.857 418.171C515.733 419.095 515.296 419.942 514.625 420.555C513.954 421.169 513.094 421.508 512.204 421.511Z" fill="#2F2E41"/>
<path d="M539.942 265.638C539.904 265.638 539.865 265.637 539.826 265.636L505.542 264.502C504.661 264.476 503.817 264.119 503.166 263.496C502.515 262.873 502.1 262.025 501.996 261.107C497.65 224.243 509.569 214.368 514.895 211.833C515.34 211.623 515.726 211.295 516.015 210.883C516.304 210.47 516.486 209.986 516.544 209.478L517.005 205.614C517.083 204.932 517.335 204.284 517.733 203.738C526.084 192.402 537.488 188.772 543.542 187.617C544.033 187.525 544.537 187.538 545.023 187.656C545.509 187.774 545.967 187.994 546.369 188.303C546.772 188.612 547.11 189.004 547.363 189.454C547.617 189.904 547.78 190.404 547.844 190.922L548.534 196.47C548.605 197 548.806 197.5 549.119 197.922C566.535 221.781 547.132 257.009 543.066 263.828C542.734 264.382 542.273 264.838 541.727 265.155C541.18 265.471 540.566 265.637 539.942 265.638Z" fill="white"/>
<path d="M563.998 169.059C559.509 162.436 554.126 156.531 548.018 151.529C542.94 147.373 537.288 143.822 531.052 142.123C524.815 140.425 517.928 140.714 512.239 143.882C506.549 147.051 500.667 153.347 500.631 160.098C500.619 162.267 501.146 165.202 503.184 164.827L503.774 164.909C508.691 163.868 513.609 162.827 518.526 161.786C520.621 169.403 522.715 177.019 524.809 184.635C525.251 186.24 525.843 188.036 527.297 188.72C528.667 189.365 530.25 188.757 531.636 188.151C531.864 188.051 533.822 183.445 533.822 183.445C533.871 183.301 533.956 183.174 534.067 183.076C534.179 182.978 534.314 182.913 534.458 182.887C534.602 182.862 534.75 182.878 534.886 182.932C535.022 182.987 535.142 183.078 535.233 183.198L536.396 184.721C536.619 185.012 536.925 185.22 537.27 185.312C537.615 185.404 537.979 185.377 538.307 185.233C546.326 181.725 554.345 178.217 562.365 174.709C563.473 174.224 564.712 173.591 565.033 172.379C565.341 171.217 564.663 170.042 563.998 169.059Z" fill="#2F2E41"/>
<path d="M656.181 461H409.586C409.369 461 409.161 460.91 409.007 460.749C408.853 460.588 408.767 460.369 408.767 460.142C408.767 459.914 408.853 459.696 409.007 459.535C409.161 459.374 409.369 459.283 409.586 459.283H656.181C656.398 459.283 656.606 459.374 656.76 459.535C656.914 459.696 657 459.914 657 460.142C657 460.369 656.914 460.588 656.76 460.749C656.606 460.91 656.398 461 656.181 461Z" fill="#3F3D56"/>
<path d="M522.493 327.218C521.936 327.216 521.394 327.028 520.945 326.681L517.216 323.842C516.907 323.605 516.533 323.478 516.15 323.478C515.767 323.478 515.394 323.605 515.085 323.842L511.355 326.681C510.906 327.024 510.364 327.208 509.808 327.208C509.252 327.208 508.71 327.024 508.261 326.681C507.811 326.339 507.476 325.856 507.304 325.302C507.132 324.748 507.132 324.151 507.304 323.597L508.729 319.004C508.848 318.622 508.848 318.211 508.73 317.829C508.611 317.447 508.38 317.114 508.07 316.879L504.34 314.04C503.891 313.697 503.556 313.214 503.384 312.66C503.212 312.106 503.212 311.509 503.384 310.955C503.556 310.401 503.891 309.919 504.341 309.576C504.79 309.234 505.332 309.049 505.888 309.049H510.497C510.881 309.05 511.254 308.923 511.564 308.687C511.874 308.451 512.104 308.119 512.222 307.736L513.646 303.143C513.818 302.589 514.153 302.106 514.603 301.763C515.052 301.421 515.594 301.236 516.15 301.236C516.706 301.236 517.248 301.421 517.698 301.763C518.147 302.106 518.482 302.589 518.654 303.143L520.078 307.736C520.196 308.118 520.427 308.451 520.736 308.687C521.046 308.923 521.42 309.05 521.803 309.049H526.412C526.968 309.049 527.51 309.234 527.96 309.576C528.41 309.919 528.744 310.401 528.916 310.955C529.088 311.509 529.088 312.106 528.916 312.66C528.744 313.214 528.41 313.697 527.96 314.04L524.231 316.879C523.92 317.114 523.689 317.447 523.571 317.829C523.453 318.21 523.453 318.622 523.572 319.004L524.996 323.597C525.175 324.151 525.178 324.75 525.005 325.305C524.833 325.861 524.495 326.343 524.04 326.681C523.592 327.028 523.05 327.216 522.493 327.218Z" fill="#404040"/>
<path d="M536.744 318.035C537.798 317.261 538.676 316.254 539.318 315.086C539.96 313.917 540.35 312.615 540.459 311.272C540.569 309.929 540.397 308.577 539.954 307.311C539.511 306.045 538.809 304.896 537.896 303.945L544.265 223.359L525.304 226.093L524.943 304.389C523.521 306.101 522.747 308.3 522.768 310.57C522.79 312.84 523.605 315.023 525.06 316.705C526.514 318.387 528.507 319.451 530.661 319.696C532.814 319.942 534.979 319.35 536.744 318.035Z" fill="#A0616A"/>
<path d="M545.504 234.962C545.149 234.962 544.795 234.909 544.455 234.803L524.1 228.53C523.61 228.379 523.156 228.124 522.766 227.78C522.376 227.436 522.058 227.01 521.833 226.531C521.607 226.052 521.479 225.528 521.457 224.994C521.434 224.461 521.518 223.928 521.702 223.429L529.235 203.037C529.549 202.176 530.148 201.462 530.923 201.025C531.698 200.588 532.597 200.458 533.456 200.658L546.904 203.721C547.743 203.913 548.492 204.405 549.022 205.114C549.552 205.823 549.829 206.703 549.806 207.603L549.18 231.204C549.153 232.208 548.755 233.162 548.068 233.864C547.382 234.565 546.462 234.959 545.504 234.962Z" fill="white"/>
<path d="M353.916 335.664H5.73475C4.21432 335.662 2.75666 335.028 1.68155 333.902C0.606448 332.775 0.00170652 331.248 0 329.655V220.628C0.00170652 219.035 0.606448 217.508 1.68155 216.381C2.75666 215.255 4.21432 214.621 5.73475 214.619H353.916C355.437 214.621 356.894 215.255 357.969 216.381C359.045 217.508 359.649 219.035 359.651 220.628V329.655C359.649 331.248 359.045 332.775 357.969 333.902C356.894 335.028 355.437 335.662 353.916 335.664ZM5.73475 216.336C4.64874 216.337 3.60759 216.79 2.83966 217.595C2.07174 218.399 1.63976 219.49 1.6385 220.628V329.655C1.63976 330.793 2.07174 331.884 2.83966 332.688C3.60759 333.493 4.64874 333.946 5.73475 333.947H353.916C355.002 333.946 356.043 333.493 356.811 332.688C357.579 331.884 358.011 330.793 358.012 329.655V220.628C358.011 219.49 357.579 218.399 356.811 217.595C356.043 216.79 355.002 216.337 353.916 216.336H5.73475Z" fill="#3F3D56"/>
<path d="M158.095 381.569C157.413 381.566 156.749 381.336 156.199 380.911L151.631 377.433C151.252 377.143 150.795 376.987 150.325 376.987C149.856 376.987 149.399 377.143 149.02 377.433L144.451 380.911C143.9 381.331 143.237 381.557 142.556 381.557C141.875 381.557 141.211 381.331 140.66 380.912C140.109 380.492 139.699 379.901 139.488 379.222C139.278 378.543 139.278 377.812 139.488 377.134L141.233 371.506C141.379 371.038 141.379 370.534 141.234 370.067C141.089 369.599 140.806 369.191 140.426 368.903L135.858 365.425C135.307 365.005 134.897 364.414 134.686 363.735C134.476 363.057 134.476 362.325 134.686 361.647C134.897 360.968 135.307 360.376 135.858 359.957C136.409 359.537 137.072 359.312 137.753 359.312H143.4C143.87 359.312 144.327 359.157 144.707 358.868C145.086 358.579 145.369 358.171 145.513 357.703L147.258 352.076C147.468 351.397 147.878 350.805 148.429 350.386C148.98 349.966 149.644 349.74 150.325 349.74C151.006 349.74 151.67 349.966 152.221 350.386C152.772 350.805 153.182 351.397 153.392 352.076L155.137 357.703C155.282 358.171 155.564 358.579 155.944 358.868C156.323 359.157 156.781 359.312 157.25 359.312H162.897C163.578 359.312 164.242 359.538 164.793 359.957C165.344 360.377 165.754 360.968 165.964 361.647C166.174 362.325 166.174 363.057 165.964 363.735C165.754 364.414 165.343 365.005 164.793 365.425L160.224 368.903C159.844 369.191 159.561 369.599 159.416 370.067C159.271 370.534 159.271 371.038 159.417 371.506L161.162 377.134C161.38 377.812 161.384 378.545 161.173 379.226C160.962 379.906 160.547 380.497 159.991 380.911C159.441 381.336 158.777 381.566 158.095 381.569Z" fill="#404040"/>
<path d="M204.389 381.569C203.707 381.566 203.043 381.336 202.494 380.911L197.925 377.433C197.546 377.143 197.089 376.987 196.62 376.987C196.15 376.987 195.693 377.143 195.314 377.433L190.746 380.911C190.195 381.331 189.531 381.557 188.85 381.557C188.169 381.557 187.505 381.331 186.954 380.912C186.403 380.492 185.993 379.901 185.783 379.222C185.572 378.543 185.572 377.812 185.783 377.134L187.528 371.506C187.673 371.038 187.674 370.534 187.529 370.067C187.384 369.599 187.101 369.191 186.721 368.903L182.152 365.425C181.601 365.005 181.191 364.414 180.981 363.735C180.77 363.056 180.77 362.325 180.981 361.647C181.191 360.968 181.601 360.376 182.152 359.957C182.703 359.538 183.367 359.312 184.048 359.312H189.695C190.164 359.312 190.622 359.157 191.001 358.868C191.381 358.579 191.663 358.171 191.807 357.703L193.552 352.076C193.763 351.397 194.173 350.805 194.724 350.386C195.275 349.966 195.939 349.74 196.62 349.74C197.301 349.74 197.964 349.966 198.515 350.386C199.066 350.805 199.477 351.397 199.687 352.076L201.432 357.703C201.576 358.171 201.858 358.579 202.238 358.868C202.618 359.157 203.075 359.313 203.545 359.312H209.191C209.872 359.312 210.536 359.538 211.087 359.957C211.638 360.376 212.048 360.968 212.259 361.647C212.469 362.325 212.469 363.056 212.259 363.735C212.048 364.414 211.638 365.005 211.087 365.425L206.519 368.903C206.138 369.191 205.855 369.599 205.71 370.067C205.565 370.534 205.566 371.038 205.712 371.506L207.457 377.134C207.675 377.812 207.679 378.545 207.468 379.226C207.257 379.906 206.842 380.497 206.285 380.911C205.736 381.336 205.072 381.566 204.389 381.569Z" fill="#404040"/>
<path d="M250.684 381.569C250.001 381.566 249.338 381.336 248.788 380.911L244.22 377.433C243.841 377.144 243.383 376.988 242.914 376.988C242.445 376.988 241.988 377.144 241.608 377.433L237.04 380.911C236.489 381.331 235.825 381.557 235.144 381.557C234.463 381.557 233.8 381.331 233.249 380.912C232.698 380.492 232.288 379.901 232.077 379.222C231.867 378.543 231.867 377.812 232.077 377.134L233.822 371.506C233.968 371.038 233.968 370.534 233.823 370.067C233.678 369.599 233.395 369.191 233.015 368.903L228.447 365.425C227.896 365.005 227.486 364.414 227.275 363.735C227.065 363.056 227.065 362.325 227.275 361.647C227.486 360.968 227.896 360.376 228.447 359.957C228.998 359.538 229.661 359.312 230.342 359.312H235.989C236.459 359.312 236.916 359.157 237.296 358.868C237.675 358.579 237.958 358.171 238.102 357.703L239.847 352.076C240.057 351.397 240.467 350.805 241.018 350.386C241.569 349.966 242.233 349.74 242.914 349.74C243.595 349.74 244.259 349.966 244.81 350.386C245.361 350.805 245.771 351.397 245.981 352.076L247.726 357.703C247.871 358.171 248.153 358.579 248.533 358.868C248.912 359.157 249.37 359.312 249.839 359.312H255.486C256.167 359.312 256.83 359.538 257.381 359.957C257.932 360.376 258.343 360.968 258.553 361.647C258.763 362.325 258.763 363.056 258.553 363.735C258.343 364.414 257.933 365.005 257.382 365.425L252.813 368.903C252.433 369.191 252.15 369.599 252.005 370.067C251.86 370.534 251.86 371.038 252.006 371.506L253.751 377.134C253.969 377.812 253.973 378.545 253.762 379.226C253.551 379.906 253.136 380.497 252.58 380.911C252.03 381.336 251.366 381.566 250.684 381.569Z" fill="#404040"/>
<path d="M296.979 381.569C296.296 381.566 295.632 381.336 295.083 380.911L290.514 377.433C290.135 377.143 289.678 376.987 289.209 376.987C288.739 376.987 288.282 377.143 287.903 377.433L283.335 380.911C282.784 381.331 282.12 381.557 281.439 381.557C280.758 381.557 280.095 381.331 279.544 380.912C278.993 380.492 278.582 379.901 278.372 379.222C278.161 378.543 278.161 377.812 278.372 377.134L280.117 371.506C280.263 371.038 280.263 370.535 280.118 370.067C279.973 369.599 279.69 369.192 279.31 368.903L274.741 365.425C274.19 365.005 273.78 364.414 273.57 363.735C273.359 363.056 273.359 362.325 273.57 361.647C273.78 360.968 274.19 360.376 274.741 359.957C275.292 359.538 275.956 359.312 276.637 359.312H282.284C282.753 359.312 283.21 359.157 283.59 358.868C283.97 358.579 284.252 358.171 284.397 357.703L286.141 352.076C286.352 351.397 286.762 350.805 287.313 350.386C287.864 349.966 288.527 349.74 289.209 349.74C289.89 349.74 290.553 349.966 291.104 350.386C291.655 350.805 292.065 351.397 292.276 352.076L294.021 357.703C294.165 358.171 294.447 358.579 294.827 358.868C295.207 359.157 295.664 359.312 296.133 359.312H301.78C302.461 359.312 303.125 359.538 303.676 359.957C304.227 360.376 304.637 360.968 304.847 361.647C305.058 362.325 305.058 363.056 304.847 363.735C304.637 364.414 304.227 365.005 303.676 365.425L299.108 368.903C298.727 369.191 298.444 369.599 298.299 370.067C298.154 370.534 298.155 371.038 298.301 371.506L300.046 377.134C300.264 377.812 300.268 378.545 300.057 379.226C299.846 379.906 299.431 380.497 298.874 380.911C298.325 381.336 297.661 381.566 296.979 381.569Z" fill="#404040"/>
<path d="M327.734 381.903C326.984 381.9 326.255 381.647 325.652 381.181C325.04 380.726 324.584 380.077 324.353 379.329C324.121 378.582 324.125 377.776 324.365 377.031L326.11 371.403C326.235 371.003 326.235 370.571 326.111 370.17C325.986 369.769 325.744 369.42 325.418 369.173L320.85 365.694C320.244 365.234 319.794 364.584 319.563 363.838C319.331 363.093 319.331 362.29 319.563 361.544C319.794 360.799 320.244 360.149 320.85 359.688C321.455 359.227 322.184 358.979 322.932 358.979H328.579C328.981 358.98 329.373 358.847 329.698 358.599C330.024 358.351 330.266 358.002 330.389 357.601L332.135 351.973C332.366 351.228 332.816 350.578 333.422 350.117C334.027 349.656 334.756 349.408 335.504 349.408C336.252 349.408 336.981 349.656 337.586 350.117C338.191 350.578 338.642 351.228 338.873 351.973L340.618 357.601C340.741 358.002 340.983 358.351 341.309 358.599C341.634 358.847 342.026 358.98 342.428 358.979H348.075C348.824 358.979 349.552 359.227 350.158 359.688C350.763 360.149 351.213 360.799 351.444 361.544C351.676 362.29 351.676 363.093 351.444 363.838C351.213 364.584 350.763 365.234 350.158 365.694L345.589 369.173C345.263 369.42 345.021 369.769 344.896 370.17C344.772 370.571 344.772 371.003 344.897 371.403L346.642 377.031C346.874 377.776 346.874 378.579 346.642 379.325C346.411 380.07 345.961 380.72 345.355 381.181C344.75 381.642 344.021 381.89 343.273 381.89C342.525 381.89 341.796 381.642 341.191 381.181L336.623 377.703C336.298 377.455 335.906 377.321 335.504 377.321C335.101 377.321 334.709 377.455 334.384 377.703L329.816 381.181C329.213 381.647 328.483 381.9 327.734 381.903ZM335.504 375.603C336.252 375.603 336.981 375.852 337.586 376.314L342.154 379.792C342.479 380.04 342.871 380.173 343.273 380.173C343.675 380.173 344.067 380.04 344.392 379.792C344.718 379.545 344.96 379.195 345.084 378.795C345.208 378.394 345.208 377.962 345.084 377.561L343.339 371.934C343.106 371.188 343.106 370.385 343.337 369.639C343.568 368.893 344.02 368.243 344.626 367.784L349.194 364.305C349.52 364.058 349.762 363.709 349.886 363.308C350.01 362.907 350.01 362.476 349.886 362.075C349.762 361.674 349.52 361.325 349.194 361.077C348.869 360.83 348.477 360.696 348.075 360.696H342.428C341.68 360.698 340.95 360.45 340.345 359.989C339.739 359.528 339.289 358.878 339.059 358.131L337.314 352.504C337.19 352.103 336.948 351.754 336.623 351.506C336.297 351.258 335.906 351.125 335.503 351.125C335.101 351.125 334.71 351.258 334.384 351.506C334.059 351.754 333.817 352.103 333.693 352.504L331.948 358.131C331.718 358.878 331.268 359.528 330.662 359.989C330.057 360.45 329.327 360.698 328.579 360.696H322.932C322.53 360.696 322.138 360.83 321.813 361.077C321.487 361.325 321.245 361.674 321.121 362.075C320.997 362.475 320.997 362.907 321.121 363.308C321.245 363.708 321.487 364.058 321.813 364.305L326.381 367.784C326.987 368.244 327.439 368.893 327.67 369.639C327.901 370.385 327.901 371.189 327.668 371.934L325.923 377.561C325.799 377.962 325.799 378.394 325.923 378.794C326.047 379.195 326.289 379.544 326.615 379.792C326.94 380.04 327.332 380.173 327.734 380.173C328.136 380.173 328.527 380.039 328.853 379.792L333.421 376.314C334.026 375.852 334.755 375.603 335.504 375.603Z" fill="#3F3D56"/>
<path d="M45.0588 240.373C43.6465 240.373 42.292 240.961 41.2933 242.007C40.2947 243.054 39.7336 244.473 39.7336 245.953C39.7336 247.433 40.2947 248.852 41.2933 249.899C42.292 250.945 43.6465 251.533 45.0588 251.533H314.592C316.004 251.533 317.359 250.945 318.358 249.899C319.356 248.852 319.917 247.433 319.917 245.953C319.917 244.473 319.356 243.054 318.358 242.007C317.359 240.961 316.004 240.373 314.592 240.373H45.0588Z" fill="#CCCCCC"/>
<path d="M45.0588 269.561C43.6465 269.561 42.292 270.148 41.2933 271.195C40.2947 272.241 39.7336 273.661 39.7336 275.141C39.7336 276.621 40.2947 278.04 41.2933 279.086C42.292 280.133 43.6465 280.721 45.0588 280.721H314.592C316.004 280.721 317.359 280.133 318.358 279.086C319.356 278.04 319.917 276.621 319.917 275.141C319.917 273.661 319.356 272.241 318.358 271.195C317.359 270.148 316.004 269.561 314.592 269.561H45.0588Z" fill="#CCCCCC"/>
<path d="M45.0588 298.748C43.6465 298.748 42.292 299.336 41.2933 300.382C40.2947 301.429 39.7336 302.848 39.7336 304.328C39.7336 305.808 40.2947 307.227 41.2933 308.274C42.292 309.32 43.6465 309.908 45.0588 309.908H314.592C316.004 309.908 317.359 309.32 318.358 308.274C319.356 307.227 319.917 305.808 319.917 304.328C319.917 302.848 319.356 301.429 318.358 300.382C317.359 299.336 316.004 298.748 314.592 298.748H45.0588Z" fill="#CCCCCC"/>
<path d="M45.0588 240.373C43.6465 240.373 42.292 240.961 41.2933 242.007C40.2947 243.054 39.7336 244.473 39.7336 245.953C39.7336 247.433 40.2947 248.852 41.2933 249.899C42.292 250.945 43.6465 251.533 45.0588 251.533H314.592C316.004 251.533 317.359 250.945 318.358 249.899C319.356 248.852 319.917 247.433 319.917 245.953C319.917 244.473 319.356 243.054 318.358 242.007C317.359 240.961 316.004 240.373 314.592 240.373H45.0588Z" fill="white"/>
<path d="M45.0588 269.561C43.6465 269.561 42.292 270.148 41.2933 271.195C40.2947 272.241 39.7336 273.661 39.7336 275.141C39.7336 276.621 40.2947 278.04 41.2933 279.086C42.292 280.133 43.6465 280.721 45.0588 280.721H314.592C316.004 280.721 317.359 280.133 318.358 279.086C319.356 278.04 319.917 276.621 319.917 275.141C319.917 273.661 319.356 272.241 318.358 271.195C317.359 270.148 316.004 269.561 314.592 269.561H45.0588Z" fill="white"/>
<path d="M45.0588 298.748C43.6465 298.748 42.292 299.336 41.2933 300.382C40.2947 301.429 39.7336 302.848 39.7336 304.328C39.7336 305.808 40.2947 307.227 41.2933 308.274C42.292 309.32 43.6465 309.908 45.0588 309.908H314.592C316.004 309.908 317.359 309.32 318.358 308.274C319.356 307.227 319.917 305.808 319.917 304.328C319.917 302.848 319.356 301.429 318.358 300.382C317.359 299.336 316.004 298.748 314.592 298.748H45.0588Z" fill="white"/>
<path d="M353.916 121.045H5.73475C4.21432 121.043 2.75666 120.409 1.68155 119.283C0.606448 118.156 0.00170652 116.629 0 115.035V6.00931C0.00170652 4.41609 0.606448 2.88864 1.68155 1.76206C2.75666 0.635483 4.21432 0.00178822 5.73475 0H353.916C355.437 0.00178595 356.894 0.635482 357.969 1.76206C359.045 2.88864 359.649 4.41609 359.651 6.00931V115.035C359.649 116.629 359.045 118.156 357.969 119.283C356.894 120.409 355.437 121.043 353.916 121.045ZM5.73475 1.71695C4.64874 1.71826 3.60759 2.17091 2.83966 2.9756C2.07174 3.78029 1.63976 4.87131 1.6385 6.00931V115.035C1.63976 116.173 2.07174 117.264 2.83966 118.069C3.60759 118.874 4.64874 119.326 5.73475 119.328H353.916C355.002 119.326 356.043 118.874 356.811 118.069C357.579 117.264 358.011 116.173 358.012 115.035V6.00931C358.011 4.8713 357.579 3.78028 356.811 2.97559C356.043 2.1709 355.002 1.71825 353.916 1.71695H5.73475Z" fill="#3F3D56"/>
<path d="M158.095 166.952C157.413 166.949 156.749 166.719 156.199 166.294L151.631 162.816C151.252 162.526 150.795 162.37 150.325 162.37C149.856 162.37 149.399 162.526 149.02 162.816L144.451 166.294C143.9 166.714 143.237 166.94 142.556 166.94C141.875 166.94 141.211 166.714 140.66 166.294C140.109 165.875 139.699 165.284 139.488 164.605C139.278 163.926 139.278 163.195 139.488 162.516L141.233 156.889C141.379 156.421 141.379 155.917 141.234 155.449C141.089 154.982 140.806 154.574 140.426 154.286L135.858 150.808C135.307 150.388 134.897 149.797 134.686 149.118C134.476 148.439 134.476 147.708 134.686 147.03C134.897 146.351 135.307 145.759 135.858 145.34C136.409 144.92 137.072 144.694 137.753 144.694H143.4C143.87 144.695 144.327 144.54 144.707 144.251C145.086 143.962 145.369 143.554 145.513 143.086L147.258 137.458C147.468 136.78 147.878 136.188 148.429 135.769C148.98 135.349 149.644 135.123 150.325 135.123C151.006 135.123 151.67 135.349 152.221 135.769C152.772 136.188 153.182 136.78 153.392 137.458L155.137 143.086C155.282 143.554 155.564 143.962 155.944 144.251C156.323 144.54 156.781 144.695 157.25 144.694H162.897C163.578 144.694 164.242 144.92 164.793 145.34C165.344 145.759 165.754 146.351 165.964 147.03C166.174 147.708 166.174 148.439 165.964 149.118C165.754 149.797 165.343 150.388 164.793 150.808L160.224 154.286C159.844 154.574 159.561 154.982 159.416 155.449C159.271 155.917 159.271 156.421 159.417 156.889L161.162 162.516C161.38 163.194 161.384 163.928 161.173 164.609C160.962 165.289 160.547 165.88 159.991 166.294C159.441 166.719 158.777 166.949 158.095 166.952Z" fill="#404040"/>
<path d="M204.389 166.952C203.707 166.949 203.043 166.719 202.494 166.294L197.925 162.816C197.546 162.526 197.089 162.37 196.62 162.37C196.15 162.37 195.693 162.526 195.314 162.816L190.746 166.294C190.195 166.714 189.531 166.94 188.85 166.94C188.169 166.94 187.505 166.714 186.954 166.294C186.403 165.875 185.993 165.284 185.783 164.605C185.572 163.926 185.572 163.195 185.783 162.516L187.528 156.889C187.673 156.421 187.674 155.917 187.529 155.449C187.384 154.982 187.101 154.574 186.721 154.286L182.152 150.808C181.601 150.388 181.191 149.797 180.981 149.118C180.77 148.439 180.77 147.708 180.981 147.029C181.191 146.351 181.601 145.759 182.152 145.34C182.703 144.92 183.367 144.694 184.048 144.694H189.695C190.164 144.695 190.622 144.54 191.001 144.251C191.381 143.962 191.663 143.554 191.807 143.086L193.552 137.458C193.763 136.78 194.173 136.188 194.724 135.769C195.275 135.349 195.939 135.123 196.62 135.123C197.301 135.123 197.964 135.349 198.515 135.769C199.066 136.188 199.477 136.78 199.687 137.458L201.432 143.086C201.576 143.554 201.858 143.962 202.238 144.251C202.618 144.54 203.075 144.695 203.545 144.694H209.191C209.872 144.694 210.536 144.92 211.087 145.34C211.638 145.759 212.048 146.351 212.259 147.029C212.469 147.708 212.469 148.439 212.259 149.118C212.048 149.797 211.638 150.388 211.087 150.808L206.519 154.286C206.138 154.574 205.855 154.982 205.71 155.449C205.565 155.917 205.566 156.421 205.712 156.889L207.457 162.516C207.675 163.194 207.679 163.928 207.468 164.609C207.257 165.289 206.842 165.88 206.285 166.294C205.736 166.719 205.072 166.949 204.389 166.952Z" fill="#404040"/>
<path d="M250.684 166.952C250.001 166.949 249.338 166.719 248.788 166.294L244.22 162.816C243.841 162.527 243.383 162.371 242.914 162.371C242.445 162.371 241.988 162.527 241.608 162.816L237.04 166.294C236.489 166.714 235.825 166.94 235.144 166.94C234.463 166.94 233.8 166.714 233.249 166.294C232.698 165.875 232.288 165.284 232.077 164.605C231.867 163.926 231.867 163.195 232.077 162.516L233.822 156.889C233.968 156.421 233.968 155.917 233.823 155.449C233.678 154.982 233.395 154.574 233.015 154.286L228.447 150.808C227.896 150.388 227.486 149.797 227.275 149.118C227.065 148.439 227.065 147.708 227.275 147.029C227.486 146.351 227.896 145.759 228.447 145.34C228.998 144.92 229.661 144.694 230.342 144.694H235.989C236.459 144.695 236.916 144.54 237.296 144.251C237.675 143.962 237.958 143.554 238.102 143.086L239.847 137.458C240.057 136.78 240.467 136.188 241.018 135.769C241.569 135.349 242.233 135.123 242.914 135.123C243.595 135.123 244.259 135.349 244.81 135.769C245.361 136.188 245.771 136.78 245.981 137.458L247.726 143.086C247.871 143.554 248.153 143.962 248.533 144.251C248.912 144.54 249.37 144.695 249.839 144.694H255.486C256.167 144.694 256.83 144.92 257.381 145.34C257.932 145.759 258.343 146.351 258.553 147.029C258.763 147.708 258.763 148.439 258.553 149.118C258.343 149.797 257.933 150.388 257.382 150.808L252.813 154.286C252.433 154.574 252.15 154.982 252.005 155.449C251.86 155.917 251.86 156.421 252.006 156.889L253.751 162.516C253.969 163.194 253.973 163.928 253.762 164.608C253.551 165.289 253.136 165.88 252.58 166.294C252.03 166.719 251.366 166.949 250.684 166.952Z" fill="#404040"/>
<path d="M327.734 167.286C326.984 167.283 326.255 167.03 325.652 166.564C325.04 166.109 324.584 165.46 324.353 164.712C324.121 163.964 324.125 163.158 324.365 162.414L326.11 156.786C326.235 156.385 326.235 155.954 326.111 155.553C325.986 155.152 325.744 154.803 325.418 154.556L320.85 151.077C320.244 150.617 319.794 149.967 319.563 149.221C319.331 148.476 319.331 147.673 319.563 146.927C319.794 146.181 320.244 145.532 320.85 145.071C321.455 144.61 322.184 144.362 322.932 144.362H328.579C328.981 144.363 329.373 144.23 329.698 143.982C330.024 143.734 330.266 143.385 330.389 142.983L332.135 137.356C332.366 136.61 332.816 135.961 333.422 135.5C334.027 135.039 334.756 134.791 335.504 134.791C336.252 134.791 336.981 135.039 337.586 135.5C338.191 135.961 338.642 136.61 338.873 137.356L340.618 142.983C340.741 143.385 340.983 143.734 341.309 143.982C341.634 144.23 342.026 144.363 342.428 144.362H348.075C348.824 144.362 349.552 144.61 350.158 145.071C350.763 145.532 351.213 146.182 351.444 146.927C351.676 147.673 351.676 148.476 351.444 149.221C351.213 149.967 350.763 150.617 350.158 151.077L345.589 154.556C345.263 154.803 345.021 155.152 344.896 155.553C344.772 155.954 344.772 156.385 344.897 156.786L346.642 162.414C346.874 163.159 346.874 163.962 346.642 164.708C346.411 165.453 345.961 166.103 345.355 166.564C344.75 167.025 344.021 167.273 343.273 167.273C342.525 167.273 341.796 167.025 341.191 166.564L336.623 163.086C336.298 162.837 335.906 162.704 335.504 162.704C335.101 162.704 334.709 162.837 334.384 163.086L329.816 166.564C329.213 167.03 328.483 167.283 327.734 167.286ZM335.504 160.986C336.252 160.986 336.981 161.235 337.586 161.697L342.154 165.175C342.479 165.422 342.871 165.556 343.273 165.556C343.675 165.556 344.067 165.423 344.392 165.175C344.718 164.927 344.96 164.578 345.084 164.177C345.208 163.777 345.208 163.345 345.084 162.944L343.339 157.317C343.106 156.571 343.106 155.768 343.337 155.022C343.568 154.276 344.02 153.626 344.626 153.167L349.194 149.688C349.52 149.441 349.762 149.091 349.886 148.691C350.01 148.29 350.01 147.858 349.886 147.458C349.762 147.057 349.52 146.708 349.194 146.46C348.869 146.212 348.477 146.079 348.075 146.079H342.428C341.68 146.081 340.95 145.833 340.345 145.372C339.739 144.911 339.289 144.26 339.059 143.514L337.314 137.887C337.19 137.486 336.948 137.137 336.623 136.889C336.297 136.641 335.906 136.508 335.503 136.508C335.101 136.508 334.71 136.641 334.384 136.889C334.059 137.137 333.817 137.486 333.693 137.887L331.948 143.514C331.718 144.26 331.268 144.911 330.662 145.372C330.057 145.833 329.327 146.081 328.579 146.079H322.932C322.53 146.079 322.138 146.212 321.813 146.46C321.487 146.708 321.245 147.057 321.121 147.458C320.997 147.858 320.997 148.29 321.121 148.691C321.245 149.091 321.487 149.441 321.813 149.688L326.381 153.167C326.987 153.626 327.439 154.276 327.67 155.022C327.901 155.768 327.901 156.571 327.668 157.317L325.923 162.944C325.799 163.345 325.799 163.777 325.923 164.177C326.047 164.578 326.289 164.927 326.615 165.175C326.94 165.422 327.332 165.556 327.734 165.556C328.136 165.556 328.527 165.422 328.853 165.175L333.421 161.697C334.026 161.235 334.755 160.986 335.504 160.986Z" fill="#3F3D56"/>
<path d="M281.036 167.147C280.287 167.144 279.558 166.891 278.954 166.426C278.343 165.97 277.887 165.321 277.655 164.573C277.423 163.826 277.428 163.02 277.667 162.275L279.413 156.647C279.537 156.247 279.538 155.815 279.413 155.414C279.289 155.013 279.047 154.664 278.721 154.417L274.152 150.939C273.547 150.478 273.096 149.828 272.865 149.083C272.634 148.337 272.634 147.534 272.865 146.788C273.096 146.043 273.547 145.393 274.152 144.932C274.757 144.472 275.486 144.223 276.235 144.223H281.881C282.284 144.224 282.676 144.091 283.001 143.843C283.327 143.596 283.569 143.246 283.692 142.845L285.437 137.217C285.668 136.472 286.119 135.822 286.724 135.361C287.329 134.901 288.058 134.652 288.806 134.652C289.555 134.652 290.283 134.901 290.889 135.361C291.494 135.822 291.944 136.472 292.176 137.217L293.92 142.845C294.044 143.246 294.286 143.596 294.611 143.843C294.937 144.091 295.329 144.224 295.731 144.223H301.378C302.126 144.223 302.855 144.472 303.46 144.932C304.065 145.393 304.516 146.043 304.747 146.788C304.978 147.534 304.978 148.337 304.747 149.083C304.516 149.828 304.066 150.478 303.46 150.939L298.892 154.417C298.566 154.664 298.323 155.013 298.199 155.414C298.075 155.815 298.075 156.247 298.2 156.647L299.945 162.275C300.176 163.02 300.176 163.823 299.945 164.569C299.714 165.315 299.263 165.964 298.658 166.425C298.053 166.886 297.324 167.134 296.576 167.134C295.828 167.134 295.099 166.886 294.494 166.425L289.925 162.947C289.6 162.699 289.209 162.565 288.806 162.565C288.404 162.565 288.012 162.699 287.687 162.947L283.119 166.425C282.515 166.891 281.786 167.144 281.036 167.147ZM288.806 160.847C289.555 160.847 290.284 161.096 290.888 161.558L295.457 165.036C295.782 165.284 296.174 165.417 296.576 165.417C296.978 165.417 297.37 165.284 297.695 165.036C298.02 164.789 298.263 164.439 298.387 164.039C298.511 163.638 298.511 163.206 298.387 162.806L296.642 157.178C296.409 156.433 296.408 155.629 296.64 154.883C296.871 154.137 297.322 153.488 297.929 153.028L302.497 149.549C302.822 149.302 303.064 148.953 303.189 148.552C303.313 148.151 303.313 147.72 303.189 147.319C303.064 146.918 302.822 146.569 302.497 146.321C302.172 146.074 301.78 145.94 301.378 145.94H295.731C294.983 145.942 294.253 145.694 293.648 145.233C293.042 144.772 292.592 144.122 292.362 143.375L290.617 137.748C290.493 137.347 290.251 136.998 289.925 136.75C289.6 136.503 289.208 136.369 288.806 136.369C288.404 136.369 288.012 136.503 287.687 136.75C287.362 136.998 287.12 137.347 286.995 137.748L285.25 143.375C285.02 144.122 284.57 144.772 283.965 145.233C283.359 145.694 282.63 145.942 281.881 145.94H276.235C275.832 145.94 275.441 146.074 275.115 146.321C274.79 146.569 274.548 146.918 274.424 147.319C274.299 147.72 274.299 148.151 274.424 148.552C274.548 148.953 274.79 149.302 275.115 149.549L279.684 153.028C280.29 153.488 280.741 154.137 280.973 154.883C281.204 155.629 281.203 156.433 280.971 157.178L279.225 162.806C279.101 163.206 279.101 163.638 279.226 164.039C279.35 164.439 279.592 164.788 279.917 165.036C280.243 165.284 280.634 165.417 281.036 165.417C281.438 165.417 281.83 165.284 282.155 165.036L286.724 161.558C287.329 161.096 288.058 160.847 288.806 160.847Z" fill="#3F3D56"/>
<path d="M45.0588 25.7539C43.6465 25.7539 42.292 26.3418 41.2933 27.3883C40.2947 28.4347 39.7336 29.8541 39.7336 31.334C39.7336 32.8139 40.2947 34.2332 41.2933 35.2797C42.292 36.3262 43.6465 36.9141 45.0588 36.9141H314.592C316.004 36.9141 317.359 36.3262 318.358 35.2797C319.356 34.2332 319.917 32.8139 319.917 31.334C319.917 29.8541 319.356 28.4347 318.358 27.3883C317.359 26.3418 316.004 25.7539 314.592 25.7539H45.0588Z" fill="#CCCCCC"/>
<path d="M45.0588 54.9414C43.6465 54.9414 42.292 55.5293 41.2933 56.5758C40.2947 57.6222 39.7336 59.0416 39.7336 60.5215C39.7336 62.0014 40.2947 63.4207 41.2933 64.4672C42.292 65.5137 43.6465 66.1016 45.0588 66.1016H314.592C316.004 66.1016 317.359 65.5137 318.358 64.4672C319.356 63.4207 319.917 62.0014 319.917 60.5215C319.917 59.0416 319.356 57.6222 318.358 56.5758C317.359 55.5293 316.004 54.9414 314.592 54.9414H45.0588Z" fill="#CCCCCC"/>
<path d="M45.0588 84.1309C43.6465 84.1309 42.292 84.7188 41.2933 85.7652C40.2947 86.8117 39.7336 88.231 39.7336 89.7109C39.7336 91.1909 40.2947 92.6102 41.2933 93.6566C42.292 94.7031 43.6465 95.291 45.0588 95.291H314.592C316.004 95.291 317.359 94.7031 318.358 93.6566C319.356 92.6102 319.917 91.1909 319.917 89.7109C319.917 88.231 319.356 86.8117 318.358 85.7652C317.359 84.7188 316.004 84.1309 314.592 84.1309H45.0588Z" fill="#CCCCCC"/>
<path d="M45.0588 25.7539C43.6465 25.7539 42.292 26.3418 41.2933 27.3883C40.2947 28.4347 39.7336 29.8541 39.7336 31.334C39.7336 32.8139 40.2947 34.2332 41.2933 35.2797C42.292 36.3262 43.6465 36.9141 45.0588 36.9141H314.592C316.004 36.9141 317.359 36.3262 318.358 35.2797C319.356 34.2332 319.917 32.8139 319.917 31.334C319.917 29.8541 319.356 28.4347 318.358 27.3883C317.359 26.3418 316.004 25.7539 314.592 25.7539H45.0588Z" fill="white"/>
<path d="M45.0588 54.9414C43.6465 54.9414 42.292 55.5293 41.2933 56.5758C40.2947 57.6222 39.7336 59.0416 39.7336 60.5215C39.7336 62.0014 40.2947 63.4207 41.2933 64.4672C42.292 65.5137 43.6465 66.1016 45.0588 66.1016H314.592C316.004 66.1016 317.359 65.5137 318.358 64.4672C319.356 63.4207 319.917 62.0014 319.917 60.5215C319.917 59.0416 319.356 57.6222 318.358 56.5758C317.359 55.5293 316.004 54.9414 314.592 54.9414H45.0588Z" fill="white"/>
<path d="M45.0588 84.1309C43.6465 84.1309 42.292 84.7188 41.2933 85.7652C40.2947 86.8117 39.7336 88.231 39.7336 89.7109C39.7336 91.1909 40.2947 92.6102 41.2933 93.6566C42.292 94.7031 43.6465 95.291 45.0588 95.291H314.592C316.004 95.291 317.359 94.7031 318.358 93.6566C319.356 92.6102 319.917 91.1909 319.917 89.7109C319.917 88.231 319.356 86.8117 318.358 85.7652C317.359 84.7188 316.004 84.1309 314.592 84.1309H45.0588Z" fill="white"/>
</g>
<defs>
<clipPath id="clip0_810_1495">
<rect width="657" height="461" fill="white"/>
</clipPath>
</defs>
</svg>
