<svg width="468" height="262" viewBox="0 0 468 262" fill="none" xmlns="http://www.w3.org/2000/svg">
<g clip-path="url(#clip0_95_2)">
<path d="M1.38052 143.137L64.4548 186.138L155.577 191.627L247.053 240.222L319.194 256.864L273.421 238.961L300.685 236.701L319.208 248.602L319.069 237.748L324.744 256.247L428.034 259.671L451.357 233.173L437.059 209.087L465.683 198.143L455.832 188.328L465.981 133.433L450.754 113.672L412.3 119.148L397.565 94.923L378.154 95.9419L366.347 93.4189L358.022 109.354L319.791 119.993L316.017 99.8095L282.156 88.7057L268.801 69.2983L248.447 69.2013L237.625 50.4523L224.007 49.7869L199.601 12.4485L188.189 21.1333L142.132 3.20915L104.74 13.4119L102.159 30.3934L113.897 49.9325L79.9529 62.984L72.3495 82.3013L54.916 79.5357L2.38644 119.91L1.38052 143.137Z" stroke="#5B57FF" stroke-width="4" stroke-miterlimit="10"/>
<path d="M21.3531 157.283L41.7489 146.942L56.019 153.693L66.0713 117.02L77.8786 110.594L72.3495 82.3013" stroke="#5B57FF" stroke-width="4" stroke-miterlimit="10"/>
<path d="M77.8786 110.594L129.812 137.148L95.8255 186.99" stroke="#5B57FF" stroke-width="4" stroke-miterlimit="10"/>
<path d="M129.812 137.148L129.125 109.444L143.055 87.9571L134.806 82.5369L155.972 55.9765L168.009 27.011L142.41 3.32005" stroke="#5B57FF" stroke-width="4" stroke-miterlimit="10"/>
<path d="M143.055 87.9571L156.624 79.5149L165.608 83.7152L166.926 103.414L175.702 105.902L163.798 144.287L172.157 165.379L176.278 193.963L186.85 191.801L187.246 208.387" stroke="#5B57FF" stroke-width="4" stroke-miterlimit="10"/>
<path d="M165.608 83.7152L187.287 82.9459L197.111 80.3813L210.257 85.8154L219.282 103.199L240.802 105.174L283.231 89.0592" stroke="#5B57FF" stroke-width="4" stroke-miterlimit="10"/>
<path d="M187.287 82.9459L186.344 104.453L195.023 114.24L193.642 123.043L211.894 150.449L199.206 152.313L199.671 167.437L189.41 175.817L186.85 191.801" stroke="#5B57FF" stroke-width="4" stroke-miterlimit="10"/>
<path d="M227.545 103.954L219.289 116.985L244.347 139.13L237.451 158.018L227.642 162.592L211.894 150.449" stroke="#5B57FF" stroke-width="4" stroke-miterlimit="10"/>
<path d="M237.451 158.018L239.331 170.383L249.342 176.427L254.684 186.665L252.422 200.77L258.936 210.286L247.053 240.222" stroke="#5B57FF" stroke-width="4" stroke-miterlimit="10"/>
<path d="M244.347 139.13L282.565 132.275L308.205 144.259L319.791 119.993" stroke="#5B57FF" stroke-width="4" stroke-miterlimit="10"/>
<path d="M308.205 144.259L314.414 154.386L297.667 173.689L281.732 182.755L277.154 204.415L268.995 213.059L263.605 231.44L251.243 240.458" stroke="#5B57FF" stroke-width="4" stroke-miterlimit="10"/>
<path d="M358.022 109.354L363.42 121.144L367.853 142.041L360.874 158.51L384.78 171.783L406.036 179.151L419.896 146.512L422.741 118.441" stroke="#5B57FF" stroke-width="4" stroke-miterlimit="10"/>
<path d="M406.036 179.151L402.553 196.805L405.252 212.081L401.173 240.222L389.546 258.555L369.531 243.854L367.783 234.753L354.47 224.821L336.343 214.868L337.925 192.466L338.889 162.683L327.484 156.465L314.414 154.386" stroke="#5B57FF" stroke-width="4" stroke-miterlimit="10"/>
</g>
<defs>
<clipPath id="clip0_95_2">
<rect width="468" height="262" fill="white"/>
</clipPath>
</defs>
</svg>
