<?xml version="1.0" encoding="UTF-8"?>
<svg id="Capa_1" xmlns="http://www.w3.org/2000/svg" viewBox="0 0 375.22 123.58">
  <defs>
    <style>
      .cls-1 {
        fill: #5dbe00;
      }

      .cls-2 {
        fill: #f7941f;
      }
    </style>
  </defs>
  <g id="b">
    <g id="c">
      <path class="cls-2" d="M103.63,74.87c-5.92,0-10.75,4.44-11.46,10.17h0c-12.94,7.41-25.89,14.88-38.83,22.28l-40.05-23.38v-16.03l40.12,23.25,52.35-30.85v-29.3L52.95.43,2.66,29.92l37.41,21.51,13.97-8.31c2.45,1.55,4.89,3.09,7.34,4.7.39,5.73,5.09,10.24,10.95,10.24s10.95-4.89,10.95-10.95-4.89-10.95-10.95-10.95-2.77.26-4.06.77h0c-4.89-2.9-9.79-5.8-14.68-8.69l-13.78,7.86-10.82-6.38,24.08-13.97,40.12,23.12v14.3l-40.12,23.05L.47,45.89v46.11l52.55,30.65c14.94-8.76,29.88-17.52,44.88-26.27h0c1.67.97,3.67,1.55,5.73,1.55,6.38,0,11.53-5.15,11.53-11.53s-5.15-11.53-11.53-11.53h0ZM72.21,43.51c2.06,0,3.74,1.67,3.74,3.74s-1.67,3.74-3.74,3.74-3.74-1.67-3.74-3.74,1.67-3.74,3.74-3.74ZM103.57,90.26c-2.06,0-3.74-1.67-3.74-3.74s1.67-3.74,3.74-3.74,3.74,1.67,3.74,3.74-1.67,3.74-3.74,3.74Z"/>
    </g>
  </g>
  <g>
    <path class="cls-2" d="M177.24,47.62h-16.68v-9.79c0-1.42-.77-2.13-2.38-2.13h-3.35c-1.55,0-2.38.71-2.38,2.13v34.97c0,1.42.77,2.13,2.38,2.13h3.35c1.55,0,2.38-.71,2.38-2.13v-9.4h16.68v10.63c0,7.86-4.64,11.78-13.97,11.78h-13.39c-9.34,0-13.97-3.93-13.97-11.78v-37.48c0-7.86,4.64-11.78,13.97-11.78h13.39c9.34,0,13.97,3.93,13.97,11.78v11.01h0v.06Z"/>
    <path class="cls-2" d="M208.79,24.83h16.68v49.26c0,7.86-4.64,11.78-13.97,11.78h-14.1c-9.34,0-13.97-3.93-13.97-11.78V24.83h16.68v47.07c0,1.42.77,2.13,2.38,2.13h3.99c1.61,0,2.38-.71,2.38-2.13V24.83h-.06Z"/>
    <path class="cls-2" d="M233.08,24.83h27.95c9.34,0,13.97,3.93,13.97,11.78v7.79c0,5.54-1.55,9.08-4.57,10.75,1.8.77,2.96,1.93,3.61,3.48.64,1.55.97,3.67.97,6.31v9.14c0,7.86-4.64,11.78-13.97,11.78h-27.95V24.83h0ZM258.64,47.75v-9.92c0-1.42-.77-2.13-2.38-2.13h-6.83v14.1h6.83c1.61,0,2.38-.71,2.38-2.13h0v.06ZM258.64,72.87v-9.98c0-1.42-.77-2.13-2.38-2.13h-6.83v14.17h6.83c1.61,0,2.38-.71,2.38-2.13h0v.06Z"/>
    <path class="cls-2" d="M295.86,24.83h14.1c9.34,0,13.97,3.93,13.97,11.78v37.48c0,7.86-4.64,11.78-13.97,11.78h-14.1c-9.34,0-13.97-3.93-13.97-11.78v-37.48c0-7.86,4.64-11.78,13.97-11.78ZM307.26,71.9v-33.1c0-1.42-.77-2.13-2.38-2.13h-3.99c-1.61,0-2.38.71-2.38,2.13v33.1c0,1.42.77,2.13,2.38,2.13h3.99c1.61,0,2.38-.71,2.38-2.13Z"/>
    <path class="cls-2" d="M374.75,49.56v11.91h-15.2v14.75h-15.52v-14.75h-15.2v-11.91h15.2v-14.75h15.52v14.75h15.2Z"/>
  </g>
  <g>
    <path class="cls-1" d="M228.25,122.64v-26.22h-5.58v-4.7h17.07v4.7h-5.53v26.22h-5.97,0Z"/>
    <path class="cls-1" d="M242.05,122.64v-23.83h5.75v23.83h-5.75ZM247.84,103.99l1.66-5.18h4.49v5.18h-6.14Z"/>
    <path class="cls-1" d="M261.35,122.64c-3.92,0-5.18-1.22-5.18-5.06v-4.97c0-3.4,1.27-4.49,5.18-4.49h5.53v-3.83c0-.61-.18-.82-.79-.82h-8.85l.3-4.66h9.8c3.92,0,5.18,1.27,5.18,5.18v18.64h-5.66v-10.32h-4.27c-.61,0-.82.18-.82.79v4.18c0,.65.22.82.82.82h4.22l-1.57,4.53h-3.92,0Z"/>
    <path class="cls-1" d="M279.86,122.64l-3.7-23.83h5.49l2.92,20.47,2.92-20.47h5.45l-3.7,23.83h-9.38Z"/>
    <path class="cls-1" d="M301.51,122.64c-3.92,0-5.18-1.27-5.18-5.18v-13.64c0-3.88,1.27-5.14,5.14-5.14h6.23c3.92,0,5.18,1.27,5.18,5.14v9.28h-10.8v4.05c0,.61.22.79.79.79h9.49l-.35,4.7h-10.49ZM302.03,109.66h5.14v-5.79c0-.57-.18-.79-.79-.79h-3.57c-.57,0-.79.22-.79.79v5.79h0Z"/>
    <path class="cls-1" d="M318.19,122.64v-31.75h5.75v31.75h-5.75Z"/>
  </g>
</svg>