<?xml version="1.0" encoding="UTF-8"?>
<svg id="Capa_2" data-name="Capa 2" xmlns="http://www.w3.org/2000/svg" viewBox="0 0 371.02 418.09">
  <defs>
    <style>
      .cls-1 {
        fill: #1e1e1e;
        stroke-width: 0px;
      }
    </style>
  </defs>
  <g id="Capa_5" data-name="Capa 5">
    <g id="b">
      <g id="c">
        <g>
          <path class="cls-1" d="M288.85,177.71c-14.12,0-25.74,10.64-27.32,24.33h0c-30.93,17.72-61.86,35.47-92.79,53.21l-95.63-55.78v-38.36l95.87,55.54,125-73.72v-69.98L167.72,0,47.7,70.48l89.4,51.3,33.36-19.92c5.86,3.74,11.73,7.45,17.57,11.19.91,13.64,12.23,24.44,26.11,24.44s26.19-11.73,26.19-26.19-11.73-26.19-26.19-26.19c-3.41,0-6.67.67-9.67,1.87h0c-11.69-6.91-23.35-13.79-35.03-20.7l-32.86,18.68-25.89-15.18,57.51-33.36,95.87,55.28v34.12l-95.87,55.04L42.44,108.62v110.08l125.5,73.15c35.71-20.92,71.44-41.83,107.14-62.75v-.04c4.02,2.35,8.71,3.69,13.71,3.69,15.2,0,27.52-12.32,27.52-27.52s-12.32-27.52-27.52-27.52h.07ZM213.81,102.87c4.95,0,8.97,4.02,8.97,8.97s-4.02,8.97-8.97,8.97-8.97-4.02-8.97-8.97,4.02-8.97,8.97-8.97ZM288.72,214.51c-4.95,0-8.97-4.02-8.97-8.97s4.02-8.97,8.97-8.97,8.97,4.02,8.97,8.97-4.02,8.97-8.97,8.97Z"/>
          <g>
            <path class="cls-1" d="M64.27,358.71h-25.85v-15.2c0-2.17-1.24-3.26-3.69-3.26h-5.17c-2.45,0-3.69,1.09-3.69,3.26v54.34c0,2.17,1.24,3.26,3.69,3.26h5.17c2.45,0,3.69-1.09,3.69-3.26v-14.62h25.85v16.55c0,12.21-7.23,18.31-21.72,18.31h-20.83c-14.47,0-21.72-6.1-21.72-18.31v-58.19c0-12.21,7.23-18.31,21.72-18.31h20.83c14.47,0,21.72,6.1,21.72,18.31v17.14-.02Z"/>
            <path class="cls-1" d="M113.31,323.26h25.85v76.5c0,12.21-7.23,18.31-21.72,18.31h-21.85c-14.47,0-21.72-6.1-21.72-18.31v-76.5h25.85v73.11c0,2.17,1.24,3.26,3.69,3.26h6.21c2.45,0,3.69-1.09,3.69-3.26v-73.11Z"/>
            <path class="cls-1" d="M150.98,323.26h43.42c14.47,0,21.72,6.1,21.72,18.31v12.12c0,8.56-2.37,14.14-7.08,16.68,2.76,1.17,4.63,2.98,5.6,5.39.98,2.41,1.48,5.69,1.48,9.82v14.18c0,12.21-7.23,18.31-21.72,18.31h-43.42v-94.83.02ZM190.7,358.86v-15.36c0-2.17-1.24-3.26-3.69-3.26h-10.64v21.85h10.64c2.45,0,3.69-1.09,3.69-3.26v.02ZM190.7,397.85v-15.51c0-2.17-1.24-3.26-3.69-3.26h-10.64v22h10.64c2.45,0,3.69-1.09,3.69-3.26v.02Z"/>
            <path class="cls-1" d="M248.43,323.26h21.85c14.47,0,21.72,6.1,21.72,18.31v58.19c0,12.21-7.23,18.31-21.72,18.31h-21.85c-14.47,0-21.72-6.1-21.72-18.31v-58.19c0-12.21,7.23-18.31,21.72-18.31ZM266.16,396.37v-51.39c0-2.17-1.24-3.26-3.69-3.26h-6.21c-2.45,0-3.69,1.09-3.69,3.26v51.39c0,2.17,1.24,3.26,3.69,3.26h6.21c2.45,0,3.69-1.09,3.69-3.26Z"/>
            <path class="cls-1" d="M371.02,361.66v18.46h-23.63v22.89h-24.07v-22.89h-23.63v-18.46h23.63v-22.89h24.07v22.89h23.63Z"/>
          </g>
        </g>
      </g>
    </g>
  </g>
</svg>