<?xml version="1.0" encoding="UTF-8"?>
<svg xmlns="http://www.w3.org/2000/svg" xmlns:xlink="http://www.w3.org/1999/xlink" width="200px" height="65px" viewBox="0 0 150 49" version="1.1">
<g id="surface1">
<path style=" stroke:none;fill-rule:nonzero;fill:rgb(13.72549%,37.254902%,66.27451%);fill-opacity:1;" d="M 41.632812 29.828125 C 39.28125 29.828125 37.347656 31.613281 37.082031 33.90625 C 31.941406 36.875 26.789062 39.851562 21.640625 42.824219 L 5.726562 33.476562 L 5.726562 27.046875 L 21.683594 36.359375 L 42.484375 24 L 42.484375 12.269531 L 21.472656 0.0390625 L 1.5 11.851562 L 16.378906 20.453125 L 21.925781 17.113281 C 22.902344 17.742188 23.878906 18.363281 24.851562 18.988281 C 25.003906 21.277344 26.886719 23.082031 29.199219 23.082031 C 31.507812 23.082031 33.558594 21.121094 33.558594 18.691406 C 33.558594 16.273438 31.601562 14.300781 29.199219 14.300781 C 28.632812 14.300781 28.085938 14.421875 27.589844 14.613281 C 25.644531 13.460938 23.703125 12.304688 21.757812 11.144531 L 16.289062 14.277344 L 11.980469 11.734375 L 21.550781 6.144531 L 37.503906 15.410156 L 37.503906 21.132812 L 21.550781 30.355469 L 0.625 18.246094 L 0.625 36.699219 L 21.511719 48.960938 C 27.453125 45.453125 33.398438 41.949219 39.339844 38.441406 L 39.339844 38.4375 C 40.007812 38.832031 40.789062 39.054688 41.621094 39.054688 C 44.152344 39.054688 46.199219 36.992188 46.199219 34.441406 C 46.199219 31.890625 44.152344 29.824219 41.621094 29.824219 L 41.628906 29.824219 Z M 29.140625 17.28125 C 29.96875 17.28125 30.636719 17.953125 30.636719 18.785156 C 30.636719 19.613281 29.96875 20.285156 29.140625 20.285156 C 28.320312 20.285156 27.652344 19.613281 27.652344 18.785156 C 27.652344 17.953125 28.320312 17.28125 29.140625 17.28125 Z M 41.609375 35.996094 C 40.785156 35.996094 40.117188 35.324219 40.117188 34.496094 C 40.117188 33.667969 40.785156 32.988281 41.609375 32.988281 C 42.433594 32.988281 43.101562 33.667969 43.101562 34.496094 C 43.101562 35.324219 42.433594 35.996094 41.609375 35.996094 Z M 41.609375 35.996094 "/>
<path style=" stroke:none;fill-rule:nonzero;fill:rgb(13.72549%,37.254902%,66.27451%);fill-opacity:1;" d="M 70.871094 20.648438 L 64.257812 20.648438 L 64.257812 16.730469 C 64.257812 16.167969 63.9375 15.886719 63.308594 15.886719 L 61.988281 15.886719 C 61.359375 15.886719 61.046875 16.167969 61.046875 16.730469 L 61.046875 30.734375 C 61.046875 31.292969 61.359375 31.574219 61.988281 31.574219 L 63.308594 31.574219 C 63.9375 31.574219 64.257812 31.292969 64.257812 30.734375 L 64.257812 26.964844 L 70.871094 26.964844 L 70.871094 31.234375 C 70.871094 34.382812 69.019531 35.953125 65.3125 35.953125 L 59.980469 35.953125 C 56.277344 35.953125 54.425781 34.382812 54.425781 31.234375 L 54.425781 16.234375 C 54.425781 13.082031 56.273438 11.515625 59.980469 11.515625 L 65.3125 11.515625 C 69.015625 11.515625 70.871094 13.082031 70.871094 16.234375 L 70.871094 20.652344 Z M 70.871094 20.648438 "/>
<path style=" stroke:none;fill-rule:nonzero;fill:rgb(13.72549%,37.254902%,66.27451%);fill-opacity:1;" d="M 83.421875 11.507812 L 90.039062 11.507812 L 90.039062 31.230469 C 90.039062 34.375 88.191406 35.945312 84.480469 35.945312 L 78.886719 35.945312 C 75.183594 35.945312 73.332031 34.375 73.332031 31.230469 L 73.332031 11.507812 L 79.945312 11.507812 L 79.945312 30.355469 C 79.945312 30.914062 80.265625 31.191406 80.886719 31.191406 L 82.480469 31.191406 C 83.105469 31.191406 83.421875 30.914062 83.421875 30.355469 Z M 83.421875 11.507812 "/>
<path style=" stroke:none;fill-rule:nonzero;fill:rgb(13.72549%,37.254902%,66.27451%);fill-opacity:1;" d="M 93.0625 11.507812 L 104.171875 11.507812 C 107.878906 11.507812 109.730469 13.082031 109.730469 16.226562 L 109.730469 19.351562 C 109.730469 21.558594 109.125 23 107.921875 23.652344 C 108.625 23.953125 109.105469 24.421875 109.355469 25.042969 C 109.605469 25.664062 109.730469 26.507812 109.730469 27.570312 L 109.730469 31.230469 C 109.730469 34.375 107.878906 35.945312 104.171875 35.945312 L 93.0625 35.945312 L 93.0625 11.503906 Z M 103.226562 20.683594 L 103.226562 16.726562 C 103.226562 16.167969 102.910156 15.882812 102.285156 15.882812 L 99.558594 15.882812 L 99.558594 21.515625 L 102.285156 21.515625 C 102.910156 21.515625 103.226562 21.238281 103.226562 20.679688 Z M 103.226562 30.734375 L 103.226562 26.734375 C 103.226562 26.175781 102.910156 25.894531 102.285156 25.894531 L 99.558594 25.894531 L 99.558594 31.5625 L 102.285156 31.5625 C 102.910156 31.5625 103.226562 31.285156 103.226562 30.726562 Z M 103.226562 30.734375 "/>
<path style=" stroke:none;fill-rule:nonzero;fill:rgb(13.72549%,37.254902%,66.27451%);fill-opacity:1;" d="M 118.003906 11.507812 L 123.59375 11.507812 C 127.296875 11.507812 129.152344 13.082031 129.152344 16.226562 L 129.152344 31.230469 C 129.152344 34.375 127.304688 35.945312 123.59375 35.945312 L 118.003906 35.945312 C 114.300781 35.945312 112.445312 34.375 112.445312 31.230469 L 112.445312 16.226562 C 112.445312 13.082031 114.296875 11.507812 118.003906 11.507812 Z M 122.535156 30.355469 L 122.535156 17.105469 C 122.535156 16.546875 122.21875 16.265625 121.589844 16.265625 L 120.003906 16.265625 C 119.375 16.265625 119.058594 16.546875 119.058594 17.105469 L 119.058594 30.355469 C 119.058594 30.914062 119.375 31.191406 120.003906 31.191406 L 121.589844 31.191406 C 122.21875 31.191406 122.535156 30.914062 122.535156 30.355469 Z M 122.535156 30.355469 "/>
<path style=" stroke:none;fill-rule:nonzero;fill:rgb(13.72549%,37.254902%,66.27451%);fill-opacity:1;" d="M 149.375 21.40625 L 149.375 26.167969 L 143.328125 26.167969 L 143.328125 32.066406 L 137.167969 32.066406 L 137.167969 26.167969 L 131.121094 26.167969 L 131.121094 21.40625 L 137.167969 21.40625 L 137.167969 15.507812 L 143.328125 15.507812 L 143.328125 21.40625 Z M 149.375 21.40625 "/>
</g>
</svg>
