<?xml version="1.0" encoding="UTF-8"?>
<svg id="Capa_2" data-name="Capa 2" xmlns="http://www.w3.org/2000/svg" viewBox="0 0 581.25 189.78">
  <defs>
    <style>
      .cls-1 {
        fill: #235fa9;
        stroke-width: 0px;
      }
    </style>
  </defs>
  <g id="Capa_7" data-name="Capa 7">
    <g>
      <g id="b">
        <g id="c">
          <path class="cls-1" d="M160.24,115.56c-9.18,0-16.74,6.92-17.77,15.82h0c-20.11,11.53-40.23,23.06-60.34,34.6l-62.19-36.27v-24.94l62.34,36.12,81.28-47.94v-45.51L81.47,0,3.42,45.83l58.13,33.36,21.69-12.95c3.81,2.43,7.63,4.84,11.43,7.27.59,8.87,7.95,15.89,16.98,15.89s17.03-7.63,17.03-17.03-7.63-17.03-17.03-17.03c-2.22,0-4.34.44-6.29,1.21h0c-7.6-4.49-15.18-8.97-22.78-13.46l-21.37,12.15-16.84-9.87,37.4-21.69,62.34,35.95v22.19l-62.34,35.79L0,70.63v71.58l81.61,47.57c23.22-13.6,46.45-27.2,69.67-40.8v-.03c2.61,1.53,5.66,2.4,8.91,2.4,9.89,0,17.9-8.01,17.9-17.9s-8.01-17.9-17.9-17.9h.04ZM111.44,66.89c3.22,0,5.83,2.61,5.83,5.83s-2.61,5.83-5.83,5.83-5.83-2.61-5.83-5.83,2.61-5.83,5.83-5.83ZM160.15,139.49c-3.22,0-5.83-2.61-5.83-5.83s2.61-5.83,5.83-5.83,5.83,2.61,5.83,5.83-2.61,5.83-5.83,5.83Z"/>
        </g>
      </g>
      <g>
        <path class="cls-1" d="M274.49,79.94h-25.85v-15.2c0-2.17-1.24-3.26-3.69-3.26h-5.17c-2.45,0-3.69,1.09-3.69,3.26v54.34c0,2.17,1.24,3.26,3.69,3.26h5.17c2.45,0,3.69-1.09,3.69-3.26v-14.62h25.85v16.55c0,12.21-7.23,18.31-21.72,18.31h-20.83c-14.47,0-21.72-6.1-21.72-18.31v-58.19c0-12.21,7.23-18.31,21.72-18.31h20.83c14.47,0,21.72,6.1,21.72,18.31v17.14-.02Z"/>
        <path class="cls-1" d="M323.54,44.49h25.85v76.5c0,12.21-7.23,18.31-21.72,18.31h-21.85c-14.47,0-21.72-6.1-21.72-18.31V44.49h25.85v73.11c0,2.17,1.24,3.26,3.69,3.26h6.21c2.45,0,3.69-1.09,3.69-3.26V44.49Z"/>
        <path class="cls-1" d="M361.2,44.49h43.42c14.47,0,21.72,6.1,21.72,18.31v12.12c0,8.56-2.37,14.14-7.08,16.68,2.76,1.17,4.63,2.98,5.6,5.39.98,2.41,1.48,5.69,1.48,9.82v14.18c0,12.21-7.23,18.31-21.72,18.31h-43.42V44.47v.02ZM400.93,80.09v-15.36c0-2.17-1.24-3.26-3.69-3.26h-10.64v21.85h10.64c2.45,0,3.69-1.09,3.69-3.26v.02ZM400.93,119.07v-15.51c0-2.17-1.24-3.26-3.69-3.26h-10.64v22h10.64c2.45,0,3.69-1.09,3.69-3.26v.02Z"/>
        <path class="cls-1" d="M458.66,44.49h21.85c14.47,0,21.72,6.1,21.72,18.31v58.19c0,12.21-7.23,18.31-21.72,18.31h-21.85c-14.47,0-21.72-6.1-21.72-18.31v-58.19c0-12.21,7.23-18.31,21.72-18.31ZM476.38,117.6v-51.39c0-2.17-1.24-3.26-3.69-3.26h-6.21c-2.45,0-3.69,1.09-3.69,3.26v51.39c0,2.17,1.24,3.26,3.69,3.26h6.21c2.45,0,3.69-1.09,3.69-3.26Z"/>
        <path class="cls-1" d="M581.25,82.89v18.46h-23.63v22.89h-24.07v-22.89h-23.63v-18.46h23.63v-22.89h24.07v22.89h23.63Z"/>
      </g>
    </g>
  </g>
</svg>