<?xml version="1.0" encoding="utf-8"?>
<!-- Generator: Adobe Illustrator 28.0.0, SVG Export Plug-In . SVG Version: 6.00 Build 0)  -->
<svg version="1.1" id="Capa_1" xmlns="http://www.w3.org/2000/svg" xmlns:xlink="http://www.w3.org/1999/xlink" x="0px" y="0px"
	 viewBox="0 0 816.85 830.79" style="enable-background:new 0 0 816.85 830.79;" xml:space="preserve">
<style type="text/css">
	.st0{fill:#FFFFFF;}
</style>
<g id="Layer_1-2">
	<g>
		<polygon class="st0" points="406.28,0.11 417.71,23.25 443.26,26.96 424.77,44.98 429.12,70.41 406.28,58.4 383.43,70.41 
			387.79,44.98 369.3,26.96 394.85,23.25 		"/>
		<polygon class="st0" points="574.24,42.98 585.67,66.13 611.23,69.84 592.73,87.85 597.1,113.29 574.24,101.28 551.39,113.29 
			555.76,87.85 537.27,69.84 562.82,66.13 		"/>
		<polygon class="st0" points="703.04,147.23 714.48,170.37 740.03,174.08 721.54,192.1 725.9,217.53 703.04,205.52 680.2,217.53 
			684.55,192.1 666.07,174.08 691.61,170.37 		"/>
		<polygon class="st0" points="776.61,296.48 788.04,319.62 813.6,323.33 795.11,341.35 799.48,366.78 776.61,354.77 753.77,366.78 
			758.12,341.35 739.64,323.33 765.18,319.62 		"/>
		<polygon class="st0" points="779.45,469.7 790.86,492.84 816.42,496.55 797.93,514.56 802.29,539.99 779.45,527.98 756.59,539.99 
			760.96,514.56 742.47,496.55 768.02,492.84 		"/>
		<polygon class="st0" points="703.2,619.64 714.62,642.78 740.17,646.49 721.68,664.51 726.04,689.95 703.2,677.94 680.34,689.95 
			684.71,664.51 666.22,646.49 691.77,642.78 		"/>
		<polygon class="st0" points="575.05,723.96 586.48,747.1 612.04,750.82 593.54,768.83 597.91,794.27 575.05,782.27 552.2,794.27 
			556.57,768.83 538.08,750.82 563.62,747.1 		"/>
		<polygon class="st0" points="406.21,760.59 417.64,783.73 443.18,787.45 424.7,805.45 429.07,830.9 406.21,818.89 383.36,830.9 
			387.72,805.45 369.23,787.45 394.79,783.73 		"/>
		<polygon class="st0" points="241.11,724.07 252.54,747.21 278.09,750.93 259.6,768.94 263.96,794.38 241.11,782.36 218.26,794.38 
			222.62,768.94 204.13,750.93 229.68,747.21 		"/>
		<polygon class="st0" points="112.9,619.82 124.33,642.96 149.88,646.68 131.39,664.7 135.76,690.12 112.9,678.11 90.05,690.12 
			94.41,664.7 75.92,646.68 101.48,642.96 		"/>
		<polygon class="st0" points="36.56,470.81 47.99,493.95 73.54,497.65 55.05,515.68 59.41,541.1 36.56,529.1 13.7,541.1 
			18.07,515.68 -0.42,497.65 25.13,493.95 		"/>
		<polygon class="st0" points="36.56,296.48 47.99,319.62 73.54,323.33 55.05,341.35 59.41,366.78 36.56,354.77 13.7,366.78 
			18.07,341.35 -0.42,323.33 25.13,319.62 		"/>
		<polygon class="st0" points="109.03,147.42 120.45,170.56 146,174.27 127.52,192.28 131.88,217.72 109.03,205.71 86.17,217.72 
			90.54,192.28 72.05,174.27 97.6,170.56 		"/>
		<polygon class="st0" points="240.89,43.09 252.32,66.23 277.87,69.94 259.38,87.95 263.75,113.39 240.89,101.38 218.04,113.39 
			222.41,87.95 203.92,69.94 229.47,66.23 		"/>
		<g>
			<path class="st0" d="M602.12,475.59c-0.12-0.02-0.24-0.07-0.37-0.07c-1.8,0-3.17,1.38-3.17,3.17s1.38,3.17,3.17,3.17
				c0.13,0,0.24-0.06,0.37-0.07c0.13,0.02,0.25,0.07,0.39,0.07c1.65,0,3.17-1.38,3.17-3.17s-1.52-3.17-3.17-3.17
				C602.38,475.52,602.27,475.58,602.12,475.59z"/>
			<path class="st0" d="M637.35,431.1c0,0-5.38,0.96-7.72,2.89c-1.15,0.95-2.8,1.43-4.46,1.85c0.79-1.61,1.32-3.62,1.14-6.1
				c-0.55-5.79-0.55-15.31-0.55-15.31s-1.93,5.79-4.69,7.17c-2.9,1.38-8.14,3.31-9.1,5.24c-0.96,1.93-4.83,1.93-6.34,7.72
				c-1.38,5.65-1.38,5.24-2.34,7.17c-0.3,0.59-0.74,1.25-1.22,1.96c1.81-8.72,3.16-17.7,3.16-25.39c0-1.35-0.04-2.63-0.06-3.95
				c1.43-1.14,3.32-3.19,3.32-3.19c1.23-2.01,16.01-7.07,18.08-11.07c2.07-3.86,3.17-6.62,4.14-8.27c0.83-1.79,2.76-7.99,2.34-10.75
				c-0.28-2.76-0.69-13.1-1.65-14.76c0,0-4.55,2.35-6.07,4.69c-0.42,0.63-0.99,1.18-1.64,1.68c0-1.38-0.18-2.79-0.69-4.14
				c-2.07-5.1-5.24-11.86-5.24-11.86s-2.76,4.28-4.28,6.9c-2.48,4.97-4.97,5.38-5.38,7.31c-0.28,2.07-3.31,3.31-4.41,7.31
				c-0.4,1.41-0.63,2.42-0.76,3.19c-1.09-8.53-2.51-16.29-4.11-23.28c0.71-2.24,1.51-7.13,3.5-8.73c2.89-2.48,3.31-5.79,3.31-9.65
				s-0.83-6.62-1.38-9.1c-0.42-2.35-7.73-12.41-7.18-15.3c0,0-3.59,8.14-4.96,11.34c-3.57-3.56-9.09-7.75-12.13-9.26
				c-1.8-3.15-3.67-6.32-5.57-9.48c0.09-0.93,0.3-2.91,0.6-5.02c0.55-2.89,1.52-7.72,0.55-10.06c-0.97-2.34-2.9-4.28-3.86-7.17
				c-0.97-2.89-1.38-4.83-3.86-7.17c-2.34-2.48-5.79-5.79-5.79-5.79s-0.94,4.26-1.83,7.71c-0.88-0.46-1.78-0.78-2.44-0.96
				c-0.57-0.23-1.79-0.85-3.13-1.57c-1.66-2.26-3.27-4.4-4.79-6.29c0.85-0.56,1.44-1.47,1.43-2.6c0-1.79-1.38-3.17-3.17-3.17
				s-3.17,1.38-3.17,3.17s1.38,3.17,3.17,3.17c0.65,0,1.22-0.23,1.71-0.55c0.43,0.67,1.7,2.64,3.56,5.59
				c-1.55-0.85-3.05-1.71-3.75-2.16c-1.24-0.83-1.93,8.63,0.95,13.88c-0.46-0.12-0.92-0.25-1.35-0.36
				c-5.79-1.52-11.03-0.97-11.03-0.97c1.38,0,4.83,3.73,5.24,5.65c0.55,1.93,3.87,6.34,5.79,7.17c1.93,0.96,5.24,3.45,7.17,5.38
				c1.89,1.89,7.88,2.33,12.15,2.35c1.69,0.83,3.25,1.32,4.23,1.05c1.78,3.07,3.55,6.18,5.29,9.29c-0.54,2.36-1.41,6.6-1.12,8.25
				v0.02l0,0c-2.35-0.42-10.48-2.34-10.48-2.34c0.79,4.72,2.14,9.5,4.19,12.02c-0.45,0.43-0.79,0.97-0.91,1.62
				c-0.17,0.98,0.08,2.05,0.68,2.9c0.09,0.14,1.84,2.85,4.54,3.77l-39.43,27.73c3.13-46.91-2.51-91.85-3.87-101.65
				c4.79-1.81,3.49-3.96,3.49-3.96l-1.87-4.67c0.5,0.23,1.03,0.37,1.54,0.37c0.86,0,1.67-0.32,2.25-0.95
				c1.19-1.31,0.93-3.49-0.53-4.81c-0.08-0.09-1.26-1.37-3.04-2.17l5.62-0.82l3.22-13.59h-0.01l0,0l-13.22,4.49l-0.29,5.67
				c-0.96-1.68-2.33-2.73-2.39-2.77c-1.51-1.37-3.71-1.42-4.9-0.12c-1.19,1.31-0.93,3.49,0.55,4.84c0.11,0.11,2.22,2.09,4.87,2.56
				c0.05,0.13,0.11,0.24,0.18,0.36l-66.11,72.87l-43.91-73.37c2.7-17.79-6.84-44.79-7.22-45.86c0.55-2.36,0.88-4.84,0.77-7.3
				c3.02-1,3.93-3.35,4.16-4.15c0.03-0.05,0-0.07,0.03-0.11c-0.01-0.01,0.04-0.07,0.03-0.09c0-0.03,0.02-0.09,0.02-0.09
				s-3.12-3.87-5.07-5.66c1.02,0.22,1.94,0.29,2.38,0.29c0.17,0,0.28,0,0.3,0c2.04,0,3.7-1.45,3.7-3.22s-1.66-3.2-3.62-3.2h-0.01
				c-0.11,0-1.86-0.16-3.71,0.45l3.6-4.4l-6.78-12.21l0,0l0,0l-6.75,12.23l3.62,4.39c-1.84-0.6-3.57-0.45-3.64-0.45
				c-1.08,0-2.1,0.41-2.8,1.11c-0.58,0.58-0.9,1.33-0.89,2.1c0,0.78,0.32,1.52,0.9,2.11c0.7,0.7,1.72,1.1,2.75,1.1
				c0,0,0.11,0,0.31,0c0.38,0,1.11-0.07,1.93-0.21c-1.13,1.05-2.56,2.66-3.55,3.82c-0.42,0.37-0.75,0.75-0.95,1.12
				c-0.14,0.17-0.23,0.28-0.23,0.28s0.05,0.2,0.14,0.48c0.02,0.1-0.03,0.2,0.03,0.3c0.62,1.19,1.3,1.94,2.02,2.43
				c-5.04,9.34-17.43,36.43-10.26,64.64l-37.96,63.47L284,254.96c2.85-0.3,5.18-2.52,5.27-2.61c0.8-0.72,1.28-1.71,1.33-2.7
				c0.04-0.82-0.23-1.59-0.75-2.17s-1.26-0.91-2.08-0.95c-0.96-0.01-2.02,0.34-2.76,1.02c-0.09,0.07-1.48,1.14-2.44,2.82l-0.29-5.67
				l-13.22-4.49l0,0h-0.01l3.22,13.59l5.63,0.82c-1.77,0.79-2.95,2.06-3,2.12c-0.8,0.72-1.28,1.71-1.33,2.7
				c-0.04,0.82,0.23,1.59,0.75,2.17c0.52,0.57,1.26,0.91,2.08,0.95c0.05,0,0.11,0,0.16,0c0.53,0,1.05-0.14,1.54-0.36l-1.86,4.66
				c0,0-1.29,2.15,3.49,3.96c-1.35,9.8-7,54.75-3.87,101.65l-39.43-27.73c2.7-0.93,4.45-3.63,4.52-3.74
				c0.55-0.79,0.82-1.72,0.74-2.62c-0.06-0.76-0.41-1.38-0.9-1.88c2.07-2.5,3.44-7.31,4.23-12.08c0,0-8.14,1.93-10.48,2.34l0,0
				c0,0,0-0.01,0-0.02c0.29-1.66-0.58-5.89-1.12-8.25c1.73-3.11,3.51-6.22,5.29-9.29c0.97,0.27,2.54-0.22,4.23-1.05
				c4.27-0.02,10.26-0.45,12.15-2.35c1.93-1.93,5.24-4.41,7.17-5.38c1.93-0.83,5.24-5.24,5.79-7.17c0.41-1.93,3.86-5.65,5.24-5.65
				c0,0-5.24-0.55-11.03,0.97c-0.43,0.1-0.9,0.23-1.35,0.36c2.87-5.25,2.18-14.71,0.95-13.88c-0.7,0.45-2.21,1.31-3.75,2.16
				c1.86-2.95,3.12-4.92,3.56-5.59c0.5,0.32,1.06,0.55,1.71,0.55c1.79,0,3.17-1.38,3.17-3.17s-1.38-3.17-3.17-3.17
				s-3.17,1.38-3.17,3.17c0,1.13,0.58,2.05,1.43,2.6c-1.52,1.89-3.13,4.03-4.79,6.29c-1.34,0.72-2.56,1.34-3.13,1.57
				c-0.66,0.18-1.56,0.5-2.44,0.96c-0.89-3.45-1.83-7.71-1.83-7.71s-3.45,3.31-5.79,5.79c-2.48,2.34-2.9,4.27-3.86,7.17
				c-0.96,2.89-2.9,4.83-3.86,7.17c-0.97,2.34,0,7.17,0.55,10.06c0.3,2.11,0.51,4.09,0.6,5.02c-1.91,3.16-3.77,6.33-5.57,9.48
				c-3.05,1.52-8.57,5.71-12.13,9.26c-1.37-3.2-4.96-11.34-4.96-11.34c0.55,2.89-6.76,12.96-7.18,15.3
				c-0.55,2.48-1.38,5.24-1.38,9.1s0.42,7.17,3.31,9.65c1.99,1.61,2.79,6.49,3.5,8.73c-1.61,6.99-3.02,14.75-4.11,23.28
				c-0.13-0.77-0.36-1.78-0.76-3.19c-1.1-4-4.14-5.24-4.41-7.31c-0.42-1.93-2.9-2.34-5.38-7.31c-1.52-2.62-4.28-6.9-4.28-6.9
				s-3.17,6.75-5.24,11.86c-0.51,1.35-0.7,2.76-0.69,4.14c-0.65-0.5-1.22-1.05-1.64-1.68c-1.52-2.34-6.07-4.69-6.07-4.69
				c-0.97,1.66-1.38,12-1.65,14.76c-0.42,2.76,1.52,8.96,2.34,10.75c0.97,1.66,2.07,4.41,4.14,8.27
				c2.07,3.99,16.85,9.06,18.08,11.07c0,0,1.89,2.06,3.32,3.19c-0.02,1.32-0.06,2.6-0.06,3.95c0,7.7,1.35,16.68,3.16,25.39
				c-0.48-0.7-0.92-1.36-1.22-1.96c-0.96-1.93-0.96-1.51-2.34-7.17c-1.51-5.79-5.38-5.79-6.34-7.72c-0.97-1.93-6.21-3.87-9.1-5.24
				c-2.76-1.38-4.69-7.17-4.69-7.17s0,9.51-0.55,15.31c-0.18,2.49,0.35,4.49,1.14,6.1c-1.66-0.42-3.31-0.9-4.46-1.85
				c-2.34-1.93-7.72-2.89-7.72-2.89c-0.41,1.93,2.48,12.54,2.9,15.3c0.55,2.89,4.28,8.69,5.79,10.06c1.38,1.52,3.31,3.86,6.62,7.17
				c3.44,3.44,12.1,4.13,21.65,7.3c3.65,1.21,5.68,3.48,6.74,5.08c0.35,1.23,0.65,2.31,0.84,3.08c1.07,4.18,2.48,9.28,4.14,14.78
				c-2.68-3.59-7.31-4.43-12.67-5.27c-3.31-0.55-16.28-3.86-16.28-3.86c3.09,2.28,4.99,8.62,6.91,14.35
				c-7.47-1.52-15.05-0.01-15.05-0.01c1.38,0.96,11.45,9.65,12.83,14.47c1.52,4.69,6.76,13.37,8.14,14.34
				c1.52,0.97,5.8,6.2,8.69,9.1c2.9,2.89,14.34,1.38,18.21,1.38c2.42,0,6.31,1.95,8.77,2.8c2.44,3.33,6.65,7.71,12.17,12.69
				c-3.15-1.11-8.68-4.66-10.58-6.93c-1.87-2.54,0.27,8.49,2.41,12.06c-3.12-0.29-6.46-0.94-8.36-2.41
				c-3.17-2.48-0.41,8.69,3.03,11.85c7.43,6.61,6.74,7.66,7.93,8.11c-6.25,1.26-14.95,3.38-17.6,1.81
				c-3.45-1.93,3.86,4.82,8.28,6.48c6.34,2.34,5.52,6.48,12.41,8.69c7.31,2.35,15.03,5.24,19.31,4.42
				c3.31-0.69,5.79-2.21,10.48-2.62c4.18-0.51,11.28-6.08,19.35-7.09c7.76,4.75,15.67,9.18,23.4,12.89
				c0.33,0.16,0.78,0.37,1.23,0.57c-0.83,0.07-1.72,0.18-2.73,0.38c-2.9,0.69-14.76,3.31-17.66,1.93c-2.62-1.38,2.99,6.36,6.53,9.27
				c-5.64,1.07-13.49,1.88-16.19,1.21c-3.86-0.83,7.72,10.34,12.28,11.58c0.19,0.05,0.35,0.1,0.53,0.15c-3.73,1.22-7.1,2.11-8.8,2
				c-4-0.28,12.69,10.61,17.25,9.92c14.62-2.07,28.42,2.89,35.17,0.14c6.07-2.34,9.66-4,12.69-4.96c3.03-1.1,4.69-3.86,6.62-5.24
				c1.45-1.14,2.13-3.33,7.14-5.74c0.41,0.1,0.55,0.11,0.55,0.11s9.3,0.69,15.51,0.14c-1.74,0.68-3.88,1.84-6.3,3.78
				c-7.54,2.36-13.62,4.41-15.53,5.37c-5.8,2.89-20.56,15.85-24.42,20.13c0,0,12.41-0.96,14.35-0.96s6.21-8.55,8.14-10.06
				c0.56-0.4,3.71-2.02,8.35-4.17c-8.5,13.65,3.87,24.81,3.87,24.81c-3.31-3.86,0.42-10.61,0.42-10.61l6.76,4.27
				c-8.48-14.52,4.64-24.22,8.99-26.92c0.46-0.17,0.91-0.34,1.37-0.52c1.37,1.78,3.24,2.91,5.35,2.91s3.82-1.06,5.18-2.72
				c0.88,0.33,1.73,0.66,2.59,1c5.06,3.42,15.83,12.75,7.95,26.24l6.76-4.27c0,0,3.72,6.76,0.42,10.61c0,0,12.1-10.9,4.17-24.33
				c4.08,1.92,6.82,3.33,7.33,3.7c1.93,1.51,6.2,10.06,8.14,10.06s14.35,0.96,14.35,0.96c-3.86-4.27-18.62-17.23-24.42-20.13
				c-1.82-0.91-7.38-2.8-14.4-5.01c-2.59-2.15-4.88-3.41-6.71-4.13c6.21,0.55,15.41,0,15.41,0s0.19-0.01,0.26-0.06
				c4.5,2.3,5.42,4.46,6.81,5.55c1.93,1.38,3.59,4.14,6.62,5.24c3.03,0.97,6.62,2.62,12.69,4.96c6.76,2.76,20.55-2.21,35.17-0.14
				c4.55,0.69,21.24-10.2,17.25-9.92c-1.69,0.11-5.07-0.78-8.8-2c0.19-0.05,0.34-0.1,0.53-0.15c4.55-1.24,16.14-12.41,12.28-11.58
				c-2.7,0.68-10.55-0.14-16.19-1.21c3.54-2.91,9.15-10.65,6.53-9.27c-2.9,1.38-14.76-1.24-17.66-1.93
				c-1.01-0.21-1.89-0.32-2.73-0.38c0.45-0.21,0.9-0.41,1.23-0.57c7.73-3.71,15.64-8.14,23.4-12.89c8.07,1.02,15.18,6.58,19.35,7.09
				c4.69,0.41,7.17,1.93,10.48,2.62c4.28,0.83,12-2.07,19.31-4.42c6.9-2.2,6.07-6.34,12.41-8.69c4.42-1.66,11.73-8.41,8.28-6.48
				c-2.65,1.57-11.34-0.55-17.6-1.81c1.19-0.45,0.5-1.5,7.93-8.11c3.45-3.17,6.2-14.34,3.03-11.85c-1.89,1.46-5.24,2.12-8.36,2.41
				c2.14-3.57,4.29-14.6,2.41-12.06c-1.9,2.27-7.43,5.82-10.58,6.93c5.52-4.98,9.73-9.35,12.17-12.69c2.46-0.84,6.35-2.8,8.77-2.8
				c3.86,0,15.31,1.52,18.21-1.38s7.17-8.14,8.69-9.1c1.38-0.97,6.62-9.65,8.14-14.34c1.38-4.83,11.45-13.51,12.83-14.47
				c0,0-7.59-1.51-15.05,0.01c1.92-5.73,3.82-12.07,6.91-14.35c0,0-12.96,3.31-16.28,3.86c-5.36,0.83-9.99,1.68-12.67,5.27
				c1.66-5.5,3.07-10.59,4.14-14.78c0.19-0.78,0.49-1.86,0.84-3.08c1.05-1.6,3.08-3.87,6.74-5.08c9.56-3.17,18.21-3.86,21.65-7.3
				c3.31-3.31,5.24-5.66,6.62-7.17c1.52-1.38,5.24-7.17,5.79-10.06c0.41-2.76,3.31-13.37,2.9-15.3L637.35,431.1z M602.88,421.89
				c-0.12,3.88-1.17,10.82-2.97,19.52c-0.17-2.87-1.12-5.77-2.18-7.79c-1.38-2.89-3.31-2.89-4.27-5.79
				c-0.96-2.89-4.28-3.86-6.21-6.2c-1.93-2.34-5.79-5.24-5.79-5.24c-1.38,3.31-1.79,16.27-0.96,18.2c0.3,0.6,0.5,1.66,0.7,2.87
				c-1.42-0.54-2.65-0.96-2.65-0.96c-2.48,5.65,0.42,11.44,1.38,16.68c0.28,1.66,2.34,4.83,3.31,6.76c0.97,1.93,0.55,3.72,1.52,5.24
				c0.9,1.28,2.99,1.45,5.16,3.45c0.28,3.58,0.63,6.63,1.16,7.51c-1.84,6.17-3.87,12.46-6.05,18.71c-0.16-2.05-0.81-4.28-2.3-6.63
				c-2.48-3.86-2.89-3.59-4.27-7.73c-1.93-5.24-5.79-5.24-6.34-10.47c0,0-1.38,6.2-1.79,11.44c-0.55,5.24,0.42,7.17,0.83,10.06
				c0.36,1.9-0.33,4.01-0.86,6.43c-0.13-2.8-0.7-6.67-1.9-8.35c-1.51-1.93-0.97-5.79-0.97-5.79c-0.92,1.82-5.27,7.94-7.37,9.75
				l-1.79-2.99c25.16-44,19.3-119.28,18.35-129.6c4.06-0.85,3.35-2.95,3.35-2.95l-0.79-4.93c0.39,0.29,0.81,0.51,1.27,0.64
				c0.3,0.08,0.59,0.12,0.88,0.12c0.6,0,1.18-0.17,1.67-0.52c0.73-0.51,1.17-1.31,1.25-2.26c0-0.05-0.02-0.11-0.02-0.16
				c1.81,1.97,3.66,3.72,5.14,4.15c3.45,0.97,6.34,2.48,6.76,3.86v-0.03c2.2,8.9,3.78,18.32,4.87,27.39
				c-0.01-0.02-0.02-0.04-0.04-0.05c-3.86-4.28-4.83-12.41-13.38-16.82c0,0,0.41,3.45,0,5.79c-0.35,1.48-0.86,4.74-0.81,7.52
				c-2.98-2.23-6.15-5.13-6.55-6.44c0,0-1.38,11.86,1.93,18.2c3.45,6.2,3.45,9.51,7.17,10.89c3.86,1.52,4.42,2.48,5.79,3.45
				c1.52,0.97,3.86,2.34,5.79,2.34c0.46,0,0.89,0.3,1.26,0.75c0.2,0.98,0.45,1.95,0.76,2.9c0.03,2.56,0.02,4.95-0.03,7.11
				L602.88,421.89z M268.52,370.04l25.52,17.95c-0.15,4.23-0.21,16.84,3.63,28.24l-21.18,35.42
				C272.97,444.04,264.06,419.23,268.52,370.04z M229.19,349.23c0,0,1.71-2.97,4.41-3.33c0.49,2.54-1.62,5.29-1.66,5.35
				c-0.35,0.5-0.83,0.85-1.37,1c-0.49,0.13-0.93,0.06-1.29-0.18c-0.35-0.24-0.57-0.65-0.61-1.15c-0.05-0.55,0.12-1.12,0.51-1.68
				L229.19,349.23z M312.93,290.18l20.29,22.37c-0.44,6.17-1.29,25.41,4.01,37.51l-18.47,30.88
				C314.36,371.99,305.23,345.55,312.93,290.18L312.93,290.18z M392.08,275.73c8.93-1.58,18.22-1.59,27.16-0.07l2.9,4.84
				c-10.83-2.39-22.17-2.34-32.99,0.13L392.08,275.73z M394.39,271.86l11.28-18.87l11.24,18.79c-7.46-0.99-15.08-0.96-22.53,0.08
				H394.39z M386.63,284.83c12.36-3.47,25.64-3.51,38.02-0.14l3.12,5.21c-6.99-2.43-14.31-3.67-21.86-3.67s-15.26,1.3-22.42,3.86
				L386.63,284.83L386.63,284.83z M380.47,295.14c15.91-6.98,34.3-7.07,50.28-0.25l78,130.32h-28.6c-1.31-0.8-2.57-1.67-3.77-2.65
				c-0.43-0.35-0.86-0.7-1.33-1c-1.97-1.25-4.09-1.65-6.38-1.21c-1.18,0.23-2.29,0.66-3.36,1.2c-1.06,0.55-2.06,1.21-3.01,1.93
				c-0.1,0.08-0.19,0.18-0.34,0.22c-0.48-0.17-0.96-0.38-1.43-0.6c-2.54-1.22-4.86-2.77-7.03-4.56c-0.7-0.58-1.44-1.11-2.25-1.53
				c-1.34-0.69-2.76-1.04-4.26-1.04c-1.04,0-2.05,0.17-3.04,0.46c-1.42,0.42-2.73,1.07-3.97,1.84c-0.83,0.52-1.63,1.09-2.4,1.71
				c-0.09,0.07-0.16,0.17-0.31,0.18c-0.05-0.03-0.12-0.06-0.18-0.1c-1.45-0.91-2.97-1.71-4.57-2.32c-1.45-0.55-2.81-1.3-4.13-2.11
				c-1.87-1.14-3.66-2.39-5.33-3.81c-0.6-0.5-1.24-0.95-1.91-1.34c-1.41-0.82-2.93-1.31-4.56-1.44c-1.1-0.09-2.2,0-3.28,0.22
				c-1.47,0.31-2.85,0.85-4.18,1.54c-0.72,0.38-1.37,0.87-2.04,1.31v-45.18c4.78-0.3,8.45-1.95,8.45-3.96s-3.44-15.59-8.01-18.88
				c-0.23-0.18-4.2-3.25-9.47-0.24c0,0-5.93,3.43-2.89,8.27c0,0,0.63,1.46,3.22,0.42c0.49-0.2,1.72-0.82,2.11-2.6l-0.06,1.17
				c-0.03,1.66-2.31,2.59-2.43,2.64c-1.49,4.17-2.4,8.23-2.4,9.23c0,2.02,3.71,3.68,8.52,3.96v45.81c-0.14-0.08-0.29-0.17-0.43-0.25
				c-1.98-1.21-3.88-2.54-5.65-4.03c-0.65-0.55-1.35-1.04-2.09-1.47c-1.42-0.82-2.94-1.34-4.58-1.51c-1.29-0.14-2.57-0.05-3.84,0.23
				c-1.54,0.33-2.98,0.9-4.37,1.62c-1.45,0.75-2.81,1.66-4.1,2.65c-0.1,0.08-0.19,0.18-0.33,0.21c-0.11-0.06-0.22-0.13-0.33-0.2
				c-0.59-0.34-1.18-0.69-1.78-1.02c-0.84-0.46-1.7-0.89-2.6-1.22c-1.17-0.44-2.32-0.95-3.42-1.54c-3.19-1.68-6.16-3.69-8.93-6
				c-0.26-0.22-0.53-0.44-0.8-0.64c-2.18-1.65-4.6-2.69-7.35-2.91c-0.09,0-0.18-0.04-0.27-0.07h-1.49
				c-0.12,0.02-0.23,0.06-0.35,0.07c-1.76,0.14-3.44,0.59-5.07,1.25c-1.87,0.76-3.61,1.76-5.26,2.91c-1.88,1.31-3.62,2.78-5.27,4.36
				c-2.13,2.04-4.09,4.23-5.93,6.53c-1.79,2.23-3.47,4.55-5.01,6.96c-0.08,0.12-0.16,0.23-0.25,0.34c-1.13,1.38-2.33,2.71-3.58,3.98
				c-0.77,0.78-1.62,1.46-2.42,2.2H302.7l77.78-130.07L380.47,295.14z M492.64,380.92l-18.48-30.87c5.29-12.1,4.45-31.34,4.01-37.5
				l20.29-22.37C506.15,345.49,497.04,371.93,492.64,380.92L492.64,380.92z M577.8,345.89c2.69,0.37,4.39,3.31,4.45,3.39
				c0.35,0.5,0.52,1.08,0.47,1.62c-0.04,0.49-0.26,0.9-0.61,1.15c-0.34,0.24-0.8,0.32-1.29,0.18c-0.53-0.14-1.01-0.5-1.39-1.03
				c-0.02-0.03-2.12-2.78-1.63-5.32V345.89z M534.93,451.58l-21.19-35.41c3.82-11.39,3.77-23.97,3.62-28.2l25.52-17.95
				C547.33,419.1,538.47,443.92,534.93,451.58L534.93,451.58z M261.39,494.26l19.88-33.25h241.51c-0.1-0.06-0.19-0.13-0.29-0.19
				c-0.41-0.23-0.83-0.45-1.24-0.69c-1.44-0.86-2.8-1.85-4.12-2.89c-2.37-1.86-4.62-3.87-6.83-5.93c-3.19-2.98-6.26-6.07-9.28-9.23
				c-1.98-2.07-3.93-4.16-5.83-6.3c-0.83-0.94-1.71-1.84-2.62-2.7c-1.63-1.55-3.38-2.96-5.28-4.17c-0.83-0.53-1.7-0.99-2.6-1.4
				h25.43l39.94,66.74H261.37L261.39,494.26z M301.3,427.52h14.76c-2.85,2.47-5.8,4.82-8.92,6.96c-0.28,0.19-0.57,0.37-0.87,0.55
				c-1.67,1-3.25,2.11-4.79,3.29c-2.52,1.91-4.92,3.96-7.27,6.06c-2.34,2.1-4.62,4.27-6.87,6.47L301.3,427.52L301.3,427.52z
				 M405.13,418.48c0.56,0.26,1.12,0.5,1.69,0.72c0.65,0.25,1.28,0.55,1.9,0.88c1.72,0.92,3.33,2.02,4.88,3.22
				c2.56,1.98,4.88,4.22,7.03,6.64c3.27,3.69,6.64,7.28,10.08,10.82c1.41,1.45,2.82,2.89,4.26,4.32c3.63,3.61,7.34,7.14,11.2,10.5
				c0.24,0.21,0.48,0.42,0.72,0.63c0.05,0.04,0.1,0.1,0.15,0.14c0,0.02-0.02,0.05-0.02,0.07c-0.12,0-0.23,0-0.35,0h-18.44
				c0,0-0.05,0-0.07,0c-0.22,0.03-0.38-0.06-0.55-0.19c-0.42-0.33-0.84-0.65-1.26-0.97c-2.63-2.05-5.16-4.22-7.64-6.45
				c-2.85-2.56-5.63-5.19-8.37-7.87c-5.97-5.85-11.75-11.89-17.37-18.07c-0.98-1.08-1.93-2.17-2.93-3.23
				c-2.17-2.3-4.49-4.44-6.98-6.39c-0.09-0.07-0.18-0.15-0.28-0.24c0.06-0.06,0.09-0.1,0.14-0.13c1.21-0.85,2.48-1.6,3.87-2.14
				c0.77-0.3,1.57-0.52,2.39-0.63c1.47-0.2,2.87,0.04,4.19,0.73c0.63,0.33,1.22,0.73,1.76,1.19c1.43,1.21,2.94,2.3,4.5,3.34
				c1.77,1.17,3.59,2.24,5.52,3.13L405.13,418.48z M481.23,431.02c0.29,0.13,0.58,0.26,0.88,0.37c0.74,0.27,1.42,0.63,2.09,1.03
				c1.79,1.06,3.41,2.34,4.93,3.75c0.97,0.9,1.9,1.85,2.77,2.84c1.77,2,3.58,3.97,5.43,5.89c1.66,1.73,3.34,3.45,5.03,5.15
				c2.04,2.06,4.14,4.05,6.28,6c0.1,0.09,0.22,0.17,0.29,0.31c-0.05,0.02-0.08,0.04-0.11,0.04c-0.11,0-0.21,0-0.32,0
				c-3.38,0-6.76,0-10.14,0c-0.01,0-0.02,0-0.04,0c-0.26,0.03-0.47-0.06-0.67-0.23c-1.98-1.61-3.9-3.3-5.78-5.03
				c-1.83-1.69-3.63-3.42-5.4-5.17c-3.91-3.87-7.7-7.85-11.39-11.92c-0.78-0.86-1.55-1.73-2.35-2.56c-1.82-1.88-3.79-3.59-5.94-5.1
				c-0.09-0.06-0.17-0.13-0.27-0.2c0.03-0.04,0.05-0.09,0.09-0.11c0.9-0.56,1.84-1.01,2.89-1.23c1.04-0.22,2.02-0.06,2.93,0.49
				c0.37,0.22,0.7,0.48,1.03,0.75c2.39,1.95,4.95,3.64,7.77,4.91L481.23,431.02z M466.99,432.42c1.43,1.24,2.77,2.58,4.03,3.99
				c2.72,3.07,5.53,6.06,8.39,9c2.56,2.64,5.17,5.23,7.85,7.74c1.07,1,2.16,1.98,3.24,2.97c0.08,0.07,0.15,0.14,0.27,0.25
				c-0.08,0.03-0.11,0.04-0.14,0.04c-0.11,0-0.21,0-0.32,0c-4.8,0-9.6,0-14.4,0c-0.06,0-0.12,0-0.18,0
				c-0.19,0.03-0.34-0.05-0.48-0.17c-0.98-0.8-1.97-1.59-2.94-2.4c-2.78-2.34-5.45-4.8-8.06-7.32c-1.52-1.47-3.04-2.95-4.53-4.45
				c-3.91-3.93-7.73-7.95-11.45-12.06c-0.82-0.9-1.63-1.81-2.46-2.7c-1.36-1.44-2.8-2.78-4.32-4.04c-0.07-0.06-0.14-0.12-0.21-0.19
				c-0.02-0.02-0.02-0.04-0.05-0.08c0.03-0.02,0.07-0.05,0.11-0.08c0.99-0.72,2.02-1.36,3.16-1.81c0.73-0.29,1.48-0.49,2.27-0.53
				c0.85-0.05,1.64,0.14,2.39,0.53c0.49,0.26,0.95,0.58,1.37,0.94c2.29,1.91,4.75,3.55,7.41,4.9c0.74,0.38,1.49,0.72,2.27,1.01
				c0.73,0.28,1.42,0.64,2.1,1.03c1.68,0.98,3.23,2.14,4.7,3.42L466.99,432.42z M444.09,432.24c2.1,2.37,4.26,4.69,6.43,7
				c1.97,2.09,3.97,4.15,6,6.18c3.45,3.46,6.97,6.84,10.63,10.07c0.27,0.24,0.55,0.48,0.83,0.72c0.05,0.04,0.09,0.1,0.15,0.16
				c-0.06,0.02-0.09,0.04-0.12,0.05c-0.11,0-0.21,0-0.32,0c-4.29,0-8.58,0-12.87,0c-0.02,0-0.05,0-0.07,0
				c-0.22,0.03-0.41-0.05-0.58-0.19c-0.97-0.79-1.96-1.56-2.92-2.36c-3.16-2.64-6.19-5.42-9.15-8.27c-1.6-1.54-3.19-3.1-4.76-4.67
				c-4.21-4.22-8.31-8.54-12.31-12.95c-0.92-1.02-1.83-2.05-2.77-3.04c-2.38-2.48-4.95-4.74-7.78-6.7c-1.33-0.93-2.71-1.77-4.16-2.5
				c-0.07-0.04-0.14-0.08-0.24-0.13c0.04-0.04,0.06-0.09,0.09-0.11c1.22-0.76,2.51-1.37,3.92-1.69c0.71-0.16,1.42-0.22,2.15-0.17
				c0.87,0.07,1.69,0.34,2.45,0.76c0.58,0.32,1.11,0.71,1.62,1.14c2.89,2.37,5.99,4.42,9.38,6.01c0.47,0.22,0.95,0.43,1.43,0.61
				c0.84,0.32,1.64,0.72,2.42,1.17c1.78,1.02,3.43,2.22,5.01,3.53c1.99,1.65,3.82,3.46,5.53,5.39L444.09,432.24z M385.15,421.24
				c1.3,1.28,2.53,2.62,3.74,3.98c1.35,1.52,2.73,3.01,4.11,4.51c2.46,2.66,4.97,5.29,7.5,7.89c4.53,4.65,9.16,9.2,13.96,13.56
				c1.85,1.68,3.72,3.32,5.63,4.93c0.09,0.08,0.18,0.15,0.32,0.28c-0.12,0.02-0.16,0.03-0.2,0.03c-43.94,0-87.89,0-131.82,0
				c-0.05-0.13,0.04-0.17,0.09-0.22c0.61-0.61,1.22-1.22,1.83-1.83c1.97-1.94,3.97-3.85,6.02-5.71c2.48-2.25,5-4.44,7.66-6.48
				c1.61-1.23,3.26-2.39,5-3.42c0.5-0.29,0.97-0.63,1.44-0.96c4.19-2.92,8.16-6.1,11.87-9.61c2.12-2.01,4.13-4.12,5.98-6.4
				c0.12-0.15,0.24-0.3,0.34-0.46c1.54-2.49,3.26-4.84,5.1-7.11c1.48-1.82,3.04-3.56,4.71-5.21c1.74-1.71,3.57-3.31,5.6-4.68
				c1.32-0.89,2.69-1.66,4.18-2.24c1.01-0.39,2.04-0.67,3.12-0.8c1.88-0.23,3.65,0.12,5.31,1.03c0.72,0.39,1.39,0.85,2.01,1.38
				c1.47,1.25,3.03,2.39,4.62,3.47c1.86,1.26,3.78,2.42,5.79,3.43c1.06,0.53,2.14,1.01,3.24,1.43c0.73,0.28,1.43,0.63,2.11,1
				c1.85,1,3.6,2.18,5.27,3.46c1.92,1.46,3.73,3.06,5.45,4.75L385.15,421.24z M355.37,502.94c7.37,5.47,14.83,8.57,21.27,10.29
				c-5.11,1.54-38.33,10.3-66.72-10.29L355.37,502.94L355.37,502.94z M400.67,529.9c0,0,3.16-16.52,4.99-26.95l0,0
				c1.83,10.43,4.99,26.95,4.99,26.95c1.94,8.06-4.92,15.32-5,15.4c-0.08-0.08-6.94-7.35-5-15.4H400.67z M456.01,502.94h45.45
				c-28.39,20.58-61.61,11.82-66.72,10.29C441.18,511.51,448.64,508.41,456.01,502.94L456.01,502.94z M571.65,340.11
				c-0.39-0.56-0.55-1.21-0.45-1.8c0.04-0.26,0.19-0.59,0.48-0.85c0.14,0.1,0.27,0.24,0.41,0.32c1.75,1,2.89,2.5,4.01,3.99
				c0.09,0.56,0.14,1.13,0,1.72c-2.56-0.41-4.43-3.32-4.47-3.38H571.65z M535.94,260.58c-0.63,0.7-1.88,0.59-2.8-0.24
				c-0.03-0.02-2.42-2.08-2.69-4.53c0.06-0.09,0.12-0.17,0.15-0.27c2.61-0.11,4.79,2.24,4.86,2.31
				C536.35,258.66,536.57,259.89,535.94,260.58L535.94,260.58z M532.15,247.5l5.12-1.74l0,0l0,0l-1.25,5.26l-4.08,0.59l0,0l0,0
				l0.21-4.12V247.5z M522.65,248.49c0.28-0.31,0.68-0.46,1.12-0.46c0.55,0,1.17,0.24,1.71,0.72c0.03,0.02,2.4,1.89,2.66,4.41
				c-0.34-0.02-0.63,0.07-0.87,0.25c-2.2-0.36-4.1-2.14-4.14-2.19C522.24,250.41,522.02,249.18,522.65,248.49z M411.97,186.82
				c0.38,0,0.53,0.02,0.54,0.02c1.21,0,2.19,0.76,2.2,1.7c0,0.94-0.98,1.71-2.23,1.71c-0.03,0-3.5,0.15-5.3-1.71
				c1.42-1.53,3.76-1.71,4.8-1.71L411.97,186.82z M405.7,176.7L405.7,176.7L405.7,176.7l2.62,4.73l-2.61,3.19l0,0l0,0l-2.62-3.18
				l2.61-4.73V176.7z M398.92,190.26L398.92,190.26c-0.68,0-1.31-0.24-1.73-0.66c-0.21-0.21-0.46-0.56-0.46-1.04
				s0.25-0.83,0.46-1.04c0.42-0.42,1.05-0.67,1.81-0.67c0.04,0,3.41-0.31,5.26,1.69c-1.8,1.87-5.26,1.73-5.33,1.72L398.92,190.26z
				 M404.55,221.78c0,0,3.66-5.81,5.33-12.85c2.44,15.6-0.63,27.23-1.76,30.77l-2.44-4.08l-8,13.39
				C397.21,243.96,397.35,233.3,404.55,221.78L404.55,221.78z M285.96,248.7c0.5-0.46,1.12-0.73,1.73-0.67
				c0.29,0.01,0.72,0.1,1.04,0.46c0.32,0.35,0.37,0.78,0.36,1.08c-0.03,0.59-0.33,1.2-0.86,1.68c-0.03,0.02-2.31,2.3-4.81,2.3
				c-0.09,0-0.17,0-0.26,0c0.02-2.71,2.73-4.77,2.81-4.84L285.96,248.7z M274.11,245.76L274.11,245.76L274.11,245.76l5.12,1.74
				l0.21,4.12l0,0l0,0l-4.08-0.59l-1.25-5.26V245.76z M276.48,261.03c-0.29-0.01-0.72-0.1-1.04-0.46s-0.37-0.78-0.36-1.08
				c0.03-0.59,0.33-1.2,0.88-1.71c0.02-0.03,2.13-2.3,4.68-2.3c0.11,0,0.24,0,0.35,0.02c-0.08,2.59-2.73,4.81-2.79,4.86
				c-0.5,0.46-1.13,0.74-1.73,0.67L276.48,261.03z M239.71,340.14c0,0-1.88,2.94-4.44,3.35c-0.12-0.55-0.06-1.08,0-1.61
				c1.15-1.53,2.31-3.08,4.1-4.1c0.13-0.07,0.24-0.2,0.36-0.28c0.25,0.25,0.43,0.58,0.47,0.99c0.05,0.55-0.12,1.12-0.49,1.66V340.14
				z M208.58,414.76c0.31-0.96,0.57-1.92,0.76-2.9c0.38-0.45,0.8-0.75,1.26-0.75c1.93,0,4.27-1.38,5.79-2.34
				c1.38-0.96,1.93-1.93,5.79-3.45c3.72-1.38,3.72-4.69,7.17-10.89c3.31-6.34,1.93-18.2,1.93-18.2c-0.4,1.31-3.58,4.21-6.55,6.44
				c0.05-2.78-0.46-6.03-0.81-7.52c-0.41-2.35,0-5.79,0-5.79c-8.55,4.42-9.52,12.55-13.38,16.82c-0.01,0.02-0.02,0.04-0.04,0.05
				c1.08-9.07,2.67-18.49,4.87-27.39v0.03c0.42-1.38,3.31-2.89,6.76-3.86c1.45-0.42,3.26-2.12,5.04-4.04c0,0.02,0,0.04,0,0.06
				c0.08,0.95,0.52,1.75,1.24,2.26c0.49,0.35,1.07,0.52,1.67,0.52c0.29,0,0.58-0.04,0.88-0.12c0.46-0.12,0.89-0.35,1.27-0.64
				l-0.79,4.93c0,0-0.71,2.09,3.35,2.95c-0.95,10.32-6.82,85.68,18.39,129.67l-1.74,2.92c-2.1-1.82-6.45-7.92-7.36-9.74
				c0,0,0.55,3.86-0.97,5.79c-1.2,1.68-1.77,5.56-1.9,8.35c-0.53-2.41-1.22-4.53-0.86-6.43c0.41-2.89,1.38-4.82,0.83-10.06
				c-0.42-5.24-1.79-11.44-1.79-11.44c-0.55,5.24-4.42,5.24-6.34,10.47c-1.38,4.14-1.79,3.87-4.27,7.73
				c-1.49,2.35-2.14,4.58-2.3,6.63c-2.18-6.25-4.21-12.54-6.05-18.71c0.53-0.88,0.88-3.93,1.16-7.51c2.17-2,4.27-2.17,5.16-3.45
				c0.96-1.52,0.55-3.31,1.52-5.24s3.03-5.1,3.31-6.76c0.97-5.24,3.86-11.03,1.38-16.68c0,0-1.23,0.42-2.65,0.96
				c0.2-1.21,0.4-2.27,0.7-2.87c0.83-1.93,0.41-14.89-0.96-18.2c0,0-3.86,2.89-5.79,5.24c-1.93,2.34-5.24,3.31-6.21,6.2
				c-0.97,2.9-2.9,2.9-4.27,5.79c-1.06,2.02-2,4.92-2.18,7.79c-1.8-8.69-2.85-15.63-2.97-19.52c-0.05-2.16-0.06-4.56-0.03-7.11
				L208.58,414.76z M425.13,613.46c-6.35,0.11-10.83,2.26-12.35,3.11c-0.05-0.13-0.11-0.26-0.17-0.39
				c2.01-3.32,10.9-17.79,16.82-24.55C430.29,593.68,433.59,603.33,425.13,613.46z M399.42,616.57c-1.53-0.86-6-3-12.35-3.11
				c-8.46-10.13-5.16-19.77-4.3-21.83c5.92,6.76,14.79,21.21,16.81,24.54c-0.06,0.13-0.11,0.26-0.17,0.39L399.42,616.57z
				 M547.1,556.05c0.33-0.57,0.54-1.06,0.59-1.41c0.41-2.2,2.48-6.75,1.93-9.1c-0.42-2.34-1.38-8.14-2.9-11.44
				c-1.38-3.45-4.69-11.44-8.14-12.96c0,0-2.76,9.1-3.72,12.41c-0.97,3.45-1.93,7.31-3.45,9.1c-0.44,0.61-1.24,1.99-2.12,3.64
				c-0.21-1.38-0.16-1.32,0.18-6.39c0.55-6.34-9.52-16.27-9.52-16.27c0.97,2.76-2.9,13.79-4.83,16.27
				c-1.93,2.34-4.83,9.51-5.24,13.78c-0.41,4.42-2.35,7.17-3.86,9.1c-2.86,3.9,0.33,20.25,0.71,22.12
				c-6.41,3.97-13.09,7.82-19.32,10.96c-1.86,0.92-3.98,1.87-6.27,2.83c0.42-0.41,0.86-0.74,1.28-1.18
				c8.83-9.38,8.37-12.48,9.52-14.75c2.98-0.52-4.01-1.28-8.08-0.91c2.37-3.6,5.66-8.54,7.95-12.76c1.79-3.44-15.45,1.1-15.45,1.1
				c-1.87,0.75-3.36,1.32-4.59,1.78c1.43-5.18,2.93-10.89,2.78-12.09c-0.14-1.38-7.31,0.97-13.1,3.45
				c-4.97,2.07-7.86,6.07-12.14,8.69c-5.11,3.31-5.8,11.58-8.14,15.44c-1.57,2.68-2.47,4.72-3.01,6.44
				c-0.48-3.87-1.93-5.67-3.41-6.42c0,0-0.02-0.01-0.03-0.02c-0.07-0.03-0.14-0.07-0.21-0.1c-0.07-0.03-0.16-0.06-0.26-0.09
				c-0.33-0.12-0.65-0.21-0.96-0.26c-1.1-0.24-2.89-0.52-5.71-0.83c-3.86-0.41-10.07,0-12.97,5.38c-2.75,4.97-5.23,17.34-6.31,20.24
				c-0.71-0.28-1.45-0.48-2.24-0.48s-1.52,0.2-2.23,0.48c-1.07-2.91-3.56-15.27-6.31-20.24c-2.9-5.38-9.11-5.79-12.97-5.38
				c-2.82,0.31-4.61,0.59-5.71,0.83c-0.31,0.05-0.63,0.14-0.96,0.26c-0.1,0.03-0.19,0.06-0.26,0.1c-0.07,0.03-0.14,0.07-0.2,0.1
				c0,0-0.02,0.01-0.03,0.02c-1.76,0.9-3.49,3.27-3.56,8.91c-0.3-2.2-1.17-4.84-3.57-8.93c-2.34-3.86-3.03-12.13-8.14-15.44
				c-4.27-2.62-7.17-6.62-12.14-8.69c-5.79-2.48-12.97-4.82-13.1-3.45c-0.14,1.2,1.35,6.91,2.78,12.09
				c-1.23-0.46-2.72-1.03-4.59-1.78c0,0-17.24-4.55-15.45-1.1c2.29,4.22,5.57,9.15,7.95,12.76c-4.06-0.37-11.06,0.39-8.08,0.91
				c1.14,2.28,0.69,5.38,9.52,14.75c0.42,0.44,0.85,0.78,1.28,1.18c-2.29-0.96-4.41-1.91-6.27-2.83
				c-6.23-3.14-12.91-6.99-19.32-10.96c0.38-1.87,3.57-18.23,0.71-22.12c-1.52-1.93-3.45-4.69-3.86-9.1
				c-0.42-4.27-3.31-11.44-5.24-13.78c-1.93-2.48-5.79-13.51-4.83-16.27c0,0-10.07,9.93-9.52,16.27c0.34,5.07,0.39,5.01,0.18,6.39
				c-0.88-1.65-1.68-3.03-2.12-3.64c-1.52-1.79-2.48-5.65-3.45-9.1c-0.97-3.31-3.72-12.41-3.72-12.41
				c-3.45,1.52-6.76,9.51-8.14,12.96c-1.51,3.31-2.48,9.1-2.9,11.44c-0.55,2.35,1.52,6.9,1.93,9.1c0.05,0.35,0.27,0.84,0.59,1.41
				c-7.13-5.4-13.09-10.67-18.88-19.27c0.51-2.33,1.03-4.12,2.03-5.03c1.38-1.52,6.21-7.31,7.17-11.03c0.97-3.86,0-6.76,0-8.69
				c0-1.93,1.38-8.55,1.38-8.55s-0.07-0.23-0.17-0.55h8.03c14.31,10.55,65.77,43.02,126.3,16.59c-0.34,0.99-0.66,1.77-0.96,2.16
				c0,0-13,17.64,16.39,23.62l0,0c0,0,0,0,0.01,0c0,0,0,0,0.01,0l0,0c29.39-5.98,16.39-23.62,16.39-23.62
				c-0.3-0.39-0.63-1.17-0.97-2.17c60.55,26.46,112.03-6.02,126.35-16.57h8.12c-0.1,0.32-0.17,0.55-0.17,0.55s1.38,6.62,1.38,8.55
				c0,1.93-0.97,4.83,0,8.69c0.96,3.72,5.79,9.51,7.17,11.03c1,0.91,1.51,2.7,2.03,5.03c-5.79,8.6-11.76,13.87-18.88,19.27
				L547.1,556.05z"/>
			<path class="st0" d="M500.22,572.57c-1.66,0-2.9,1.24-2.9,2.76c0,1.66,1.24,2.9,2.9,2.9c1.52,0,2.9-1.24,2.9-2.9
				C503.12,573.81,501.74,572.57,500.22,572.57z"/>
			<path class="st0" d="M516.48,592.55c-1.65,0-2.89,1.38-2.89,2.9c0,1.66,1.24,2.89,2.89,2.89c1.52,0,2.9-1.24,2.9-2.89
				C519.39,593.93,518.01,592.55,516.48,592.55z"/>
			<path class="st0" d="M554.29,529.41c-1.52,0-2.9,1.24-2.9,2.9c0,1.52,1.38,2.89,2.9,2.89c1.65,0,2.9-1.38,2.9-2.89
				C557.2,530.65,555.96,529.41,554.29,529.41z"/>
			<path class="st0" d="M574.58,543.74c0,1.79,1.52,3.18,3.17,3.18c1.79,0,3.17-1.38,3.17-3.18c0-1.65-1.38-3.17-3.17-3.17
				C576.09,540.58,574.58,542.1,574.58,543.74z"/>
			<path class="st0" d="M582.02,476.07c1.79,0,3.17-1.37,3.17-3.17c0-1.66-1.38-3.17-3.17-3.17c-1.66,0-3.17,1.51-3.17,3.17
				C578.85,474.68,580.36,476.07,582.02,476.07z"/>
			<path class="st0" d="M591.67,412.37c-1.79,0-3.17,1.38-3.17,3.17c0,1.65,1.38,3.17,3.17,3.17s3.17-1.52,3.17-3.17
				C594.84,413.75,593.46,412.37,591.67,412.37z"/>
			<path class="st0" d="M609.32,360.65c1.79,0,3.17-1.38,3.17-3.03c0-1.79-1.38-3.17-3.17-3.17c-1.66,0-3.17,1.38-3.17,3.17
				C606.15,359.27,607.67,360.65,609.32,360.65z"/>
			<path class="st0" d="M586.85,366.43c1.79,0,3.18-1.38,3.17-3.17c0-1.65-1.38-3.17-3.17-3.17s-3.17,1.52-3.17,3.17
				C583.68,365.05,585.06,366.43,586.85,366.43z"/>
			<path class="st0" d="M567.96,314.9c0-1.66-1.38-3.03-3.17-3.03c-1.66,0-3.17,1.38-3.17,3.03c0,1.79,1.52,3.17,3.17,3.17
				C566.58,318.08,567.96,316.7,567.96,314.9z"/>
			<path class="st0" d="M581.6,304.7c1.79,0,3.17-1.38,3.17-3.17c0-1.65-1.38-3.17-3.17-3.17s-3.17,1.52-3.17,3.17
				C578.43,303.32,579.81,304.7,581.6,304.7z"/>
			<path class="st0" d="M613.34,416.1c0,1.65,1.38,3.03,3.17,3.03c1.66,0,3.03-1.38,3.03-3.03s-1.38-3.04-3.03-3.04
				C614.72,413.05,613.34,414.43,613.34,416.1z"/>
			<path class="st0" d="M311.27,572.57c-1.52,0-2.9,1.24-2.9,2.76c0,1.66,1.38,2.9,2.9,2.9c1.66,0,2.9-1.24,2.9-2.9
				C314.17,573.81,312.93,572.57,311.27,572.57z"/>
			<path class="st0" d="M297.88,595.45c0-1.52-1.24-2.9-2.89-2.9c-1.52,0-2.9,1.38-2.9,2.9c0,1.66,1.38,2.89,2.9,2.89
				C296.63,598.34,297.88,597.1,297.88,595.45z"/>
			<path class="st0" d="M257.18,529.41c-1.65,0-2.9,1.24-2.9,2.9c0,1.52,1.24,2.89,2.9,2.89c1.52,0,2.9-1.38,2.9-2.89
				C260.08,530.65,258.7,529.41,257.18,529.41z"/>
			<path class="st0" d="M233.73,546.93c1.65,0,3.17-1.38,3.17-3.18c0-1.65-1.52-3.17-3.17-3.17c-1.79,0-3.17,1.52-3.17,3.17
				C230.56,545.54,231.94,546.93,233.73,546.93z"/>
			<path class="st0" d="M229.47,469.73c-1.79,0-3.17,1.51-3.17,3.17c0,1.8,1.38,3.17,3.17,3.17c1.66,0,3.17-1.37,3.17-3.17
				C232.64,471.24,231.13,469.73,229.47,469.73z"/>
			<path class="st0" d="M212.9,478.68c0-1.79-1.38-3.17-3.17-3.17c-1.65,0-3.17,1.38-3.17,3.17s1.52,3.17,3.17,3.17
				C211.53,481.85,212.9,480.47,212.9,478.68z"/>
			<path class="st0" d="M219.8,418.71c1.79,0,3.17-1.52,3.17-3.17c0-1.79-1.38-3.17-3.17-3.17s-3.17,1.38-3.17,3.17
				C216.63,417.2,218.01,418.71,219.8,418.71z"/>
			<path class="st0" d="M202.16,360.65c1.65,0,3.17-1.38,3.17-3.03c0-1.79-1.51-3.17-3.17-3.17c-1.79,0-3.17,1.38-3.17,3.17
				C198.99,359.29,200.37,360.65,202.16,360.65z"/>
			<path class="st0" d="M224.64,360.1c-1.79,0-3.17,1.52-3.17,3.17c0,1.79,1.38,3.17,3.17,3.17s3.17-1.38,3.17-3.17
				C227.81,361.62,226.43,360.1,224.64,360.1z"/>
			<path class="st0" d="M243.53,314.9c0,1.79,1.38,3.17,3.17,3.17c1.66,0,3.17-1.38,3.17-3.17c0-1.66-1.52-3.03-3.17-3.03
				C244.91,311.88,243.53,313.26,243.53,314.9z"/>
			<path class="st0" d="M229.88,304.7c1.79,0,3.17-1.38,3.17-3.17c0-1.65-1.38-3.17-3.17-3.17s-3.17,1.52-3.17,3.17
				C226.71,303.32,228.09,304.7,229.88,304.7z"/>
			<path class="st0" d="M198.15,416.1c0-1.66-1.38-3.04-3.17-3.04c-1.66,0-3.03,1.38-3.03,3.04s1.38,3.03,3.03,3.03
				C196.77,419.12,198.15,417.74,198.15,416.1z"/>
			<path class="st0" d="M395.21,399.81l0.92,0.2l6.33-26.14c-0.31-0.05-0.64-0.03-0.94-0.1l-6.26,25.81L395.21,399.81z"/>
			<path class="st0" d="M394.3,388.61l0.89,0.32l5.3-15.48c-0.31-0.08-0.6-0.18-0.9-0.28l-5.21,15.23l-0.08,0.22L394.3,388.61z"/>
			<path class="st0" d="M385.27,398.15l0.84,0.4l12.25-25.76c-0.29-0.12-0.58-0.24-0.87-0.37l-12.13,25.51l-0.1,0.21L385.27,398.15z
				"/>
			<path class="st0" d="M383.34,393.85l13.29-21.9c-0.28-0.15-0.56-0.29-0.83-0.45l-13.26,21.87l0.81,0.49L383.34,393.85z"/>
			<path class="st0" d="M375.15,394.21L375,394.4l0.74,0.58l18.9-24.12c-0.26-0.18-0.47-0.41-0.72-0.59l-18.77,23.95V394.21z"/>
			<path class="st0" d="M376.4,388.27l16.71-18.58l0.05-0.06c-0.24-0.2-0.5-0.39-0.73-0.6l-16.73,18.61L376.4,388.27L376.4,388.27z"
				/>
			<path class="st0" d="M391.67,368.33c-0.22-0.23-0.39-0.49-0.6-0.73l-24.75,21.81l0.63,0.71l24.65-21.72L391.67,368.33
				L391.67,368.33z"/>
			<path class="st0" d="M390.3,366.68L390.3,366.68c-0.2-0.25-0.43-0.48-0.61-0.74l-13.07,9.22l-0.19,0.14l0.55,0.77L390.3,366.68
				L390.3,366.68z"/>
			<path class="st0" d="M389.14,365.03c-0.16-0.27-0.3-0.55-0.45-0.82l-9.15,5.1l0.45,0.82L389.14,365.03L389.14,365.03z"/>
			<path class="st0" d="M378.21,366.73l0.38,0.86l9.66-4.21c-0.14-0.28-0.33-0.54-0.45-0.83l-9.58,4.18H378.21z"/>
			<polygon class="st0" points="377.1,363.82 377.4,364.71 387.2,361.56 387.42,361.49 387.12,360.59 			"/>
			<path class="st0" d="M386.86,359.57c-0.07-0.3-0.17-0.6-0.23-0.91l-10.29,2.25l0.2,0.92l10.31-2.27L386.86,359.57z"/>
			<path class="st0" d="M375.81,357.8l0.11,0.93l10.6-1.13c-0.04-0.31-0.07-0.62-0.09-0.94l-10.61,1.13L375.81,357.8z"/>
			<path class="st0" d="M375.64,355.62l10.66-0.1c0-0.16-0.05-0.3-0.05-0.46s0.04-0.32,0.05-0.48l-10.67,0.11v0.94L375.64,355.62z"
				/>
			<path class="st0" d="M375.82,352.74l10.4,0.9l0.19,0.02c0.02-0.32,0.06-0.63,0.09-0.94l-10.36-0.89l-0.23-0.02L375.82,352.74
				L375.82,352.74z"/>
			<path class="st0" d="M376.12,349.4l10.48,2.28c0.06-0.31,0.12-0.61,0.19-0.91l-10.48-2.28l-0.19,0.92V349.4z"/>
			<path class="st0" d="M376.98,346.6l9.93,3.27l0.14,0.05c0.09-0.3,0.18-0.6,0.28-0.9l-10.05-3.3l-0.29,0.89L376.98,346.6z"/>
			<path class="st0" d="M378.24,342.84l-0.38,0.86l9.82,4.18c0.12-0.29,0.27-0.56,0.4-0.85l-9.63-4.1L378.24,342.84L378.24,342.84z"
				/>
			<path class="st0" d="M379.2,340.9l9.34,5.07l0.09,0.05c0.15-0.28,0.29-0.56,0.45-0.83l-9.43-5.12L379.2,340.9z"/>
			<path class="st0" d="M380.99,338.33l8.52,6.07c0.18-0.26,0.41-0.48,0.6-0.73l-8.56-6.12l-0.55,0.77L380.99,338.33z"/>
			<path class="st0" d="M383.64,335.14l-0.61,0.72l7.82,6.76l0.07,0.06c0.2-0.24,0.38-0.5,0.6-0.72l-7.7-6.67L383.64,335.14
				L383.64,335.14z"/>
			<path class="st0" d="M385.85,333.01l-0.68,0.65l7.16,7.5c0.23-0.21,0.48-0.39,0.72-0.6l-7.04-7.39l-0.16-0.17V333.01z"/>
			<path class="st0" d="M388.24,331.1l-0.73,0.59l6.48,8.11c0.25-0.19,0.47-0.42,0.73-0.59l-6.33-7.93L388.24,331.1L388.24,331.1z"
				/>
			<path class="st0" d="M391.22,329.38l-0.81,0.46l5.12,8.82l0.04,0.07c0.27-0.16,0.55-0.3,0.82-0.45l-5.05-8.72l-0.11-0.2
				L391.22,329.38z"/>
			<path class="st0" d="M393.89,328.18l-0.85,0.4l4.27,9.22c0.29-0.13,0.56-0.29,0.85-0.41l-4.17-9L393.89,328.18L393.89,328.18z"/>
			<path class="st0" d="M396.89,327.12l-0.88,0.3l3.35,9.59c0.3-0.1,0.59-0.19,0.9-0.28l-3.29-9.4l-0.07-0.22L396.89,327.12z"/>
			<path class="st0" d="M400.02,326.18l-0.92,0.19l2.09,10.07l0,0c0.3-0.06,0.62-0.1,0.92-0.15l-2.05-9.89l-0.05-0.23L400.02,326.18
				z"/>
			<path class="st0" d="M403.34,336.17c0.31-0.03,0.62-0.08,0.93-0.09l-1.02-10.28l-0.93,0.08L403.34,336.17L403.34,336.17z"/>
			<path class="st0" d="M406.04,325.7h-0.94l0.11,10.28c0.05,0,0.1-0.02,0.15-0.02c0.27,0,0.52,0.07,0.79,0.08l-0.11-10.12v-0.23
				V325.7z"/>
			<path class="st0" d="M407.1,336.01v0.13c0.3,0.03,0.61,0.05,0.92,0.09l0.99-10.38l-0.93-0.09L407.1,336.01z"/>
			<path class="st0" d="M409.86,336.56l0.2,0.04l2.05-10.25l-0.92-0.18l-2.03,10.18C409.39,336.4,409.61,336.5,409.86,336.56z"/>
			<path class="st0" d="M415.09,327.4l-0.89-0.3l-3.24,9.57l-0.07,0.2c0.3,0.09,0.61,0.17,0.9,0.28l3.22-9.53L415.09,327.4
				L415.09,327.4z"/>
			<path class="st0" d="M417.95,328.54l-0.86-0.38l-4.14,9.24l-0.06,0.13c0.29,0.13,0.55,0.31,0.83,0.45l4.13-9.22L417.95,328.54z"
				/>
			<polygon class="st0" points="419.65,329.34 414.72,338.12 414.61,338.33 415.43,338.79 420.47,329.8 			"/>
			<path class="st0" d="M416.21,339.24l-0.06,0.08c0.26,0.18,0.48,0.41,0.73,0.6l6.25-8.1l0.14-0.19l-0.75-0.57L416.21,339.24
				L416.21,339.24z"/>
			<polygon class="st0" points="417.8,340.59 418.49,341.23 425.36,333.76 425.52,333.59 424.82,332.96 			"/>
			
				<rect x="418.23" y="338.44" transform="matrix(0.7448 -0.6673 0.6673 0.7448 -118.0985 369.0348)" class="st0" width="10.33" height="0.94"/>
			<path class="st0" d="M420.76,343.55l-0.16,0.12c0.19,0.25,0.42,0.46,0.6,0.72l8.13-6.02l0.19-0.14l-0.55-0.76l-8.2,6.07
				L420.76,343.55z"/>
			<path class="st0" d="M421.8,345.05l-0.19,0.1c0.16,0.27,0.3,0.55,0.45,0.83l8.98-5.05l0.2-0.11l-0.47-0.82L421.8,345.05
				L421.8,345.05z"/>
			<path class="st0" d="M422.71,346.9l-0.13,0.06c0.13,0.28,0.3,0.55,0.42,0.84l9.31-4.1l0.21-0.09l-0.39-0.85L422.71,346.9
				L422.71,346.9z"/>
			<path class="st0" d="M423.35,348.9c0.1,0.3,0.19,0.6,0.28,0.9l9.53-3.25l0.22-0.08l-0.32-0.89l-9.71,3.31V348.9z"/>
			<path class="st0" d="M423.88,350.62c0.07,0.31,0.16,0.6,0.21,0.91l10.12-2.28l-0.22-0.91l-10.12,2.27L423.88,350.62z"/>
			<path class="st0" d="M424.2,352.58c0.04,0.31,0.07,0.62,0.09,0.93l9.96-0.89l0.24-0.02l-0.09-0.93l-10.2,0.92L424.2,352.58z"/>
			<path class="st0" d="M424.45,355.06c0,0.11-0.03,0.2-0.03,0.31l10.23,0.11l0.02-0.93l-10.28-0.11c0,0.21,0.06,0.41,0.06,0.63
				V355.06z"/>
			<path class="st0" d="M424.1,358.49c-0.06,0.31-0.13,0.62-0.2,0.93l9.87,2.25l0.21-0.92L424.1,358.49L424.1,358.49z"/>
			<path class="st0" d="M434.4,358.57l0.1-0.93l-10.19-1.12c0,0.07-0.02,0.14-0.02,0.21c-0.02,0.24-0.04,0.48-0.07,0.72l9.95,1.09
				l0.24,0.02L434.4,358.57z"/>
			<path class="st0" d="M432.96,364.52l0.3-0.89l-9.45-3.15l-0.22-0.07l-0.03,0.08c-0.08,0.28-0.16,0.55-0.26,0.82l9.42,3.13
				l0.22,0.07L432.96,364.52z"/>
			<path class="st0" d="M422.99,362.37c-0.12,0.29-0.29,0.55-0.43,0.84l9.04,4.07l0.21,0.1l0.39-0.85l-9.22-4.15l0,0L422.99,362.37z
				"/>
			<path class="st0" d="M421.67,364.84l8.57,4.95l0.2,0.12l0.46-0.82l-8.79-5.07c-0.15,0.28-0.29,0.56-0.45,0.83L421.67,364.84z"/>
			<path class="st0" d="M420.57,366.49l12.78,9.34l0.55-0.77l-12.73-9.29C420.98,366.03,420.75,366.24,420.57,366.49L420.57,366.49z
				"/>
			<path class="st0" d="M419.81,367.4c-0.2,0.24-0.38,0.49-0.6,0.72l23.6,21.54l0.17,0.15l0.64-0.7l-23.71-21.61L419.81,367.4
				L419.81,367.4z"/>
			<path class="st0" d="M417.8,369.43l16.09,18.52l0.72-0.6l-16.06-18.51l-0.02-0.02c-0.17,0.16-0.35,0.29-0.53,0.44
				c-0.06,0.06-0.13,0.11-0.2,0.16V369.43z"/>
			<path class="st0" d="M416.34,370.64l18.18,24.01l0.75-0.57l-18.2-24.05c-0.25,0.2-0.48,0.42-0.74,0.61H416.34z"/>
			<path class="st0" d="M414.47,371.74l12.64,21.58l0.12,0.2l0.81-0.47l-12.75-21.76C415.02,371.45,414.74,371.58,414.47,371.74z"/>
			<path class="st0" d="M412.81,372.64L424.45,398l0.1,0.21l0.86-0.39l-11.77-25.62c-0.28,0.14-0.54,0.33-0.83,0.45L412.81,372.64z"
				/>
			<path class="st0" d="M410.76,373.28l5,15.12l0.08,0.22l0.89-0.3L411.65,373C411.36,373.1,411.05,373.19,410.76,373.28z"/>
			<path class="st0" d="M408.87,373.8l6.06,25.88l0.92-0.22l-6.06-25.88C409.48,373.65,409.18,373.74,408.87,373.8z"/>
			<path class="st0" d="M317.88,545.71c0,0-2.94,3.39-1.31,6.27c0,0,2.93,3.72,7.34,0C323.9,551.98,316.82,552.09,317.88,545.71z"/>
			<path class="st0" d="M487.48,551.97c4.4,3.72,7.34,0,7.34,0c1.64-2.88-1.31-6.27-1.31-6.27
				C494.57,552.07,487.48,551.97,487.48,551.97z"/>
			<path class="st0" d="M344.49,542.1l-1.53-0.91l-3.79,6.4l1.53,0.91c1.9,1.13,3.82,0.74,5.05-1.34c1.22-2.07,0.63-3.93-1.27-5.05
				L344.49,542.1z"/>
			<path class="st0" d="M356.9,548.59c-1.81-0.86-3.98-0.09-4.9,1.85c-0.95,2.01-0.19,4.22,1.63,5.07c1.81,0.86,3.99,0.03,4.94-1.97
				C359.5,551.6,358.73,549.45,356.9,548.59z"/>
			<path class="st0" d="M399.93,559.71c-2-0.1-3.71,1.43-3.82,3.56c-0.11,2.21,1.43,3.96,3.43,4.06s3.7-1.48,3.81-3.69
				C403.45,561.51,401.92,559.81,399.93,559.71L399.93,559.71z"/>
			<path class="st0" d="M434.93,560.22l-2.13,0.56l0.86,3.25l2.14-0.56c1.02-0.27,1.46-1.07,1.2-2.04c-0.25-0.97-1.07-1.46-2.07-1.2
				V560.22z"/>
			<path class="st0" d="M435.52,557.34c-0.22-0.83-0.88-1.27-1.8-1.03l-1.96,0.52l0.74,2.84l2-0.52
				C435.36,558.93,435.74,558.18,435.52,557.34z"/>
			<path class="st0" d="M449.08,551.42c-0.3-0.03-0.63,0-1.33,0.29l-1.47,0.59l1.31,3.26l1.83-0.73c0.99-0.4,1.36-1.28,0.95-2.3
				c-0.27-0.67-0.72-1.05-1.28-1.12L449.08,551.42z"/>
			<path class="st0" d="M461.83,546.77l0.52,3.27l2.63-1.43l-2.45-2.22c-0.39-0.36-1-1.05-1-1.05h-0.02
				C461.51,545.34,461.74,546.24,461.83,546.77L461.83,546.77z"/>
			<path class="st0" d="M468.42,541.2l-1.51,0.94l3.94,6.32l1.51-0.94c1.88-1.17,2.42-3.05,1.14-5.11
				C472.23,540.36,470.3,540.04,468.42,541.2L468.42,541.2z"/>
			<g>
				<path class="st0" d="M375.93,368.21l-5.7,2.62l0.95,2.06l-0.76,0.35c-0.12-0.27-0.26-0.52-0.42-0.76s-0.34-0.43-0.55-0.58
					c-0.21-0.16-0.44-0.26-0.7-0.31s-0.55-0.04-0.87,0.05l-0.33-0.73l7.95-3.66l0.44,0.95L375.93,368.21z"/>
				<path class="st0" d="M366.59,364.86l2.56-0.11l0.02-0.03c-0.25-0.14-0.46-0.34-0.63-0.61s-0.29-0.55-0.35-0.84
					c-0.09-0.38-0.11-0.75-0.07-1.11c0.04-0.36,0.16-0.7,0.34-1c0.19-0.31,0.44-0.57,0.78-0.8s0.74-0.4,1.23-0.51
					c0.36-0.08,0.73-0.1,1.09-0.06c0.37,0.05,0.72,0.16,1.04,0.35s0.61,0.45,0.85,0.79c0.24,0.34,0.42,0.75,0.53,1.25
					c0.09,0.37,0.11,0.73,0.08,1.08c-0.04,0.35-0.12,0.67-0.27,0.97s-0.36,0.55-0.63,0.77c-0.27,0.21-0.6,0.37-0.98,0.47l-0.24-1.02
					c0.21-0.07,0.4-0.17,0.57-0.3c0.17-0.14,0.3-0.3,0.41-0.48c0.11-0.19,0.17-0.4,0.2-0.63s0.01-0.47-0.05-0.73
					c-0.06-0.24-0.15-0.46-0.29-0.66s-0.31-0.36-0.51-0.49s-0.45-0.21-0.72-0.24c-0.28-0.04-0.58-0.02-0.92,0.06
					c-0.28,0.06-0.53,0.17-0.74,0.32s-0.39,0.32-0.52,0.53s-0.22,0.44-0.26,0.7s-0.03,0.53,0.04,0.82c0.08,0.34,0.22,0.62,0.43,0.84
					c0.21,0.23,0.46,0.41,0.74,0.56l0.16,0.89l-4.61,0.23l-0.97-4.21l0.9-0.21l0.8,3.44L366.59,364.86z"/>
				<path class="st0" d="M365.65,349.8c-0.32,0.36-0.5,0.85-0.56,1.45c-0.02,0.25-0.02,0.49,0,0.73c0.03,0.24,0.09,0.46,0.19,0.66
					s0.24,0.36,0.42,0.48c0.18,0.13,0.42,0.21,0.71,0.23c0.27,0.02,0.49-0.04,0.68-0.18c0.18-0.14,0.34-0.34,0.47-0.6
					s0.25-0.55,0.35-0.88c0.1-0.33,0.21-0.66,0.32-1c0.12-0.34,0.24-0.67,0.38-1s0.32-0.62,0.53-0.86c0.21-0.25,0.47-0.44,0.77-0.57
					c0.3-0.14,0.67-0.18,1.1-0.14c0.47,0.04,0.86,0.18,1.17,0.42c0.31,0.24,0.56,0.53,0.74,0.88s0.3,0.73,0.35,1.14
					c0.06,0.41,0.07,0.82,0.03,1.22c-0.05,0.49-0.15,0.95-0.31,1.38s-0.38,0.8-0.67,1.1s-0.63,0.54-1.03,0.7
					c-0.41,0.16-0.88,0.21-1.41,0.16l0.1-1.11c0.37,0.04,0.69,0,0.97-0.13c0.28-0.12,0.51-0.29,0.71-0.5
					c0.19-0.22,0.35-0.48,0.46-0.78s0.18-0.62,0.21-0.95c0.03-0.26,0.03-0.53,0-0.8s-0.09-0.52-0.19-0.74s-0.25-0.41-0.44-0.56
					s-0.45-0.24-0.77-0.27c-0.3-0.03-0.55,0.03-0.76,0.17c-0.2,0.14-0.38,0.34-0.52,0.6c-0.14,0.26-0.27,0.55-0.37,0.88
					c-0.11,0.33-0.21,0.66-0.32,1s-0.23,0.68-0.36,1s-0.3,0.62-0.49,0.87s-0.43,0.44-0.71,0.58s-0.62,0.18-1.02,0.15
					c-0.44-0.04-0.82-0.17-1.13-0.38s-0.55-0.47-0.73-0.79c-0.18-0.32-0.3-0.67-0.37-1.06c-0.07-0.39-0.08-0.79-0.05-1.19
					c0.04-0.45,0.13-0.86,0.27-1.24c0.14-0.37,0.34-0.7,0.6-0.97s0.57-0.47,0.93-0.61s0.79-0.19,1.27-0.16l-0.1,1.11
					C366.43,349.24,365.96,349.43,365.65,349.8L365.65,349.8z"/>
				<path class="st0" d="M367.18,338.98l0.94,0.31l-1.52,4.67l2.66,0.87l1.42-4.35l0.94,0.3l-1.42,4.36l2.9,0.94l1.53-4.71
					l0.94,0.31l-1.89,5.82l-8.38-2.72L367.18,338.98L367.18,338.98z"/>
				<path class="st0" d="M370.52,332.82c0.46-0.76,1-1.22,1.63-1.37s1.29-0.02,2,0.41s1.14,0.95,1.29,1.58
					c0.16,0.63,0,1.32-0.46,2.08l-1.39,2.3l3.08,1.86l-0.61,1l-7.54-4.56L370.52,332.82L370.52,332.82z M373.93,335.33
					c0.35-0.57,0.49-1.05,0.41-1.46s-0.35-0.75-0.8-1.02c-0.45-0.27-0.87-0.35-1.27-0.23c-0.39,0.12-0.77,0.47-1.11,1.04l-1.19,1.96
					l2.77,1.67L373.93,335.33L373.93,335.33z"/>
				<path class="st0" d="M373.76,329.71l-0.71-0.68l4.87-5.09l0.71,0.68l-2.03,2.12l5.65,5.41l-0.81,0.85l-5.66-5.41l-2.03,2.12
					H373.76z"/>
				<path class="st0" d="M380.58,321.96l5.39,6.97l-0.93,0.72l-5.39-6.97L380.58,321.96z"/>
				<path class="st0" d="M388.35,317.25l0.47,0.87l-4.31,2.36l1.35,2.46l4.02-2.2l0.47,0.86l-4.02,2.2l1.46,2.67l4.34-2.38
					l0.47,0.87l-5.37,2.94l-4.23-7.73l5.34-2.92L388.35,317.25z"/>
				<path class="st0" d="M392.9,315.56l4.41,6.57l1.01-7.85l1.56-0.37l2.03,8.58l-1.08,0.26l-1.69-7.13h-0.03l-0.99,7.77l-0.97,0.23
					l-4.37-6.5h-0.03l1.69,7.14l-1.08,0.26l-2.03-8.58l1.56-0.37L392.9,315.56z"/>
				<path class="st0" d="M407,313.85c0.19,0.01,0.39,0.02,0.61,0.04c0.22,0.02,0.43,0.04,0.65,0.07c0.21,0.03,0.41,0.07,0.59,0.12
					s0.34,0.12,0.46,0.21c0.28,0.19,0.51,0.44,0.7,0.75s0.27,0.69,0.25,1.14c-0.02,0.47-0.16,0.87-0.4,1.2
					c-0.24,0.33-0.58,0.57-1,0.71v0.02c0.53,0.14,0.94,0.41,1.21,0.8c0.27,0.39,0.39,0.86,0.36,1.4c-0.02,0.32-0.09,0.63-0.22,0.93
					s-0.31,0.56-0.55,0.78s-0.53,0.4-0.87,0.52s-0.73,0.18-1.16,0.16l-4.25-0.21l0.43-8.8L407,313.85L407,313.85z M407.53,321.7
					c0.52,0.03,0.93-0.1,1.24-0.36c0.3-0.27,0.47-0.65,0.49-1.14c0.02-0.29-0.03-0.53-0.13-0.72s-0.23-0.35-0.4-0.47
					c-0.17-0.12-0.37-0.21-0.6-0.27s-0.46-0.09-0.71-0.1l-2.68-0.13l-0.15,3.05L407.53,321.7z M407.13,317.64
					c0.67,0.03,1.15-0.06,1.45-0.28c0.3-0.22,0.47-0.56,0.49-1.03c0.02-0.31-0.02-0.56-0.11-0.75s-0.22-0.33-0.39-0.44
					c-0.17-0.11-0.36-0.18-0.59-0.22s-0.46-0.07-0.72-0.08l-2.34-0.11l-0.14,2.8l2.34,0.11H407.13z"/>
				<path class="st0" d="M417.88,315.85c0.8,0.24,1.37,0.63,1.7,1.17c0.33,0.53,0.39,1.14,0.18,1.83c-0.16,0.51-0.41,0.92-0.76,1.24
					s-0.8,0.46-1.36,0.45v0.02c0.22,0.12,0.4,0.26,0.51,0.42c0.12,0.16,0.2,0.33,0.25,0.51c0.04,0.18,0.06,0.37,0.04,0.58
					s-0.04,0.41-0.08,0.62c-0.05,0.21-0.1,0.42-0.16,0.64c-0.06,0.21-0.1,0.43-0.13,0.64c-0.03,0.21-0.05,0.42-0.04,0.63
					s0.04,0.39,0.12,0.57l-1.25-0.38c-0.05-0.11-0.07-0.24-0.05-0.4c0.02-0.16,0.05-0.33,0.1-0.52c0.05-0.19,0.1-0.39,0.16-0.6
					s0.1-0.43,0.12-0.65c0.03-0.21,0.05-0.42,0.06-0.62c0.01-0.2-0.02-0.38-0.08-0.55c-0.06-0.17-0.16-0.32-0.3-0.45
					c-0.14-0.13-0.35-0.24-0.62-0.33l-2.74-0.84l-1.1,3.6l-1.12-0.34l2.58-8.43l3.97,1.22L417.88,315.85z M416.95,319.74
					c0.25,0.03,0.48,0.02,0.69-0.04s0.4-0.17,0.57-0.33c0.17-0.16,0.29-0.39,0.39-0.7c0.13-0.43,0.12-0.81-0.04-1.15
					c-0.15-0.34-0.49-0.59-1.02-0.75l-2.79-0.85l-0.9,2.94l2.34,0.72c0.26,0.08,0.51,0.14,0.76,0.17L416.95,319.74z"/>
				<path class="st0" d="M428.62,321.1l-0.5,0.85l-4.24-2.49l-1.42,2.42l3.95,2.32l-0.5,0.85l-3.95-2.32l-1.54,2.63l4.27,2.51
					l-0.5,0.85l-5.28-3.1l4.47-7.6L428.62,321.1L428.62,321.1z"/>
				<path class="st0" d="M436.12,328.05c0.88,1.04,1.29,2.06,1.24,3.06c-0.06,1-0.62,1.97-1.7,2.88c-0.57,0.48-1.12,0.84-1.66,1.08
					s-1.08,0.36-1.6,0.35c-0.52-0.01-1.03-0.16-1.54-0.43c-0.5-0.28-0.99-0.69-1.46-1.25l-1.95-2.31l6.73-5.7l1.95,2.31
					L436.12,328.05z M430.21,333.18c0.08,0.1,0.2,0.22,0.34,0.36c0.14,0.14,0.32,0.27,0.52,0.39c0.2,0.12,0.43,0.21,0.69,0.28
					s0.53,0.09,0.84,0.06s0.64-0.13,1-0.29s0.75-0.42,1.17-0.77c0.4-0.34,0.73-0.68,0.98-1.03s0.41-0.7,0.48-1.07
					s0.05-0.74-0.08-1.12c-0.12-0.38-0.36-0.78-0.71-1.19l-1.28-1.51l-5.22,4.42l1.26,1.49L430.21,333.18z"/>
				<path class="st0" d="M443.14,339.25l-0.88,0.44l-2.21-4.39l-2.5,1.26l2.06,4.09l-0.88,0.44l-2.06-4.09l-2.72,1.37l2.22,4.42
					l-0.88,0.44l-2.75-5.47l7.88-3.96l2.73,5.44L443.14,339.25z"/>
				<path class="st0" d="M436.83,349.77l6.2-0.95l-0.34-2.25l0.83-0.13c0.05,0.29,0.11,0.57,0.2,0.84c0.09,0.27,0.21,0.5,0.36,0.71
					s0.35,0.37,0.59,0.49c0.23,0.12,0.52,0.19,0.85,0.19l0.12,0.79l-8.65,1.32l-0.16-1.04V349.77z"/>
				<path class="st0" d="M444.76,354.15c0.27,0.15,0.49,0.35,0.67,0.6c0.18,0.25,0.31,0.53,0.39,0.84c0.08,0.31,0.12,0.64,0.1,0.98
					c-0.03,0.47-0.11,0.88-0.25,1.21c-0.15,0.33-0.33,0.6-0.55,0.79s-0.47,0.34-0.74,0.43c-0.27,0.08-0.55,0.12-0.83,0.11
					c-0.39-0.02-0.75-0.15-1.06-0.38c-0.31-0.24-0.54-0.54-0.69-0.92c-0.19,0.52-0.48,0.89-0.87,1.13s-0.85,0.34-1.39,0.31
					c-0.43-0.02-0.8-0.12-1.12-0.29s-0.59-0.39-0.8-0.66s-0.37-0.59-0.46-0.94c-0.1-0.36-0.14-0.74-0.11-1.14
					c0.02-0.42,0.09-0.81,0.22-1.16c0.13-0.36,0.31-0.66,0.54-0.92s0.52-0.45,0.86-0.59c0.34-0.14,0.73-0.19,1.18-0.17
					c0.52,0.03,0.96,0.18,1.33,0.46s0.63,0.68,0.77,1.18c0.17-0.36,0.42-0.65,0.77-0.85c0.34-0.21,0.71-0.3,1.11-0.28
					c0.36,0.02,0.68,0.11,0.94,0.26L444.76,354.15z M438.46,354.95c-0.32,0.33-0.49,0.77-0.52,1.31c-0.01,0.26,0.02,0.5,0.09,0.73
					c0.08,0.22,0.18,0.42,0.33,0.59c0.14,0.17,0.32,0.3,0.52,0.4c0.2,0.1,0.42,0.15,0.67,0.17c0.24,0.01,0.46-0.03,0.67-0.11
					c0.21-0.08,0.39-0.2,0.54-0.36c0.16-0.16,0.28-0.34,0.38-0.55s0.15-0.44,0.16-0.69c0.01-0.26-0.01-0.5-0.08-0.73
					c-0.07-0.23-0.17-0.43-0.31-0.61c-0.14-0.18-0.31-0.32-0.51-0.42c-0.2-0.11-0.43-0.17-0.68-0.18c-0.52-0.03-0.95,0.13-1.27,0.46
					L438.46,354.95z M443.09,355.09c-0.18,0.07-0.33,0.18-0.45,0.31c-0.12,0.14-0.22,0.29-0.28,0.48c-0.07,0.19-0.11,0.38-0.12,0.6
					c-0.02,0.42,0.09,0.77,0.32,1.05s0.57,0.44,1.01,0.46s0.79-0.1,1.03-0.36c0.24-0.26,0.37-0.61,0.39-1.04
					c0.01-0.2,0-0.4-0.06-0.6s-0.13-0.36-0.23-0.5s-0.24-0.26-0.4-0.35s-0.35-0.14-0.58-0.15c-0.24-0.01-0.45,0.02-0.63,0.09
					L443.09,355.09z"/>
				<path class="st0" d="M443.6,361.58c0.34,0.21,0.61,0.46,0.82,0.76c0.21,0.3,0.34,0.65,0.41,1.04c0.06,0.39,0.04,0.81-0.07,1.25
					c-0.09,0.37-0.23,0.7-0.42,1s-0.41,0.54-0.68,0.73s-0.57,0.32-0.9,0.38c-0.34,0.06-0.71,0.05-1.11-0.06
					c-0.37-0.09-0.69-0.23-0.95-0.42s-0.48-0.41-0.66-0.65c-0.18-0.25-0.33-0.52-0.45-0.81c-0.12-0.29-0.23-0.59-0.33-0.9
					c-0.1-0.3-0.19-0.61-0.28-0.91c-0.09-0.3-0.19-0.59-0.31-0.85s-0.26-0.5-0.43-0.71c-0.16-0.21-0.37-0.37-0.62-0.48l-1.09,4.36
					l-0.9-0.23l1.39-5.54c0.49,0.17,0.9,0.36,1.22,0.59s0.59,0.48,0.79,0.77c0.21,0.28,0.38,0.58,0.51,0.9s0.25,0.65,0.35,0.99
					c0.14,0.42,0.26,0.78,0.38,1.1s0.25,0.59,0.4,0.82s0.32,0.41,0.52,0.56s0.45,0.26,0.74,0.33c0.23,0.06,0.45,0.07,0.66,0.03
					s0.4-0.12,0.57-0.23c0.17-0.11,0.32-0.26,0.44-0.44s0.21-0.38,0.27-0.61c0.08-0.3,0.08-0.57,0-0.81
					c-0.07-0.24-0.19-0.46-0.35-0.64s-0.37-0.34-0.6-0.46s-0.48-0.21-0.74-0.27l0.25-1.02C442.87,361.22,443.26,361.38,443.6,361.58
					L443.6,361.58z"/>
				<path class="st0" d="M434.09,368.6l5.65,2.72l0.99-2.05l0.76,0.36c-0.13,0.27-0.23,0.54-0.31,0.81s-0.12,0.53-0.1,0.79
					s0.08,0.5,0.21,0.74c0.12,0.23,0.32,0.45,0.6,0.64l-0.35,0.72l-7.89-3.8l0.46-0.94L434.09,368.6z"/>
			</g>
			<path class="st0" d="M493.51,545.71l-3.8-3.43c-13.3-12.01-28.26-3.6-28.26-3.6c-14.74,8.47-34.02,15.9-55.75,15.9
				c-21.74,0-41.01-7.43-55.75-15.9c0,0-14.96-8.41-28.26,3.6l-3.8,3.43c1.44-0.6,3.9-0.25,6.8,0.6l-3.11,1.18
				c3.97,1.57,2.34,4.49,2.34,4.49l4.82-4.28c9.56,3.71,21.21,10.61,21.21,10.61c14.32,8.64,34.01,14.11,55.75,14.11l0,0
				c21.74,0,41.43-5.47,55.75-14.11c0,0,11.66-6.9,21.21-10.61l4.82,4.28c0,0-1.63-2.92,2.34-4.49l-3.11-1.18
				C489.61,545.46,492.07,545.11,493.51,545.71z M400.76,555.93l1.49,0.06l-1.66,1.64l-1.24-0.05L400.76,555.93z M340.17,549.58
				l-2.8-1.66l5-8.46l2.8,1.66c2.59,1.53,3.37,4.08,1.79,6.75c-1.59,2.68-4.21,3.23-6.8,1.7L340.17,549.58z M347.14,553.52
				l-1.22-0.65l4.65-8.66l1.22,0.65L347.14,553.52z M353.1,556.67c-2.57-1.22-3.62-4.2-2.38-6.83c1.21-2.56,4.15-3.6,6.72-2.38
				c2.58,1.22,3.63,4.14,2.43,6.7C358.62,556.78,355.66,557.89,353.1,556.67z M366.8,553.71c0,0-0.53-1.12-1.7-1.57
				c-0.97-0.38-1.9-0.04-2.18,0.69c-0.73,1.89,3.9,3.11,2.74,6.08c-0.55,1.41-2.09,2.16-3.9,1.45c-1.95-0.76-2.57-2.38-2.57-2.38
				l1.1-0.69c0,0,0.59,1.36,1.95,1.89c0.85,0.33,1.77,0.13,2.1-0.73c0.77-1.98-3.83-3.28-2.74-6.09c0.55-1.43,2.22-2.08,3.95-1.41
				c1.7,0.66,2.24,1.93,2.24,1.93l-0.99,0.84L366.8,553.71z M374.96,564.7c-2.22-0.6-3.37-2.42-2.79-4.53l1.65-6.14l1.33,0.36
				l-1.65,6.14c-0.39,1.46,0.33,2.56,1.78,2.95c1.47,0.39,2.65-0.2,3.05-1.68l1.64-6.11l1.33,0.36l-1.65,6.14
				c-0.57,2.11-2.47,3.12-4.69,2.52L374.96,564.7z M388.96,567.49l-1.33-0.24l-3.2-7.08c-0.26-0.6-0.55-1.56-0.55-1.56h-0.03
				c0,0-0.06,0.88-0.16,1.43l-1.14,6.3l-1.36-0.24l1.75-9.71l1.35,0.24l3.18,7.09c0.26,0.59,0.56,1.55,0.56,1.55h0.03
				c0,0,0.06-0.88,0.16-1.42l1.14-6.31l1.36,0.24l-1.75,9.71H388.96z M392.67,567.9l-1.37-0.16l1.15-9.76l1.37,0.16L392.67,567.9z
				 M399.49,568.6c-2.83-0.15-4.93-2.51-4.78-5.4c0.14-2.82,2.46-4.89,5.3-4.74c2.83,0.14,4.92,2.44,4.77,5.26
				C404.63,566.61,402.32,568.76,399.49,568.6L399.49,568.6z M412.94,568.42l-4.64-6.18c-0.38-0.53-0.88-1.4-0.88-1.4h-0.03
				c0,0,0.13,0.87,0.15,1.43l0.26,6.36l-1.37,0.06l-0.4-9.81l1.36-0.06l4.62,6.2c0.38,0.51,0.88,1.38,0.88,1.38h0.03
				c0,0-0.13-0.87-0.15-1.41l-0.26-6.38l1.37-0.06l0.4,9.81l-1.35,0.05L412.94,568.42z M422.09,567.49l-1.55-9.71l1.36-0.22
				l1.36,8.52l4.34-0.69l0.19,1.18l-5.71,0.91L422.09,567.49z M428.96,566.3l-2-9.66l1.36-0.28l2,9.66L428.96,566.3z M436.04,564.64
				l-3.41,0.9l-2.5-9.51l3.33-0.88c1.6-0.42,2.99,0.16,3.4,1.7c0.25,0.93-0.02,1.79-0.65,2.36v0.02c1.08,0.04,1.9,0.83,2.18,1.89
				C438.85,562.91,437.7,564.19,436.04,564.64L436.04,564.64z M440.98,563.27l-3.1-9.36l5.43-1.8l0.38,1.14l-4.12,1.37l0.97,2.93
				l3.35-1.11l0.38,1.14l-3.35,1.11l0.99,3.01l4.35-1.44l0.38,1.14l-5.66,1.88V563.27z M453.36,558.74l-3.38-2.85l-1.95,0.78
				l1.46,3.62l-1.28,0.51l-3.65-9.11l2.78-1.12c0.95-0.38,1.38-0.47,1.79-0.48c1.07-0.02,2.04,0.65,2.52,1.85
				c0.47,1.16,0.21,2.4-0.65,3.12v0.02c0,0,0.16,0.07,0.44,0.3l3.35,2.76l-1.44,0.58L453.36,558.74z M458.2,556.58l-3.69-7.82
				l-3.05,1.44l-0.51-1.08l7.36-3.47l0.51,1.09l-3.05,1.44l3.69,7.82l-1.25,0.59L458.2,556.58z M468.07,551.47l-2.23-2.02
				l-3.26,1.77l0.49,2.95l-1.25,0.68l-1.59-10.35l1.27-0.69l7.82,6.96l-1.26,0.68L468.07,551.47z M473.08,548.49l-2.77,1.73
				l-5.21-8.35l2.77-1.73c2.55-1.59,5.19-1.11,6.83,1.53c1.65,2.65,0.93,5.23-1.63,6.83L473.08,548.49z"/>
		</g>
	</g>
</g>
</svg>
