<svg width="653" height="339" viewBox="0 0 653 339" fill="none" xmlns="http://www.w3.org/2000/svg">
<path d="M377.38 114.23C381.22 95.12 389.161 76.9 400.961 60.67C422.511 31 454.33 11.51 490.54 5.76997C509.58 2.74997 528.6 3.69997 547.07 8.59997C548.05 8.86997 549.01 8.28996 549.26 7.32996C549.51 6.37996 548.95 5.39995 547.99 5.14995C529.02 0.129955 509.51 -0.840039 489.98 2.24996C452.82 8.13996 420.18 28.14 398.06 58.58C385.81 75.44 377.61 94.38 373.73 114.24H377.38V114.23Z" fill="#1B263E"/>
<path d="M625.962 224.13C625.542 224.7 625.132 225.27 624.692 225.85C616.272 237.09 606.392 246.85 595.372 254.95C577.492 268.12 556.592 276.88 534.042 280.47C526.572 281.64 519.112 282.23 511.712 282.23C482.222 282.23 453.552 272.97 429.222 255.29C429.072 255.18 428.912 255.07 428.762 254.95C417.382 246.62 407.492 236.82 399.272 225.85C395.282 220.55 391.682 214.98 388.532 209.19C387.402 207.18 386.352 205.14 385.352 203.08H389.342C390.382 205.15 391.472 207.18 392.622 209.19C395.912 215 399.642 220.58 403.782 225.85C411.572 235.82 420.802 244.77 431.342 252.42C432.552 253.29 433.752 254.14 434.972 254.95C463.932 274.64 498.732 282.43 533.502 276.94C553.792 273.73 572.712 266.18 589.202 254.95C600.852 247.02 611.302 237.25 620.172 225.85C621.162 224.6 622.122 223.33 623.062 222.03C644.622 192.37 653.342 156.09 647.602 119.88C641.192 79.3401 617.212 44.0801 581.832 23.1601C580.982 22.6501 580.702 21.5701 581.212 20.7201C581.692 19.8701 582.802 19.5901 583.652 20.0901C619.942 41.5701 644.532 77.7401 651.122 119.33C656.992 156.49 648.062 193.72 625.962 224.14V224.13Z" fill="#1B263E"/>
<path d="M568.919 16.24C568.679 16.24 568.429 16.19 568.189 16.08C565.919 15.06 563.619 14.1 561.299 13.2C560.379 12.85 559.919 11.81 560.279 10.89C560.639 9.96997 561.659 9.50996 562.589 9.86996C564.969 10.79 567.329 11.77 569.659 12.82C570.559 13.22 570.959 14.28 570.559 15.18C570.259 15.84 569.609 16.23 568.929 16.23L568.919 16.24Z" fill="#1B263E"/>
<path d="M69.4908 302.21H56.8908L28.3608 259.1V302.21H15.7608V239.3H28.3608L56.8908 282.5V239.3H69.4908V302.21ZM128.292 276.2C128.292 278 128.172 279.62 127.932 281.06H91.4824C91.7824 284.66 93.0424 287.48 95.2624 289.52C97.4824 291.56 100.212 292.58 103.452 292.58C108.132 292.58 111.462 290.57 113.442 286.55H127.032C125.592 291.35 122.832 295.31 118.752 298.43C114.672 301.49 109.662 303.02 103.722 303.02C98.9224 303.02 94.6024 301.97 90.7624 299.87C86.9824 297.71 84.0124 294.68 81.8524 290.78C79.7524 286.88 78.7024 282.38 78.7024 277.28C78.7024 272.12 79.7524 267.59 81.8524 263.69C83.9524 259.79 86.8924 256.79 90.6724 254.69C94.4524 252.59 98.8024 251.54 103.722 251.54C108.462 251.54 112.692 252.56 116.412 254.6C120.192 256.64 123.102 259.55 125.142 263.33C127.242 267.05 128.292 271.34 128.292 276.2ZM115.242 272.6C115.182 269.36 114.012 266.78 111.732 264.86C109.452 262.88 106.662 261.89 103.362 261.89C100.242 261.89 97.6024 262.85 95.4424 264.77C93.3424 266.63 92.0524 269.24 91.5724 272.6H115.242ZM152.159 262.7V286.82C152.159 288.5 152.549 289.73 153.329 290.51C154.169 291.23 155.549 291.59 157.469 291.59H163.319V302.21H155.399C144.779 302.21 139.469 297.05 139.469 286.73V262.7H133.529V252.35H139.469V240.02H152.159V252.35H163.319V262.7H152.159ZM241.502 252.35L226.922 302.21H213.332L204.242 267.38L195.152 302.21H181.472L166.802 252.35H179.582L188.402 290.33L197.942 252.35H211.262L220.622 290.24L229.442 252.35H241.502ZM270.459 303.02C265.659 303.02 261.339 301.97 257.499 299.87C253.659 297.71 250.629 294.68 248.409 290.78C246.249 286.88 245.169 282.38 245.169 277.28C245.169 272.18 246.279 267.68 248.499 263.78C250.779 259.88 253.869 256.88 257.769 254.78C261.669 252.62 266.019 251.54 270.819 251.54C275.619 251.54 279.969 252.62 283.869 254.78C287.769 256.88 290.829 259.88 293.049 263.78C295.329 267.68 296.469 272.18 296.469 277.28C296.469 282.38 295.299 286.88 292.959 290.78C290.679 294.68 287.559 297.71 283.599 299.87C279.699 301.97 275.319 303.02 270.459 303.02ZM270.459 292.04C272.739 292.04 274.869 291.5 276.849 290.42C278.889 289.28 280.509 287.6 281.709 285.38C282.909 283.16 283.509 280.46 283.509 277.28C283.509 272.54 282.249 268.91 279.729 266.39C277.269 263.81 274.239 262.52 270.639 262.52C267.039 262.52 264.009 263.81 261.549 266.39C259.149 268.91 257.949 272.54 257.949 277.28C257.949 282.02 259.119 285.68 261.459 288.26C263.859 290.78 266.859 292.04 270.459 292.04ZM318.312 260.09C319.932 257.45 322.032 255.38 324.612 253.88C327.252 252.38 330.252 251.63 333.612 251.63V264.86H330.282C326.322 264.86 323.322 265.79 321.282 267.65C319.302 269.51 318.312 272.75 318.312 277.37V302.21H305.712V252.35H318.312V260.09ZM371.619 302.21L354.699 280.97V302.21H342.099V235.61H354.699V273.5L371.439 252.35H387.819L365.859 277.37L387.999 302.21H371.619Z" fill="#1B263E"/>
<path d="M596.55 74.2199L534.281 37.7299C533.721 37.3999 533.071 37.2499 532.401 37.2999C532.401 37.2999 460.581 42.7499 460.451 42.7599C457.361 42.9999 456.4 47.1999 459.07 48.7699L521.331 85.2499C521.901 85.5899 522.551 85.7199 523.211 85.6799L590.79 80.5599L584.641 107.18C579.491 107.44 574.91 111.02 573.69 116.28L572.93 119.58C570.1 114.36 565.491 110.04 559.651 106.41C560.291 105.97 560.771 105.3 560.951 104.49L564.521 89.0099L523.69 92.1199C521.77 92.2699 519.71 91.8299 518.06 90.8299L482.72 70.1099L479.591 83.6899L460.271 78.9399L455.88 96.8699C455.88 96.8699 468.39 99.58 468.06 99.92C474.82 101.62 476.171 106.01 475.841 109.74L468.06 141.21C468.39 141.21 469.07 141.54 469.74 141.88C469.07 141.88 468.73 141.54 468.06 141.54L456.891 185.87C456.221 187.9 453.84 190.94 449.11 189.93C449.11 190.27 436.93 186.88 436.93 186.88L428.48 206.16L450.47 211.57C454.53 212.59 458.591 213.61 462.651 214.62L455.54 242.71L472.461 246.77L479.23 219.02C483.97 220.37 488.361 221.39 492.771 222.4L486 250.15L502.92 254.21L510.031 226.12C538.791 231.53 560.451 229.51 569.581 203.46C577.021 182.47 569.241 170.3 554.021 162.52C565.181 159.47 573.64 152.03 575.67 137.14C575.87 135.85 575.981 134.6 576.031 133.39L589.99 136.61C591.72 137.01 593.46 135.93 593.86 134.19L596.771 121.61C597.981 116.35 595.45 111.12 590.93 108.63L598.07 77.7299C598.37 76.42 597.73 74.8799 596.56 74.2199H596.55ZM537.43 191.28C532.36 212.26 496.83 200.76 485.66 198.05L494.79 160.83C505.96 163.54 542.84 169.28 537.43 191.28ZM542.5 136.8C537.77 155.75 508.33 146.28 498.85 143.91L507.31 110.07C516.79 112.45 547.57 116.84 542.5 136.8Z" fill="#F39324"/>
<path d="M111.078 134.888C111.078 142.019 109.359 148.704 105.921 154.943C102.61 161.182 97.3257 166.212 90.0677 170.032C82.937 173.852 73.8964 175.762 62.9457 175.762H40.5987V226.95H13.8587V93.6319H62.9457C73.2597 93.6319 82.0457 95.4146 89.3037 98.9799C96.5617 102.545 101.973 107.448 105.539 113.687C109.231 119.926 111.078 126.993 111.078 134.888ZM61.7997 154.179C69.185 154.179 74.6604 152.524 78.2257 149.213C81.791 145.775 83.5737 141 83.5737 134.888C83.5737 121.9 76.3157 115.406 61.7997 115.406H40.5987V154.179H61.7997ZM156.803 85.6099V226.95H130.063V85.6099H156.803ZM176.346 173.661C176.346 162.965 178.447 153.479 182.649 145.202C186.978 136.925 192.772 130.559 200.03 126.102C207.415 121.645 215.628 119.417 224.669 119.417C232.564 119.417 239.44 121.009 245.297 124.192C251.282 127.375 256.057 131.386 259.622 136.225V121.136H286.553V226.95H259.622V211.479C256.184 216.445 251.409 220.583 245.297 223.894C239.312 227.077 232.373 228.669 224.478 228.669C215.565 228.669 207.415 226.377 200.03 221.793C192.772 217.209 186.978 210.779 182.649 202.502C178.447 194.098 176.346 184.484 176.346 173.661ZM259.622 174.043C259.622 167.549 258.349 162.01 255.802 157.426C253.255 152.715 249.817 149.149 245.488 146.73C241.159 144.183 236.511 142.91 231.545 142.91C226.579 142.91 221.995 144.12 217.793 146.539C213.591 148.958 210.153 152.524 207.479 157.235C204.932 161.819 203.659 167.294 203.659 173.661C203.659 180.028 204.932 185.63 207.479 190.469C210.153 195.18 213.591 198.809 217.793 201.356C222.122 203.903 226.706 205.176 231.545 205.176C236.511 205.176 241.159 203.966 245.488 201.547C249.817 199 253.255 195.435 255.802 190.851C258.349 186.14 259.622 180.537 259.622 174.043ZM371.306 119.608C383.912 119.608 394.099 123.619 401.866 131.641C409.634 139.536 413.517 150.614 413.517 164.875V226.95H386.777V168.504C386.777 160.1 384.676 153.67 380.474 149.213C376.272 144.629 370.542 142.337 363.284 142.337C355.899 142.337 350.042 144.629 345.712 149.213C341.51 153.67 339.409 160.1 339.409 168.504V226.95H312.669V121.136H339.409V134.315C342.975 129.731 347.495 126.166 352.97 123.619C358.573 120.945 364.685 119.608 371.306 119.608Z" fill="#1B263E"/>
</svg>
