<svg xmlns="http://www.w3.org/2000/svg" xmlns:xlink="http://www.w3.org/1999/xlink" version="1.1" width="138.6875pt" height="83.57031pt" viewBox="0 0 138.6875 83.57031">
<path transform="matrix(1,0,0,-1,86,36.853517)" d="M0 28H11V0H0V28Z" fill="#ffffff"/>
<path transform="matrix(1,0,0,-1,0,40.023439)" d="M0 1.685089V31.8997C0 33.025968 .56697 33.58496 1.696742 33.58496H7.829192C13.111187 33.58496 15.754271 30.823122 15.754271 25.270457V21.966185C15.754271 16.438364 13.115355 13.676525 7.829192 13.676525H5.307008V1.685089C5.307008 .562962 4.740038-.000175 3.631111-.000175H1.696742C.562802-.000175 0 .562962 0 1.685089ZM7.804178 18.479725C8.675478 18.479725 9.338333 18.715744 9.759392 19.204346 10.18045 19.692948 10.397234 20.516945 10.397234 21.663918V25.647257C10.397234 26.794228 10.18462 27.614087 9.759392 28.081984 9.334164 28.549881 8.696323 28.785902 7.825023 28.785902H5.302839V18.45488L7.804178 18.479725Z"/>
<path transform="matrix(1,0,0,-1,0,40.01953)" d="M18.630808 1.681183V31.895794C18.630808 33.02206 19.197779 33.581056 20.32755 33.581056H22.26192C23.391694 33.581056 23.95866 33.01792 23.937815 31.895794V4.799122H30.987427C32.12137 4.799122 32.684167 4.235985 32.684167 3.113857V1.685318C32.684167 .56319 32.1172 .000061 30.987427 .000061H20.32755C19.193612 .000061 18.630808 .56319 18.630808 1.685318V1.681183Z"/>
<path transform="matrix(1,0,0,-1,0,40.023439)" d="M35.727464-.000175C34.664396-.000175 34.147455 .467724 34.172468 1.428364 34.172468 1.523602 34.19748 1.664381 34.218324 1.875557L39.2877 32.040487C39.454458 33.071516 40.042276 33.58496 41.08033 33.58496H45.182527C46.22058 33.58496 46.808397 33.067377 46.950139 32.040487L52.01952 1.875557C52.044534 1.689226 52.065374 1.548443 52.090387 1.428364 52.090387 .467724 51.548437-.000175 50.485368-.000175H48.601026C47.492097-.000175 46.879266 .513268 46.762537 1.5443L46.05382 6.674614V6.579384H39.804647L39.095933 1.5443C38.979204 .513268 38.36638-.000175 37.25745-.000175H35.723295 35.727464ZM45.39514 11.125858 42.918817 27.730027H42.82293L40.417474 11.125858H45.39514Z"/>
<path transform="matrix(1,0,0,-1,0,40.023439)" d="M54.779329 1.685089V31.8997C54.779329 33.025968 55.3463 33.58496 56.47607 33.58496H59.940427C60.97848 33.58496 61.616327 33.09222 61.82477 32.13158L66.61067 13.465349H66.70654V31.8997C66.70654 33.025968 67.27352 33.58496 68.40329 33.58496H69.745677C70.87544 33.58496 71.44242 33.021829 71.44242 31.8997V1.685089C71.44242 .562962 70.87544-.000175 69.745677-.000175H67.48196C66.4439-.000175 65.80607 .467724 65.59345 1.428364L59.60275 24.520993H59.506864V1.685089C59.506864 .562962 58.939889-.000175 57.810117-.000175H56.467729C55.333787-.000175 54.770998 .562962 54.770998 1.685089H54.779329Z"/>
<path transform="matrix(1,0,0,-1,82.00195,6.1289064)" d="M9.367515-18.02788H7.950087V-24.151959H9.771899C10.318025-24.151959 10.726581-23.998755 10.99339-23.704766 11.2602-23.410777 11.397763-22.897332 11.397763-22.17271V-20.43362C11.397763-19.52681 11.243512-18.901564 10.922507-18.553746 10.601502-18.205927 10.080397-18.02374 9.367515-18.02374V-18.02788Z" fill="#ff5c00"/>
<path transform="matrix(1,0,0,-1,82.00195,5.2753908)" d="M10.601509-15.539858C10.910007-15.221025 11.06426-14.678593 11.06426-13.924988V-12.811144C11.06426-11.448856 10.530635-10.765644 9.467566-10.749081H7.941752V-16.024317H9.188258C9.817762-16.024317 10.297175-15.85869 10.605674-15.535717L10.601509-15.539858Z" fill="#ff5c00"/>
<path transform="matrix(1,0,0,-1,82.00195,45.853517)" d="M9.463395 45.853517C4.239765 45.853517 0 41.646577 0 36.454149V9.39888C0 4.210594 4.235596-.000484 9.463395-.000484 14.687025-.000484 18.926802 4.206455 18.926802 9.39888V36.454149C18.926802 41.642435 14.691195 45.853517 9.463395 45.853517ZM14.541118 17.452527C14.541118 15.908049 14.132558 14.736231 13.323792 13.928797 12.815186 13.423634 12.160677 13.079956 11.360249 12.889484V12.181423C11.360249 11.676258 10.943358 11.262188 10.434752 11.262188 9.926147 11.262188 9.505086 11.676258 9.505086 12.181423V12.719715H7.941752V12.181423C7.941752 11.676258 7.524867 11.262188 7.016261 11.262188 6.507656 11.262188 6.090754 11.676258 6.090754 12.181423V12.719715H5.803106C5.131913 12.719715 4.794228 13.055107 4.794228 13.72176V31.679936C4.794228 32.346586 5.131913 32.68198 5.803106 32.68198H6.090754V33.675748C6.090754 34.180913 6.507656 34.59498 7.016261 34.59498 7.524867 34.59498 7.941752 34.180913 7.941752 33.675748V32.68198H9.505086V33.675748C9.505086 34.180913 9.921978 34.59498 10.434752 34.59498 10.947527 34.59498 11.360249 34.180913 11.360249 33.675748V32.599168C11.360249 32.557764 11.351912 32.520494 11.347744 32.483228 12.085639 32.301038 12.677627 31.994627 13.115361 31.555714 13.857426 30.802109 14.236783 29.646857 14.236783 28.089957V27.294943C14.236783 25.249444 13.54892 23.940985 12.189858 23.381993V23.328164C13.761534 22.798155 14.545288 21.406884 14.545288 19.166769V17.452527H14.541118Z" fill="#ff5c00"/>
<path transform="matrix(1,0,0,-1,0,82.58496)" d="M.004181 1.167503V31.382115C.004181 32.50838 .571156 33.067377 1.700928 33.067377H5.165276C6.203331 33.067377 6.841173 32.574636 7.053787 31.613993L11.839691 12.947763H11.935555V31.382115C11.935555 32.50838 12.502538 33.067377 13.632309 33.067377H14.974693C16.104466 33.067377 16.67144 32.504243 16.67144 31.382115V1.167503C16.67144 .045376 16.104466-.517761 14.974693-.517761H12.710976C11.67292-.517761 11.035078-.049862 10.822464 .910778L4.831764 24.003405H4.735878V1.167503C4.735878 .045376 4.168911-.517761 3.039139-.517761H1.696747C.562806-.517761 0 .045376 0 1.167503H.004181Z"/>
<path transform="matrix(1,0,0,-1,0,82.58496)" d="M20.615212 1.167503V31.382115C20.615212 32.50838 21.182187 33.067377 22.311959 33.067377H33.4179C34.547674 33.067377 35.114648 32.504243 35.093805 31.382115V29.928732C35.093805 28.806605 34.52683 28.243472 33.4179 28.264176H25.918053V19.386536H31.52938C32.659154 19.386536 33.226129 18.8234 33.205286 17.701275V16.272738C33.205286 15.15061 32.63831 14.587475 31.52938 14.587475H25.918053V4.2813H33.4179C34.547674 4.2813 35.114648 3.718164 35.093805 2.596037V1.167503C35.093805 .045376 34.52683-.517761 33.4179-.517761H22.311959C21.182187-.517761 20.615212 .045376 20.615212 1.167503Z"/>
<path transform="matrix(1,0,0,-1,0,82.58887)" d="M42.28515 1.17141V28.272223H38.41642C37.286649 28.272223 36.719675 28.835356 36.740518 29.936779V31.390162C36.740518 32.51643 37.30749 33.07542 38.41642 33.07542H51.456735C52.590677 33.07542 53.153467 32.512289 53.153467 31.390162V29.936779C53.153467 28.814652 52.586507 28.251519 51.456735 28.272223H47.58799V1.17141C47.58799 .049282 47.021017-.513855 45.912088-.513855H43.977716C42.847944-.513855 42.280984 .049282 42.280984 1.17141H42.28515Z"/>
<path transform="matrix(1,0,0,-1,0,82.58887)" d="M57.872659 1.080311 54.7835 30.897419 54.737649 31.530945C54.737649 32.561979 55.258768 33.07542 56.317667 33.07542H58.06443C59.1275 33.07542 59.71531 32.537134 59.811197 31.481257L62.074914 7.262362H62.1708L64.60128 31.481257C64.69717 32.537134 65.259967 33.07542 66.32304 33.07542H68.94108C70.00415 33.07542 70.59197 32.537134 70.68786 31.481257L73.093318 7.262362H73.1892L75.4529 31.481257C75.54879 32.537134 76.1366 33.07542 77.19967 33.07542H78.40031C79.459209 33.07542 80.00533 32.557836 80.00533 31.530945L79.959499 30.897419 76.87032 1.080311C76.77444 .024433 76.18663-.513855 75.12356-.513855H71.70507C70.596149-.513855 70.00834 .024433 69.91245 1.080311L67.648738 22.13572H67.55283L65.26412 1.080311C65.168239 .024433 64.58043-.513855 63.496515-.513855H59.627786C58.568887-.513855 57.97689 .024433 57.881006 1.080311H57.872659Z"/>
<path transform="matrix(1,0,0,-1,0,83.57031)" d="M90.39423-.000309C87.80118-.000309 85.82098 .724312 84.428569 2.202538 83.036159 3.680763 82.352428 5.763531 82.352428 8.454979V26.115023C82.352428 28.80647 83.036159 30.89338 84.428569 32.367467 85.82098 33.841554 87.82622 34.570314 90.41927 34.570314 93.01233 34.570314 95.01754 33.84569 96.40995 32.367467 97.80236 30.89338 98.506938 28.80647 98.506938 26.115023V8.454979C98.506938 5.763531 97.823207 3.676622 96.43079 2.202538 95.03838 .728451 93.03313-.000309 90.44007-.000309H90.39423ZM93.154048 8.103022V26.417294C93.154048 28.62014 92.23272 29.721566 90.39423 29.721566 88.55575 29.721566 87.63444 28.62014 87.63444 26.417294V8.103022C87.63444 5.879471 88.55575 4.778048 90.39423 4.778048 92.23272 4.778048 93.154048 5.879471 93.154048 8.103022Z"/>
<path transform="matrix(1,0,0,-1,0,82.58496)" d="M103.76391-.517761C102.63414-.517761 102.06715 .045376 102.06715 1.167503V31.382115C102.06715 32.50838 102.63414 33.067377 103.76391 33.067377H109.94222C112.67702 33.067377 114.68224 32.43385 115.932918 31.170939 117.183589 29.908028 117.81724 27.961905 117.81724 25.340847V23.278786C117.81724 19.788184 116.66246 17.585335 114.32787 16.649538V16.554305C116.68747 15.829683 117.863109 13.461208 117.863109 9.457161V3.556677C117.863109 2.504942 117.90894 1.751339 118.00483 1.308285 118.0757 1.001873 118.100749 .794834 118.100749 .674755 118.100749-.120258 117.604648-.517761 116.63746-.517761H114.51548C113.38571-.517761 112.76871-.049862 112.69784 .910778 112.60195 1.494614 112.55609 2.384863 112.531078 3.602226V9.738726C112.531078 11.262499 112.29345 12.339083 111.80152 12.947763 111.30542 13.556444 110.459148 13.862854 109.22932 13.862854H107.39085V1.167503C107.39085 .045376 106.82387-.517761 105.71494-.517761H103.75973 103.76391ZM109.329387 18.666054C110.392459 18.666054 111.19287 18.947625 111.709819 19.485913 112.22676 20.024205 112.4894 20.939295 112.4894 22.22705V24.802559C112.4894 27.0965 111.59308 28.243472 109.80045 28.268317H107.36997V18.666054H109.329387Z"/>
<path transform="matrix(1,0,0,-1,0,82.59375)" d="M121.54424 1.176292V31.390904C121.54424 32.51717 122.111209 33.076166 123.240978 33.076166H125.17536C126.3093 33.076166 126.87211 32.51303 126.851268 31.390904V18.906723L133.19632 31.813254C133.62155 32.63311 134.28023 33.05546 135.17655 33.076166H136.80243C137.79463 33.076166 138.28658 32.69936 138.31159 31.949896 138.31159 31.693173 138.21569 31.411606 138.0531 31.105196L132.60434 20.728627 138.54502 1.544811C138.6409 1.263245 138.68677 .981678 138.68677 .724957 138.68677-.094898 138.19066-.517254 137.20264-.517254H135.10569C134.11348-.517254 133.4798-.049355 133.19632 .865738L128.97739 14.45134 126.85543 10.190571V1.17215C126.85543 .050022 126.28845-.513111 125.17953-.513111H123.24514C122.11537-.513111 121.54842 .050022 121.54842 1.17215L121.54424 1.176292Z"/>
</svg>
