<?xml version="1.0" encoding="utf-8"?>
<!-- Generator: Adobe Illustrator 28.0.0, SVG Export Plug-In . SVG Version: 6.00 Build 0)  -->
<svg version="1.1" id="Capa_1" xmlns="http://www.w3.org/2000/svg" xmlns:xlink="http://www.w3.org/1999/xlink" x="0px" y="0px"
	 viewBox="0 0 138.7 83.6" style="enable-background:new 0 0 138.7 83.6;" xml:space="preserve">
<style type="text/css">
	.st0{fill:#FFFFFF;}
	.st1{fill:#FF5C00;}
</style>
<path class="st0" d="M86,8.9h11v28H86V8.9z"/>
<path class="st0" d="M0,38.3V8.1C0,7,0.6,6.4,1.7,6.4h6.1c5.3,0,7.9,2.8,7.9,8.3v3.3c0,5.5-2.6,8.3-7.9,8.3H5.3v12
	c0,1.1-0.6,1.7-1.7,1.7H1.7C0.6,40,0,39.5,0,38.3z M7.8,21.5c0.9,0,1.5-0.2,2-0.7s0.6-1.3,0.6-2.5v-4c0-1.1-0.2-2-0.6-2.4
	s-1.1-0.7-1.9-0.7H5.3v10.3L7.8,21.5z"/>
<path class="st0" d="M18.6,38.3V8.1c0-1.1,0.6-1.7,1.7-1.7h1.9c1.1,0,1.7,0.6,1.7,1.7v27.1h7c1.1,0,1.7,0.6,1.7,1.7v1.4
	c0,1.1-0.6,1.7-1.7,1.7H20.3C19.2,40,18.6,39.5,18.6,38.3L18.6,38.3z"/>
<path class="st0" d="M35.7,40c-1.1,0-1.6-0.5-1.6-1.4c0-0.1,0-0.2,0-0.4L39.3,8c0.2-1,0.8-1.5,1.8-1.5h4.1c1,0,1.6,0.5,1.8,1.5
	L52,38.1c0,0.2,0,0.3,0.1,0.4c0,1-0.5,1.4-1.6,1.4h-1.9c-1.1,0-1.7-0.5-1.8-1.5l-0.7-5.1v0.1h-6.2l-0.7,5c-0.1,1-0.7,1.5-1.8,1.5
	H35.7L35.7,40z M45.4,28.9l-2.5-16.6h-0.1l-2.4,16.6H45.4z"/>
<path class="st0" d="M54.8,38.3V8.1c0-1.1,0.6-1.7,1.7-1.7h3.5c1,0,1.7,0.5,1.9,1.5l4.8,18.7h0.1V8.1c0-1.1,0.6-1.7,1.7-1.7h1.3
	c1.1,0,1.7,0.6,1.7,1.7v30.2c0,1.1-0.6,1.7-1.7,1.7h-2.3c-1,0-1.7-0.5-1.9-1.4l-6-23.1h-0.1v22.8c0,1.1-0.6,1.7-1.7,1.7h-1.3
	C55.3,40,54.8,39.5,54.8,38.3L54.8,38.3z"/>
<path class="st1" d="M91.4,24.2H90v6.1h1.8c0.5,0,1-0.2,1.2-0.4c0.3-0.3,0.4-0.8,0.4-1.5v-1.7c0-0.9-0.2-1.5-0.5-1.9
	S92.1,24.2,91.4,24.2L91.4,24.2z"/>
<path class="st1" d="M92.6,20.8c0.3-0.3,0.5-0.9,0.5-1.6v-1.1c0-1.4-0.5-2-1.6-2.1h-1.5v5.3h1.2C91.8,21.3,92.3,21.1,92.6,20.8
	L92.6,20.8z"/>
<path class="st1" d="M91.5,0C86.2,0,82,4.2,82,9.4v27.1c0,5.2,4.2,9.4,9.5,9.4c5.2,0,9.5-4.2,9.5-9.4V9.4C100.9,4.2,96.7,0,91.5,0z
	 M96.5,28.4c0,1.5-0.4,2.7-1.2,3.5c-0.5,0.5-1.2,0.8-2,1v0.7c0,0.5-0.4,0.9-0.9,0.9s-0.9-0.4-0.9-0.9v-0.5h-1.6v0.5
	c0,0.5-0.4,0.9-0.9,0.9c-0.5,0-0.9-0.4-0.9-0.9v-0.5h-0.3c-0.7,0-1-0.3-1-1v-18c0-0.7,0.3-1,1-1h0.3v-1c0-0.5,0.4-0.9,0.9-0.9
	c0.5,0,0.9,0.4,0.9,0.9v1h1.6v-1c0-0.5,0.4-0.9,0.9-0.9s0.9,0.4,0.9,0.9v1.1c0,0,0,0.1,0,0.1c0.7,0.2,1.3,0.5,1.8,0.9
	c0.7,0.8,1.1,1.9,1.1,3.5v0.8c0,2-0.7,3.4-2,3.9v0.1c1.6,0.5,2.4,1.9,2.4,4.2L96.5,28.4L96.5,28.4z"/>
<path class="st0" d="M0,81.4V51.2c0-1.1,0.6-1.7,1.7-1.7h3.5c1,0,1.7,0.5,1.9,1.5l4.8,18.7h0.1V51.2c0-1.1,0.6-1.7,1.7-1.7H15
	c1.1,0,1.7,0.6,1.7,1.7v30.2c0,1.1-0.6,1.7-1.7,1.7h-2.3c-1,0-1.7-0.5-1.9-1.4l-6-23.1H4.7v22.8c0,1.1-0.6,1.7-1.7,1.7H1.7
	C0.6,83.1,0,82.5,0,81.4L0,81.4z"/>
<path class="st0" d="M20.6,81.4V51.2c0-1.1,0.6-1.7,1.7-1.7h11.1c1.1,0,1.7,0.6,1.7,1.7v1.5c0,1.1-0.6,1.7-1.7,1.7h-7.5v8.9h5.6
	c1.1,0,1.7,0.6,1.7,1.7v1.4c0,1.1-0.6,1.7-1.7,1.7h-5.6v10.3h7.5c1.1,0,1.7,0.6,1.7,1.7v1.4c0,1.1-0.6,1.7-1.7,1.7H22.3
	C21.2,83.1,20.6,82.5,20.6,81.4z"/>
<path class="st0" d="M42.3,81.4V54.3h-3.9c-1.1,0-1.7-0.6-1.7-1.7v-1.5c0-1.1,0.6-1.7,1.7-1.7h13c1.1,0,1.7,0.6,1.7,1.7v1.5
	c0,1.1-0.6,1.7-1.7,1.7h-3.9v27.1c0,1.1-0.6,1.7-1.7,1.7H44C42.8,83.1,42.3,82.5,42.3,81.4L42.3,81.4z"/>
<path class="st0" d="M57.9,81.5l-3.1-29.8l0-0.6c0-1,0.5-1.5,1.6-1.5h1.7c1.1,0,1.7,0.5,1.7,1.6l2.3,24.2h0.1l2.4-24.2
	c0.1-1.1,0.7-1.6,1.7-1.6h2.6c1.1,0,1.7,0.5,1.7,1.6l2.4,24.2h0.1l2.3-24.2c0.1-1.1,0.7-1.6,1.7-1.6h1.2c1.1,0,1.6,0.5,1.6,1.5
	l0,0.6l-3.1,29.8c-0.1,1.1-0.7,1.6-1.7,1.6h-3.4c-1.1,0-1.7-0.5-1.8-1.6l-2.3-21.1h-0.1l-2.3,21.1c-0.1,1.1-0.7,1.6-1.8,1.6h-3.9
	C58.6,83.1,58,82.6,57.9,81.5L57.9,81.5z"/>
<path class="st0" d="M90.4,83.6c-2.6,0-4.6-0.7-6-2.2s-2.1-3.6-2.1-6.3V57.5c0-2.7,0.7-4.8,2.1-6.3s3.4-2.2,6-2.2s4.6,0.7,6,2.2
	c1.4,1.5,2.1,3.6,2.1,6.3v17.7c0,2.7-0.7,4.8-2.1,6.3S93,83.6,90.4,83.6L90.4,83.6z M93.2,75.5V57.2c0-2.2-0.9-3.3-2.8-3.3
	s-2.8,1.1-2.8,3.3v18.3c0,2.2,0.9,3.3,2.8,3.3S93.2,77.7,93.2,75.5z"/>
<path class="st0" d="M103.8,83.1c-1.1,0-1.7-0.6-1.7-1.7V51.2c0-1.1,0.6-1.7,1.7-1.7h6.2c2.7,0,4.7,0.6,6,1.9
	c1.3,1.3,1.9,3.2,1.9,5.8v2.1c0,3.5-1.2,5.7-3.5,6.6V66c2.4,0.7,3.5,3.1,3.5,7.1V79c0,1.1,0,1.8,0.1,2.2c0.1,0.3,0.1,0.5,0.1,0.6
	c0,0.8-0.5,1.2-1.5,1.2h-2.1c-1.1,0-1.7-0.5-1.8-1.4c-0.1-0.6-0.1-1.5-0.2-2.7v-6.1c0-1.5-0.2-2.6-0.7-3.2c-0.5-0.6-1.3-0.9-2.6-0.9
	h-1.8v12.7c0,1.1-0.6,1.7-1.7,1.7H103.8L103.8,83.1z M109.3,63.9c1.1,0,1.9-0.3,2.4-0.8c0.5-0.5,0.8-1.5,0.8-2.7v-2.6
	c0-2.3-0.9-3.4-2.7-3.5h-2.4v9.6H109.3z"/>
<path class="st0" d="M121.5,81.4V51.2c0-1.1,0.6-1.7,1.7-1.7h1.9c1.1,0,1.7,0.6,1.7,1.7v12.5l6.3-12.9c0.4-0.8,1.1-1.2,2-1.3h1.6
	c1,0,1.5,0.4,1.5,1.1c0,0.3-0.1,0.5-0.3,0.8l-5.4,10.4l5.9,19.2c0.1,0.3,0.1,0.6,0.1,0.8c0,0.8-0.5,1.2-1.5,1.2h-2.1
	c-1,0-1.6-0.5-1.9-1.4L129,68.1l-2.1,4.3v9c0,1.1-0.6,1.7-1.7,1.7h-1.9C122.1,83.1,121.5,82.5,121.5,81.4L121.5,81.4z"/>
</svg>
