<svg xmlns="http://www.w3.org/2000/svg" xmlns:xlink="http://www.w3.org/1999/xlink" width="1080" zoomAndPan="magnify" viewBox="0 0 810 809.999993" height="1080" preserveAspectRatio="xMidYMid meet" version="1.0"><defs><clipPath id="a7036dce4d"><path d="M 0 228 L 350 228 L 350 744.5625 L 0 744.5625 Z M 0 228 " clip-rule="nonzero"/></clipPath></defs><g clip-path="url(#a7036dce4d)"><path fill="#000000" d="M 210.359375 427.859375 C 213.804688 431.992188 218.933594 434.371094 224.277344 434.375 C 224.65625 434.375 225.035156 434.359375 225.414062 434.335938 C 231.160156 433.972656 236.425781 430.875 239.539062 426.023438 L 288.277344 350.039062 C 292.863281 342.890625 291.78125 333.746094 286.21875 327.828125 L 349.667969 233.132812 L 342.136719 228.078125 L 278.550781 322.976562 C 270.910156 320.519531 262.289062 323.363281 257.753906 330.441406 L 222.351562 385.625 L 174.710938 328.601562 C 171.566406 324.835938 167.214844 322.675781 162.695312 322.199219 C 160.957031 321.625 159.105469 321.300781 157.171875 321.300781 L 69.589844 321.300781 C 69.40625 321.300781 69.230469 321.324219 69.050781 321.328125 C 65 321.347656 58.050781 322.183594 50.132812 326.175781 C 37.941406 332.230469 24.789062 345.464844 15.59375 368.910156 C 6.28125 392.453125 0.0351562 426.492188 0 477.890625 C 0.00390625 491.175781 0.429688 505.621094 1.359375 521.347656 C 1.921875 530.992188 9.914062 538.433594 19.449219 538.433594 C 19.804688 538.433594 20.164062 538.421875 20.527344 538.402344 C 30.519531 537.8125 38.152344 529.226562 37.566406 519.21875 C 36.679688 504.136719 36.273438 490.390625 36.277344 477.886719 C 36.195312 422.945312 44.203125 392.089844 52.070312 375.988281 L 52.070312 716.25 C 52.070312 731.742188 64.621094 744.292969 80.09375 744.292969 C 95.574219 744.292969 108.125 731.742188 108.125 716.25 L 108.125 511.492188 L 118.632812 511.492188 L 118.632812 716.25 C 118.632812 731.742188 131.1875 744.292969 146.660156 744.292969 C 162.140625 744.292969 174.691406 731.742188 174.691406 716.25 L 174.691406 385.164062 Z M 210.359375 427.859375 " fill-opacity="1" fill-rule="nonzero"/></g><path fill="#000000" d="M 164.386719 257.339844 C 164.386719 259.007812 164.304688 260.675781 164.140625 262.339844 C 163.976562 264.003906 163.734375 265.65625 163.40625 267.292969 C 163.082031 268.933594 162.675781 270.554688 162.191406 272.152344 C 161.707031 273.753906 161.144531 275.324219 160.503906 276.867188 C 159.863281 278.414062 159.152344 279.921875 158.363281 281.394531 C 157.578125 282.871094 156.71875 284.300781 155.789062 285.691406 C 154.863281 287.082031 153.867188 288.421875 152.808594 289.714844 C 151.75 291.007812 150.628906 292.242188 149.449219 293.425781 C 148.265625 294.609375 147.03125 295.730469 145.738281 296.789062 C 144.445312 297.847656 143.105469 298.84375 141.71875 299.773438 C 140.328125 300.703125 138.898438 301.558594 137.425781 302.347656 C 135.949219 303.136719 134.441406 303.847656 132.898438 304.488281 C 131.355469 305.128906 129.785156 305.691406 128.1875 306.175781 C 126.585938 306.660156 124.96875 307.066406 123.332031 307.394531 C 121.691406 307.71875 120.042969 307.964844 118.378906 308.128906 C 116.714844 308.292969 115.050781 308.375 113.378906 308.375 C 111.710938 308.375 110.042969 308.292969 108.378906 308.128906 C 106.71875 307.964844 105.066406 307.71875 103.429688 307.394531 C 101.789062 307.066406 100.171875 306.660156 98.574219 306.175781 C 96.972656 305.691406 95.402344 305.128906 93.859375 304.488281 C 92.316406 303.847656 90.808594 303.136719 89.335938 302.347656 C 87.863281 301.558594 86.429688 300.703125 85.042969 299.773438 C 83.652344 298.84375 82.3125 297.847656 81.019531 296.789062 C 79.730469 295.730469 78.492188 294.609375 77.3125 293.425781 C 76.128906 292.242188 75.011719 291.007812 73.949219 289.714844 C 72.890625 288.421875 71.894531 287.082031 70.96875 285.691406 C 70.039062 284.300781 69.183594 282.871094 68.394531 281.394531 C 67.609375 279.921875 66.894531 278.414062 66.253906 276.867188 C 65.617188 275.324219 65.054688 273.753906 64.570312 272.152344 C 64.082031 270.554688 63.679688 268.933594 63.351562 267.292969 C 63.027344 265.65625 62.78125 264.003906 62.617188 262.339844 C 62.453125 260.675781 62.371094 259.007812 62.371094 257.339844 C 62.371094 255.667969 62.453125 254 62.617188 252.335938 C 62.78125 250.671875 63.027344 249.019531 63.351562 247.382812 C 63.679688 245.742188 64.082031 244.121094 64.570312 242.523438 C 65.054688 240.921875 65.617188 239.351562 66.253906 237.808594 C 66.894531 236.261719 67.609375 234.753906 68.394531 233.28125 C 69.183594 231.804688 70.039062 230.375 70.96875 228.984375 C 71.894531 227.59375 72.890625 226.253906 73.949219 224.960938 C 75.011719 223.667969 76.128906 222.433594 77.3125 221.25 C 78.492188 220.070312 79.730469 218.945312 81.019531 217.886719 C 82.3125 216.828125 83.652344 215.832031 85.042969 214.902344 C 86.429688 213.976562 87.863281 213.117188 89.335938 212.328125 C 90.808594 211.539062 92.316406 210.828125 93.859375 210.1875 C 95.402344 209.546875 96.972656 208.984375 98.574219 208.5 C 100.171875 208.015625 101.789062 207.609375 103.429688 207.28125 C 105.066406 206.957031 106.71875 206.710938 108.378906 206.546875 C 110.042969 206.382812 111.710938 206.300781 113.378906 206.300781 C 115.050781 206.300781 116.714844 206.382812 118.378906 206.546875 C 120.042969 206.710938 121.691406 206.957031 123.332031 207.28125 C 124.96875 207.609375 126.585938 208.015625 128.1875 208.5 C 129.785156 208.984375 131.355469 209.546875 132.898438 210.1875 C 134.441406 210.828125 135.949219 211.539062 137.425781 212.328125 C 138.898438 213.117188 140.328125 213.976562 141.71875 214.902344 C 143.105469 215.832031 144.445312 216.828125 145.738281 217.886719 C 147.03125 218.945312 148.265625 220.070312 149.449219 221.25 C 150.628906 222.433594 151.75 223.667969 152.808594 224.960938 C 153.867188 226.253906 154.863281 227.59375 155.789062 228.984375 C 156.71875 230.375 157.578125 231.804688 158.363281 233.28125 C 159.152344 234.753906 159.863281 236.261719 160.503906 237.808594 C 161.144531 239.351562 161.707031 240.921875 162.191406 242.523438 C 162.675781 244.121094 163.082031 245.742188 163.40625 247.382812 C 163.734375 249.019531 163.976562 250.671875 164.140625 252.335938 C 164.304688 254 164.386719 255.667969 164.386719 257.339844 Z M 164.386719 257.339844 " fill-opacity="1" fill-rule="nonzero"/><path fill="#000000" d="M 729.019531 66.082031 L 130.527344 66.082031 L 130.527344 180.566406 L 141.863281 180.566406 L 141.863281 77.414062 L 717.679688 77.414062 L 717.679688 392.707031 L 297.386719 392.707031 L 297.386719 404.054688 L 729.019531 404.054688 Z M 729.019531 66.082031 " fill-opacity="1" fill-rule="nonzero"/><path fill="#000000" d="M 365.566406 552.382812 C 365.566406 554.054688 365.484375 555.71875 365.320312 557.382812 C 365.160156 559.046875 364.914062 560.699219 364.585938 562.339844 C 364.261719 563.976562 363.855469 565.597656 363.371094 567.195312 C 362.886719 568.796875 362.324219 570.367188 361.683594 571.910156 C 361.046875 573.457031 360.332031 574.964844 359.542969 576.4375 C 358.757812 577.914062 357.898438 579.34375 356.972656 580.734375 C 356.042969 582.125 355.050781 583.464844 353.988281 584.757812 C 352.929688 586.050781 351.808594 587.289062 350.628906 588.46875 C 349.445312 589.652344 348.210938 590.773438 346.917969 591.832031 C 345.628906 592.894531 344.289062 593.886719 342.898438 594.816406 C 341.507812 595.746094 340.078125 596.601562 338.605469 597.390625 C 337.132812 598.179688 335.625 598.894531 334.078125 599.53125 C 332.535156 600.171875 330.964844 600.734375 329.367188 601.21875 C 327.769531 601.703125 326.148438 602.109375 324.511719 602.4375 C 322.871094 602.761719 321.222656 603.007812 319.558594 603.171875 C 317.898438 603.335938 316.230469 603.417969 314.558594 603.417969 C 312.890625 603.417969 311.222656 603.335938 309.5625 603.171875 C 307.898438 603.007812 306.246094 602.761719 304.609375 602.4375 C 302.96875 602.109375 301.351562 601.703125 299.753906 601.21875 C 298.15625 600.734375 296.582031 600.171875 295.039062 599.53125 C 293.496094 598.894531 291.988281 598.179688 290.515625 597.390625 C 289.042969 596.601562 287.609375 595.746094 286.222656 594.816406 C 284.832031 593.886719 283.492188 592.894531 282.203125 591.832031 C 280.910156 590.773438 279.671875 589.652344 278.492188 588.46875 C 277.3125 587.289062 276.191406 586.050781 275.128906 584.757812 C 274.070312 583.464844 273.078125 582.125 272.148438 580.734375 C 271.222656 579.34375 270.363281 577.914062 269.574219 576.4375 C 268.789062 574.964844 268.074219 573.457031 267.433594 571.910156 C 266.796875 570.367188 266.234375 568.796875 265.75 567.195312 C 265.265625 565.597656 264.859375 563.976562 264.53125 562.339844 C 264.207031 560.699219 263.960938 559.046875 263.796875 557.382812 C 263.632812 555.71875 263.550781 554.054688 263.550781 552.382812 C 263.550781 550.710938 263.632812 549.042969 263.796875 547.378906 C 263.960938 545.714844 264.207031 544.0625 264.53125 542.425781 C 264.859375 540.785156 265.265625 539.164062 265.75 537.566406 C 266.234375 535.96875 266.796875 534.394531 267.433594 532.851562 C 268.074219 531.304688 268.789062 529.796875 269.574219 528.324219 C 270.363281 526.847656 271.222656 525.417969 272.148438 524.027344 C 273.078125 522.636719 274.070312 521.296875 275.128906 520.003906 C 276.191406 518.710938 277.3125 517.476562 278.492188 516.292969 C 279.671875 515.113281 280.910156 513.992188 282.203125 512.929688 C 283.492188 511.871094 284.832031 510.875 286.222656 509.945312 C 287.609375 509.019531 289.042969 508.160156 290.515625 507.371094 C 291.988281 506.582031 293.496094 505.871094 295.039062 505.230469 C 296.582031 504.589844 298.15625 504.027344 299.753906 503.542969 C 301.351562 503.058594 302.96875 502.652344 304.609375 502.328125 C 306.246094 502 307.898438 501.753906 309.5625 501.589844 C 311.222656 501.425781 312.890625 501.34375 314.558594 501.34375 C 316.230469 501.34375 317.898438 501.425781 319.558594 501.589844 C 321.222656 501.753906 322.871094 502 324.511719 502.328125 C 326.148438 502.652344 327.769531 503.058594 329.367188 503.542969 C 330.964844 504.027344 332.535156 504.589844 334.078125 505.230469 C 335.625 505.871094 337.132812 506.582031 338.605469 507.371094 C 340.078125 508.160156 341.507812 509.019531 342.898438 509.945312 C 344.289062 510.875 345.628906 511.871094 346.917969 512.929688 C 348.210938 513.992188 349.445312 515.113281 350.628906 516.292969 C 351.808594 517.476562 352.929688 518.710938 353.988281 520.003906 C 355.050781 521.296875 356.042969 522.636719 356.972656 524.027344 C 357.898438 525.417969 358.757812 526.847656 359.542969 528.324219 C 360.332031 529.796875 361.046875 531.304688 361.683594 532.851562 C 362.324219 534.394531 362.886719 535.96875 363.371094 537.566406 C 363.855469 539.164062 364.261719 540.785156 364.585938 542.425781 C 364.914062 544.0625 365.160156 545.714844 365.320312 547.378906 C 365.484375 549.042969 365.566406 550.710938 365.566406 552.382812 Z M 365.566406 552.382812 " fill-opacity="1" fill-rule="nonzero"/><path fill="#000000" d="M 557.128906 552.382812 C 557.128906 554.054688 557.046875 555.71875 556.882812 557.382812 C 556.71875 559.046875 556.476562 560.699219 556.148438 562.339844 C 555.824219 563.976562 555.417969 565.597656 554.933594 567.195312 C 554.449219 568.796875 553.886719 570.367188 553.246094 571.910156 C 552.605469 573.457031 551.894531 574.964844 551.105469 576.4375 C 550.320312 577.914062 549.460938 579.34375 548.53125 580.734375 C 547.605469 582.125 546.609375 583.464844 545.550781 584.757812 C 544.492188 586.050781 543.371094 587.289062 542.191406 588.46875 C 541.007812 589.652344 539.773438 590.773438 538.480469 591.832031 C 537.1875 592.894531 535.847656 593.886719 534.460938 594.816406 C 533.070312 595.746094 531.640625 596.601562 530.167969 597.390625 C 528.691406 598.179688 527.183594 598.894531 525.640625 599.53125 C 524.097656 600.171875 522.527344 600.734375 520.929688 601.21875 C 519.328125 601.703125 517.710938 602.109375 516.074219 602.4375 C 514.433594 602.761719 512.785156 603.007812 511.121094 603.171875 C 509.457031 603.335938 507.792969 603.417969 506.121094 603.417969 C 504.453125 603.417969 502.785156 603.335938 501.121094 603.171875 C 499.460938 603.007812 497.808594 602.761719 496.171875 602.4375 C 494.53125 602.109375 492.914062 601.703125 491.316406 601.21875 C 489.714844 600.734375 488.144531 600.171875 486.601562 599.53125 C 485.058594 598.894531 483.550781 598.179688 482.078125 597.390625 C 480.605469 596.601562 479.171875 595.746094 477.785156 594.816406 C 476.394531 593.886719 475.054688 592.894531 473.761719 591.832031 C 472.472656 590.773438 471.234375 589.652344 470.054688 588.46875 C 468.871094 587.289062 467.753906 586.050781 466.691406 584.757812 C 465.632812 583.464844 464.640625 582.125 463.710938 580.734375 C 462.78125 579.34375 461.925781 577.914062 461.136719 576.4375 C 460.351562 574.964844 459.636719 573.457031 458.996094 571.910156 C 458.359375 570.367188 457.796875 568.796875 457.3125 567.195312 C 456.824219 565.597656 456.421875 563.976562 456.09375 562.339844 C 455.769531 560.699219 455.523438 559.046875 455.359375 557.382812 C 455.195312 555.71875 455.113281 554.054688 455.113281 552.382812 C 455.113281 550.710938 455.195312 549.042969 455.359375 547.378906 C 455.523438 545.714844 455.769531 544.0625 456.09375 542.425781 C 456.421875 540.785156 456.824219 539.164062 457.3125 537.566406 C 457.796875 535.96875 458.359375 534.394531 458.996094 532.851562 C 459.636719 531.304688 460.351562 529.796875 461.136719 528.324219 C 461.925781 526.847656 462.78125 525.417969 463.710938 524.027344 C 464.640625 522.636719 465.632812 521.296875 466.691406 520.003906 C 467.753906 518.710938 468.871094 517.476562 470.054688 516.292969 C 471.234375 515.113281 472.472656 513.992188 473.761719 512.929688 C 475.054688 511.871094 476.394531 510.875 477.785156 509.945312 C 479.171875 509.019531 480.605469 508.160156 482.078125 507.371094 C 483.550781 506.582031 485.058594 505.871094 486.601562 505.230469 C 488.144531 504.589844 489.714844 504.027344 491.316406 503.542969 C 492.914062 503.058594 494.53125 502.652344 496.171875 502.328125 C 497.808594 502 499.460938 501.753906 501.121094 501.589844 C 502.785156 501.425781 504.453125 501.34375 506.121094 501.34375 C 507.792969 501.34375 509.457031 501.425781 511.121094 501.589844 C 512.785156 501.753906 514.433594 502 516.074219 502.328125 C 517.710938 502.652344 519.328125 503.058594 520.929688 503.542969 C 522.527344 504.027344 524.097656 504.589844 525.640625 505.230469 C 527.183594 505.871094 528.695312 506.582031 530.167969 507.371094 C 531.640625 508.160156 533.070312 509.019531 534.460938 509.945312 C 535.847656 510.875 537.1875 511.871094 538.480469 512.929688 C 539.773438 513.992188 541.007812 515.113281 542.191406 516.292969 C 543.371094 517.476562 544.492188 518.710938 545.550781 520.003906 C 546.609375 521.296875 547.605469 522.636719 548.53125 524.027344 C 549.460938 525.417969 550.320312 526.847656 551.105469 528.324219 C 551.894531 529.796875 552.605469 531.304688 553.246094 532.851562 C 553.886719 534.394531 554.449219 535.96875 554.933594 537.566406 C 555.417969 539.164062 555.824219 540.785156 556.148438 542.425781 C 556.476562 544.0625 556.71875 545.714844 556.882812 547.378906 C 557.046875 549.042969 557.128906 550.710938 557.128906 552.382812 Z M 557.128906 552.382812 " fill-opacity="1" fill-rule="nonzero"/><path fill="#000000" d="M 253.25 671.046875 L 253.25 739.832031 L 375.875 739.832031 L 375.875 671.148438 C 377.21875 673.90625 378.574219 677.066406 379.914062 680.757812 C 384.585938 693.71875 388.707031 712.789062 390.578125 739.832031 L 430.074219 739.832031 C 432.488281 705.042969 438.691406 683.570312 444.8125 671.042969 L 444.8125 739.832031 L 567.4375 739.832031 L 567.4375 671.144531 C 568.78125 673.90625 570.136719 677.066406 571.476562 680.757812 C 576.148438 693.71875 580.269531 712.789062 582.140625 739.832031 L 621.632812 739.832031 C 624.050781 705.042969 630.253906 683.570312 636.371094 671.042969 L 636.371094 739.832031 L 759 739.832031 L 759 671.144531 C 760.34375 673.90625 761.699219 677.066406 763.035156 680.757812 C 767.710938 693.71875 771.832031 712.789062 773.703125 739.832031 L 810.039062 739.832031 C 807.015625 691.734375 797.425781 662.609375 785.125 643.800781 C 777.679688 632.492188 768.96875 625.238281 760.917969 621.222656 C 753.171875 617.308594 746.359375 616.433594 742.273438 616.378906 C 742.007812 616.367188 741.746094 616.335938 741.476562 616.335938 L 653.890625 616.335938 C 653.585938 616.335938 653.292969 616.367188 652.992188 616.382812 C 648.894531 616.441406 642.128906 617.335938 634.441406 621.21875 C 623.089844 626.847656 610.925781 638.703125 601.878906 659.214844 C 599.296875 653.410156 596.507812 648.304688 593.5625 643.800781 C 586.117188 632.492188 577.40625 625.238281 569.351562 621.21875 C 561.609375 617.308594 554.796875 616.429688 550.710938 616.375 C 550.445312 616.367188 550.183594 616.335938 549.910156 616.335938 L 462.324219 616.335938 C 462.023438 616.335938 461.726562 616.367188 461.429688 616.378906 C 457.332031 616.4375 450.566406 617.335938 442.878906 621.21875 C 431.527344 626.84375 419.363281 638.703125 410.316406 659.214844 C 407.734375 653.410156 404.945312 648.300781 402 643.796875 C 394.550781 632.488281 385.839844 625.234375 377.789062 621.21875 C 370.046875 617.304688 363.234375 616.429688 359.144531 616.375 C 358.878906 616.363281 358.621094 616.332031 358.347656 616.332031 L 270.761719 616.332031 C 270.457031 616.332031 270.160156 616.363281 269.863281 616.378906 C 265.765625 616.4375 259.003906 617.335938 251.3125 621.214844 C 239.113281 627.261719 225.96875 640.496094 216.769531 663.953125 C 209.625 682.015625 204.296875 706.300781 202.183594 739.824219 L 238.503906 739.824219 C 240.925781 705.042969 247.128906 683.574219 253.25 671.046875 Z M 253.25 671.046875 " fill-opacity="1" fill-rule="nonzero"/><path fill="#000000" d="M 748.691406 552.382812 C 748.691406 554.054688 748.609375 555.71875 748.445312 557.382812 C 748.28125 559.046875 748.035156 560.699219 747.710938 562.339844 C 747.386719 563.976562 746.980469 565.597656 746.496094 567.195312 C 746.011719 568.796875 745.449219 570.367188 744.808594 571.910156 C 744.167969 573.457031 743.457031 574.964844 742.667969 576.4375 C 741.878906 577.914062 741.023438 579.34375 740.09375 580.734375 C 739.167969 582.125 738.171875 583.464844 737.113281 584.757812 C 736.054688 586.050781 734.933594 587.289062 733.75 588.46875 C 732.570312 589.652344 731.332031 590.773438 730.042969 591.832031 C 728.75 592.894531 727.410156 593.886719 726.023438 594.816406 C 724.632812 595.746094 723.203125 596.601562 721.726562 597.390625 C 720.253906 598.179688 718.746094 598.894531 717.203125 599.53125 C 715.660156 600.171875 714.089844 600.734375 712.492188 601.21875 C 710.890625 601.703125 709.273438 602.109375 707.632812 602.4375 C 705.996094 602.761719 704.347656 603.007812 702.683594 603.171875 C 701.019531 603.335938 699.355469 603.417969 697.683594 603.417969 C 696.011719 603.417969 694.347656 603.335938 692.683594 603.171875 C 691.019531 603.007812 689.371094 602.761719 687.734375 602.4375 C 686.09375 602.109375 684.476562 601.703125 682.875 601.21875 C 681.277344 600.734375 679.707031 600.171875 678.164062 599.53125 C 676.621094 598.894531 675.113281 598.179688 673.640625 597.390625 C 672.164062 596.601562 670.734375 595.746094 669.34375 594.816406 C 667.957031 593.886719 666.617188 592.894531 665.324219 591.832031 C 664.035156 590.773438 662.796875 589.652344 661.617188 588.46875 C 660.433594 587.289062 659.3125 586.050781 658.253906 584.757812 C 657.195312 583.464844 656.199219 582.125 655.273438 580.734375 C 654.34375 579.34375 653.488281 577.914062 652.699219 576.4375 C 651.910156 574.964844 651.199219 573.457031 650.558594 571.910156 C 649.917969 570.367188 649.355469 568.796875 648.871094 567.195312 C 648.386719 565.597656 647.980469 563.976562 647.65625 562.339844 C 647.332031 560.699219 647.085938 559.046875 646.921875 557.382812 C 646.757812 555.71875 646.675781 554.054688 646.675781 552.382812 C 646.675781 550.710938 646.757812 549.042969 646.921875 547.378906 C 647.085938 545.714844 647.332031 544.0625 647.65625 542.425781 C 647.980469 540.785156 648.386719 539.164062 648.871094 537.566406 C 649.355469 535.96875 649.917969 534.394531 650.558594 532.851562 C 651.199219 531.304688 651.910156 529.796875 652.699219 528.324219 C 653.488281 526.847656 654.34375 525.417969 655.273438 524.027344 C 656.199219 522.636719 657.195312 521.296875 658.253906 520.003906 C 659.3125 518.710938 660.433594 517.476562 661.617188 516.292969 C 662.796875 515.113281 664.035156 513.992188 665.324219 512.929688 C 666.617188 511.871094 667.957031 510.875 669.34375 509.945312 C 670.734375 509.019531 672.164062 508.160156 673.640625 507.371094 C 675.113281 506.582031 676.621094 505.871094 678.164062 505.230469 C 679.707031 504.589844 681.277344 504.027344 682.875 503.542969 C 684.476562 503.058594 686.09375 502.652344 687.734375 502.328125 C 689.371094 502 691.019531 501.753906 692.683594 501.589844 C 694.347656 501.425781 696.011719 501.34375 697.683594 501.34375 C 699.355469 501.34375 701.019531 501.425781 702.683594 501.589844 C 704.347656 501.753906 705.996094 502 707.632812 502.328125 C 709.273438 502.652344 710.890625 503.058594 712.492188 503.542969 C 714.089844 504.027344 715.660156 504.589844 717.203125 505.230469 C 718.746094 505.871094 720.253906 506.582031 721.726562 507.371094 C 723.203125 508.160156 724.632812 509.019531 726.023438 509.945312 C 727.410156 510.875 728.75 511.871094 730.042969 512.929688 C 731.332031 513.992188 732.570312 515.113281 733.75 516.292969 C 734.933594 517.476562 736.054688 518.710938 737.113281 520.003906 C 738.171875 521.296875 739.167969 522.636719 740.09375 524.027344 C 741.023438 525.417969 741.878906 526.847656 742.667969 528.324219 C 743.457031 529.796875 744.167969 531.304688 744.808594 532.851562 C 745.449219 534.394531 746.011719 535.96875 746.496094 537.566406 C 746.980469 539.164062 747.386719 540.785156 747.710938 542.425781 C 748.035156 544.0625 748.28125 545.714844 748.445312 547.378906 C 748.609375 549.042969 748.691406 550.710938 748.691406 552.382812 Z M 748.691406 552.382812 " fill-opacity="1" fill-rule="nonzero"/></svg>