<?xml version="1.0" encoding="UTF-8"?>
<svg id="Capa_1" xmlns="http://www.w3.org/2000/svg" viewBox="0 0 1062 1240">
  <path d="M537.44,861.41c21.91-6.71,42.19-12.99,62.5-19.13,46.18-13.96,92.39-27.87,138.59-41.78,10.13-3.05,20.44-3.14,30.63-.76,13.02,3.03,22.39,11.15,29.56,22.23,12.32,19.01,24.85,37.88,37.25,56.83,3.46,5.29,6.96,10.58,10.13,16.05,5.03,8.66,5.25,17.56.87,22.46-4.43,4.95-13.28,5.71-22.39,1.52-3.59-1.65-7.33-3.55-10.13-6.25-7.42-7.15-16.24-10.08-26.24-10.49-3.99-.16-7.98-.49-11.95-.97-13.96-1.67-23.05-9.14-27.54-22.6-5.6-16.78-7.93-18.11-25.29-12.8-47.73,14.6-95.33,29.64-143.05,44.26-22.33,6.84-44.32,14.31-64.61,26.17-3.96,2.31-8.54,3.69-12.97,5.05-19.85,6.09-37.68-9.26-41.08-25.18-3.26-15.26-.7-29.95,5.22-43.93,11.98-28.29,27.76-54.58,43.8-80.7,7.65-12.46,15.46-24.82,24.21-38.84-4.16,1.15-6.68,1.56-8.97,2.52-14.74,6.16-29.63,12.02-44.06,18.85-8.36,3.96-16.46,8.87-23.78,14.52-25.3,19.56-50.18,39.66-75.28,59.49-4.89,3.86-7.64,8.58-9.42,14.7-4.55,15.69-13.69,28.78-28.99,35.06-19.55,8.02-32.43,22.63-44.34,38.94-49.34,67.52-98.67,135.05-148.31,202.34-9.67,13.1-20.46,25.42-31.23,37.66-13.26,15.07-25.67,30.52-33.53,49.32-5.07,12.12-11.13,15.58-20.15,13.61-6.82-1.49-9.93-7.24-11.17-19.14-2.14-20.49,1.78-39.76,10.91-58.1,2.23-4.47,4.57-8.9,6.44-13.52,2.54-6.28,3.45-12.66,1.49-19.51-1.82-6.37-2.94-13-3.82-19.58-1.96-14.63,4.75-25.52,18.83-30.06,6.3-2.03,12.91-3.65,19.48-4.18,18.01-1.47,31.18-10.2,41.19-24.85,15.22-22.28,30.72-44.37,46.16-66.51,20.96-30.06,41.91-60.13,63.02-90.09,7-9.93,12.12-20.55,14.8-32.45,4.68-20.78,16.86-36.28,35.69-45.66,11.22-5.59,21.17-12.62,30.47-20.66,24.45-21.13,48.7-42.49,72.8-64.03,5.93-5.3,11.25-11.38,16.33-17.53,4.45-5.38,3.97-9.73-1.97-13.37-5.29-3.24-11.32-5.55-17.29-7.38-21.94-6.74-44.07-12.89-66-19.67-26.23-8.11-51.06-19.28-73.45-35.4-10.79-7.77-23.2-9.8-36-10-33.6-.51-64.53,8.26-92.32,27.39-10.22,7.04-20.64,13.79-33.4,14.68-5.16.36-11.16.49-15.54-1.73-24.96-12.61-49.58-25.78-71.55-43.51-18.91-15.26-25.27-34-20.43-57.55,6.62-32.17,21.19-59.4,47.56-79.58,12.57-9.61,27.02-15.61,41.95-20.58,28.99-9.65,59.01-13.3,89.26-15.86,36.83-3.12,73.75-5.64,110.43-10.09,35.27-4.28,68.81-14.86,99.9-32.84,38.72-22.39,79.19-41.05,122.05-54.2,54.29-16.66,109.69-24.99,166.55-20.9,22.05,1.58,43.16,8.11,63.93,15.27,33.66,11.6,67.12,23.79,100.68,35.69,24.35,8.63,49.17,14.82,75.29,12.3,10.24-.99,20.81-1.58,30.48-4.68,24.29-7.78,42.51-22.7,51.36-47.73,7.4-20.93,13.07-41.92,9.49-64.45-1.83-11.51-6.4-21.53-13.74-30.54-13.32-16.36-28.7-30.56-44.72-44.2-13.44-11.44-26.91-22.94-39.39-35.39-26.64-26.59-41.07-58.73-40.48-96.78.29-18.34,5.44-35.49,15.69-50.85,8.5-12.74,20.76-19.34,35.85-20.83,17.22-1.7,33.16,1.86,47.27,12.16,5.65,4.12,11.4,8.2,16.5,12.94,13.32,12.37,28.9,19.78,46.57,23.7,6.32,1.4,12.28,4.78,18.15,7.75,2.24,1.13,4.07,3.46,5.55,5.61,3.93,5.74,3.3,10.36-2.96,13.12-5.95,2.62-12.63,4.56-19.08,4.87-13.63.66-27.34-.48-40.97.14-11.26.51-22.51,2.13-33.67,3.89-23.65,3.74-29.26,31.04-15.39,45.36,10.64,10.98,21.82,21.47,33.25,31.62,9.96,8.84,20.74,16.75,30.93,25.33,36.86,31.06,53.69,70.95,52.56,118.93-1.2,50.96-22.83,93.19-55.92,130.19-25.76,28.8-56.57,51.67-90.16,70.53-14.74,8.27-21.43,19.36-21.25,36.29.29,26.47-3.78,52.44-13.2,77.36-7.53,19.92-18.24,37.7-34.82,51.56-8.61,7.2-18.63,11.59-29,15.27-38.34,13.6-77.7,23.46-117.52,31.57-12.39,2.52-24.8,4.96-37.19,7.52-16.87,3.48-31.38,12.1-42.99,24.11-31.13,32.23-56.5,69.03-81.27,106.22-.53.79-.7,1.82-1.67,4.48Z"/>
</svg>