<svg width="171" height="153" viewBox="0 0 171 153" fill="none" xmlns="http://www.w3.org/2000/svg">
<g clip-path="url(#clip0_703_585)">
<path d="M120.587 59.2324H106.066V70.2757H120.587V59.2324Z" fill="white"/>
<path d="M97.9615 76.5H83.4404V87.5433H97.9615V76.5Z" fill="white"/>
<path d="M163.037 62.8465V39.3543H152.062V24.0945H144.633V39.3543H133.657V62.8465H127.579V10.0394H115.253V5.01968H98.8743V0H82.6647V5.01968H67.2994V10.0394H53.9602V62.6457H46.8685V39.1535H35.8933V23.8937H28.4639V39.1535H17.4887V62.6457H10.397V145.972H26.6066V116.457H37.7507V145.972H81.3139V111.638H100.225V145.972H126.566V146.173H142.775V116.657H153.919V146.173H170.129V62.8465H163.037ZM16.2223 72.8858H22.6386V78.9094H16.2223V72.8858ZM16.3067 89.752H22.723V95.7756H16.3067V89.752ZM22.8074 112.642H16.3911V106.618H22.8074V112.642ZM39.608 58.2283H24.7492V54.6142H39.608V58.2283ZM39.608 53.0079H24.7492V49.3937H39.608V53.0079ZM39.608 47.7874H24.7492V44.1732H39.608V47.7874ZM41.7186 72.8858H48.1349V78.9094H41.7186V72.8858ZM41.8031 89.752H48.2193V95.7756H41.8031V89.752ZM48.3038 112.642H41.8875V106.618H48.3038V112.642ZM74.5599 102.602H62.7404V96.3779H74.5599V102.602ZM74.5599 84.7323H62.7404V78.5079H74.5599V84.7323ZM74.5599 66.8622H62.7404V60.6378H74.5599V66.8622ZM74.5599 48.9921H62.7404V42.7677H74.5599V48.9921ZM74.5599 31.122H62.7404V24.8976H74.5599V31.122ZM96.6793 102.602H84.8598V96.3779H96.6793V102.602ZM96.6793 84.7323H84.8598V78.5079H96.6793V84.7323ZM96.6793 66.8622H84.8598V60.6378H96.6793V66.8622ZM96.6793 48.9921H84.8598V42.7677H96.6793V48.9921ZM96.6793 31.122H84.8598V24.8976H96.6793V31.122ZM118.799 102.602H106.979V96.3779H118.799V102.602ZM118.799 84.7323H106.979V78.5079H118.799V84.7323ZM118.799 66.8622H106.979V60.6378H118.799V66.8622ZM118.799 48.9921H106.979V42.7677H118.799V48.9921ZM118.799 31.122H106.979V24.8976H118.799V31.122ZM132.391 73.0866H138.807V79.1102H132.391V73.0866ZM132.475 89.9527H138.892V95.9764H132.475V89.9527ZM138.976 112.843H132.56V106.819H138.976V112.843ZM155.777 58.4291H140.918V54.815H155.777V58.4291ZM155.777 53.2087H140.918V49.5945H155.777V53.2087ZM155.777 47.9882H140.918V44.374H155.777V47.9882ZM157.887 73.0866H164.304V79.1102H157.887V73.0866ZM157.972 89.9527H164.388V95.9764H157.972V89.9527ZM164.472 112.843H158.056V106.819H164.472V112.843Z" fill="#A18671"/>
<path d="M20.3907 125.635C20.3435 126.43 20.2696 127.318 20.1553 128.252L22.2196 125.529L22.231 125.575C22.1047 124.92 21.9014 124.289 21.6271 123.701L21.6403 123.744L20.3907 125.635Z" fill="white"/>
<path d="M20.3989 125.495L21.6094 123.663C21.3519 123.104 20.9794 122.632 20.5267 122.291C20.5045 122.276 20.4822 122.261 20.4599 122.246C20.4666 122.462 20.4983 123.733 20.3989 125.495Z" fill="white"/>
<path d="M19.3069 132.677C19.2537 132.87 19.1988 133.059 19.1421 133.245L22.1822 131.125L22.1864 131.178C22.25 130.849 22.3029 130.519 22.3451 130.189L19.3096 132.702L19.3069 132.677Z" fill="white"/>
<path d="M19.7295 130.898L22.4675 128.213L22.4753 128.263C22.485 127.375 22.4061 126.489 22.2405 125.623L20.1369 128.397C20.0264 129.272 19.8906 130.105 19.7295 130.898Z" fill="white"/>
<path d="M20.0902 128.345L16.814 123.998L16.8315 123.949C16.5235 124.465 16.2602 125.016 16.0454 125.595L19.7841 130.328C19.9122 129.637 20.0122 128.968 20.0902 128.345Z" fill="white"/>
<path d="M16.0098 125.692L16.0099 125.692C16.0158 125.676 16.0209 125.659 16.0269 125.643L16.0098 125.692Z" fill="white"/>
<path d="M15.8279 126.225L15.811 126.274C15.8164 126.257 15.8225 126.242 15.8279 126.225Z" fill="white"/>
<path d="M19.7623 130.442L16.01 125.691C15.9465 125.864 15.8858 126.042 15.8276 126.225L19.6627 130.945C19.6976 130.776 19.7308 130.609 19.7623 130.442Z" fill="white"/>
<path d="M22.353 130.125C22.4277 129.527 22.4685 128.924 22.4749 128.32L19.6999 131.042C19.5899 131.57 19.4689 132.077 19.3369 132.564L22.3471 130.073L22.353 130.125Z" fill="white"/>
<path d="M15.3303 130.463L18.3677 135.176C18.6172 134.602 18.8376 134.011 19.0277 133.406L15.3215 128.777C15.2848 129.356 15.2807 129.937 15.3093 130.516L15.3303 130.463Z" fill="white"/>
<path d="M20.4043 122.243L20.4315 122.228C19.7663 121.806 19.0462 121.851 18.356 122.279L20.3452 125.492C20.4523 123.585 20.405 122.262 20.4043 122.243Z" fill="white"/>
<path d="M19.0433 133.559C18.869 134.103 18.6698 134.636 18.4468 135.154L21.502 133.275L21.5051 133.327C21.7353 132.865 21.9153 132.369 22.0408 131.853C22.0893 131.65 22.1336 131.446 22.1736 131.242L19.0973 133.387C19.0794 133.445 19.0616 133.502 19.0433 133.559Z" fill="white"/>
<path d="M20.3373 125.634L18.3024 122.348L18.3215 122.301C17.7391 122.701 17.2386 123.251 16.856 123.909L20.1055 128.22C20.2179 127.297 20.2908 126.419 20.3373 125.634Z" fill="white"/>
<path d="M19.0608 133.301C19.2874 132.566 19.4805 131.817 19.6393 131.058L15.7947 126.326C15.7032 126.622 15.6191 126.929 15.5425 127.248C15.4362 127.706 15.3653 128.175 15.3306 128.648L19.0579 133.303L19.0608 133.301Z" fill="white"/>
<path d="M23.0099 138.405C22.5475 138.981 22.014 139.61 21.4253 140.242L24.4754 139.711L24.4597 139.755C24.7139 139.154 24.8956 138.514 24.9996 137.854L24.9867 137.897L23.0099 138.405Z" fill="white"/>
<path d="M24.9077 135.933C24.899 135.904 24.8898 135.876 24.8805 135.848C24.7695 136.019 24.1127 137.022 23.0908 138.304L25.0057 137.811C25.1071 137.185 25.0734 136.539 24.9077 135.933Z" fill="white"/>
<path d="M18.3976 143.008C18.2533 143.116 18.1095 143.22 17.9663 143.32L21.4447 143.993L21.4194 144.037C21.6451 143.832 21.8626 143.618 22.072 143.396L18.3867 143.029L18.3976 143.008Z" fill="white"/>
<path d="M19.6777 141.959L23.2268 141.967L23.2058 142.012C23.6894 141.335 24.104 140.593 24.4409 139.801L21.3326 140.342C20.7785 140.932 20.2269 141.471 19.6777 141.959Z" fill="white"/>
<path d="M18.481 142.944L22.1355 143.308L22.1122 143.353C22.4903 142.949 22.845 142.516 23.1739 142.056L19.5769 142.047C19.2091 142.37 18.8438 142.669 18.481 142.944Z" fill="white"/>
<path d="M14.005 145.094C14.0309 145.063 14.0583 145.029 14.0853 144.996C14.8305 144.855 15.5587 144.608 16.2542 144.259L16.3535 141.127C16.383 141.048 16.4116 140.967 16.4394 140.886L16.3337 144.22C16.8336 143.967 17.3202 143.679 17.7911 143.357L17.4517 137.535C17.4779 137.519 17.5042 137.502 17.5314 137.485L17.8703 143.3L17.8736 143.301C18.4423 142.907 18.9926 142.477 19.5223 142.012L19.1528 136.282C19.179 136.259 19.205 136.237 19.2313 136.214L19.6008 141.943C19.718 141.84 19.8334 141.736 19.947 141.632L19.6422 135.832C19.6683 135.806 19.6943 135.781 19.7204 135.755L20.0255 141.559C20.4947 141.124 20.9305 140.685 21.3248 140.264L21.133 134.431L21.1729 134.407C21.0367 134.449 20.8983 134.499 20.7587 134.554C21.0212 134.197 21.2573 133.815 21.4644 133.41L18.38 135.307C18.1664 135.79 17.9263 136.255 17.6611 136.699C17.606 136.761 17.5508 136.823 17.4965 136.888L17.5006 136.957C17.4754 136.997 17.4504 137.037 17.4249 137.075L17.4194 136.981C17.3805 137.029 17.3425 137.079 17.304 137.128C17.6946 136.548 18.0374 135.925 18.3277 135.267L15.3126 130.589C15.3331 131.007 15.3675 131.428 15.4117 131.845C15.1318 131.304 14.7918 130.81 14.401 130.377L14.4247 130.413L13.7279 132.671C13.8894 133.444 14.0501 134.316 14.184 135.246L15.4224 131.944C15.428 131.995 15.434 132.047 15.44 132.098L14.2046 135.392C14.3268 136.264 14.4143 137.106 14.4671 137.919L15.9498 135.15C15.9583 135.19 15.9668 135.23 15.9752 135.269L14.4766 138.068C14.5092 138.61 14.526 139.137 14.527 139.649L16.3395 136.806C16.3491 136.843 16.3586 136.879 16.368 136.915L14.5364 139.789L14.5275 139.767C14.5269 139.969 14.5239 140.17 14.5182 140.367L16.5626 137.63C16.5735 137.668 16.5836 137.703 16.5929 137.735L14.5131 140.52C14.511 140.581 14.5091 140.642 14.5065 140.703C14.4821 141.285 14.4312 141.864 14.3538 142.44L14.5511 142.202C14.5138 142.294 14.4774 142.385 14.4419 142.475L14.3297 142.61C14.3168 142.698 14.3021 142.784 14.288 142.87C14.2466 142.978 14.2066 143.084 14.1682 143.187C14.2053 142.989 14.2399 142.791 14.2694 142.59L10.186 139.25C11.2514 142.491 13.2575 145.574 13.3859 145.77C13.4902 145.538 13.5849 145.3 13.6719 145.057C13.6971 145.054 13.7224 145.051 13.7476 145.048C13.7372 145.078 13.7264 145.107 13.7157 145.137C13.703 145.138 13.6901 145.141 13.6774 145.142C13.6873 145.145 13.6992 145.149 13.7099 145.153C13.6486 145.323 13.5852 145.49 13.5171 145.651C13.6062 145.556 13.7419 145.405 13.9042 145.214C14.8644 145.506 17.4512 146.129 19.6661 145.208L16.2726 144.33C15.5463 144.696 14.7846 144.953 14.005 145.094ZM16.3896 139.988L16.471 139.89L16.4663 140.037L16.385 140.135L16.3896 139.988Z" fill="white"/>
<path d="M24.8398 135.803L24.8685 135.812C24.5829 134.982 24.0039 134.471 23.2425 134.277L23.0513 138.261C24.1566 136.873 24.8302 135.818 24.8398 135.803Z" fill="white"/>
<path d="M17.7215 143.488C17.2952 143.775 16.8562 144.034 16.4062 144.264L19.7676 145.134L19.7419 145.176C20.1672 144.995 20.5715 144.75 20.945 144.448C21.0913 144.328 21.2347 144.205 21.3751 144.078L17.8553 143.396C17.8106 143.427 17.766 143.458 17.7215 143.488Z" fill="white"/>
<path d="M21.4031 140.181C21.9848 139.556 22.5118 138.935 22.9687 138.365L23.1644 134.29L23.2042 134.269C22.5407 134.136 21.8606 134.179 21.2129 134.396L21.4031 140.181Z" fill="white"/>
<path d="M14.3742 130.349C13.984 129.912 13.507 129.6 12.9878 129.442C12.9627 129.435 12.9376 129.43 12.9126 129.424C12.9751 129.627 13.3354 130.823 13.6991 132.536L14.3742 130.349Z" fill="white"/>
<path d="M14.1461 135.36L9.90045 132.43L9.90434 132.377C9.74548 132.981 9.63832 133.602 9.58447 134.231L14.3704 137.358C14.3127 136.654 14.2339 135.981 14.1461 135.36Z" fill="white"/>
<path d="M9.57617 134.337L9.57634 134.337C9.57777 134.319 9.57808 134.301 9.57959 134.283L9.57617 134.337Z" fill="white"/>
<path d="M9.5412 134.91L9.53809 134.964C9.53874 134.945 9.54048 134.928 9.5412 134.91Z" fill="white"/>
<path d="M14.3797 137.475L9.57631 134.336C9.5609 134.524 9.5493 134.715 9.5415 134.91L14.4157 137.989C14.4051 137.816 14.3931 137.645 14.3797 137.475Z" fill="white"/>
<path d="M14.4515 140.565L9.72363 137.525C9.83913 138.089 9.98627 138.643 10.1641 139.184L10.1703 139.126L14.2838 142.491C14.372 141.854 14.428 141.211 14.4515 140.565Z" fill="white"/>
<path d="M12.8589 129.441L12.881 129.417C12.1385 129.26 11.4655 129.568 10.9204 130.229L13.6475 132.554C13.2536 130.701 12.8645 129.459 12.8589 129.441Z" fill="white"/>
<path d="M13.6764 132.691L10.8868 130.313L10.8928 130.262C10.443 130.857 10.1098 131.563 9.91699 132.33L14.1281 135.236C13.9951 134.317 13.8361 133.455 13.6764 132.691Z" fill="white"/>
<path d="M14.4552 140.45C14.4797 139.668 14.4687 138.885 14.4223 138.105L9.53602 135.018C9.52579 135.332 9.52576 135.656 9.5359 135.987C9.55383 136.462 9.60811 136.933 9.69807 137.396L14.453 140.453L14.4552 140.45Z" fill="white"/>
<path d="M164.926 125.032C164.879 125.826 164.805 126.715 164.691 127.648L166.755 124.926L166.767 124.971C166.64 124.316 166.437 123.685 166.163 123.098L166.176 123.141L164.926 125.032Z" fill="white"/>
<path d="M164.935 124.894L166.145 123.062C165.888 122.503 165.515 122.031 165.062 121.69C165.04 121.674 165.018 121.659 164.996 121.645C165.002 121.861 165.034 123.131 164.935 124.894Z" fill="white"/>
<path d="M163.843 132.074C163.789 132.266 163.734 132.456 163.678 132.641L166.718 130.521L166.722 130.575C166.786 130.245 166.839 129.915 166.881 129.586L163.845 132.098L163.843 132.074Z" fill="white"/>
<path d="M164.265 130.296L167.003 127.611L167.011 127.661C167.021 126.773 166.942 125.887 166.776 125.021L164.673 127.796C164.562 128.67 164.426 129.504 164.265 130.296Z" fill="white"/>
<path d="M164.626 127.742L161.35 123.395L161.367 123.346C161.059 123.861 160.796 124.413 160.581 124.991L164.32 129.725C164.448 129.034 164.548 128.365 164.626 127.742Z" fill="white"/>
<path d="M160.545 125.089L160.546 125.089C160.551 125.073 160.557 125.055 160.563 125.039L160.545 125.089Z" fill="white"/>
<path d="M164.298 129.841L160.546 125.09C160.482 125.263 160.421 125.44 160.363 125.623L164.198 130.343C164.233 130.175 164.266 130.007 164.298 129.841Z" fill="white"/>
<path d="M160.363 125.623L160.346 125.673C160.352 125.656 160.358 125.64 160.363 125.623Z" fill="white"/>
<path d="M166.889 129.523C166.963 128.926 167.004 128.323 167.011 127.719L164.236 130.44C164.126 130.968 164.005 131.475 163.873 131.962L166.883 129.471L166.889 129.523Z" fill="white"/>
<path d="M159.865 129.862L162.903 134.574C163.152 134.001 163.373 133.41 163.563 132.805L159.857 128.176C159.82 128.754 159.816 129.335 159.844 129.915L159.865 129.862Z" fill="white"/>
<path d="M164.94 121.639L164.967 121.625C164.302 121.202 163.582 121.247 162.892 121.676L164.881 124.889C164.988 122.982 164.941 121.658 164.94 121.639Z" fill="white"/>
<path d="M163.579 132.957C163.405 133.502 163.205 134.034 162.982 134.553L166.038 132.673L166.041 132.725C166.271 132.263 166.451 131.768 166.576 131.252C166.625 131.049 166.669 130.845 166.709 130.641L163.633 132.786C163.615 132.843 163.597 132.901 163.579 132.957Z" fill="white"/>
<path d="M164.873 125.031L162.838 121.744L162.857 121.697C162.275 122.098 161.774 122.647 161.392 123.305L164.641 127.617C164.754 126.694 164.826 125.816 164.873 125.031Z" fill="white"/>
<path d="M163.596 132.698C163.823 131.963 164.016 131.214 164.175 130.454L160.33 125.723C160.239 126.018 160.155 126.326 160.078 126.645C159.972 127.103 159.901 127.571 159.866 128.044L163.594 132.7L163.596 132.698Z" fill="white"/>
<path d="M167.545 137.804C167.083 138.38 166.549 139.008 165.96 139.64L169.011 139.109L168.995 139.153C169.249 138.553 169.431 137.913 169.535 137.252L169.522 137.295L167.545 137.804Z" fill="white"/>
<path d="M169.443 135.332C169.435 135.303 169.425 135.274 169.416 135.246C169.305 135.418 168.648 136.42 167.626 137.702L169.541 137.209C169.643 136.584 169.609 135.938 169.443 135.332Z" fill="white"/>
<path d="M162.933 142.404C162.789 142.512 162.645 142.616 162.502 142.716L165.98 143.39L165.955 143.434C166.181 143.228 166.398 143.014 166.608 142.793L162.922 142.425L162.933 142.404Z" fill="white"/>
<path d="M164.213 141.355L167.762 141.364L167.741 141.408C168.225 140.732 168.639 139.99 168.976 139.197L165.868 139.738C165.314 140.328 164.762 140.867 164.213 141.355Z" fill="white"/>
<path d="M163.017 142.342L166.671 142.707L166.648 142.751C167.026 142.348 167.381 141.914 167.71 141.454L164.113 141.445C163.745 141.768 163.379 142.067 163.017 142.342Z" fill="white"/>
<path d="M158.54 144.493C158.566 144.461 158.593 144.428 158.62 144.395C159.366 144.253 160.094 144.006 160.789 143.658L160.889 140.526C160.918 140.446 160.947 140.366 160.975 140.285L160.869 143.618C161.369 143.366 161.855 143.078 162.326 142.756L161.987 136.933C162.013 136.917 162.039 136.901 162.066 136.884L162.405 142.699L162.409 142.699C162.977 142.305 163.528 141.875 164.057 141.41L163.688 135.681C163.714 135.658 163.74 135.636 163.766 135.612L164.136 141.342C164.253 141.238 164.369 141.135 164.482 141.03L164.177 135.23C164.203 135.205 164.229 135.179 164.256 135.153L164.561 140.958C165.03 140.523 165.466 140.084 165.86 139.663L165.668 133.83L165.708 133.805C165.572 133.848 165.433 133.898 165.294 133.952C165.556 133.596 165.792 133.213 166 132.808L162.915 134.706C162.702 135.188 162.461 135.653 162.196 136.098C162.141 136.16 162.086 136.222 162.032 136.286L162.036 136.356C162.011 136.395 161.985 136.435 161.96 136.474L161.955 136.38C161.916 136.427 161.878 136.478 161.839 136.526C162.23 135.946 162.573 135.323 162.863 134.665L159.848 129.987C159.868 130.406 159.903 130.826 159.947 131.244C159.667 130.703 159.327 130.209 158.936 129.775L158.96 129.812L158.263 132.069C158.425 132.842 158.585 133.714 158.719 134.644L159.957 131.342C159.963 131.394 159.969 131.445 159.975 131.496L158.74 134.79C158.862 135.662 158.949 136.505 159.002 137.318L160.485 134.548C160.493 134.588 160.502 134.628 160.51 134.667L159.012 137.467C159.044 138.009 159.061 138.536 159.062 139.048L160.875 136.204C160.884 136.241 160.894 136.278 160.903 136.314L159.072 139.187L159.063 139.165C159.062 139.368 159.059 139.568 159.053 139.765L161.098 137.028C161.109 137.066 161.119 137.101 161.128 137.134L159.048 139.918C159.046 139.979 159.044 140.041 159.042 140.101C159.017 140.683 158.966 141.263 158.889 141.838L159.086 141.6C159.049 141.693 159.013 141.784 158.977 141.873L158.865 142.008C158.852 142.096 158.837 142.182 158.823 142.269C158.782 142.377 158.742 142.482 158.703 142.585C158.74 142.388 158.775 142.189 158.805 141.989L154.721 138.648C155.787 141.889 157.793 144.972 157.921 145.168C158.025 144.936 158.12 144.698 158.207 144.455C158.232 144.452 158.258 144.449 158.283 144.446C158.272 144.476 158.262 144.505 158.251 144.535C158.238 144.537 158.225 144.539 158.213 144.541C158.222 144.544 158.234 144.548 158.245 144.551C158.184 144.721 158.12 144.888 158.052 145.05C158.141 144.954 158.277 144.804 158.439 144.613C159.4 144.904 161.986 145.527 164.201 144.607L160.808 143.729C160.082 144.094 159.32 144.351 158.54 144.493ZM160.925 139.386L161.006 139.288L161.001 139.435L160.92 139.533L160.925 139.386Z" fill="white"/>
<path d="M169.375 135.201L169.404 135.211C169.119 134.381 168.54 133.869 167.778 133.676L167.587 137.659C168.692 136.272 169.366 135.216 169.375 135.201Z" fill="white"/>
<path d="M162.257 142.884C161.831 143.171 161.392 143.431 160.942 143.661L164.303 144.53L164.278 144.573C164.703 144.391 165.107 144.146 165.481 143.844C165.627 143.724 165.77 143.601 165.911 143.474L162.391 142.793C162.346 142.824 162.302 142.855 162.257 142.884Z" fill="white"/>
<path d="M165.939 139.578C166.52 138.952 167.047 138.331 167.504 137.762L167.7 133.687L167.74 133.665C167.076 133.532 166.396 133.576 165.749 133.792L165.939 139.578Z" fill="white"/>
<path d="M158.91 129.748C158.52 129.311 158.043 128.999 157.523 128.841C157.498 128.834 157.473 128.828 157.448 128.822C157.511 129.026 157.871 130.222 158.235 131.935L158.91 129.748Z" fill="white"/>
<path d="M158.681 134.756L154.436 131.827L154.439 131.773C154.281 132.377 154.173 132.998 154.12 133.627L158.906 136.755C158.848 136.051 158.769 135.378 158.681 134.756Z" fill="white"/>
<path d="M154.077 134.309L154.074 134.362C154.074 134.344 154.076 134.327 154.077 134.309Z" fill="white"/>
<path d="M154.112 133.733L154.112 133.733C154.113 133.716 154.114 133.697 154.115 133.68L154.112 133.733Z" fill="white"/>
<path d="M158.915 136.873L154.112 133.734C154.097 133.922 154.085 134.113 154.077 134.308L158.951 137.388C158.941 137.215 158.929 137.043 158.915 136.873Z" fill="white"/>
<path d="M158.987 139.962L154.259 136.922C154.374 137.486 154.521 138.04 154.699 138.58L154.705 138.522L158.819 141.887C158.907 141.25 158.963 140.607 158.987 139.962Z" fill="white"/>
<path d="M157.394 128.838L157.417 128.814C156.674 128.657 156.001 128.964 155.456 129.626L158.183 131.95C157.789 130.097 157.4 128.855 157.394 128.838Z" fill="white"/>
<path d="M158.212 132.088L155.422 129.71L155.428 129.658C154.979 130.253 154.645 130.96 154.453 131.726L158.664 134.632C158.531 133.713 158.372 132.851 158.212 132.088Z" fill="white"/>
<path d="M158.991 139.849C159.015 139.067 159.004 138.284 158.958 137.503L154.072 134.416C154.061 134.731 154.061 135.054 154.072 135.386C154.089 135.86 154.144 136.332 154.234 136.795L158.989 139.852L158.991 139.849Z" fill="white"/>
<path d="M10.397 145.973H170.129V148.69C170.129 149.833 169.747 150.93 169.067 151.738C168.388 152.546 167.466 153 166.505 153H14.0213C13.06 153 12.1382 152.546 11.4585 151.738C10.7788 150.93 10.397 149.833 10.397 148.69V145.973Z" fill="#2F2E41"/>
<path d="M170.129 143.764H10.397V147.579H170.129V143.764Z" fill="#3F3D56"/>
<path d="M134.188 13.2461L136.023 14.6295L134.909 12.2214C135.224 11.922 135.615 11.7563 136.018 11.7505C136.028 11.7505 136.038 11.7506 136.048 11.7508C136.175 11.7532 136.303 11.742 136.428 11.7173L137.05 12.1861L136.784 11.6099C137.224 11.4273 137.605 11.0837 137.871 10.6284L138.984 11.4675L138.281 9.94766C138.932 9.01878 139.809 8.44922 140.774 8.44922C141.931 8.44922 142.962 9.26757 143.627 10.5426C143.824 10.9241 144.102 11.2369 144.433 11.4493C144.765 11.6617 145.137 11.7661 145.513 11.7519C145.534 11.751 145.555 11.7505 145.576 11.7505C146.853 11.7505 147.889 13.4728 147.889 15.5975C147.889 17.7221 146.853 19.4444 145.576 19.4444C145.295 19.4432 145.018 19.3609 144.77 19.2046C144.335 18.9533 143.86 18.8173 143.376 18.806C142.893 18.7948 142.413 18.9086 141.97 19.1395C141.596 19.3394 141.191 19.4433 140.781 19.4444C140.371 19.4455 139.965 19.3439 139.59 19.146C139.151 18.9195 138.676 18.808 138.197 18.819C137.718 18.83 137.247 18.9633 136.815 19.2098C136.569 19.3628 136.296 19.4432 136.018 19.4444C134.741 19.4444 133.705 17.7221 133.705 15.5975C133.698 14.7779 133.864 13.9693 134.188 13.2461Z" fill="#F2F2F2"/>
<path d="M40.8548 24.5456L42.0217 25.4256L41.3132 23.8937C41.5139 23.7033 41.7622 23.5979 42.0189 23.5942C42.0252 23.5942 42.0314 23.5942 42.0377 23.5944C42.1188 23.5959 42.1998 23.5888 42.2798 23.5731L42.6753 23.8713L42.5057 23.5048C42.7859 23.3886 43.0281 23.17 43.1976 22.8804L43.9054 23.4142L43.4582 22.4473C43.6466 22.1585 43.8866 21.9231 44.1609 21.7583C44.4352 21.5934 44.7369 21.5032 45.0441 21.4941C45.7802 21.4941 46.4359 22.0147 46.8592 22.8258C46.9843 23.0685 47.1612 23.2675 47.372 23.4026C47.5827 23.5377 47.8197 23.6041 48.0589 23.595C48.0721 23.5945 48.0853 23.5942 48.0985 23.5942C48.9111 23.5942 49.5699 24.6898 49.5699 26.0413C49.5699 27.3928 48.9111 28.4884 48.0985 28.4884C47.9198 28.4876 47.744 28.4353 47.586 28.3359C47.3094 28.176 47.0069 28.0895 46.6994 28.0823C46.3919 28.0752 46.0868 28.1476 45.8052 28.2945C45.5672 28.4216 45.3094 28.4877 45.0485 28.4884C44.7876 28.4891 44.5295 28.4245 44.2911 28.2986C44.0116 28.1545 43.7094 28.0836 43.4048 28.0906C43.1003 28.0976 42.8005 28.1824 42.526 28.3392C42.3694 28.4365 42.1955 28.4877 42.0189 28.4884C41.2063 28.4884 40.5475 27.3928 40.5475 26.0413C40.5428 25.52 40.6484 25.0056 40.8548 24.5456Z" fill="#F2F2F2"/>
<path d="M9.44899 29.2624L10.616 30.1424L9.90744 28.6105C10.1081 28.4201 10.3564 28.3147 10.6131 28.311C10.6194 28.311 10.6256 28.311 10.6319 28.3112C10.713 28.3127 10.794 28.3056 10.874 28.2899L11.2695 28.5881L11.1 28.2216C11.3802 28.1054 11.6223 27.8868 11.7918 27.5972L12.4997 28.131L12.0525 27.1641C12.2408 26.8753 12.4808 26.6399 12.7551 26.475C13.0294 26.3102 13.3311 26.22 13.6384 26.2109C14.3745 26.2109 15.0302 26.7315 15.4535 27.5426C15.5786 27.7853 15.7555 27.9843 15.9662 28.1194C16.1769 28.2545 16.4139 28.3209 16.6532 28.3118C16.6663 28.3113 16.6795 28.311 16.6928 28.311C17.5054 28.311 18.1641 29.4066 18.1641 30.7581C18.1641 32.1096 17.5054 33.2052 16.6928 33.2052C16.5141 33.2044 16.3382 33.1521 16.1803 33.0527C15.9037 32.8928 15.6012 32.8063 15.2937 32.7991C14.9862 32.792 14.681 32.8644 14.3994 33.0113C14.1614 33.1384 13.9036 33.2045 13.6427 33.2052C13.3818 33.2059 13.1238 33.1413 12.8853 33.0154C12.6059 32.8713 12.3036 32.8004 11.999 32.8074C11.6945 32.8144 11.3948 32.8992 11.1202 33.056C10.9637 33.1533 10.7898 33.2045 10.6131 33.2052C9.80051 33.2052 9.14175 32.1096 9.14175 30.7581C9.13702 30.2368 9.24268 29.7224 9.44899 29.2624Z" fill="#F2F2F2"/>
<path d="M51.5808 119.842L51.377 120.084C51.377 120.084 51.4449 122.75 51.5128 123.316C51.5808 123.881 51.8525 124.851 51.6487 125.578C51.4449 126.305 51.377 126.871 51.4449 126.951C51.5128 127.032 51.377 127.355 51.377 127.355L51.9205 126.951L52.8037 124.528L52.3961 121.942L51.5808 119.842Z" fill="white"/>
<path opacity="0.1" d="M51.5808 119.842L51.377 120.084C51.377 120.084 51.4449 122.75 51.5128 123.316C51.5808 123.881 51.8525 124.851 51.6487 125.578C51.4449 126.305 51.377 126.871 51.4449 126.951C51.5128 127.032 51.377 127.355 51.377 127.355L51.9205 126.951L52.8037 124.528L52.3961 121.942L51.5808 119.842Z" fill="black"/>
<path d="M55.1817 144.969C55.1817 144.969 55.1817 144.08 55.0458 143.919C54.9099 143.757 54.7061 143.191 54.4343 143.191C54.1626 143.191 53.2114 143.515 53.2114 143.595C53.2191 143.848 53.1724 144.098 53.0755 144.322C52.9396 144.565 52.1923 145.534 52.9396 145.696C53.1881 145.744 53.4422 145.734 53.6871 145.664C53.9321 145.595 54.163 145.468 54.3664 145.292C54.4343 145.211 54.7061 145.13 54.774 145.211C54.842 145.292 55.1817 144.969 55.1817 144.969Z" fill="white"/>
<path d="M57.084 143.514L57.4916 144.403C57.4916 144.403 57.6275 145.211 57.8313 145.292H58.0351C58.0351 145.292 58.239 146.18 58.7145 146.1C59.1901 146.019 59.7337 145.696 59.7337 145.534C59.7337 145.373 59.7336 144.888 59.5298 144.726C59.244 144.449 58.9718 144.152 58.7145 143.838L58.3748 143.434L57.084 143.514Z" fill="white"/>
<path d="M51.87 113.92C51.7392 113.999 51.6264 114.114 51.541 114.256C51.4556 114.398 51.4001 114.563 51.3792 114.735C51.3414 115.312 51.8209 115.856 51.6667 116.405C51.5791 116.716 51.3063 116.918 51.2278 117.233C51.1865 117.484 51.2175 117.744 51.3158 117.972C51.4231 118.284 51.5537 118.584 51.706 118.869C51.9924 119.404 52.3651 119.911 52.4417 120.538C52.4629 120.648 52.4619 120.762 52.4389 120.871C52.4159 120.981 52.3714 121.082 52.3091 121.167C52.447 121.042 52.6047 120.953 52.7727 120.904C53.467 120.628 54.1122 120.201 54.675 119.644C54.8795 119.473 55.0335 119.23 55.1149 118.949C55.2186 118.453 54.9018 117.956 54.9322 117.446C54.9516 117.12 55.11 116.831 55.1997 116.522C55.2777 116.214 55.3025 115.891 55.2727 115.571C55.2429 115.252 55.1591 114.942 55.0264 114.662C54.9164 114.391 54.7613 114.15 54.5704 113.952C54.3794 113.755 54.1567 113.605 53.9158 113.514C53.5452 113.411 53.1585 113.424 52.7935 113.552C52.4745 113.631 52.1646 113.754 51.87 113.92Z" fill="#2F2E41"/>
<path d="M52.2524 118.4C52.4021 118.069 52.6236 117.793 52.8939 117.599C53.1642 117.405 53.4733 117.301 53.789 117.298C54.876 117.298 54.6722 117.217 54.6722 117.217L54.3325 118.833L53.6531 119.641L52.2524 118.4Z" fill="white"/>
<path d="M52.5321 116.691C52.5321 116.691 53.1436 117.903 52.7359 118.388C52.3283 118.873 52.5321 119.358 52.6 119.438C52.668 119.519 54.5703 119.681 54.5703 119.681L54.6383 118.55L54.8421 117.58C54.8421 117.58 53.755 117.338 53.8909 116.772C54.0268 116.207 52.5321 116.691 52.5321 116.691Z" fill="#FBBEBE"/>
<path opacity="0.1" d="M52.5321 116.691C52.5321 116.691 53.1436 117.903 52.7359 118.388C52.3283 118.873 52.5321 119.358 52.6 119.438C52.668 119.519 54.5703 119.681 54.5703 119.681L54.6383 118.55L54.8421 117.58C54.8421 117.58 53.755 117.338 53.8909 116.772C54.0268 116.207 52.5321 116.691 52.5321 116.691Z" fill="black"/>
<path d="M57.2877 128.165C57.2149 128.442 57.1241 128.712 57.0159 128.973C56.948 129.054 56.7441 128.407 56.7441 128.407L56.948 127.842L57.2877 128.165Z" fill="#FBBEBE"/>
<path d="M56.5064 124.488L56.778 126.347H52.7017L52.9055 124.488H56.5064Z" fill="#FBBEBE"/>
<path d="M53.2791 117.338C53.9921 117.338 54.57 116.65 54.57 115.803C54.57 114.955 53.9921 114.268 53.2791 114.268C52.5662 114.268 51.9883 114.955 51.9883 115.803C51.9883 116.65 52.5662 117.338 53.2791 117.338Z" fill="#FBBEBE"/>
<path d="M53.5513 118.955C53.5513 118.955 52.804 119.035 52.804 118.874C52.804 118.712 52.7361 118.227 52.6002 118.308C52.4643 118.389 51.5811 118.47 51.649 118.712C51.717 118.955 51.8528 119.439 51.717 119.439C51.6582 119.454 51.6025 119.482 51.5533 119.523C51.504 119.563 51.4623 119.615 51.4305 119.676C51.3987 119.736 51.3776 119.804 51.3685 119.874C51.3593 119.945 51.3623 120.017 51.3773 120.086C51.4452 120.49 52.1925 122.913 52.1925 122.913C52.1925 122.913 52.2605 123.721 52.4643 123.964C52.5472 124.091 52.5922 124.247 52.5922 124.408C52.5922 124.569 52.5472 124.725 52.4643 124.852C52.3284 125.014 52.804 125.176 53.0078 125.499C53.2117 125.822 54.7743 125.579 54.8422 125.499C54.9102 125.418 56.5407 125.418 56.6766 125.256C56.8125 125.095 56.6087 124.61 56.6087 124.61C56.6087 124.61 56.5407 123.883 56.6087 123.64C56.6766 123.398 56.3369 119.439 56.1331 119.197C55.9293 118.955 56.7445 118.227 56.7445 118.227C56.7445 118.227 56.6087 117.581 55.7254 117.5C55.7254 117.5 55.4537 117.016 55.1819 117.016C54.9101 117.016 54.3201 117.392 54.3201 117.392C54.3201 117.392 54.1628 118.47 53.959 118.551C53.7979 118.645 53.6581 118.783 53.5513 118.955Z" fill="white"/>
<path d="M56.2687 117.984L56.7443 118.227C56.7443 118.227 58.1031 123.236 57.9672 124.205C57.8313 125.175 57.4916 128.487 57.2878 128.487C57.084 128.487 56.6763 128.002 56.6763 128.002V127.195C56.6763 127.033 56.4725 126.548 56.6084 126.548C56.7443 126.548 56.9481 126.387 56.8122 126.225C56.6763 126.063 56.5404 125.821 56.6763 125.579C56.8122 125.336 56.8802 125.256 56.8122 125.013C56.7443 124.771 56.6084 124.528 56.7443 124.367C56.8801 124.205 56.4046 123.397 56.4046 123.397L55.6572 119.843L55.7931 118.388L56.2687 117.984Z" fill="white"/>
<path d="M56.5404 125.66C56.5404 125.66 53.9587 125.418 53.619 125.418C53.2793 125.418 52.5171 125.037 52.5171 125.037C52.5171 125.037 50.5616 127.357 51.241 131.154C51.9205 134.951 52.0563 139.637 52.464 141.01C52.741 141.989 52.9679 142.988 53.1434 143.999C53.1434 143.999 53.8228 142.545 55.1136 144.161C55.1136 144.161 55.2495 142.949 55.0457 142.464C54.8419 141.98 54.5701 139.394 54.5701 139.394C54.5701 139.394 54.0945 135.274 54.0945 134.789C54.0945 134.305 53.8228 130.184 53.8907 130.103C53.9587 130.023 54.2984 133.254 54.3663 133.82C54.4342 134.385 54.6381 138.748 54.8419 139.233C55.0457 139.718 55.9969 143.595 56.5404 143.838C57.0839 144.08 58.9183 143.757 58.8504 143.595C58.7824 143.434 58.3068 142.545 58.171 142.303L57.6274 141.333L56.3366 136.082L56.948 129.699C56.948 129.699 57.2877 125.579 56.5404 125.66Z" fill="#2F2E41"/>
<path d="M54.0658 115.601H52.4104C52.3401 115.601 52.2722 115.572 52.2188 115.517C52.1654 115.463 52.1301 115.388 52.1191 115.305L51.9546 114.066H54.5363L54.3055 115.37C54.2939 115.436 54.2638 115.494 54.2201 115.536C54.1765 115.578 54.122 115.601 54.0658 115.601Z" fill="#2F2E41"/>
<path d="M139.382 115.219H141.994V119.656C141.651 119.656 141.311 119.575 140.994 119.419C140.677 119.263 140.389 119.034 140.147 118.746C139.904 118.458 139.712 118.115 139.581 117.738C139.449 117.362 139.382 116.958 139.382 116.55V115.219Z" fill="#2F2E41"/>
<path d="M137.858 141.213L137.672 142.322H138.978L139.04 141.213H137.858Z" fill="#A0616A"/>
<path d="M137.858 142.099C137.858 142.099 137.61 141.877 137.485 142.025C137.361 142.173 136.926 145.057 136.863 145.131C136.801 145.205 134.936 146.314 135.371 146.388C135.806 146.462 137.485 146.536 137.734 146.388C137.983 146.24 138.667 144.835 138.667 144.835V146.092H138.791C138.791 146.092 138.916 144.761 139.227 144.392C139.538 144.022 138.978 142.765 138.978 142.765C138.978 142.765 139.102 141.951 139.04 141.951C138.978 141.951 137.858 142.099 137.858 142.099Z" fill="white"/>
<path d="M141.714 140.436L141.527 141.545H142.833L142.896 140.436H141.714Z" fill="#A0616A"/>
<path d="M140.222 133.226C140.222 133.226 140.844 135.444 140.968 135.666C141.092 135.888 141.528 140.029 141.528 140.029C141.528 140.029 141.092 140.842 141.652 140.916C142.212 140.99 141.963 140.768 142.336 140.916C142.437 140.962 142.546 140.979 142.654 140.966C142.762 140.953 142.866 140.911 142.958 140.842C142.958 140.842 143.145 140.399 143.02 140.251C142.896 140.103 143.145 136.257 143.145 136.257L142.771 134.926L142.46 130.711C142.46 130.711 142.834 129.602 142.647 129.306C142.46 129.01 141.839 129.528 141.839 129.528L140.222 133.226Z" fill="#2F2E41"/>
<path d="M139.413 127.457C139.413 127.457 139.226 129.823 139.102 129.971C138.978 130.119 137.61 134.26 137.61 134.26C137.61 134.26 137.236 134.778 137.361 136.701C137.485 138.624 137.796 140.546 137.796 140.546C137.796 140.546 137.547 141.656 137.983 141.656C138.418 141.656 138.605 141.36 138.791 141.582C138.978 141.803 139.102 141.582 139.164 141.434C139.226 141.286 139.475 140.768 139.475 140.62C139.475 140.472 139.724 136.701 139.724 136.701C139.724 136.701 141.776 131.302 141.963 131.007C142.149 130.711 143.206 129.084 143.144 127.975L139.413 127.457Z" fill="#2F2E41"/>
<path d="M140.968 117.475C141.689 117.475 142.274 116.78 142.274 115.922C142.274 115.064 141.689 114.369 140.968 114.369C140.246 114.369 139.662 115.064 139.662 115.922C139.662 116.78 140.246 117.475 140.968 117.475Z" fill="#A0616A"/>
<path d="M140.719 117.253C140.719 117.253 141.216 118.584 141.278 118.953C141.341 119.323 142.522 118.214 142.522 118.214C142.522 118.214 141.9 116.957 142.087 116.365L140.719 117.253Z" fill="#A0616A"/>
<path d="M142.709 117.991C142.709 117.991 141.776 117.178 141.092 118.879C140.408 120.58 140.221 120.506 140.221 120.506C140.221 120.506 139.413 120.801 139.662 122.872C139.91 124.943 138.853 127.679 139.289 127.827C139.724 127.975 143.766 128.788 143.766 128.196C143.766 127.605 143.393 125.312 143.704 123.907C144.015 122.502 143.269 117.622 142.709 117.991Z" fill="#3F3D56"/>
<path d="M141.776 118.361C141.776 118.361 141.03 119.692 141.092 120.728C141.154 121.763 141.154 122.429 141.154 122.429C141.154 122.429 139.911 129.528 140.159 129.528C140.408 129.528 141.154 129.898 141.217 129.676C141.279 129.454 142.833 124.943 142.833 124.943C142.833 124.943 143.207 120.432 142.771 119.397C142.336 118.361 141.776 118.361 141.776 118.361Z" fill="#3F3D56"/>
<path d="M140.284 129.307C140.284 129.307 139.662 131.821 140.532 131.895C141.403 131.969 140.905 129.455 140.905 129.455L140.284 129.307Z" fill="#A0616A"/>
<path d="M141.939 140.969C141.939 140.969 141.721 140.775 141.612 140.905C141.503 141.034 141.122 143.56 141.067 143.625C141.013 143.689 139.379 144.661 139.76 144.725C140.141 144.79 141.612 144.855 141.83 144.725C142.048 144.596 142.647 143.365 142.647 143.365V144.466H142.756C142.756 144.466 142.864 143.301 143.137 142.977C143.409 142.653 142.919 141.552 142.919 141.552C142.919 141.552 143.028 140.84 142.973 140.84C142.919 140.84 141.939 140.969 141.939 140.969Z" fill="white"/>
<path d="M140.322 114.904C140.363 114.844 140.418 114.798 140.479 114.772C140.537 114.76 140.596 114.766 140.651 114.79C141.041 114.925 141.379 115.217 141.607 115.617C141.652 115.718 141.718 115.804 141.8 115.865C141.854 115.884 141.906 115.907 141.956 115.935C142.101 116.05 142.015 116.315 141.931 116.496C141.717 116.964 141.618 117.494 141.646 118.025C141.644 118.118 141.667 118.209 141.711 118.285C141.782 118.362 141.874 118.406 141.97 118.407C142.272 118.452 142.576 118.472 142.88 118.465C143.178 118.459 143.508 118.409 143.701 118.139C143.908 117.849 143.875 117.405 143.741 117.06C143.606 116.715 143.386 116.426 143.231 116.094C143.083 115.742 142.966 115.374 142.883 114.994C142.775 114.509 142.601 114.048 142.369 113.63C142.251 113.422 142.099 113.244 141.921 113.109C141.744 112.973 141.544 112.883 141.336 112.843C140.771 112.768 140.25 113.182 139.796 113.588C139.286 114.045 138.744 114.61 138.703 115.367C138.669 115.981 138.979 116.536 139.141 117.12C139.391 118.022 139.286 119.001 139.179 119.941C139.64 119.614 140.161 119.158 140.13 118.521C140.11 118.091 139.837 117.748 139.667 117.367C139.2 116.322 139.733 115.62 140.322 114.904Z" fill="#2F2E41"/>
<path d="M158.687 122.462C159.082 121.642 159.287 120.711 159.279 119.766C159.279 117.329 158.01 115.354 156.444 115.354C154.879 115.354 153.61 117.329 153.61 119.766C153.602 120.711 153.806 121.642 154.202 122.462C153.814 123.286 153.61 124.214 153.61 125.158C153.61 126.103 153.814 127.031 154.202 127.855C153.814 128.679 153.61 129.607 153.61 130.551C153.61 131.495 153.814 132.424 154.202 133.247C153.814 134.071 153.61 135 153.61 135.944C153.61 136.888 153.814 137.816 154.202 138.64C153.806 139.46 153.602 140.391 153.61 141.337C153.61 143.773 154.879 145.749 156.444 145.749C158.01 145.749 159.279 143.773 159.279 141.337C159.287 140.391 159.082 139.46 158.687 138.64C159.075 137.816 159.279 136.888 159.279 135.944C159.279 135 159.075 134.071 158.687 133.247C159.075 132.424 159.279 131.495 159.279 130.551C159.279 129.607 159.075 128.679 158.687 127.855C159.075 127.031 159.279 126.103 159.279 125.158C159.279 124.214 159.075 123.286 158.687 122.462Z" fill="#3F3D56"/>
<path d="M156.444 118.785C158.01 118.785 159.279 116.81 159.279 114.373C159.279 111.936 158.01 109.961 156.444 109.961C154.879 109.961 153.61 111.936 153.61 114.373C153.61 116.81 154.879 118.785 156.444 118.785Z" fill="#3F3D56"/>
<path d="M156.444 113.393C158.01 113.393 159.279 111.417 159.279 108.981C159.279 106.544 158.01 104.568 156.444 104.568C154.879 104.568 153.61 106.544 153.61 108.981C153.61 111.417 154.879 113.393 156.444 113.393Z" fill="#3F3D56"/>
<path d="M167.055 72.0763C167.442 71.4901 167.795 70.8728 168.11 70.2287L160.663 68.7742L168.717 68.8454C169.49 66.8463 169.912 64.6807 169.956 62.4811C170.001 60.2816 169.667 58.0943 168.977 56.0533L158.17 62.7193L168.136 54.008C167.203 52.0894 165.947 50.42 164.447 49.1038C162.947 47.7875 161.235 46.8527 159.418 46.3574C157.601 45.8621 155.718 45.8171 153.886 46.225C152.054 46.633 150.312 47.4853 148.768 48.7287C147.225 49.9722 145.914 51.5802 144.916 53.4526C143.918 55.325 143.255 57.4216 142.969 59.6119C142.682 61.8022 142.778 64.0393 143.25 66.1837C143.722 68.3281 144.56 70.334 145.713 72.0763C145.109 72.9887 144.59 73.9759 144.164 75.0206L153.832 80.993L143.523 76.8791C142.8 79.4234 142.621 82.1421 143.003 84.7892C143.385 87.4364 144.317 89.9285 145.713 92.0399C144.137 94.4213 143.158 97.2817 142.885 100.294C142.612 103.306 143.058 106.349 144.171 109.074C145.285 111.8 147.02 114.098 149.18 115.705C151.339 117.313 153.836 118.165 156.384 118.165C158.931 118.165 161.428 117.313 163.587 115.705C165.747 114.098 167.483 111.8 168.596 109.074C169.709 106.349 170.155 103.306 169.882 100.294C169.61 97.2817 168.63 94.4213 167.055 92.0399C168.937 89.1941 169.96 85.6786 169.96 82.0581C169.96 78.4376 168.937 74.9222 167.055 72.0763Z" fill="#F2F2F2"/>
<path d="M142.807 82.0582C142.802 85.6796 143.826 89.1969 145.713 92.04C144.137 94.4214 143.158 97.2818 142.885 100.294C142.613 103.307 143.058 106.349 144.171 109.075C145.285 111.8 147.02 114.098 149.18 115.705C151.339 117.313 153.836 118.166 156.384 118.166C158.931 118.166 161.428 117.313 163.587 115.705C165.747 114.098 167.483 111.8 168.596 109.075C169.709 106.349 170.155 103.307 169.882 100.294C169.61 97.2818 168.63 94.4214 167.055 92.04C168.874 89.293 142.807 80.2462 142.807 82.0582Z" fill="#F2F2F2"/>
<path d="M167.055 72.0763C167.442 71.4901 167.795 70.8728 168.11 70.2287L160.663 68.7742L168.717 68.8454C169.49 66.8463 169.912 64.6807 169.956 62.4811C170.001 60.2816 169.667 58.0943 168.977 56.0533L158.17 62.7193L168.136 54.008C167.203 52.0894 165.947 50.42 164.447 49.1038C162.947 47.7875 161.235 46.8527 159.418 46.3574C157.601 45.8621 155.718 45.8171 153.886 46.225C152.054 46.633 150.312 47.4853 148.768 48.7287C147.225 49.9722 145.914 51.5802 144.916 53.4526C143.918 55.325 143.255 57.4216 142.969 59.6119C142.682 61.8022 142.778 64.0393 143.25 66.1837C143.722 68.3281 144.56 70.334 145.713 72.0763C145.109 72.9887 144.59 73.9759 144.164 75.0206L153.832 80.993L143.523 76.8791C142.8 79.4234 142.621 82.1421 143.003 84.7892C143.385 87.4364 144.317 89.9285 145.713 92.0399C144.137 94.4213 143.158 97.2817 142.885 100.294C142.612 103.306 143.058 106.349 144.171 109.074C145.285 111.8 147.02 114.098 149.18 115.705C151.339 117.313 153.836 118.165 156.384 118.165C158.931 118.165 161.428 117.313 163.587 115.705C165.747 114.098 167.483 111.8 168.596 109.074C169.709 106.349 170.155 103.306 169.882 100.294C169.61 97.2817 168.63 94.4213 167.055 92.0399C168.937 89.1941 169.96 85.6786 169.96 82.0581C169.96 78.4376 168.937 74.9222 167.055 72.0763Z" fill="#57B894"/>
<path opacity="0.1" d="M142.807 82.0582C142.802 85.6796 143.826 89.1969 145.713 92.04C144.137 94.4214 143.158 97.2818 142.885 100.294C142.613 103.307 143.058 106.349 144.171 109.075C145.285 111.8 147.02 114.098 149.18 115.705C151.339 117.313 153.836 118.166 156.384 118.166C158.931 118.166 161.428 117.313 163.587 115.705C165.747 114.098 167.483 111.8 168.596 109.075C169.709 106.349 170.155 103.307 169.882 100.294C169.61 97.2818 168.63 94.4214 167.055 92.04C168.874 89.293 142.807 80.2462 142.807 82.0582Z" fill="black"/>
<path d="M16.0089 122.462C16.4041 121.642 16.6083 120.711 16.6005 119.766C16.6005 117.329 15.3316 115.354 13.7662 115.354C12.2008 115.354 10.9319 117.329 10.9319 119.766C10.924 120.711 11.1282 121.642 11.5234 122.462C11.1355 123.286 10.9319 124.214 10.9319 125.158C10.9319 126.103 11.1355 127.031 11.5234 127.855C11.1355 128.679 10.9319 129.607 10.9319 130.551C10.9319 131.495 11.1355 132.424 11.5234 133.247C11.1355 134.071 10.9319 135 10.9319 135.944C10.9319 136.888 11.1355 137.816 11.5234 138.64C11.1282 139.46 10.924 140.391 10.9319 141.337C10.9319 143.773 12.2008 145.749 13.7662 145.749C15.3316 145.749 16.6005 143.773 16.6005 141.337C16.6083 140.391 16.4041 139.46 16.0089 138.64C16.3968 137.816 16.6005 136.888 16.6005 135.944C16.6005 135 16.3968 134.071 16.0089 133.247C16.3968 132.424 16.6005 131.495 16.6005 130.551C16.6005 129.607 16.3968 128.679 16.0089 127.855C16.3968 127.031 16.6005 126.103 16.6005 125.158C16.6005 124.214 16.3968 123.286 16.0089 122.462Z" fill="#3F3D56"/>
<path d="M13.766 118.785C15.3313 118.785 16.6003 116.81 16.6003 114.373C16.6003 111.936 15.3313 109.961 13.766 109.961C12.2006 109.961 10.9316 111.936 10.9316 114.373C10.9316 116.81 12.2006 118.785 13.766 118.785Z" fill="#3F3D56"/>
<path d="M13.766 113.393C15.3313 113.393 16.6003 111.417 16.6003 108.981C16.6003 106.544 15.3313 104.568 13.766 104.568C12.2006 104.568 10.9316 106.544 10.9316 108.981C10.9316 111.417 12.2006 113.393 13.766 113.393Z" fill="#3F3D56"/>
<path d="M24.3765 72.0763C24.7637 71.4901 25.1164 70.8728 25.432 70.2287L17.9846 68.7742L26.0392 68.8454C26.8119 66.8463 27.2334 64.6807 27.278 62.4811C27.3225 60.2816 26.9892 58.0943 26.2985 56.0533L15.4922 62.7193L25.4581 54.008C24.5244 52.0894 23.2685 50.42 21.7686 49.1038C20.2687 47.7875 18.557 46.8527 16.74 46.3574C14.9231 45.8621 13.0398 45.8171 11.2075 46.225C9.37528 46.633 7.6333 47.4853 6.09011 48.7287C4.54692 49.9722 3.23557 51.5802 2.23778 53.4526C1.23998 55.325 0.577096 57.4216 0.290427 59.6119C0.00375721 61.8022 0.0994403 64.0393 0.571517 66.1837C1.04359 68.3281 1.88195 70.334 3.03436 72.0763C2.43077 72.9887 1.91166 73.9759 1.48601 75.0206L11.1533 80.993L0.845265 76.8791C0.121485 79.4234 -0.0573844 82.1421 0.324843 84.7892C0.70707 87.4364 1.63833 89.9285 3.03436 92.0399C1.4592 94.4213 0.479337 97.2817 0.206806 100.294C-0.0657253 103.306 0.380072 106.349 1.49323 109.074C2.60638 111.8 4.34197 114.098 6.50156 115.705C8.66115 117.313 11.1576 118.165 13.7054 118.165C16.2533 118.165 18.7497 117.313 20.9093 115.705C23.0689 114.098 24.8044 111.8 25.9176 109.074C27.0308 106.349 27.4766 103.306 27.204 100.294C26.9315 97.2817 25.9516 94.4213 24.3765 92.0399C26.2587 89.1941 27.2819 85.6786 27.2819 82.0581C27.2819 78.4376 26.2587 74.9222 24.3765 72.0763Z" fill="#F2F2F2"/>
<path d="M0.128922 82.0582C0.124235 85.6796 1.14801 89.1969 3.03436 92.04C1.4592 94.4214 0.479342 97.2818 0.206811 100.294C-0.0657201 103.307 0.380077 106.349 1.49323 109.075C2.60639 111.8 4.34198 114.098 6.50157 115.705C8.66115 117.313 11.1576 118.166 13.7054 118.166C16.2533 118.166 18.7497 117.313 20.9093 115.705C23.0689 114.098 24.8044 111.8 25.9176 109.075C27.0308 106.349 27.4766 103.307 27.204 100.294C26.9315 97.2818 25.9516 94.4214 24.3765 92.04C26.1961 89.293 0.128922 80.2462 0.128922 82.0582Z" fill="#F2F2F2"/>
<path d="M24.3765 72.0763C24.7637 71.4901 25.1164 70.8728 25.432 70.2287L17.9846 68.7742L26.0392 68.8454C26.8119 66.8463 27.2334 64.6807 27.278 62.4811C27.3225 60.2816 26.9892 58.0943 26.2985 56.0533L15.4922 62.7193L25.4581 54.008C24.5244 52.0894 23.2685 50.42 21.7686 49.1038C20.2687 47.7875 18.557 46.8527 16.74 46.3574C14.9231 45.8621 13.0398 45.8171 11.2075 46.225C9.37528 46.633 7.6333 47.4853 6.09011 48.7287C4.54692 49.9722 3.23557 51.5802 2.23778 53.4526C1.23998 55.325 0.577096 57.4216 0.290427 59.6119C0.00375721 61.8022 0.0994403 64.0393 0.571517 66.1837C1.04359 68.3281 1.88195 70.334 3.03436 72.0763C2.43077 72.9887 1.91166 73.9759 1.48601 75.0206L11.1533 80.993L0.845265 76.8791C0.121485 79.4234 -0.0573844 82.1421 0.324843 84.7892C0.70707 87.4364 1.63833 89.9285 3.03436 92.0399C1.4592 94.4213 0.479337 97.2817 0.206806 100.294C-0.0657253 103.306 0.380072 106.349 1.49323 109.074C2.60638 111.8 4.34197 114.098 6.50156 115.705C8.66115 117.313 11.1576 118.165 13.7054 118.165C16.2533 118.165 18.7497 117.313 20.9093 115.705C23.0689 114.098 24.8044 111.8 25.9176 109.074C27.0308 106.349 27.4766 103.306 27.204 100.294C26.9315 97.2817 25.9516 94.4213 24.3765 92.0399C26.2587 89.1941 27.2819 85.6786 27.2819 82.0581C27.2819 78.4376 26.2587 74.9222 24.3765 72.0763Z" fill="#57B894"/>
<path opacity="0.1" d="M0.128922 82.0582C0.124235 85.6796 1.14801 89.1969 3.03436 92.04C1.4592 94.4214 0.479342 97.2818 0.206811 100.294C-0.0657201 103.307 0.380077 106.349 1.49323 109.075C2.60639 111.8 4.34198 114.098 6.50157 115.705C8.66115 117.313 11.1576 118.166 13.7054 118.166C16.2533 118.166 18.7497 117.313 20.9093 115.705C23.0689 114.098 24.8044 111.8 25.9176 109.075C27.0308 106.349 27.4766 103.307 27.204 100.294C26.9315 97.2818 25.9516 94.4214 24.3765 92.04C26.1961 89.293 0.128922 80.2462 0.128922 82.0582Z" fill="black"/>
<path d="M97.9691 71.1895L91.2327 79.2001L88.0409 75.4048L86.7983 76.8824L91.2285 82.1504L99.2118 72.667L97.9691 71.1895Z" fill="#57B894"/>
<path d="M119.413 52.918L112.677 60.9286L109.485 57.1333L108.243 58.6109L112.673 63.879L120.656 54.3956L119.413 52.918Z" fill="#57B894"/>
</g>
<defs>
<clipPath id="clip0_703_585">
<rect width="170" height="153" fill="white" transform="translate(0.128906)"/>
</clipPath>
</defs>
</svg>
