<svg width="219" height="159" viewBox="0 0 219 159" fill="none" xmlns="http://www.w3.org/2000/svg">
<g clip-path="url(#clip0_815_1853)">
<path d="M13.7762 33.3275C11.0515 33.3275 8.38803 32.3502 6.12255 30.5192C3.85707 28.6881 2.09134 26.0856 1.04865 23.0407C0.00596902 19.9958 -0.266845 16.6453 0.264711 13.4128C0.796268 10.1804 2.10832 7.21118 4.03496 4.88071C5.96159 2.55024 8.41627 0.963172 11.0886 0.320197C13.7609 -0.322778 16.5308 0.00722017 19.0481 1.26846C21.5653 2.5297 23.7169 4.66554 25.2306 7.40588C26.7444 10.1462 27.5523 13.368 27.5523 16.6638C27.5482 21.0817 26.0955 25.3173 23.5128 28.4413C20.9302 31.5653 17.4286 33.3225 13.7762 33.3275ZM13.7762 0.694332C11.165 0.694332 8.61253 1.63092 6.44145 3.38567C4.27036 5.14041 2.57821 7.63449 1.57897 10.5525C0.579729 13.4706 0.318283 16.6815 0.827691 19.7792C1.3371 22.877 2.59448 25.7225 4.44084 27.9559C6.28719 30.1892 8.63959 31.7102 11.2006 32.3263C13.7615 32.9425 16.416 32.6263 18.8284 31.4176C21.2408 30.2089 23.3027 28.1621 24.7534 25.5359C26.204 22.9097 26.9783 19.8222 26.9783 16.6638C26.9744 12.4299 25.5822 8.37078 23.1071 5.37697C20.6321 2.38316 17.2764 0.699131 13.7762 0.694332Z" fill="#F2F2F2"/>
<path d="M107.339 23.6071C105.977 23.6071 104.645 23.1185 103.512 22.2029C102.38 21.2874 101.497 19.9862 100.975 18.4637C100.454 16.9413 100.318 15.266 100.584 13.6498C100.849 12.0335 101.505 10.5489 102.469 9.38371C103.432 8.21848 104.659 7.42495 105.995 7.10346C107.332 6.78197 108.717 6.94697 109.975 7.57759C111.234 8.20821 112.31 9.27613 113.066 10.6463C113.823 12.0165 114.227 13.6274 114.227 15.2752C114.225 17.4842 113.499 19.602 112.208 21.164C110.916 22.726 109.165 23.6046 107.339 23.6071ZM107.339 7.63769C106.09 7.63769 104.87 8.08562 103.831 8.92485C102.793 9.76407 101.984 10.9569 101.506 12.3525C101.028 13.7481 100.903 15.2837 101.146 16.7653C101.39 18.2468 101.991 19.6077 102.875 20.6758C103.758 21.7439 104.883 22.4713 106.107 22.766C107.332 23.0607 108.602 22.9095 109.756 22.3314C110.909 21.7534 111.895 20.7744 112.589 19.5184C113.283 18.2624 113.653 16.7858 113.653 15.2752C113.651 13.2503 112.986 11.309 111.802 9.8772C110.618 8.44538 109.013 7.63997 107.339 7.63769Z" fill="#F2F2F2"/>
<path d="M155.843 64.2252C154.31 64.2252 152.812 63.6755 151.538 62.6455C150.263 61.6156 149.27 60.1517 148.684 58.4389C148.097 56.7262 147.944 54.8415 148.243 53.0232C148.542 51.205 149.28 49.5348 150.363 48.2239C151.447 46.913 152.828 46.0203 154.331 45.6586C155.834 45.297 157.392 45.4826 158.808 46.192C160.224 46.9015 161.434 48.1029 162.286 49.6443C163.137 51.1858 163.592 52.998 163.592 54.8519C163.59 57.337 162.772 59.7195 161.32 61.4767C159.867 63.234 157.897 64.2224 155.843 64.2252ZM155.843 46.1728C154.424 46.1728 153.037 46.6819 151.857 47.6355C150.677 48.5892 149.757 49.9447 149.214 51.5306C148.671 53.1164 148.529 54.8615 148.806 56.5451C149.082 58.2286 149.766 59.7751 150.769 60.9889C151.773 62.2027 153.051 63.0293 154.443 63.3642C155.835 63.699 157.278 63.5272 158.589 62.8703C159.9 62.2134 161.02 61.101 161.809 59.6737C162.597 58.2464 163.018 56.5684 163.018 54.8519C163.016 52.5509 162.259 50.3448 160.914 48.7177C159.569 47.0907 157.745 46.1754 155.843 46.1728Z" fill="#F2F2F2"/>
<path d="M218.713 159H154.137C154.061 159 153.988 158.963 153.934 158.898C153.88 158.833 153.85 158.745 153.85 158.653C153.85 158.561 153.88 158.472 153.934 158.407C153.988 158.342 154.061 158.306 154.137 158.306H218.713C218.789 158.306 218.862 158.342 218.916 158.407C218.97 158.472 219 158.561 219 158.653C219 158.745 218.97 158.833 218.916 158.898C218.862 158.963 218.789 159 218.713 159Z" fill="#CCCCCC"/>
<path d="M183.945 53.2017C187.838 53.2017 190.994 49.3842 190.994 44.6751C190.994 39.9659 187.838 36.1484 183.945 36.1484C180.052 36.1484 176.896 39.9659 176.896 44.6751C176.896 49.3842 180.052 53.2017 183.945 53.2017Z" fill="#FFB8B8"/>
<path d="M184.677 145.927L181.345 147.296L175.395 132.403L180.312 130.383L184.677 145.927Z" fill="#FFB8B8"/>
<path d="M178.642 147.122L185.067 144.482L186.441 149.376L175.971 153.678C175.79 153.035 175.716 152.356 175.753 151.679C175.789 151.001 175.936 150.339 176.184 149.731C176.432 149.122 176.777 148.578 177.198 148.131C177.62 147.683 178.111 147.34 178.642 147.122Z" fill="#2F2E41"/>
<path d="M192.204 154.339L188.69 154.553L186.337 138.259L191.523 137.943L192.204 154.339Z" fill="#FFB8B8"/>
<path d="M186.13 153.491L192.907 153.079L193.122 158.24L182.077 158.912C182.049 158.234 182.131 157.556 182.32 156.917C182.508 156.277 182.799 155.689 183.175 155.186C183.552 154.682 184.006 154.274 184.513 153.983C185.02 153.692 185.569 153.525 186.13 153.491Z" fill="#2F2E41"/>
<path d="M171.292 100.202C171.607 99.8622 171.857 99.4434 172.024 98.9746C172.191 98.5059 172.27 97.9986 172.258 97.4884C172.245 96.9783 172.14 96.4778 171.95 96.0221C171.76 95.5664 171.489 95.1667 171.158 94.8511L174.508 83.126L169.345 84.7221L166.955 95.6118C166.553 96.3207 166.381 97.183 166.47 98.0355C166.559 98.888 166.903 99.6713 167.438 100.237C167.973 100.803 168.66 101.112 169.371 101.105C170.081 101.099 170.765 100.777 171.292 100.202Z" fill="#FFB8B8"/>
<path d="M191.876 149.427C191.831 149.427 191.785 149.424 191.74 149.418L186.97 148.807C186.677 148.771 186.403 148.615 186.194 148.363C185.985 148.112 185.854 147.782 185.823 147.427L182.136 107.674L179.468 118.552L184.442 139.932C184.493 140.149 184.503 140.378 184.474 140.601C184.444 140.824 184.375 141.037 184.271 141.225C184.167 141.413 184.03 141.571 183.871 141.689C183.711 141.807 183.532 141.881 183.346 141.907L178.511 142.579C178.203 142.62 177.893 142.527 177.637 142.316C177.381 142.105 177.196 141.79 177.115 141.428L171.832 117.369C171.788 117.171 171.777 116.965 171.8 116.762L174.174 95.1689L191.886 96.887L193.167 147.817C193.172 148.026 193.143 148.234 193.08 148.429C193.018 148.624 192.924 148.802 192.803 148.952C192.683 149.102 192.539 149.222 192.38 149.303C192.22 149.385 192.049 149.427 191.876 149.427Z" fill="#2F2E41"/>
<path d="M185.754 100.579C179.82 100.579 173.101 97.8055 172.694 97.6352L172.577 97.5858L179.271 56.0361L179.394 56.0422C182.047 56.1724 189.287 56.2392 189.36 56.2399L189.49 56.2411L192.28 92.9078L192.779 98.271L192.718 98.3309C191.011 100 188.464 100.579 185.754 100.579Z" fill="#404040"/>
<path d="M175.033 96.9882L170.846 94.9481L172.98 63.723C173.031 62.9532 173.225 62.2072 173.547 61.54C173.868 60.8729 174.31 60.3016 174.838 59.8683L177.042 58.0545C176.979 57.7981 176.968 57.5274 177.009 57.2648C177.05 57.0021 177.142 56.7549 177.277 56.5435C177.412 56.332 177.587 56.1624 177.787 56.0486C177.987 55.9347 178.206 55.8798 178.427 55.8884L179.058 55.9129C179.178 55.8151 179.32 55.7634 179.464 55.7647C179.609 55.7659 179.75 55.82 179.869 55.9199C179.987 56.0198 180.078 56.1608 180.13 56.3244C180.181 56.488 180.19 56.6665 180.156 56.8366L180.018 60.1448L175.033 96.9882Z" fill="#2F2E41"/>
<path d="M172.92 91.3907L167.453 91.1122L169.224 77.3326L170.692 64.3665C170.721 63.901 170.836 63.4493 171.03 63.0453C171.223 62.6412 171.49 62.2953 171.809 62.0334C172.129 61.7715 172.493 61.6003 172.875 61.5327C173.257 61.465 173.647 61.5027 174.015 61.6428C174.588 61.8605 175.08 62.3154 175.404 62.9277C175.728 63.5401 175.864 64.2708 175.787 64.9919L174.3 79.0406L172.92 91.3907Z" fill="#2F2E41"/>
<path d="M181.577 97.4661L181.54 97.3269C181.514 97.2317 179.051 87.6718 183.173 76.264L185.241 63.8267L187.007 56.0173C187.04 55.8777 187.1 55.7494 187.181 55.6426C187.262 55.5357 187.363 55.4533 187.475 55.4018C187.607 55.3466 187.75 55.3395 187.885 55.3815C188.02 55.4236 188.142 55.5128 188.236 55.638C189.467 55.2008 190.791 55.3609 191.926 56.0844L194.407 57.6654C194.959 58.0169 195.399 58.5799 195.657 59.2661C195.916 59.9524 195.979 60.7231 195.837 61.4574L192.446 78.9623L194.094 95.3126L181.577 97.4661Z" fill="#2F2E41"/>
<path d="M185.187 90.7261C185.607 90.7812 186.031 90.7244 186.431 90.5597C186.83 90.3949 187.195 90.1263 187.499 89.7726C187.803 89.419 188.039 88.989 188.191 88.5129C188.343 88.0368 188.407 87.5262 188.378 87.017L196.057 80.1361L193.373 78.5967L185.093 83.7562C184.389 83.8715 183.744 84.2951 183.281 84.9468C182.818 85.5985 182.569 86.4329 182.581 87.2921C182.592 88.1512 182.864 88.9753 183.345 89.6082C183.825 90.2411 184.481 90.6389 185.187 90.7261Z" fill="#FFB8B8"/>
<path d="M190.002 87.6465L187.408 81.7902L193.805 76.698L190.683 63.1553C190.558 62.6131 190.527 62.0455 190.591 61.488C190.656 60.9305 190.815 60.3951 191.058 59.9152C191.301 59.4353 191.623 59.0212 192.005 58.6987C192.386 58.3763 192.819 58.1524 193.275 58.0411C194.081 57.8468 194.918 58.0129 195.631 58.5086C196.343 59.0043 196.883 59.7959 197.149 60.7365L201.361 75.7114C201.448 76.02 201.453 76.3537 201.375 76.6657C201.297 76.9778 201.141 77.2526 200.927 77.4517L190.002 87.6465Z" fill="#2F2E41"/>
<path d="M184.444 46.4833C183.599 46.6162 182.962 45.5704 182.666 44.6037C182.371 43.637 182.145 42.5115 181.411 41.9893C180.407 41.2759 179.123 42.134 177.975 41.8986C176.679 41.6328 175.836 39.9711 175.77 38.3828C175.704 36.7945 176.226 35.2668 176.739 33.8024L176.918 35.6223C176.894 35.0055 177.001 34.3916 177.23 33.8393C177.458 33.287 177.8 32.8147 178.222 32.4678L177.991 35.1382C178.04 34.7698 178.149 34.4167 178.311 34.0993C178.473 33.7818 178.686 33.5062 178.936 33.2883C179.187 33.0704 179.47 32.9145 179.771 32.8295C180.071 32.7445 180.382 32.7321 180.687 32.793L180.65 34.3841C182.148 34.1688 183.658 33.9531 185.159 34.1172C186.661 34.2812 188.173 34.8559 189.311 36.0521C191.014 37.8414 191.635 40.7877 191.427 43.504C191.218 46.2204 190.291 48.7721 189.325 51.2371C189.082 51.8573 188.745 52.5572 188.182 52.6362C187.675 52.7072 187.212 52.1951 187.054 51.6085C186.933 51.0067 186.938 50.3777 187.068 49.7786C187.211 48.8631 187.39 47.9272 187.256 47.0098C187.122 46.0923 186.577 45.1857 185.812 45.0733C185.048 44.9609 184.265 46.018 184.633 46.8367L184.444 46.4833Z" fill="#2F2E41"/>
<path d="M92.2171 140.107L89.4731 138.709L87.5907 122.07H62.5239L60.4836 138.641L58.0286 140.126C57.9112 140.197 57.817 140.314 57.7614 140.458C57.7057 140.602 57.6918 140.764 57.722 140.919C57.7522 141.073 57.8246 141.211 57.9276 141.309C58.0306 141.408 58.1581 141.462 58.2894 141.462H91.9909C92.1255 141.462 92.2559 141.405 92.3601 141.302C92.4643 141.199 92.5357 141.056 92.5623 140.896C92.589 140.737 92.5691 140.571 92.5062 140.427C92.4433 140.283 92.3411 140.17 92.2171 140.107Z" fill="#E6E6E6"/>
<path d="M136.763 124.284H13.6272C12.9811 124.282 12.362 123.971 11.9057 123.418C11.4494 122.864 11.1931 122.115 11.1931 121.333V100.33H139.197V121.333C139.197 122.115 138.94 122.864 138.484 123.418C138.028 123.971 137.409 124.282 136.763 124.284Z" fill="#CCCCCC"/>
<path d="M139.325 110.256H11.0807V20.3873C11.0816 19.4442 11.3917 18.54 11.9431 17.8731C12.4944 17.2062 13.2419 16.8311 14.0216 16.8301H136.384C137.164 16.8311 137.912 17.2063 138.463 17.8731C139.014 18.54 139.324 19.4442 139.325 20.3873V110.256Z" fill="#3F3D56"/>
<path d="M131.666 103.734H18.7403C18.1392 103.733 17.5629 103.444 17.1378 102.93C16.7128 102.416 16.4737 101.719 16.473 100.992V26.0961C16.4737 25.369 16.7128 24.6719 17.1378 24.1577C17.5629 23.6436 18.1391 23.3543 18.7403 23.3535H131.666C132.267 23.3543 132.843 23.6436 133.268 24.1577C133.693 24.6719 133.932 25.369 133.933 26.0961V100.992C133.932 101.719 133.693 102.416 133.268 102.93C132.843 103.444 132.267 103.733 131.666 103.734Z" fill="white"/>
<path d="M130.603 141.635H21.2547C21.1785 141.635 21.1055 141.598 21.0517 141.533C20.9979 141.468 20.9677 141.38 20.9677 141.288C20.9677 141.196 20.9979 141.107 21.0517 141.042C21.1055 140.977 21.1785 140.94 21.2547 140.94H130.603C130.679 140.94 130.752 140.977 130.806 141.042C130.86 141.107 130.89 141.196 130.89 141.288C130.89 141.38 130.86 141.468 130.806 141.533C130.752 141.598 130.679 141.635 130.603 141.635Z" fill="#CCCCCC"/>
<path d="M121.057 94.4277H29.3491C29.273 94.4277 29.2 94.3911 29.1462 94.326C29.0924 94.2609 29.0621 94.1726 29.0621 94.0806V40.9116C29.0621 40.8195 29.0924 40.7312 29.1462 40.6661C29.2 40.601 29.273 40.5645 29.3491 40.5645C29.4253 40.5645 29.4983 40.601 29.5521 40.6661C29.6059 40.7312 29.6361 40.8195 29.6361 40.9116V93.7334H121.057C121.133 93.7334 121.206 93.77 121.26 93.8351C121.314 93.9002 121.344 93.9885 121.344 94.0806C121.344 94.1726 121.314 94.2609 121.26 94.326C121.206 94.3911 121.133 94.4277 121.057 94.4277Z" fill="#3F3D56"/>
<path d="M48.9432 90.6091H40.602C40.3761 90.6088 40.1596 90.5001 39.9998 90.3069C39.8401 90.1138 39.7503 89.8518 39.75 89.5786V75.6701C39.7503 75.3969 39.8401 75.135 39.9998 74.9418C40.1596 74.7486 40.3761 74.64 40.602 74.6396H48.9432C49.169 74.64 49.3856 74.7486 49.5453 74.9418C49.705 75.135 49.7949 75.3969 49.7951 75.6701V89.5786C49.7949 89.8518 49.705 90.1138 49.5453 90.3069C49.3856 90.5001 49.169 90.6088 48.9432 90.6091Z" fill="#404040"/>
<path d="M64.1543 90.6088H55.8132C55.5873 90.6085 55.3707 90.4999 55.211 90.3067C55.0513 90.1135 54.9615 89.8516 54.9612 89.5784V62.4777C54.9615 62.2045 55.0513 61.9426 55.211 61.7494C55.3707 61.5562 55.5873 61.4476 55.8132 61.4473H64.1543C64.3802 61.4476 64.5967 61.5562 64.7565 61.7494C64.9162 61.9426 65.006 62.2045 65.0063 62.4777V89.5784C65.006 89.8516 64.9162 90.1135 64.7565 90.3067C64.5967 90.4999 64.3802 90.6085 64.1543 90.6088Z" fill="#404040"/>
<path d="M79.3655 90.6091H71.0243C70.7985 90.6088 70.5819 90.5001 70.4222 90.3069C70.2625 90.1138 70.1726 89.8518 70.1724 89.5786V75.6701C70.1726 75.3969 70.2625 75.135 70.4222 74.9418C70.5819 74.7486 70.7985 74.64 71.0243 74.6396H79.3655C79.5914 74.64 79.8079 74.7486 79.9676 74.9418C80.1274 75.135 80.2172 75.3969 80.2175 75.6701V89.5786C80.2172 89.8518 80.1274 90.1138 79.9676 90.3069C79.8079 90.5001 79.5914 90.6088 79.3655 90.6091Z" fill="#404040"/>
<path d="M94.5767 90.6095H86.2355C86.0148 90.6152 85.8012 90.5149 85.6415 90.3305C85.4818 90.1461 85.389 89.8926 85.3835 89.6257V57.2243C85.389 56.9573 85.4818 56.7038 85.6415 56.5194C85.8012 56.335 86.0148 56.2347 86.2355 56.2405H94.5767C94.7974 56.2347 95.011 56.335 95.1707 56.5194C95.3304 56.7038 95.4232 56.9573 95.4287 57.2243V89.6257C95.4232 89.8926 95.3304 90.1461 95.1707 90.3305C95.011 90.5149 94.7974 90.6152 94.5767 90.6095Z" fill="#404040"/>
<path d="M109.788 90.6095H101.447C101.221 90.6092 101.004 90.5006 100.845 90.3074C100.685 90.1142 100.595 89.8523 100.595 89.5791V47.8977C100.595 47.6244 100.685 47.3625 100.845 47.1693C101.004 46.9762 101.221 46.8675 101.447 46.8672H109.788C110.014 46.8675 110.23 46.9762 110.39 47.1693C110.55 47.3625 110.64 47.6244 110.64 47.8977V89.5791C110.64 89.8523 110.55 90.1142 110.39 90.3074C110.23 90.5006 110.014 90.6092 109.788 90.6095Z" fill="#404040"/>
<path d="M44.7726 70.4736C45.7236 70.4736 46.4946 69.541 46.4946 68.3906C46.4946 67.2402 45.7236 66.3076 44.7726 66.3076C43.8215 66.3076 43.0505 67.2402 43.0505 68.3906C43.0505 69.541 43.8215 70.4736 44.7726 70.4736Z" fill="#3F3D56"/>
<path d="M59.9837 56.9345C60.9348 56.9345 61.7058 56.0019 61.7058 54.8515C61.7058 53.7011 60.9348 52.7686 59.9837 52.7686C59.0327 52.7686 58.2617 53.7011 58.2617 54.8515C58.2617 56.0019 59.0327 56.9345 59.9837 56.9345Z" fill="#3F3D56"/>
<path d="M75.1949 70.4736C76.146 70.4736 76.9169 69.541 76.9169 68.3906C76.9169 67.2402 76.146 66.3076 75.1949 66.3076C74.2439 66.3076 73.4729 67.2402 73.4729 68.3906C73.4729 69.541 74.2439 70.4736 75.1949 70.4736Z" fill="#3F3D56"/>
<path d="M90.4061 50.3388C91.3571 50.3388 92.1281 49.4062 92.1281 48.2558C92.1281 47.1054 91.3571 46.1729 90.4061 46.1729C89.4551 46.1729 88.6841 47.1054 88.6841 48.2558C88.6841 49.4062 89.4551 50.3388 90.4061 50.3388Z" fill="#3F3D56"/>
<path d="M105.617 42.7011C106.568 42.7011 107.339 41.7685 107.339 40.6181C107.339 39.4677 106.568 38.5352 105.617 38.5352C104.666 38.5352 103.895 39.4677 103.895 40.6181C103.895 41.7685 104.666 42.7011 105.617 42.7011Z" fill="#3F3D56"/>
<path d="M75.2311 68.8569L59.9837 55.0427L44.9447 68.6681L44.6003 68.1126L59.9837 54.1751L75.1588 67.9238L90.2382 47.9627L90.2988 47.9328L105.51 40.5195L105.725 41.1635L90.574 48.5473L75.2311 68.8569Z" fill="#3F3D56"/>
</g>
<defs>
<clipPath id="clip0_815_1853">
<rect width="219" height="159" fill="white"/>
</clipPath>
</defs>
</svg>
