<svg width="196" height="173" viewBox="0 0 196 173" fill="none" xmlns="http://www.w3.org/2000/svg">
<g clip-path="url(#clip0_815_1946)">
<path d="M156.472 31.5124C155.454 43.7209 152.553 56.5942 148.004 69.0151C142.378 84.3753 134.692 97.9044 125.777 108.14L125.282 107.67C134.154 97.4842 141.805 84.0147 147.407 68.7181C152.47 54.8948 155.482 40.5096 156.12 27.124L156.752 27.2392C156.685 28.6529 156.592 30.0773 156.472 31.5124Z" fill="#F2F2F2"/>
<path d="M160.527 102.417C148.004 124.099 132.811 139.59 117.747 146.037L117.442 145.429C132.402 139.027 147.506 123.614 159.972 102.032L160.527 102.417Z" fill="#F2F2F2"/>
<path d="M156.168 46.7126C155.15 58.9211 152.249 71.7944 147.7 84.2153C142.074 99.5755 134.388 113.105 125.473 123.34L124.978 122.871C133.85 112.684 141.501 99.2149 147.103 83.9183C152.166 70.095 155.178 55.7098 155.816 42.3242L156.448 42.4394C156.381 43.8531 156.288 45.2775 156.168 46.7126Z" fill="#F2F2F2"/>
<path d="M15.5849 78.056H7.36853C7.19299 78.0564 7.01964 78.0135 6.86149 77.9306C6.70334 77.8477 6.56449 77.7269 6.45536 77.5773C6.34755 77.4314 6.27149 77.2609 6.23288 77.0785C6.19428 76.8962 6.19413 76.7066 6.23246 76.5242C7.01499 72.7665 6.96583 68.8603 6.08903 65.1274C6.03357 64.8816 6.04698 64.6234 6.12753 64.3859C6.20808 64.1485 6.35209 63.9428 6.54101 63.7952C10.7659 60.4884 14.0931 60.5843 16.4303 64.0809C16.5357 64.2403 16.6057 64.424 16.6348 64.6178C17.2593 68.7035 17.2939 72.8702 16.7373 76.9675C16.6986 77.2698 16.5605 77.5467 16.3486 77.7469C16.1368 77.947 15.8655 78.0568 15.5849 78.056Z" fill="#E6E6E6"/>
<path d="M13.0376 69.101H10.2111C10.0548 69.101 9.90494 69.0335 9.79443 68.9132C9.68391 68.7929 9.62183 68.6298 9.62183 68.4597C9.62183 68.2896 9.68391 68.1265 9.79443 68.0062C9.90494 67.8859 10.0548 67.8184 10.2111 67.8184H13.0376C13.1937 67.8187 13.3432 67.8864 13.4535 68.0067C13.5638 68.1269 13.6257 68.2898 13.6257 68.4597C13.6257 68.6296 13.5638 68.7925 13.4535 68.9127C13.3432 69.0329 13.1937 69.1007 13.0376 69.101Z" fill="white"/>
<path d="M13.0376 71.3501H10.2111C10.0548 71.3501 9.90494 71.2825 9.79443 71.1622C9.68391 71.0419 9.62183 70.8788 9.62183 70.7087C9.62183 70.5386 9.68391 70.3755 9.79443 70.2552C9.90494 70.135 10.0548 70.0674 10.2111 70.0674H13.0376C13.1937 70.0677 13.3432 70.1355 13.4535 70.2557C13.5638 70.3759 13.6257 70.5389 13.6257 70.7087C13.6257 70.8786 13.5638 71.0415 13.4535 71.1617C13.3432 71.282 13.1937 71.3497 13.0376 71.3501Z" fill="white"/>
<path d="M13.0376 73.6001H10.2111C10.0548 73.6001 9.90494 73.5325 9.79443 73.4122C9.68391 73.2919 9.62183 73.1288 9.62183 72.9587C9.62183 72.7886 9.68391 72.6255 9.79443 72.5052C9.90494 72.385 10.0548 72.3174 10.2111 72.3174H13.0376C13.1937 72.3177 13.3432 72.3855 13.4535 72.5057C13.5638 72.6259 13.6257 72.7889 13.6257 72.9587C13.6257 73.1286 13.5638 73.2915 13.4535 73.4117C13.3432 73.532 13.1937 73.5997 13.0376 73.6001Z" fill="white"/>
<path d="M164.909 117.979H156.693C156.517 117.979 156.344 117.936 156.186 117.853C156.028 117.771 155.889 117.65 155.78 117.5C155.672 117.354 155.596 117.184 155.557 117.001C155.519 116.819 155.519 116.629 155.557 116.447C156.339 112.689 156.29 108.783 155.413 105.05C155.358 104.804 155.371 104.546 155.452 104.309C155.533 104.071 155.677 103.866 155.865 103.718C160.09 100.411 163.418 100.507 165.755 104.004C165.86 104.163 165.93 104.347 165.959 104.541C166.584 108.626 166.618 112.793 166.062 116.89C166.023 117.193 165.885 117.47 165.673 117.67C165.461 117.87 165.19 117.98 164.909 117.979Z" fill="#E6E6E6"/>
<path d="M162.362 109.025H159.536C159.38 109.025 159.23 108.957 159.12 108.837C159.009 108.716 158.948 108.553 158.948 108.384C158.948 108.214 159.009 108.051 159.12 107.931C159.23 107.81 159.38 107.743 159.536 107.742H162.362C162.518 107.742 162.668 107.81 162.779 107.93C162.889 108.05 162.951 108.213 162.951 108.384C162.951 108.554 162.889 108.717 162.779 108.837C162.668 108.957 162.518 109.025 162.362 109.025Z" fill="white"/>
<path d="M162.362 111.274H159.536C159.38 111.274 159.23 111.206 159.12 111.086C159.009 110.965 158.948 110.802 158.948 110.633C158.948 110.463 159.009 110.3 159.12 110.18C159.23 110.059 159.38 109.992 159.536 109.991H162.362C162.518 109.991 162.668 110.059 162.779 110.179C162.889 110.299 162.951 110.462 162.951 110.633C162.951 110.803 162.889 110.966 162.779 111.086C162.668 111.206 162.518 111.274 162.362 111.274Z" fill="white"/>
<path d="M162.362 113.523H159.536C159.38 113.523 159.23 113.455 159.12 113.335C159.009 113.214 158.948 113.051 158.948 112.882C158.948 112.712 159.009 112.549 159.12 112.429C159.23 112.308 159.38 112.241 159.536 112.24H162.362C162.518 112.24 162.668 112.308 162.779 112.428C162.889 112.548 162.951 112.711 162.951 112.882C162.951 113.052 162.889 113.215 162.779 113.335C162.668 113.455 162.518 113.523 162.362 113.523Z" fill="white"/>
<path d="M196 172.666C196 172.71 195.992 172.753 195.977 172.794C195.961 172.834 195.939 172.871 195.91 172.902C195.882 172.934 195.848 172.958 195.81 172.975C195.773 172.992 195.733 173 195.693 173H0.307433C0.225897 173 0.147703 172.965 0.0900485 172.902C0.0323937 172.839 0 172.754 0 172.666C0 172.577 0.0323937 172.492 0.0900485 172.429C0.147703 172.366 0.225897 172.331 0.307433 172.331H195.693C195.733 172.331 195.773 172.339 195.81 172.356C195.848 172.373 195.882 172.398 195.91 172.429C195.939 172.46 195.961 172.497 195.977 172.537C195.992 172.578 196 172.622 196 172.666Z" fill="#CCCCCC"/>
<path d="M51.5412 152.181L51.0288 144.424C47.672 142.598 43.9563 141.691 40.2043 141.783C45.4828 146.223 45.06 155.097 48.7156 161.171C49.8691 163.055 51.3975 164.634 53.1876 165.788C54.9777 166.943 56.9836 167.644 59.0566 167.84L63.4496 170.59C63.9521 166.976 63.7286 163.286 62.7945 159.774C61.8604 156.263 60.2379 153.014 58.0387 150.25C56.7909 148.713 55.3702 147.354 53.8101 146.203C52.8499 149.203 51.5412 152.181 51.5412 152.181Z" fill="#F2F2F2"/>
<path d="M144.459 153.305L144.971 145.548C148.328 143.722 152.044 142.815 155.796 142.907C150.517 147.347 150.94 156.221 147.285 162.295C146.131 164.18 144.603 165.758 142.813 166.912C141.022 168.067 139.017 168.768 136.944 168.964L132.551 171.715C132.048 168.1 132.272 164.41 133.206 160.898C134.14 157.387 135.762 154.138 137.961 151.374C139.209 149.837 140.63 148.478 142.19 147.327C143.15 150.327 144.459 153.305 144.459 153.305Z" fill="#F2F2F2"/>
<path d="M95.6749 65.7736C98.3859 65.7736 100.584 63.382 100.584 60.4317C100.584 57.4815 98.3859 55.0898 95.6749 55.0898C92.964 55.0898 90.7664 57.4815 90.7664 60.4317C90.7664 63.382 92.964 65.7736 95.6749 65.7736Z" fill="#404040"/>
<path d="M98.1947 58.2054C98.1208 58.1287 98.0227 58.0859 97.9206 58.0859C97.8186 58.0859 97.7205 58.1287 97.6466 58.2054C96.6051 59.1094 95.6696 60.1493 94.8612 61.3016C94.6627 60.8837 94.4642 60.4658 94.2658 60.0479C94.0367 59.5655 93.3677 59.9917 93.5966 60.4736C93.8869 61.0849 94.1771 61.6961 94.4674 62.3074C94.5024 62.3698 94.5516 62.4214 94.6102 62.4571C94.6688 62.4929 94.7348 62.5117 94.802 62.5117C94.8692 62.5117 94.9353 62.4929 94.9939 62.4571C95.0525 62.4214 95.1016 62.3698 95.1367 62.3074C95.9981 60.987 97.0278 59.8066 98.1947 58.8018C98.2668 58.7224 98.3072 58.6152 98.3072 58.5036C98.3072 58.3919 98.2668 58.2848 98.1947 58.2054Z" fill="white"/>
<path d="M73.7114 75.5788L66.3093 62.9282L74.8807 57.9326L77.1304 67.5845L92.9813 76.906C93.6071 76.6609 94.285 76.6193 94.9321 76.7861C95.5793 76.953 96.1679 77.3212 96.6261 77.8459C97.0843 78.3705 97.3923 79.0289 97.5127 79.7407C97.633 80.4526 97.5604 81.1871 97.3037 81.8549C97.047 82.5226 96.6174 83.0946 96.0672 83.5012C95.5169 83.9078 94.8699 84.1314 94.2049 84.1447C93.5399 84.158 92.8857 83.9604 92.3221 83.5761C91.7585 83.1918 91.3099 82.6373 91.0308 81.9803L73.7114 75.5788Z" fill="#A0616A"/>
<path d="M60.9014 47.7556C58.5756 51.4718 66.8407 64.9797 66.8407 64.9797C67.2434 64.0352 71.0924 74.6418 71.737 74.0153C73.5692 72.2345 76.4374 67.2743 78.0317 67.0532C78.9434 66.9267 75.9171 59.8898 75.9171 59.8898C75.9171 59.8898 74.534 55.7346 72.6573 50.4266C72.1523 48.9153 71.3041 47.5676 70.1917 46.5089C69.0793 45.4503 67.7389 44.7151 66.2952 44.3719C66.2952 44.3719 63.2271 44.0395 60.9014 47.7556Z" fill="#3F3D56"/>
<path d="M61.0149 168.829L64.5303 168.829L66.2025 154.072L61.0142 154.073L61.0149 168.829Z" fill="#A0616A"/>
<path d="M60.1182 167.58L61.1076 167.58L64.9707 165.87L67.0412 167.58H67.0415C68.2116 167.58 69.3337 168.086 70.1611 168.986C70.9885 169.886 71.4533 171.107 71.4534 172.381V172.537L60.1184 172.537L60.1182 167.58Z" fill="#2F2E41"/>
<path d="M77.3467 168.829L80.862 168.829L82.5346 154.072L77.3462 154.073L77.3467 168.829Z" fill="#A0616A"/>
<path d="M76.45 167.58L77.4394 167.58L81.3025 165.87L83.373 167.58H83.3733C84.5434 167.58 85.6655 168.086 86.4929 168.986C87.3203 169.886 87.7851 171.107 87.7852 172.381V172.537L76.4502 172.537L76.45 167.58Z" fill="#2F2E41"/>
<path d="M78.8683 88.1553L56.0027 88.7774C51.6601 91.3443 51.5941 96.9 53.017 103.496C53.017 103.496 52.5367 107.417 53.4974 108.462C54.4581 109.508 54.9384 109.508 54.4581 111.338C53.9777 113.167 56.5156 116.155 56.2074 116.491C55.8991 116.826 55.1786 118.656 55.1786 118.656L57.5803 133.554C57.5803 133.554 59.2616 159.43 59.7419 159.953C60.2222 160.476 60.7026 159.953 60.2222 161.26C59.7419 162.567 59.2616 162.044 59.7419 162.567C60.1674 163.066 60.5682 163.59 60.9428 164.135H66.7495C66.7495 164.135 67.1873 161.521 67.1873 161.26C67.1873 160.999 67.6676 159.43 67.6676 159.169C67.6676 158.908 67.2431 158.446 67.2431 158.446C67.0964 157.914 66.9972 157.369 66.9471 156.817C66.9471 156.294 65.5061 136.168 65.5061 136.168L68.3881 110.031L75.3532 135.645C75.3532 135.645 75.3532 158.124 75.8335 158.646C76.3139 159.169 76.3139 158.908 76.0737 159.953C75.8335 160.999 74.8728 160.737 75.5933 161.521C76.3139 162.306 76.554 160.999 76.3139 162.306L76.0737 163.612L83.2789 163.725C83.2789 163.725 84.2396 161.521 83.7593 160.737C83.2789 159.953 83.3077 160.167 83.8938 158.884C84.4798 157.601 84.72 157.339 84.4798 157.078C84.2396 156.817 84.2396 155.426 84.2396 155.426L83.0387 130.418C83.0387 130.418 82.7986 104.019 82.7986 103.235C82.7805 102.831 82.8488 102.429 82.9981 102.059V100.995L82.078 97.2233L78.8683 88.1553Z" fill="#2F2E41"/>
<path d="M65.1328 36.4134C69.0565 36.4134 72.2372 32.9518 72.2372 28.6818C72.2372 24.4117 69.0565 20.9502 65.1328 20.9502C61.2091 20.9502 58.0283 24.4117 58.0283 28.6818C58.0283 32.9518 61.2091 36.4134 65.1328 36.4134Z" fill="#A0616A"/>
<path d="M68.685 41.5234C70.2155 42.5136 71.1311 44.3331 71.6567 46.1845C72.6298 49.6123 73.2155 53.1562 73.4009 56.7381L73.956 67.4616L80.8313 90.295C74.8727 95.7819 52.4753 91.542 52.4753 91.542C52.4753 91.542 51.7878 91.2927 52.4753 90.5444C53.1628 89.7962 53.8322 90.4591 53.1446 89.7109C52.4571 88.9626 52.9311 89.7962 53.1603 89.048C53.3894 88.2997 53.1603 88.7986 52.9311 88.5492C52.7019 88.2997 54.7052 86.0551 54.7052 86.0551L52.8718 72.9485L50.5801 46.5115C53.3302 42.7704 58.861 40.5651 58.861 40.5651L60.2901 37.7656L67.4356 38.3877L68.685 41.5234Z" fill="#3F3D56"/>
<path d="M70.9893 24.5736C71.5414 25.0218 71.9505 25.6472 72.1589 26.3617C72.239 25.194 72.2441 24.0217 72.1741 22.8533C72.0904 22.0322 71.5592 21.8475 70.9442 21.6335C70.3887 21.4402 69.7606 21.2218 69.5916 20.4247C67.3583 18.0604 63.4707 18.1796 60.8102 19.0043C59.3462 19.4581 58.5038 20.0412 58.4284 20.3828L58.4128 20.4531L58.3533 20.4855C57.2249 21.0995 57.0052 23.0386 57.0197 24.557C57.0472 27.418 57.9549 30.6673 58.4662 30.9313C58.4933 30.9453 58.5002 30.9398 58.5119 30.9292C59.2818 30.2595 60.2212 30.98 60.634 31.3717C60.8775 29.5936 61.6615 27.9556 62.8608 26.7192C64.0601 25.4829 65.6055 24.7195 67.2502 24.5511C67.7873 24.4946 68.3201 24.3974 68.8448 24.2601C69.1109 24.1852 69.3845 24.1461 69.6594 24.1438C70.1326 24.136 70.5967 24.286 70.9893 24.5736Z" fill="#2F2E41"/>
<path d="M115.093 94.3167L128.759 79.2137L132.36 67.1345L126.566 64.584C123.695 67.7348 120.741 77.3806 120.741 77.3806L111.413 91.0047C111.338 91.0349 111.264 91.0667 111.191 91.1044C110.762 91.325 110.392 91.6625 110.117 92.0842C109.843 92.5059 109.673 92.9976 109.624 93.5116C109.575 94.0257 109.648 94.5449 109.838 95.0189C110.027 95.4929 110.325 95.9057 110.704 96.2175C111.083 96.5294 111.529 96.7296 112 96.7988C112.47 96.8681 112.949 96.8041 113.391 96.613C113.832 96.4219 114.22 96.1101 114.519 95.7079C114.817 95.3056 115.015 94.8264 115.093 94.3167Z" fill="#FFB8B8"/>
<path d="M124.985 65.9652L132.313 68.2721L132.34 68.2663C135.033 67.6972 137.164 62.8259 138.477 58.8397C138.909 57.5249 138.866 56.0807 138.357 54.799C137.848 53.5173 136.911 52.4938 135.735 51.9353C134.865 51.5297 133.908 51.3971 132.972 51.5524C132.036 51.7076 131.159 52.1446 130.44 52.814L126.786 56.2376L124.985 65.9652Z" fill="#404040"/>
<path d="M118.716 168.381L114.775 168.38L112.9 151.839L118.716 151.839L118.716 168.381Z" fill="#FFB8B8"/>
<path d="M119.721 166.98L118.612 166.98L114.281 165.063L111.96 166.98H111.96C110.648 166.98 109.39 167.547 108.463 168.556C107.535 169.566 107.014 170.935 107.014 172.362V172.537L119.721 172.537L119.721 166.98Z" fill="#2F2E41"/>
<path d="M136.201 168.381L132.261 168.38L130.386 151.839L136.202 151.839L136.201 168.381Z" fill="#FFB8B8"/>
<path d="M137.207 166.98L136.098 166.98L131.767 165.063L129.446 166.98H129.446C128.134 166.98 126.876 167.547 125.949 168.556C125.021 169.566 124.5 170.935 124.5 172.362V172.537L137.207 172.537L137.207 166.98Z" fill="#2F2E41"/>
<path d="M142.21 97.1296C142.21 97.1296 142.67 103.139 141.52 108.898C140.37 114.657 140.37 130.875 140.37 130.875L137.839 162.48L130.246 161.729L128.176 108.898L120.813 126.675L121.503 129.179L120.584 129.805C120.584 129.805 121.273 134.687 120.813 134.687C120.353 134.687 119.203 135.438 119.203 135.438L120.123 161.228L112.3 160.978L109.54 124.672L112.531 103.89L112.761 99.8839L113.796 99.9302L114.323 98.2564L115.291 95.377L142.21 97.1296Z" fill="#2F2E41"/>
<path d="M142.608 98.3917L142.649 98.3291C144.839 94.9924 141.545 86.9745 141.048 85.8122L143.141 85.0732L142.67 80.7146L142.446 78.7715L144.046 77.0311L144.05 76.9877L144.97 68.2243L146.308 62.4037C146.813 60.2033 146.77 57.8965 146.184 55.7201C145.598 53.5438 144.491 51.5763 142.976 50.0195L139.883 46.8458L136.124 40.793H130.062L127.984 45.0654C125.968 45.5722 124.181 46.8323 122.931 48.6262C121.682 50.42 121.051 52.6339 121.148 54.8822L121.619 66.0875L119.775 80.0392L119.773 82.564L117.698 85.074L118.151 87.5398L116.572 88.2764L115.874 91.818C115.586 92.2325 113.681 94.9967 113.681 95.7524C113.681 95.8658 113.758 95.9755 113.923 96.0972C115.221 97.0538 122.397 99.0042 125.572 97.6212C128.955 96.1493 142.403 98.3575 142.538 98.38L142.608 98.3917Z" fill="#404040"/>
<path d="M132.31 38.8385C136.744 38.8385 140.338 34.927 140.338 30.1019C140.338 25.2768 136.744 21.3652 132.31 21.3652C127.876 21.3652 124.282 25.2768 124.282 30.1019C124.282 34.927 127.876 38.8385 132.31 38.8385Z" fill="#FFB8B8"/>
<path d="M131.541 38.9799C132.784 38.9661 134.024 38.8367 135.247 38.5932C136.458 38.2896 139.129 36.0416 139.857 34.7135C140.398 33.7267 140.723 32.2005 140.9 31.0939C141.139 29.6294 141.093 28.1266 140.765 26.6828C140.436 25.239 139.833 23.8863 138.994 22.7124C138.67 22.2206 138.231 21.8331 137.721 21.5909C137.676 21.5732 137.63 21.5577 137.583 21.5446C136.845 21.3552 136.176 20.9301 135.661 20.3237C135.561 20.2009 135.453 20.0862 135.338 19.9803C134.761 19.4773 134.082 19.1301 133.358 18.9671C132.188 18.6614 130.515 19.0445 128.384 20.1069C127.314 20.6407 126.126 20.4918 125.21 20.3024C125.159 20.2931 125.106 20.2986 125.057 20.3183C125.009 20.3381 124.965 20.3714 124.932 20.4149C124.554 20.8216 124.049 21.0575 123.517 21.0752C123.192 21.0999 122.862 21.5999 122.465 22.2511C122.374 22.3989 122.269 22.5714 122.193 22.6767L122.178 22.479L121.999 22.705C121.718 23.0603 121.524 23.4872 121.435 23.9461C121.346 24.4049 121.366 24.8807 121.491 25.3292C121.617 25.7776 121.845 26.1842 122.154 26.5109C122.463 26.8377 122.843 27.0741 123.258 27.198C123.588 27.2836 123.925 27.3324 124.264 27.3435C124.469 27.3578 124.681 27.3726 124.885 27.4052C125.541 27.5322 126.155 27.8419 126.667 28.3041C127.18 28.7663 127.573 29.3653 127.809 30.0425C127.865 30.199 127.953 30.3394 128.067 30.453C128.181 30.5666 128.317 30.6502 128.465 30.6975C128.613 30.7447 128.769 30.7543 128.921 30.7256C129.073 30.6968 129.216 30.6304 129.341 30.5315C129.548 30.3463 129.794 30.2183 130.056 30.1587C130.319 30.099 130.591 30.1093 130.849 30.1887C131.073 30.3164 131.251 30.5242 131.351 30.7772C131.473 31.0589 131.668 31.2948 131.913 31.4549C132.749 31.8946 132.855 33.9432 132.599 35.6607C132.353 37.3162 131.816 38.5239 131.295 38.5975C130.894 38.6541 130.849 38.6865 130.821 38.7647L130.797 38.8348L130.844 38.8984C131.068 38.9798 131.306 39.0076 131.541 38.9799Z" fill="#2F2E41"/>
<path d="M124.88 66.8997L121.022 61.5488C117.091 62.7268 110.117 69.4921 110.117 69.4921L95.7934 76.2565C95.3153 76.169 94.8245 76.2202 94.3704 76.4048C93.9163 76.5894 93.5149 76.901 93.2066 77.3081C92.8983 77.7152 92.694 78.2035 92.6143 78.7239C92.5345 79.2442 92.5821 79.7783 92.7523 80.2723C92.9225 80.7662 93.2093 81.2027 93.5837 81.5377C93.9582 81.8727 94.4071 82.0945 94.8854 82.1807C95.3636 82.2668 95.8543 82.2144 96.308 82.0286C96.7617 81.8428 97.1624 81.5302 97.4698 81.1223L116.233 75.4257L124.88 66.8997Z" fill="#FFB8B8"/>
<path d="M123.956 68.1234L130.044 60.7368L130.382 55.5029C130.445 54.4751 130.243 53.4487 129.798 52.5396C129.353 51.6304 128.683 50.8749 127.864 50.3583C126.75 49.6661 125.436 49.4603 124.187 49.7824C122.939 50.1045 121.849 50.9304 121.139 52.0933C118.987 55.6219 116.673 60.3928 117.864 63.0826L117.876 63.1099L123.956 68.1234Z" fill="#404040"/>
<path d="M67.8364 95.8869L52.0115 87.0668C50.8859 86.4394 50.5131 84.7754 51.1804 83.3573L61.4985 61.4321C62.1659 60.0141 63.6246 59.3708 64.7502 59.9982L80.5751 68.8183C81.7007 69.4457 82.0736 71.1097 81.4062 72.5277L71.0881 94.453C70.4207 95.871 68.9621 96.5143 67.8364 95.8869Z" fill="#E6E6E6"/>
<path d="M65.1326 91.8317L54.381 85.8392C53.3267 85.2516 52.9775 83.6932 53.6025 82.3651L62.1746 64.15C62.7996 62.8219 64.1658 62.2196 65.22 62.8072L78.2058 70.0449C79.26 70.6324 79.6092 72.1908 78.9842 73.5189L74.3273 83.4143C71.5434 89.3299 69.8284 94.449 65.1326 91.8317Z" fill="white"/>
<path d="M70.4485 81.8851L60.9255 76.5774C60.8091 76.4871 60.7264 76.3543 60.6925 76.2031C60.6586 76.0519 60.6758 75.8926 60.741 75.7541C60.8062 75.6156 60.915 75.5072 61.0475 75.4488C61.18 75.3904 61.3274 75.3858 61.4628 75.4358L70.9858 80.7435C71.1022 80.8338 71.1849 80.9667 71.2188 81.1179C71.2527 81.269 71.2355 81.4284 71.1703 81.5669C71.1051 81.7054 70.9963 81.8137 70.8638 81.8722C70.7313 81.9306 70.5839 81.9352 70.4485 81.8851Z" fill="#404040"/>
<path d="M62.0372 80.0436L59.864 78.8324C59.7476 78.7421 59.6648 78.6092 59.631 78.458C59.5971 78.3069 59.6143 78.1475 59.6795 78.009C59.7447 77.8705 59.8535 77.7621 59.986 77.7037C60.1185 77.6453 60.2659 77.6407 60.4013 77.6907L62.5745 78.902C62.691 78.9923 62.7737 79.1251 62.8075 79.2763C62.8414 79.4275 62.8242 79.5869 62.759 79.7254C62.6938 79.8638 62.585 79.9722 62.4525 80.0306C62.32 80.0891 62.1726 80.0937 62.0372 80.0436Z" fill="#404040"/>
<path d="M64.8251 84.4448L58.8027 81.0882C58.6863 80.9979 58.6036 80.8651 58.5697 80.7139C58.5358 80.5627 58.553 80.4033 58.6182 80.2648C58.6834 80.1264 58.7922 80.018 58.9247 79.9596C59.0572 79.9011 59.2046 79.8965 59.34 79.9466L65.3623 83.3032C65.4788 83.3935 65.5615 83.5263 65.5953 83.6775C65.6292 83.8287 65.612 83.988 65.5468 84.1265C65.4816 84.265 65.3729 84.3734 65.2403 84.4318C65.1078 84.4903 64.9604 84.4949 64.8251 84.4448Z" fill="#404040"/>
<path d="M74.2171 73.8773L64.6941 68.5696C64.5776 68.4793 64.4949 68.3465 64.4611 68.1953C64.4272 68.0441 64.4444 67.8848 64.5096 67.7463C64.5747 67.6078 64.6835 67.4994 64.816 67.441C64.9485 67.3826 65.0959 67.378 65.2313 67.428L74.7543 72.7357C74.8708 72.826 74.9535 72.9589 74.9874 73.11C75.0213 73.2612 75.004 73.4206 74.9389 73.5591C74.8737 73.6976 74.7649 73.8059 74.6324 73.8644C74.4999 73.9228 74.3525 73.9274 74.2171 73.8773Z" fill="#404040"/>
<path d="M65.8058 72.0358L63.6325 70.8245C63.5161 70.7342 63.4334 70.6014 63.3995 70.4502C63.3657 70.299 63.3829 70.1397 63.4481 70.0012C63.5132 69.8627 63.622 69.7543 63.7545 69.6959C63.887 69.6374 64.0344 69.6328 64.1698 69.6829L66.3431 70.8942C66.4595 70.9845 66.5422 71.1173 66.5761 71.2685C66.61 71.4197 66.5927 71.579 66.5275 71.7175C66.4624 71.856 66.3536 71.9644 66.2211 72.0228C66.0886 72.0813 65.9412 72.0859 65.8058 72.0358Z" fill="#404040"/>
<path d="M68.5934 76.437L62.571 73.0804C62.4546 72.9901 62.3719 72.8572 62.338 72.7061C62.3041 72.5549 62.3214 72.3955 62.3865 72.257C62.4517 72.1185 62.5605 72.0102 62.693 71.9517C62.8255 71.8933 62.9729 71.8887 63.1083 71.9388L69.1306 75.2953C69.2471 75.3856 69.3298 75.5185 69.3637 75.6697C69.3975 75.8208 69.3803 75.9802 69.3151 76.1187C69.2499 76.2572 69.1412 76.3656 69.0087 76.424C68.8761 76.4824 68.7287 76.4871 68.5934 76.437Z" fill="#404040"/>
<path d="M54.7232 76.7989L51.1482 62.3148L60.7017 60.3467L60.188 70.2885L72.7404 84.3544C73.405 84.3248 74.0631 84.5063 74.6345 84.8767C75.2059 85.2472 75.6659 85.7905 75.9584 86.4405C76.2509 87.0906 76.3634 87.8192 76.282 88.5375C76.2006 89.2559 75.9289 89.933 75.5 90.4862C75.0712 91.0394 74.5036 91.4449 73.8667 91.6532C73.2297 91.8614 72.5508 91.8635 71.9128 91.6592C71.2748 91.4548 70.7052 91.0529 70.2734 90.5023C69.8417 89.9517 69.5665 89.2763 69.4813 88.5585L54.7232 76.7989Z" fill="#A0616A"/>
<path d="M50.1706 46.0752C46.9278 48.8612 51.0899 64.4449 51.0899 64.4449C51.7343 63.6753 52.4831 75.0499 53.2708 74.6626C55.5094 73.5618 59.6125 69.766 61.1943 70.0754C62.0989 70.2523 61.1512 62.5517 61.1512 62.5517C61.1512 62.5517 60.9769 58.1363 60.6492 52.4601C60.584 50.8535 60.1462 49.291 59.3768 47.918C58.6074 46.5451 57.5312 45.4063 56.2486 44.6077C56.2486 44.6077 53.4134 43.2892 50.1706 46.0752Z" fill="#3F3D56"/>
<path d="M104.128 108.948L95.4921 104.51C95.3074 104.415 95.1448 104.277 95.0164 104.104C94.888 103.932 94.7971 103.73 94.7507 103.514C94.7039 103.302 94.7017 103.082 94.7443 102.869C94.7869 102.657 94.8732 102.457 94.9967 102.286C97.4981 98.8071 99.2157 94.7385 100.012 90.4067C100.072 90.0749 100.236 89.7762 100.476 89.5614C100.716 89.3465 101.017 89.2289 101.327 89.2285C105.732 89.2448 109.023 90.9949 111.111 94.4296C111.221 94.6083 111.294 94.8109 111.324 95.0234C111.355 95.2358 111.343 95.453 111.288 95.6599C110.08 100.193 108.241 104.498 105.835 108.426C105.657 108.723 105.385 108.939 105.071 109.035C104.757 109.131 104.422 109.1 104.128 108.948Z" fill="#E6E6E6"/>
<path d="M106.668 102.723L100.065 99.3296C99.9008 99.2452 99.7741 99.0932 99.7128 98.9071C99.6515 98.721 99.6606 98.5161 99.7382 98.3373C99.8158 98.1585 99.9554 98.0206 100.126 97.9539C100.297 97.8872 100.486 97.8971 100.65 97.9815L107.253 101.375C107.334 101.416 107.407 101.475 107.468 101.548C107.528 101.62 107.575 101.705 107.605 101.797C107.636 101.889 107.649 101.987 107.645 102.085C107.64 102.183 107.618 102.279 107.58 102.367C107.541 102.456 107.487 102.535 107.421 102.601C107.354 102.667 107.276 102.717 107.192 102.75C107.107 102.783 107.017 102.798 106.927 102.793C106.837 102.789 106.749 102.765 106.668 102.723Z" fill="white"/>
<path d="M107.694 100.359L101.091 96.9664C100.927 96.8819 100.8 96.73 100.739 96.5439C100.677 96.3578 100.687 96.1528 100.764 95.974C100.842 95.7952 100.981 95.6573 101.152 95.5906C101.323 95.5239 101.512 95.5338 101.676 95.6182L108.279 99.0114C108.443 99.0958 108.57 99.2478 108.631 99.4339C108.692 99.62 108.683 99.825 108.606 100.004C108.528 100.183 108.388 100.32 108.217 100.387C108.046 100.454 107.858 100.444 107.694 100.359Z" fill="white"/>
<path d="M98.8709 26.1513L98.2562 26.2246C95.5158 14.505 90.204 6.38576 82.8945 2.74452C73.6024 -1.88414 62.1123 1.22409 50.5407 11.4968C38.9103 21.8219 28.6144 38.1311 21.5497 57.4209L20.9534 57.1239C28.049 37.7498 38.3978 21.3618 50.0934 10.9793C61.8476 0.544299 73.5722 -2.58672 83.1074 2.16313C90.6265 5.90871 96.0774 14.2037 98.8709 26.1513Z" fill="#F2F2F2"/>
<path d="M31.0616 41.415C29.4542 45.0999 27.9254 48.9176 26.5175 52.7617C18.4156 74.8833 14.3099 97.4754 14.6454 118.097L14.0122 118.023C13.6763 97.3252 17.7938 74.6553 25.9211 52.4647C27.3331 48.6097 28.8663 44.7813 30.4782 41.0859L31.0616 41.415Z" fill="#F2F2F2"/>
<path d="M30.7576 56.6152C29.1503 60.3001 27.6214 64.1178 26.2135 67.9619C18.1116 90.0835 14.0059 112.676 14.3414 133.297L13.7082 133.223C13.3724 112.525 17.4899 89.8555 25.6171 67.6649C27.0291 63.8099 28.5623 59.9815 30.1743 56.2861L30.7576 56.6152Z" fill="#F2F2F2"/>
<path d="M13.7387 62.1432C14.4387 60.9982 14.0244 59.3592 12.8133 58.4823C11.6023 57.6055 10.0531 57.8229 9.35311 58.9678C8.65314 60.1128 9.06744 61.7518 10.2785 62.6287C11.4895 63.5055 13.0387 63.2881 13.7387 62.1432Z" fill="#CCCCCC"/>
<path d="M162.79 103.492C163.49 102.347 163.075 100.708 161.864 99.831C160.653 98.9541 159.104 99.1715 158.404 100.316C157.704 101.461 158.118 103.1 159.33 103.977C160.541 104.854 162.09 104.637 162.79 103.492Z" fill="#CCCCCC"/>
</g>
<defs>
<clipPath id="clip0_815_1946">
<rect width="196" height="173" fill="white"/>
</clipPath>
</defs>
</svg>
