<svg width="182" height="125" viewBox="0 0 182 125" fill="none" xmlns="http://www.w3.org/2000/svg">
<g clip-path="url(#clip0_590_379)">
<path d="M182 51.3389H181.693V42.1378C181.693 41.4385 181.567 40.746 181.322 40.0999C181.077 39.4538 180.718 38.8668 180.265 38.3722C179.813 37.8777 179.276 37.4855 178.684 37.2179C178.093 36.9502 177.459 36.8125 176.819 36.8125H158.98C158.34 36.8125 157.706 36.9502 157.115 37.2179C156.523 37.4855 155.986 37.8777 155.534 38.3722C155.081 38.8668 154.722 39.4538 154.477 40.0999C154.232 40.746 154.106 41.4385 154.106 42.1378V92.6156C154.106 93.3149 154.232 94.0074 154.477 94.6535C154.722 95.2996 155.081 95.8866 155.534 96.3811C155.986 96.8756 156.523 97.2679 157.115 97.5355C157.706 97.8031 158.34 97.9409 158.98 97.9409H176.819C177.459 97.9409 178.093 97.8031 178.684 97.5355C179.276 97.2679 179.813 96.8756 180.265 96.3811C180.718 95.8866 181.077 95.2996 181.322 94.6535C181.567 94.0074 181.693 93.3149 181.693 92.6156V57.8884H182V51.3389Z" fill="#3F3D56"/>
<path d="M180.656 42.4503V92.8546C180.656 93.9095 180.272 94.9211 179.59 95.667C178.907 96.4129 177.981 96.832 177.016 96.8321H159.09C158.613 96.832 158.139 96.7291 157.698 96.5291C157.256 96.3292 156.855 96.0362 156.517 95.6668C156.179 95.2975 155.911 94.859 155.729 94.3765C155.546 93.894 155.452 93.3768 155.452 92.8546V42.4503C155.452 41.3959 155.835 40.3847 156.518 39.6391C157.2 38.8935 158.126 38.4746 159.09 38.4746H161.265C161.159 38.7615 161.118 39.0726 161.147 39.3806C161.176 39.6886 161.274 39.9841 161.432 40.2411C161.59 40.4981 161.804 40.7087 162.054 40.8544C162.304 41.0002 162.583 41.0766 162.866 41.0769H173.087C173.37 41.0775 173.65 41.0017 173.9 40.8562C174.151 40.7107 174.364 40.5 174.523 40.2427C174.681 39.9855 174.779 39.6896 174.808 39.3812C174.836 39.0728 174.795 38.7614 174.687 38.4746H177.016C177.981 38.4746 178.907 38.8934 179.589 39.6389C180.272 40.3844 180.656 41.3957 180.656 42.4503Z" fill="#D0CDE1"/>
<path d="M177.262 64.2812H156.425V70.4255H177.262V64.2812Z" fill="white"/>
<path d="M178.089 69.3396H157.913C157.781 69.3395 157.655 69.2823 157.562 69.1807C157.469 69.079 157.417 68.9412 157.417 68.7975V63.3761C157.417 63.2324 157.469 63.0946 157.562 62.9929C157.655 62.8913 157.781 62.8341 157.913 62.834H178.089C178.221 62.8341 178.347 62.8913 178.44 62.9929C178.533 63.0946 178.585 63.2324 178.585 63.3761V68.7975C178.585 68.9412 178.533 69.079 178.44 69.1807C178.347 69.2823 178.221 69.3395 178.089 69.3396ZM157.913 63.1954C157.869 63.1955 157.827 63.2145 157.796 63.2484C157.765 63.2823 157.748 63.3282 157.748 63.3761V68.7975C157.748 68.8454 157.765 68.8914 157.796 68.9252C157.827 68.9591 157.869 68.9782 157.913 68.9782H178.089C178.133 68.9782 178.175 68.9591 178.206 68.9252C178.237 68.8914 178.254 68.8454 178.255 68.7975V63.3761C178.254 63.3282 178.237 63.2823 178.206 63.2484C178.175 63.2145 178.133 63.1955 178.089 63.1954H157.913Z" fill="#3F3D56"/>
<path d="M161.386 67.7148H158.74V68.0763H161.386V67.7148Z" fill="#3F3D56"/>
<path d="M165.024 67.7148H162.378V68.0763H165.024V67.7148Z" fill="#3F3D56"/>
<path d="M168.662 67.7148H166.016V68.0763H168.662V67.7148Z" fill="#3F3D56"/>
<path d="M172.301 67.7148H169.655V68.0763H172.301V67.7148Z" fill="#3F3D56"/>
<path d="M175.939 67.7148H173.293V68.0763H175.939V67.7148Z" fill="#3F3D56"/>
<path opacity="0.1" d="M180.656 87.73V92.855C180.656 93.9099 180.272 94.9216 179.59 95.6675C178.907 96.4134 177.981 96.8325 177.016 96.8325H159.09C158.613 96.8325 158.139 96.7295 157.698 96.5296C157.256 96.3297 156.855 96.0367 156.517 95.6673C156.179 95.2979 155.911 94.8595 155.729 94.3769C155.546 93.8944 155.452 93.3773 155.452 92.855V69.2793L180.656 87.73Z" fill="black"/>
<path d="M94.7381 83.0742H16.5137V125H94.7381V83.0742Z" fill="#D0CDE1"/>
<path opacity="0.1" d="M74.8512 124.999H16.8444C16.7568 124.999 16.6728 124.961 16.6108 124.893C16.5489 124.826 16.5139 124.734 16.5137 124.638V83.4356C16.5139 83.3399 16.5489 83.2481 16.6108 83.1804C16.6728 83.1127 16.7568 83.0745 16.8444 83.0742H17.5787L74.8512 124.999Z" fill="black"/>
<path d="M173.955 88.6777H52.7317V89.0392H173.955V88.6777Z" fill="#3F3D56"/>
<path d="M91.0569 0.780272H56.4116V0H40.7021V0.780272H5.91405C5.6063 0.780272 5.30156 0.846509 5.01723 0.975199C4.73291 1.10389 4.47456 1.29251 4.25695 1.5303C4.03934 1.76809 3.86671 2.05039 3.74894 2.36108C3.63117 2.67176 3.57056 3.00475 3.57056 3.34104V55.1794C3.57056 55.8586 3.81746 56.5099 4.25695 56.9902C4.69644 57.4704 5.29251 57.7402 5.91405 57.7402H91.0569C91.6784 57.7402 92.2745 57.4704 92.714 56.9902C93.1535 56.5099 93.4004 55.8586 93.4004 55.1794V3.34104C93.4004 3.00475 93.3398 2.67176 93.222 2.36108C93.1042 2.05039 92.9316 1.76809 92.714 1.5303C92.4964 1.29251 92.238 1.10389 91.9537 0.975199C91.6694 0.846509 91.3646 0.780272 91.0569 0.780272Z" fill="#3F3D56"/>
<path d="M90.2578 5.30469H6.71313V56.8041H90.2578V5.30469Z" fill="#D0CDE1"/>
<path d="M48.414 3.90195C48.8873 3.90195 49.2709 3.48275 49.2709 2.96563C49.2709 2.44851 48.8873 2.0293 48.414 2.0293C47.9408 2.0293 47.5571 2.44851 47.5571 2.96563C47.5571 3.48275 47.9408 3.90195 48.414 3.90195Z" fill="white"/>
<path d="M31.5632 24.5243H29.5787C29.4471 24.5242 29.321 24.467 29.228 24.3653C29.135 24.2637 29.0827 24.1259 29.0825 23.9822V21.8136C29.0827 21.6699 29.135 21.5321 29.228 21.4304C29.321 21.3288 29.4471 21.2716 29.5787 21.2715H31.5632C31.6947 21.2716 31.8209 21.3288 31.9139 21.4304C32.0069 21.5321 32.0592 21.6699 32.0593 21.8136V23.9822C32.0592 24.1259 32.0069 24.2637 31.9139 24.3653C31.8209 24.467 31.6947 24.5242 31.5632 24.5243ZM29.5787 21.6329C29.5348 21.633 29.4928 21.652 29.4618 21.6859C29.4308 21.7198 29.4133 21.7657 29.4133 21.8136V23.9822C29.4133 24.0301 29.4308 24.076 29.4618 24.1099C29.4928 24.1438 29.5348 24.1628 29.5787 24.1629H31.5632C31.6071 24.1628 31.6491 24.1438 31.6801 24.1099C31.7111 24.076 31.7285 24.0301 31.7286 23.9822V21.8136C31.7285 21.7657 31.7111 21.7198 31.6801 21.6859C31.6491 21.652 31.6071 21.633 31.5632 21.6329H29.5787Z" fill="#3F3D56"/>
<path d="M66.9543 24.1621H29.2478V24.5235H66.9543V24.1621Z" fill="#3F3D56"/>
<path d="M65.9619 34.1016H57.1968V36.993H65.9619V34.1016Z" fill="white"/>
<path d="M66.6234 36.2704H58.5198C58.3883 36.2702 58.2622 36.2131 58.1692 36.1114C58.0761 36.0098 58.0238 35.872 58.0237 35.7283V33.5597C58.0238 33.416 58.0761 33.2782 58.1692 33.1765C58.2622 33.0749 58.3883 33.0177 58.5198 33.0176H66.6234C66.7549 33.0177 66.8811 33.0749 66.9741 33.1765C67.0671 33.2782 67.1194 33.416 67.1195 33.5597V35.7283C67.1194 35.872 67.0671 36.0098 66.9741 36.1114C66.8811 36.2131 66.7549 36.2702 66.6234 36.2704ZM58.5198 33.379C58.476 33.3791 58.4339 33.3981 58.4029 33.432C58.3719 33.4659 58.3545 33.5118 58.3544 33.5597V35.7283C58.3545 35.7762 58.3719 35.8221 58.4029 35.856C58.4339 35.8899 58.476 35.9089 58.5198 35.909H66.6234C66.6672 35.9089 66.7093 35.8899 66.7403 35.856C66.7713 35.8221 66.7887 35.7762 66.7888 35.7283V33.5597C66.7887 33.5118 66.7713 33.4659 66.7403 33.432C66.7093 33.3981 66.6672 33.3791 66.6234 33.379H58.5198Z" fill="#3F3D56"/>
<path d="M132.941 37.3535H116.403V50.0034H132.941V37.3535Z" fill="white"/>
<path d="M134.594 49.0114H118.718C118.543 49.0112 118.374 48.935 118.25 48.7994C118.126 48.6639 118.057 48.4802 118.056 48.2885V36.3615C118.057 36.1699 118.126 35.9861 118.25 35.8506C118.374 35.7151 118.543 35.6389 118.718 35.6387H134.594C134.77 35.6389 134.938 35.7151 135.062 35.8506C135.186 35.9861 135.256 36.1699 135.256 36.3615V48.2885C135.256 48.4802 135.186 48.6639 135.062 48.7994C134.938 48.935 134.77 49.0112 134.594 49.0114ZM118.718 36.3615V48.2885H134.595L134.594 36.3615H118.718Z" fill="#3F3D56"/>
<path d="M132.775 35.909H132.114C132.114 34.3274 131.539 32.8106 130.515 31.6922C129.492 30.5738 128.104 29.9455 126.656 29.9455C125.209 29.9455 123.821 30.5738 122.797 31.6922C121.774 32.8106 121.199 34.3274 121.199 35.909H120.537C120.537 34.1357 121.182 32.435 122.329 31.181C123.477 29.9271 125.033 29.2227 126.656 29.2227C128.279 29.2227 129.835 29.9271 130.983 31.181C132.13 32.435 132.775 34.1357 132.775 35.909Z" fill="#3F3D56"/>
<path d="M128.31 40.8776C128.31 40.5629 128.235 40.2536 128.093 39.9802C127.95 39.7069 127.744 39.479 127.496 39.3191C127.248 39.1592 126.966 39.0728 126.678 39.0685C126.391 39.0643 126.107 39.1422 125.855 39.2947C125.603 39.4472 125.392 39.6689 125.242 39.938C125.093 40.207 125.01 40.514 125.003 40.8286C124.995 41.1431 125.063 41.4544 125.2 41.7316C125.336 42.0087 125.536 42.2421 125.781 42.4087V44.3483C125.781 44.474 125.803 44.5984 125.847 44.7145C125.891 44.8305 125.956 44.936 126.037 45.0248C126.118 45.1137 126.215 45.1841 126.321 45.2322C126.427 45.2803 126.541 45.3051 126.656 45.3051C126.888 45.3051 127.111 45.2043 127.275 45.0248C127.439 44.8454 127.532 44.6021 127.532 44.3483V42.4087C127.77 42.2467 127.966 42.0211 128.102 41.7533C128.238 41.4854 128.31 41.184 128.31 40.8776Z" fill="#3F3D56"/>
<path d="M49.6722 101.688H47.0261V102.049H49.6722V101.688Z" fill="#3F3D56"/>
<path d="M53.3104 101.688H50.6643V102.049H53.3104V101.688Z" fill="#3F3D56"/>
<path d="M56.9488 101.688H54.3027V102.049H56.9488V101.688Z" fill="#3F3D56"/>
<path d="M60.5872 101.688H57.9412V102.049H60.5872V101.688Z" fill="#3F3D56"/>
<path d="M64.2254 101.688H61.5793V102.049H64.2254V101.688Z" fill="#3F3D56"/>
<path d="M98.2109 121.927H20.6481C20.4727 121.927 20.3046 121.851 20.1805 121.715C20.0565 121.58 19.9868 121.396 19.9866 121.205V80.0021C19.9868 79.8105 20.0565 79.6268 20.1805 79.4912C20.3046 79.3557 20.4727 79.2795 20.6481 79.2793H98.2109C98.3863 79.2795 98.5544 79.3557 98.6785 79.4912C98.8025 79.6267 98.8722 79.8105 98.8724 80.0021V121.205C98.8722 121.396 98.8025 121.58 98.6785 121.715C98.5544 121.851 98.3863 121.927 98.2109 121.927ZM20.6481 80.0021V121.205H98.2114L98.2109 80.0021H20.6481Z" fill="#3F3D56"/>
<path d="M24.1209 86.1471C24.669 86.1471 25.1132 85.6616 25.1132 85.0628C25.1132 84.464 24.669 83.9785 24.1209 83.9785C23.5729 83.9785 23.1287 84.464 23.1287 85.0628C23.1287 85.6616 23.5729 86.1471 24.1209 86.1471Z" fill="#3F3D56"/>
<path d="M27.5941 86.1471C28.1421 86.1471 28.5864 85.6616 28.5864 85.0628C28.5864 84.464 28.1421 83.9785 27.5941 83.9785C27.0461 83.9785 26.6018 84.464 26.6018 85.0628C26.6018 85.6616 27.0461 86.1471 27.5941 86.1471Z" fill="#3F3D56"/>
<path d="M31.067 86.1471C31.615 86.1471 32.0593 85.6616 32.0593 85.0628C32.0593 84.464 31.615 83.9785 31.067 83.9785C30.519 83.9785 30.0747 84.464 30.0747 85.0628C30.0747 85.6616 30.519 86.1471 31.067 86.1471Z" fill="#3F3D56"/>
<path d="M66.7889 104.219H44.4627C44.3312 104.219 44.205 104.161 44.112 104.06C44.019 103.958 43.9667 103.82 43.9666 103.677V97.5324C43.9667 97.3886 44.019 97.2508 44.112 97.1492C44.205 97.0476 44.3312 96.9904 44.4627 96.9902H66.7889C66.9204 96.9904 67.0465 97.0476 67.1396 97.1492C67.2326 97.2508 67.2849 97.3886 67.285 97.5324V103.677C67.2849 103.82 67.2326 103.958 67.1396 104.06C67.0465 104.161 66.9204 104.219 66.7889 104.219ZM44.4627 97.3517C44.4188 97.3517 44.3768 97.3708 44.3458 97.4046C44.3148 97.4385 44.2974 97.4845 44.2973 97.5324V103.677C44.2974 103.725 44.3148 103.77 44.3458 103.804C44.3768 103.838 44.4188 103.857 44.4627 103.857H66.7889C66.8327 103.857 66.8748 103.838 66.9058 103.804C66.9368 103.77 66.9542 103.725 66.9543 103.677V97.5324C66.9542 97.4845 66.9368 97.4385 66.9058 97.4046C66.8748 97.3708 66.8327 97.3517 66.7889 97.3517H44.4627Z" fill="#3F3D56"/>
<path d="M72.4119 104.398C74.0559 104.398 75.3887 102.942 75.3887 101.145C75.3887 99.3489 74.0559 97.8926 72.4119 97.8926C70.7678 97.8926 69.4351 99.3489 69.4351 101.145C69.4351 102.942 70.7678 104.398 72.4119 104.398Z" fill="white"/>
<path d="M73.4042 104.037C72.7827 104.037 72.1752 103.836 71.6585 103.458C71.1417 103.081 70.739 102.545 70.5012 101.917C70.2633 101.29 70.2011 100.6 70.3223 99.9336C70.4436 99.2676 70.7429 98.6558 71.1823 98.1756C71.6217 97.6954 72.1816 97.3684 72.7912 97.2359C73.4007 97.1034 74.0325 97.1714 74.6066 97.4313C75.1808 97.6912 75.6716 98.1312 76.0168 98.6959C76.3621 99.2605 76.5464 99.9244 76.5464 100.603C76.5454 101.514 76.2141 102.386 75.625 103.03C75.0359 103.674 74.2372 104.036 73.4042 104.037ZM73.4042 97.5313C72.8481 97.5313 72.3046 97.7115 71.8422 98.0491C71.3799 98.3867 71.0195 98.8665 70.8067 99.4278C70.5939 99.9892 70.5383 100.607 70.6467 101.203C70.7552 101.799 71.023 102.346 71.4162 102.776C71.8094 103.205 72.3103 103.498 72.8557 103.617C73.4011 103.735 73.9663 103.674 74.4801 103.442C74.9938 103.209 75.4329 102.815 75.7418 102.31C76.0507 101.805 76.2156 101.211 76.2156 100.603C76.2148 99.789 75.9183 99.0081 75.3912 98.4321C74.8642 97.8562 74.1496 97.5323 73.4042 97.5313Z" fill="#3F3D56"/>
<path d="M73.4482 101.887L71.8472 100.137L72.3149 99.6264L73.3599 100.768L76.2759 96.2402L76.8168 96.6564L73.4482 101.887Z" fill="#3F3D56"/>
<path opacity="0.1" d="M71.7353 56.8049H6.71313V9.20703L71.7353 56.8049Z" fill="black"/>
<path d="M95.7462 55.8669H87.5926V55.2249C87.5926 55.2082 87.5896 55.1917 87.5838 55.1762C87.5779 55.1608 87.5693 55.1468 87.5585 55.1349C87.5477 55.1231 87.5349 55.1137 87.5207 55.1073C87.5066 55.1009 87.4915 55.0977 87.4762 55.0977H84.6807C84.6654 55.0977 84.6502 55.1009 84.6361 55.1073C84.622 55.1137 84.6091 55.1231 84.5983 55.1349C84.5875 55.1468 84.5789 55.1608 84.5731 55.1762C84.5672 55.1917 84.5642 55.2082 84.5642 55.2249V55.8669H82.817V55.2249C82.817 55.2082 82.814 55.1917 82.8081 55.1762C82.8023 55.1608 82.7937 55.1468 82.7829 55.1349C82.7721 55.1231 82.7592 55.1137 82.7451 55.1073C82.731 55.1009 82.7158 55.0977 82.7005 55.0977H79.905C79.8897 55.0977 79.8746 55.1009 79.8604 55.1073C79.8463 55.1137 79.8335 55.1231 79.8227 55.1349C79.8118 55.1468 79.8033 55.1608 79.7974 55.1762C79.7915 55.1917 79.7885 55.2082 79.7885 55.2249V55.8669H78.0414V55.2249C78.0414 55.2082 78.0383 55.1917 78.0325 55.1762C78.0266 55.1608 78.018 55.1468 78.0072 55.1349C77.9964 55.1231 77.9836 55.1137 77.9695 55.1073C77.9553 55.1009 77.9402 55.0977 77.9249 55.0977H75.1294C75.1141 55.0977 75.0989 55.1009 75.0848 55.1073C75.0707 55.1137 75.0578 55.1231 75.047 55.1349C75.0362 55.1468 75.0276 55.1608 75.0218 55.1762C75.0159 55.1917 75.0129 55.2082 75.0129 55.2249V55.8669H73.2657V55.2249C73.2657 55.2082 73.2627 55.1917 73.2568 55.1762C73.251 55.1608 73.2424 55.1468 73.2316 55.1349C73.2208 55.1231 73.2079 55.1137 73.1938 55.1073C73.1797 55.1009 73.1645 55.0977 73.1492 55.0977H70.3537C70.3384 55.0977 70.3233 55.1009 70.3091 55.1073C70.295 55.1137 70.2822 55.1231 70.2714 55.1349C70.2605 55.1468 70.252 55.1608 70.2461 55.1762C70.2402 55.1917 70.2372 55.2082 70.2372 55.2249V55.8669H68.4901V55.2249C68.4901 55.2082 68.487 55.1917 68.4812 55.1762C68.4753 55.1608 68.4668 55.1468 68.4559 55.1349C68.4451 55.1231 68.4323 55.1137 68.4181 55.1073C68.404 55.1009 68.3889 55.0977 68.3736 55.0977H65.5781C65.5628 55.0977 65.5476 55.1009 65.5335 55.1073C65.5194 55.1137 65.5065 55.1231 65.4957 55.1349C65.4849 55.1468 65.4763 55.1608 65.4705 55.1762C65.4646 55.1917 65.4616 55.2082 65.4616 55.2249V55.8669H63.7144V55.2249C63.7144 55.2082 63.7114 55.1917 63.7055 55.1762C63.6997 55.1608 63.6911 55.1468 63.6803 55.1349C63.6695 55.1231 63.6566 55.1137 63.6425 55.1073C63.6284 55.1009 63.6132 55.0977 63.5979 55.0977H60.8024C60.7871 55.0977 60.772 55.1009 60.7578 55.1073C60.7437 55.1137 60.7309 55.1231 60.7201 55.1349C60.7092 55.1468 60.7007 55.1608 60.6948 55.1762C60.689 55.1917 60.6859 55.2082 60.6859 55.2249V55.8669H58.9388V55.2249C58.9388 55.2082 58.9357 55.1917 58.9299 55.1762C58.924 55.1608 58.9155 55.1468 58.9046 55.1349C58.8938 55.1231 58.881 55.1137 58.8668 55.1073C58.8527 55.1009 58.8376 55.0977 58.8223 55.0977H36.9242C36.9089 55.0977 36.8937 55.1009 36.8796 55.1073C36.8655 55.1137 36.8526 55.1231 36.8418 55.1349C36.831 55.1468 36.8224 55.1608 36.8166 55.1762C36.8107 55.1917 36.8077 55.2082 36.8077 55.2249V55.8669H35.0605V55.2249C35.0605 55.2082 35.0575 55.1917 35.0516 55.1762C35.0458 55.1608 35.0372 55.1468 35.0264 55.1349C35.0156 55.1231 35.0027 55.1137 34.9886 55.1073C34.9745 55.1009 34.9593 55.0977 34.944 55.0977H32.1485C32.1332 55.0977 32.1181 55.1009 32.1039 55.1073C32.0898 55.1137 32.077 55.1231 32.0662 55.1349C32.0553 55.1468 32.0468 55.1608 32.0409 55.1762C32.0351 55.1917 32.032 55.2082 32.032 55.2249V55.8669H30.2849V55.2249C30.2849 55.2082 30.2818 55.1917 30.276 55.1762C30.2701 55.1608 30.2616 55.1468 30.2507 55.1349C30.2399 55.1231 30.2271 55.1137 30.2129 55.1073C30.1988 55.1009 30.1837 55.0977 30.1684 55.0977H27.3729C27.3576 55.0977 27.3424 55.1009 27.3283 55.1073C27.3142 55.1137 27.3013 55.1231 27.2905 55.1349C27.2797 55.1468 27.2711 55.1608 27.2653 55.1762C27.2594 55.1917 27.2564 55.2082 27.2564 55.2249V55.8669H25.5092V55.2249C25.5092 55.2082 25.5062 55.1917 25.5003 55.1762C25.4945 55.1608 25.4859 55.1468 25.4751 55.1349C25.4643 55.1231 25.4514 55.1137 25.4373 55.1073C25.4232 55.1009 25.408 55.0977 25.3927 55.0977H22.5972C22.5819 55.0977 22.5668 55.1009 22.5526 55.1073C22.5385 55.1137 22.5257 55.1231 22.5149 55.1349C22.504 55.1468 22.4955 55.1608 22.4896 55.1762C22.4838 55.1917 22.4807 55.2082 22.4807 55.2249V55.8669H20.7336V55.2249C20.7336 55.2082 20.7305 55.1917 20.7247 55.1762C20.7188 55.1608 20.7103 55.1468 20.6994 55.1349C20.6886 55.1231 20.6758 55.1137 20.6616 55.1073C20.6475 55.1009 20.6324 55.0977 20.6171 55.0977H17.8216C17.8063 55.0977 17.7911 55.1009 17.777 55.1073C17.7629 55.1137 17.75 55.1231 17.7392 55.1349C17.7284 55.1468 17.7198 55.1608 17.714 55.1762C17.7081 55.1917 17.7051 55.2082 17.7051 55.2249V55.8669H15.9579V55.2249C15.9579 55.2082 15.9549 55.1917 15.949 55.1762C15.9432 55.1608 15.9346 55.1468 15.9238 55.1349C15.913 55.1231 15.9001 55.1137 15.886 55.1073C15.8719 55.1009 15.8567 55.0977 15.8414 55.0977H13.0459C13.0306 55.0977 13.0155 55.1009 13.0013 55.1073C12.9872 55.1137 12.9744 55.1231 12.9636 55.1349C12.9527 55.1468 12.9442 55.1608 12.9383 55.1762C12.9325 55.1917 12.9294 55.2082 12.9294 55.2249V55.8669H11.1823V55.2249C11.1823 55.2082 11.1792 55.1917 11.1734 55.1762C11.1675 55.1608 11.159 55.1468 11.1481 55.1349C11.1373 55.1231 11.1245 55.1137 11.1103 55.1073C11.0962 55.1009 11.0811 55.0977 11.0658 55.0977H8.27027C8.25498 55.0977 8.23983 55.1009 8.2257 55.1073C8.21156 55.1137 8.19872 55.1231 8.18791 55.1349C8.17709 55.1468 8.16851 55.1608 8.16266 55.1762C8.15681 55.1917 8.15379 55.2082 8.15379 55.2249V55.8669H2.79575C2.42864 55.8669 2.06512 55.9459 1.72595 56.0994C1.38679 56.2529 1.07861 56.4779 0.819027 56.7616C0.55944 57.0452 0.353525 57.382 0.213038 57.7526C0.0725515 58.1232 0.000243923 58.5204 0.000244141 58.9215V60.3028C0.000245895 61.113 0.294772 61.8899 0.81903 62.4628C1.34329 63.0357 2.05433 63.3575 2.79575 63.3575H95.7462C96.1133 63.3575 96.4768 63.2785 96.816 63.125C97.1552 62.9715 97.4633 62.7464 97.7229 62.4628C97.9825 62.1791 98.1884 61.8424 98.3289 61.4718C98.4694 61.1012 98.5417 60.704 98.5417 60.3028V58.9215C98.5417 58.5204 98.4694 58.1232 98.3289 57.7526C98.1884 57.382 97.9825 57.0452 97.7229 56.7616C97.4633 56.4779 97.1552 56.2529 96.816 56.0994C96.4768 55.9459 96.1133 55.8669 95.7462 55.8669Z" fill="#3F3D56"/>
<path d="M70.2617 39.3415H26.6016C26.4701 39.3414 26.344 39.2842 26.2509 39.1826C26.1579 39.0809 26.1056 38.9431 26.1055 38.7994V18.921C26.1056 18.7773 26.1579 18.6395 26.2509 18.5379C26.344 18.4362 26.4701 18.3791 26.6016 18.3789H70.2617C70.3933 18.3791 70.5194 18.4362 70.6124 18.5379C70.7054 18.6395 70.7577 18.7773 70.7579 18.921V38.7994C70.7577 38.9431 70.7054 39.0809 70.6124 39.1826C70.5194 39.2842 70.3933 39.3414 70.2617 39.3415ZM26.6016 18.7403C26.5578 18.7404 26.5157 18.7595 26.4847 18.7933C26.4537 18.8272 26.4363 18.8731 26.4362 18.921V38.7994C26.4363 38.8473 26.4537 38.8932 26.4847 38.9271C26.5157 38.961 26.5578 38.9801 26.6016 38.9801H70.2617C70.3056 38.9801 70.3476 38.961 70.3786 38.9271C70.4096 38.8932 70.4271 38.8473 70.4271 38.7994V18.921C70.4271 18.8731 70.4096 18.8272 70.3786 18.7933C70.3476 18.7595 70.3056 18.7404 70.2617 18.7403H26.6016Z" fill="#3F3D56"/>
<path d="M31.5632 29.9462H29.5787C29.4471 29.946 29.321 29.8889 29.228 29.7872C29.135 29.6856 29.0827 29.5478 29.0825 29.404V27.2355C29.0827 27.0918 29.135 26.954 29.228 26.8523C29.321 26.7507 29.4471 26.6935 29.5787 26.6934H31.5632C31.6947 26.6935 31.8209 26.7507 31.9139 26.8523C32.0069 26.954 32.0592 27.0918 32.0593 27.2355V29.404C32.0592 29.5478 32.0069 29.6856 31.9139 29.7872C31.8209 29.8889 31.6947 29.946 31.5632 29.9462ZM29.5787 27.0548C29.5348 27.0548 29.4928 27.0739 29.4618 27.1078C29.4308 27.1417 29.4133 27.1876 29.4133 27.2355V29.404C29.4133 29.452 29.4308 29.4979 29.4618 29.5318C29.4928 29.5656 29.5348 29.5847 29.5787 29.5848H31.5632C31.6071 29.5847 31.6491 29.5656 31.6801 29.5318C31.7111 29.4979 31.7285 29.452 31.7286 29.404V27.2355C31.7285 27.1876 31.7111 27.1417 31.6801 27.1078C31.6491 27.0739 31.6071 27.0548 31.5632 27.0548H29.5787Z" fill="#3F3D56"/>
<path d="M66.9543 29.584H29.2478V29.9454H66.9543V29.584Z" fill="#3F3D56"/>
<path d="M165.024 48.7402H43.8013V49.1017H165.024V48.7402Z" fill="#3F3D56"/>
<path d="M43.8011 51.2689C45.0799 51.2689 46.1165 50.1362 46.1165 48.739C46.1165 47.3417 45.0799 46.209 43.8011 46.209C42.5224 46.209 41.4858 47.3417 41.4858 48.739C41.4858 50.1362 42.5224 51.2689 43.8011 51.2689Z" fill="#3F3D56"/>
<path d="M165.024 51.089C166.029 51.089 166.843 50.199 166.843 49.1011C166.843 48.0033 166.029 47.1133 165.024 47.1133C164.02 47.1133 163.205 48.0033 163.205 49.1011C163.205 50.199 164.02 51.089 165.024 51.089Z" fill="#3F3D56"/>
<path d="M173.955 91.0265C174.959 91.0265 175.774 90.1365 175.774 89.0386C175.774 87.9408 174.959 87.0508 173.955 87.0508C172.95 87.0508 172.135 87.9408 172.135 89.0386C172.135 90.1365 172.95 91.0265 173.955 91.0265Z" fill="#3F3D56"/>
<path d="M53.2279 91.0265C54.2326 91.0265 55.047 90.1365 55.047 89.0386C55.047 87.9408 54.2326 87.0508 53.2279 87.0508C52.2232 87.0508 51.4087 87.9408 51.4087 89.0386C51.4087 90.1365 52.2232 91.0265 53.2279 91.0265Z" fill="#3F3D56"/>
</g>
<defs>
<clipPath id="clip0_590_379">
<rect width="182" height="125" fill="white" transform="translate(0.000244141)"/>
</clipPath>
</defs>
</svg>
