<svg width="53" height="53" viewBox="0 0 53 53" fill="none" xmlns="http://www.w3.org/2000/svg">
<path d="M50.085 0H2.915C2.14189 0 1.40045 0.307115 0.853784 0.853784C0.307115 1.40045 0 2.14189 0 2.915V50.085C0 50.8581 0.307115 51.5996 0.853784 52.1462C1.40045 52.6929 2.14189 53 2.915 53H28.302V32.4625H21.412V24.5125H28.302V18.55C28.1593 17.1502 28.3245 15.736 28.7862 14.4068C29.2479 13.0776 29.9947 11.8655 30.9744 10.8555C31.9541 9.84548 33.143 9.06205 34.4575 8.56013C35.772 8.05821 37.1805 7.84997 38.584 7.95C40.6466 7.93576 42.7083 8.04194 44.7585 8.268V15.423H40.545C37.206 15.423 36.57 17.013 36.57 19.3185V24.433H44.52L43.4865 32.383H36.57V53H50.085C50.4678 53 50.8469 52.9246 51.2005 52.7781C51.5542 52.6316 51.8755 52.4169 52.1462 52.1462C52.4169 51.8755 52.6316 51.5542 52.7781 51.2005C52.9246 50.8469 53 50.4678 53 50.085V2.915C53 2.5322 52.9246 2.15314 52.7781 1.79948C52.6316 1.44581 52.4169 1.12447 52.1462 0.853784C51.8755 0.583101 51.5542 0.368384 51.2005 0.221891C50.8469 0.0753989 50.4678 0 50.085 0Z" fill="#404040"/>
</svg>
