<svg width="206" height="140" viewBox="0 0 206 140" fill="none" xmlns="http://www.w3.org/2000/svg">
<g clip-path="url(#clip0_521_354)">
<path d="M133.199 32.4238C137.099 32.4238 140.262 29.2592 140.262 25.3554C140.262 21.4517 137.099 18.2871 133.199 18.2871C129.298 18.2871 126.136 21.4517 126.136 25.3554C126.136 29.2592 129.298 32.4238 133.199 32.4238Z" fill="#F2F2F2"/>
<path d="M160.382 74.9203L39.5101 0.912109L1.40856e-06 65.5394L120.872 139.548L160.382 74.9203Z" fill="#F2F2F2"/>
<path d="M149.642 95.4192C148.539 92.879 146.839 90.6481 143.44 88.7705C141.683 87.7765 139.796 87.033 137.834 86.5617C139.154 85.9478 140.368 85.1276 141.431 84.132C142.994 82.7341 144.178 80.9637 144.875 78.9853C145.515 76.9748 145.777 74.8627 145.647 72.7564C145.404 69.0455 144.676 65.4451 142.734 62.8607C140.791 60.2764 138.054 58.2884 134.435 56.8968C131.654 55.8366 128.806 55.1739 124.392 54.931V40.8164L115.563 46.3385V54.953H108.5V45.8968L99.451 40.8164V54.953H80.2266L86.4066 65.5555C88.3159 65.5577 89.6093 65.7344 90.2692 66.0636C90.8853 66.3274 91.3918 66.7954 91.7039 67.3889C91.9908 67.9411 92.1232 69.2443 92.1232 71.2544V109.512C92.1232 111.5 91.9908 112.781 91.7039 113.355C91.4169 113.929 91.2624 114.437 90.5782 114.747C89.894 115.056 89.8719 115.034 87.9737 115.034H87.9517L80.2266 125.636H99.429V139.773H108.478V125.636H115.541V139.773H124.37V125.548C130.109 125.261 134.192 124.51 137.481 123.273C141.74 121.682 145.007 119.363 147.347 116.315C149.686 113.267 150.635 108.606 150.834 105.006C150.988 101.803 150.635 97.6722 149.642 95.4192ZM108.478 66.8808H108.481V66.5871H114.652C118.124 66.5871 129.694 65.4296 129.886 74.8857C130.08 84.3418 114.652 83.9552 114.652 83.9552H108.481V83.2263H108.478V66.8808ZM108.478 93.8288H115.541C116.976 93.8288 121.911 94.0475 123.708 94.1292C124.44 94.1559 125.165 94.2852 125.862 94.5136C126.116 94.5997 126.356 94.6969 126.617 94.8051C127.706 95.1572 128.733 95.6774 129.661 96.3469C130.266 96.7468 130.798 97.2473 131.234 97.8268C131.423 98.0883 131.597 98.3605 131.755 98.6419C132.173 99.3496 132.483 100.116 132.676 100.915C132.886 101.687 132.995 102.483 133 103.283C133 105.003 132.682 106.428 131.899 107.634C130.837 109.414 129.096 110.676 127.136 111.566C122.068 113.872 115.541 113.708 115.541 113.708H108.478V93.8288Z" fill="#3F3D56"/>
<path opacity="0.3" d="M135.11 25.6533C135.043 25.4878 134.92 25.3511 134.762 25.2674C134.664 25.2099 134.559 25.1667 134.448 25.1392C134.523 25.1034 134.591 25.0558 134.65 24.9982C134.738 24.9163 134.804 24.8136 134.843 24.6995C134.879 24.5826 134.894 24.4602 134.886 24.338C134.886 24.1352 134.829 23.9365 134.723 23.7637C134.604 23.6059 134.443 23.4857 134.258 23.4176C134.078 23.3478 133.887 23.3092 133.695 23.3035V22.4844L133.2 22.8049V23.3048H132.804V22.7792L132.296 22.4844V23.3048H131.219L131.565 23.9201C131.639 23.9151 131.712 23.9251 131.782 23.9496C131.817 23.9652 131.845 23.9924 131.862 24.0265C131.883 24.0993 131.891 24.1753 131.886 24.2509V26.4712C131.891 26.5463 131.883 26.6218 131.862 26.6942C131.846 26.7275 131.837 26.757 131.799 26.775C131.761 26.7929 131.759 26.7916 131.653 26.7916H131.652L131.219 27.407H132.295V28.2274H132.803V27.407H133.198V28.2274H133.693V27.4018C133.944 27.3974 134.192 27.3528 134.428 27.2698C134.648 27.1913 134.84 27.0511 134.981 26.866C135.105 26.669 135.172 26.4421 135.177 26.2096C135.19 26.0216 135.167 25.8329 135.11 25.6533ZM132.803 23.9971L132.803 23.98H133.149C133.343 23.98 133.992 23.9128 134.003 24.4616C134.014 25.0104 133.149 24.988 133.149 24.988H132.803V24.9457L132.803 23.9971ZM132.803 25.561H133.198C133.279 25.561 133.556 25.5737 133.656 25.5784C133.697 25.58 133.738 25.5875 133.777 25.6007C133.791 25.6058 133.805 25.6114 133.819 25.6177C133.881 25.6382 133.938 25.6684 133.99 25.7071C134.024 25.7305 134.054 25.7596 134.078 25.793C134.116 25.8474 134.143 25.9081 134.159 25.9722C134.171 26.0171 134.177 26.0633 134.177 26.1097C134.181 26.198 134.16 26.2857 134.115 26.3622C134.052 26.4639 133.959 26.5435 133.848 26.5904C133.642 26.6749 133.421 26.7172 133.198 26.7147H132.803V25.561Z" fill="#235FA9"/>
<path d="M176.161 106.008C177.591 106.008 178.75 104.848 178.75 103.417C178.75 101.986 177.591 100.826 176.161 100.826C174.731 100.826 173.572 101.986 173.572 103.417C173.572 104.848 174.731 106.008 176.161 106.008Z" fill="#FF6584"/>
<path d="M196.57 131.62V102.121" stroke="#3F3D56" stroke-width="2" stroke-miterlimit="10"/>
<path d="M196.57 106.292C198.872 106.292 200.738 104.425 200.738 102.121C200.738 99.8169 198.872 97.9492 196.57 97.9492C194.268 97.9492 192.401 99.8169 192.401 102.121C192.401 104.425 194.268 106.292 196.57 106.292Z" fill="#3F3D56"/>
<path d="M188.36 118.638C182.339 127.878 183.989 139.631 183.989 139.631C183.989 139.631 195.401 136.402 201.422 127.161C207.443 117.921 205.793 106.168 205.793 106.168C205.793 106.168 194.381 109.397 188.36 118.638Z" fill="#F7F7FB"/>
<path d="M183.957 139.523C183.957 139.523 183.81 139.5 183.541 139.445C183.325 139.401 183.029 139.339 182.667 139.253C179.433 138.49 170.835 135.91 165.214 129.128C158.178 120.636 158.474 108.771 158.474 108.771C158.474 108.771 169.232 110.521 176.321 118.147C176.628 118.475 176.927 118.814 177.218 119.166C183.34 126.555 183.91 136.497 183.955 138.955C183.962 139.323 183.957 139.523 183.957 139.523Z" fill="#F7F7FB"/>
<path d="M179.618 118.638C185.639 127.878 183.989 139.631 183.989 139.631C183.989 139.631 172.577 136.402 166.556 127.161C160.535 117.921 162.185 106.168 162.185 106.168C162.185 106.168 173.597 109.397 179.618 118.638Z" stroke="#3F3D56" stroke-width="2" stroke-miterlimit="10"/>
<path opacity="0.1" d="M183.955 138.954C183.796 139.146 183.656 139.31 183.541 139.444C183.285 139.736 183.14 139.889 183.14 139.889C183.14 139.889 182.964 139.668 182.667 139.252C181.041 136.983 175.809 128.916 176.213 119.596C176.235 119.108 176.271 118.625 176.321 118.146C176.628 118.474 176.927 118.814 177.218 119.166C183.339 126.555 183.91 136.497 183.955 138.954Z" fill="black"/>
<path d="M192.883 120.271C192.407 131.293 184.232 139.89 184.232 139.89C184.232 139.89 176.828 130.619 177.304 119.598C177.78 108.576 185.955 99.9785 185.955 99.9785C185.955 99.9785 193.359 109.25 192.883 120.271Z" fill="#F7F7FB"/>
<path d="M184.232 139.578L186.029 100.428" stroke="#3F3D56" stroke-width="2" stroke-miterlimit="10"/>
<path d="M12.6849 139.621H199.416" stroke="#3F3D56" stroke-width="2" stroke-miterlimit="10"/>
<path d="M52.3443 91.8748C57.553 91.8748 61.7755 87.6491 61.7755 82.4364C61.7755 77.2237 57.553 72.998 52.3443 72.998C47.1356 72.998 42.9131 77.2237 42.9131 82.4364C42.9131 87.6491 47.1356 91.8748 52.3443 91.8748Z" fill="#F7F7FB"/>
<path d="M36.3136 114.09C41.5223 114.09 45.7448 109.864 45.7448 104.651C45.7448 99.4386 41.5223 95.2129 36.3136 95.2129C31.1049 95.2129 26.8824 99.4386 26.8824 104.651C26.8824 109.864 31.1049 114.09 36.3136 114.09Z" fill="#F7F7FB"/>
<path d="M16.5837 131.828C21.7924 131.828 26.0149 127.602 26.0149 122.39C26.0149 117.177 21.7924 112.951 16.5837 112.951C11.375 112.951 7.15247 117.177 7.15247 122.39C7.15247 127.602 11.375 131.828 16.5837 131.828Z" fill="#F7F7FB"/>
<path d="M16.5753 139.459V122.338" stroke="#3F3D56" stroke-width="2" stroke-miterlimit="10"/>
<path d="M16.5753 124.76C17.9114 124.76 18.9946 123.676 18.9946 122.339C18.9946 121.002 17.9114 119.918 16.5753 119.918C15.2392 119.918 14.156 121.002 14.156 122.339C14.156 123.676 15.2392 124.76 16.5753 124.76Z" fill="#3F3D56"/>
<path d="M16.5753 132.89C16.5753 132.89 16.2297 125.451 9.14465 126.316L16.5753 132.89Z" fill="#3F3D56"/>
<path d="M52.3502 139.58V82.4727" stroke="#3F3D56" stroke-width="2" stroke-miterlimit="10"/>
<path d="M52.3502 84.8657C53.6863 84.8657 54.7695 83.7817 54.7695 82.4446C54.7695 81.1074 53.6863 80.0234 52.3502 80.0234C51.0141 80.0234 49.9309 81.1074 49.9309 82.4446C49.9309 83.7817 51.0141 84.8657 52.3502 84.8657Z" fill="#3F3D56"/>
<path d="M44.9195 126.184C46.2557 126.184 47.3388 125.1 47.3388 123.763C47.3388 122.426 46.2557 121.342 44.9195 121.342C43.5834 121.342 42.5002 122.426 42.5002 123.763C42.5002 125.1 43.5834 126.184 44.9195 126.184Z" fill="#3F3D56"/>
<path d="M52.3502 94.8123C52.3502 94.8123 52.0046 87.3732 44.9196 88.2379L52.3502 94.8123Z" fill="#3F3D56"/>
<path d="M52.3502 115.9C52.3502 115.9 52.0046 108.461 44.9196 109.326L52.3502 115.9Z" fill="#3F3D56"/>
<path d="M52.3502 138.913C52.3502 138.913 53.9055 124.453 44.9196 123.762" stroke="#3F3D56" stroke-width="2" stroke-miterlimit="10"/>
<path d="M59.782 126.184C61.1181 126.184 62.2012 125.1 62.2012 123.763C62.2012 122.426 61.1181 121.342 59.782 121.342C58.4458 121.342 57.3627 122.426 57.3627 123.763C57.3627 125.1 58.4458 126.184 59.782 126.184Z" fill="#3F3D56"/>
<path d="M52.3513 138.913C52.3513 138.913 50.796 124.453 59.7819 123.762" stroke="#3F3D56" stroke-width="2" stroke-miterlimit="10"/>
<path d="M59.9293 103.473C61.2654 103.473 62.3486 102.389 62.3486 101.052C62.3486 99.7148 61.2654 98.6309 59.9293 98.6309C58.5932 98.6309 57.51 99.7148 57.51 101.052C57.51 102.389 58.5932 103.473 59.9293 103.473Z" fill="#3F3D56"/>
<path d="M52.4986 115.431C52.4986 115.431 50.9433 101.743 59.9293 101.051" stroke="#3F3D56" stroke-width="2" stroke-miterlimit="10"/>
<path d="M36.3223 139.499V104.641" stroke="#3F3D56" stroke-width="2" stroke-miterlimit="10"/>
<path d="M36.3222 107.061C37.6584 107.061 38.7415 105.977 38.7415 104.64C38.7415 103.303 37.6584 102.219 36.3222 102.219C34.9861 102.219 33.903 103.303 33.903 104.64C33.903 105.977 34.9861 107.061 36.3222 107.061Z" fill="#3F3D56"/>
<path d="M36.3223 114.5C36.3223 114.5 35.9766 107.061 28.8916 107.925L36.3223 114.5Z" fill="#3F3D56"/>
<path d="M36.3223 138.833C36.3223 138.833 37.8775 124.528 28.8916 123.836" stroke="#3F3D56" stroke-width="2" stroke-miterlimit="10"/>
<path d="M28.8916 126.256C30.2277 126.256 31.3109 125.172 31.3109 123.835C31.3109 122.498 30.2277 121.414 28.8916 121.414C27.5554 121.414 26.4723 122.498 26.4723 123.835C26.4723 125.172 27.5554 126.256 28.8916 126.256Z" fill="#3F3D56"/>
<path d="M169.176 86.5398C171.37 86.5398 173.149 84.7597 173.149 82.5638C173.149 80.368 171.37 78.5879 169.176 78.5879C166.982 78.5879 165.203 80.368 165.203 82.5638C165.203 84.7597 166.982 86.5398 169.176 86.5398Z" fill="#F2F2F2"/>
<path opacity="0.1" d="M127.136 111.567C122.068 113.873 115.541 113.71 115.541 113.71H108.479V112.36C111.357 111.556 115.336 111.059 119.735 111.059C122.211 111.05 124.684 111.22 127.136 111.567Z" fill="black"/>
<path opacity="0.1" d="M135.627 115.476C135.627 117.917 128.511 119.894 119.735 119.894C110.959 119.894 103.844 117.917 103.844 115.476C103.844 114.259 105.614 113.157 108.479 112.359V113.709H115.542C115.542 113.709 122.068 113.872 127.136 111.566C132.184 112.304 135.627 113.777 135.627 115.476Z" fill="black"/>
<path d="M121.765 87.9688H115.003V94.7476H121.765V87.9688Z" fill="#2F2E41"/>
<path d="M117.518 92.764C117.518 92.764 118.077 94.7244 117.098 94.8644C116.49 94.9592 115.914 95.1994 115.419 95.5645L117.238 97.945H120.596L122.695 95.8446C122.695 95.8446 119.896 93.7442 120.456 92.484C121.016 91.2238 117.518 92.764 117.518 92.764Z" fill="#FFB9B9"/>
<path opacity="0.1" d="M117.518 92.764C117.518 92.764 118.077 94.7244 117.098 94.8644C116.49 94.9592 115.914 95.1994 115.419 95.5645L117.238 97.945H120.596L122.695 95.8446C122.695 95.8446 119.896 93.7442 120.456 92.484C121.016 91.2238 117.518 92.764 117.518 92.764Z" fill="black"/>
<path d="M118.357 117.127L121.575 118.247L123.814 118.388L123.674 116.427L119.057 115.061L118.357 117.127Z" fill="#FFB9B9"/>
<path d="M122.485 116.708C122.485 116.708 122.485 118.668 122.765 118.668C123.045 118.668 126.822 118.248 127.942 118.668C129.061 119.088 130.74 117.548 129.901 116.708C129.061 115.868 127.692 114.607 126.837 114.887C125.983 115.168 122.485 115.868 122.485 115.868L122.485 116.708Z" fill="#2F2E41"/>
<path d="M112.201 114.887C112.201 114.887 110.522 118.247 111.641 118.527C112.76 118.807 114.02 118.387 114.16 118.247C114.3 118.107 116.258 117.547 116.538 117.827C116.818 118.107 116.818 116.707 116.818 116.707L112.201 114.887Z" fill="#2F2E41"/>
<path d="M113.6 110.266C113.6 110.266 110.941 113.906 112.9 114.886C114.859 115.867 124.234 115.867 124.933 114.886C125.633 113.906 125.913 110.826 124.933 110.546C123.954 110.266 113.6 110.266 113.6 110.266Z" fill="#2F2E41"/>
<path opacity="0.2" d="M113.6 110.266C113.6 110.266 110.941 113.906 112.9 114.886C114.859 115.867 124.234 115.867 124.933 114.886C125.633 113.906 125.913 110.826 124.933 110.546C123.954 110.266 113.6 110.266 113.6 110.266Z" fill="black"/>
<path d="M118.637 93.7439C120.414 93.7439 121.855 92.302 121.855 90.5233C121.855 88.7446 120.414 87.3027 118.637 87.3027C116.86 87.3027 115.419 88.7446 115.419 90.5233C115.419 92.302 116.86 93.7439 118.637 93.7439Z" fill="#FFB9B9"/>
<path d="M113.6 95.564L116.398 95.0039C116.398 95.0039 117.098 97.2443 119.337 96.8242C121.575 96.4042 122.135 95.0039 122.135 95.0039C122.135 95.0039 123.814 95.704 123.954 95.704C124.094 95.704 125.913 96.4042 125.913 96.8242C125.913 97.2443 123.814 101.445 123.814 101.445L124.094 109.007L113.74 108.726L114.439 101.305L113.6 95.564Z" fill="#235FA9"/>
<path d="M112.061 99.2051C112.061 99.2051 111.221 106.626 111.781 107.187C112.341 107.747 114.579 109.287 114.579 109.287V107.607L113.46 105.506L114.579 100.605L112.061 99.2051Z" fill="#FFB9B9"/>
<path d="M126.542 98.9941C126.542 98.9941 126.053 106.626 126.053 106.906C126.053 107.186 124.793 108.166 124.374 108.166C123.954 108.166 123.674 107.466 123.674 107.466L124.654 106.346L123.954 100.604L126.542 98.9941Z" fill="#FFB9B9"/>
<path d="M125.213 109.706C125.213 109.706 131.51 106.206 131.65 109.706C131.79 113.207 128.431 114.607 128.431 114.607C128.431 114.607 119.756 117.21 119.407 116.259C119.057 115.307 118.357 113.767 118.917 113.627C119.477 113.487 120.176 113.207 120.456 113.487C120.736 113.767 124.234 111.387 124.234 111.387L125.213 109.706Z" fill="#2F2E41"/>
<path opacity="0.2" d="M128.152 109.287C128.152 109.287 126.892 109.847 126.473 110.267C126.053 110.687 124.234 111.387 124.234 111.387" stroke="black" stroke-width="2" stroke-miterlimit="10"/>
<path d="M114.439 95.8445L113.6 95.5645C113.6 95.5645 110.522 98.7851 111.501 99.6252C112.48 100.465 113.04 100.745 113.32 101.025C113.6 101.306 114.999 101.446 114.999 101.446L114.439 95.8445Z" fill="#235FA9"/>
<path d="M124.653 96.543L125.913 96.823C125.913 96.823 126.892 98.9234 127.172 99.2035C127.452 99.4835 126.752 99.3435 126.332 99.9036C125.913 100.464 125.493 101.444 124.653 101.444C123.814 101.444 122.695 100.044 122.695 100.044L124.653 96.543Z" fill="#235FA9"/>
<path d="M113.88 110.966C113.88 110.966 108.563 107.186 106.744 109.986C104.925 112.787 114.579 116.567 115.979 117.128C117.378 117.688 118.637 118.248 118.637 118.248C118.637 118.248 119.896 115.167 119.896 114.607C119.896 114.047 118.917 114.047 118.637 114.047C118.357 114.047 117.098 113.767 116.818 113.347C116.538 112.927 113.88 110.966 113.88 110.966Z" fill="#2F2E41"/>
<path opacity="0.2" d="M110.941 109.986C110.941 109.986 112.341 111.107 113.6 111.387C114.859 111.667 115.279 112.367 115.279 112.367" stroke="black" stroke-width="2" stroke-miterlimit="10"/>
<path d="M112.914 104.721L113.026 110.65C113.03 110.846 113.111 111.032 113.251 111.168C113.392 111.305 113.58 111.38 113.776 111.378L124.801 111.254C124.989 111.252 125.169 111.179 125.305 111.049C125.44 110.919 125.522 110.742 125.533 110.555L125.867 104.75C125.873 104.649 125.858 104.548 125.824 104.453C125.789 104.358 125.736 104.271 125.666 104.198C125.597 104.124 125.513 104.066 125.421 104.026C125.328 103.985 125.228 103.965 125.127 103.965H113.656C113.557 103.965 113.46 103.985 113.369 104.023C113.278 104.061 113.196 104.117 113.127 104.187C113.058 104.258 113.003 104.341 112.967 104.433C112.93 104.524 112.913 104.622 112.914 104.721Z" fill="#575A89"/>
<path d="M111.639 95.5997C111.939 94.9366 112.343 94.3143 112.535 93.6122C112.766 92.7707 112.676 91.8803 112.649 91.0082C112.605 90.2368 112.67 89.4632 112.844 88.7103C113.019 87.9538 113.414 87.266 113.979 86.7328C115.445 85.4228 118.128 85.3288 119.919 85.8741C120.625 86.0891 121.377 86.4985 121.552 87.2158C121.578 87.3241 121.59 87.4357 121.619 87.5432C121.766 88.0773 122.312 88.4152 122.509 88.9327C122.764 89.6022 122.371 90.3302 122.32 91.0447C122.26 91.8789 122.669 92.667 123.073 93.3992C123.313 93.8344 123.563 94.2981 123.539 94.7947C123.519 95.0663 123.437 95.3296 123.298 95.564C123.041 95.9888 122.68 96.3413 122.249 96.5884C121.818 96.8354 121.332 96.969 120.836 96.9765C120.513 97.0024 120.19 96.9262 119.913 96.7586C119.476 96.4575 119.348 95.8512 119.44 95.3281C119.531 94.8051 119.796 94.332 120.004 93.8435C120.067 93.6936 120.125 93.5412 120.178 93.3872C120.823 93.0271 121.319 92.4506 121.581 91.7596C121.842 91.0685 121.85 90.3074 121.605 89.6105C121.36 88.9137 120.877 88.3259 120.241 87.9511C119.604 87.5762 118.856 87.4385 118.128 87.562C117.401 87.6856 116.74 88.0625 116.263 88.6263C115.786 89.1901 115.523 89.9045 115.521 90.6433C115.519 91.3821 115.778 92.0978 116.252 92.664C116.727 93.2303 117.386 93.6106 118.113 93.7378C118.27 94.5281 118.198 95.3467 117.907 96.0979C117.643 96.7091 117.311 97.2887 116.917 97.8259C116.756 98.1013 116.542 98.3415 116.286 98.5325C116.118 98.6322 115.937 98.7094 115.749 98.7622C114.959 99.0165 114.126 99.2212 113.304 99.1068C112.482 98.9924 111.667 98.496 111.387 97.714C111.142 97.0287 111.339 96.2628 111.639 95.5997Z" fill="#2F2E41"/>
<path d="M118.481 90.6509C120.367 90.6509 121.896 89.7838 121.896 88.7141C121.896 87.6445 120.367 86.7773 118.481 86.7773C116.595 86.7773 115.066 87.6445 115.066 88.7141C115.066 89.7838 116.595 90.6509 118.481 90.6509Z" fill="#2F2E41"/>
<path opacity="0.3" d="M170.661 82.7945C170.609 82.6658 170.513 82.5597 170.391 82.4946C170.314 82.4499 170.232 82.4164 170.146 82.395C170.204 82.3672 170.257 82.3302 170.303 82.2854C170.372 82.2218 170.423 82.142 170.453 82.0534C170.481 81.9625 170.492 81.8673 170.487 81.7724C170.486 81.6148 170.442 81.4604 170.36 81.3262C170.268 81.2035 170.142 81.1101 169.998 81.0572C169.859 81.003 169.711 80.973 169.561 80.9686V80.332L169.176 80.5811V80.9696H168.869V80.5611L168.474 80.332V80.9696H167.637L167.906 81.4477C167.963 81.4438 168.02 81.4516 168.074 81.4706C168.102 81.4828 168.124 81.5039 168.137 81.5304C168.153 81.5869 168.16 81.646 168.155 81.7047V83.43C168.159 83.4884 168.153 83.5471 168.137 83.6033C168.124 83.6292 168.118 83.6521 168.088 83.6661C168.058 83.68 168.057 83.679 167.974 83.679H167.973L167.637 84.1572H168.473V84.7947H168.868V84.1572H169.175V84.7947H169.56V84.1532C169.755 84.1497 169.947 84.1151 170.131 84.0506C170.302 83.9896 170.451 83.8807 170.561 83.7368C170.657 83.5837 170.709 83.4074 170.713 83.2268C170.723 83.0807 170.705 82.934 170.661 82.7945ZM168.868 81.5075L168.868 81.4942H169.137C169.288 81.4942 169.792 81.442 169.8 81.8685C169.809 82.2949 169.137 82.2775 169.137 82.2775H168.868V82.2446L168.868 81.5075ZM168.868 82.7228H169.175C169.238 82.7228 169.453 82.7326 169.531 82.7363C169.563 82.7375 169.595 82.7434 169.625 82.7536C169.636 82.7575 169.646 82.7619 169.658 82.7668C169.705 82.7828 169.75 82.8062 169.79 82.8363C169.817 82.8545 169.84 82.8771 169.859 82.9031C169.888 82.9453 169.909 82.9925 169.922 83.0423C169.931 83.0772 169.936 83.1131 169.936 83.1491C169.939 83.2178 169.922 83.2859 169.888 83.3453C169.839 83.4243 169.766 83.4862 169.68 83.5227C169.52 83.5883 169.348 83.6212 169.175 83.6193H168.868V82.7228Z" fill="#235FA9"/>
<path d="M14.2323 100.456C16.4265 100.456 18.2052 98.6757 18.2052 96.4798C18.2052 94.284 16.4265 92.5039 14.2323 92.5039C12.0381 92.5039 10.2594 94.284 10.2594 96.4798C10.2594 98.6757 12.0381 100.456 14.2323 100.456Z" fill="#F2F2F2"/>
<path opacity="0.3" d="M15.7175 96.7105C15.6655 96.5819 15.5698 96.4757 15.4473 96.4107C15.3711 96.3659 15.2888 96.3324 15.2031 96.311C15.2609 96.2832 15.3138 96.2462 15.3598 96.2015C15.4283 96.1378 15.4798 96.058 15.5098 95.9694C15.5377 95.8785 15.5491 95.7833 15.5434 95.6885C15.5429 95.5308 15.499 95.3764 15.4165 95.2422C15.3245 95.1195 15.1989 95.0261 15.055 94.9732C14.9153 94.919 14.7673 94.889 14.6175 94.8846V94.248L14.2329 94.4971V94.8856H13.9253V94.4772L13.5311 94.248V94.8856H12.6936L12.9628 95.3637C13.0199 95.3598 13.0771 95.3676 13.1311 95.3866C13.1582 95.3988 13.1802 95.4199 13.1936 95.4464C13.21 95.5029 13.2162 95.562 13.2118 95.6207V97.346C13.216 97.4044 13.2098 97.4631 13.1936 97.5193C13.1811 97.5452 13.1743 97.5682 13.1445 97.5821C13.1147 97.596 13.1138 97.5951 13.0311 97.5951H13.0301L12.6936 98.0732H13.5301V98.7107H13.9243V98.0732H14.232V98.7107H14.6166V98.0692C14.8112 98.0657 15.004 98.0311 15.1877 97.9666C15.3582 97.9057 15.5074 97.7967 15.6175 97.6528C15.7134 97.4998 15.7659 97.3234 15.7694 97.1428C15.7795 96.9967 15.7619 96.85 15.7175 96.7105ZM13.9243 95.4235L13.9244 95.4102H14.1932C14.3445 95.4102 14.8485 95.358 14.8569 95.7845C14.8653 96.2109 14.1932 96.1935 14.1932 96.1935H13.9244V96.1606L13.9243 95.4235ZM13.9243 96.6388H14.232C14.2945 96.6388 14.5095 96.6486 14.5877 96.6523C14.6197 96.6535 14.6513 96.6594 14.6816 96.6697C14.6926 96.6735 14.7031 96.6779 14.7145 96.6828C14.7621 96.6988 14.8068 96.7222 14.8471 96.7523C14.8735 96.7705 14.8967 96.7931 14.9156 96.8191C14.9448 96.8613 14.966 96.9085 14.9784 96.9583C14.9876 96.9932 14.9923 97.0291 14.9925 97.0651C14.9957 97.1338 14.979 97.2019 14.9445 97.2614C14.8952 97.3403 14.8227 97.4022 14.7371 97.4387C14.5768 97.5043 14.4051 97.5372 14.232 97.5353H13.9243L13.9243 96.6388Z" fill="#235FA9"/>
</g>
<defs>
<clipPath id="clip0_521_354">
<rect width="206" height="139" fill="white" transform="translate(0 0.912109)"/>
</clipPath>
</defs>
</svg>
