<svg width="53" height="53" viewBox="0 0 53 53" fill="none" xmlns="http://www.w3.org/2000/svg">
<path d="M26.5 19.928C25.2002 19.928 23.9296 20.3134 22.8488 21.0356C21.768 21.7577 20.9257 22.7841 20.4283 23.985C19.9308 25.1859 19.8007 26.5073 20.0543 27.7821C20.3079 29.057 20.9338 30.228 21.8529 31.1471C22.772 32.0662 23.943 32.6921 25.2179 32.9457C26.4927 33.1993 27.8141 33.0692 29.015 32.5717C30.2159 32.0743 31.2423 31.232 31.9644 30.1512C32.6866 29.0704 33.072 27.7998 33.072 26.5C33.072 25.637 32.902 24.7824 32.5717 23.985C32.2415 23.1877 31.7574 22.4632 31.1471 21.8529C30.5368 21.2426 29.8123 20.7585 29.015 20.4283C28.2176 20.098 27.363 19.928 26.5 19.928ZM52.8145 13.4355C52.8022 11.3889 52.4254 9.36086 51.7015 7.4465C51.1696 6.04534 50.3466 4.7729 49.2869 3.71314C48.2271 2.65338 46.9547 1.8304 45.5535 1.2985C43.6391 0.574646 41.6111 0.197753 39.5645 0.1855C36.146 -1.77696e-07 35.139 0 26.5 0C17.861 0 16.854 -1.77696e-07 13.4355 0.1855C11.3889 0.197753 9.36086 0.574646 7.4465 1.2985C6.04534 1.8304 4.7729 2.65338 3.71314 3.71314C2.65338 4.7729 1.8304 6.04534 1.2985 7.4465C0.574646 9.36086 0.197753 11.3889 0.1855 13.4355C-1.77696e-07 16.854 0 17.861 0 26.5C0 35.139 -1.77696e-07 36.146 0.1855 39.5645C0.216054 41.6179 0.592319 43.6516 1.2985 45.58C1.82507 46.9763 2.64775 48.2419 3.71 49.29C4.76575 50.3555 6.04076 51.1783 7.4465 51.7015C9.36086 52.4254 11.3889 52.8022 13.4355 52.8145C16.854 53 17.861 53 26.5 53C35.139 53 36.146 53 39.5645 52.8145C41.6111 52.8022 43.6391 52.4254 45.5535 51.7015C46.9592 51.1783 48.2343 50.3555 49.29 49.29C50.3522 48.2419 51.1749 46.9763 51.7015 45.58C52.423 43.6558 52.7998 41.6195 52.8145 39.5645C53 36.146 53 35.139 53 26.5C53 17.861 53 16.854 52.8145 13.4355ZM46.0835 34.6355C45.9999 36.271 45.6508 37.882 45.05 39.4055C44.5355 40.6767 43.7708 41.8314 42.8011 42.8011C41.8314 43.7708 40.6767 44.5355 39.4055 45.05C37.8676 45.6174 36.2476 45.9306 34.609 45.9775H18.391C16.7524 45.9306 15.1324 45.6174 13.5945 45.05C12.28 44.5625 11.093 43.7833 10.123 42.771C9.16215 41.8209 8.42052 40.6722 7.95 39.4055C7.38222 37.8687 7.07761 36.2471 7.049 34.609V18.391C7.07761 16.7529 7.38222 15.1313 7.95 13.5945C8.43752 12.28 9.21672 11.093 10.229 10.123C11.1844 9.16864 12.3315 8.42797 13.5945 7.95C15.1324 7.38262 16.7524 7.06935 18.391 7.0225H34.609C36.2476 7.06935 37.8676 7.38262 39.4055 7.95C40.72 8.43752 41.907 9.21672 42.877 10.229C43.8379 11.1791 44.5795 12.3278 45.05 13.5945C45.6174 15.1324 45.9306 16.7524 45.9775 18.391V26.5C45.9775 31.959 46.163 32.5155 46.0835 34.609V34.6355ZM41.8435 14.9195C41.528 14.0635 41.0305 13.2862 40.3854 12.6411C39.7403 11.996 38.963 11.4985 38.107 11.183C36.9317 10.7756 35.6938 10.5782 34.45 10.6H18.55C17.2999 10.6122 16.0618 10.8455 14.893 11.289C14.0501 11.5902 13.281 12.0673 12.6367 12.6887C11.9925 13.3101 11.4879 14.0615 11.1565 14.893C10.7731 16.0736 10.5851 17.3088 10.6 18.55V34.45C10.6277 35.6985 10.8605 36.934 11.289 38.107C11.6045 38.963 12.102 39.7403 12.7471 40.3854C13.3922 41.0305 14.1695 41.528 15.0255 41.8435C16.1565 42.258 17.3461 42.4906 18.55 42.5325H34.45C35.7001 42.5203 36.9382 42.287 38.107 41.8435C38.963 41.528 39.7403 41.0305 40.3854 40.3854C41.0305 39.7403 41.528 38.963 41.8435 38.107C42.287 36.9382 42.5203 35.7001 42.5325 34.45V18.55C42.532 17.2988 42.2984 16.0586 41.8435 14.893V14.9195ZM26.5 36.623C25.1719 36.623 23.8568 36.361 22.6301 35.8519C21.4034 35.3429 20.2892 34.5968 19.3513 33.6564C18.4134 32.7161 17.6703 31.5999 17.1644 30.3719C16.6586 29.1439 16.4 27.8281 16.4035 26.5C16.4035 24.4967 16.9979 22.5385 18.1114 20.8732C19.2249 19.2079 20.8075 17.9105 22.6587 17.1451C24.51 16.3797 26.5468 16.1807 28.5112 16.5735C30.4756 16.9662 32.2793 17.933 33.6939 19.3514C35.1086 20.7698 36.0706 22.576 36.4582 24.5414C36.8458 26.5068 36.6416 28.543 35.8713 30.3923C35.1011 32.2416 33.7994 33.8207 32.1312 34.9299C30.463 36.039 28.5033 36.6282 26.5 36.623ZM37.1 18.3645C36.5142 18.3025 35.9721 18.0259 35.5781 17.588C35.1841 17.1501 34.9661 16.5818 34.9661 15.9928C34.9661 15.4037 35.1841 14.8354 35.5781 14.3975C35.9721 13.9596 36.5142 13.683 37.1 13.621C37.6858 13.683 38.2279 13.9596 38.6219 14.3975C39.0159 14.8354 39.234 15.4037 39.234 15.9928C39.234 16.5818 39.0159 17.1501 38.6219 17.588C38.2279 18.0259 37.6858 18.3025 37.1 18.3645Z" fill="#404040"/>
</svg>
