<svg width="175" height="128" viewBox="0 0 175 128" fill="none" xmlns="http://www.w3.org/2000/svg">
<g clip-path="url(#clip0_590_380)">
<path d="M11.7433 127.088L11.5296 126.682C14.3942 125.09 17.9592 123.109 19.8213 119.858C21.6568 116.653 21.698 112.301 19.9287 108.5C18.4231 105.265 15.6572 102.366 11.9302 100.118C11.1951 99.6747 10.4234 99.2545 9.67705 98.848C7.87312 97.8656 6.00776 96.8496 4.46967 95.4083C2.35125 93.4231 0.748389 90.0917 1.94305 87.1243C2.33595 86.1772 2.97941 85.3622 3.80036 84.772C4.62131 84.1817 5.58686 83.8399 6.58738 83.7852L6.61272 84.2461C5.69612 84.2961 4.8115 84.609 4.05925 85.1495C3.307 85.69 2.71724 86.4363 2.3569 87.3038C1.24675 90.0614 2.76987 93.1906 4.77237 95.0672C6.2684 96.4691 8.10821 97.4711 9.88741 98.4401C10.638 98.8489 11.4141 99.2716 12.1577 99.7201C15.9622 102.015 18.7895 104.982 20.334 108.3C22.1669 112.238 22.1188 116.756 20.2084 120.092C18.2829 123.454 14.6569 125.469 11.7433 127.088Z" fill="#F1F1F1"/>
<path d="M9.43455 86.2187C11.6054 86.2187 13.3652 85.3403 13.3652 84.2568C13.3652 83.1733 11.6054 82.2949 9.43455 82.2949C7.26371 82.2949 5.50391 83.1733 5.50391 84.2568C5.50391 85.3403 7.26371 86.2187 9.43455 86.2187Z" fill="#F1F1F1"/>
<path d="M12.5791 99.1425C14.7499 99.1425 16.5097 98.2641 16.5097 97.1806C16.5097 96.0971 14.7499 95.2188 12.5791 95.2188C10.4082 95.2188 8.64844 96.0971 8.64844 97.1806C8.64844 98.2641 10.4082 99.1425 12.5791 99.1425Z" fill="#F1F1F1"/>
<path d="M5.39158 101.221C7.56241 101.221 9.32222 100.342 9.32222 99.2587C9.32222 98.1752 7.56241 97.2969 5.39158 97.2969C3.22075 97.2969 1.46094 98.1752 1.46094 99.2587C1.46094 100.342 3.22075 101.221 5.39158 101.221Z" fill="#F1F1F1"/>
<path d="M16.622 112.068C18.7929 112.068 20.5527 111.19 20.5527 110.106C20.5527 109.023 18.7929 108.145 16.622 108.145C14.4512 108.145 12.6914 109.023 12.6914 110.106C12.6914 111.19 14.4512 112.068 16.622 112.068Z" fill="#F1F1F1"/>
<path d="M24.4834 112.068C26.6542 112.068 28.414 111.19 28.414 110.106C28.414 109.023 26.6542 108.145 24.4834 108.145C22.3125 108.145 20.5527 109.023 20.5527 110.106C20.5527 111.19 22.3125 112.068 24.4834 112.068Z" fill="#F1F1F1"/>
<path d="M169.281 107.183H105.305C103.788 107.181 102.335 106.561 101.263 105.459C100.19 104.358 99.5872 102.864 99.5854 101.306V5.96515C99.5872 4.40695 100.19 2.91306 101.263 1.81125C102.335 0.709426 103.788 0.0896494 105.305 0.0878906H169.281C170.797 0.08965 172.251 0.709426 173.323 1.81125C174.395 2.91306 174.998 4.40695 175 5.96515V101.306C174.998 102.864 174.395 104.358 173.323 105.459C172.251 106.561 170.797 107.181 169.281 107.183Z" fill="#E6E6E6"/>
<path d="M169.393 103.433H105.192C104.725 103.433 104.277 103.242 103.946 102.902C103.616 102.562 103.43 102.102 103.429 101.621V5.64962C103.43 5.16929 103.616 4.70879 103.946 4.36914C104.277 4.02949 104.725 3.83844 105.192 3.83789H169.393C169.861 3.83844 170.309 4.02949 170.639 4.36914C170.97 4.70879 171.156 5.16929 171.156 5.64962V101.621C171.156 102.102 170.97 102.562 170.639 102.902C170.309 103.242 169.861 103.433 169.393 103.433Z" fill="white"/>
<path d="M137.05 2.38862C137.318 2.38862 137.536 2.16478 137.536 1.88865C137.536 1.61252 137.318 1.38867 137.05 1.38867C136.781 1.38867 136.563 1.61252 136.563 1.88865C136.563 2.16478 136.781 2.38862 137.05 2.38862Z" fill="white"/>
<path d="M163.17 67.0345H111.415C111.372 67.0345 111.331 67.017 111.301 66.9858C111.27 66.9546 111.253 66.9122 111.253 66.8681V41.3774C111.253 41.3332 111.27 41.2909 111.301 41.2597C111.331 41.2285 111.372 41.2109 111.415 41.2109C111.458 41.2109 111.5 41.2285 111.53 41.2597C111.56 41.2909 111.577 41.3332 111.577 41.3774V66.7016H163.17C163.213 66.7018 163.254 66.7194 163.284 66.7506C163.314 66.7818 163.331 66.824 163.331 66.8681C163.331 66.9121 163.314 66.9544 163.284 66.9856C163.254 67.0167 163.213 67.0344 163.17 67.0345Z" fill="#3F3D56"/>
<path d="M122.473 65.2031H117.766C117.638 65.2029 117.516 65.1508 117.426 65.0582C117.336 64.9656 117.285 64.84 117.285 64.709V58.0409C117.285 57.9099 117.336 57.7843 117.426 57.6917C117.516 57.5991 117.638 57.547 117.766 57.5469H122.473C122.6 57.547 122.723 57.5991 122.813 57.6917C122.903 57.7843 122.954 57.9099 122.954 58.0409V64.709C122.954 64.84 122.903 64.9656 122.813 65.0582C122.723 65.1508 122.6 65.2029 122.473 65.2031Z" fill="white"/>
<path d="M131.057 65.2035H126.35C126.223 65.2034 126.101 65.1513 126.01 65.0587C125.92 64.9661 125.87 64.8405 125.869 64.7095V51.7167C125.87 51.5857 125.92 51.4601 126.01 51.3675C126.101 51.2749 126.223 51.2228 126.35 51.2227H131.057C131.185 51.2228 131.307 51.2749 131.397 51.3675C131.487 51.4601 131.538 51.5857 131.538 51.7167V64.7095C131.538 64.8405 131.487 64.9661 131.397 65.0587C131.307 65.1513 131.185 65.2034 131.057 65.2035Z" fill="white"/>
<path d="M139.642 65.2031H134.934C134.807 65.2029 134.685 65.1508 134.595 65.0582C134.504 64.9656 134.454 64.84 134.454 64.709V58.0409C134.454 57.9099 134.504 57.7843 134.595 57.6917C134.685 57.5991 134.807 57.547 134.934 57.5469H139.642C139.769 57.547 139.891 57.5991 139.982 57.6917C140.072 57.7843 140.122 57.9099 140.122 58.0409V64.709C140.122 64.84 140.072 64.9656 139.982 65.0582C139.891 65.1508 139.769 65.2029 139.642 65.2031Z" fill="white"/>
<path d="M148.226 65.2022H143.519C143.394 65.2049 143.274 65.1569 143.183 65.0684C143.093 64.98 143.041 64.8585 143.038 64.7305V49.1964C143.041 49.0684 143.093 48.9469 143.183 48.8585C143.274 48.7701 143.394 48.722 143.519 48.7247H148.226C148.35 48.722 148.471 48.7701 148.561 48.8585C148.651 48.9469 148.704 49.0684 148.707 49.1964V64.7305C148.704 64.8585 148.651 64.98 148.561 65.0684C148.471 65.1569 148.35 65.2049 148.226 65.2022Z" fill="white"/>
<path d="M156.81 65.2037H152.103C151.976 65.2036 151.853 65.1515 151.763 65.0589C151.673 64.9663 151.622 64.8407 151.622 64.7097V44.7265C151.622 44.5955 151.673 44.4699 151.763 44.3773C151.853 44.2847 151.976 44.2326 152.103 44.2324H156.81C156.938 44.2326 157.06 44.2847 157.15 44.3773C157.24 44.4699 157.291 44.5955 157.291 44.7265V64.7097C157.291 64.8407 157.24 64.9663 157.15 65.0589C157.06 65.1515 156.938 65.2036 156.81 65.2037Z" fill="white"/>
<path d="M120.12 55.55C120.656 55.55 121.091 55.1029 121.091 54.5514C121.091 53.9998 120.656 53.5527 120.12 53.5527C119.583 53.5527 119.148 53.9998 119.148 54.5514C119.148 55.1029 119.583 55.55 120.12 55.55Z" fill="#3F3D56"/>
<path d="M128.704 49.0578C129.24 49.0578 129.676 48.6107 129.676 48.0592C129.676 47.5077 129.24 47.0605 128.704 47.0605C128.167 47.0605 127.732 47.5077 127.732 48.0592C127.732 48.6107 128.167 49.0578 128.704 49.0578Z" fill="#3F3D56"/>
<path d="M137.288 55.55C137.825 55.55 138.26 55.1029 138.26 54.5514C138.26 53.9998 137.825 53.5527 137.288 53.5527C136.751 53.5527 136.316 53.9998 136.316 54.5514C136.316 55.1029 136.751 55.55 137.288 55.55Z" fill="#3F3D56"/>
<path d="M145.872 45.8957C146.409 45.8957 146.844 45.4486 146.844 44.8971C146.844 44.3455 146.409 43.8984 145.872 43.8984C145.336 43.8984 144.901 44.3455 144.901 44.8971C144.901 45.4486 145.336 45.8957 145.872 45.8957Z" fill="#3F3D56"/>
<path d="M154.457 42.2336C154.993 42.2336 155.428 41.7865 155.428 41.235C155.428 40.6834 154.993 40.2363 154.457 40.2363C153.92 40.2363 153.485 40.6834 153.485 41.235C153.485 41.7865 153.92 42.2336 154.457 42.2336Z" fill="#3F3D56"/>
<path d="M137.309 54.7753L128.704 48.1525L120.217 54.6848L120.022 54.4185L128.704 47.7363L137.268 54.328L145.778 44.758L145.812 44.7437L154.396 41.1895L154.517 41.4983L145.967 45.0384L137.309 54.7753Z" fill="#3F3D56"/>
<path d="M61.6836 51.9019C61.3551 51.9016 61.0306 51.9756 60.7331 52.1185C60.4355 52.2615 60.1722 52.4699 59.9617 52.729L49.8972 52.4057L49.5032 50.6621L44.2947 53.274L44.9685 58.0492L60.307 56.0311C60.5893 56.2564 60.9198 56.4092 61.2711 56.4768C61.6224 56.5444 61.9843 56.5249 62.3268 56.4198C62.6693 56.3148 62.9824 56.1272 63.2401 55.8727C63.4978 55.6183 63.6927 55.3042 63.8085 54.9568C63.9243 54.6093 63.9578 54.2385 63.906 53.8751C63.8543 53.5117 63.7189 53.1662 63.5111 52.8674C63.3032 52.5687 63.029 52.3252 62.7111 52.1572C62.3933 51.9893 62.041 51.9017 61.6836 51.9019Z" fill="#9F616A"/>
<path d="M43.041 124.051H45.7947L47.1048 113.137L43.0405 113.137L43.041 124.051Z" fill="#9F616A"/>
<path d="M42.3386 123.127L47.7616 123.127H47.7618C48.6783 123.127 49.5573 123.501 50.2054 124.167C50.8535 124.833 51.2176 125.736 51.2177 126.678V126.794L42.3388 126.794L42.3386 123.127Z" fill="#2F2E41"/>
<path d="M32.6506 121.802L35.2961 122.587L39.5034 112.476L35.5991 111.316L32.6506 121.802Z" fill="#9F616A"/>
<path d="M32.2254 120.713L37.4352 122.26C38.3157 122.521 39.0593 123.132 39.5019 123.956C39.9446 124.781 40.0504 125.753 39.796 126.658L39.7648 126.768L31.2349 124.236L32.2254 120.713Z" fill="#2F2E41"/>
<path d="M39.6594 76.6582C39.6594 76.6582 38.6799 79.4663 40.225 83.2977L41.4173 99.0775L41.7702 121.519H46.7902L49.8283 98.6413L51.6529 77.8968L39.6594 76.6582Z" fill="#2F2E41"/>
<path d="M36.836 76.6582C36.836 76.6582 35.8565 79.4663 37.4016 83.2977L38.5939 99.0775L32.6577 120.451H37.6778L47.0049 98.6413L48.8295 77.8967L36.836 76.6582Z" fill="#2F2E41"/>
<path d="M51.5625 40.4647C54.6092 40.4647 57.0791 37.9267 57.0791 34.7958C57.0791 31.665 54.6092 29.127 51.5625 29.127C48.5158 29.127 46.0459 31.665 46.0459 34.7958C46.0459 37.9267 48.5158 40.4647 51.5625 40.4647Z" fill="#9F616A"/>
<path d="M52.3005 48.5849L51.1826 43.2471L45.4901 39.9258L44.3357 41.5864C44.3357 41.5864 36.1904 43.786 37.1755 53.3973C38.1606 63.0087 37.7114 67.6249 37.7114 67.6249L35.4653 78.2421C35.4653 78.2421 36.1567 78.3641 52.0256 81.2129L52.6994 58.1321L52.3005 48.5849Z" fill="#CBCBCB"/>
<path opacity="0.1" d="M46.7782 100.529L41.6089 111.259V114.335L46.7782 100.529Z" fill="black"/>
<path d="M45.6145 36.5886C46.1405 38.0362 48.1308 38.2367 48.8328 36.8703C48.8874 36.7643 48.9319 36.6531 48.9656 36.5382C49.1579 35.8819 49.037 35.1589 49.3921 34.5314C49.4786 34.3744 49.6027 34.2427 49.7526 34.1487C50.9331 33.4332 52.0952 35.7037 53.193 35.0684C53.8662 34.6789 53.7222 33.5478 54.3212 33.0465C55.1119 32.3848 56.2539 33.3703 57.2676 33.2578C58.3956 33.1326 58.9293 31.6643 58.6841 30.526C58.385 29.1379 57.3282 28.0112 56.0881 27.3809C54.848 26.7505 53.4389 26.5602 52.0558 26.5249C50.4843 26.4847 48.8399 26.6562 47.5111 27.5193C45.8952 28.569 44.9848 30.523 44.7832 32.4766C44.6607 33.6649 45.185 35.4066 45.6145 36.5886Z" fill="#2F2E41"/>
<path d="M72.6473 75.5005C72.6554 75.5006 72.6635 75.5004 72.6717 75.5C76.8279 75.2765 80.7454 73.4347 83.6273 70.3491C86.5092 67.2635 88.1393 63.1657 88.1859 58.8891C88.2326 54.6125 86.6924 50.4782 83.8785 47.327C81.0646 44.1757 77.1883 42.2441 73.0379 41.925C72.9866 41.9209 72.935 41.9277 72.8864 41.945C72.8377 41.9623 72.7931 41.9898 72.7553 42.0257C72.7176 42.061 72.6874 42.1039 72.6666 42.1517C72.6458 42.1996 72.6349 42.2514 72.6345 42.3038L72.2766 75.112C72.2757 75.214 72.3143 75.3122 72.3837 75.385C72.4532 75.4578 72.548 75.4994 72.6473 75.5005Z" fill="#3F3D56"/>
<path d="M59.8084 47.3497C59.9359 47.3512 60.0575 47.4046 60.1467 47.4982L71.1379 59.0487C71.1821 59.095 71.2169 59.1497 71.2404 59.2098C71.2639 59.27 71.2755 59.3343 71.2747 59.3991L71.1034 75.098C71.1029 75.1653 71.0889 75.2319 71.0622 75.2934C71.0354 75.3549 70.9966 75.4101 70.9481 75.4554C70.8995 75.5014 70.8423 75.5365 70.7799 75.5588C70.7175 75.5811 70.6514 75.5899 70.5855 75.5848C67.5295 75.3498 64.5979 74.2437 62.12 72.3908C59.6421 70.5379 57.7161 68.0116 56.5585 65.0958C55.4009 62.18 55.0575 58.9903 55.5669 55.885C56.0763 52.7797 57.4184 49.8819 59.4422 47.5172C59.486 47.4662 59.5395 47.4251 59.5995 47.3963C59.6594 47.3675 59.7244 47.3516 59.7906 47.3497C59.7965 47.3496 59.8025 47.3496 59.8084 47.3497Z" fill="#E6E6E6"/>
<path d="M70.9849 41.791C71.1076 41.7926 71.2252 41.8419 71.3138 41.9291C71.3613 41.9756 71.399 42.0318 71.4244 42.0939C71.4498 42.1561 71.4624 42.2231 71.4614 42.2905L71.3069 56.455C71.3058 56.5525 71.2766 56.6475 71.223 56.728C71.1694 56.8085 71.0937 56.8708 71.0057 56.9072C70.9176 56.9435 70.821 56.9521 70.7281 56.932C70.6352 56.912 70.5502 56.864 70.4838 56.7943L60.8927 46.715C60.8486 46.6685 60.8138 46.6136 60.7903 46.5534C60.7669 46.4931 60.7551 46.4287 60.7559 46.3638C60.7566 46.2989 60.7698 46.2348 60.7947 46.1751C60.8195 46.1154 60.8556 46.0614 60.9008 46.0161C60.9066 46.0102 60.9125 46.0046 60.9186 45.9991C63.708 43.476 67.2442 41.9936 70.9551 41.7916C70.965 41.7911 70.975 41.7909 70.9849 41.791Z" fill="white"/>
<path d="M56.0684 58.3628C55.7399 58.3626 55.4154 58.4365 55.1179 58.5795C54.8203 58.7224 54.557 58.9308 54.3465 59.19L44.2819 58.8666L43.888 57.123L38.6794 59.7349L39.3533 64.5102L54.6918 62.492C54.9741 62.7173 55.3046 62.8701 55.6559 62.9378C56.0072 63.0054 56.3691 62.9858 56.7116 62.8808C57.054 62.7757 57.3671 62.5881 57.6248 62.3337C57.8826 62.0792 58.0774 61.7652 58.1933 61.4177C58.3091 61.0703 58.3425 60.6994 58.2908 60.336C58.2391 59.9726 58.1036 59.6272 57.8958 59.3284C57.688 59.0296 57.4137 58.7861 57.0959 58.6182C56.778 58.4502 56.4258 58.3627 56.0684 58.3628Z" fill="#9F616A"/>
<path d="M37.8311 61.7015L37.5513 47.4761C37.5415 46.9783 37.6278 46.4834 37.8053 46.0201C37.9828 45.5568 38.2478 45.1343 38.5852 44.7769C38.9226 44.4195 39.3256 44.1344 39.7708 43.9381C40.2161 43.7417 40.6948 43.638 41.1794 43.633C41.6639 43.628 42.1445 43.7217 42.5936 43.9087C43.0426 44.0958 43.4511 44.3724 43.7955 44.7227C44.1398 45.073 44.4132 45.49 44.5997 45.9495C44.7863 46.409 44.8823 46.902 44.8823 47.3999V57.7962L37.8311 61.7015Z" fill="#CBCBCB"/>
<path d="M85.8003 127.032H0.224608C0.165038 127.032 0.107908 127.008 0.065786 126.964C0.0236638 126.921 0 126.862 0 126.801C0 126.74 0.0236638 126.681 0.065786 126.638C0.107908 126.595 0.165038 126.57 0.224608 126.57H85.8003C85.8598 126.57 85.917 126.595 85.9591 126.638C86.0012 126.681 86.0249 126.74 86.0249 126.801C86.0249 126.862 86.0012 126.921 85.9591 126.964C85.917 127.008 85.8598 127.032 85.8003 127.032Z" fill="#CBCBCB"/>
</g>
<defs>
<clipPath id="clip0_590_380">
<rect width="175" height="127" fill="white" transform="translate(0 0.0878906)"/>
</clipPath>
</defs>
</svg>
