<svg width="180" height="161" viewBox="0 0 180 161" fill="none" xmlns="http://www.w3.org/2000/svg">
<g clip-path="url(#clip0_815_1767)">
<path opacity="0.1" d="M179.735 93.4117C179.09 86.9945 177.213 80.9237 174.767 75.4995C169.244 63.2432 160.876 54.0988 151.83 47.5487C151.743 47.4842 151.648 47.4238 151.566 47.3613C152.565 46.049 153.279 44.4999 153.654 42.8334C156.436 30.1904 137.669 14.2541 111.748 7.24275C90.9452 1.62317 71.8541 3.45205 63.6836 10.9287C44.6251 9.59935 24.742 22.6029 11.529 42.632C6.80611 49.8005 2.80987 58.2682 1.05697 67.8416C-1.07557 79.4352 0.199593 91.9131 3.19133 103.102C5.49644 111.719 8.86418 119.791 13.0984 126.706C13.3999 127.198 13.7057 127.684 14.0157 128.164C14.5497 128.993 15.0947 129.799 15.6505 130.581C19.1382 135.506 23.109 139.688 27.4758 142.852C29.9568 144.656 32.6205 146.129 35.412 147.243C42.8595 150.2 50.852 150.323 58.2124 147.243C59.4459 146.728 60.6495 146.128 61.8163 145.448C62.4629 145.074 63.1023 144.671 63.7345 144.24C64.9533 143.41 66.1504 142.483 67.3383 141.521C68.9859 140.183 70.608 138.773 72.2628 137.456L72.4045 137.341C74.3481 135.794 76.3154 134.378 78.3662 133.359C79.7323 132.662 81.1784 132.176 82.6639 131.915C84.8626 131.568 87.103 131.762 89.2269 132.481C89.6301 132.61 90.0334 132.757 90.433 132.918C91.7323 133.45 92.991 134.098 94.1967 134.854C99.4355 138.076 104.449 143.214 109.593 147.243C110.32 147.819 111.066 148.373 111.807 148.894C118.37 153.513 125.589 155.765 132.731 157.948C140.829 160.426 149.399 162.831 157.234 158.973C161.775 156.74 165.708 152.504 168.859 147.243C170.24 144.924 171.451 142.487 172.481 139.953C172.994 138.701 173.473 137.425 173.918 136.127C176.509 128.573 178.014 120.275 179.053 111.956C179.824 105.833 180.347 99.563 179.735 93.4117Z" fill="#404040"/>
<g opacity="0.1">
<path d="M56.5614 107.393C56.6177 107.572 56.6759 107.745 56.7431 107.914C57.9407 106.874 59.1009 105.799 60.2235 104.692C60.8946 104.36 61.4495 103.794 61.8038 103.08C62.1271 102.742 62.4486 102.395 62.7665 102.051C62.629 101.88 62.4816 101.719 62.3251 101.57C61.2498 100.524 59.9201 100.085 58.7049 100.53C57.4897 100.975 56.6595 102.206 56.3562 103.753C56.1306 104.965 56.2015 106.221 56.5614 107.393Z" fill="#3F3D56"/>
<path d="M54.5669 100.701C54.9069 101.876 55.5233 102.93 56.3525 103.753C57.4279 104.794 58.7557 105.235 59.9727 104.788C60.0563 104.756 60.1362 104.722 60.2198 104.685C60.8909 104.354 61.4459 103.788 61.8001 103.074C62.0438 102.604 62.2197 102.094 62.3214 101.563C62.5315 100.352 62.4582 99.1006 62.1084 97.9292C61.7586 96.7579 61.1441 95.7054 60.3233 94.8723C59.2462 93.8269 57.9183 93.3878 56.7031 93.8329C55.4879 94.2781 54.6577 95.5087 54.3544 97.0556C54.1302 98.2701 54.2036 99.529 54.5669 100.701Z" fill="#3F3D56"/>
<path d="M57.9707 98.1092C60.0538 97.3457 61.0119 94.2754 60.1105 91.2515C59.2091 88.2276 56.7897 86.3951 54.7065 87.1586C52.6233 87.9221 51.6653 90.9924 52.5666 94.0163C53.468 97.0402 55.8875 98.8727 57.9707 98.1092Z" fill="#3F3D56"/>
<path d="M55.9768 91.4187C58.06 90.6553 59.018 87.585 58.1166 84.561C57.2153 81.5371 54.7958 79.7047 52.7126 80.4682C50.6294 81.2317 49.6714 84.302 50.5728 87.3259C51.4741 90.3498 53.8936 92.1822 55.9768 91.4187Z" fill="#3F3D56"/>
<path d="M53.9821 84.7283C56.0653 83.9648 57.0234 80.8945 56.122 77.8706C55.2206 74.8467 52.8012 73.0143 50.718 73.7777C48.6348 74.5412 47.6767 77.6115 48.5781 80.6354C49.4795 83.6594 51.899 85.4918 53.9821 84.7283Z" fill="#3F3D56"/>
<path d="M52.8214 28.2812C53.121 27.3647 53.3638 26.4266 53.548 25.4734L43.0996 27.3023L53.844 23.4612C54.1317 20.6038 53.8909 17.7113 53.1363 14.9605C52.3818 12.2097 51.1293 9.65845 49.4554 7.46256L37.543 21.006L47.5808 5.33558C45.6287 3.41162 43.3402 1.95391 40.858 1.0532C38.3757 0.152488 35.7528 -0.171926 33.1526 0.100157C30.5523 0.372239 28.0304 1.23499 25.7439 2.63469C23.4575 4.03439 21.4553 5.94106 19.8622 8.23598C18.2691 10.5309 17.1191 13.1649 16.4839 15.974C15.8487 18.7831 15.7419 21.7072 16.17 24.5641C16.5981 27.421 17.5521 30.1495 18.9725 32.5799C20.3929 35.0102 22.2494 37.0902 24.4262 38.6905C23.9601 40.1171 23.6343 41.5954 23.4544 43.0996L38.5311 45.7946L23.2927 45.718C23.2707 49.2279 24.0384 52.6884 25.5262 55.7864C27.0141 58.8845 29.1751 61.5222 31.8138 63.461C30.5992 67.1839 30.3537 71.2107 31.1057 75.0809C31.8576 78.9512 33.5764 82.5087 36.0658 85.3469C38.5551 88.185 41.7144 90.1891 45.1826 91.1301C48.6507 92.0711 52.2876 91.9111 55.6775 90.6682C59.0675 89.4253 62.0736 87.1498 64.3522 84.1018C66.6308 81.0539 68.09 77.3564 68.5629 73.4323C69.0358 69.5081 68.5033 65.5156 67.0263 61.9111C65.5493 58.3067 63.1875 55.2358 60.2108 53.0497C61.6643 48.6002 61.7264 43.7381 60.3872 39.2448C59.048 34.7515 56.3852 30.8879 52.8268 28.2752L52.8214 28.2812Z" fill="#404040"/>
<path opacity="0.1" d="M24.2445 52.502C25.5782 56.9973 28.2415 60.8616 31.8028 63.4693C30.5906 67.1922 30.3474 71.2181 31.1009 75.087C31.8545 78.9558 33.5744 82.5116 36.0641 85.348C38.5538 88.1844 41.7129 90.1869 45.1804 91.1267C48.6479 92.0665 52.2839 91.9058 55.6728 90.6628C59.0618 89.4197 62.0671 87.1447 64.3452 84.0975C66.6233 81.0503 68.0824 77.3539 68.5557 73.4308C69.029 69.5076 68.4975 65.516 67.0218 61.912C65.5461 58.3079 63.1858 55.2369 60.2107 53.0499C61.6112 48.7536 23.5796 50.2441 24.2445 52.502Z" fill="black"/>
</g>
<path d="M70.4956 50.3952C70.0433 49.372 69.8744 48.2179 69.7109 47.0859C68.7518 40.4028 67.8545 33.188 70.4593 27.1313C70.8698 26.1786 71.3675 25.2521 72.0941 24.6015C72.8716 23.9066 73.8361 23.5763 74.7371 23.1251C77.3528 21.8199 79.4599 19.4774 81.7596 17.5337C84.0592 15.5901 86.8348 13.9686 89.6522 14.4641C91.1054 14.7199 92.4495 15.5256 93.8591 16.0312C97.8408 17.4612 102.437 16.5287 106.013 19.0081C107.305 19.9044 108.358 21.1834 109.394 22.4484L114.013 28.0881C115.264 29.6148 116.54 31.1799 117.297 33.0933C118.055 35.0068 118.214 37.3654 117.25 39.15C116.765 40.0503 115.998 40.8298 115.915 41.8873C115.824 43.0354 116.576 44.0223 116.85 45.1301C117.577 48.0567 114.912 50.5684 112.482 51.7246C105.138 55.2091 97.0579 54.8083 89.2834 54.6653C83.4943 54.5545 73.8343 57.9242 70.4956 50.3952Z" fill="#3F3D56"/>
<path d="M83.556 64.8789C83.0456 66.2304 81.9484 67.1851 80.864 68.025C79.7796 68.865 78.6225 69.6646 77.3164 69.7331C79.6179 73.0142 82.7658 75.4272 85.8429 77.7898C87.2761 78.8876 88.7293 79.9833 90.3642 80.6036C91.8646 81.1716 93.4612 81.3126 95.0307 81.5503C97.0288 81.8545 99.0178 82.3238 101.025 82.2311C104.602 82.0659 108.022 80.0659 110.394 77.0929C112.767 74.12 114.125 70.2447 114.492 66.2908C113.221 66.2687 112.047 65.4852 111.021 64.6311C109.766 63.5898 108.589 62.3853 107.779 60.8968C106.901 59.2855 106.507 57.4163 106.108 55.5854C101.873 55.4444 97.6391 55.3055 93.4031 55.3961C91.8609 55.4283 90.3151 55.4948 88.8111 55.9198C87.3779 56.3226 84.3843 57.3619 83.5106 58.794C83.0074 59.6198 83.5106 60.4698 83.6922 61.3601C83.9248 62.5303 83.9829 63.753 83.556 64.8789Z" fill="#BE6F72"/>
<path opacity="0.1" d="M83.556 64.8789C83.0456 66.2304 81.9484 67.1851 80.864 68.025C79.7796 68.865 78.6225 69.6646 77.3164 69.7331C79.6179 73.0142 82.7658 75.4272 85.8429 77.7898C87.2761 78.8876 88.7293 79.9833 90.3642 80.6036C91.8646 81.1716 93.4612 81.3126 95.0307 81.5503C97.0288 81.8545 99.0178 82.3238 101.025 82.2311C104.602 82.0659 108.022 80.0659 110.394 77.0929C112.767 74.12 114.125 70.2447 114.492 66.2908C113.221 66.2687 112.047 65.4852 111.021 64.6311C109.766 63.5898 108.589 62.3853 107.779 60.8968C106.901 59.2855 106.507 57.4163 106.108 55.5854C101.873 55.4444 97.6391 55.3055 93.4031 55.3961C91.8609 55.4283 90.3151 55.4948 88.8111 55.9198C87.3779 56.3226 84.3843 57.3619 83.5106 58.794C83.0074 59.6198 83.5106 60.4698 83.6922 61.3601C83.9248 62.5303 83.9829 63.753 83.556 64.8789Z" fill="black"/>
<path d="M88.3461 70.4438C89.5577 72.1136 90.8056 73.8176 92.4659 74.9133C92.9727 75.2456 93.5394 75.5175 94.1279 75.4954C94.9998 75.4551 95.721 74.7662 96.3604 74.1056C99.5529 70.8106 102.585 67.3292 105.443 63.6761C106.338 62.5301 107.259 61.3356 108.485 60.6689C109.593 71.7547 109.882 82.9222 109.35 94.0601C109.356 94.2704 109.312 94.4787 109.223 94.6644C109.032 94.9847 108.632 95.031 108.286 95.0451C98.0315 95.4721 87.367 95.8145 77.9758 91.2181C78.6279 89.073 78.5208 86.7527 78.5844 84.4887C78.6879 80.7766 79.2692 77.1007 80.072 73.5013C80.4662 71.7349 80.9149 69.9846 81.3908 68.2443C81.7868 66.786 82.0883 64.2159 82.973 63.1142C85.0074 65.1284 86.6368 68.0872 88.3461 70.4438Z" fill="#E3E8F4"/>
<path d="M93.0018 75.8418H94.2734L97.543 81.8844L94.0917 91.351L89.9138 82.0858L93.0018 75.8418Z" fill="#3F3D56"/>
<path d="M92.8872 85.3894C91.7049 83.4762 90.89 81.3138 90.4931 79.0367C90.3659 78.3075 90.2805 77.5643 90.048 76.8674C89.7029 75.8341 89.0526 74.968 88.4659 74.0757C86.2902 70.7663 84.889 66.9101 84.3879 62.8527C84.1626 61.0117 84.0119 58.9028 82.6713 57.789C81.8285 57.0901 80.7059 56.9833 79.6523 57.0035C75.5777 57.1164 71.6751 58.8483 68.6554 61.8838C68.1533 62.436 67.6226 62.9552 67.066 63.4388C66.4955 63.8713 65.8869 64.2385 65.2495 64.5345C63.6401 65.3402 61.958 66.0089 60.2051 66.2123C59.7546 66.2332 59.3081 66.315 58.8755 66.456C58.3523 66.6575 57.9218 67.0825 57.4804 67.4631C56.0704 68.6674 54.4505 69.5343 52.7231 70.0091C50.2852 76.2861 48.3994 82.8094 47.092 89.4883C46.7632 91.15 46.469 92.8238 46.0203 94.4512C45.4009 96.7071 44.489 98.8583 43.8805 101.118C41.4609 110.112 44.0022 119.909 42.3728 129.115L129.756 129.248C128.383 126.886 128.877 123.885 128.759 121.077C128.648 118.491 128.056 115.963 127.645 113.413C126.959 109.149 126.783 104.802 126.712 100.472C126.683 98.6427 126.681 96.7535 127.318 95.0676C128.516 91.9033 131.622 90.2335 134.563 89.16C135.969 88.6484 137.447 88.1811 138.559 87.0874C139.698 85.9574 140.29 84.2977 140.653 82.6562C138.671 78.3257 136.096 74.1966 132.842 70.9477C131.62 69.7392 130.314 68.6052 129.282 67.1912C128.654 66.3271 128.132 65.3644 127.438 64.5728C125.702 62.5727 123.079 61.8194 120.579 61.7086C119.807 61.6744 119.024 61.6905 118.276 61.477C116.129 60.8727 114.761 58.5463 112.827 57.3419C111.481 56.5089 109.909 56.2415 108.4 56.5885C107.31 56.8403 106.195 57.5574 105.949 58.7498C105.813 59.4205 105.98 60.1134 106.044 60.7962C106.24 62.897 105.454 64.9555 104.502 66.7844C101.081 73.3123 95.4884 78.4062 92.8872 85.3894Z" fill="#404040"/>
<path d="M111.98 45.1257C111.979 49.6404 110.624 54.0265 108.128 57.5933C105.632 61.16 102.137 63.7048 98.1931 64.8267C94.2493 65.9487 90.081 65.5841 86.3446 63.7904C82.6082 61.9966 79.5161 58.8757 77.5552 54.9191C75.5944 50.9625 74.8761 46.395 75.5137 41.936C76.1513 37.4771 78.1084 33.3799 81.0768 30.2899C84.0453 27.1999 87.8563 25.2926 91.9098 24.8684C95.9633 24.4441 100.029 25.5271 103.466 27.9467C106.076 29.7833 108.224 32.3209 109.712 35.3242C111.201 38.3274 111.981 41.6989 111.98 45.1257Z" fill="#BE6F72"/>
<path d="M173.922 136.123V126.7H13.1023C13.4038 127.192 13.7096 127.678 14.0196 128.158C14.2539 128.774 14.5745 129.344 14.9696 129.848C15.1801 130.115 15.411 130.361 15.6599 130.584C19.1475 135.508 23.1183 139.69 27.4851 142.854C29.9661 144.658 32.6298 146.131 35.4213 147.245H168.867L173.922 136.123Z" fill="#3F3D56"/>
<path d="M97.0688 115.924C94.6038 115.707 92.0408 115.026 89.7193 115.969C88.9278 116.319 88.1771 116.773 87.4832 117.322C84.9759 119.189 82.6664 121.363 80.5988 123.804C80.0012 124.507 79.4163 125.248 79.0494 126.126C78.5317 127.365 78.4862 128.777 78.1411 130.088C77.9431 130.839 77.6416 131.601 77.7615 132.372C77.8814 133.144 78.6842 133.834 79.2855 133.424C79.2554 133.639 79.2685 133.858 79.3239 134.067C79.3793 134.276 79.4756 134.469 79.6059 134.631C79.7363 134.794 79.8974 134.923 80.0778 135.009C80.2582 135.095 80.4535 135.135 80.6497 135.127C81.5689 135.092 82.4565 134.746 83.1927 134.135C83.2162 134.379 83.3236 134.604 83.4928 134.762C83.662 134.921 83.8798 135.001 84.101 134.987C85.6759 134.872 87.1763 133.979 88.5241 133.005C90.1062 131.869 91.6775 130.575 93.5303 130.185C92.3905 130.761 91.3864 131.622 90.5967 132.7C90.2933 133.113 90.01 133.597 90.3442 134.235C90.544 134.594 90.8515 134.863 91.2125 134.995C93.2869 135.8 95.5411 134.467 96.9253 132.618C97.4829 131.871 97.9752 131.006 98.7418 130.553C99.9751 129.818 101.496 130.334 102.883 130.12C104.424 129.887 105.719 128.773 107.134 128.054C109.018 127.099 111.117 126.845 113.128 126.277C113.37 126.238 113.592 126.11 113.76 125.915C113.886 125.682 113.94 125.411 113.915 125.141C113.906 122.382 113.718 119.628 113.353 116.899C113.323 116.46 113.202 116.034 112.999 115.654C112.603 115.03 111.851 114.849 111.174 114.724C110.084 114.522 108.861 114.071 107.764 114.075C106.711 114.075 105.695 114.736 104.691 115.06C102.218 115.856 99.6356 116.149 97.0688 115.924Z" fill="#BE6F72"/>
<path d="M108.56 112.293C105.837 112.61 103.275 113.88 101.247 115.919C103.512 115.284 105.949 114.658 108.133 115.576C109.196 116.024 110.116 116.811 110.775 117.839C111.435 118.867 111.804 120.089 111.836 121.35C111.868 122.611 111.562 123.854 110.957 124.921C110.351 125.989 109.473 126.833 108.434 127.347C108.876 127.897 109.524 128.167 110.169 128.374C114.828 129.881 119.816 128.979 124.581 127.951C125.453 127.764 126.398 127.516 126.93 126.721C127.404 126.002 127.389 125.033 127.348 124.141C127.226 121.564 127.024 118.904 125.971 116.61C124.543 113.496 122.063 112.335 119.077 112.696C115.564 113.111 112.076 111.898 108.56 112.293Z" fill="#E3E8F4"/>
<path d="M138.205 79.2903C139.711 80.8795 140.797 82.8856 141.794 84.9079C145.173 91.7548 147.762 99.0456 149.5 106.609C149.67 107.352 149.839 108.115 150.239 108.742C150.82 109.65 151.807 110.152 152.44 111.01C153.202 112.053 153.349 113.523 153.098 114.837C152.847 116.15 152.25 117.348 151.645 118.511C149.99 121.689 148.037 124.97 144.998 126.422C143.727 127.027 142.337 127.276 140.962 127.476C135.797 128.229 130.578 128.416 125.38 128.034C126.289 126.865 126.376 125.141 126.054 123.641C125.733 122.14 125.063 120.764 124.601 119.312C124.238 118.178 123.982 116.97 123.344 115.995C122.874 115.326 122.295 114.761 121.637 114.329C120.141 113.276 118.458 112.592 116.703 112.323C118.006 111.195 119.693 110.82 121.281 110.309C122.868 109.797 124.528 109.012 125.36 107.429C125.86 106.48 125.998 105.354 126.065 104.258C126.268 100.961 125.921 97.6508 125.041 94.4934C124.456 92.3926 123.628 90.1971 124.133 88.0742C124.39 87.0026 124.97 86.06 125.538 85.1576C126.647 83.3852 127.795 81.5704 129.411 80.3739C130.806 79.3407 132.465 78.8553 134.125 78.7263C135.369 78.6357 137.26 78.3013 138.205 79.2903Z" fill="#404040"/>
<path d="M72.839 141.025C72.8244 143.128 67.6675 145.457 61.7003 145.457C55.7332 145.457 50.7524 143.134 50.6725 141.025C50.3946 133.712 55.7314 137.829 61.7003 137.829C67.6693 137.829 72.8934 132.606 72.839 141.025Z" fill="#3F3D56"/>
<path opacity="0.2" d="M72.839 141.025C72.8244 143.128 67.6675 145.457 61.7003 145.457C55.7332 145.457 50.7524 143.134 50.6725 141.025C50.3946 133.712 55.7314 137.829 61.7003 137.829C67.6693 137.829 72.8934 132.606 72.839 141.025Z" fill="black"/>
<path d="M72.5065 137.829C72.5065 139.934 67.6674 142.26 61.7003 142.26C55.7331 142.26 50.894 139.94 50.894 137.829C50.894 135.718 55.7313 134.635 61.7003 134.635C67.6692 134.635 72.5065 135.726 72.5065 137.829Z" fill="#3F3D56"/>
<path opacity="0.1" d="M72.5065 137.829C72.5065 139.934 67.6674 142.26 61.7003 142.26C55.7331 142.26 50.894 139.94 50.894 137.829C50.894 135.718 55.7313 134.635 61.7003 134.635C67.6692 134.635 72.5065 135.726 72.5065 137.829Z" fill="white"/>
<path d="M70.3994 136.999C70.3885 138.64 66.3669 140.449 61.7112 140.449C57.0556 140.449 53.1738 138.636 53.1084 136.999C52.8922 131.295 57.0556 134.505 61.7112 134.505C66.3669 134.505 70.443 130.433 70.3994 136.999Z" fill="#3F3D56"/>
<path opacity="0.2" d="M70.3994 136.999C70.3885 138.64 66.3669 140.449 61.7112 140.449C57.0556 140.449 53.1738 138.636 53.1084 136.999C52.8922 131.295 57.0556 134.505 61.7112 134.505C66.3669 134.505 70.443 130.433 70.3994 136.999Z" fill="black"/>
<path d="M70.1395 134.101C70.1395 135.936 66.3667 137.958 61.711 137.958C57.0554 137.958 53.2808 135.944 53.2808 134.101C53.2808 132.258 57.0554 131.317 61.711 131.317C66.3667 131.317 70.1395 132.264 70.1395 134.101Z" fill="#3F3D56"/>
<path opacity="0.1" d="M70.1395 134.101C70.1395 135.936 66.3667 137.958 61.711 137.958C57.0554 137.958 53.2808 135.944 53.2808 134.101C53.2808 132.258 57.0554 131.317 61.711 131.317C66.3667 131.317 70.1395 132.264 70.1395 134.101Z" fill="white"/>
<path d="M41.5102 146.267C41.5102 146.267 43.105 144.317 43.3793 142.126C43.6536 139.934 35.5867 136.568 35.5867 136.568C35.5867 136.568 32.7893 138.381 32.6948 140.079C32.6948 140.079 38.0498 146.46 41.5102 146.267Z" fill="#3F3D56"/>
<path opacity="0.2" d="M41.5102 146.267C41.5102 146.267 43.105 144.317 43.3793 142.126C43.6536 139.934 35.5867 136.568 35.5867 136.568C35.5867 136.568 32.7893 138.381 32.6948 140.079C32.6948 140.079 38.0498 146.46 41.5102 146.267Z" fill="black"/>
<path d="M41.4371 146.355C41.9358 145.434 40.3332 143.351 37.8575 141.704C35.3819 140.057 32.9707 139.468 32.472 140.389C31.9734 141.311 33.576 143.393 36.0516 145.041C38.5272 146.688 40.9384 147.277 41.4371 146.355Z" fill="#3F3D56"/>
<path opacity="0.1" d="M41.4371 146.355C41.9358 145.434 40.3332 143.351 37.8575 141.704C35.3819 140.057 32.9707 139.468 32.472 140.389C31.9734 141.311 33.576 143.393 36.0516 145.041C38.5272 146.688 40.9384 147.277 41.4371 146.355Z" fill="white"/>
<path d="M43.4919 141.454L48.0804 132.973L43.4138 128.578L39.7754 127.822L38.6401 130.092L35.4468 136.663L43.4919 141.454Z" fill="#3F3D56"/>
<path opacity="0.1" d="M43.4919 141.454L48.0804 132.973L43.4138 128.578L39.7754 127.822L38.6401 130.092L35.4468 136.663L43.4919 141.454Z" fill="white"/>
<path d="M48.1421 133.809C48.1421 133.809 51.241 130.157 50.4454 128.183C49.6497 126.209 45.4482 122.253 42.7726 122.856C40.0969 123.458 39.6682 127.833 39.6682 127.833L48.1421 133.809Z" fill="#3F3D56"/>
<path opacity="0.2" d="M48.1421 133.809C48.1421 133.809 51.241 130.157 50.4454 128.183C49.6497 126.209 45.4482 122.253 42.7726 122.856C40.0969 123.458 39.6682 127.833 39.6682 127.833L48.1421 133.809Z" fill="black"/>
<path d="M12.8934 117.761L36.6293 133.77C36.6293 133.77 38.8854 133.446 38.6401 130.096L15.1313 113.914C14.6528 113.584 14.0859 113.449 13.5274 113.531C12.8843 113.628 12.1232 113.888 11.8762 114.567C11.8131 114.739 11.7691 114.92 11.7454 115.104C11.679 115.623 11.7526 116.153 11.9569 116.625C12.1612 117.098 12.487 117.493 12.8934 117.761Z" fill="#3F3D56"/>
<path opacity="0.2" d="M12.8934 117.761L36.6293 133.77C36.6293 133.77 38.8854 133.446 38.6401 130.096L15.1313 113.914C14.6528 113.584 14.0859 113.449 13.5274 113.531C12.8843 113.628 12.1232 113.888 11.8762 114.567C11.8131 114.739 11.7691 114.92 11.7454 115.104C11.679 115.623 11.7526 116.153 11.9569 116.625C12.1612 117.098 12.487 117.493 12.8934 117.761Z" fill="black"/>
<path d="M43.4883 142.648C43.6122 142.641 43.7307 142.589 43.8264 142.501C43.9221 142.414 43.9901 142.295 44.0205 142.161C44.1368 141.708 43.9242 141.273 43.7008 140.91C43.3018 140.263 42.8039 139.699 42.2295 139.242C41.2631 138.467 40.3258 137.593 39.2323 137.027C38.5992 136.714 37.9362 136.483 37.2559 136.336C36.7461 136.206 36.2242 136.142 35.701 136.147C35.6082 136.15 35.5183 136.184 35.4434 136.244C35.3684 136.305 35.3119 136.39 35.2813 136.487C35.2508 136.584 35.2476 136.69 35.2723 136.789C35.297 136.888 35.3483 136.977 35.4195 137.043C35.6613 137.221 35.9312 137.347 36.2151 137.414C37.6301 137.875 38.9398 138.674 40.1659 139.583C40.8263 140.054 41.4449 140.593 42.0133 141.194C42.3911 141.609 42.8743 142.665 43.4883 142.648Z" fill="#3F3D56"/>
<path opacity="0.2" d="M43.4883 142.648C43.6122 142.641 43.7307 142.589 43.8264 142.501C43.9221 142.414 43.9901 142.295 44.0205 142.161C44.1368 141.708 43.9242 141.273 43.7008 140.91C43.3018 140.263 42.8039 139.699 42.2295 139.242C41.2631 138.467 40.3258 137.593 39.2323 137.027C38.5992 136.714 37.9362 136.483 37.2559 136.336C36.7461 136.206 36.2242 136.142 35.701 136.147C35.6082 136.15 35.5183 136.184 35.4434 136.244C35.3684 136.305 35.3119 136.39 35.2813 136.487C35.2508 136.584 35.2476 136.69 35.2723 136.789C35.297 136.888 35.3483 136.977 35.4195 137.043C35.6613 137.221 35.9312 137.347 36.2151 137.414C37.6301 137.875 38.9398 138.674 40.1659 139.583C40.8263 140.054 41.4449 140.593 42.0133 141.194C42.3911 141.609 42.8743 142.665 43.4883 142.648Z" fill="black"/>
<path d="M47.2773 134.457C47.2773 134.457 49.606 134.52 47.6787 131.923C45.7514 129.327 42.3038 126.751 39.8497 127.333C39.8497 127.333 38.8325 128.268 39.7117 128.429C40.5454 128.582 44.4345 129.436 46.2219 131.839C46.4176 132.1 46.636 132.339 46.874 132.552C47.2936 132.931 47.8586 133.648 47.2773 134.457Z" fill="#3F3D56"/>
<path opacity="0.2" d="M47.2773 134.457C47.2773 134.457 49.606 134.52 47.6787 131.923C45.7514 129.327 42.3038 126.751 39.8497 127.333C39.8497 127.333 38.8325 128.268 39.7117 128.429C40.5454 128.582 44.4345 129.436 46.2219 131.839C46.4176 132.1 46.636 132.339 46.874 132.552C47.2936 132.931 47.8586 133.648 47.2773 134.457Z" fill="black"/>
<path d="M51.0736 128.736C51.5723 127.815 49.9696 125.732 47.494 124.085C45.0184 122.437 42.6072 121.849 42.1085 122.77C41.6098 123.692 43.2125 125.774 45.6881 127.421C48.1637 129.069 50.5749 129.658 51.0736 128.736Z" fill="#3F3D56"/>
<path opacity="0.1" d="M51.0736 128.736C51.5723 127.815 49.9696 125.732 47.494 124.085C45.0184 122.437 42.6072 121.849 42.1085 122.77C41.6098 123.692 43.2125 125.774 45.6881 127.421C48.1637 129.069 50.5749 129.658 51.0736 128.736Z" fill="white"/>
<path d="M35.7011 128.07C35.6696 128.539 35.5349 128.993 35.3088 129.391C35.0828 129.789 34.7721 130.12 34.4041 130.354C33.1853 131.075 31.4742 130.433 30.9002 129.039C30.6023 128.314 30.5968 127.5 30.5369 126.7C30.5174 126.44 30.4858 126.18 30.4424 125.923C30.2608 124.886 29.4869 123.784 28.5515 123.989C27.7795 124.156 27.3726 125.117 27.2799 125.983C27.256 126.221 27.2439 126.461 27.2436 126.7C27.2436 126.95 27.2527 127.2 27.2654 127.45C27.2908 127.961 27.3308 128.475 27.329 128.986C27.329 129.994 27.1328 131.063 26.477 131.754C25.6814 132.594 24.4608 132.632 23.36 132.618C20.6734 132.588 17.6835 132.417 15.6617 130.584C15.4129 130.361 15.1819 130.115 14.9715 129.848C14.5764 129.344 14.2558 128.774 14.0215 128.159C13.8414 127.689 13.7033 127.2 13.6091 126.7C13.3076 125.139 13.3748 123.437 13.6218 121.854C13.7817 120.819 14.0905 119.685 14.7735 119.024C14.9361 118.867 15.12 118.738 15.3184 118.644C15.6454 118.49 16.016 118.442 16.3011 118.202C16.5863 117.963 16.7716 117.528 17.0732 117.266C17.678 116.74 18.5972 116.966 19.3056 116.788H19.3365L19.3746 116.776C20.1394 116.575 20.846 116.112 21.5671 115.769C21.8777 115.622 22.1883 115.481 22.5008 115.356C23.2787 115.012 24.1185 114.874 24.953 114.954C27.6777 115.298 30.9474 117.131 32.8129 119.33C33.2725 119.836 33.6303 120.445 33.8628 121.115C34.0153 121.677 34.0996 122.259 34.1135 122.845C34.1625 123.673 34.2025 124.499 34.5731 125.206C34.7983 125.633 35.1289 125.981 35.3632 126.414C35.4173 126.512 35.4646 126.613 35.5049 126.718C35.6714 127.144 35.7389 127.608 35.7011 128.07Z" fill="#BE6F72"/>
<path d="M29.7085 118.128C30.8184 118.764 31.9101 119.483 32.782 120.474C33.6539 121.465 34.297 122.764 34.3478 124.15C35.1099 123.128 35.7638 122.012 36.2969 120.825C36.7183 119.888 37.0653 118.78 36.6911 117.817C36.5123 117.41 36.2608 117.047 35.9518 116.75C34.3169 115.034 32.119 114.085 29.8956 113.696C27.4924 113.275 22.6915 112.357 22.3228 116.236C25.0148 116.095 27.3035 116.754 29.7085 118.128Z" fill="#E3E8F4"/>
<path d="M59.4841 68.5264C57.7057 69.3784 55.624 68.7761 53.744 69.2918C52.3562 69.6724 51.1628 70.6372 50.0366 71.6141C47.7914 73.5598 45.5789 75.7351 44.3782 78.6013C43.9859 79.5399 43.7062 80.537 43.2357 81.4212C42.4746 82.8633 41.2594 83.9369 39.9933 84.8453C36.7581 87.1576 33.0017 88.6038 30.1225 91.4357C28.891 92.6442 27.8538 94.0783 26.8892 95.5547C25.7557 97.2869 24.6713 99.2206 24.6495 101.36C24.6495 102.198 24.7985 103.048 24.6495 103.871C24.3298 105.714 22.6514 106.858 21.8939 108.538C21.1673 110.139 21.3399 112.117 20.5316 113.664C20.0011 114.671 19.0402 115.678 19.3436 116.79C21.5706 114.935 24.2481 114.172 26.9728 114.776C28.337 115.076 29.6103 115.751 30.831 116.49C32.246 117.348 33.6411 118.323 34.6637 119.713C35.6864 121.103 36.2986 122.952 35.9353 124.694C37.4084 123.888 38.2803 122.168 38.8852 120.476C39.4901 118.784 39.9515 116.978 40.956 115.546C41.4737 114.806 42.1167 114.192 42.7289 113.549C46.1275 109.978 48.5779 105.467 50.983 101.013C53.4631 96.4235 55.9419 91.8312 58.4196 87.2362C59.1062 85.9612 59.7965 84.6781 60.2924 83.3004C61.9581 78.6678 60.8791 73.2577 59.4841 68.5264Z" fill="#404040"/>
<path d="M163.247 130.054C168.966 130.054 173.602 129.065 173.602 127.846C173.602 126.627 168.966 125.639 163.247 125.639C157.527 125.639 152.891 126.627 152.891 127.846C152.891 129.065 157.527 130.054 163.247 130.054Z" fill="#404040"/>
<path d="M163.072 128.66C163.738 128.66 164.278 127.876 164.278 126.91C164.278 125.943 163.738 125.159 163.072 125.159C162.406 125.159 161.866 125.943 161.866 126.91C161.866 127.876 162.406 128.66 163.072 128.66Z" fill="#3F3D56"/>
<path d="M163.072 126.519C163.738 126.519 164.278 125.736 164.278 124.769C164.278 123.802 163.738 123.019 163.072 123.019C162.406 123.019 161.866 123.802 161.866 124.769C161.866 125.736 162.406 126.519 163.072 126.519Z" fill="#3F3D56"/>
<path d="M163.072 124.381C163.738 124.381 164.278 123.597 164.278 122.63C164.278 121.664 163.738 120.88 163.072 120.88C162.406 120.88 161.866 121.664 161.866 122.63C161.866 123.597 162.406 124.381 163.072 124.381Z" fill="#3F3D56"/>
<path d="M163.072 122.241C163.738 122.241 164.278 121.457 164.278 120.491C164.278 119.524 163.738 118.74 163.072 118.74C162.406 118.74 161.866 119.524 161.866 120.491C161.866 121.457 162.406 122.241 163.072 122.241Z" fill="#3F3D56"/>
<path d="M163.072 120.102C163.738 120.102 164.278 119.319 164.278 118.352C164.278 117.385 163.738 116.602 163.072 116.602C162.406 116.602 161.866 117.385 161.866 118.352C161.866 119.319 162.406 120.102 163.072 120.102Z" fill="#3F3D56"/>
<path d="M163.072 117.963C163.738 117.963 164.278 117.179 164.278 116.212C164.278 115.246 163.738 114.462 163.072 114.462C162.406 114.462 161.866 115.246 161.866 116.212C161.866 117.179 162.406 117.963 163.072 117.963Z" fill="#3F3D56"/>
<path d="M163.072 115.824C163.738 115.824 164.278 115.04 164.278 114.074C164.278 113.107 163.738 112.323 163.072 112.323C162.406 112.323 161.866 113.107 161.866 114.074C161.866 115.04 162.406 115.824 163.072 115.824Z" fill="#3F3D56"/>
<path d="M167.588 99.4319C167.752 99.1998 167.902 98.9555 168.037 98.7008L164.869 98.1227L168.295 98.1509C168.623 97.358 168.802 96.4991 168.822 95.6267C168.841 94.7543 168.699 93.8868 168.405 93.0771L163.808 95.7218L168.048 92.2654C167.651 91.5037 167.117 90.8408 166.478 90.318C165.84 89.7953 165.112 89.4239 164.339 89.227C163.566 89.0301 162.764 89.0119 161.984 89.1736C161.204 89.3353 160.463 89.6733 159.806 90.1667C159.149 90.6601 158.591 91.2983 158.166 92.0414C157.742 92.7845 157.46 93.6166 157.338 94.4859C157.216 95.3552 157.257 96.243 157.458 97.0939C157.659 97.9449 158.017 98.7407 158.507 99.4319C158.252 99.7945 158.031 100.186 157.85 100.6L161.962 102.971L157.574 101.337C157.266 102.347 157.189 103.425 157.352 104.475C157.514 105.525 157.91 106.514 158.504 107.352C157.834 108.297 157.417 109.431 157.302 110.626C157.186 111.821 157.376 113.028 157.849 114.109C158.323 115.19 159.061 116.102 159.98 116.739C160.899 117.377 161.961 117.715 163.045 117.715C164.129 117.715 165.191 117.377 166.11 116.739C167.028 116.102 167.767 115.19 168.241 114.109C168.714 113.028 168.904 111.821 168.788 110.626C168.673 109.431 168.256 108.297 167.586 107.352C168.386 106.222 168.821 104.828 168.821 103.392C168.821 101.956 168.386 100.561 167.586 99.4319H167.588Z" fill="#404040"/>
<path opacity="0.1" d="M157.272 103.392C157.27 104.829 157.705 106.224 158.507 107.352C157.838 108.297 157.421 109.432 157.305 110.627C157.19 111.822 157.379 113.029 157.853 114.11C158.327 115.191 159.065 116.102 159.984 116.74C160.903 117.378 161.965 117.716 163.049 117.716C164.133 117.716 165.195 117.378 166.113 116.74C167.032 116.102 167.77 115.191 168.244 114.11C168.718 113.029 168.908 111.822 168.792 110.627C168.676 109.432 168.26 108.297 167.59 107.352C168.362 106.262 157.272 102.673 157.272 103.392Z" fill="black"/>
<path d="M84.5515 36.2434C85.823 36.7873 87.0637 37.5688 88.4279 37.6715C90.159 37.8004 91.7938 36.8215 93.514 36.5516C96.6656 36.0581 99.6573 37.9615 102.618 39.2546C105.579 40.5478 109.394 41.0835 111.564 38.5034C113.408 36.3099 113.154 32.6622 111.671 30.1646C110.189 27.667 107.768 26.0517 105.374 24.6599C102.733 23.125 99.9788 21.7292 97.0379 21.1874C90.7965 20.0413 84.4552 22.9035 79.2765 26.9339C77.5581 28.2713 75.8597 29.8323 75.0386 31.9693C74.5736 33.1778 74.4283 34.7247 74.8333 35.9836C75.4982 38.0542 75.9341 37.8085 77.3128 37.2687C79.9467 36.2414 81.5034 34.9503 84.5515 36.2434Z" fill="#3F3D56"/>
</g>
<defs>
<clipPath id="clip0_815_1767">
<rect width="180" height="161" fill="white"/>
</clipPath>
</defs>
</svg>
