<svg width="172" height="158" viewBox="0 0 172 158" fill="none" xmlns="http://www.w3.org/2000/svg">
<g clip-path="url(#clip0_703_489)">
<path d="M76.0872 35.9262C69.0487 35.9327 62.0591 34.5323 55.4082 31.7829C46.4919 28.1033 39.1875 23.0279 33.698 16.6976C23.3139 4.72335 14.8006 2.91877 9.48836 3.51298C3.73796 4.1565 0.390784 7.67123 0.357662 7.70667L0.128906 7.40228C0.162696 7.36604 3.57888 3.77155 9.43417 3.10835C12.8678 2.7197 16.4586 3.39687 20.1069 5.12169C24.6566 7.27259 29.3094 11.0684 33.936 16.4035C39.3894 22.6921 46.6514 27.7365 55.5201 31.3964C71.8012 38.1152 90.1506 36.4885 105.863 26.9333C111.066 23.7693 116.208 21.6097 121.146 20.5145C127.373 19.133 133.279 19.4537 138.7 21.4669C150.613 25.8908 158.751 25.6562 163.479 24.6808C168.581 23.6283 170.896 21.5218 170.918 21.5006L171.129 21.8234C171.033 21.9123 168.723 24.0139 163.537 25.0837C158.771 26.0671 150.576 26.3053 138.598 21.8572C126.47 17.3542 114.187 22.3299 106.019 27.2975C98.2526 32.0454 89.7723 34.9009 81.0721 35.6976C79.4045 35.8499 77.7429 35.9262 76.0872 35.9262Z" fill="#3F3D56"/>
<path d="M75.3956 41.0007C77.313 41.0007 78.8673 39.1454 78.8673 36.8568C78.8673 34.5682 77.313 32.7129 75.3956 32.7129C73.4782 32.7129 71.9238 34.5682 71.9238 36.8568C71.9238 39.1454 73.4782 41.0007 75.3956 41.0007Z" fill="#F4B442"/>
<path d="M129.182 24.4402C131.1 24.4402 132.654 22.5849 132.654 20.2963C132.654 18.0076 131.1 16.1523 129.182 16.1523C127.265 16.1523 125.71 18.0076 125.71 20.2963C125.71 22.5849 127.265 24.4402 129.182 24.4402Z" fill="#F4B442"/>
<path d="M17.3267 8.28781C19.2441 8.28781 20.7985 6.43252 20.7985 4.14391C20.7985 1.85529 19.2441 0 17.3267 0C15.4093 0 13.855 1.85529 13.855 4.14391C13.855 6.43252 15.4093 8.28781 17.3267 8.28781Z" fill="#F4B442"/>
<path d="M100.292 99.0561V139.095H105.566V102.581H126.663V139.095H131.937V59.0176H126.663C124.915 59.0176 122.233 69.8823 122.233 80.7995C122.233 89.0285 123.038 96.0807 124.183 99.0561H100.292ZM126.663 99.0561H126.612C126.629 99.0113 126.646 98.964 126.663 98.9174V99.0561Z" fill="#3F3D56"/>
<path d="M119.837 39.2012C115.508 39.2012 111.998 43.8501 111.998 49.5848V56.8709H113.875L114.962 54.1714L114.691 56.8709H126.758L127.746 54.4168L127.499 56.8709H128.857V51.15C128.857 44.5509 124.819 39.2012 119.837 39.2012Z" fill="#2F2E41"/>
<path d="M110.855 86.8027L106.042 89.2443L89.3171 105.473C88.7021 106.375 88.3253 107.475 88.2342 108.633C88.1139 110.5 83.0603 120.266 84.8651 121.559C86.67 122.851 93.1675 126.729 93.5285 124.144C93.8895 121.559 95.8147 110.5 95.8147 110.5L111.938 93.2657L110.855 86.8027Z" fill="#2F2E41"/>
<path d="M91.964 121.99L89.9185 129.172C89.9185 129.172 92.0843 131.9 91.0014 134.198V142.097H89.3169L88.8356 137.932C88.8356 137.932 86.9169 142.045 85.9478 142.097C83.9162 142.208 79.8932 143.07 79.7729 141.778C79.6525 140.485 82.8193 139.225 82.8193 139.225L86.1884 128.166L87.6323 121.416L91.964 121.99Z" fill="#2F2E41"/>
<path d="M123.369 84.9368C123.369 84.9368 124.452 97.5754 121.323 99.8733C118.195 102.171 104.357 109.496 104.357 109.496C104.357 109.496 110.253 116.102 109.05 117.682C107.847 119.262 102.432 123.571 101.71 122.709C100.988 121.847 92.9267 111.507 93.8893 108.203C94.8519 104.9 108.208 94.1285 108.208 94.1285L109.772 87.3783L110.253 81.9207L115.307 78.043L123.369 84.9368Z" fill="#2F2E41"/>
<path d="M117.856 55.5117C120.627 55.5117 122.873 52.8311 122.873 49.5244C122.873 46.2177 120.627 43.5371 117.856 43.5371C115.086 43.5371 112.84 46.2177 112.84 49.5244C112.84 52.8311 115.086 55.5117 117.856 55.5117Z" fill="#FFB9B9"/>
<path d="M121.744 51.9766C121.744 51.9766 121.504 57.4341 125.234 59.1576C128.964 60.881 115.969 72.0834 115.969 72.0834V59.5884C115.969 59.5884 117.653 57.4341 115.969 54.1309L121.744 51.9766Z" fill="#FFB9B9"/>
<path d="M129.746 77.6113L128.784 83.2125L125.896 102.458C125.896 102.458 128.302 110.644 125.054 110.5C121.805 110.357 123.369 101.596 123.369 101.596L125.054 85.6541V79.4784L129.746 77.6113Z" fill="#FFB9B9"/>
<path d="M109.05 74.8828L107.968 79.9095L103.034 94.128C103.034 94.128 99.6651 100.878 102.433 100.735C105.2 100.591 105.2 94.128 105.2 94.128L110.855 82.6383V76.1754L109.05 74.8828Z" fill="#FFB9B9"/>
<path d="M108.208 116.82L112.179 121.273C112.179 121.273 114.946 120.554 116.029 124.432C117.112 128.31 117.834 130.752 117.834 130.752L116.39 131.757L114.585 128.741C114.585 128.741 113.502 134.198 112.419 134.629C111.336 135.06 105.922 137.933 106.403 134.629L109.05 130.033C109.05 130.033 109.411 124.863 108.328 124.432C107.245 124.001 104.357 119.693 104.357 119.693L108.208 116.82Z" fill="#2F2E41"/>
<path d="M123.56 89.3894C123.56 89.3894 112.249 84.5063 111.527 84.9372C110.99 85.2206 110.418 85.3979 109.833 85.4622L109.843 83.501C109.843 83.501 113.573 81.9212 115.618 82.9265C117.664 83.9319 123.921 88.3841 123.921 88.3841L123.56 89.3894Z" fill="#3F3D56"/>
<path d="M116.691 69.2096C116.691 69.2096 119.94 64.7574 120.902 62.0286C121.511 60.3743 122.629 59.0623 124.025 58.3633C124.025 58.3633 131.25 60.3052 131.13 63.7521C131.01 67.199 126.558 72.5129 126.558 72.5129C126.558 72.5129 127.159 91.6145 123.911 91.3272C123.21 90.329 122.715 89.1484 122.467 87.8803C122.106 85.8696 110.916 83.7153 110.916 83.7153C110.916 83.7153 109.953 85.726 109.833 84.8643C109.712 84.0026 110.795 62.8903 110.795 62.8903L116.533 58.3633L116.691 69.2096Z" fill="#D0CDE1"/>
<path d="M130.203 62.3648L130.284 62.4188C130.541 62.591 130.755 62.8419 130.904 63.1457C131.053 63.4494 131.131 63.7951 131.131 64.147L131.13 74.8055C131.131 75.0952 131.185 75.3813 131.287 75.6437C131.39 75.9062 131.539 76.1388 131.725 76.3255C132.189 76.7961 132.618 77.4742 131.731 77.8271C130.288 78.4016 124.632 81.274 124.512 80.2686C124.392 79.2633 124.151 78.1143 124.512 78.1143C124.795 78.1143 126.478 67.8155 127.831 63.4122C127.914 63.1426 128.045 62.8977 128.214 62.6943C128.384 62.491 128.589 62.3341 128.814 62.2345C129.04 62.1349 129.281 62.0949 129.521 62.1174C129.76 62.1399 129.993 62.2243 130.203 62.3648Z" fill="#D0CDE1"/>
<path d="M112.419 62.3887L110.735 62.9632L108.81 72.873C108.81 72.873 106.524 73.4475 107.245 74.4528C107.967 75.4581 110.976 78.0433 110.976 78.0433L112.419 62.3887Z" fill="#D0CDE1"/>
<path d="M122.065 42.0617C121.688 41.4571 121.199 40.9644 120.637 40.6217C120.074 40.2791 119.453 40.0957 118.822 40.0859H118.668C115.7 40.0859 113.295 43.2908 113.295 47.2443L114.289 47.2443L114.45 45.7855L114.685 47.2443H120.582L121.076 46.0101L120.953 47.2443H122.113C122.654 50.4533 121.876 53.6622 119.779 56.8711H121.755L122.744 54.4027L122.497 56.8711H126.264L127.005 51.1938C127.005 46.942 124.935 43.3365 122.065 42.0617Z" fill="#2F2E41"/>
<path d="M21.2898 108.308C22.5556 105.019 23.4458 97.2211 23.4458 88.1226C23.4458 76.0518 20.4798 64.0391 18.5473 64.0391H12.7158V152.577H18.5473V112.206H41.8735V152.577H47.705V108.308H21.2898ZM18.5473 108.155C18.5662 108.207 18.585 108.259 18.6041 108.308H18.5473V108.155Z" fill="#3F3D56"/>
<path d="M45.5963 92.1543C45.5963 92.1543 52.6193 95.6301 50.3925 97.6747C48.1657 99.7193 43.5407 95.2212 43.712 94.6078C43.8833 93.9944 43.0269 92.5632 43.0269 92.5632L45.5963 92.1543Z" fill="#9F616A"/>
<path d="M39.4297 64.7578L41.6565 67.2113L42.1704 74.3674L43.8834 81.9323C43.8834 81.9323 46.7954 89.0884 46.2815 90.5196C45.7676 91.9508 46.7954 92.3597 46.7954 92.3597L42.8556 94.1998C42.8556 94.1998 38.5732 88.475 38.5732 87.2482C38.5732 86.0215 39.4297 64.7578 39.4297 64.7578Z" fill="#575A88"/>
<path opacity="0.1" d="M39.4297 64.7578L41.6565 67.2113L42.1704 74.3674L43.8834 81.9323C43.8834 81.9323 46.7954 89.0884 46.2815 90.5196C45.7676 91.9508 46.7954 92.3597 46.7954 92.3597L42.8556 94.1998C42.8556 94.1998 38.5732 88.475 38.5732 87.2482C38.5732 86.0215 39.4297 64.7578 39.4297 64.7578Z" fill="black"/>
<path d="M60.4988 138.364C60.4988 138.364 59.6424 143.066 59.4711 143.475C59.2998 143.884 62.7257 145.315 62.7257 145.315L66.8367 141.839C66.8367 141.839 65.1238 137.341 65.1238 136.523L60.4988 138.364Z" fill="#575A88"/>
<path d="M38.059 92.5645L39.2581 94.2001C39.2581 94.2001 64.0957 97.8804 64.6096 103.605C65.1235 109.33 68.7207 136.319 66.6651 137.136C64.6096 137.954 59.2995 141.021 59.2995 139.385C59.2995 137.75 55.8736 115.259 56.5588 111.17C56.5588 111.17 26.9249 106.672 26.2397 101.561C25.5545 96.4492 26.9249 94.2001 26.9249 94.2001L38.059 92.5645Z" fill="#2F2E41"/>
<path opacity="0.1" d="M38.059 92.5645L39.2581 94.2001C39.2581 94.2001 64.0957 97.8804 64.6096 103.605C65.1235 109.33 68.7207 136.319 66.6651 137.136C64.6096 137.954 59.2995 141.021 59.2995 139.385C59.2995 137.75 55.8736 115.259 56.5588 111.17C56.5588 111.17 26.9249 106.672 26.2397 101.561C25.5545 96.4492 26.9249 94.2001 26.9249 94.2001L38.059 92.5645Z" fill="black"/>
<path d="M60.156 143.065C60.156 143.065 59.4709 141.225 59.1283 141.838C58.7857 142.451 57.5866 149.607 58.7857 149.607C59.9848 149.607 70.9476 152.879 72.4892 152.47C74.0309 152.061 76.9429 152.674 76.6003 150.63C76.2577 148.585 74.5448 148.381 74.5448 148.381C74.5448 148.381 68.2069 143.883 67.8643 141.634C67.5217 139.385 65.6375 140.611 65.6375 140.611V142.042C65.6375 142.042 62.0403 145.314 60.156 143.065Z" fill="#2F2E41"/>
<path d="M27.6104 49.2182C27.6104 49.2182 28.8094 56.1698 26.24 56.7832C23.6706 57.3965 29.4946 61.4857 29.4946 61.4857L33.2631 63.9392L36.0038 60.6679C36.0038 60.6679 33.52 54.6363 35.4043 50.1383C37.2885 45.6402 27.6104 49.2182 27.6104 49.2182Z" fill="#9F616A"/>
<path d="M36.0038 60.6679L33.2631 63.9392L29.4946 61.4857C29.4946 61.4857 23.6706 57.3965 26.24 56.7832C27.893 56.3886 27.9855 53.3707 27.8433 51.2689C27.7969 50.5808 27.7192 49.8962 27.6104 49.2182C27.6104 49.2182 37.2885 45.6402 35.4043 50.1383C35.118 50.8329 34.9194 51.5742 34.815 52.3382C34.2377 56.3804 36.0038 60.6679 36.0038 60.6679Z" fill="#9F616A"/>
<path d="M45.5962 144.293V148.995H52.1054L52.6193 147.155L51.9341 142.248L45.5962 144.293Z" fill="#575A88"/>
<path d="M18.7031 96.6527C18.7031 96.6527 18.7031 108.716 22.8142 109.125C26.9252 109.534 41.6566 111.783 41.6566 111.783C41.6566 111.783 42.513 131.82 44.0547 138.362C45.5963 144.905 44.226 145.314 45.5963 145.723C46.9667 146.132 52.7907 144.7 52.6194 143.269C52.4481 141.838 51.7629 105.649 51.7629 105.649C51.7629 105.649 53.3046 97.8795 32.7493 94.1992L18.7031 96.6527Z" fill="#2F2E41"/>
<path d="M46.1097 147.564C46.1097 147.564 45.082 144.906 44.9107 145.724C44.7394 146.542 42.6839 153.698 44.7394 154.311C46.7949 154.924 53.3041 158.196 57.5865 157.991C61.8688 157.787 62.3827 157.582 62.3827 157.582C62.3827 157.582 63.5818 155.538 62.0401 154.311C60.4985 153.084 54.1606 145.928 53.818 145.11C53.4754 144.293 50.906 143.679 50.906 145.11C50.906 146.542 47.3088 149.404 46.1097 147.564Z" fill="#2F2E41"/>
<path opacity="0.1" d="M35.4042 50.1383C35.1179 50.8329 34.9194 51.5742 34.815 52.3382C33.962 52.9537 33.3915 52.7962 32.3209 52.7962C30.733 52.7962 30.0924 50.3734 29.0664 49.116C28.9858 47.9485 27.6104 49.2182 27.6104 49.2182C27.6104 49.2182 37.2885 45.6402 35.4042 50.1383Z" fill="black"/>
<path d="M31.8925 52.6954C35.0144 52.6954 37.5452 49.6746 37.5452 45.9483C37.5452 42.222 35.0144 39.2012 31.8925 39.2012C28.7706 39.2012 26.2397 42.222 26.2397 45.9483C26.2397 49.6746 28.7706 52.6954 31.8925 52.6954Z" fill="#9F616A"/>
<path d="M41.6561 67.2121C41.6561 67.2121 40.7996 74.5726 40.2857 77.2305C39.7718 79.8885 39.0867 92.156 38.7441 93.7917C38.4015 95.4273 36.346 95.8362 32.2349 95.2229C31.9768 95.1841 31.7173 95.1609 31.4572 95.1533C28.9255 95.0573 26.0289 96.1879 23.3482 97.0753C21.8065 97.5864 20.3351 98.0158 19.0452 98.0853C17.0925 98.1916 16.5204 95.6072 16.5872 92.8102C16.6505 90.2075 17.2689 87.4166 17.8462 86.4311C18.8859 84.6565 17.8633 68.723 18.247 63.4684V63.4664C18.3052 62.6649 18.396 62.1129 18.5314 61.8961C19.5591 60.2605 26.2396 56.1713 26.9882 56.3369C27.735 56.5025 34.1191 61.2828 34.1191 61.2828C35.6608 61.2828 35.6111 59.2872 35.6111 59.2872C35.6111 59.2872 36.6885 61.6917 38.7441 62.3051C40.7996 62.9184 41.6561 67.2121 41.6561 67.2121Z" fill="#575A88"/>
<path d="M30.2057 93.7188C30.2057 93.7188 41.2397 94.1381 39.3068 95.7028C37.3739 97.2676 28.8091 98.6988 28.6378 96.6542C28.4666 94.6096 30.2057 93.7188 30.2057 93.7188Z" fill="#9F616A"/>
<path opacity="0.1" d="M31.4575 95.1522C31.4934 95.9373 29.724 97.7059 29.1518 98.9019C28.8349 99.5644 26.382 98.6913 23.3484 97.0741C21.0204 95.8269 18.7621 94.4023 16.5874 92.8091C16.6508 90.2063 17.2692 87.4155 17.8464 86.43C18.8862 84.6553 17.8635 68.7218 18.2473 63.4672V63.4652C18.3387 63.4098 18.4338 63.3633 18.5316 63.3262H20.5871C27.6102 67.2109 19.5594 83.9765 19.5594 83.9765C19.5594 83.9765 30.1796 94.4039 31.2074 94.8128C31.2748 94.828 31.336 94.8697 31.3813 94.9312C31.4266 94.9927 31.4534 95.0704 31.4575 95.1522Z" fill="black"/>
<path d="M20.587 62.0996H18.5315C18.5315 62.0996 16.6472 62.713 15.1056 66.8022C13.5639 70.8913 7.91123 83.5677 12.8788 88.4747C17.8463 93.3818 28.4665 99.1066 29.1517 97.6754C29.8369 96.2442 32.235 93.9951 31.2072 93.5862C30.1795 93.1773 19.5592 82.7499 19.5592 82.7499C19.5592 82.7499 27.6101 65.9843 20.587 62.0996Z" fill="#575A88"/>
<path d="M31.023 42.8083C31.023 42.8083 31.2711 38.7094 34.3314 40.3807C37.3917 42.052 37.192 37.4454 36.2672 36.6313C35.3424 35.8173 35.3717 35.6158 31.9893 36.1605C28.6069 36.7051 22.0402 37.6279 24.1635 45.7456C26.2868 53.8633 28.2099 51.775 28.2099 51.775C28.2099 51.775 26.5221 44.4702 28.2322 45.8619L29.9423 47.2535L30.8447 47.0254L31.023 42.8083Z" fill="#2F2E41"/>
<path d="M157.298 101.831C157.298 98.1401 134.322 95.1484 105.98 95.1484C77.6382 95.1484 54.6626 98.1401 54.6626 101.831C54.6626 103.261 58.1157 104.586 63.993 105.673V151.39H66.7922V106.144C76.2055 107.593 90.2667 108.513 105.98 108.513C121.823 108.513 135.988 107.578 145.401 106.108V151.39H148.2V105.629C153.935 104.551 157.298 103.242 157.298 101.831Z" fill="#3F3D56"/>
<path d="M112.409 101.97C118.18 101.97 122.858 100.597 122.858 98.9028C122.858 97.209 118.18 95.8359 112.409 95.8359C106.638 95.8359 101.96 97.209 101.96 98.9028C101.96 100.597 106.638 101.97 112.409 101.97Z" fill="#F2F2F2"/>
<path d="M112.409 101.416C117.139 101.416 120.974 100.291 120.974 98.9025C120.974 97.5142 117.139 96.3887 112.409 96.3887C107.679 96.3887 103.844 97.5142 103.844 98.9025C103.844 100.291 107.679 101.416 112.409 101.416Z" fill="#D0CDE1"/>
<path d="M73.5251 104.423C79.2959 104.423 83.9741 103.05 83.9741 101.356C83.9741 99.6621 79.2959 98.2891 73.5251 98.2891C67.7543 98.2891 63.0762 99.6621 63.0762 101.356C63.0762 103.05 67.7543 104.423 73.5251 104.423Z" fill="#F2F2F2"/>
<path d="M73.5252 103.869C78.2553 103.869 82.0899 102.744 82.0899 101.356C82.0899 99.9673 78.2553 98.8418 73.5252 98.8418C68.795 98.8418 64.9604 99.9673 64.9604 101.356C64.9604 102.744 68.795 103.869 73.5252 103.869Z" fill="#D0CDE1"/>
<path d="M112.166 98.6862C114.917 98.6862 117.147 98.2659 117.147 97.7474C117.147 97.2289 114.917 96.8086 112.166 96.8086C109.415 96.8086 107.185 97.2289 107.185 97.7474C107.185 98.2659 109.415 98.6862 112.166 98.6862Z" fill="#9F616A"/>
<path d="M109.512 97.3954C110.38 97.3954 111.085 96.9401 111.085 96.3784C111.085 95.8167 110.38 95.3613 109.512 95.3613C108.643 95.3613 107.938 95.8167 107.938 96.3784C107.938 96.9401 108.643 97.3954 109.512 97.3954Z" fill="white"/>
<path d="M108.922 97.3954C109.79 97.3954 110.495 96.9401 110.495 96.3784C110.495 95.8167 109.79 95.3613 108.922 95.3613C108.053 95.3613 107.349 95.8167 107.349 96.3784C107.349 96.9401 108.053 97.3954 108.922 97.3954Z" fill="white"/>
<path d="M115.804 97.6298C116.672 97.6298 117.377 97.1744 117.377 96.6127C117.377 96.051 116.672 95.5957 115.804 95.5957C114.935 95.5957 114.23 96.051 114.23 96.6127C114.23 97.1744 114.935 97.6298 115.804 97.6298Z" fill="white"/>
<path d="M112.199 97.3954C113.067 97.3954 113.772 96.9401 113.772 96.3784C113.772 95.8167 113.067 95.3613 112.199 95.3613C111.33 95.3613 110.625 95.8167 110.625 96.3784C110.625 96.9401 111.33 97.3954 112.199 97.3954Z" fill="white"/>
<path d="M114.886 97.3954C115.755 97.3954 116.459 96.9401 116.459 96.3784C116.459 95.8167 115.755 95.3613 114.886 95.3613C114.017 95.3613 113.313 95.8167 113.313 96.3784C113.313 96.9401 114.017 97.3954 114.886 97.3954Z" fill="white"/>
<path d="M116.918 95.7526C114.075 96.9041 110.885 96.9041 107.349 95.7526V95.5941C107.348 94.3969 107.733 93.2453 108.424 92.3774C109.115 91.5096 110.059 90.9919 111.06 90.9316C111.904 90.8809 112.748 90.8822 113.591 90.9354C114.492 90.9981 115.339 91.4703 115.958 92.2549C116.577 93.0396 116.92 94.0773 116.918 95.1548V95.7526Z" fill="#3F3D56"/>
<path d="M115.522 100.062C113.421 100.316 111.304 100.316 109.203 100.062C108.705 100.004 108.242 99.7267 107.906 99.2842C107.569 98.8417 107.382 98.2657 107.381 97.668H117.344C117.343 98.2657 117.156 98.8417 116.82 99.2842C116.483 99.7267 116.021 100.004 115.522 100.062Z" fill="#3F3D56"/>
<path d="M110.822 92.3889C110.594 92.5025 110.349 92.561 110.101 92.561C109.854 92.561 109.609 92.5025 109.38 92.3889C109.609 92.2753 109.854 92.2168 110.101 92.2168C110.349 92.2168 110.594 92.2753 110.822 92.3889Z" fill="#D0CDE1"/>
<path d="M112.264 93.092C112.036 93.2057 111.791 93.2641 111.543 93.2641C111.296 93.2641 111.051 93.2057 110.822 93.092C111.051 92.9784 111.296 92.9199 111.543 92.9199C111.791 92.9199 112.036 92.9784 112.264 93.092Z" fill="#D0CDE1"/>
<path d="M112.395 91.8401C112.167 91.9537 111.922 92.0122 111.674 92.0122C111.427 92.0122 111.182 91.9537 110.953 91.8401C111.182 91.7265 111.427 91.668 111.674 91.668C111.922 91.668 112.167 91.7265 112.395 91.8401Z" fill="#D0CDE1"/>
<path d="M115.083 91.8401C114.854 91.9537 114.609 92.0122 114.362 92.0122C114.114 92.0122 113.869 91.9537 113.641 91.8401C113.869 91.7265 114.114 91.668 114.362 91.668C114.609 91.668 114.854 91.7265 115.083 91.8401Z" fill="#D0CDE1"/>
<path d="M114.361 92.5452C114.133 92.6588 113.888 92.7173 113.64 92.7173C113.393 92.7173 113.148 92.6588 112.919 92.5452C113.148 92.4315 113.393 92.373 113.64 92.373C113.888 92.373 114.133 92.4315 114.361 92.5452Z" fill="#D0CDE1"/>
<path d="M73.4535 101.139C76.2046 101.139 78.4348 100.719 78.4348 100.201C78.4348 99.682 76.2046 99.2617 73.4535 99.2617C70.7024 99.2617 68.4722 99.682 68.4722 100.201C68.4722 100.719 70.7024 101.139 73.4535 101.139Z" fill="#9F616A"/>
<path d="M70.7986 99.8485C71.6674 99.8485 72.3717 99.3932 72.3717 98.8315C72.3717 98.2698 71.6674 97.8145 70.7986 97.8145C69.9299 97.8145 69.2256 98.2698 69.2256 98.8315C69.2256 99.3932 69.9299 99.8485 70.7986 99.8485Z" fill="white"/>
<path d="M70.2088 99.8485C71.0776 99.8485 71.7818 99.3932 71.7818 98.8315C71.7818 98.2698 71.0776 97.8145 70.2088 97.8145C69.34 97.8145 68.6357 98.2698 68.6357 98.8315C68.6357 99.3932 69.34 99.8485 70.2088 99.8485Z" fill="white"/>
<path d="M77.0911 100.083C77.9599 100.083 78.6641 99.6276 78.6641 99.0659C78.6641 98.5042 77.9599 98.0488 77.0911 98.0488C76.2223 98.0488 75.5181 98.5042 75.5181 99.0659C75.5181 99.6276 76.2223 100.083 77.0911 100.083Z" fill="white"/>
<path d="M73.4861 99.8485C74.3549 99.8485 75.0592 99.3932 75.0592 98.8315C75.0592 98.2698 74.3549 97.8145 73.4861 97.8145C72.6174 97.8145 71.9131 98.2698 71.9131 98.8315C71.9131 99.3932 72.6174 99.8485 73.4861 99.8485Z" fill="white"/>
<path d="M76.1736 99.8485C77.0424 99.8485 77.7467 99.3932 77.7467 98.8315C77.7467 98.2698 77.0424 97.8145 76.1736 97.8145C75.3049 97.8145 74.6006 98.2698 74.6006 98.8315C74.6006 99.3932 75.3049 99.8485 76.1736 99.8485Z" fill="white"/>
<path d="M78.2051 98.2057C75.3621 99.3572 72.1723 99.3572 68.6357 98.2057V98.0473C68.6351 96.8501 69.0201 95.6984 69.711 94.8306C70.4019 93.9627 71.3459 93.4451 72.3476 93.3847C73.1907 93.3341 74.0354 93.3353 74.8784 93.3886C75.7796 93.4512 76.6265 93.9234 77.2452 94.7081C77.8639 95.4928 78.2073 96.5304 78.2051 97.6079V98.2057Z" fill="#3F3D56"/>
<path d="M76.8098 102.518C74.7088 102.771 72.5917 102.771 70.4907 102.518C69.9923 102.459 69.5299 102.182 69.1933 101.739C68.8566 101.297 68.6697 100.721 68.6689 100.123H78.6316C78.6308 100.721 78.4439 101.297 78.1072 101.739C77.7706 102.182 77.3082 102.459 76.8098 102.518Z" fill="#3F3D56"/>
<path d="M72.1099 94.842C71.8815 94.9557 71.6364 95.0141 71.3889 95.0141C71.1415 95.0141 70.8964 94.9557 70.668 94.842C70.8964 94.7284 71.1415 94.6699 71.3889 94.6699C71.6364 94.6699 71.8815 94.7284 72.1099 94.842Z" fill="#D0CDE1"/>
<path d="M73.5518 95.5452C73.3234 95.6588 73.0783 95.7173 72.8308 95.7173C72.5834 95.7173 72.3383 95.6588 72.1099 95.5452C72.3383 95.4315 72.5834 95.373 72.8308 95.373C73.0783 95.373 73.3234 95.4315 73.5518 95.5452Z" fill="#D0CDE1"/>
<path d="M73.6827 94.2932C73.4542 94.4068 73.2092 94.4653 72.9617 94.4653C72.7142 94.4653 72.4692 94.4068 72.2407 94.2932C72.4692 94.1796 72.7142 94.1211 72.9617 94.1211C73.2092 94.1211 73.4542 94.1796 73.6827 94.2932Z" fill="#D0CDE1"/>
<path d="M76.3702 94.2932C76.1417 94.4068 75.8967 94.4653 75.6492 94.4653C75.4017 94.4653 75.1567 94.4068 74.9282 94.2932C75.1567 94.1796 75.4017 94.1211 75.6492 94.1211C75.8967 94.1211 76.1417 94.1796 76.3702 94.2932Z" fill="#D0CDE1"/>
<path d="M75.649 94.9983C75.4205 95.1119 75.1755 95.1704 74.928 95.1704C74.6805 95.1704 74.4355 95.1119 74.207 94.9983C74.4355 94.8847 74.6805 94.8262 74.928 94.8262C75.1755 94.8262 75.4205 94.8847 75.649 94.9983Z" fill="#D0CDE1"/>
<path d="M121.398 98.0723L121.422 98.7056L121.453 99.527C121.453 99.527 118.292 99.7402 117.655 100.543C117.641 100.561 117.627 100.579 117.615 100.599L116.349 100.268L116.346 99.5238C116.346 99.5238 116.363 99.5122 116.397 99.4903C116.405 99.4855 116.415 99.4794 116.424 99.4733C117.973 98.5678 119.673 98.089 121.398 98.0723Z" fill="white"/>
<path opacity="0.1" d="M121.398 98.0723L121.422 98.7056C120.02 98.7573 117.368 99.7545 117.368 99.7545L116.397 99.4903C117.953 98.573 119.663 98.0882 121.398 98.0723Z" fill="black"/>
<path opacity="0.1" d="M116.424 99.4727L117.368 99.7539L117.655 100.543C117.641 100.56 117.627 100.579 117.615 100.598L116.349 100.268L116.346 99.5232C116.346 99.5232 116.363 99.5116 116.397 99.4897C116.405 99.485 116.415 99.4788 116.424 99.4727Z" fill="white"/>
<path d="M83.1994 100.729L83.2234 101.362L83.2541 102.183C83.2541 102.183 80.0935 102.396 79.4568 103.2C79.442 103.217 79.4284 103.235 79.4161 103.255L78.1501 102.924L78.147 102.18C78.147 102.18 78.1644 102.168 78.1984 102.147C78.2062 102.142 78.2159 102.136 78.2256 102.13C79.7747 101.224 81.4745 100.745 83.1994 100.729Z" fill="white"/>
<path opacity="0.1" d="M83.1992 100.729L83.2233 101.362C81.8217 101.414 79.1692 102.411 79.1692 102.411L78.1982 102.147C79.7541 101.229 81.4639 100.744 83.1992 100.729Z" fill="black"/>
<path opacity="0.1" d="M78.2256 102.131L79.1694 102.412L79.4568 103.201C79.442 103.218 79.4284 103.237 79.4161 103.257L78.1501 102.926L78.147 102.181C78.147 102.181 78.1644 102.17 78.1984 102.148C78.2061 102.143 78.2158 102.137 78.2256 102.131Z" fill="white"/>
<path d="M140.434 79.1023C140.164 78.7808 139.848 78.5201 139.501 78.3328V70.3883C139.501 70.2952 139.47 70.2059 139.415 70.14C139.359 70.0741 139.284 70.0371 139.206 70.0371H137.559C137.481 70.0371 137.406 70.0741 137.351 70.14C137.295 70.2059 137.264 70.2952 137.264 70.3883V78.1804C136.669 78.4162 136.151 78.8699 135.783 79.4772C135.416 80.0844 135.218 80.8144 135.218 81.5634V98.6054C135.218 98.8105 135.252 99.0136 135.317 99.203C135.383 99.3925 135.479 99.5647 135.601 99.7097C135.722 99.8547 135.867 99.9697 136.025 100.048C136.184 100.127 136.354 100.167 136.526 100.167H140.056C140.401 100.167 140.732 100.003 140.976 99.7118C141.221 99.4203 141.358 99.0249 141.358 98.6126V81.7643C141.358 81.2698 141.277 80.7801 141.118 80.3232C140.96 79.8664 140.727 79.4515 140.434 79.1023Z" fill="#3F3D56"/>
<path d="M141.358 84.0605H135.218V93.742H141.358V84.0605Z" fill="white"/>
<path d="M139.633 70.58H139.501V70.3883C139.501 70.2952 139.47 70.2059 139.415 70.14C139.359 70.0741 139.285 70.0371 139.206 70.0371H137.559C137.481 70.0371 137.406 70.0741 137.351 70.14C137.295 70.2059 137.264 70.2952 137.264 70.3883V70.58H137.132V71.3943H137.264V75.5564H139.501V71.3943H139.633V70.58Z" fill="white"/>
<path d="M91.2704 85.997C91.1079 85.583 90.9797 85.2902 90.9348 85.1895C88.1786 86.0013 86.3398 85.3153 86.0498 85.1939C85.908 85.5136 85.0226 87.5569 84.6648 89.5158C84.3415 91.2828 84.5292 92.4674 85.2225 93.0367L85.243 93.0541L85.2475 93.0577C86.0128 93.6596 86.7428 94.1927 87.4171 94.642C87.508 94.7023 87.5936 94.7584 87.6741 94.8102L87.6827 94.8158L87.6888 94.825C87.7813 94.9642 87.8675 95.1093 87.9469 95.2597C88.0959 95.5083 88.1863 95.8002 88.2087 96.1047V104.881L88.1623 104.882C86.4042 104.925 85.316 105.281 85.316 105.586C85.316 105.92 86.6209 106.293 88.4933 106.293C90.3656 106.293 91.6705 105.92 91.6705 105.586C91.6705 105.285 90.6007 104.931 88.8725 104.884L88.8259 104.882L88.8693 96.7643C88.8703 96.2147 88.9774 95.6727 89.1821 95.1804C89.217 95.0977 89.2545 95.0172 89.2936 94.9413C89.325 94.8803 89.3582 94.8208 89.3924 94.7646L89.3986 94.7542L89.408 94.7481C89.4946 94.6917 89.5865 94.6305 89.6838 94.5647L89.6952 94.5572C90.3334 94.127 91.021 93.6226 91.7392 93.0576C92.3804 92.553 92.6037 91.5332 92.4028 90.0266C92.2113 88.5901 91.6813 87.0424 91.2704 85.997Z" fill="#D0CDE1"/>
<path d="M91.4349 92.874C90.6819 93.4663 90.0603 93.9106 89.5849 94.2307H89.5845C88.8909 94.1742 88.1945 94.1975 87.5047 94.3004C87.0173 93.9757 86.3599 93.5101 85.5511 92.874C85.5434 92.8678 85.5357 92.8617 85.5281 92.8551V92.8546C84.7862 92.2454 84.7679 90.9554 85.0092 89.6363C85.6231 89.5549 86.6021 89.5905 87.9174 90.1513C89.4749 90.8154 91.1053 90.4398 92.0501 90.0984C92.2053 91.2622 92.1106 92.3421 91.4349 92.874Z" fill="white"/>
<path d="M86.9583 89.1593C87.076 89.1593 87.1715 89.0454 87.1715 88.9048C87.1715 88.7643 87.076 88.6504 86.9583 88.6504C86.8406 88.6504 86.7451 88.7643 86.7451 88.9048C86.7451 89.0454 86.8406 89.1593 86.9583 89.1593Z" fill="white"/>
<path d="M86.3611 91.4991C86.4789 91.4991 86.5743 91.3852 86.5743 91.2447C86.5743 91.1042 86.4789 90.9902 86.3611 90.9902C86.2434 90.9902 86.1479 91.1042 86.1479 91.2447C86.1479 91.3852 86.2434 91.4991 86.3611 91.4991Z" fill="white"/>
<path d="M87.4697 89.6686C87.5403 89.6686 87.5976 89.6003 87.5976 89.516C87.5976 89.4316 87.5403 89.3633 87.4697 89.3633C87.3991 89.3633 87.3418 89.4316 87.3418 89.516C87.3418 89.6003 87.3991 89.6686 87.4697 89.6686Z" fill="white"/>
<path d="M87.9814 92.569C88.0521 92.569 88.1093 92.5007 88.1093 92.4163C88.1093 92.332 88.0521 92.2637 87.9814 92.2637C87.9108 92.2637 87.8535 92.332 87.8535 92.4163C87.8535 92.5007 87.9108 92.569 87.9814 92.569Z" fill="white"/>
<path d="M87.0859 92.7214C87.1566 92.7214 87.2138 92.653 87.2138 92.5687C87.2138 92.4844 87.1566 92.416 87.0859 92.416C87.0153 92.416 86.958 92.4844 86.958 92.5687C86.958 92.653 87.0153 92.7214 87.0859 92.7214Z" fill="white"/>
<path d="M89.687 87.6315C89.7576 87.6315 89.8149 87.5632 89.8149 87.4788C89.8149 87.3945 89.7576 87.3262 89.687 87.3262C89.6163 87.3262 89.5591 87.3945 89.5591 87.4788C89.5591 87.5632 89.6163 87.6315 89.687 87.6315Z" fill="white"/>
<path d="M101.27 77.7235C101.108 77.3096 100.98 77.0168 100.935 76.916C98.1786 77.7279 96.3397 77.0418 96.0498 76.9205C95.908 77.2401 95.0226 79.2834 94.6648 81.2424C94.3415 83.0094 94.5292 84.1939 95.2225 84.7632L95.243 84.7807L95.2475 84.7843C96.0128 85.3862 96.7428 85.9193 97.4171 86.3685C97.508 86.4289 97.5936 86.485 97.6741 86.5368L97.6827 86.5424L97.6888 86.5515C97.7813 86.6908 97.8675 86.8359 97.9469 86.9862C98.0959 87.2349 98.1863 87.5267 98.2087 87.8313V96.6075L98.1623 96.6086C96.4042 96.6514 95.316 97.0072 95.316 97.3122C95.316 97.6468 96.6209 98.0197 98.4932 98.0197C100.366 98.0197 101.67 97.6468 101.67 97.3122C101.67 97.0117 100.601 96.6579 98.8725 96.6103L98.8258 96.609L98.8693 88.4909C98.8703 87.9413 98.9774 87.3993 99.1821 86.907C99.217 86.8242 99.2545 86.7437 99.2936 86.6679C99.325 86.6069 99.3582 86.5473 99.3924 86.4911L99.3986 86.4808L99.408 86.4747C99.4946 86.4182 99.5865 86.3571 99.6838 86.2912L99.6952 86.2838C100.333 85.8536 101.021 85.3492 101.739 84.7841C102.38 84.2796 102.604 83.2598 102.403 81.7532C102.211 80.3167 101.681 78.769 101.27 77.7235Z" fill="#D0CDE1"/>
<path d="M101.435 84.6005C100.682 85.1929 100.06 85.6372 99.5849 85.9573H99.5845C98.8909 85.9008 98.1945 85.9241 97.5047 86.027C97.0173 85.7023 96.3599 85.2367 95.5511 84.6005C95.5434 84.5944 95.5357 84.5883 95.5281 84.5817V84.5812C94.7862 83.972 94.7679 82.6819 95.0092 81.3628C95.6231 81.2814 96.6021 81.317 97.9174 81.8779C99.4749 82.542 101.105 82.1664 102.05 81.8249C102.205 82.9888 102.111 84.0687 101.435 84.6005Z" fill="white"/>
<path d="M96.9583 80.8859C97.076 80.8859 97.1715 80.7719 97.1715 80.6314C97.1715 80.4909 97.076 80.377 96.9583 80.377C96.8406 80.377 96.7451 80.4909 96.7451 80.6314C96.7451 80.7719 96.8406 80.8859 96.9583 80.8859Z" fill="white"/>
<path d="M96.3611 83.2257C96.4789 83.2257 96.5743 83.1118 96.5743 82.9713C96.5743 82.8307 96.4789 82.7168 96.3611 82.7168C96.2434 82.7168 96.1479 82.8307 96.1479 82.9713C96.1479 83.1118 96.2434 83.2257 96.3611 83.2257Z" fill="white"/>
<path d="M97.4697 81.3932C97.5404 81.3932 97.5976 81.3249 97.5976 81.2406C97.5976 81.1562 97.5404 81.0879 97.4697 81.0879C97.3991 81.0879 97.3418 81.1562 97.3418 81.2406C97.3418 81.3249 97.3991 81.3932 97.4697 81.3932Z" fill="white"/>
<path d="M97.9814 84.2956C98.0521 84.2956 98.1093 84.2272 98.1093 84.1429C98.1093 84.0586 98.0521 83.9902 97.9814 83.9902C97.9108 83.9902 97.8535 84.0586 97.8535 84.1429C97.8535 84.2272 97.9108 84.2956 97.9814 84.2956Z" fill="white"/>
<path d="M97.0859 84.4479C97.1566 84.4479 97.2138 84.3796 97.2138 84.2952C97.2138 84.2109 97.1566 84.1426 97.0859 84.1426C97.0153 84.1426 96.958 84.2109 96.958 84.2952C96.958 84.3796 97.0153 84.4479 97.0859 84.4479Z" fill="white"/>
<path d="M99.687 79.3581C99.7576 79.3581 99.8149 79.2897 99.8149 79.2054C99.8149 79.1211 99.7576 79.0527 99.687 79.0527C99.6163 79.0527 99.5591 79.1211 99.5591 79.2054C99.5591 79.2897 99.6163 79.3581 99.687 79.3581Z" fill="white"/>
</g>
<defs>
<clipPath id="clip0_703_489">
<rect width="171" height="158" fill="white" transform="translate(0.128906)"/>
</clipPath>
</defs>
</svg>
