<svg width="187" height="151" viewBox="0 0 187 151" fill="none" xmlns="http://www.w3.org/2000/svg">
<path d="M59.978 23.4297H59.5986V44.7757H59.978V23.4297Z" fill="white"/>
<path d="M59.978 51.1289H59.5986V69.9113H59.978V51.1289Z" fill="white"/>
<path d="M88.4333 72.9043H59.0298V73.3033H88.4333V72.9043Z" fill="white"/>
<path d="M46.8892 78.2891H46.5098V95.2462H46.8892V78.2891Z" fill="white"/>
<path d="M94.5034 98.2402H49.9238V98.6392H94.5034V98.2402Z" fill="white"/>
<path d="M131.685 9.86328H131.306V30.0124H131.685V9.86328Z" fill="white"/>
<path d="M128.46 33.2031H100.567V33.6021H128.46V33.2031Z" fill="white"/>
<path d="M97.7285 36.3965H97.3491V63.3284H97.7285V36.3965Z" fill="white"/>
<path d="M59.7884 51.3571C59.1506 51.3571 58.5271 51.1582 57.9967 50.7855C57.4664 50.4129 57.053 49.8832 56.809 49.2635C56.5649 48.6438 56.501 47.9619 56.6254 47.304C56.7499 46.6461 57.057 46.0418 57.508 45.5675C57.959 45.0932 58.5337 44.7702 59.1592 44.6394C59.7848 44.5085 60.4332 44.5757 61.0225 44.8324C61.6118 45.0891 62.1154 45.5238 62.4698 46.0815C62.8242 46.6392 63.0133 47.2949 63.0133 47.9656C63.0123 48.8648 62.6723 49.7268 62.0677 50.3626C61.4631 50.9984 60.6434 51.3561 59.7884 51.3571ZM59.7884 44.9732C59.2256 44.9732 58.6754 45.1487 58.2075 45.4775C57.7396 45.8063 57.3748 46.2737 57.1595 46.8205C56.9441 47.3673 56.8878 47.969 56.9976 48.5494C57.1073 49.1299 57.3784 49.6631 57.7763 50.0816C58.1743 50.5001 58.6813 50.7851 59.2333 50.9006C59.7852 51.0161 60.3574 50.9568 60.8773 50.7303C61.3973 50.5038 61.8417 50.1203 62.1543 49.6282C62.467 49.1361 62.6339 48.5575 62.6339 47.9656C62.6331 47.1723 62.333 46.4117 61.7995 45.8507C61.2661 45.2897 60.5428 44.9741 59.7884 44.9732Z" fill="white"/>
<path d="M46.889 101.83C46.2511 101.83 45.6276 101.631 45.0973 101.258C44.567 100.886 44.1536 100.356 43.9095 99.7361C43.6655 99.1164 43.6016 98.4345 43.726 97.7767C43.8505 97.1188 44.1576 96.5145 44.6086 96.0402C45.0596 95.5659 45.6343 95.2429 46.2598 95.112C46.8854 94.9812 47.5338 95.0483 48.1231 95.305C48.7124 95.5617 49.216 95.9964 49.5704 96.5541C49.9247 97.1118 50.1139 97.7675 50.1139 98.4383C50.1129 99.3375 49.7729 100.199 49.1683 100.835C48.5637 101.471 47.744 101.829 46.889 101.83ZM46.889 95.4459C46.3262 95.4459 45.776 95.6214 45.3081 95.9502C44.8402 96.279 44.4754 96.7464 44.2601 97.2932C44.0447 97.8399 43.9883 98.4416 44.0981 99.0221C44.2079 99.6026 44.4789 100.136 44.8769 100.554C45.2748 100.973 45.7819 101.258 46.3338 101.373C46.8858 101.489 47.4579 101.429 47.9779 101.203C48.4978 100.976 48.9423 100.593 49.2549 100.101C49.5676 99.6087 49.7345 99.0302 49.7345 98.4383C49.7336 97.6449 49.4336 96.8843 48.9001 96.3233C48.3667 95.7623 47.6434 95.4467 46.889 95.4459Z" fill="white"/>
<path d="M59.9781 76.296C61.6544 76.296 63.0133 74.8669 63.0133 73.104C63.0133 71.3412 61.6544 69.9121 59.9781 69.9121C58.3018 69.9121 56.9429 71.3412 56.9429 73.104C56.9429 74.8669 58.3018 76.296 59.9781 76.296Z" fill="white"/>
<path d="M169.814 47.7676H138.324V48.1666H169.814V47.7676Z" fill="white"/>
<path d="M135.479 51.1289H135.1V69.9113H135.479V51.1289Z" fill="white"/>
<path d="M132.064 72.9043H106.834V73.3033H132.064V72.9043Z" fill="white"/>
<path d="M177.403 74.6992H151.224V75.0982H177.403V74.6992Z" fill="white"/>
<path d="M148.568 78.2891H148.189V95.2462H148.568V78.2891Z" fill="white"/>
<path d="M145.154 98.2402H100.574V98.6392H145.154V98.2402Z" fill="white"/>
<path d="M97.7285 82.8789H97.3491V95.2476H97.7285V82.8789Z" fill="white"/>
<path d="M135.289 51.1593C136.965 51.1593 138.324 49.7302 138.324 47.9673C138.324 46.2045 136.965 44.7754 135.289 44.7754C133.613 44.7754 132.254 46.2045 132.254 47.9673C132.254 49.7302 133.613 51.1593 135.289 51.1593Z" fill="white"/>
<path d="M131.495 36.5954C130.858 36.5954 130.234 36.3965 129.704 36.0238C129.173 35.6511 128.76 35.1215 128.516 34.5018C128.272 33.8821 128.208 33.2002 128.332 32.5423C128.457 31.8844 128.764 31.2801 129.215 30.8058C129.666 30.3315 130.241 30.0085 130.866 29.8777C131.492 29.7468 132.14 29.814 132.73 30.0707C133.319 30.3273 133.822 30.762 134.177 31.3198C134.531 31.8775 134.72 32.5332 134.72 33.2039C134.719 34.1031 134.379 34.9651 133.775 35.6009C133.17 36.2367 132.35 36.5944 131.495 36.5954ZM131.495 30.2115C130.933 30.2115 130.382 30.387 129.915 30.7158C129.447 31.0446 129.082 31.512 128.867 32.0588C128.651 32.6056 128.595 33.2073 128.705 33.7877C128.814 34.3682 129.085 34.9014 129.483 35.3199C129.881 35.7384 130.388 36.0234 130.94 36.1389C131.492 36.2543 132.064 36.1951 132.584 35.9686C133.104 35.7421 133.549 35.3585 133.861 34.8664C134.174 34.3743 134.341 33.7958 134.341 33.2039C134.34 32.4106 134.04 31.6499 133.507 31.0889C132.973 30.5279 132.25 30.2124 131.495 30.2115Z" fill="white"/>
<path d="M97.5389 36.5954C96.901 36.5954 96.2775 36.3965 95.7472 36.0238C95.2169 35.6511 94.8035 35.1215 94.5594 34.5018C94.3154 33.8821 94.2515 33.2002 94.3759 32.5423C94.5004 31.8844 94.8075 31.2801 95.2585 30.8058C95.7095 30.3315 96.2842 30.0085 96.9097 29.8777C97.5353 29.7468 98.1837 29.814 98.773 30.0707C99.3623 30.3273 99.8659 30.762 100.22 31.3198C100.575 31.8775 100.764 32.5332 100.764 33.2039C100.763 34.1031 100.423 34.9651 99.8182 35.6009C99.2136 36.2367 98.3939 36.5944 97.5389 36.5954ZM97.5389 30.2115C96.9761 30.2115 96.4259 30.387 95.958 30.7158C95.4901 31.0446 95.1253 31.512 94.91 32.0588C94.6946 32.6056 94.6382 33.2073 94.748 33.7877C94.8578 34.3682 95.1288 34.9014 95.5268 35.3199C95.9248 35.7384 96.4318 36.0234 96.9837 36.1389C97.5357 36.2543 98.1079 36.1951 98.6278 35.9686C99.1478 35.7421 99.5922 35.3585 99.9048 34.8664C100.217 34.3743 100.384 33.7958 100.384 33.2039C100.384 32.4106 100.083 31.6499 99.55 31.0889C99.0166 30.5279 98.2933 30.2124 97.5389 30.2115Z" fill="white"/>
<path d="M148.189 78.4899C147.551 78.4899 146.927 78.291 146.397 77.9183C145.867 77.5457 145.453 77.016 145.209 76.3963C144.965 75.7766 144.901 75.0947 145.026 74.4368C145.15 73.779 145.457 73.1747 145.908 72.7004C146.359 72.2261 146.934 71.9031 147.56 71.7722C148.185 71.6413 148.834 71.7085 149.423 71.9652C150.012 72.2219 150.516 72.6566 150.87 73.2143C151.225 73.772 151.414 74.4277 151.414 75.0985C151.413 75.9976 151.073 76.8597 150.468 77.4955C149.863 78.1313 149.044 78.4889 148.189 78.4899ZM148.189 72.106C147.626 72.106 147.076 72.2815 146.608 72.6103C146.14 72.9392 145.775 73.4065 145.56 73.9533C145.345 74.5001 145.288 75.1018 145.398 75.6823C145.508 76.2627 145.779 76.7959 146.177 77.2144C146.575 77.6329 147.082 77.9179 147.634 78.0334C148.186 78.1489 148.758 78.0896 149.278 77.8631C149.798 77.6366 150.242 77.2531 150.555 76.761C150.867 76.2689 151.034 75.6903 151.034 75.0985C151.033 74.3051 150.733 73.5445 150.2 72.9835C149.666 72.4225 148.943 72.1069 148.189 72.106Z" fill="white"/>
<path d="M148.189 101.632C149.865 101.632 151.224 100.203 151.224 98.44C151.224 96.6771 149.865 95.248 148.189 95.248C146.512 95.248 145.153 96.6771 145.153 98.44C145.153 100.203 146.512 101.632 148.189 101.632Z" fill="white"/>
<path d="M97.5389 101.83C96.901 101.83 96.2775 101.631 95.7472 101.258C95.2169 100.886 94.8035 100.356 94.5594 99.7361C94.3154 99.1164 94.2515 98.4345 94.3759 97.7767C94.5004 97.1188 94.8075 96.5145 95.2585 96.0402C95.7095 95.5659 96.2842 95.2429 96.9097 95.112C97.5353 94.9812 98.1837 95.0483 98.773 95.305C99.3623 95.5617 99.8659 95.9964 100.22 96.5541C100.575 97.1118 100.764 97.7675 100.764 98.4383C100.763 99.3375 100.423 100.199 99.8182 100.835C99.2136 101.471 98.3939 101.829 97.5389 101.83ZM97.5389 95.4459C96.9761 95.4459 96.4259 95.6214 95.958 95.9502C95.4901 96.279 95.1253 96.7464 94.91 97.2932C94.6946 97.8399 94.6382 98.4416 94.748 99.0221C94.8578 99.6026 95.1288 100.136 95.5268 100.554C95.9248 100.973 96.4318 101.258 96.9837 101.373C97.5357 101.489 98.1079 101.429 98.6278 101.203C99.1478 100.976 99.5922 100.593 99.9048 100.101C100.217 99.6087 100.384 99.0302 100.384 98.4383C100.384 97.6449 100.083 96.8843 99.55 96.3233C99.0166 95.7623 98.2933 95.4467 97.5389 95.4459Z" fill="white"/>
<path d="M135.099 76.4938C134.462 76.4938 133.838 76.2949 133.308 75.9222C132.777 75.5496 132.364 75.0199 132.12 74.4002C131.876 73.7805 131.812 73.0986 131.936 72.4407C132.061 71.7829 132.368 71.1786 132.819 70.7043C133.27 70.23 133.845 69.907 134.47 69.7761C135.096 69.6452 135.744 69.7124 136.334 69.9691C136.923 70.2258 137.426 70.6605 137.781 71.2182C138.135 71.7759 138.324 72.4316 138.324 73.1024C138.323 74.0015 137.983 74.8636 137.379 75.4994C136.774 76.1352 135.954 76.4928 135.099 76.4938ZM135.099 70.1099C134.537 70.1099 133.986 70.2854 133.519 70.6143C133.051 70.9431 132.686 71.4104 132.471 71.9572C132.255 72.504 132.199 73.1057 132.309 73.6862C132.418 74.2666 132.689 74.7998 133.087 75.2183C133.485 75.6368 133.992 75.9218 134.544 76.0373C135.096 76.1528 135.668 76.0935 136.188 75.867C136.708 75.6405 137.153 75.257 137.465 74.7649C137.778 74.2728 137.945 73.6942 137.945 73.1024C137.944 72.309 137.644 71.5484 137.111 70.9874C136.577 70.4264 135.854 70.1108 135.099 70.1099Z" fill="white"/>
<path d="M46.8887 68.3164C46.1383 68.3164 45.4048 68.5504 44.7809 68.9888C44.157 69.4272 43.6707 70.0504 43.3835 70.7795C43.0964 71.5085 43.0212 72.3107 43.1676 73.0847C43.314 73.8587 43.6754 74.5696 44.206 75.1276C44.7366 75.6856 45.4126 76.0656 46.1486 76.2196C46.8845 76.3735 47.6474 76.2945 48.3406 75.9925C49.0339 75.6905 49.6264 75.1791 50.0433 74.523C50.4602 73.8669 50.6827 73.0955 50.6827 72.3063C50.6798 71.2491 50.2791 70.236 49.5683 69.4884C48.8574 68.7409 47.8941 68.3195 46.8887 68.3164ZM46.8887 69.5134C47.1138 69.5134 47.3339 69.5836 47.5211 69.7151C47.7083 69.8466 47.8541 70.0336 47.9403 70.2523C48.0264 70.471 48.049 70.7117 48.0051 70.9439C47.9611 71.1761 47.8527 71.3893 47.6936 71.5567C47.5344 71.7241 47.3316 71.8381 47.1108 71.8843C46.89 71.9305 46.6611 71.9068 46.4532 71.8162C46.2452 71.7256 46.0674 71.5722 45.9424 71.3754C45.8173 71.1785 45.7505 70.9471 45.7505 70.7104C45.7515 70.3932 45.8718 70.0894 46.085 69.8651C46.2983 69.6409 46.5872 69.5144 46.8887 69.5134ZM46.8887 75.2757C46.4391 75.2736 45.9968 75.1561 45.6001 74.9335C45.2034 74.7108 44.8643 74.3898 44.6123 73.9982C44.6306 73.2002 46.1299 72.7609 46.8887 72.7609C47.6475 72.7609 49.1469 73.2002 49.1651 73.9982C48.9128 74.3895 48.5737 74.7103 48.1771 74.9329C47.7805 75.1555 47.3383 75.2732 46.8887 75.2757Z" fill="white"/>
<path d="M59.9781 13.8535C59.2277 13.8535 58.4942 14.0875 57.8703 14.5259C57.2463 14.9644 56.76 15.5875 56.4729 16.3166C56.1857 17.0456 56.1106 17.8479 56.257 18.6218C56.4034 19.3958 56.7647 20.1067 57.2953 20.6647C57.8259 21.2227 58.502 21.6027 59.2379 21.7567C59.9739 21.9106 60.7367 21.8316 61.43 21.5296C62.1233 21.2276 62.7158 20.7162 63.1327 20.0601C63.5496 19.404 63.7721 18.6326 63.7721 17.8434C63.7692 16.7862 63.3685 15.7731 62.6576 15.0256C61.9467 14.278 60.9834 13.8566 59.9781 13.8535ZM59.9781 15.0505C60.2032 15.0505 60.4233 15.1207 60.6104 15.2522C60.7976 15.3837 60.9435 15.5707 61.0296 15.7894C61.1158 16.0081 61.1383 16.2488 61.0944 16.481C61.0505 16.7132 60.9421 16.9265 60.7829 17.0939C60.6237 17.2613 60.4209 17.3753 60.2001 17.4214C59.9793 17.4676 59.7505 17.4439 59.5425 17.3533C59.3345 17.2627 59.1568 17.1093 59.0317 16.9125C58.9066 16.7156 58.8399 16.4842 58.8399 16.2475C58.8409 15.9303 58.9611 15.6265 59.1744 15.4022C59.3876 15.178 59.6765 15.0515 59.9781 15.0505ZM59.9781 20.8129C59.5285 20.8107 59.0861 20.6932 58.6894 20.4706C58.2927 20.248 57.9537 19.9269 57.7017 19.5353C57.7199 18.7373 59.2193 18.2981 59.9781 18.2981C60.7369 18.2981 62.2363 18.7373 62.2545 19.5353C62.0022 19.9266 61.6631 20.2474 61.2665 20.47C60.8698 20.6926 60.4276 20.8103 59.9781 20.8129Z" fill="white"/>
<path d="M131.495 0.0878906C130.745 0.0878906 130.011 0.321896 129.387 0.760314C128.763 1.19873 128.277 1.82187 127.99 2.55093C127.703 3.28 127.628 4.08223 127.774 4.8562C127.92 5.63017 128.282 6.3411 128.812 6.8991C129.343 7.4571 130.019 7.83711 130.755 7.99106C131.491 8.14501 132.254 8.066 132.947 7.76401C133.64 7.46202 134.233 6.95062 134.65 6.29449C135.067 5.63835 135.289 4.86694 135.289 4.07781C135.286 3.02057 134.886 2.00751 134.175 1.25993C133.464 0.512344 132.501 0.0909853 131.495 0.0878906ZM131.495 1.28487C131.72 1.28487 131.94 1.35507 132.128 1.48659C132.315 1.61812 132.461 1.80506 132.547 2.02378C132.633 2.2425 132.655 2.48317 132.612 2.71536C132.568 2.94755 132.459 3.16083 132.3 3.32823C132.141 3.49563 131.938 3.60963 131.717 3.65582C131.496 3.702 131.268 3.6783 131.06 3.5877C130.852 3.49711 130.674 3.34369 130.549 3.14685C130.424 2.95 130.357 2.71858 130.357 2.48184C130.358 2.16471 130.478 1.86087 130.691 1.63662C130.905 1.41237 131.194 1.28592 131.495 1.28487ZM131.495 7.04723C131.046 7.04507 130.603 6.92758 130.207 6.70496C129.81 6.48234 129.471 6.1613 129.219 5.76969C129.237 4.9717 130.736 4.53243 131.495 4.53243C132.254 4.53243 133.753 4.9717 133.772 5.76969C133.519 6.161 133.18 6.48181 132.784 6.7044C132.387 6.92699 131.945 7.04466 131.495 7.04723Z" fill="white"/>
<path d="M175.126 43.7773C174.376 43.7773 173.642 44.0113 173.018 44.4498C172.394 44.8882 171.908 45.5113 171.621 46.2404C171.334 46.9695 171.259 47.7717 171.405 48.5457C171.551 49.3196 171.913 50.0306 172.443 50.5886C172.974 51.1466 173.65 51.5266 174.386 51.6805C175.122 51.8345 175.885 51.7555 176.578 51.4535C177.271 51.1515 177.864 50.6401 178.281 49.9839C178.698 49.3278 178.92 48.5564 178.92 47.7673C178.917 46.71 178.516 45.697 177.806 44.9494C177.095 44.2018 176.131 43.7804 175.126 43.7773ZM175.126 44.9743C175.351 44.9743 175.571 45.0445 175.758 45.176C175.946 45.3076 176.091 45.4945 176.178 45.7132C176.264 45.9319 176.286 46.1726 176.242 46.4048C176.198 46.637 176.09 46.8503 175.931 47.0177C175.772 47.1851 175.569 47.2991 175.348 47.3453C175.127 47.3915 174.898 47.3678 174.69 47.2772C174.482 47.1866 174.305 47.0331 174.18 46.8363C174.055 46.6395 173.988 46.408 173.988 46.1713C173.989 45.8542 174.109 45.5503 174.322 45.3261C174.536 45.1018 174.824 44.9754 175.126 44.9743ZM175.126 50.7367C174.676 50.7345 174.234 50.617 173.837 50.3944C173.441 50.1718 173.102 49.8507 172.85 49.4591C172.868 48.6612 174.367 48.2219 175.126 48.2219C175.885 48.2219 177.384 48.6612 177.402 49.4591C177.15 49.8505 176.811 50.1713 176.414 50.3939C176.018 50.6164 175.576 50.7341 175.126 50.7367Z" fill="white"/>
<path d="M182.335 70.709C181.585 70.709 180.851 70.943 180.227 71.3814C179.603 71.8198 179.117 72.443 178.83 73.172C178.543 73.9011 178.468 74.7033 178.614 75.4773C178.76 76.2513 179.122 76.9622 179.652 77.5202C180.183 78.0782 180.859 78.4582 181.595 78.6122C182.331 78.7661 183.094 78.6871 183.787 78.3851C184.48 78.0831 185.073 77.5717 185.49 76.9156C185.907 76.2594 186.129 75.488 186.129 74.6989C186.126 73.6417 185.725 72.6286 185.015 71.881C184.304 71.1334 183.34 70.7121 182.335 70.709ZM182.335 71.906C182.56 71.906 182.78 71.9762 182.967 72.1077C183.155 72.2392 183.3 72.4262 183.387 72.6449C183.473 72.8636 183.495 73.1043 183.451 73.3365C183.407 73.5686 183.299 73.7819 183.14 73.9493C182.981 74.1167 182.778 74.2307 182.557 74.2769C182.336 74.3231 182.107 74.2994 181.899 74.2088C181.691 74.1182 181.514 73.9648 181.389 73.7679C181.264 73.5711 181.197 73.3397 181.197 73.1029C181.198 72.7858 181.318 72.482 181.531 72.2577C181.745 72.0335 182.033 71.907 182.335 71.906ZM182.335 77.6683C181.885 77.6662 181.443 77.5487 181.046 77.3261C180.65 77.1034 180.311 76.7824 180.059 76.3908C180.077 75.5928 181.576 75.1535 182.335 75.1535C183.094 75.1535 184.593 75.5928 184.611 76.3908C184.359 76.7821 184.02 77.1029 183.623 77.3255C183.227 77.5481 182.785 77.6657 182.335 77.6683Z" fill="white"/>
<path d="M97.7813 70.6426L97.3926 72.2814C97.8333 72.3969 99.1915 72.8682 99.4116 71.9407C99.6409 70.9737 98.222 70.7581 97.7813 70.6426Z" fill="white"/>
<path d="M97.1968 73.1094L96.7681 74.9164C97.2971 75.0547 98.9291 75.6057 99.1704 74.5862C99.4225 73.5233 97.7259 73.2482 97.1968 73.1094Z" fill="white"/>
<path d="M99.5382 65.7652C98.1733 65.4073 96.7381 65.4831 95.4142 65.9829C94.0902 66.4828 92.9369 67.3843 92.1002 68.5734C91.2634 69.7626 90.7808 71.186 90.7133 72.6636C90.6458 74.1412 90.9964 75.6067 91.7209 76.8747C92.4453 78.1428 93.5111 79.1564 94.7833 79.7875C96.0556 80.4186 97.4772 80.6387 98.8685 80.4201C100.26 80.2015 101.558 79.554 102.599 78.5594C103.641 77.5648 104.378 76.2678 104.718 74.8325C104.945 73.8794 104.99 72.8888 104.852 71.9172C104.714 70.9457 104.396 70.0123 103.914 69.1702C103.433 68.3282 102.799 67.5941 102.048 67.0099C101.298 66.4256 100.445 66.0027 99.5382 65.7652ZM100.954 71.9569C100.851 72.6857 100.467 73.0386 99.957 73.1621C100.657 73.5453 101.014 74.1334 100.674 75.1528C100.253 76.4186 99.2519 76.5256 97.9212 76.2606L97.5981 77.622L96.8175 77.4175L97.1362 76.0743C96.9283 76.0201 96.7209 75.9636 96.5142 75.9047L96.1943 77.2541L95.4146 77.0494L95.7377 75.6857C95.5554 75.6366 95.3703 75.5843 95.1813 75.5347L94.1657 75.2681L94.553 74.3287C94.553 74.3287 95.1282 74.4897 95.1204 74.4777C95.1561 74.4898 95.1936 74.4943 95.231 74.491C95.2683 74.4877 95.3046 74.4766 95.3378 74.4585C95.3711 74.4403 95.4006 74.4155 95.4246 74.3853C95.4487 74.3551 95.4668 74.3202 95.478 74.2826L95.9885 72.1307C96.0171 72.1381 96.045 72.1452 96.0708 72.1522C96.0444 72.1413 96.0173 72.1322 95.9898 72.1249L96.3539 70.5886C96.3647 70.4748 96.3327 70.3611 96.2647 70.2719C96.1967 70.1826 96.0981 70.125 95.9902 70.1114C96.0025 70.1026 95.4234 69.9632 95.4234 69.9632L95.6311 69.0864L96.7076 69.3691L96.7067 69.3732C96.8685 69.4155 97.0353 69.4556 97.2052 69.4963L97.5251 68.1483L98.3051 68.3528L97.9917 69.6745C98.2012 69.7248 98.4119 69.7754 98.6172 69.8291L98.9285 68.5162L99.7089 68.7207L99.3892 70.0693C100.375 70.4262 101.095 70.9612 100.954 71.9569Z" fill="white"/>
<path d="M28.9633 146.377C28.4235 151.539 0.0860144 151.106 0.128955 146.377C0.668725 141.215 29.0062 141.648 28.9633 146.377Z" fill="#E6E6E6"/>
<path d="M19.811 133.382L20.9599 135.999L23.0657 135.798L24.406 131.167L22.2999 129.959L19.811 133.382Z" fill="#FFB8B8"/>
<path d="M12.5815 139.41L12.5361 141.234L15.7908 141.435V139.221L12.5815 139.41Z" fill="#FFB8B8"/>
<path d="M13.6848 106.202L14.4506 122.309L12.5361 139.825L18.2797 140.631L21.9174 118.483L23.066 103.383L13.6848 106.202Z" fill="#2F2E41"/>
<path d="M4.68641 100.362C4.68641 100.362 2.38897 116.268 7.17532 121.503C11.9617 126.738 18.4711 136 18.4711 136L23.066 129.959L11.3873 116.872L13.6847 108.013L23.066 103.382L21.5344 92.3088L7.74968 92.1074L4.68641 100.362Z" fill="#2F2E41"/>
<path d="M15.982 63.5172C18.3082 63.5172 20.194 61.534 20.194 59.0877C20.194 56.6413 18.3082 54.6582 15.982 54.6582C13.6558 54.6582 11.77 56.6413 11.77 59.0877C11.77 61.534 13.6558 63.5172 15.982 63.5172Z" fill="#FFB8B8"/>
<path d="M12.3445 60.0938C12.3445 60.0938 12.153 66.3353 11.1957 67.1407C10.2385 67.946 14.6419 71.3688 14.6419 71.3688L17.5137 66.5366V62.1071L12.3445 60.0938Z" fill="#FFB8B8"/>
<path d="M14.2592 68.5504L11.9348 64.8594L10.6215 66.7384L8.70703 72.376L10.2387 94.3219L19.2369 94.5232L20.3857 69.3558L17.5139 65.7318L14.2592 68.5504Z" fill="#D0CDE1"/>
<path d="M24.0229 69.9591L25.5546 69.7578C25.5546 69.7578 25.9375 69.9591 26.1289 71.3685C26.3204 72.7779 28.6178 85.261 28.6178 85.261L25.5546 100.563L22.1084 95.7307L24.2144 87.2744L22.1084 78.8181L24.0229 69.9591Z" fill="#2F2E41"/>
<path d="M4.49512 69.7578H3.34629L0.474609 86.0664L3.15489 98.7509L5.83516 94.12L5.06934 89.0866L5.45235 84.6572L6.79258 82.0396L4.49512 69.7578Z" fill="#2F2E41"/>
<path d="M21.5345 135.194C21.5345 135.194 20.3857 134.791 20.3857 135.597C20.3857 136.402 21.1516 138.818 21.1516 138.818C21.1516 138.818 20.0028 146.268 21.7259 145.865C23.449 145.462 24.7892 142.04 24.9806 141.033C25.1721 140.026 26.1294 134.791 26.1294 134.791C26.1294 134.791 27.661 130.966 26.7037 130.765C25.7464 130.563 23.0661 129.758 23.0661 129.758C23.0661 129.758 24.5977 134.791 21.5345 135.194Z" fill="#2F2E41"/>
<path d="M15.9822 141.435C15.9822 141.435 12.9189 139.422 12.3446 141.033C11.9636 142.208 11.7068 143.423 11.5787 144.657C11.5787 144.657 10.8129 147.274 13.8762 146.872C16.9395 146.469 16.5565 146.469 16.748 145.261C16.9395 144.053 15.9822 141.435 15.9822 141.435Z" fill="#2F2E41"/>
<path d="M13.4931 59.0875L14.2589 58.8861C14.2589 58.8861 14.8333 55.4633 16.1735 55.866C17.5137 56.2687 20.9598 56.6714 20.9598 55.0607C20.9598 53.4499 17.7051 52.0405 15.7906 52.2419C13.876 52.4432 10.6213 53.0473 10.8128 56.0673C11.0042 59.0874 12.2396 62.0254 12.2396 62.0254L12.3394 60.2348L13.4931 59.0875Z" fill="#2F2E41"/>
<path d="M17.5135 70.9672L14.2588 68.5511L17.5135 65.7324L18.6435 67.1582L17.5135 70.9672Z" fill="#D0CDE1"/>
<path d="M11.3869 70.7646L14.2588 68.5498L11.9613 64.9258L10.6211 66.7378L11.3869 70.7646Z" fill="#D0CDE1"/>
<path d="M25.3631 69.7585L19.2366 67.1411L17.8007 66.0337L13.493 86.067L10.6212 77.0067L11.4827 65.4297L3.53736 69.7585L6.21773 83.4496L6.60064 88.6845L5.45191 92.9126C5.45191 92.9126 1.43137 95.9327 2.77155 99.1541C4.11173 102.376 5.64336 102.577 5.64336 102.577C5.64336 102.577 12.1528 96.134 12.5357 94.5233C12.9186 92.9126 13.493 90.0938 13.493 90.0938C13.493 90.0938 16.7477 102.98 20.5768 102.778C24.4058 102.577 24.4058 98.3488 24.4058 98.3488L23.4486 93.9193L21.9169 89.2885L22.6828 81.6376L25.3631 69.7585Z" fill="#2F2E41"/>
</svg>
