<svg width="184" height="142" viewBox="0 0 184 142" fill="none" xmlns="http://www.w3.org/2000/svg">
<path d="M55.9331 100.412C55.1139 100.413 54.3285 100.769 53.7493 101.403C53.17 102.036 52.8442 102.895 52.8433 103.791V111.697C52.8442 112.593 53.17 113.452 53.7493 114.085C54.3285 114.719 55.1139 115.075 55.9331 115.076H59.8522C60.6714 115.075 61.4568 114.719 62.036 114.085C62.6153 113.452 62.9411 112.593 62.942 111.697V103.791C62.9411 102.895 62.6153 102.036 62.036 101.403C61.4568 100.769 60.6714 100.413 59.8522 100.412H55.9331Z" fill="#3F3D56"/>
<path d="M128.38 115.338H124.461C123.578 115.337 122.731 114.953 122.107 114.27C121.483 113.588 121.131 112.662 121.13 111.696V103.791C121.131 102.825 121.483 101.899 122.107 101.216C122.731 100.534 123.578 100.15 124.461 100.148H128.38C129.263 100.15 130.109 100.534 130.733 101.216C131.358 101.899 131.709 102.825 131.71 103.791V111.696C131.709 112.662 131.358 113.588 130.733 114.27C130.109 114.953 129.263 115.337 128.38 115.338Z" fill="#3F3D56"/>
<path d="M125.779 109.009H58.2931C55.2218 109.009 52.7231 107.029 52.7231 104.595V90.4029L56.0728 86.5449H128.651L131.349 90.411V104.595C131.349 107.029 128.85 109.009 125.779 109.009Z" fill="#CCCCCC"/>
<path d="M128.336 93.6451H56.4575L55.7271 81.3959L56.1919 80.1425L58.8937 72.8711H125.413L129.066 81.1282L128.336 93.6451Z" fill="#CCCCCC"/>
<path d="M128.945 81.1538L128.408 90.3573H112.594V83.5203L128.495 80.1387L128.945 81.1538Z" fill="#A18671"/>
<path d="M71.9593 83.5204V90.3575H56.383L55.8491 81.4167L56.3037 80.1914L71.9593 83.5204Z" fill="#A18671"/>
<path d="M125.012 74.9744H59.2939L66.3033 49.4222C66.5892 48.3669 67.1779 47.4402 67.9825 46.779C68.787 46.1178 69.7648 45.7572 70.7712 45.7505L114.294 45.2971C115.346 45.286 116.371 45.66 117.205 46.3597C118.04 47.0593 118.637 48.0444 118.9 49.1578L125.012 74.9744Z" fill="#CCCCCC"/>
<path d="M119.953 72.5588L64.3425 71.8377C64.2722 71.8368 64.203 71.8178 64.1406 71.7824C64.0782 71.7469 64.0243 71.6959 63.9832 71.6336C63.9421 71.5712 63.915 71.4991 63.904 71.4232C63.893 71.3472 63.8984 71.2695 63.9199 71.1963L69.251 53.0055C69.2801 52.9063 69.3372 52.8199 69.4141 52.7585C69.491 52.6971 69.5838 52.6641 69.679 52.6641H114.408C114.503 52.6641 114.596 52.6971 114.673 52.7584C114.75 52.8198 114.807 52.9062 114.836 53.0053L120.386 71.9172C120.408 71.9914 120.414 72.0702 120.402 72.1471C120.39 72.2239 120.362 72.2967 120.32 72.3593C120.278 72.422 120.222 72.4728 120.159 72.5075C120.095 72.5421 120.024 72.5598 119.953 72.5588Z" fill="#A18671"/>
<path d="M99.648 48.415H84.6589C84.5325 48.415 84.418 48.279 84.3599 48.0599C84.3019 47.8357 84.3103 47.5971 84.3837 47.3784L85.6198 43.9599C85.6828 43.7856 85.7857 43.6816 85.8949 43.6816H98.412C98.5212 43.6816 98.6241 43.7856 98.6871 43.9599L99.9231 47.3784C99.9966 47.5971 100.005 47.8357 99.947 48.0599C99.8889 48.279 99.7743 48.415 99.648 48.415Z" fill="white"/>
<path d="M59.3354 74.4487H49.4771V72.079C49.4778 71.3129 49.7565 70.5784 50.2518 70.0367C50.7471 69.495 51.4187 69.1903 52.1192 69.1895H59.3354V74.4487Z" fill="#CCCCCC"/>
<path d="M134.836 74.4487H124.978V69.1895H132.194C132.894 69.1903 133.566 69.495 134.061 70.0367C134.556 70.5784 134.835 71.3129 134.836 72.079V74.4487Z" fill="#CCCCCC"/>
<path d="M48.3238 111.39L0.12915 130.324L0.33374 130.947L48.5284 112.013L48.3238 111.39Z" fill="#3F3D56"/>
<path d="M135.685 111.391L135.48 112.014L183.677 130.943L183.881 130.32L135.685 111.391Z" fill="#3F3D56"/>
<path d="M94.8345 125.12H91.9497V121.045H94.8345V125.12ZM94.8345 116.969H91.9497V112.895H94.8345V116.969Z" fill="#E6E6E6"/>
<path d="M94.8345 142H91.9497V137.926H94.8345V142ZM94.8345 133.85H91.9497V129.775H94.8345V133.85Z" fill="#E6E6E6"/>
<path d="M92.0697 31.8001C99.9739 31.8001 106.382 24.7925 106.382 16.1481C106.382 7.50374 99.9739 0.496094 92.0697 0.496094C84.1654 0.496094 77.7578 7.50374 77.7578 16.1481C77.7578 24.7925 84.1654 31.8001 92.0697 31.8001Z" fill="#F4B442"/>
</svg>
