<svg width="53" height="56" viewBox="0 0 53 56" fill="none" xmlns="http://www.w3.org/2000/svg">
<path d="M7.57143 3.5C3.39531 3.5 0 6.63906 0 10.5V45.5C0 49.3609 3.39531 52.5 7.57143 52.5H45.4286C49.6047 52.5 53 49.3609 53 45.5V10.5C53 6.63906 49.6047 3.5 45.4286 3.5H7.57143ZM42.7194 12.6875L30.4395 25.6594L44.8844 43.3125H33.5746L24.7254 32.6047L14.5868 43.3125H8.96741L22.0991 29.4328L8.24576 12.6875H19.8395L27.8487 22.4766L37.1 12.6875H42.7194ZM38.2475 40.2062L18.1478 15.6297H14.7998L35.1243 40.2062H38.2357H38.2475Z" fill="#404040"/>
</svg>
