<svg width="53" height="53" viewBox="0 0 53 53" fill="none" xmlns="http://www.w3.org/2000/svg">
<g clip-path="url(#clip0_808_2123)">
<path d="M26.5 0C28.9326 0 31.279 0.310547 33.5391 0.931641C35.7992 1.55273 37.9126 2.44124 39.8794 3.59717C41.8462 4.75309 43.6318 6.1333 45.2363 7.73779C46.8408 9.34229 48.221 11.1366 49.377 13.1206C50.5329 15.1047 51.4214 17.2181 52.0425 19.4609C52.6636 21.7038 52.9827 24.0501 53 26.5C53 28.9326 52.6895 31.279 52.0684 33.5391C51.4473 35.7992 50.5588 37.9126 49.4028 39.8794C48.2469 41.8462 46.8667 43.6318 45.2622 45.2363C43.6577 46.8408 41.8634 48.221 39.8794 49.377C37.8953 50.5329 35.7819 51.4214 33.5391 52.0425C31.2962 52.6636 28.9499 52.9827 26.5 53C24.0674 53 21.721 52.6895 19.4609 52.0684C17.2008 51.4473 15.0874 50.5588 13.1206 49.4028C11.1538 48.2469 9.36816 46.8667 7.76367 45.2622C6.15918 43.6577 4.77897 41.8634 3.62305 39.8794C2.46712 37.8953 1.57861 35.7905 0.95752 33.5649C0.336426 31.3394 0.0172526 28.9844 0 26.5C0 24.0674 0.310547 21.721 0.931641 19.4609C1.55273 17.2008 2.44124 15.0874 3.59717 13.1206C4.75309 11.1538 6.1333 9.36816 7.73779 7.76367C9.34229 6.15918 11.1366 4.77897 13.1206 3.62305C15.1047 2.46712 17.2095 1.57861 19.4351 0.95752C21.6606 0.336426 24.0156 0.0172526 26.5 0ZM26.5 49.6875C28.6221 49.6875 30.6665 49.4115 32.6333 48.8594C34.6001 48.3073 36.4461 47.5309 38.1714 46.5303C39.8966 45.5296 41.4666 44.3133 42.8813 42.8813C44.2961 41.4494 45.5037 39.888 46.5044 38.1973C47.505 36.5065 48.29 34.6605 48.8594 32.6592C49.4287 30.6579 49.7048 28.6048 49.6875 26.5C49.6875 24.3779 49.4115 22.3335 48.8594 20.3667C48.3073 18.3999 47.5309 16.5539 46.5303 14.8286C45.5296 13.1034 44.3133 11.5334 42.8813 10.1187C41.4494 8.70394 39.888 7.49626 38.1973 6.49561C36.5065 5.49495 34.6605 4.70996 32.6592 4.14062C30.6579 3.57129 28.6048 3.29525 26.5 3.3125C24.3779 3.3125 22.3335 3.58854 20.3667 4.14062C18.3999 4.69271 16.5539 5.46908 14.8286 6.46973C13.1034 7.47038 11.5334 8.68669 10.1187 10.1187C8.70394 11.5506 7.49626 13.112 6.49561 14.8027C5.49495 16.4935 4.70996 18.3395 4.14062 20.3408C3.57129 22.3421 3.29525 24.3952 3.3125 26.5C3.3125 28.6221 3.58854 30.6665 4.14062 32.6333C4.69271 34.6001 5.46908 36.4461 6.46973 38.1714C7.47038 39.8966 8.68669 41.4666 10.1187 42.8813C11.5506 44.2961 13.112 45.5037 14.8027 46.5044C16.4935 47.505 18.3395 48.29 20.3408 48.8594C22.3421 49.4287 24.3952 49.7048 26.5 49.6875ZM41.9497 26.9141L43.1919 23.1875H45.1328L42.9331 29.8125H40.9922L39.75 26.0859L38.5078 29.8125H36.5669L34.3672 23.1875H36.3081L37.5503 26.9141L38.7925 23.1875H40.7075L41.9497 26.9141ZM29.9419 23.1875H31.8828L29.6831 29.8125H27.7422L26.5 26.0859L25.2578 29.8125H23.3169L21.1172 23.1875H23.0581L24.3003 26.9141L25.5425 23.1875H27.4575L28.6997 26.9141L29.9419 23.1875ZM16.6919 23.1875H18.6328L16.4331 29.8125H14.4922L13.25 26.0859L12.0078 29.8125H10.0669L7.86719 23.1875H9.80811L11.0503 26.9141L12.2925 23.1875H14.2075L15.4497 26.9141L16.6919 23.1875Z" fill="#404040"/>
</g>
<defs>
<clipPath id="clip0_808_2123">
<rect width="53" height="53" fill="white"/>
</clipPath>
</defs>
</svg>
