<svg width="141" height="53" viewBox="0 0 141 53" fill="none" xmlns="http://www.w3.org/2000/svg">
<path d="M80.2856 16.9379H70.7251V14.0396H81.6406L80.2856 16.9379ZM70.7251 30.2812V19.121H79.1941L77.8014 22.0381H73.8868V30.3189L70.7251 30.2812Z" fill="#2A2424"/>
<path d="M85.9503 30.093C85.3518 30.1582 84.7463 30.0871 84.1792 29.885C83.6121 29.683 83.098 29.3552 82.6756 28.9262C82.0206 27.9243 81.7223 26.7309 81.8287 25.5386V18.1048H85.0281V25.5386C84.9618 25.7709 84.9587 26.0168 85.0194 26.2507C85.08 26.4845 85.2021 26.6979 85.3729 26.8688C85.5437 27.0396 85.7572 27.1617 85.991 27.2223C86.2249 27.2829 86.4707 27.2799 86.7031 27.2136H87.6629V18.1048H90.8622V30.093H85.9503Z" fill="#2A2424"/>
<path d="M92.4429 30.093V18.1048H95.6234V27.2136H99.3874V30.093H92.4429Z" fill="#2A2424"/>
<path d="M106.822 20.9842C106.404 20.9825 105.991 21.0649 105.606 21.2266C105.221 21.3883 104.873 21.6259 104.582 21.9252C104.283 22.2084 104.045 22.5499 103.883 22.9286C103.721 23.3073 103.639 23.7153 103.641 24.1271C103.643 24.5346 103.73 24.9372 103.895 25.3096C104.06 25.6821 104.3 26.0163 104.601 26.2914C104.891 26.585 105.237 26.8178 105.618 26.9762C106 27.1345 106.409 27.2152 106.822 27.2136V22.6592H110.002V30.1871H106.483C105.689 30.1801 104.904 30.0093 104.179 29.6855C103.454 29.3617 102.803 28.8918 102.267 28.3051C101.679 27.779 101.207 27.1353 100.883 26.4157C100.559 25.696 100.389 24.9164 100.385 24.1271C100.423 22.5419 101.07 21.0322 102.191 19.911C103.313 18.7897 104.822 18.143 106.408 18.1048H109.946V20.9842H106.822Z" fill="#2A2424"/>
<path d="M115.667 30.093C115.069 30.1582 114.463 30.0871 113.896 29.885C113.329 29.683 112.815 29.3552 112.392 28.9262C111.737 27.9243 111.439 26.7309 111.546 25.5386V18.1048H114.745V25.5386C114.679 25.7709 114.676 26.0168 114.736 26.2507C114.797 26.4845 114.919 26.6979 115.09 26.8688C115.261 27.0396 115.474 27.1617 115.708 27.2223C115.942 27.2829 116.188 27.2799 116.42 27.2136H117.304V18.1048H120.504V30.093H115.667Z" fill="#2A2424"/>
<path d="M121.858 22.6592H126.018C126.125 22.6644 126.233 22.6469 126.333 22.608C126.434 22.5691 126.525 22.5096 126.601 22.4333C126.74 22.2598 126.816 22.044 126.816 21.8217C126.816 21.5993 126.74 21.3836 126.601 21.21C126.521 21.1341 126.426 21.0751 126.323 21.0363C126.219 20.9975 126.109 20.9798 125.999 20.9842H121.858V18.1048H126.62C127.129 18.0867 127.636 18.196 128.092 18.4228C128.549 18.6495 128.942 18.9865 129.236 19.4033C129.75 20.1001 130.021 20.9465 130.007 21.8123C130.005 22.218 129.929 22.6199 129.782 22.9979C129.631 23.3645 129.384 23.6833 129.066 23.9201C129.399 24.1541 129.654 24.4816 129.8 24.8611C129.951 25.3161 130.021 25.7937 130.007 26.2726V30.0366H126.827V27.2136C126.892 26.7352 126.771 26.2501 126.488 25.8586C126.093 25.6015 125.621 25.4885 125.152 25.5386H121.858V22.6592Z" fill="#2A2424"/>
<path d="M70.7249 36.8494H73.9996L65.3424 52.9027L56.7041 36.8494H59.9788L65.3424 47.0121L70.7249 36.8494Z" fill="#2A2424"/>
<path d="M81.8476 43.7939H73.6045V40.858H81.8476V43.7939ZM73.6045 45.4688H81.8476V48.3859H76.8039V50.0609H81.8476V52.9027H73.6045V45.4688Z" fill="#2A2424"/>
<path d="M88.5096 40.858C89.1078 40.7969 89.7121 40.87 90.2786 41.0718C90.8451 41.2737 91.3594 41.5992 91.7842 42.0248C92.4352 43.0285 92.7331 44.2205 92.6311 45.4124V52.9027H89.4318V45.4689C89.4981 45.2366 89.5011 44.9907 89.4405 44.7569C89.3798 44.523 89.2578 44.3096 89.0869 44.1387C88.9161 43.9679 88.7027 43.8458 88.4688 43.7852C88.2349 43.7246 87.9891 43.7276 87.7568 43.7939H86.8722V52.9027H83.6729V40.858H88.5096Z" fill="#2A2424"/>
<path d="M93.6851 46.0711V43.1917H101.213V46.0711H93.6851ZM97.449 47.5579V48.386C97.384 48.8644 97.5052 49.3495 97.7878 49.741C98.1819 50.001 98.6549 50.1142 99.124 50.0609H101.269V52.9027H98.3712C97.7876 52.9575 97.1992 52.8812 96.6489 52.6793C96.0986 52.4774 95.6004 52.1551 95.1906 51.7359C94.5108 50.7561 94.1794 49.5765 94.2497 48.386V47.5955L97.449 47.5579ZM97.449 40.9521V43.8315H94.2497V40.9521H97.449Z" fill="#2A2424"/>
<path d="M107.047 52.9027C106.449 52.9679 105.843 52.8968 105.276 52.6947C104.709 52.4926 104.195 52.1648 103.773 51.7359C103.118 50.734 102.819 49.5406 102.926 48.3483V40.858H106.125V48.3859C106.06 48.8644 106.181 49.3495 106.464 49.741C106.858 50.001 107.331 50.1142 107.8 50.0609H108.685V40.858H111.884V52.9027H107.047Z" fill="#2A2424"/>
<path d="M113.239 45.4689H117.398C117.506 45.4752 117.614 45.4584 117.715 45.4194C117.815 45.3805 117.906 45.3203 117.982 45.243C118.136 45.074 118.218 44.8507 118.208 44.622C118.214 44.4027 118.141 44.1887 118.001 44.0197C117.922 43.942 117.827 43.8817 117.724 43.8428C117.62 43.8039 117.509 43.7872 117.398 43.7939H113.239V40.858H118.001C118.51 40.84 119.016 40.9493 119.473 41.176C119.93 41.4027 120.323 41.7397 120.617 42.1566C121.143 42.8687 121.414 43.7369 121.388 44.622C121.387 45.026 121.317 45.4269 121.181 45.8076C121.029 46.1992 120.776 46.5435 120.447 46.8051C120.78 47.0391 121.035 47.3666 121.181 47.7461C121.331 48.201 121.401 48.6786 121.388 49.1576V52.9215H118.208V50.0233C118.273 49.5449 118.152 49.0597 117.869 48.6682C117.475 48.4082 117.002 48.295 116.533 48.3483H113.239V45.4689Z" fill="#2A2424"/>
<path d="M131.231 43.7939H122.988V40.858H131.231V43.7939ZM122.988 45.4688H131.231V48.3859H126.187V50.0609H131.231V52.9027H122.988V45.4688Z" fill="#2A2424"/>
<path d="M136.839 40.858V42.74C136.894 43.3154 137.147 43.8541 137.554 44.2644L138.853 45.6947L139.718 46.6169C140.276 47.2891 140.582 48.134 140.584 49.007C140.623 49.5383 140.555 50.072 140.384 50.5763C140.213 51.0807 139.941 51.5455 139.587 51.9429C139.293 52.2398 138.94 52.4719 138.551 52.6243C138.162 52.7766 137.746 52.8458 137.328 52.8275H132.567V50.0233H136.726C136.821 50.024 136.915 50.0022 137 49.9597C137.085 49.9172 137.159 49.8551 137.215 49.7786C137.362 49.577 137.435 49.3312 137.422 49.0823C137.385 48.8 137.26 48.5366 137.065 48.3295L135.691 46.9368C135.19 46.4072 134.754 45.8196 134.392 45.1866C133.936 44.4905 133.676 43.6843 133.64 42.8529V40.858H136.839Z" fill="#2A2424"/>
<path d="M46.0899 13.7573H56.4785L32.4643 52.9027L16.3921 26.7243H26.7807L32.4267 35.9836L46.0899 13.7573ZM40.1052 13.7573H8.43131L13.3057 21.6993H35.2308L40.1052 13.7573ZM48.0284 0H0L3.16174 5.10019L5.68361 9.20293H42.3447L48.0284 0Z" fill="url(#paint0_linear)"/>
<defs>
<linearGradient id="paint0_linear" x1="0" y1="26.4608" x2="56.4785" y2="26.4608" gradientUnits="userSpaceOnUse">
<stop offset="0.35" stop-color="#FF783C"/>
<stop offset="1" stop-color="#FF4154"/>
</linearGradient>
</defs>
</svg>
