<svg width="653" height="339" viewBox="0 0 653 339" fill="none" xmlns="http://www.w3.org/2000/svg">
<path d="M376.798 114.58C380.638 95.4698 388.578 77.2497 400.378 61.0197C421.928 31.3497 453.748 11.8598 489.958 6.11978C508.998 3.09978 528.018 4.0498 546.488 8.9498C547.468 9.2198 548.428 8.63978 548.678 7.67978C548.928 6.72978 548.368 5.74979 547.408 5.49979C528.438 0.479787 508.928 -0.490176 489.398 2.59982C452.238 8.48982 419.598 28.4898 397.478 58.9298C385.228 75.7898 377.028 94.7298 373.148 114.59H376.798V114.58Z" fill="#FCFBF3"/>
<path d="M625.38 224.49C624.96 225.06 624.549 225.63 624.109 226.21C615.689 237.45 605.809 247.21 594.789 255.31C576.909 268.48 556.01 277.24 533.46 280.83C525.99 282 518.53 282.59 511.13 282.59C481.64 282.59 452.97 273.33 428.64 255.65C428.49 255.54 428.33 255.43 428.18 255.31C416.8 246.98 406.91 237.18 398.69 226.21C394.7 220.91 391.1 215.34 387.95 209.55C386.82 207.54 385.77 205.5 384.77 203.44H388.76C389.8 205.51 390.889 207.54 392.039 209.55C395.329 215.36 399.06 220.94 403.2 226.21C410.99 236.18 420.22 245.13 430.76 252.78C431.97 253.65 433.17 254.5 434.39 255.31C463.35 275 498.149 282.79 532.919 277.3C553.209 274.09 572.13 266.54 588.62 255.31C600.27 247.38 610.72 237.61 619.59 226.21C620.58 224.96 621.539 223.69 622.479 222.39C644.039 192.73 652.76 156.45 647.02 120.24C640.61 79.7 616.63 44.4399 581.25 23.5199C580.4 23.0099 580.12 21.9299 580.63 21.0799C581.11 20.2299 582.22 19.9499 583.07 20.4499C619.36 41.9299 643.949 78.0999 650.539 119.69C656.409 156.85 647.48 194.08 625.38 224.5V224.49Z" fill="#FCFBF3"/>
<path d="M568.337 16.6001C568.097 16.6001 567.847 16.55 567.607 16.44C565.337 15.42 563.037 14.46 560.717 13.56C559.797 13.21 559.337 12.17 559.697 11.25C560.057 10.33 561.077 9.87008 562.007 10.2301C564.387 11.1501 566.747 12.13 569.077 13.18C569.977 13.58 570.377 14.6401 569.977 15.5401C569.677 16.2001 569.027 16.5901 568.347 16.5901L568.337 16.6001Z" fill="#FCFBF3"/>
<path d="M68.9088 302.57H56.3088L27.7788 259.46V302.57H15.1788V239.66H27.7788L56.3088 282.86V239.66H68.9088V302.57ZM127.71 276.56C127.71 278.36 127.59 279.98 127.35 281.42H90.9004C91.2004 285.02 92.4604 287.84 94.6804 289.88C96.9004 291.92 99.6304 292.94 102.87 292.94C107.55 292.94 110.88 290.93 112.86 286.91H126.45C125.01 291.71 122.25 295.67 118.17 298.79C114.09 301.85 109.08 303.38 103.14 303.38C98.3404 303.38 94.0204 302.33 90.1804 300.23C86.4004 298.07 83.4304 295.04 81.2704 291.14C79.1704 287.24 78.1204 282.74 78.1204 277.64C78.1204 272.48 79.1704 267.95 81.2704 264.05C83.3704 260.15 86.3104 257.15 90.0904 255.05C93.8704 252.95 98.2204 251.9 103.14 251.9C107.88 251.9 112.11 252.92 115.83 254.96C119.61 257 122.52 259.91 124.56 263.69C126.66 267.41 127.71 271.7 127.71 276.56ZM114.66 272.96C114.6 269.72 113.43 267.14 111.15 265.22C108.87 263.24 106.08 262.25 102.78 262.25C99.6604 262.25 97.0204 263.21 94.8604 265.13C92.7604 266.99 91.4704 269.6 90.9904 272.96H114.66ZM151.577 263.06V287.18C151.577 288.86 151.967 290.09 152.747 290.87C153.587 291.59 154.967 291.95 156.887 291.95H162.737V302.57H154.817C144.197 302.57 138.887 297.41 138.887 287.09V263.06H132.947V252.71H138.887V240.38H151.577V252.71H162.737V263.06H151.577ZM240.92 252.71L226.34 302.57H212.75L203.66 267.74L194.57 302.57H180.89L166.22 252.71H179L187.82 290.69L197.36 252.71H210.68L220.04 290.6L228.86 252.71H240.92ZM269.877 303.38C265.077 303.38 260.757 302.33 256.917 300.23C253.077 298.07 250.047 295.04 247.827 291.14C245.667 287.24 244.587 282.74 244.587 277.64C244.587 272.54 245.697 268.04 247.917 264.14C250.197 260.24 253.287 257.24 257.187 255.14C261.087 252.98 265.437 251.9 270.237 251.9C275.037 251.9 279.387 252.98 283.287 255.14C287.187 257.24 290.247 260.24 292.467 264.14C294.747 268.04 295.887 272.54 295.887 277.64C295.887 282.74 294.717 287.24 292.377 291.14C290.097 295.04 286.977 298.07 283.017 300.23C279.117 302.33 274.737 303.38 269.877 303.38ZM269.877 292.4C272.157 292.4 274.287 291.86 276.267 290.78C278.307 289.64 279.927 287.96 281.127 285.74C282.327 283.52 282.927 280.82 282.927 277.64C282.927 272.9 281.667 269.27 279.147 266.75C276.687 264.17 273.657 262.88 270.057 262.88C266.457 262.88 263.427 264.17 260.967 266.75C258.567 269.27 257.367 272.9 257.367 277.64C257.367 282.38 258.537 286.04 260.877 288.62C263.277 291.14 266.277 292.4 269.877 292.4ZM317.73 260.45C319.35 257.81 321.45 255.74 324.03 254.24C326.67 252.74 329.67 251.99 333.03 251.99V265.22H329.7C325.74 265.22 322.74 266.15 320.7 268.01C318.72 269.87 317.73 273.11 317.73 277.73V302.57H305.13V252.71H317.73V260.45ZM371.037 302.57L354.117 281.33V302.57H341.517V235.97H354.117V273.86L370.857 252.71H387.237L365.277 277.73L387.417 302.57H371.037Z" fill="#FCFBF3"/>
<path d="M595.968 74.5798L533.698 38.0899C533.138 37.7599 532.488 37.6098 531.818 37.6598C531.818 37.6598 459.998 43.1099 459.868 43.1199C456.778 43.3599 455.818 47.5599 458.488 49.1299L520.748 85.6099C521.318 85.9499 521.968 86.0798 522.628 86.0398L590.208 80.9198L584.058 107.54C578.908 107.8 574.328 111.38 573.108 116.64L572.348 119.94C569.518 114.72 564.908 110.4 559.068 106.77C559.708 106.33 560.188 105.66 560.368 104.85L563.938 89.3699L523.108 92.4799C521.188 92.6299 519.128 92.1898 517.478 91.1898L482.138 70.4699L479.008 84.0498L459.688 79.2998L455.298 97.2299C455.298 97.2299 467.808 99.9398 467.478 100.28C474.238 101.98 475.588 106.37 475.258 110.1L467.478 141.57C467.808 141.57 468.488 141.9 469.158 142.24C468.488 142.24 468.148 141.9 467.478 141.9L456.308 186.23C455.638 188.26 453.258 191.3 448.528 190.29C448.528 190.63 436.348 187.24 436.348 187.24L427.898 206.52L449.888 211.93C453.948 212.95 458.008 213.97 462.068 214.98L454.958 243.07L471.878 247.13L478.648 219.38C483.388 220.73 487.778 221.75 492.188 222.76L485.418 250.51L502.338 254.57L509.448 226.48C538.208 231.89 559.868 229.87 568.998 203.82C576.438 182.83 568.658 170.66 553.438 162.88C564.598 159.83 573.058 152.39 575.088 137.5C575.288 136.21 575.398 134.96 575.448 133.75L589.408 136.97C591.138 137.37 592.878 136.29 593.278 134.55L596.188 121.97C597.398 116.71 594.868 111.48 590.348 108.99L597.488 78.0899C597.788 76.7799 597.148 75.2398 595.978 74.5798H595.968ZM536.848 191.64C531.778 212.62 496.248 201.12 485.078 198.41L494.208 161.19C505.378 163.9 542.258 169.64 536.848 191.64ZM541.918 137.16C537.188 156.11 507.748 146.64 498.268 144.27L506.728 110.43C516.208 112.81 546.988 117.2 541.918 137.16Z" fill="#F39324"/>
<path d="M110.5 135.248C110.5 142.378 108.781 149.063 105.343 155.303C102.032 161.542 96.7476 166.572 89.4896 170.392C82.3589 174.212 73.3182 176.122 62.3676 176.122H40.0206V227.31H13.2806V93.9916H62.3676C72.6816 93.9916 81.4676 95.7742 88.7256 99.3396C95.9836 102.905 101.395 107.807 104.961 114.047C108.653 120.286 110.5 127.353 110.5 135.248ZM61.2216 154.539C68.6069 154.539 74.0822 152.883 77.6476 149.573C81.2129 146.135 82.9956 141.36 82.9956 135.248C82.9956 122.26 75.7376 115.766 61.2216 115.766H40.0206V154.539H61.2216ZM156.225 85.9696V227.31H129.485V85.9696H156.225ZM175.768 174.021C175.768 163.325 177.869 153.838 182.071 145.562C186.4 137.285 192.194 130.918 199.452 126.462C206.837 122.005 215.05 119.777 224.091 119.777C231.986 119.777 238.862 121.368 244.719 124.552C250.704 127.735 255.479 131.746 259.044 136.585V121.496H285.975V227.31H259.044V211.839C255.606 216.805 250.831 220.943 244.719 224.254C238.734 227.437 231.795 229.029 223.9 229.029C214.987 229.029 206.837 226.737 199.452 222.153C192.194 217.569 186.4 211.138 182.071 202.862C177.869 194.458 175.768 184.844 175.768 174.021ZM259.044 174.403C259.044 167.909 257.771 162.37 255.224 157.786C252.677 153.074 249.239 149.509 244.91 147.09C240.581 144.543 235.933 143.27 230.967 143.27C226.001 143.27 221.417 144.479 217.215 146.899C213.013 149.318 209.575 152.883 206.901 157.595C204.354 162.179 203.081 167.654 203.081 174.021C203.081 180.387 204.354 185.99 206.901 190.829C209.575 195.54 213.013 199.169 217.215 201.716C221.544 204.262 226.128 205.536 230.967 205.536C235.933 205.536 240.581 204.326 244.91 201.907C249.239 199.36 252.677 195.795 255.224 191.211C257.771 186.499 259.044 180.897 259.044 174.403ZM370.728 119.968C383.334 119.968 393.521 123.979 401.288 132.001C409.055 139.895 412.939 150.973 412.939 165.235V227.31H386.199V168.864C386.199 160.46 384.098 154.029 379.896 149.573C375.694 144.989 369.964 142.697 362.706 142.697C355.321 142.697 349.463 144.989 345.134 149.573C340.932 154.029 338.831 160.46 338.831 168.864V227.31H312.091V121.496H338.831V134.675C342.396 130.091 346.917 126.525 352.392 123.979C357.995 121.305 364.107 119.968 370.728 119.968Z" fill="#FCFBF3"/>
</svg>
