<?xml version="1.0" encoding="UTF-8"?>
<svg id="Layer_2" data-name="Layer 2" xmlns="http://www.w3.org/2000/svg" viewBox="0 0 816.85 830.79">
  <defs>
    <style>
      .cls-1 {
        fill: #052460;
      }
    </style>
  </defs>
  <g id="Layer_1-2" data-name="Layer 1">
    <g>
      <polygon class="cls-1" points="406.7 0 418.13 23.14 443.68 26.85 425.19 44.87 429.55 70.3 406.7 58.29 383.85 70.3 388.21 44.87 369.72 26.85 395.27 23.14 406.7 0"/>
      <polygon class="cls-1" points="574.67 42.87 586.1 66.02 611.65 69.73 593.16 87.74 597.52 113.18 574.67 101.17 551.81 113.18 556.18 87.74 537.69 69.73 563.24 66.02 574.67 42.87"/>
      <polygon class="cls-1" points="703.47 147.12 714.9 170.26 740.45 173.97 721.96 191.99 726.32 217.42 703.47 205.41 680.62 217.42 684.98 191.99 666.49 173.97 692.04 170.26 703.47 147.12"/>
      <polygon class="cls-1" points="777.04 296.37 788.47 319.51 814.02 323.22 795.53 341.24 799.9 366.67 777.04 354.66 754.19 366.67 758.55 341.24 740.06 323.22 765.61 319.51 777.04 296.37"/>
      <polygon class="cls-1" points="779.87 469.59 791.29 492.73 816.85 496.44 798.36 514.45 802.72 539.89 779.87 527.88 757.01 539.89 761.38 514.45 742.89 496.44 768.44 492.73 779.87 469.59"/>
      <polygon class="cls-1" points="703.62 619.53 715.05 642.67 740.6 646.39 722.11 664.4 726.47 689.84 703.62 677.83 680.76 689.84 685.13 664.4 666.64 646.39 692.19 642.67 703.62 619.53"/>
      <polygon class="cls-1" points="575.48 723.86 586.9 747 612.46 750.72 593.97 768.73 598.33 794.16 575.48 782.16 552.62 794.16 556.99 768.73 538.5 750.72 564.05 747 575.48 723.86"/>
      <polygon class="cls-1" points="406.63 760.49 418.06 783.63 443.61 787.34 425.12 805.35 429.49 830.79 406.63 818.78 383.78 830.79 388.14 805.35 369.65 787.34 395.21 783.63 406.63 760.49"/>
      <polygon class="cls-1" points="241.53 723.97 252.96 747.11 278.51 750.82 260.02 768.83 264.38 794.27 241.53 782.26 218.68 794.27 223.04 768.83 204.55 750.82 230.1 747.11 241.53 723.97"/>
      <polygon class="cls-1" points="113.32 619.72 124.75 642.86 150.3 646.57 131.81 664.59 136.18 690.02 113.32 678.01 90.47 690.02 94.83 664.59 76.34 646.57 101.9 642.86 113.32 619.72"/>
      <polygon class="cls-1" points="36.98 470.7 48.41 493.84 73.96 497.55 55.47 515.57 59.83 541 36.98 529 14.12 541 18.49 515.57 0 497.55 25.55 493.84 36.98 470.7"/>
      <polygon class="cls-1" points="36.98 296.37 48.41 319.51 73.96 323.22 55.47 341.24 59.83 366.67 36.98 354.66 14.12 366.67 18.49 341.24 0 323.22 25.55 319.51 36.98 296.37"/>
      <polygon class="cls-1" points="109.45 147.31 120.87 170.45 146.42 174.16 127.94 192.17 132.3 217.61 109.45 205.6 86.59 217.61 90.96 192.17 72.47 174.16 98.02 170.45 109.45 147.31"/>
      <polygon class="cls-1" points="241.31 42.98 252.74 66.12 278.29 69.83 259.8 87.84 264.17 113.28 241.31 101.27 218.46 113.28 222.83 87.84 204.34 69.83 229.89 66.12 241.31 42.98"/>
      <g>
        <path class="cls-1" d="m602.55,475.48c-.12-.02-.24-.07-.37-.07-1.8,0-3.17,1.38-3.17,3.17s1.38,3.17,3.17,3.17c.13,0,.24-.06.37-.07.13.02.25.07.39.07,1.65,0,3.17-1.38,3.17-3.17s-1.52-3.17-3.17-3.17c-.14,0-.25.06-.39.07Z"/>
        <path class="cls-1" d="m637.77,430.99s-5.38.96-7.72,2.89c-1.15.95-2.8,1.43-4.46,1.85.79-1.61,1.32-3.62,1.14-6.1-.55-5.79-.55-15.31-.55-15.31,0,0-1.93,5.79-4.69,7.17-2.9,1.38-8.14,3.31-9.1,5.24-.96,1.93-4.83,1.93-6.34,7.72-1.38,5.65-1.38,5.24-2.34,7.17-.3.59-.74,1.25-1.22,1.96,1.81-8.72,3.16-17.7,3.16-25.39,0-1.35-.04-2.63-.06-3.95,1.43-1.14,3.32-3.19,3.32-3.19,1.23-2.01,16.01-7.07,18.08-11.07,2.07-3.86,3.17-6.62,4.14-8.27.83-1.79,2.76-7.99,2.34-10.75-.28-2.76-.69-13.1-1.65-14.76,0,0-4.55,2.35-6.07,4.69-.42.63-.99,1.18-1.64,1.68,0-1.38-.18-2.79-.69-4.14-2.07-5.1-5.24-11.86-5.24-11.86,0,0-2.76,4.28-4.28,6.9-2.48,4.97-4.97,5.38-5.38,7.31-.28,2.07-3.31,3.31-4.41,7.31-.4,1.41-.63,2.42-.76,3.19-1.09-8.53-2.51-16.29-4.11-23.28.71-2.24,1.51-7.13,3.5-8.73,2.89-2.48,3.31-5.79,3.31-9.65s-.83-6.62-1.38-9.1c-.42-2.35-7.73-12.41-7.18-15.3,0,0-3.59,8.14-4.96,11.34-3.57-3.56-9.09-7.75-12.13-9.26-1.8-3.15-3.67-6.32-5.57-9.48.09-.93.3-2.91.6-5.02.55-2.89,1.52-7.72.55-10.06-.97-2.34-2.9-4.28-3.86-7.17-.97-2.89-1.38-4.83-3.86-7.17-2.34-2.48-5.79-5.79-5.79-5.79,0,0-.94,4.26-1.83,7.71-.88-.46-1.78-.78-2.44-.96-.57-.23-1.79-.85-3.13-1.57-1.66-2.26-3.27-4.4-4.79-6.29.85-.56,1.44-1.47,1.43-2.6,0-1.79-1.38-3.17-3.17-3.17s-3.17,1.38-3.17,3.17,1.38,3.17,3.17,3.17c.65,0,1.22-.23,1.71-.55.43.67,1.7,2.64,3.56,5.59-1.55-.85-3.05-1.71-3.75-2.16-1.24-.83-1.93,8.63.95,13.88-.46-.12-.92-.25-1.35-.36-5.79-1.52-11.03-.97-11.03-.97,1.38,0,4.83,3.73,5.24,5.65.55,1.93,3.87,6.34,5.79,7.17,1.93.96,5.24,3.45,7.17,5.38,1.89,1.89,7.88,2.33,12.15,2.35,1.69.83,3.25,1.32,4.23,1.05,1.78,3.07,3.55,6.18,5.29,9.29-.54,2.36-1.41,6.6-1.12,8.25v.02s0,0,0,0c-2.35-.42-10.48-2.34-10.48-2.34.79,4.72,2.14,9.5,4.19,12.02-.45.43-.79.97-.91,1.62-.17.98.08,2.05.68,2.9.09.14,1.84,2.85,4.54,3.77l-39.43,27.73c3.13-46.91-2.51-91.85-3.87-101.65,4.79-1.81,3.49-3.96,3.49-3.96l-1.87-4.67c.5.23,1.03.37,1.54.37.86,0,1.67-.32,2.25-.95,1.19-1.31.93-3.49-.53-4.81-.08-.09-1.26-1.37-3.04-2.17l5.62-.82,3.22-13.59h-.01s0,0,0,0l-13.22,4.49-.29,5.67c-.96-1.68-2.33-2.73-2.39-2.77-1.51-1.37-3.71-1.42-4.9-.12-1.19,1.31-.93,3.49.55,4.84.11.11,2.22,2.09,4.87,2.56.05.13.11.24.18.36l-66.11,72.87-43.91-73.37c2.7-17.79-6.84-44.79-7.22-45.86.55-2.36.88-4.84.77-7.3,3.02-1,3.93-3.35,4.16-4.15.03-.05,0-.07.03-.11-.01-.01.04-.07.03-.09,0-.03.02-.09.02-.09,0,0-3.12-3.87-5.07-5.66,1.02.22,1.94.29,2.38.29.17,0,.28,0,.3,0,2.04,0,3.7-1.45,3.7-3.22,0-1.77-1.66-3.2-3.62-3.2h-.01c-.11,0-1.86-.16-3.71.45l3.6-4.4-6.78-12.21h0s0,0,0,0l-6.75,12.23,3.62,4.39c-1.84-.6-3.57-.45-3.64-.45-1.08,0-2.1.41-2.8,1.11-.58.58-.9,1.33-.89,2.1,0,.78.32,1.52.9,2.11.7.7,1.72,1.1,2.75,1.1,0,0,.11,0,.31,0,.38,0,1.11-.07,1.93-.21-1.13,1.05-2.56,2.66-3.55,3.82-.42.37-.75.75-.95,1.12-.14.17-.23.28-.23.28,0,0,.05.2.14.48.02.1-.03.2.03.3.62,1.19,1.3,1.94,2.02,2.43-5.04,9.34-17.43,36.43-10.26,64.64l-37.96,63.47-66.37-73.15c2.85-.3,5.18-2.52,5.27-2.61.8-.72,1.28-1.71,1.33-2.7.04-.82-.23-1.59-.75-2.17s-1.26-.91-2.08-.95c-.96-.01-2.02.34-2.76,1.02-.09.07-1.48,1.14-2.44,2.82l-.29-5.67-13.22-4.49h0s-.01,0-.01,0l3.22,13.59,5.63.82c-1.77.79-2.95,2.06-3,2.12-.8.72-1.28,1.71-1.33,2.7-.04.82.23,1.59.75,2.17.52.57,1.26.91,2.08.95.05,0,.11,0,.16,0,.53,0,1.05-.14,1.54-.36l-1.86,4.66s-1.29,2.15,3.49,3.96c-1.35,9.8-7,54.75-3.87,101.65l-39.43-27.73c2.7-.93,4.45-3.63,4.52-3.74.55-.79.82-1.72.74-2.62-.06-.76-.41-1.38-.9-1.88,2.07-2.5,3.44-7.31,4.23-12.08,0,0-8.14,1.93-10.48,2.34h0s0-.01,0-.02c.29-1.66-.58-5.89-1.12-8.25,1.73-3.11,3.51-6.22,5.29-9.29.97.27,2.54-.22,4.23-1.05,4.27-.02,10.26-.45,12.15-2.35,1.93-1.93,5.24-4.41,7.17-5.38,1.93-.83,5.24-5.24,5.79-7.17.41-1.93,3.86-5.65,5.24-5.65,0,0-5.24-.55-11.03.97-.43.1-.9.23-1.35.36,2.87-5.25,2.18-14.71.95-13.88-.7.45-2.21,1.31-3.75,2.16,1.86-2.95,3.12-4.92,3.56-5.59.5.32,1.06.55,1.71.55,1.79,0,3.17-1.38,3.17-3.17s-1.38-3.17-3.17-3.17-3.17,1.38-3.17,3.17c0,1.13.58,2.05,1.43,2.6-1.52,1.89-3.13,4.03-4.79,6.29-1.34.72-2.56,1.34-3.13,1.57-.66.18-1.56.5-2.44.96-.89-3.45-1.83-7.71-1.83-7.71,0,0-3.45,3.31-5.79,5.79-2.48,2.34-2.9,4.27-3.86,7.17-.96,2.89-2.9,4.83-3.86,7.17-.97,2.34,0,7.17.55,10.06.3,2.11.51,4.09.6,5.02-1.91,3.16-3.77,6.33-5.57,9.48-3.05,1.52-8.57,5.71-12.13,9.26-1.37-3.2-4.96-11.34-4.96-11.34.55,2.89-6.76,12.96-7.18,15.3-.55,2.48-1.38,5.24-1.38,9.1s.42,7.17,3.31,9.65c1.99,1.61,2.79,6.49,3.5,8.73-1.61,6.99-3.02,14.75-4.11,23.28-.13-.77-.36-1.78-.76-3.19-1.1-4-4.14-5.24-4.41-7.31-.42-1.93-2.9-2.34-5.38-7.31-1.52-2.62-4.28-6.9-4.28-6.9,0,0-3.17,6.75-5.24,11.86-.51,1.35-.7,2.76-.69,4.14-.65-.5-1.22-1.05-1.64-1.68-1.52-2.34-6.07-4.69-6.07-4.69-.97,1.66-1.38,12-1.65,14.76-.42,2.76,1.52,8.96,2.34,10.75.97,1.66,2.07,4.41,4.14,8.27,2.07,3.99,16.85,9.06,18.08,11.07,0,0,1.89,2.06,3.32,3.19-.02,1.32-.06,2.6-.06,3.95,0,7.7,1.35,16.68,3.16,25.39-.48-.7-.92-1.36-1.22-1.96-.96-1.93-.96-1.51-2.34-7.17-1.51-5.79-5.38-5.79-6.34-7.72-.97-1.93-6.21-3.87-9.1-5.24-2.76-1.38-4.69-7.17-4.69-7.17,0,0,0,9.51-.55,15.31-.18,2.49.35,4.49,1.14,6.1-1.66-.42-3.31-.9-4.46-1.85-2.34-1.93-7.72-2.89-7.72-2.89-.41,1.93,2.48,12.54,2.9,15.3.55,2.89,4.28,8.69,5.79,10.06,1.38,1.52,3.31,3.86,6.62,7.17,3.44,3.44,12.1,4.13,21.65,7.3,3.65,1.21,5.68,3.48,6.74,5.08.35,1.23.65,2.31.84,3.08,1.07,4.18,2.48,9.28,4.14,14.78-2.68-3.59-7.31-4.43-12.67-5.27-3.31-.55-16.28-3.86-16.28-3.86,3.09,2.28,4.99,8.62,6.91,14.35-7.47-1.52-15.05-.01-15.05-.01,1.38.96,11.45,9.65,12.83,14.47,1.52,4.69,6.76,13.37,8.14,14.34,1.52.97,5.8,6.2,8.69,9.1,2.9,2.89,14.34,1.38,18.21,1.38,2.42,0,6.31,1.95,8.77,2.8,2.44,3.33,6.65,7.71,12.17,12.69-3.15-1.11-8.68-4.66-10.58-6.93-1.87-2.54.27,8.49,2.41,12.06-3.12-.29-6.46-.94-8.36-2.41-3.17-2.48-.41,8.69,3.03,11.85,7.43,6.61,6.74,7.66,7.93,8.11-6.25,1.26-14.95,3.38-17.6,1.81-3.45-1.93,3.86,4.82,8.28,6.48,6.34,2.34,5.52,6.48,12.41,8.69,7.31,2.35,15.03,5.24,19.31,4.42,3.31-.69,5.79-2.21,10.48-2.62,4.18-.51,11.28-6.08,19.35-7.09,7.76,4.75,15.67,9.18,23.4,12.89.33.16.78.37,1.23.57-.83.07-1.72.18-2.73.38-2.9.69-14.76,3.31-17.66,1.93-2.62-1.38,2.99,6.36,6.53,9.27-5.64,1.07-13.49,1.88-16.19,1.21-3.86-.83,7.72,10.34,12.28,11.58.19.05.35.1.53.15-3.73,1.22-7.1,2.11-8.8,2-4-.28,12.69,10.61,17.25,9.92,14.62-2.07,28.42,2.89,35.17.14,6.07-2.34,9.66-4,12.69-4.96,3.03-1.1,4.69-3.86,6.62-5.24,1.45-1.14,2.13-3.33,7.14-5.74.41.1.55.11.55.11,0,0,9.3.69,15.51.14-1.74.68-3.88,1.84-6.3,3.78-7.54,2.36-13.62,4.41-15.53,5.37-5.8,2.89-20.56,15.85-24.42,20.13,0,0,12.41-.96,14.35-.96s6.21-8.55,8.14-10.06c.56-.4,3.71-2.02,8.35-4.17-8.5,13.65,3.87,24.81,3.87,24.81-3.31-3.86.42-10.61.42-10.61l6.76,4.27c-8.48-14.52,4.64-24.22,8.99-26.92.46-.17.91-.34,1.37-.52,1.37,1.78,3.24,2.91,5.35,2.91s3.82-1.06,5.18-2.72c.88.33,1.73.66,2.59,1,5.06,3.42,15.83,12.75,7.95,26.24l6.76-4.27s3.72,6.76.42,10.61c0,0,12.1-10.9,4.17-24.33,4.08,1.92,6.82,3.33,7.33,3.7,1.93,1.51,6.2,10.06,8.14,10.06s14.35.96,14.35.96c-3.86-4.27-18.62-17.23-24.42-20.13-1.82-.91-7.38-2.8-14.4-5.01-2.59-2.15-4.88-3.41-6.71-4.13,6.21.55,15.41,0,15.41,0,0,0,.19-.01.26-.06,4.5,2.3,5.42,4.46,6.81,5.55,1.93,1.38,3.59,4.14,6.62,5.24,3.03.97,6.62,2.62,12.69,4.96,6.76,2.76,20.55-2.21,35.17-.14,4.55.69,21.24-10.2,17.25-9.92-1.69.11-5.07-.78-8.8-2,.19-.05.34-.1.53-.15,4.55-1.24,16.14-12.41,12.28-11.58-2.7.68-10.55-.14-16.19-1.21,3.54-2.91,9.15-10.65,6.53-9.27-2.9,1.38-14.76-1.24-17.66-1.93-1.01-.21-1.89-.32-2.73-.38.45-.21.9-.41,1.23-.57,7.73-3.71,15.64-8.14,23.4-12.89,8.07,1.02,15.18,6.58,19.35,7.09,4.69.41,7.17,1.93,10.48,2.62,4.28.83,12-2.07,19.31-4.42,6.9-2.2,6.07-6.34,12.41-8.69,4.42-1.66,11.73-8.41,8.28-6.48-2.65,1.57-11.34-.55-17.6-1.81,1.19-.45.5-1.5,7.93-8.11,3.45-3.17,6.2-14.34,3.03-11.85-1.89,1.46-5.24,2.12-8.36,2.41,2.14-3.57,4.29-14.6,2.41-12.06-1.9,2.27-7.43,5.82-10.58,6.93,5.52-4.98,9.73-9.35,12.17-12.69,2.46-.84,6.35-2.8,8.77-2.8,3.86,0,15.31,1.52,18.21-1.38,2.9-2.9,7.17-8.14,8.69-9.1,1.38-.97,6.62-9.65,8.14-14.34,1.38-4.83,11.45-13.51,12.83-14.47,0,0-7.59-1.51-15.05.01,1.92-5.73,3.82-12.07,6.91-14.35,0,0-12.96,3.31-16.28,3.86-5.36.83-9.99,1.68-12.67,5.27,1.66-5.5,3.07-10.59,4.14-14.78.19-.78.49-1.86.84-3.08,1.05-1.6,3.08-3.87,6.74-5.08,9.56-3.17,18.21-3.86,21.65-7.3,3.31-3.31,5.24-5.66,6.62-7.17,1.52-1.38,5.24-7.17,5.79-10.06.41-2.76,3.31-13.37,2.9-15.3Zm-34.47-9.21c-.12,3.88-1.17,10.82-2.97,19.52-.17-2.87-1.12-5.77-2.18-7.79-1.38-2.89-3.31-2.89-4.27-5.79-.96-2.89-4.28-3.86-6.21-6.2-1.93-2.34-5.79-5.24-5.79-5.24-1.38,3.31-1.79,16.27-.96,18.2.3.6.5,1.66.7,2.87-1.42-.54-2.65-.96-2.65-.96-2.48,5.65.42,11.44,1.38,16.68.28,1.66,2.34,4.83,3.31,6.76.97,1.93.55,3.72,1.52,5.24.9,1.28,2.99,1.45,5.16,3.45.28,3.58.63,6.63,1.16,7.51-1.84,6.17-3.87,12.46-6.05,18.71-.16-2.05-.81-4.28-2.3-6.63-2.48-3.86-2.89-3.59-4.27-7.73-1.93-5.24-5.79-5.24-6.34-10.47,0,0-1.38,6.2-1.79,11.44-.55,5.24.42,7.17.83,10.06.36,1.9-.33,4.01-.86,6.43-.13-2.8-.7-6.67-1.9-8.35-1.51-1.93-.97-5.79-.97-5.79-.92,1.82-5.27,7.94-7.37,9.75l-1.79-2.99c25.16-44,19.3-119.28,18.35-129.6,4.06-.85,3.35-2.95,3.35-2.95l-.79-4.93c.39.29.81.51,1.27.64.3.08.59.12.88.12.6,0,1.18-.17,1.67-.52.73-.51,1.17-1.31,1.25-2.26,0-.05-.02-.11-.02-.16,1.81,1.97,3.66,3.72,5.14,4.15,3.45.97,6.34,2.48,6.76,3.86v-.03c2.2,8.9,3.78,18.32,4.87,27.39-.01-.02-.02-.04-.04-.05-3.86-4.28-4.83-12.41-13.38-16.82,0,0,.41,3.45,0,5.79-.35,1.48-.86,4.74-.81,7.52-2.98-2.23-6.15-5.13-6.55-6.44,0,0-1.38,11.86,1.93,18.2,3.45,6.2,3.45,9.51,7.17,10.89,3.86,1.52,4.42,2.48,5.79,3.45,1.52.97,3.86,2.34,5.79,2.34.46,0,.89.3,1.26.75.2.98.45,1.95.76,2.9.03,2.56.02,4.95-.03,7.11Zm-334.36-51.85l25.52,17.95c-.15,4.23-.21,16.84,3.63,28.24l-21.18,35.42c-3.52-7.6-12.43-32.42-7.97-81.61Zm-39.33-20.81s1.71-2.97,4.41-3.33c.49,2.54-1.62,5.29-1.66,5.35-.35.5-.83.85-1.37,1-.49.13-.93.06-1.29-.18-.35-.24-.57-.65-.61-1.15-.05-.55.12-1.12.51-1.68Zm83.74-59.04l20.29,22.37c-.44,6.17-1.29,25.41,4.01,37.51l-18.47,30.88c-4.4-8.96-13.53-35.4-5.84-90.76Zm79.15-14.46c8.93-1.58,18.22-1.59,27.16-.07l2.9,4.84c-10.83-2.39-22.17-2.34-32.99.13l2.93-4.9Zm2.31-3.87l11.28-18.87,11.24,18.79c-7.46-.99-15.08-.96-22.53.08Zm-7.76,12.97c12.36-3.47,25.64-3.51,38.02-.14l3.12,5.21c-6.99-2.43-14.31-3.67-21.86-3.67s-15.26,1.3-22.42,3.86l3.14-5.25Zm-6.16,10.31c15.91-6.98,34.3-7.07,50.28-.25l78,130.32h-28.6c-1.31-.8-2.57-1.67-3.77-2.65-.43-.35-.86-.7-1.33-1-1.97-1.25-4.09-1.65-6.38-1.21-1.18.23-2.29.66-3.36,1.2-1.06.55-2.06,1.21-3.01,1.93-.1.08-.19.18-.34.22-.48-.17-.96-.38-1.43-.6-2.54-1.22-4.86-2.77-7.03-4.56-.7-.58-1.44-1.11-2.25-1.53-1.34-.69-2.76-1.04-4.26-1.04-1.04,0-2.05.17-3.04.46-1.42.42-2.73,1.07-3.97,1.84-.83.52-1.63,1.09-2.4,1.71-.09.07-.16.17-.31.18-.05-.03-.12-.06-.18-.1-1.45-.91-2.97-1.71-4.57-2.32-1.45-.55-2.81-1.3-4.13-2.11-1.87-1.14-3.66-2.39-5.33-3.81-.6-.5-1.24-.95-1.91-1.34-1.41-.82-2.93-1.31-4.56-1.44-1.1-.09-2.2,0-3.28.22-1.47.31-2.85.85-4.18,1.54-.72.38-1.37.87-2.04,1.31v-45.18c4.78-.3,8.45-1.95,8.45-3.96s-3.44-15.59-8.01-18.88c-.23-.18-4.2-3.25-9.47-.24,0,0-5.93,3.43-2.89,8.27,0,0,.63,1.46,3.22.42.49-.2,1.72-.82,2.11-2.6l-.06,1.17c-.03,1.66-2.31,2.59-2.43,2.64-1.49,4.17-2.4,8.23-2.4,9.23,0,2.02,3.71,3.68,8.52,3.96v45.81c-.14-.08-.29-.17-.43-.25-1.98-1.21-3.88-2.54-5.65-4.03-.65-.55-1.35-1.04-2.09-1.47-1.42-.82-2.94-1.34-4.58-1.51-1.29-.14-2.57-.05-3.84.23-1.54.33-2.98.9-4.37,1.62-1.45.75-2.81,1.66-4.1,2.65-.1.08-.19.18-.33.21-.11-.06-.22-.13-.33-.2-.59-.34-1.18-.69-1.78-1.02-.84-.46-1.7-.89-2.6-1.22-1.17-.44-2.32-.95-3.42-1.54-3.19-1.68-6.16-3.69-8.93-6-.26-.22-.53-.44-.8-.64-2.18-1.65-4.6-2.69-7.35-2.91-.09,0-.18-.04-.27-.07h-1.49c-.12.02-.23.06-.35.07-1.76.14-3.44.59-5.07,1.25-1.87.76-3.61,1.76-5.26,2.91-1.88,1.31-3.62,2.78-5.27,4.36-2.13,2.04-4.09,4.23-5.93,6.53-1.79,2.23-3.47,4.55-5.01,6.96-.08.12-.16.23-.25.34-1.13,1.38-2.33,2.71-3.58,3.98-.77.78-1.62,1.46-2.42,2.2h-15.93l77.78-130.07Zm112.17,85.78l-18.48-30.87c5.29-12.1,4.45-31.34,4.01-37.5l20.29-22.37c7.69,55.31-1.42,81.75-5.83,90.74Zm85.16-35.03c2.69.37,4.39,3.31,4.45,3.39.35.5.52,1.08.47,1.62-.04.49-.26.9-.61,1.15-.34.24-.8.32-1.29.18-.53-.14-1.01-.5-1.39-1.03-.02-.03-2.12-2.78-1.63-5.32Zm-42.87,105.7l-21.19-35.41c3.82-11.39,3.77-23.97,3.62-28.2l25.52-17.95c4.45,49.08-4.41,73.9-7.95,81.56Zm-273.54,42.68l19.88-33.25h241.51c-.1-.06-.19-.13-.29-.19-.41-.23-.83-.45-1.24-.69-1.44-.86-2.8-1.85-4.12-2.89-2.37-1.86-4.62-3.87-6.83-5.93-3.19-2.98-6.26-6.07-9.28-9.23-1.98-2.07-3.93-4.16-5.83-6.3-.83-.94-1.71-1.84-2.62-2.7-1.63-1.55-3.38-2.96-5.28-4.17-.83-.53-1.7-.99-2.6-1.4h25.43l39.94,66.74h-288.69Zm39.91-66.74h14.76c-2.85,2.47-5.8,4.82-8.92,6.96-.28.19-.57.37-.87.55-1.67,1-3.25,2.11-4.79,3.29-2.52,1.91-4.92,3.96-7.27,6.06-2.34,2.1-4.62,4.27-6.87,6.47l13.95-23.33Zm103.83-9.04c.56.26,1.12.5,1.69.72.65.25,1.28.55,1.9.88,1.72.92,3.33,2.02,4.88,3.22,2.56,1.98,4.88,4.22,7.03,6.64,3.27,3.69,6.64,7.28,10.08,10.82,1.41,1.45,2.82,2.89,4.26,4.32,3.63,3.61,7.34,7.14,11.2,10.5.24.21.48.42.72.63.05.04.1.1.15.14,0,.02-.02.05-.02.07-.12,0-.23,0-.35,0h-18.44s-.05,0-.07,0c-.22.03-.38-.06-.55-.19-.42-.33-.84-.65-1.26-.97-2.63-2.05-5.16-4.22-7.64-6.45-2.85-2.56-5.63-5.19-8.37-7.87-5.97-5.85-11.75-11.89-17.37-18.07-.98-1.08-1.93-2.17-2.93-3.23-2.17-2.3-4.49-4.44-6.98-6.39-.09-.07-.18-.15-.28-.24.06-.06.09-.1.14-.13,1.21-.85,2.48-1.6,3.87-2.14.77-.3,1.57-.52,2.39-.63,1.47-.2,2.87.04,4.19.73.63.33,1.22.73,1.76,1.19,1.43,1.21,2.94,2.3,4.5,3.34,1.77,1.17,3.59,2.24,5.52,3.13Zm76.1,12.54c.29.13.58.26.88.37.74.27,1.42.63,2.09,1.03,1.79,1.06,3.41,2.34,4.93,3.75.97.9,1.9,1.85,2.77,2.84,1.77,2,3.58,3.97,5.43,5.89,1.66,1.73,3.34,3.45,5.03,5.15,2.04,2.06,4.14,4.05,6.28,6,.1.09.22.17.29.31-.05.02-.08.04-.11.04-.11,0-.21,0-.32,0-3.38,0-6.76,0-10.14,0-.01,0-.02,0-.04,0-.26.03-.47-.06-.67-.23-1.98-1.61-3.9-3.3-5.78-5.03-1.83-1.69-3.63-3.42-5.4-5.17-3.91-3.87-7.7-7.85-11.39-11.92-.78-.86-1.55-1.73-2.35-2.56-1.82-1.88-3.79-3.59-5.94-5.1-.09-.06-.17-.13-.27-.2.03-.04.05-.09.09-.11.9-.56,1.84-1.01,2.89-1.23,1.04-.22,2.02-.06,2.93.49.37.22.7.48,1.03.75,2.39,1.95,4.95,3.64,7.77,4.91Zm-14.24,1.39c1.43,1.24,2.77,2.58,4.03,3.99,2.72,3.07,5.53,6.06,8.39,9,2.56,2.64,5.17,5.23,7.85,7.74,1.07,1,2.16,1.98,3.24,2.97.08.07.15.14.27.25-.08.03-.11.04-.14.04-.11,0-.21,0-.32,0-4.8,0-9.6,0-14.4,0-.06,0-.12,0-.18,0-.19.03-.34-.05-.48-.17-.98-.8-1.97-1.59-2.94-2.4-2.78-2.34-5.45-4.8-8.06-7.32-1.52-1.47-3.04-2.95-4.53-4.45-3.91-3.93-7.73-7.95-11.45-12.06-.82-.9-1.63-1.81-2.46-2.7-1.36-1.44-2.8-2.78-4.32-4.04-.07-.06-.14-.12-.21-.19-.02-.02-.02-.04-.05-.08.03-.02.07-.05.11-.08.99-.72,2.02-1.36,3.16-1.81.73-.29,1.48-.49,2.27-.53.85-.05,1.64.14,2.39.53.49.26.95.58,1.37.94,2.29,1.91,4.75,3.55,7.41,4.9.74.38,1.49.72,2.27,1.01.73.28,1.42.64,2.1,1.03,1.68.98,3.23,2.14,4.7,3.42Zm-22.9-.17c2.1,2.37,4.26,4.69,6.43,7,1.97,2.09,3.97,4.15,6,6.18,3.45,3.46,6.97,6.84,10.63,10.07.27.24.55.48.83.72.05.04.09.1.15.16-.06.02-.09.04-.12.05-.11,0-.21,0-.32,0-4.29,0-8.58,0-12.87,0-.02,0-.05,0-.07,0-.22.03-.41-.05-.58-.19-.97-.79-1.96-1.56-2.92-2.36-3.16-2.64-6.19-5.42-9.15-8.27-1.6-1.54-3.19-3.1-4.76-4.67-4.21-4.22-8.31-8.54-12.31-12.95-.92-1.02-1.83-2.05-2.77-3.04-2.38-2.48-4.95-4.74-7.78-6.7-1.33-.93-2.71-1.77-4.16-2.5-.07-.04-.14-.08-.24-.13.04-.04.06-.09.09-.11,1.22-.76,2.51-1.37,3.92-1.69.71-.16,1.42-.22,2.15-.17.87.07,1.69.34,2.45.76.58.32,1.11.71,1.62,1.14,2.89,2.37,5.99,4.42,9.38,6.01.47.22.95.43,1.43.61.84.32,1.64.72,2.42,1.17,1.78,1.02,3.43,2.22,5.01,3.53,1.99,1.65,3.82,3.46,5.53,5.39Zm-58.94-11c1.3,1.28,2.53,2.62,3.74,3.98,1.35,1.52,2.73,3.01,4.11,4.51,2.46,2.66,4.97,5.29,7.5,7.89,4.53,4.65,9.16,9.2,13.96,13.56,1.85,1.68,3.72,3.32,5.63,4.93.09.08.18.15.32.28-.12.02-.16.03-.2.03-43.94,0-87.89,0-131.82,0-.05-.13.04-.17.09-.22.61-.61,1.22-1.22,1.83-1.83,1.97-1.94,3.97-3.85,6.02-5.71,2.48-2.25,5-4.44,7.66-6.48,1.61-1.23,3.26-2.39,5-3.42.5-.29.97-.63,1.44-.96,4.19-2.92,8.16-6.1,11.87-9.61,2.12-2.01,4.13-4.12,5.98-6.4.12-.15.24-.3.34-.46,1.54-2.49,3.26-4.84,5.1-7.11,1.48-1.82,3.04-3.56,4.71-5.21,1.74-1.71,3.57-3.31,5.6-4.68,1.32-.89,2.69-1.66,4.18-2.24,1.01-.39,2.04-.67,3.12-.8,1.88-.23,3.65.12,5.31,1.03.72.39,1.39.85,2.01,1.38,1.47,1.25,3.03,2.39,4.62,3.47,1.86,1.26,3.78,2.42,5.79,3.43,1.06.53,2.14,1.01,3.24,1.43.73.28,1.43.63,2.11,1,1.85,1,3.6,2.18,5.27,3.46,1.92,1.46,3.73,3.06,5.45,4.75Zm-29.78,81.7c7.37,5.47,14.83,8.57,21.27,10.29-5.11,1.54-38.33,10.3-66.72-10.29h45.45Zm45.3,26.95s3.16-16.52,4.99-26.95h0c1.83,10.43,4.99,26.95,4.99,26.95,1.94,8.06-4.92,15.32-5,15.4-.08-.08-6.94-7.35-5-15.4Zm55.34-26.95h45.45c-28.39,20.58-61.61,11.82-66.72,10.29,6.44-1.72,13.9-4.82,21.27-10.29Zm115.64-162.83c-.39-.56-.55-1.21-.45-1.8.04-.26.19-.59.48-.85.14.1.27.24.41.32,1.75,1,2.89,2.5,4.01,3.99.09.56.14,1.13,0,1.72-2.56-.41-4.43-3.32-4.47-3.38Zm-35.71-79.53c-.63.7-1.88.59-2.8-.24-.03-.02-2.42-2.08-2.69-4.53.06-.09.12-.17.15-.27,2.61-.11,4.79,2.24,4.86,2.31.89.81,1.11,2.04.48,2.73Zm-3.79-13.08l5.12-1.74h0s0,0,0,0l-1.25,5.26-4.08.59h0s0,0,0,0l.21-4.12Zm-9.5.99c.28-.31.68-.46,1.12-.46.55,0,1.17.24,1.71.72.03.02,2.4,1.89,2.66,4.41-.34-.02-.63.07-.87.25-2.2-.36-4.1-2.14-4.14-2.19-.89-.81-1.11-2.04-.48-2.73Zm-110.68-61.67c.38,0,.53.02.54.02,1.21,0,2.19.76,2.2,1.7,0,.94-.98,1.71-2.23,1.71-.03,0-3.5.15-5.3-1.71,1.42-1.53,3.76-1.71,4.8-1.71Zm-6.27-10.12h0s0,0,0,0l2.62,4.73-2.61,3.19h0s0,0,0,0l-2.62-3.18,2.61-4.73Zm-6.78,13.56h0c-.68,0-1.31-.24-1.73-.66-.21-.21-.46-.56-.46-1.04s.25-.83.46-1.04c.42-.42,1.05-.67,1.81-.67.04,0,3.41-.31,5.26,1.69-1.8,1.87-5.26,1.73-5.33,1.72Zm5.63,31.52s3.66-5.81,5.33-12.85c2.44,15.6-.63,27.23-1.76,30.77l-2.44-4.08-8,13.39c-.47-5.05-.33-15.71,6.88-27.22Zm-118.59,26.92c.5-.46,1.12-.73,1.73-.67.29.01.72.1,1.04.46.32.35.37.78.36,1.08-.03.59-.33,1.2-.86,1.68-.03.02-2.31,2.3-4.81,2.3-.09,0-.17,0-.26,0,.02-2.71,2.73-4.77,2.81-4.84Zm-11.85-2.94h0s0,0,0,0l5.12,1.74.21,4.12h0s0,0,0,0l-4.08-.59-1.25-5.26Zm2.37,15.27c-.29-.01-.72-.1-1.04-.46s-.37-.78-.36-1.08c.03-.59.33-1.2.88-1.71.02-.03,2.13-2.3,4.68-2.3.11,0,.24,0,.35.02-.08,2.59-2.73,4.81-2.79,4.86-.5.46-1.13.74-1.73.67Zm-36.77,79.11s-1.88,2.94-4.44,3.35c-.12-.55-.06-1.08,0-1.61,1.15-1.53,2.31-3.08,4.1-4.1.13-.07.24-.2.36-.28.25.25.43.58.47.99.05.55-.12,1.12-.49,1.66Zm-31.13,74.62c.31-.96.57-1.92.76-2.9.38-.45.8-.75,1.26-.75,1.93,0,4.27-1.38,5.79-2.34,1.38-.96,1.93-1.93,5.79-3.45,3.72-1.38,3.72-4.69,7.17-10.89,3.31-6.34,1.93-18.2,1.93-18.2-.4,1.31-3.58,4.21-6.55,6.44.05-2.78-.46-6.03-.81-7.52-.41-2.35,0-5.79,0-5.79-8.55,4.42-9.52,12.55-13.38,16.82-.01.02-.02.04-.04.05,1.08-9.07,2.67-18.49,4.87-27.39v.03c.42-1.38,3.31-2.89,6.76-3.86,1.45-.42,3.26-2.12,5.04-4.04,0,.02,0,.04,0,.06.08.95.52,1.75,1.24,2.26.49.35,1.07.52,1.67.52.29,0,.58-.04.88-.12.46-.12.89-.35,1.27-.64l-.79,4.93s-.71,2.09,3.35,2.95c-.95,10.32-6.82,85.68,18.39,129.67l-1.74,2.92c-2.1-1.82-6.45-7.92-7.36-9.74,0,0,.55,3.86-.97,5.79-1.2,1.68-1.77,5.56-1.9,8.35-.53-2.41-1.22-4.53-.86-6.43.41-2.89,1.38-4.82.83-10.06-.42-5.24-1.79-11.44-1.79-11.44-.55,5.24-4.42,5.24-6.34,10.47-1.38,4.14-1.79,3.87-4.27,7.73-1.49,2.35-2.14,4.58-2.3,6.63-2.18-6.25-4.21-12.54-6.05-18.71.53-.88.88-3.93,1.16-7.51,2.17-2,4.27-2.17,5.16-3.45.96-1.52.55-3.31,1.52-5.24.97-1.93,3.03-5.1,3.31-6.76.97-5.24,3.86-11.03,1.38-16.68,0,0-1.23.42-2.65.96.2-1.21.4-2.27.7-2.87.83-1.93.41-14.89-.96-18.2,0,0-3.86,2.89-5.79,5.24-1.93,2.34-5.24,3.31-6.21,6.2-.97,2.9-2.9,2.9-4.27,5.79-1.06,2.02-2,4.92-2.18,7.79-1.8-8.69-2.85-15.63-2.97-19.52-.05-2.16-.06-4.56-.03-7.11Zm216.55,198.7c-6.35.11-10.83,2.26-12.35,3.11-.05-.13-.11-.26-.17-.39,2.01-3.32,10.9-17.79,16.82-24.55.86,2.05,4.16,11.7-4.3,21.83Zm-25.71,3.11c-1.53-.86-6-3-12.35-3.11-8.46-10.13-5.16-19.77-4.3-21.83,5.92,6.76,14.79,21.21,16.81,24.54-.06.13-.11.26-.17.39Zm147.68-60.52c.33-.57.54-1.06.59-1.41.41-2.2,2.48-6.75,1.93-9.1-.42-2.34-1.38-8.14-2.9-11.44-1.38-3.45-4.69-11.44-8.14-12.96,0,0-2.76,9.1-3.72,12.41-.97,3.45-1.93,7.31-3.45,9.1-.44.61-1.24,1.99-2.12,3.64-.21-1.38-.16-1.32.18-6.39.55-6.34-9.52-16.27-9.52-16.27.97,2.76-2.9,13.79-4.83,16.27-1.93,2.34-4.83,9.51-5.24,13.78-.41,4.42-2.35,7.17-3.86,9.1-2.86,3.9.33,20.25.71,22.12-6.41,3.97-13.09,7.82-19.32,10.96-1.86.92-3.98,1.87-6.27,2.83.42-.41.86-.74,1.28-1.18,8.83-9.38,8.37-12.48,9.52-14.75,2.98-.52-4.01-1.28-8.08-.91,2.37-3.6,5.66-8.54,7.95-12.76,1.79-3.44-15.45,1.1-15.45,1.1-1.87.75-3.36,1.32-4.59,1.78,1.43-5.18,2.93-10.89,2.78-12.09-.14-1.38-7.31.97-13.1,3.45-4.97,2.07-7.86,6.07-12.14,8.69-5.11,3.31-5.8,11.58-8.14,15.44-1.57,2.68-2.47,4.72-3.01,6.44-.48-3.87-1.93-5.67-3.41-6.42,0,0-.02-.01-.03-.02-.07-.03-.14-.07-.21-.1-.07-.03-.16-.06-.26-.09-.33-.12-.65-.21-.96-.26-1.1-.24-2.89-.52-5.71-.83-3.86-.41-10.07,0-12.97,5.38-2.75,4.97-5.23,17.34-6.31,20.24-.71-.28-1.45-.48-2.24-.48s-1.52.2-2.23.48c-1.07-2.91-3.56-15.27-6.31-20.24-2.9-5.38-9.11-5.79-12.97-5.38-2.82.31-4.61.59-5.71.83-.31.05-.63.14-.96.26-.1.03-.19.06-.26.1-.07.03-.14.07-.2.1,0,0-.02.01-.03.02-1.76.9-3.49,3.27-3.56,8.91-.3-2.2-1.17-4.84-3.57-8.93-2.34-3.86-3.03-12.13-8.14-15.44-4.27-2.62-7.17-6.62-12.14-8.69-5.79-2.48-12.97-4.82-13.1-3.45-.14,1.2,1.35,6.91,2.78,12.09-1.23-.46-2.72-1.03-4.59-1.78,0,0-17.24-4.55-15.45-1.1,2.29,4.22,5.57,9.15,7.95,12.76-4.06-.37-11.06.39-8.08.91,1.14,2.28.69,5.38,9.52,14.75.42.44.85.78,1.28,1.18-2.29-.96-4.41-1.91-6.27-2.83-6.23-3.14-12.91-6.99-19.32-10.96.38-1.87,3.57-18.23.71-22.12-1.52-1.93-3.45-4.69-3.86-9.1-.42-4.27-3.31-11.44-5.24-13.78-1.93-2.48-5.79-13.51-4.83-16.27,0,0-10.07,9.93-9.52,16.27.34,5.07.39,5.01.18,6.39-.88-1.65-1.68-3.03-2.12-3.64-1.52-1.79-2.48-5.65-3.45-9.1-.97-3.31-3.72-12.41-3.72-12.41-3.45,1.52-6.76,9.51-8.14,12.96-1.51,3.31-2.48,9.1-2.9,11.44-.55,2.35,1.52,6.9,1.93,9.1.05.35.27.84.59,1.41-7.13-5.4-13.09-10.67-18.88-19.27.51-2.33,1.03-4.12,2.03-5.03,1.38-1.52,6.21-7.31,7.17-11.03.97-3.86,0-6.76,0-8.69s1.38-8.55,1.38-8.55c0,0-.07-.23-.17-.55h8.03c14.31,10.55,65.77,43.02,126.3,16.59-.34.99-.66,1.77-.96,2.16,0,0-13,17.64,16.39,23.62h0s0,0,.01,0c0,0,0,0,.01,0h0c29.39-5.98,16.39-23.62,16.39-23.62-.3-.39-.63-1.17-.97-2.17,60.55,26.46,112.03-6.02,126.35-16.57h8.12c-.1.32-.17.55-.17.55,0,0,1.38,6.62,1.38,8.55s-.97,4.83,0,8.69c.96,3.72,5.79,9.51,7.17,11.03,1,.91,1.51,2.7,2.03,5.03-5.79,8.6-11.76,13.87-18.88,19.27Z"/>
        <path class="cls-1" d="m500.64,572.46c-1.66,0-2.9,1.24-2.9,2.76,0,1.66,1.24,2.9,2.9,2.9,1.52,0,2.9-1.24,2.9-2.9,0-1.52-1.38-2.76-2.9-2.76Z"/>
        <path class="cls-1" d="m516.91,592.44c-1.65,0-2.89,1.38-2.89,2.9,0,1.66,1.24,2.89,2.89,2.89,1.52,0,2.9-1.24,2.9-2.89,0-1.52-1.38-2.9-2.9-2.9Z"/>
        <path class="cls-1" d="m554.72,529.3c-1.52,0-2.9,1.24-2.9,2.9,0,1.52,1.38,2.89,2.9,2.89,1.65,0,2.9-1.38,2.9-2.89,0-1.66-1.24-2.9-2.9-2.9Z"/>
        <path class="cls-1" d="m575,543.64c0,1.79,1.52,3.18,3.17,3.18,1.79,0,3.17-1.38,3.17-3.18,0-1.65-1.38-3.17-3.17-3.17-1.65,0-3.17,1.52-3.17,3.17Z"/>
        <path class="cls-1" d="m582.44,475.96c1.79,0,3.17-1.37,3.17-3.17,0-1.66-1.38-3.17-3.17-3.17-1.66,0-3.17,1.51-3.17,3.17,0,1.79,1.51,3.17,3.17,3.17Z"/>
        <path class="cls-1" d="m592.1,412.26c-1.79,0-3.17,1.38-3.17,3.17,0,1.65,1.38,3.17,3.17,3.17s3.17-1.52,3.17-3.17c0-1.79-1.38-3.17-3.17-3.17Z"/>
        <path class="cls-1" d="m609.74,360.55c1.79,0,3.17-1.38,3.17-3.03,0-1.79-1.38-3.17-3.17-3.17-1.66,0-3.17,1.38-3.17,3.17,0,1.65,1.52,3.03,3.17,3.03Z"/>
        <path class="cls-1" d="m587.27,366.33c1.79,0,3.18-1.38,3.17-3.17,0-1.65-1.38-3.17-3.17-3.17s-3.17,1.52-3.17,3.17c0,1.79,1.38,3.17,3.17,3.17Z"/>
        <path class="cls-1" d="m568.38,314.8c0-1.66-1.38-3.03-3.17-3.03-1.66,0-3.17,1.38-3.17,3.03,0,1.79,1.52,3.17,3.17,3.17,1.79,0,3.17-1.38,3.17-3.17Z"/>
        <path class="cls-1" d="m582.02,304.59c1.79,0,3.17-1.38,3.17-3.17,0-1.65-1.38-3.17-3.17-3.17s-3.17,1.52-3.17,3.17c0,1.79,1.38,3.17,3.17,3.17Z"/>
        <path class="cls-1" d="m613.76,415.99c0,1.65,1.38,3.03,3.17,3.03,1.66,0,3.03-1.38,3.03-3.03s-1.38-3.04-3.03-3.04c-1.79,0-3.17,1.38-3.17,3.04Z"/>
        <path class="cls-1" d="m311.69,572.46c-1.52,0-2.9,1.24-2.9,2.76,0,1.66,1.38,2.9,2.9,2.9,1.66,0,2.9-1.24,2.9-2.9,0-1.52-1.24-2.76-2.9-2.76Z"/>
        <path class="cls-1" d="m298.3,595.34c0-1.52-1.24-2.9-2.89-2.9-1.52,0-2.9,1.38-2.9,2.9,0,1.66,1.38,2.89,2.9,2.89,1.65,0,2.89-1.24,2.89-2.89Z"/>
        <path class="cls-1" d="m257.61,529.3c-1.65,0-2.9,1.24-2.9,2.9,0,1.52,1.24,2.89,2.9,2.89,1.52,0,2.9-1.38,2.9-2.89,0-1.66-1.38-2.9-2.9-2.9Z"/>
        <path class="cls-1" d="m234.15,546.82c1.65,0,3.17-1.38,3.17-3.18,0-1.65-1.52-3.17-3.17-3.17-1.79,0-3.17,1.52-3.17,3.17,0,1.79,1.38,3.18,3.17,3.18Z"/>
        <path class="cls-1" d="m229.89,469.62c-1.79,0-3.17,1.51-3.17,3.17,0,1.8,1.38,3.17,3.17,3.17,1.66,0,3.17-1.37,3.17-3.17,0-1.66-1.51-3.17-3.17-3.17Z"/>
        <path class="cls-1" d="m213.32,478.57c0-1.79-1.38-3.17-3.17-3.17-1.65,0-3.17,1.38-3.17,3.17s1.52,3.17,3.17,3.17c1.8,0,3.17-1.38,3.17-3.17Z"/>
        <path class="cls-1" d="m220.22,418.6c1.79,0,3.17-1.52,3.17-3.17,0-1.79-1.38-3.17-3.17-3.17s-3.17,1.38-3.17,3.17c0,1.66,1.38,3.17,3.17,3.17Z"/>
        <path class="cls-1" d="m202.58,360.55c1.65,0,3.17-1.38,3.17-3.03,0-1.79-1.51-3.17-3.17-3.17-1.79,0-3.17,1.38-3.17,3.17,0,1.66,1.38,3.03,3.17,3.03Z"/>
        <path class="cls-1" d="m225.06,359.99c-1.79,0-3.17,1.52-3.17,3.17,0,1.79,1.38,3.17,3.17,3.17s3.17-1.38,3.17-3.17c0-1.65-1.38-3.17-3.17-3.17Z"/>
        <path class="cls-1" d="m243.95,314.8c0,1.79,1.38,3.17,3.17,3.17,1.66,0,3.17-1.38,3.17-3.17,0-1.66-1.52-3.03-3.17-3.03-1.79,0-3.17,1.38-3.17,3.03Z"/>
        <path class="cls-1" d="m230.3,304.59c1.79,0,3.17-1.38,3.17-3.17,0-1.65-1.38-3.17-3.17-3.17s-3.17,1.52-3.17,3.17c0,1.79,1.38,3.17,3.17,3.17Z"/>
        <path class="cls-1" d="m198.57,415.99c0-1.66-1.38-3.04-3.17-3.04-1.66,0-3.03,1.38-3.03,3.04s1.38,3.03,3.03,3.03c1.79,0,3.17-1.38,3.17-3.03Z"/>
        <path class="cls-1" d="m395.63,399.7l.92.2,6.33-26.14c-.31-.05-.64-.03-.94-.1l-6.26,25.81-.05.23Z"/>
        <path class="cls-1" d="m394.72,388.5l.89.32,5.3-15.48c-.31-.08-.6-.18-.9-.28l-5.21,15.23-.08.22Z"/>
        <path class="cls-1" d="m385.69,398.04l.84.4,12.25-25.76c-.29-.12-.58-.24-.87-.37l-12.13,25.51-.1.21Z"/>
        <path class="cls-1" d="m383.76,393.74l13.29-21.9c-.28-.15-.56-.29-.83-.45l-13.26,21.87.81.49Z"/>
        <path class="cls-1" d="m375.57,394.11l-.15.19.74.58,18.9-24.12c-.26-.18-.47-.41-.72-.59l-18.77,23.95Z"/>
        <path class="cls-1" d="m376.82,388.16l16.71-18.58.05-.06c-.24-.2-.5-.39-.73-.6l-16.73,18.61.7.62Z"/>
        <path class="cls-1" d="m392.09,368.22c-.22-.23-.39-.49-.6-.73l-24.75,21.81.63.71,24.65-21.72.08-.07Z"/>
        <path class="cls-1" d="m390.72,366.57h0c-.2-.25-.43-.48-.61-.74l-13.07,9.22-.19.14.55.77,13.32-9.4Z"/>
        <path class="cls-1" d="m389.56,364.92c-.16-.27-.3-.55-.45-.82l-9.15,5.1.45.82,9.14-5.1Z"/>
        <path class="cls-1" d="m378.63,366.62l.38.86,9.66-4.21c-.14-.28-.33-.54-.45-.83l-9.58,4.18Z"/>
        <polygon class="cls-1" points="377.52 363.71 377.82 364.6 387.62 361.45 387.84 361.38 387.55 360.48 377.52 363.71"/>
        <path class="cls-1" d="m387.28,359.46c-.07-.3-.17-.6-.23-.91l-10.29,2.25.2.92,10.31-2.27Z"/>
        <path class="cls-1" d="m376.23,357.69l.11.93,10.6-1.13c-.04-.31-.07-.62-.09-.94l-10.61,1.13Z"/>
        <path class="cls-1" d="m376.06,355.52l10.66-.1c0-.16-.05-.3-.05-.46s.04-.32.05-.48l-10.67.11v.94Z"/>
        <path class="cls-1" d="m376.24,352.63l10.4.9.19.02c.02-.32.06-.63.09-.94l-10.36-.89-.23-.02-.09.93Z"/>
        <path class="cls-1" d="m376.54,349.29l10.48,2.28c.06-.31.12-.61.19-.91l-10.48-2.28-.19.92Z"/>
        <path class="cls-1" d="m377.4,346.49l9.93,3.27.14.05c.09-.3.18-.6.28-.9l-10.05-3.3-.29.89Z"/>
        <path class="cls-1" d="m378.66,342.73l-.38.86,9.82,4.18c.12-.29.27-.56.4-.85l-9.63-4.1-.21-.09Z"/>
        <path class="cls-1" d="m379.62,340.8l9.34,5.07.09.05c.15-.28.29-.56.45-.83l-9.43-5.12-.45.83Z"/>
        <path class="cls-1" d="m381.41,338.22l8.52,6.07c.18-.26.41-.48.6-.73l-8.56-6.12-.55.77Z"/>
        <path class="cls-1" d="m384.06,335.03l-.61.72,7.82,6.76.07.06c.2-.24.38-.5.6-.72l-7.7-6.67-.18-.15Z"/>
        <path class="cls-1" d="m386.27,332.9l-.68.65,7.16,7.5c.23-.21.48-.39.72-.6l-7.04-7.39-.16-.17Z"/>
        <path class="cls-1" d="m388.66,330.99l-.73.59,6.48,8.11c.25-.19.47-.42.73-.59l-6.33-7.93-.15-.18Z"/>
        <path class="cls-1" d="m391.64,329.27l-.81.46,5.12,8.82.04.07c.27-.16.55-.3.82-.45l-5.05-8.72-.11-.2Z"/>
        <path class="cls-1" d="m394.31,328.08l-.85.4,4.27,9.22c.29-.13.56-.29.85-.41l-4.17-9-.1-.21Z"/>
        <path class="cls-1" d="m397.31,327.02l-.88.3,3.35,9.59c.3-.1.59-.19.9-.28l-3.29-9.4-.07-.22Z"/>
        <path class="cls-1" d="m400.44,326.07l-.92.19,2.09,10.07h0c.3-.06.62-.1.92-.15l-2.05-9.89-.05-.23Z"/>
        <path class="cls-1" d="m403.76,336.06c.31-.03.62-.08.93-.09l-1.02-10.28-.93.08,1.02,10.3Z"/>
        <path class="cls-1" d="m406.46,325.59h-.94s.11,10.28.11,10.28c.05,0,.1-.02.15-.02.27,0,.52.07.79.08l-.11-10.12v-.23Z"/>
        <path class="cls-1" d="m407.52,335.9v.13c.3.03.61.05.92.09l.99-10.38-.93-.09-.98,10.25Z"/>
        <path class="cls-1" d="m410.28,336.45l.2.04,2.05-10.25-.92-.18-2.03,10.18c.24.05.46.15.7.21Z"/>
        <path class="cls-1" d="m415.51,327.3l-.89-.3-3.24,9.57-.07.2c.3.09.61.17.9.28l3.22-9.53.08-.22Z"/>
        <path class="cls-1" d="m418.37,328.43l-.86-.38-4.14,9.24-.06.13c.29.13.55.31.83.45l4.13-9.22.1-.22Z"/>
        <polygon class="cls-1" points="420.07 329.23 415.14 338.02 415.03 338.22 415.85 338.68 420.89 329.69 420.07 329.23"/>
        <path class="cls-1" d="m416.63,339.13l-.06.08c.26.18.48.41.73.6l6.25-8.1.14-.19-.75-.57-6.31,8.18Z"/>
        <polygon class="cls-1" points="418.22 340.48 418.91 341.12 425.78 333.65 425.94 333.48 425.24 332.85 418.22 340.48"/>
        <rect class="cls-1" x="418.66" y="338.3" width="10.33" height=".94" transform="translate(-117.9 369.32) rotate(-41.86)"/>
        <path class="cls-1" d="m421.18,343.44l-.16.12c.19.25.42.46.6.72l8.13-6.02.19-.14-.55-.76-8.2,6.07Z"/>
        <path class="cls-1" d="m422.22,344.94l-.19.1c.16.27.3.55.45.83l8.98-5.05.2-.11-.47-.82-8.98,5.05Z"/>
        <path class="cls-1" d="m423.13,346.79l-.13.06c.13.28.3.55.42.84l9.31-4.1.21-.09-.39-.85-9.42,4.15Z"/>
        <path class="cls-1" d="m423.77,348.8c.1.3.19.6.28.9l9.53-3.25.22-.08-.32-.89-9.71,3.31Z"/>
        <path class="cls-1" d="m424.3,350.52c.07.31.16.6.21.91l10.12-2.28-.22-.91-10.12,2.27Z"/>
        <path class="cls-1" d="m424.62,352.47c.04.31.07.62.09.93l9.96-.89.24-.02-.09-.93-10.2.92Z"/>
        <path class="cls-1" d="m424.87,354.95c0,.11-.03.2-.03.31l10.23.11.02-.93-10.28-.11c0,.21.06.41.06.63Z"/>
        <path class="cls-1" d="m424.52,358.38c-.06.31-.13.62-.2.93l9.87,2.25.21-.92-9.88-2.25Z"/>
        <path class="cls-1" d="m434.82,358.46l.1-.93-10.19-1.12c0,.07-.02.14-.02.21-.02.24-.04.48-.07.72l9.95,1.09.24.02Z"/>
        <path class="cls-1" d="m433.38,364.41l.3-.89-9.45-3.15-.22-.07-.03.08c-.08.28-.16.55-.26.82l9.42,3.13.22.07Z"/>
        <path class="cls-1" d="m423.41,362.26c-.12.29-.29.55-.43.84l9.04,4.07.21.1.39-.85-9.22-4.15h0Z"/>
        <path class="cls-1" d="m422.09,364.73l8.57,4.95.2.12.46-.82-8.79-5.07c-.15.28-.29.56-.45.83Z"/>
        <path class="cls-1" d="m420.99,366.38l12.78,9.34.55-.77-12.73-9.29c-.18.26-.41.47-.6.72Z"/>
        <path class="cls-1" d="m420.23,367.29c-.2.24-.38.49-.6.72l23.6,21.54.17.15.64-.7-23.71-21.61-.11-.1Z"/>
        <path class="cls-1" d="m418.22,369.32l16.09,18.52.72-.6-16.06-18.51-.02-.02c-.17.16-.35.29-.53.44-.06.06-.13.11-.2.16Z"/>
        <path class="cls-1" d="m416.76,370.53l18.18,24.01.75-.57-18.2-24.05c-.25.2-.48.42-.74.61Z"/>
        <path class="cls-1" d="m414.89,371.63l12.64,21.58.12.2.81-.47-12.75-21.76c-.27.16-.55.3-.82.45Z"/>
        <path class="cls-1" d="m413.23,372.53l11.64,25.36.1.21.86-.39-11.77-25.62c-.28.14-.54.33-.83.45Z"/>
        <path class="cls-1" d="m411.18,373.17l5,15.12.08.22.89-.3-5.07-15.32c-.3.1-.6.19-.9.28Z"/>
        <path class="cls-1" d="m409.29,373.69l6.06,25.88.92-.22-6.06-25.88c-.31.07-.61.16-.92.22Z"/>
        <path class="cls-1" d="m318.3,545.61s-2.94,3.39-1.31,6.27c0,0,2.93,3.72,7.34,0,0,0-7.09.11-6.03-6.27Z"/>
        <path class="cls-1" d="m487.9,551.87c4.4,3.72,7.34,0,7.34,0,1.64-2.88-1.31-6.27-1.31-6.27,1.06,6.37-6.03,6.27-6.03,6.27Z"/>
        <path class="cls-1" d="m344.91,542l-1.53-.91-3.79,6.4,1.53.91c1.9,1.13,3.82.74,5.05-1.34,1.22-2.07.63-3.93-1.27-5.05Z"/>
        <path class="cls-1" d="m357.33,548.49c-1.81-.86-3.98-.09-4.9,1.85-.95,2.01-.19,4.22,1.63,5.07,1.81.86,3.99.03,4.94-1.97.92-1.94.15-4.1-1.67-4.95Z"/>
        <path class="cls-1" d="m400.35,559.61c-2-.1-3.71,1.43-3.82,3.56-.11,2.21,1.43,3.96,3.43,4.06,2,.1,3.7-1.48,3.81-3.69.11-2.14-1.42-3.83-3.42-3.93Z"/>
        <path class="cls-1" d="m435.35,560.12l-2.13.56.86,3.25,2.14-.56c1.02-.27,1.46-1.07,1.2-2.04-.25-.97-1.07-1.46-2.07-1.2Z"/>
        <path class="cls-1" d="m435.94,557.24c-.22-.83-.88-1.27-1.8-1.03l-1.96.52.74,2.84,2-.52c.86-.23,1.24-.98,1.02-1.81Z"/>
        <path class="cls-1" d="m449.5,551.31c-.3-.03-.63,0-1.33.29l-1.47.59,1.31,3.26,1.83-.73c.99-.4,1.36-1.28.95-2.3-.27-.67-.72-1.05-1.28-1.12Z"/>
        <path class="cls-1" d="m462.25,546.66l.52,3.27,2.63-1.43-2.45-2.22c-.39-.36-1-1.05-1-1.05h-.02s.23.9.32,1.43Z"/>
        <path class="cls-1" d="m468.84,541.09l-1.51.94,3.94,6.32,1.51-.94c1.88-1.17,2.42-3.05,1.14-5.11-1.27-2.05-3.2-2.37-5.08-1.21Z"/>
        <g>
          <path class="cls-1" d="m376.36,368.11l-5.7,2.62.95,2.06-.76.35c-.12-.27-.26-.52-.42-.76s-.34-.43-.55-.58c-.21-.16-.44-.26-.7-.31-.26-.05-.55-.04-.87.05l-.33-.73,7.95-3.66.44.95Z"/>
          <path class="cls-1" d="m367.01,364.75l2.56-.11.02-.03c-.25-.14-.46-.34-.63-.61s-.29-.55-.35-.84c-.09-.38-.11-.75-.07-1.11.04-.36.16-.7.34-1,.19-.31.44-.57.78-.8s.74-.4,1.23-.51c.36-.08.73-.1,1.09-.06.37.05.72.16,1.04.35.32.19.61.45.85.79.24.34.42.75.53,1.25.09.37.11.73.08,1.08-.04.35-.12.67-.27.97-.15.3-.36.55-.63.77-.27.21-.6.37-.98.47l-.24-1.02c.21-.07.4-.17.57-.3.17-.14.3-.3.41-.48.11-.19.17-.4.2-.63.03-.23.01-.47-.05-.73-.06-.24-.15-.46-.29-.66s-.31-.36-.51-.49-.45-.21-.72-.24c-.28-.04-.58-.02-.92.06-.28.06-.53.17-.74.32-.21.15-.39.32-.52.53s-.22.44-.26.7c-.04.26-.03.53.04.82.08.34.22.62.43.84.21.23.46.41.74.56l.16.89-4.61.23-.97-4.21.9-.21.8,3.44Z"/>
          <path class="cls-1" d="m366.08,349.69c-.32.36-.5.85-.56,1.45-.02.25-.02.49,0,.73.03.24.09.46.19.66.1.2.24.36.42.48.18.13.42.21.71.23.27.02.49-.04.68-.18.18-.14.34-.34.47-.6.13-.26.25-.55.35-.88.1-.33.21-.66.32-1,.12-.34.24-.67.38-1s.32-.62.53-.86c.21-.25.47-.44.77-.57.3-.14.67-.18,1.1-.14.47.04.86.18,1.17.42.31.24.56.53.74.88.18.35.3.73.35,1.14.06.41.07.82.03,1.22-.05.49-.15.95-.31,1.38s-.38.8-.67,1.1-.63.54-1.03.7c-.41.16-.88.21-1.41.16l.1-1.11c.37.04.69,0,.97-.13.28-.12.51-.29.71-.5.19-.22.35-.48.46-.78s.18-.62.21-.95c.03-.26.03-.53,0-.8-.03-.27-.09-.52-.19-.74-.1-.22-.25-.41-.44-.56s-.45-.24-.77-.27c-.3-.03-.55.03-.76.17-.2.14-.38.34-.52.6-.14.26-.27.55-.37.88-.11.33-.21.66-.32,1s-.23.68-.36,1-.3.62-.49.87c-.19.25-.43.44-.71.58s-.62.18-1.02.15c-.44-.04-.82-.17-1.13-.38-.31-.21-.55-.47-.73-.79-.18-.32-.3-.67-.37-1.06-.07-.39-.08-.79-.05-1.19.04-.45.13-.86.27-1.24.14-.37.34-.7.6-.97.26-.27.57-.47.93-.61s.79-.19,1.27-.16l-.1,1.11c-.64,0-1.12.19-1.43.56Z"/>
          <path class="cls-1" d="m367.6,338.87l.94.31-1.52,4.67,2.66.87,1.42-4.35.94.3-1.42,4.36,2.9.94,1.53-4.71.94.31-1.89,5.82-8.38-2.72,1.88-5.79Z"/>
          <path class="cls-1" d="m370.94,332.71c.46-.76,1-1.22,1.63-1.37.63-.15,1.29-.02,2,.41.71.43,1.14.95,1.29,1.58.16.63,0,1.32-.46,2.08l-1.39,2.3,3.08,1.86-.61,1-7.54-4.56,2-3.3Zm3.41,2.52c.35-.57.49-1.05.41-1.46-.08-.41-.35-.75-.8-1.02-.45-.27-.87-.35-1.27-.23-.39.12-.77.47-1.11,1.04l-1.19,1.96,2.77,1.67,1.19-1.96Z"/>
          <path class="cls-1" d="m374.18,329.61l-.71-.68,4.87-5.09.71.68-2.03,2.12,5.65,5.41-.81.85-5.66-5.41-2.03,2.12Z"/>
          <path class="cls-1" d="m381,321.85l5.39,6.97-.93.72-5.39-6.97.93-.72Z"/>
          <path class="cls-1" d="m388.77,317.14l.47.87-4.31,2.36,1.35,2.46,4.02-2.2.47.86-4.02,2.2,1.46,2.67,4.34-2.38.47.87-5.37,2.94-4.23-7.73,5.34-2.92Z"/>
          <path class="cls-1" d="m393.33,315.45l4.41,6.57,1.01-7.85,1.56-.37,2.03,8.58-1.08.26-1.69-7.13h-.03s-.99,7.77-.99,7.77l-.97.23-4.37-6.5h-.03s1.69,7.14,1.69,7.14l-1.08.26-2.03-8.58,1.56-.37Z"/>
          <path class="cls-1" d="m407.42,313.74c.19.01.39.02.61.04.22.02.43.04.65.07.21.03.41.07.59.12s.34.12.46.21c.28.19.51.44.7.75.19.31.27.69.25,1.14-.02.47-.16.87-.4,1.2-.24.33-.58.57-1,.71v.02c.53.14.94.41,1.21.8.27.39.39.86.36,1.4-.02.32-.09.63-.22.93s-.31.56-.55.78c-.24.22-.53.4-.87.52s-.73.18-1.16.16l-4.25-.21.43-8.8,3.19.16Zm.53,7.86c.52.03.93-.1,1.24-.36.3-.27.47-.65.49-1.14.02-.29-.03-.53-.13-.72s-.23-.35-.4-.47c-.17-.12-.37-.21-.6-.27-.23-.06-.46-.09-.71-.1l-2.68-.13-.15,3.05,2.94.14Zm-.4-4.06c.67.03,1.15-.06,1.45-.28.3-.22.47-.56.49-1.03.02-.31-.02-.56-.11-.75s-.22-.33-.39-.44c-.17-.11-.36-.18-.59-.22-.23-.04-.46-.07-.72-.08l-2.34-.11-.14,2.8,2.34.11Z"/>
          <path class="cls-1" d="m418.3,315.74c.8.24,1.37.63,1.7,1.17.33.53.39,1.14.18,1.83-.16.51-.41.92-.76,1.24s-.8.46-1.36.45v.02c.22.12.4.26.51.42.12.16.2.33.25.51.04.18.06.37.04.58s-.04.41-.08.62c-.05.21-.1.42-.16.64-.06.21-.1.43-.13.64-.03.21-.05.42-.04.63s.04.39.12.57l-1.25-.38c-.05-.11-.07-.24-.05-.4.02-.16.05-.33.1-.52.05-.19.1-.39.16-.6.06-.21.1-.43.12-.65.03-.21.05-.42.06-.62.01-.2-.02-.38-.08-.55-.06-.17-.16-.32-.3-.45-.14-.13-.35-.24-.62-.33l-2.74-.84-1.1,3.6-1.12-.34,2.58-8.43,3.97,1.22Zm-.93,3.89c.25.03.48.02.69-.04.21-.06.4-.17.57-.33.17-.16.29-.39.39-.7.13-.43.12-.81-.04-1.15-.15-.34-.49-.59-1.02-.75l-2.79-.85-.9,2.94,2.34.72c.26.08.51.14.76.17Z"/>
          <path class="cls-1" d="m429.04,320.99l-.5.85-4.24-2.49-1.42,2.42,3.95,2.32-.5.85-3.95-2.32-1.54,2.63,4.27,2.51-.5.85-5.28-3.1,4.47-7.6,5.25,3.08Z"/>
          <path class="cls-1" d="m436.54,327.94c.88,1.04,1.29,2.06,1.24,3.06-.06,1-.62,1.97-1.7,2.88-.57.48-1.12.84-1.66,1.08-.54.24-1.08.36-1.6.35-.52-.01-1.03-.16-1.54-.43-.5-.28-.99-.69-1.46-1.25l-1.95-2.31,6.73-5.7,1.95,2.31Zm-5.91,5.13c.08.1.2.22.34.36.14.14.32.27.52.39.2.12.43.21.69.28s.53.09.84.06c.31-.03.64-.13,1-.29.36-.16.75-.42,1.17-.77.4-.34.73-.68.98-1.03.25-.35.41-.7.48-1.07.07-.37.05-.74-.08-1.12-.12-.38-.36-.78-.71-1.19l-1.28-1.51-5.22,4.42,1.26,1.49Z"/>
          <path class="cls-1" d="m443.56,339.14l-.88.44-2.21-4.39-2.5,1.26,2.06,4.09-.88.44-2.06-4.09-2.72,1.37,2.22,4.42-.88.44-2.75-5.47,7.88-3.96,2.73,5.44Z"/>
          <path class="cls-1" d="m437.25,349.66l6.2-.95-.34-2.25.83-.13c.05.29.11.57.2.84.09.27.21.5.36.71s.35.37.59.49c.23.12.52.19.85.19l.12.79-8.65,1.32-.16-1.04Z"/>
          <path class="cls-1" d="m445.18,354.04c.27.15.49.35.67.6.18.25.31.53.39.84.08.31.12.64.1.98-.03.47-.11.88-.25,1.21-.15.33-.33.6-.55.79s-.47.34-.74.43c-.27.08-.55.12-.83.11-.39-.02-.75-.15-1.06-.38-.31-.24-.54-.54-.69-.92-.19.52-.48.89-.87,1.13s-.85.34-1.39.31c-.43-.02-.8-.12-1.12-.29s-.59-.39-.8-.66c-.21-.27-.37-.59-.46-.94-.1-.36-.14-.74-.11-1.14.02-.42.09-.81.22-1.16.13-.36.31-.66.54-.92s.52-.45.86-.59c.34-.14.73-.19,1.18-.17.52.03.96.18,1.33.46.37.28.63.68.77,1.18.17-.36.42-.65.77-.85.34-.21.71-.3,1.11-.28.36.02.68.11.94.26Zm-6.3.8c-.32.33-.49.77-.52,1.31-.01.26.02.5.09.73.08.22.18.42.33.59.14.17.32.3.52.4.2.1.42.15.67.17.24.01.46-.03.67-.11.21-.08.39-.2.54-.36.16-.16.28-.34.38-.55.1-.21.15-.44.16-.69.01-.26-.01-.5-.08-.73-.07-.23-.17-.43-.31-.61-.14-.18-.31-.32-.51-.42-.2-.11-.43-.17-.68-.18-.52-.03-.95.13-1.27.46Zm4.63.14c-.18.07-.33.18-.45.31-.12.14-.22.29-.28.48-.07.19-.11.38-.12.6-.02.42.09.77.32,1.05.23.28.57.44,1.01.46.44.02.79-.1,1.03-.36.24-.26.37-.61.39-1.04.01-.2,0-.4-.06-.6s-.13-.36-.23-.5-.24-.26-.4-.35c-.16-.09-.35-.14-.58-.15-.24-.01-.45.02-.63.09Z"/>
          <path class="cls-1" d="m444.02,361.47c.34.21.61.46.82.76.21.3.34.65.41,1.04.06.39.04.81-.07,1.25-.09.37-.23.7-.42,1-.19.3-.41.54-.68.73s-.57.32-.9.38c-.34.06-.71.05-1.11-.06-.37-.09-.69-.23-.95-.42s-.48-.41-.66-.65c-.18-.25-.33-.52-.45-.81-.12-.29-.23-.59-.33-.9-.1-.3-.19-.61-.28-.91-.09-.3-.19-.59-.31-.85s-.26-.5-.43-.71c-.16-.21-.37-.37-.62-.48l-1.09,4.36-.9-.23,1.39-5.54c.49.17.9.36,1.22.59.32.23.59.48.79.77.21.28.38.58.51.9.13.32.25.65.35.99.14.42.26.78.38,1.1.12.32.25.59.4.82.15.23.32.41.52.56s.45.26.74.33c.23.06.45.07.66.03.21-.04.4-.12.57-.23.17-.11.32-.26.44-.44.12-.18.21-.38.27-.61.08-.3.08-.57,0-.81-.07-.24-.19-.46-.35-.64s-.37-.34-.6-.46-.48-.21-.74-.27l.25-1.02c.44.08.83.23,1.17.43Z"/>
          <path class="cls-1" d="m434.51,368.49l5.65,2.72.99-2.05.76.36c-.13.27-.23.54-.31.81s-.12.53-.1.79c.02.26.08.5.21.74.12.23.32.45.6.64l-.35.72-7.89-3.8.46-.94Z"/>
        </g>
        <path class="cls-1" d="m493.93,545.61l-3.8-3.43c-13.3-12.01-28.26-3.6-28.26-3.6-14.74,8.47-34.02,15.9-55.75,15.9-21.74,0-41.01-7.43-55.75-15.9,0,0-14.96-8.41-28.26,3.6l-3.8,3.43c1.44-.6,3.9-.25,6.8.6l-3.11,1.18c3.97,1.57,2.34,4.49,2.34,4.49l4.82-4.28c9.56,3.71,21.21,10.61,21.21,10.61,14.32,8.64,34.01,14.11,55.75,14.11h0c21.74,0,41.43-5.47,55.75-14.11,0,0,11.66-6.9,21.21-10.61l4.82,4.28s-1.63-2.92,2.34-4.49l-3.11-1.18c2.9-.85,5.36-1.2,6.8-.6Zm-92.75,10.21l1.49.06-1.66,1.64-1.24-.05,1.41-1.65Zm-60.58-6.34l-2.8-1.66,5-8.46,2.8,1.66c2.59,1.53,3.37,4.08,1.79,6.75-1.59,2.68-4.21,3.23-6.8,1.7Zm6.97,3.93l-1.22-.65,4.65-8.66,1.22.65-4.65,8.66Zm5.95,3.15c-2.57-1.22-3.62-4.2-2.38-6.83,1.21-2.56,4.15-3.6,6.72-2.38,2.58,1.22,3.63,4.14,2.43,6.7-1.24,2.62-4.2,3.73-6.77,2.51Zm13.71-2.95s-.53-1.12-1.7-1.57c-.97-.38-1.9-.04-2.18.69-.73,1.89,3.9,3.11,2.74,6.08-.55,1.41-2.09,2.16-3.9,1.45-1.95-.76-2.57-2.38-2.57-2.38l1.1-.69s.59,1.36,1.95,1.89c.85.33,1.77.13,2.1-.73.77-1.98-3.83-3.28-2.74-6.09.55-1.43,2.22-2.08,3.95-1.41,1.7.66,2.24,1.93,2.24,1.93l-.99.84Zm8.16,10.99c-2.22-.6-3.37-2.42-2.79-4.53l1.65-6.14,1.33.36-1.65,6.14c-.39,1.46.33,2.56,1.78,2.95,1.47.39,2.65-.2,3.05-1.68l1.64-6.11,1.33.36-1.65,6.14c-.57,2.11-2.47,3.12-4.69,2.52Zm14,2.79l-1.33-.24-3.2-7.08c-.26-.6-.55-1.56-.55-1.56h-.03s-.06.88-.16,1.43l-1.14,6.3-1.36-.24,1.75-9.71,1.35.24,3.18,7.09c.26.59.56,1.55.56,1.55h.03s.06-.88.16-1.42l1.14-6.31,1.36.24-1.75,9.71Zm3.7.4l-1.37-.16,1.15-9.76,1.37.16-1.15,9.76Zm6.82.71c-2.83-.15-4.93-2.51-4.78-5.4.14-2.82,2.46-4.89,5.3-4.74,2.83.14,4.92,2.44,4.77,5.26-.14,2.89-2.45,5.03-5.29,4.88Zm13.45-.19l-4.64-6.18c-.38-.53-.88-1.4-.88-1.4h-.03s.13.87.15,1.43l.26,6.36-1.37.06-.4-9.81,1.36-.06,4.62,6.2c.38.51.88,1.38.88,1.38h.03s-.13-.87-.15-1.41l-.26-6.38,1.37-.06.4,9.81-1.35.05Zm9.15-.92l-1.55-9.71,1.36-.22,1.36,8.52,4.34-.69.19,1.18-5.71.91Zm6.87-1.2l-2-9.66,1.36-.28,2,9.66-1.36.28Zm7.08-1.66l-3.41.9-2.5-9.51,3.33-.88c1.6-.42,2.99.16,3.4,1.7.25.93-.02,1.79-.65,2.36v.02c1.08.04,1.9.83,2.18,1.89.47,1.79-.68,3.07-2.35,3.51Zm4.94-1.37l-3.1-9.36,5.43-1.8.38,1.14-4.12,1.37.97,2.93,3.35-1.11.38,1.14-3.35,1.11.99,3.01,4.35-1.44.38,1.14-5.66,1.88Zm12.38-4.52l-3.38-2.85-1.95.78,1.46,3.62-1.28.51-3.65-9.11,2.78-1.12c.95-.38,1.38-.47,1.79-.48,1.07-.02,2.04.65,2.52,1.85.47,1.16.21,2.4-.65,3.12v.02s.16.07.44.3l3.35,2.76-1.44.58Zm4.84-2.17l-3.69-7.82-3.05,1.44-.51-1.08,7.36-3.47.51,1.09-3.05,1.44,3.69,7.82-1.25.59Zm9.87-5.11l-2.23-2.02-3.26,1.77.49,2.95-1.25.68-1.59-10.35,1.27-.69,7.82,6.96-1.26.68Zm5.01-2.98l-2.77,1.73-5.21-8.35,2.77-1.73c2.55-1.59,5.19-1.11,6.83,1.53,1.65,2.65.93,5.23-1.63,6.83Z"/>
      </g>
    </g>
  </g>
</svg>