<?xml version="1.0" encoding="UTF-8"?>
<svg xmlns="http://www.w3.org/2000/svg" xmlns:xlink="http://www.w3.org/1999/xlink" width="399.8pt" height="443.91pt" viewBox="0 0 399.8 443.91" version="1.1">
<defs>
<clipPath id="clip1">
  <path d="M 360 212 L 399.800781 212 L 399.800781 238 L 360 238 Z M 360 212 "/>
</clipPath>
<clipPath id="clip2">
  <path d="M 173 426 L 187 426 L 187 443.910156 L 173 443.910156 Z M 173 426 "/>
</clipPath>
<clipPath id="clip3">
  <path d="M 189 427 L 203 427 L 203 443.910156 L 189 443.910156 Z M 189 427 "/>
</clipPath>
<clipPath id="clip4">
  <path d="M 205 427 L 220 427 L 220 443.910156 L 205 443.910156 Z M 205 427 "/>
</clipPath>
</defs>
<g id="surface1">
<path style=" stroke:none;fill-rule:nonzero;fill:rgb(93.699646%,30.198669%,13.299561%);fill-opacity:1;" d="M 190.128906 74.554688 C 190.128906 74.554688 208.96875 74.714844 210.890625 74.394531 C 210.890625 74.394531 227.046875 67.839844 219.875 43.003906 C 218.3125 37.601563 202.113281 14.445313 203.234375 -0.00390625 C 203.234375 -0.00390625 189.371094 20.199219 193.816406 38.6875 C 193.816406 38.6875 184.078125 43.964844 184.234375 57.820313 C 184.234375 57.820313 185.316406 69.96875 190.128906 74.554688 "/>
<path style=" stroke:none;fill-rule:nonzero;fill:rgb(96.899414%,57.598877%,10.998535%);fill-opacity:1;" d="M 194.460938 49.234375 C 194.460938 49.234375 185.800781 62.933594 201.308594 73.757813 C 201.308594 73.757813 210.089844 73.757813 213.777344 59.257813 C 213.777344 59.257813 217.515625 43.800781 209.015625 33.457031 C 209.015625 33.457031 201.472656 22.320313 202.113281 15.609375 C 202.113281 15.609375 197.945313 29.46875 200.035156 42.042969 C 200.035156 42.042969 206.445313 54.828125 202.113281 61.652344 C 202.113281 61.652344 194.140625 53.867188 194.460938 49.234375 "/>
<path style=" stroke:none;fill-rule:nonzero;fill:rgb(100%,94.499207%,0%);fill-opacity:1;" d="M 194.460938 49.234375 C 194.460938 49.234375 185.800781 62.933594 201.308594 73.757813 C 201.308594 73.757813 207.199219 74.390625 210.890625 59.894531 C 210.890625 59.894531 212.976563 46.476563 207.566406 38.53125 C 207.566406 38.53125 200.832031 29.511719 201.472656 22.796875 C 201.472656 22.796875 197.945313 29.46875 200.035156 42.042969 C 200.035156 42.042969 206.445313 54.828125 202.113281 61.652344 C 202.113281 61.652344 194.140625 53.867188 194.460938 49.234375 "/>
<path style=" stroke:none;fill-rule:nonzero;fill:rgb(100%,79.598999%,1.199341%);fill-opacity:1;" d="M 186.039063 87.832031 L 186.039063 95.300781 L 189.980469 95.300781 L 189.980469 99.226563 L 87.394531 127.925781 L 87.394531 270.910156 C 87.394531 270.910156 84.675781 394.820313 202.210938 394.820313 C 243.453125 394.820313 316.246094 365.339844 316.246094 270.613281 L 316.246094 127.925781 L 213.65625 99.226563 L 213.65625 95.300781 L 217.605469 95.300781 L 217.605469 87.832031 "/>
<path style="fill:none;stroke-width:4.29;stroke-linecap:butt;stroke-linejoin:miter;stroke:rgb(13.299561%,11.799622%,12.199402%);stroke-opacity:1;stroke-miterlimit:3.864;" d="M 1860.390625 3560.779687 L 1860.390625 3486.092187 L 1899.804688 3486.092187 L 1899.804688 3446.834375 L 873.945313 3159.842187 L 873.945313 1729.998437 C 873.945313 1729.998437 846.757813 490.896875 2022.109375 490.896875 C 2434.53125 490.896875 3162.460938 785.701562 3162.460938 1732.967187 L 3162.460938 3159.842187 L 2136.5625 3446.834375 L 2136.5625 3486.092187 L 2176.054688 3486.092187 L 2176.054688 3560.779687 Z M 1860.390625 3560.779687 " transform="matrix(0.1,0,0,-0.1,0,443.91)"/>
<path style=" stroke:none;fill-rule:nonzero;fill:rgb(50.19989%,50.999451%,51.799011%);fill-opacity:1;" d="M 128.988281 220.011719 L 148.074219 220.011719 L 148.074219 306.792969 L 167.390625 306.792969 L 167.390625 220.011719 L 185.128906 220.011719 L 185.128906 309.4375 C 185.128906 309.4375 184.339844 337.164063 157.117188 337.164063 C 129.902344 337.164063 128.988281 309.632813 128.988281 309.632813 L 128.988281 220.011719 "/>
<path style=" stroke:none;fill-rule:nonzero;fill:rgb(13.299561%,11.799622%,12.199402%);fill-opacity:1;" d="M 5.042969 271.238281 L 27.417969 266.90625 C 30.046875 266.394531 32.15625 265.601563 33.753906 264.519531 C 36.164063 262.90625 37.117188 260.792969 36.605469 258.175781 C 35.996094 255.042969 34.160156 253.183594 31.09375 252.609375 C 29.433594 252.300781 27.296875 252.398438 24.683594 252.902344 L 2.308594 257.234375 L 1.578125 253.476563 L 21.90625 249.539063 C 26.359375 248.683594 29.871094 248.472656 32.445313 248.910156 C 37.140625 249.726563 39.9375 252.4375 40.835938 257.050781 C 41.738281 261.660156 40.164063 265.214844 36.117188 267.707031 C 33.898438 269.078125 30.558594 270.191406 26.105469 271.054688 L 5.773438 274.992188 L 5.042969 271.238281 "/>
<path style=" stroke:none;fill-rule:nonzero;fill:rgb(13.299561%,11.799622%,12.199402%);fill-opacity:1;" d="M 0.386719 241.382813 L 0.308594 236.933594 L 29.929688 222.359375 L 0.0625 222.878906 L 0 219.300781 L 36.871094 218.65625 L 36.945313 222.882813 L 7.351563 237.660156 L 37.191406 237.144531 L 37.257813 240.738281 "/>
<path style=" stroke:none;fill-rule:nonzero;fill:rgb(13.299561%,11.799622%,12.199402%);fill-opacity:1;" d="M 0.960938 209.535156 L 1.296875 205.746094 L 38.03125 208.945313 L 37.699219 212.738281 Z M 0.960938 209.535156 "/>
<path style=" stroke:none;fill-rule:nonzero;fill:rgb(13.299561%,11.799622%,12.199402%);fill-opacity:1;" d="M 2.796875 193.6875 L 35.179688 192.371094 L 6.113281 178.144531 L 6.992188 174.011719 L 40.945313 191.578125 L 40.109375 195.488281 L 1.925781 197.765625 "/>
<path style=" stroke:none;fill-rule:nonzero;fill:rgb(13.299561%,11.799622%,12.199402%);fill-opacity:1;" d="M 9.929688 165.144531 L 17.226563 146.203125 L 21.445313 147.816406 L 15.46875 163.328125 L 25.921875 167.320313 L 31.445313 152.980469 L 35.429688 154.503906 L 29.90625 168.847656 L 41.574219 173.308594 L 47.65625 157.535156 L 51.757813 159.101563 L 44.355469 178.304688 "/>
<path style=" stroke:none;fill-rule:evenodd;fill:rgb(13.299561%,11.799622%,12.199402%);fill-opacity:1;" d="M 43.371094 133.367188 C 44.285156 131.851563 44.601563 130.414063 44.328125 129.054688 C 44.0625 127.6875 42.878906 126.375 40.785156 125.125 C 38.53125 123.773438 36.628906 123.476563 35.0625 124.21875 C 34.238281 124.621094 33.488281 125.371094 32.820313 126.480469 L 28.0625 134.367188 L 38.863281 140.835938 Z M 22.433594 135.398438 L 29.09375 124.355469 C 30.191406 122.539063 31.445313 121.25 32.863281 120.492188 C 35.5625 119.058594 38.722656 119.429688 42.355469 121.597656 C 44.246094 122.730469 45.621094 123.960938 46.464844 125.273438 C 47.316406 126.578125 47.785156 127.980469 47.878906 129.480469 C 48.945313 128.847656 50.023438 128.546875 51.125 128.570313 C 52.226563 128.582031 53.714844 129.109375 55.582031 130.15625 L 59.890625 132.578125 C 61.117188 133.269531 62.058594 133.730469 62.71875 133.964844 C 63.839844 134.371094 64.695313 134.410156 65.28125 134.085938 L 65.988281 134.511719 L 63.601563 138.46875 C 63.265625 138.414063 62.863281 138.289063 62.390625 138.097656 C 61.917969 137.90625 61.054688 137.464844 59.792969 136.765625 L 54.410156 133.804688 C 52.296875 132.648438 50.5625 132.394531 49.203125 133.058594 C 48.449219 133.445313 47.671875 134.296875 46.875 135.613281 L 42.433594 142.972656 L 55.992188 151.085938 L 54.042969 154.320313 L 22.433594 135.398438 "/>
<path style=" stroke:none;fill-rule:nonzero;fill:rgb(13.299561%,11.799622%,12.199402%);fill-opacity:1;" d="M 60.757813 121.523438 C 62.417969 122.796875 63.960938 123.597656 65.382813 123.929688 C 68.0625 124.539063 70.417969 123.632813 72.457031 121.214844 C 73.367188 120.132813 73.996094 118.972656 74.335938 117.738281 C 74.992188 115.355469 74.289063 113.304688 72.238281 111.589844 C 70.703125 110.300781 69.300781 109.746094 68.035156 109.929688 C 66.777344 110.128906 65.246094 110.8125 63.453125 111.984375 L 60.15625 114.148438 C 58.003906 115.558594 56.257813 116.378906 54.914063 116.59375 C 52.597656 116.960938 50.265625 116.167969 47.917969 114.203125 C 45.382813 112.082031 43.855469 109.679688 43.339844 106.992188 C 42.828125 104.304688 43.597656 101.746094 45.644531 99.320313 C 47.523438 97.085938 49.839844 95.789063 52.589844 95.433594 C 55.332031 95.054688 58.273438 96.179688 61.414063 98.804688 L 59.125 101.515625 C 57.492188 100.398438 56.074219 99.738281 54.867188 99.539063 C 52.648438 99.183594 50.65625 100.0625 48.878906 102.175781 C 47.445313 103.878906 46.886719 105.496094 47.207031 107.03125 C 47.527344 108.570313 48.320313 109.863281 49.574219 110.917969 C 50.960938 112.070313 52.339844 112.484375 53.710938 112.148438 C 54.601563 111.921875 56.203125 111.058594 58.515625 109.558594 L 61.933594 107.324219 C 63.585938 106.25 65.117188 105.636719 66.535156 105.484375 C 68.996094 105.234375 71.484375 106.15625 73.996094 108.257813 C 77.121094 110.875 78.636719 113.605469 78.53125 116.453125 C 78.433594 119.289063 77.429688 121.84375 75.519531 124.117188 C 73.28125 126.769531 70.636719 128.09375 67.582031 128.09375 C 64.535156 128.101563 61.5 126.816406 58.472656 124.238281 L 60.757813 121.523438 "/>
<path style=" stroke:none;fill-rule:nonzero;fill:rgb(13.299561%,11.799622%,12.199402%);fill-opacity:1;" d="M 60 85.320313 L 62.75 82.675781 L 88.367188 109.097656 L 85.617188 111.746094 Z M 60 85.320313 "/>
<path style=" stroke:none;fill-rule:evenodd;fill:rgb(13.299561%,11.799622%,12.199402%);fill-opacity:1;" d="M 98.167969 95.355469 C 99.191406 94.589844 99.921875 93.820313 100.371094 93.042969 C 101.152344 91.644531 101.359375 89.925781 100.992188 87.886719 C 100.691406 86.253906 99.972656 84.414063 98.835938 82.363281 C 98.152344 81.140625 97.453125 80.0625 96.738281 79.117188 C 93.988281 75.480469 91.304688 73.074219 88.675781 71.894531 C 86.0625 70.703125 83.539063 71.023438 81.097656 72.855469 L 75.738281 76.878906 L 92.777344 99.40625 Z M 70.117188 75.746094 L 79.152344 68.960938 C 82.21875 66.65625 85.679688 66.300781 89.535156 67.894531 C 92.996094 69.347656 96.257813 72.085938 99.308594 76.121094 C 101.664063 79.238281 103.351563 82.390625 104.363281 85.574219 C 106.15625 91.199219 105.140625 95.445313 101.3125 98.316406 L 92.308594 105.082031 L 70.117188 75.746094 "/>
<path style=" stroke:none;fill-rule:evenodd;fill:rgb(13.299561%,11.799622%,12.199402%);fill-opacity:1;" d="M 120.132813 68.796875 L 108.738281 56.445313 L 112.410156 72.886719 Z M 104.425781 52.558594 L 108.203125 50.5625 L 134.464844 78.253906 L 130.808594 80.191406 L 123.121094 71.800781 L 113.363281 76.96875 L 115.882813 88.097656 L 112.453125 89.910156 "/>
<path style=" stroke:none;fill-rule:evenodd;fill:rgb(13.299561%,11.799622%,12.199402%);fill-opacity:1;" d="M 146.441406 69.597656 C 147.652344 69.203125 148.605469 68.714844 149.277344 68.125 C 150.476563 67.054688 151.230469 65.496094 151.550781 63.445313 C 151.800781 61.804688 151.722656 59.832031 151.320313 57.527344 C 151.070313 56.152344 150.765625 54.902344 150.394531 53.777344 C 148.984375 49.445313 147.230469 46.300781 145.136719 44.328125 C 143.054688 42.359375 140.558594 41.84375 137.652344 42.78125 L 131.269531 44.847656 L 140.019531 71.675781 Z M 126.324219 41.953125 L 137.085938 38.46875 C 140.738281 37.285156 144.128906 38.074219 147.253906 40.832031 C 150.050781 43.328125 152.234375 46.976563 153.800781 51.777344 C 155.015625 55.488281 155.574219 59.015625 155.492188 62.355469 C 155.351563 68.253906 153.003906 71.941406 148.445313 73.417969 L 137.722656 76.890625 L 126.324219 41.953125 "/>
<path style=" stroke:none;fill-rule:evenodd;fill:rgb(13.299561%,11.799622%,12.199402%);fill-opacity:1;" d="M 251.285156 69.238281 C 252.503906 69.632813 253.554688 69.789063 254.453125 69.710938 C 256.050781 69.542969 257.582031 68.726563 259.050781 67.253906 C 260.21875 66.074219 261.324219 64.433594 262.355469 62.328125 C 262.96875 61.074219 263.453125 59.878906 263.824219 58.753906 C 265.234375 54.429688 265.671875 50.855469 265.140625 48.03125 C 264.621094 45.21875 262.90625 43.34375 260 42.398438 L 253.617188 40.332031 L 244.863281 67.160156 Z M 251.324219 35.097656 L 262.085938 38.578125 C 265.738281 39.765625 268.015625 42.382813 268.917969 46.445313 C 269.714844 50.101563 269.324219 54.328125 267.757813 59.132813 C 266.546875 62.847656 264.921875 66.023438 262.886719 68.679688 C 259.289063 73.371094 255.214844 74.976563 250.652344 73.5 L 239.929688 70.03125 L 251.324219 35.097656 "/>
<path style=" stroke:none;fill-rule:evenodd;fill:rgb(13.299561%,11.799622%,12.199402%);fill-opacity:1;" d="M 301.890625 62.550781 C 301.925781 66.289063 300.710938 70.371094 298.246094 74.804688 C 295.574219 79.601563 292.433594 83.078125 288.8125 85.234375 C 284.5625 87.765625 280.425781 87.921875 276.398438 85.699219 C 272.644531 83.621094 270.597656 80.359375 270.261719 75.90625 C 270.097656 71.695313 271.355469 67.1875 274.03125 62.375 C 276.445313 58.027344 279.335938 54.765625 282.699219 52.582031 C 287.011719 49.777344 291.230469 49.515625 295.355469 51.792969 C 299.664063 54.175781 301.84375 57.761719 301.890625 62.550781 M 287.574219 81.40625 C 290.414063 79.371094 292.828125 76.570313 294.820313 72.996094 C 296.917969 69.222656 297.859375 65.761719 297.628906 62.628906 C 297.417969 59.496094 296.007813 57.210938 293.402344 55.773438 C 290.867188 54.378906 288.171875 54.382813 285.300781 55.789063 C 282.441406 57.183594 279.773438 60.105469 277.300781 64.550781 C 275.316406 68.109375 274.328125 71.488281 274.328125 74.695313 C 274.347656 77.882813 275.894531 80.328125 278.964844 82.027344 C 281.882813 83.636719 284.75 83.429688 287.574219 81.40625 "/>
<path style=" stroke:none;fill-rule:nonzero;fill:rgb(13.299561%,11.799622%,12.199402%);fill-opacity:1;" d="M 315.800781 65.488281 L 319.273438 68.289063 L 311.441406 100.261719 L 330.238281 77.132813 L 333.027344 79.386719 L 309.820313 107.9375 L 306.527344 105.277344 L 314.183594 73.195313 L 295.402344 96.304688 L 292.59375 94.035156 "/>
<path style=" stroke:none;fill-rule:evenodd;fill:rgb(13.299561%,11.799622%,12.199402%);fill-opacity:1;" d="M 359.414063 137.199219 C 360.191406 138.59375 361.046875 139.53125 361.992188 140.023438 C 363.472656 140.792969 365.257813 140.601563 367.351563 139.445313 C 369.460938 138.28125 370.519531 136.851563 370.53125 135.15625 C 370.535156 134.199219 370.136719 133.003906 369.339844 131.566406 L 366.066406 125.683594 L 356.078125 131.203125 Z M 345.148438 146.527344 C 346.273438 148.550781 347.847656 149.5625 349.882813 149.566406 C 351.164063 149.566406 352.5 149.183594 353.890625 148.414063 C 356.230469 147.121094 357.386719 145.453125 357.355469 143.40625 C 357.34375 142.3125 356.953125 141.082031 356.1875 139.699219 L 352.542969 133.15625 L 341.191406 139.421875 Z M 367.917969 120.445313 L 373.734375 130.898438 C 375.320313 133.75 375.320313 136.398438 373.734375 138.847656 C 372.796875 140.289063 371.453125 141.488281 369.714844 142.453125 C 367.679688 143.574219 365.765625 144.058594 363.980469 143.90625 C 363.039063 143.835938 362.050781 143.527344 361.003906 142.992188 C 361.070313 144.589844 360.878906 145.914063 360.433594 146.96875 C 359.636719 148.839844 358 150.457031 355.523438 151.824219 C 353.445313 152.972656 351.292969 153.515625 349.0625 153.460938 C 345.726563 153.382813 343.171875 151.742188 341.390625 148.539063 L 335.660156 138.253906 L 367.917969 120.445313 "/>
<path style=" stroke:none;fill-rule:evenodd;fill:rgb(13.299561%,11.799622%,12.199402%);fill-opacity:1;" d="M 385.632813 172.308594 C 383.148438 175.109375 379.503906 177.335938 374.691406 178.984375 C 369.484375 180.769531 364.8125 181.257813 360.671875 180.445313 C 355.816406 179.496094 352.640625 176.851563 351.140625 172.519531 C 349.738281 168.46875 350.410156 164.683594 353.15625 161.148438 C 355.859375 157.910156 359.820313 155.394531 365.046875 153.605469 C 369.761719 151.988281 374.101563 151.488281 378.066406 152.105469 C 383.152344 152.898438 386.464844 155.511719 387.996094 159.953125 C 389.605469 164.601563 388.816406 168.71875 385.632813 172.308594 M 362.328125 176.773438 C 365.800781 177.160156 369.480469 176.6875 373.359375 175.355469 C 377.453125 173.949219 380.476563 172.007813 382.414063 169.523438 C 384.355469 167.054688 384.84375 164.417969 383.871094 161.613281 C 382.933594 158.890625 380.921875 157.09375 377.839844 156.226563 C 374.78125 155.351563 370.839844 155.742188 366.011719 157.398438 C 362.148438 158.726563 359.144531 160.578125 356.992188 162.960938 C 354.863281 165.347656 354.371094 168.191406 355.511719 171.5 C 356.597656 174.640625 358.867188 176.398438 362.328125 176.773438 "/>
<path style=" stroke:none;fill-rule:nonzero;fill:rgb(13.299561%,11.799622%,12.199402%);fill-opacity:1;" d="M 369.921875 189.96875 C 367.871094 190.382813 366.253906 191.011719 365.066406 191.867188 C 362.851563 193.484375 361.988281 195.851563 362.484375 198.96875 C 362.707031 200.363281 363.171875 201.597656 363.886719 202.660156 C 365.261719 204.71875 367.273438 205.539063 369.914063 205.121094 C 371.902344 204.808594 373.238281 204.117188 373.9375 203.050781 C 374.609375 201.96875 375.097656 200.375 375.382813 198.257813 L 375.910156 194.359375 C 376.246094 191.808594 376.777344 189.960938 377.492188 188.816406 C 378.734375 186.828125 380.871094 185.59375 383.894531 185.117188 C 387.164063 184.605469 389.988281 185.035156 392.359375 186.410156 C 394.730469 187.789063 396.164063 190.046875 396.660156 193.175781 C 397.121094 196.054688 396.578125 198.644531 395.050781 200.949219 C 393.539063 203.257813 390.757813 204.730469 386.703125 205.367188 L 386.148438 201.871094 C 388.070313 201.378906 389.503906 200.742188 390.445313 199.96875 C 392.167969 198.53125 392.8125 196.453125 392.378906 193.734375 C 392.03125 191.539063 391.167969 190.058594 389.792969 189.289063 C 388.414063 188.523438 386.917969 188.269531 385.296875 188.523438 C 383.515625 188.804688 382.296875 189.570313 381.648438 190.824219 C 381.234375 191.644531 380.84375 193.414063 380.460938 196.132813 L 379.90625 200.167969 C 379.640625 202.117188 379.101563 203.675781 378.285156 204.839844 C 376.859375 206.851563 374.527344 208.117188 371.289063 208.625 C 367.253906 209.261719 364.195313 208.609375 362.105469 206.660156 C 360.019531 204.730469 358.742188 202.296875 358.277344 199.363281 C 357.734375 195.945313 358.464844 193.085938 360.476563 190.792969 C 362.464844 188.492188 365.429688 187.054688 369.367188 186.472656 L 369.921875 189.96875 "/>
<g clip-path="url(#clip1)" clip-rule="nonzero">
<path style=" stroke:none;fill-rule:nonzero;fill:rgb(13.299561%,11.799622%,12.199402%);fill-opacity:1;" d="M 396.25 233.777344 C 393.824219 235.761719 391.046875 236.894531 387.921875 237.160156 L 387.859375 233.484375 C 390.226563 233.03125 392.097656 232.164063 393.464844 230.886719 C 394.828125 229.625 395.496094 227.875 395.453125 225.625 C 395.40625 222.882813 394.089844 220.691406 391.5 219.042969 C 388.925781 217.40625 385.003906 216.636719 379.730469 216.730469 C 375.414063 216.804688 371.925781 217.621094 369.253906 219.183594 C 366.605469 220.757813 365.308594 223.054688 365.363281 226.070313 C 365.410156 228.851563 366.859375 230.941406 369.714844 232.34375 C 371.214844 233.089844 373.183594 233.628906 375.617188 233.964844 L 375.683594 237.640625 C 371.792969 237.378906 368.519531 236.351563 365.863281 234.550781 C 362.660156 232.398438 361.027344 229.445313 360.960938 225.695313 C 360.902344 222.460938 362.152344 219.726563 364.707031 217.484375 C 368.085938 214.527344 373.355469 212.996094 380.519531 212.871094 C 385.960938 212.773438 390.4375 213.78125 393.953125 215.894531 C 397.773438 218.175781 399.722656 221.386719 399.796875 225.511719 C 399.855469 229.035156 398.679688 231.789063 396.25 233.777344 "/>
</g>
<path style=" stroke:none;fill-rule:evenodd;fill:rgb(13.299561%,11.799622%,12.199402%);fill-opacity:1;" d="M 389.207031 269.90625 C 385.695313 271.21875 381.425781 271.476563 376.398438 270.6875 C 370.960938 269.828125 366.609375 268.074219 363.335938 265.425781 C 359.492188 262.3125 357.933594 258.488281 358.652344 253.964844 C 359.324219 249.734375 361.703125 246.703125 365.789063 244.867188 C 369.703125 243.273438 374.390625 242.90625 379.84375 243.765625 C 384.769531 244.542969 388.839844 246.128906 392.046875 248.527344 C 396.164063 251.609375 397.855469 255.46875 397.117188 260.109375 C 396.347656 264.960938 393.710938 268.226563 389.207031 269.90625 M 366.523438 262.953125 C 369.410156 264.917969 372.886719 266.21875 376.933594 266.859375 C 381.214844 267.535156 384.796875 267.226563 387.675781 265.945313 C 390.554688 264.675781 392.226563 262.574219 392.695313 259.640625 C 393.148438 256.796875 392.21875 254.269531 389.910156 252.066406 C 387.613281 249.867188 383.949219 248.363281 378.910156 247.566406 C 374.875 246.933594 371.347656 247.164063 368.324219 248.257813 C 365.320313 249.371094 363.542969 251.652344 362.996094 255.105469 C 362.472656 258.386719 363.648438 261.003906 366.523438 262.953125 "/>
<path style=" stroke:none;fill-rule:nonzero;fill:rgb(13.299561%,11.799622%,12.199402%);fill-opacity:1;" d="M 81.132813 384.425781 L 83.484375 386.9375 L 68.164063 393.785156 L 66.023438 391.496094 L 73.984375 376.789063 L 76.40625 379.375 L 69.933594 390.082031 "/>
<path style=" stroke:none;fill-rule:nonzero;fill:rgb(13.299561%,11.799622%,12.199402%);fill-opacity:1;" d="M 77.160156 402.125 L 74.667969 399.96875 L 85.09375 388.023438 L 87.585938 390.179688 Z M 77.160156 402.125 "/>
<path style=" stroke:none;fill-rule:nonzero;fill:rgb(13.299561%,11.799622%,12.199402%);fill-opacity:1;" d="M 99.1875 399.265625 L 97.496094 401.507813 L 93.699219 398.65625 L 85.828125 409.0625 L 83.15625 407.058594 L 91.027344 396.652344 L 87.210938 393.789063 L 88.910156 391.550781 "/>
<path style=" stroke:none;fill-rule:evenodd;fill:rgb(13.299561%,11.799622%,12.199402%);fill-opacity:1;" d="M 98 410.207031 L 101.421875 412.335938 L 103.050781 406.003906 Z M 103.414063 401.960938 L 106.59375 403.941406 L 102.949219 420.339844 L 99.894531 418.4375 L 100.757813 415.140625 L 95.792969 412.046875 L 93.128906 414.226563 L 90.183594 412.394531 "/>
<path style=" stroke:none;fill-rule:nonzero;fill:rgb(13.299561%,11.799622%,12.199402%);fill-opacity:1;" d="M 122.816406 412.515625 L 127.109375 414.601563 L 120.144531 428.832031 L 117.363281 427.476563 L 122.074219 417.855469 C 122.210938 417.578125 122.402344 417.195313 122.648438 416.703125 C 122.902344 416.203125 123.09375 415.816406 123.230469 415.546875 L 114.679688 426.175781 L 111.777344 424.765625 L 114.941406 411.523438 C 114.808594 411.789063 114.625 412.179688 114.386719 412.6875 C 114.152344 413.183594 113.964844 413.574219 113.828125 413.847656 L 109.117188 423.472656 L 106.335938 422.121094 L 113.300781 407.894531 L 117.644531 410 L 114.761719 422.453125 L 122.816406 412.515625 "/>
<path style=" stroke:none;fill-rule:nonzero;fill:rgb(13.299561%,11.799622%,12.199402%);fill-opacity:1;" d="M 133.738281 433.679688 L 130.617188 432.609375 L 135.792969 417.640625 L 138.910156 418.710938 Z M 133.738281 433.679688 "/>
<path style=" stroke:none;fill-rule:nonzero;fill:rgb(13.299561%,11.799622%,12.199402%);fill-opacity:1;" d="M 152.121094 422.503906 L 156.734375 423.738281 L 152.621094 439.027344 L 149.632813 438.234375 L 152.414063 427.890625 C 152.492188 427.589844 152.609375 427.175781 152.761719 426.644531 C 152.914063 426.109375 153.027344 425.695313 153.105469 425.402344 L 146.746094 437.460938 L 143.636719 436.628906 L 144.199219 423.027344 C 144.121094 423.316406 144.015625 423.734375 143.878906 424.277344 C 143.742188 424.808594 143.632813 425.226563 143.554688 425.523438 L 140.769531 435.867188 L 137.78125 435.070313 L 141.894531 419.777344 L 146.558594 421.019531 L 146.113281 433.789063 L 152.121094 422.503906 "/>
<path style=" stroke:none;fill-rule:evenodd;fill:rgb(13.299561%,11.799622%,12.199402%);fill-opacity:1;" d="M 167.632813 428.867188 C 167.265625 428.457031 166.691406 428.183594 165.917969 428.0625 L 162.859375 427.582031 L 162.128906 432.1875 L 165.1875 432.664063 C 165.960938 432.789063 166.589844 432.699219 167.070313 432.390625 C 167.566406 432.085938 167.875 431.523438 168.007813 430.707031 C 168.136719 429.898438 168.011719 429.285156 167.632813 428.867188 M 169.230469 434.894531 C 168.171875 435.511719 166.773438 435.679688 165.03125 435.40625 L 161.699219 434.878906 L 160.808594 440.5 L 157.550781 439.988281 L 160.03125 424.351563 L 166.871094 425.429688 C 168.449219 425.679688 169.636719 426.28125 170.449219 427.234375 C 171.257813 428.1875 171.523438 429.511719 171.257813 431.203125 C 170.964844 433.046875 170.289063 434.277344 169.230469 434.894531 "/>
<g clip-path="url(#clip2)" clip-rule="nonzero">
<path style=" stroke:none;fill-rule:nonzero;fill:rgb(13.299561%,11.799622%,12.199402%);fill-opacity:1;" d="M 186.089844 430.488281 L 177.710938 429.757813 L 177.417969 433.105469 L 185.109375 433.777344 L 184.867188 436.515625 L 177.175781 435.847656 L 176.820313 439.902344 L 185.582031 440.664063 L 185.335938 443.5 L 173.339844 442.453125 L 174.722656 426.6875 L 186.332031 427.695313 "/>
</g>
<g clip-path="url(#clip3)" clip-rule="nonzero">
<path style=" stroke:none;fill-rule:nonzero;fill:rgb(13.299561%,11.799622%,12.199402%);fill-opacity:1;" d="M 189.378906 427.859375 L 192.863281 427.917969 L 198.996094 439.078125 L 199.1875 428.027344 L 202.28125 428.082031 L 202.003906 443.910156 L 198.6875 443.855469 L 192.390625 432.496094 L 192.199219 443.738281 L 189.101563 443.6875 "/>
</g>
<g clip-path="url(#clip4)" clip-rule="nonzero">
<path style=" stroke:none;fill-rule:evenodd;fill:rgb(13.299561%,11.799622%,12.199402%);fill-opacity:1;" d="M 208.945313 430.3125 L 209.671875 440.617188 L 212.722656 440.402344 C 214.289063 440.296875 215.320313 439.449219 215.835938 437.875 C 216.109375 437.003906 216.207031 435.996094 216.125 434.828125 C 216.015625 433.222656 215.675781 432.007813 215.105469 431.183594 C 214.539063 430.355469 213.503906 429.992188 212 430.097656 Z M 214.84375 427.488281 C 215.980469 427.773438 216.929688 428.382813 217.683594 429.304688 C 218.292969 430.050781 218.726563 430.875 218.992188 431.773438 C 219.257813 432.675781 219.417969 433.539063 219.476563 434.371094 C 219.625 436.46875 219.328125 438.273438 218.585938 439.792969 C 217.570313 441.835938 215.871094 442.941406 213.476563 443.109375 L 206.648438 443.582031 L 205.539063 427.792969 L 212.367188 427.3125 C 213.347656 427.261719 214.179688 427.316406 214.84375 427.488281 "/>
</g>
<path style=" stroke:none;fill-rule:nonzero;fill:rgb(13.299561%,11.799622%,12.199402%);fill-opacity:1;" d="M 233.640625 427.449219 L 225.335938 428.761719 L 225.863281 432.082031 L 233.488281 430.878906 L 233.917969 433.59375 L 226.296875 434.792969 L 226.9375 438.820313 L 235.621094 437.445313 L 236.070313 440.257813 L 224.179688 442.132813 L 221.691406 426.496094 L 233.203125 424.683594 "/>
<path style=" stroke:none;fill-rule:evenodd;fill:rgb(13.299561%,11.799622%,12.199402%);fill-opacity:1;" d="M 240.15625 425.859375 L 241.1875 429.984375 L 244.839844 429.082031 C 245.566406 428.898438 246.089844 428.683594 246.410156 428.425781 C 246.980469 427.976563 247.152344 427.316406 246.9375 426.457031 C 246.707031 425.527344 246.238281 424.976563 245.535156 424.8125 C 245.144531 424.714844 244.597656 424.757813 243.902344 424.929688 Z M 246.492188 421.875 C 247.140625 421.972656 247.722656 422.207031 248.246094 422.578125 C 248.679688 422.882813 249.050781 423.25 249.363281 423.671875 C 249.675781 424.097656 249.910156 424.609375 250.058594 425.214844 C 250.246094 425.945313 250.238281 426.710938 250.046875 427.511719 C 249.851563 428.304688 249.367188 428.953125 248.589844 429.453125 C 249.371094 429.566406 249.972656 429.84375 250.402344 430.296875 C 250.832031 430.746094 251.179688 431.507813 251.449219 432.582031 L 251.710938 433.617188 C 251.882813 434.320313 252.03125 434.789063 252.148438 435.023438 C 252.332031 435.398438 252.601563 435.644531 252.957031 435.753906 L 253.050781 436.136719 L 249.507813 437.019531 C 249.320313 436.703125 249.179688 436.449219 249.089844 436.25 C 248.898438 435.839844 248.742188 435.410156 248.621094 434.960938 L 248.246094 433.535156 C 247.984375 432.558594 247.640625 431.953125 247.210938 431.714844 C 246.785156 431.472656 246.101563 431.46875 245.152344 431.703125 L 241.824219 432.53125 L 243.332031 438.554688 L 240.183594 439.339844 L 236.339844 423.972656 L 243.902344 422.097656 C 244.988281 421.847656 245.851563 421.773438 246.492188 421.875 "/>
<path style=" stroke:none;fill-rule:nonzero;fill:rgb(13.299561%,11.799622%,12.199402%);fill-opacity:1;" d="M 263.855469 418.726563 L 255.902344 421.453125 L 257.003906 424.636719 L 264.300781 422.128906 L 265.199219 424.730469 L 257.898438 427.234375 L 259.230469 431.082031 L 267.550781 428.230469 L 268.480469 430.921875 L 257.09375 434.828125 L 251.917969 419.859375 L 262.9375 416.078125 "/>
<path style=" stroke:none;fill-rule:nonzero;fill:rgb(13.299561%,11.799622%,12.199402%);fill-opacity:1;" d="M 279.898438 408.328125 L 282.972656 406.765625 L 285.355469 423.324219 L 282.558594 424.746094 L 270.5625 413.066406 L 273.722656 411.460938 L 282.269531 420.609375 "/>
<path style=" stroke:none;fill-rule:nonzero;fill:rgb(13.299561%,11.799622%,12.199402%);fill-opacity:1;" d="M 296.289063 401.894531 L 289.152344 406.332031 L 290.941406 409.183594 L 297.492188 405.109375 L 298.953125 407.441406 L 292.40625 411.519531 L 294.570313 414.96875 L 302.03125 410.324219 L 303.546875 412.738281 L 293.335938 419.09375 L 284.910156 405.667969 L 294.792969 399.515625 "/>
<path style=" stroke:none;fill-rule:evenodd;fill:rgb(13.299561%,11.799622%,12.199402%);fill-opacity:1;" d="M 301.722656 397.859375 L 304.355469 401.214844 L 307.316406 398.90625 C 307.910156 398.445313 308.296875 398.035156 308.484375 397.671875 C 308.816406 397.027344 308.710938 396.359375 308.164063 395.65625 C 307.570313 394.898438 306.917969 394.589844 306.214844 394.722656 C 305.8125 394.792969 305.332031 395.050781 304.765625 395.492188 Z M 305.886719 391.652344 C 306.515625 391.476563 307.144531 391.457031 307.777344 391.585938 C 308.296875 391.6875 308.78125 391.875 309.246094 392.132813 C 309.703125 392.390625 310.125 392.769531 310.507813 393.257813 C 310.972656 393.851563 311.285156 394.554688 311.433594 395.359375 C 311.582031 396.167969 311.402344 396.953125 310.894531 397.730469 C 311.65625 397.507813 312.320313 397.523438 312.898438 397.765625 C 313.472656 398 314.101563 398.554688 314.785156 399.429688 L 315.445313 400.265625 C 315.890625 400.835938 316.214844 401.207031 316.421875 401.371094 C 316.742188 401.644531 317.085938 401.757813 317.457031 401.714844 L 317.703125 402.027344 L 314.820313 404.269531 C 314.523438 404.050781 314.292969 403.875 314.128906 403.730469 C 313.785156 403.433594 313.464844 403.105469 313.175781 402.742188 L 312.246094 401.597656 C 311.609375 400.808594 311.050781 400.394531 310.558594 400.347656 C 310.070313 400.296875 309.441406 400.574219 308.675781 401.171875 L 305.96875 403.277344 L 309.808594 408.171875 L 307.25 410.160156 L 297.46875 397.683594 L 303.613281 392.90625 C 304.503906 392.238281 305.261719 391.820313 305.886719 391.652344 "/>
<path style=" stroke:none;fill-rule:evenodd;fill:rgb(13.299561%,11.799622%,12.199402%);fill-opacity:1;" d="M 325.835938 388.40625 C 325.65625 387.179688 324.910156 385.960938 323.601563 384.742188 C 322.300781 383.53125 321.027344 382.878906 319.789063 382.785156 C 318.546875 382.683594 317.480469 383.109375 316.582031 384.070313 C 315.6875 385.023438 315.324219 386.121094 315.503906 387.347656 C 315.675781 388.582031 316.421875 389.804688 317.726563 391.019531 C 319.039063 392.234375 320.3125 392.890625 321.558594 392.972656 C 322.804688 393.0625 323.871094 392.632813 324.769531 391.671875 C 325.664063 390.714844 326.019531 389.621094 325.835938 388.40625 M 329.019531 388.527344 C 329.109375 390.246094 328.371094 391.929688 326.828125 393.582031 C 325.277344 395.238281 323.640625 396.082031 321.921875 396.117188 C 319.714844 396.257813 317.566406 395.363281 315.476563 393.421875 C 313.347656 391.445313 312.300781 389.375 312.332031 387.210938 C 312.246094 385.496094 312.980469 383.8125 314.523438 382.15625 C 316.074219 380.5 317.714844 379.65625 319.433594 379.621094 C 321.59375 379.445313 323.738281 380.347656 325.867188 382.324219 C 327.953125 384.265625 329.007813 386.332031 329.019531 388.527344 "/>
<path style=" stroke:none;fill-rule:nonzero;fill:rgb(13.299561%,11.799622%,12.199402%);fill-opacity:1;" d="M 152.136719 140.355469 L 164.761719 140.355469 L 164.761719 168.613281 L 182.578125 168.613281 L 182.578125 180.675781 L 164.761719 180.675781 L 164.761719 311.371094 L 152.136719 311.371094 L 152.136719 180.675781 L 133.628906 180.675781 L 133.628906 168.613281 L 152.136719 168.613281 "/>
<path style=" stroke:none;fill-rule:nonzero;fill:rgb(100%,94.499207%,0%);fill-opacity:1;" d="M 150.558594 138.785156 L 163.183594 138.785156 L 163.183594 167.046875 L 181 167.046875 L 181 179.105469 L 163.183594 179.105469 L 163.183594 309.804688 L 150.558594 309.804688 L 150.558594 179.105469 L 132.050781 179.105469 L 132.050781 167.046875 L 150.558594 167.046875 "/>
<path style=" stroke:none;fill-rule:nonzero;fill:rgb(100%,100%,100%);fill-opacity:1;" d="M 138.570313 309.4375 C 138.570313 299.191406 146.910156 290.886719 157.191406 290.886719 C 167.476563 290.886719 175.8125 299.191406 175.8125 309.4375 C 175.8125 319.679688 167.476563 327.988281 157.191406 327.988281 C 146.910156 327.988281 138.570313 319.679688 138.570313 309.4375 "/>
<path style=" stroke:none;fill-rule:evenodd;fill:rgb(92.89856%,10.998535%,13.699341%);fill-opacity:1;" d="M 133.257813 303.605469 L 129.914063 301.472656 L 132.070313 296.144531 L 135.964844 296.925781 C 136.394531 296.199219 136.863281 295.5 137.371094 294.820313 L 135.105469 291.523438 L 139.179688 287.460938 L 142.484375 289.714844 C 143.042969 289.296875 143.625 288.90625 144.222656 288.539063 L 143.359375 284.609375 L 148.660156 282.363281 L 150.886719 285.703125 C 151.6875 285.492188 152.511719 285.324219 153.34375 285.195313 L 154.089844 281.234375 L 159.859375 281.234375 L 160.597656 285.167969 C 161.289063 285.269531 161.972656 285.398438 162.648438 285.554688 L 164.832031 282.160156 L 170.171875 284.308594 L 169.382813 288.226563 C 170.109375 288.648438 170.816406 289.109375 171.492188 289.601563 L 174.820313 287.332031 L 178.898438 291.394531 L 176.648438 294.671875 C 177.105469 295.28125 177.539063 295.914063 177.941406 296.566406 L 181.8125 295.71875 L 184.0625 301.007813 L 180.765625 303.191406 C 180.980469 304.015625 181.152344 304.855469 181.277344 305.707031 L 185.132813 306.429688 L 185.132813 312.171875 L 181.277344 312.894531 C 181.171875 313.609375 181.035156 314.320313 180.863281 315.015625 L 184.136719 317.101563 L 181.976563 322.429688 L 178.167969 321.664063 C 177.71875 322.417969 177.234375 323.144531 176.710938 323.851563 L 178.886719 327.019531 L 174.8125 331.078125 L 171.621094 328.902344 C 171.027344 329.339844 170.414063 329.753906 169.785156 330.136719 L 170.601563 333.859375 L 165.300781 336.101563 L 163.175781 332.917969 C 162.316406 333.136719 161.445313 333.308594 160.558594 333.4375 L 159.859375 337.175781 L 154.089844 337.175781 L 153.382813 333.410156 C 152.640625 333.300781 151.914063 333.15625 151.195313 332.980469 L 149.140625 336.175781 L 143.796875 334.023438 L 144.554688 330.265625 C 143.792969 329.8125 143.058594 329.324219 142.355469 328.789063 L 139.191406 330.953125 L 135.113281 326.890625 L 137.304688 323.699219 C 136.90625 323.160156 136.535156 322.601563 136.183594 322.03125 L 132.378906 322.867188 L 130.125 317.578125 L 133.367188 315.429688 C 133.152344 314.605469 132.976563 313.757813 132.851563 312.898438 L 128.980469 312.171875 L 128.980469 306.429688 L 132.851563 305.707031 C 132.957031 304.992188 133.09375 304.292969 133.257813 303.605469 M 157.0625 291.566406 C 147.230469 291.566406 139.257813 299.503906 139.257813 309.300781 C 139.257813 319.09375 147.230469 327.039063 157.0625 327.039063 C 166.898438 327.039063 174.867188 319.09375 174.867188 309.300781 C 174.867188 299.503906 166.898438 291.566406 157.0625 291.566406 "/>
<path style=" stroke:none;fill-rule:nonzero;fill:rgb(13.299561%,11.799622%,12.199402%);fill-opacity:1;" d="M 155.140625 300.964844 C 154.113281 300.519531 153.136719 300.171875 152.207031 299.910156 C 151.824219 300.988281 151.511719 302.195313 151.273438 303.523438 C 151.65625 303.226563 152.054688 302.941406 152.460938 302.65625 C 153.335938 302.046875 154.234375 301.480469 155.140625 300.964844 M 166.421875 309.210938 C 166.007813 308.726563 165.558594 308.234375 165.066406 307.742188 C 165.085938 308.234375 165.097656 308.722656 165.097656 309.210938 C 165.097656 309.703125 165.085938 310.195313 165.066406 310.679688 C 165.558594 310.1875 166.007813 309.699219 166.421875 309.210938 M 163.628906 318.902344 C 166.386719 319.378906 168.457031 318.949219 169.300781 317.746094 C 170.308594 316.3125 169.683594 313.613281 167.511719 310.597656 C 166.71875 311.503906 165.824219 312.398438 164.859375 313.253906 C 164.621094 315.277344 164.203125 317.195313 163.628906 318.902344 M 158.992188 317.460938 C 160.015625 317.902344 160.996094 318.253906 161.925781 318.515625 C 162.304688 317.4375 162.621094 316.226563 162.859375 314.898438 C 162.46875 315.195313 162.074219 315.484375 161.671875 315.765625 C 160.796875 316.378906 159.898438 316.945313 158.992188 317.460938 M 150.929688 312.398438 C 151.707031 313.050781 152.550781 313.703125 153.464844 314.339844 C 154.683594 315.195313 155.890625 315.921875 157.066406 316.535156 C 158.238281 315.921875 159.445313 315.195313 160.667969 314.339844 C 161.578125 313.703125 162.425781 313.050781 163.203125 312.398438 C 163.292969 311.382813 163.347656 310.320313 163.347656 309.210938 C 163.347656 308.105469 163.292969 307.042969 163.203125 306.027344 C 162.425781 305.371094 161.578125 304.71875 160.667969 304.085938 C 159.445313 303.230469 158.238281 302.503906 157.066406 301.886719 C 155.890625 302.503906 154.683594 303.230469 153.464844 304.085938 C 152.550781 304.71875 151.707031 305.371094 150.929688 306.027344 C 150.835938 307.042969 150.785156 308.105469 150.785156 309.210938 C 150.785156 310.320313 150.835938 311.382813 150.929688 312.398438 M 147.707031 309.210938 C 148.121094 309.699219 148.574219 310.1875 149.066406 310.679688 C 149.046875 310.195313 149.039063 309.703125 149.039063 309.210938 C 149.039063 308.722656 149.046875 308.234375 149.066406 307.742188 C 148.574219 308.234375 148.121094 308.726563 147.707031 309.210938 M 144.828125 300.675781 C 143.820313 302.113281 144.449219 304.808594 146.621094 307.824219 C 147.417969 306.921875 148.304688 306.027344 149.273438 305.167969 C 149.511719 303.148438 149.929688 301.230469 150.503906 299.523438 C 147.742188 299.046875 145.675781 299.476563 144.828125 300.675781 M 149.273438 313.253906 C 148.304688 312.398438 147.417969 311.503906 146.621094 310.597656 C 144.449219 313.613281 143.820313 316.3125 144.828125 317.746094 C 145.675781 318.949219 147.742188 319.378906 150.503906 318.902344 C 149.929688 317.195313 149.511719 315.277344 149.273438 313.253906 M 155.140625 317.460938 C 154.234375 316.945313 153.335938 316.378906 152.460938 315.765625 C 152.054688 315.484375 151.65625 315.195313 151.273438 314.898438 C 151.511719 316.226563 151.824219 317.4375 152.207031 318.515625 C 153.136719 318.253906 154.113281 317.902344 155.140625 317.460938 M 161.269531 320.125 C 159.90625 319.722656 158.484375 319.167969 157.066406 318.476563 C 155.648438 319.167969 154.226563 319.722656 152.863281 320.125 C 154.050781 322.652344 155.59375 324.097656 157.066406 324.097656 C 158.535156 324.097656 160.078125 322.652344 161.269531 320.125 M 164.859375 305.167969 C 165.824219 306.027344 166.71875 306.921875 167.511719 307.824219 C 169.683594 304.808594 170.308594 302.113281 169.300781 300.675781 C 168.457031 299.476563 166.386719 299.046875 163.628906 299.523438 C 164.203125 301.230469 164.621094 303.148438 164.859375 305.167969 M 158.992188 300.964844 C 159.898438 301.480469 160.796875 302.046875 161.671875 302.65625 C 162.074219 302.941406 162.46875 303.226563 162.859375 303.523438 C 162.621094 302.195313 162.304688 300.988281 161.925781 299.910156 C 160.996094 300.171875 160.015625 300.519531 158.992188 300.964844 M 152.863281 298.300781 C 154.226563 298.699219 155.648438 299.261719 157.066406 299.945313 C 158.484375 299.261719 159.90625 298.699219 161.269531 298.300781 C 160.078125 295.773438 158.535156 294.328125 157.066406 294.328125 C 155.59375 294.328125 154.046875 295.773438 152.863281 298.300781 M 143.394531 299.679688 C 144.824219 297.640625 147.722656 297.183594 151.136719 297.867188 C 152.535156 294.6875 154.570313 292.585938 157.066406 292.585938 C 159.5625 292.585938 161.597656 294.6875 162.992188 297.867188 C 166.410156 297.183594 169.300781 297.640625 170.734375 299.679688 C 172.433594 302.09375 171.328125 305.679688 168.648438 309.210938 C 171.328125 312.742188 172.433594 316.328125 170.734375 318.746094 C 169.300781 320.785156 166.410156 321.242188 162.992188 320.554688 C 161.597656 323.734375 159.5625 325.835938 157.066406 325.835938 C 154.570313 325.835938 152.535156 323.734375 151.136719 320.554688 C 147.722656 321.238281 144.824219 320.785156 143.394531 318.746094 C 141.695313 316.328125 142.804688 312.742188 145.484375 309.210938 C 142.804688 305.679688 141.695313 302.09375 143.394531 299.679688 "/>
<path style=" stroke:none;fill-rule:nonzero;fill:rgb(100%,100%,100%);fill-opacity:1;" d="M 212.0625 224.5 L 212.0625 254.625 L 256.167969 254.625 L 261.4375 240.359375 L 253.339844 223.9375 "/>
<path style=" stroke:none;fill-rule:nonzero;fill:rgb(100%,100%,100%);fill-opacity:1;" d="M 212.0625 272.277344 L 212.0625 302.402344 L 256.167969 302.402344 L 261.4375 288.132813 L 253.339844 271.714844 "/>
<path style=" stroke:none;fill-rule:evenodd;fill:rgb(50.19989%,50.999451%,51.799011%);fill-opacity:1;" d="M 263.105469 301.148438 C 269.941406 303.957031 274.75 310.664063 274.75 318.480469 C 274.75 328.257813 267.238281 336.28125 257.652344 337.144531 L 256.726563 337.210938 L 255.9375 337.222656 L 255.148438 337.210938 L 198.464844 337.210938 L 198.464844 268.613281 L 257.652344 268.613281 C 266.554688 269.15625 273.617188 276.515625 273.617188 285.515625 C 273.617188 292.574219 269.273438 298.617188 263.105469 301.148438 M 215.796875 275.707031 L 215.796875 298.164063 L 246.816406 298.164063 C 246.816406 298.164063 257.746094 298.277344 257.746094 286.601563 C 257.746094 274.921875 247.035156 275.820313 247.035156 275.820313 L 215.796875 275.707031 "/>
<path style=" stroke:none;fill-rule:nonzero;fill:rgb(13.299561%,11.799622%,12.199402%);fill-opacity:1;" d="M 220.527344 306.117188 C 220.527344 306.117188 230.046875 306.941406 233.605469 310.539063 L 233.605469 326.101563 C 233.605469 326.101563 223.6875 321.820313 215.890625 321.617188 "/>
<path style="fill:none;stroke-width:0.96;stroke-linecap:butt;stroke-linejoin:miter;stroke:rgb(13.299561%,11.799622%,12.199402%);stroke-opacity:1;stroke-miterlimit:3.864;" d="M 2205.273438 1377.928125 C 2205.273438 1377.928125 2300.46875 1369.685937 2336.054688 1333.709375 L 2336.054688 1178.084375 C 2336.054688 1178.084375 2236.875 1220.896875 2158.90625 1222.928125 Z M 2205.273438 1377.928125 " transform="matrix(0.1,0,0,-0.1,0,443.91)"/>
<path style=" stroke:none;fill-rule:nonzero;fill:rgb(13.299561%,11.799622%,12.199402%);fill-opacity:1;" d="M 248.679688 306.117188 C 248.679688 306.117188 239.15625 306.941406 235.601563 310.539063 L 235.601563 326.101563 C 235.601563 326.101563 245.515625 321.820313 253.3125 321.617188 "/>
<path style="fill:none;stroke-width:0.96;stroke-linecap:butt;stroke-linejoin:miter;stroke:rgb(13.299561%,11.799622%,12.199402%);stroke-opacity:1;stroke-miterlimit:3.864;" d="M 2486.796875 1377.928125 C 2486.796875 1377.928125 2391.5625 1369.685937 2356.015625 1333.709375 L 2356.015625 1178.084375 C 2356.015625 1178.084375 2455.15625 1220.896875 2533.125 1222.928125 Z M 2486.796875 1377.928125 " transform="matrix(0.1,0,0,-0.1,0,443.91)"/>
<path style=" stroke:none;fill-rule:nonzero;fill:rgb(13.299561%,11.799622%,12.199402%);fill-opacity:1;" d="M 220.527344 308.425781 C 220.527344 308.425781 230.046875 309.246094 233.605469 312.847656 L 233.605469 328.40625 C 233.605469 328.40625 223.6875 324.125 215.890625 323.921875 "/>
<path style="fill:none;stroke-width:0.96;stroke-linecap:butt;stroke-linejoin:miter;stroke:rgb(13.299561%,11.799622%,12.199402%);stroke-opacity:1;stroke-miterlimit:3.864;" d="M 2205.273438 1354.842187 C 2205.273438 1354.842187 2300.46875 1346.639062 2336.054688 1310.623437 L 2336.054688 1155.0375 C 2336.054688 1155.0375 2236.875 1197.85 2158.90625 1199.88125 Z M 2205.273438 1354.842187 " transform="matrix(0.1,0,0,-0.1,0,443.91)"/>
<path style=" stroke:none;fill-rule:nonzero;fill:rgb(13.299561%,11.799622%,12.199402%);fill-opacity:1;" d="M 248.679688 308.425781 C 248.679688 308.425781 239.15625 309.246094 235.601563 312.847656 L 235.601563 328.40625 C 235.601563 328.40625 245.515625 324.125 253.3125 323.921875 "/>
<path style="fill:none;stroke-width:0.96;stroke-linecap:butt;stroke-linejoin:miter;stroke:rgb(13.299561%,11.799622%,12.199402%);stroke-opacity:1;stroke-miterlimit:3.864;" d="M 2486.796875 1354.842187 C 2486.796875 1354.842187 2391.5625 1346.639062 2356.015625 1310.623437 L 2356.015625 1155.0375 C 2356.015625 1155.0375 2455.15625 1197.85 2533.125 1199.88125 Z M 2486.796875 1354.842187 " transform="matrix(0.1,0,0,-0.1,0,443.91)"/>
<path style=" stroke:none;fill-rule:nonzero;fill:rgb(13.299561%,11.799622%,12.199402%);fill-opacity:1;" d="M 220.527344 307.132813 C 220.527344 307.132813 230.046875 307.960938 233.605469 311.558594 L 233.605469 327.113281 C 233.605469 327.113281 223.6875 322.832031 215.890625 322.632813 "/>
<path style="fill:none;stroke-width:0.96;stroke-linecap:butt;stroke-linejoin:miter;stroke:rgb(13.299561%,11.799622%,12.199402%);stroke-opacity:1;stroke-miterlimit:3.864;" d="M 2205.273438 1367.771875 C 2205.273438 1367.771875 2300.46875 1359.529687 2336.054688 1323.514062 L 2336.054688 1167.967187 C 2336.054688 1167.967187 2236.875 1210.779687 2158.90625 1212.771875 Z M 2205.273438 1367.771875 " transform="matrix(0.1,0,0,-0.1,0,443.91)"/>
<path style=" stroke:none;fill-rule:nonzero;fill:rgb(13.299561%,11.799622%,12.199402%);fill-opacity:1;" d="M 248.679688 307.132813 C 248.679688 307.132813 239.15625 307.960938 235.601563 311.558594 L 235.601563 327.113281 C 235.601563 327.113281 245.515625 322.832031 253.3125 322.632813 "/>
<path style="fill:none;stroke-width:0.96;stroke-linecap:butt;stroke-linejoin:miter;stroke:rgb(13.299561%,11.799622%,12.199402%);stroke-opacity:1;stroke-miterlimit:3.864;" d="M 2486.796875 1367.771875 C 2486.796875 1367.771875 2391.5625 1359.529687 2356.015625 1323.514062 L 2356.015625 1167.967187 C 2356.015625 1167.967187 2455.15625 1210.779687 2533.125 1212.771875 Z M 2486.796875 1367.771875 " transform="matrix(0.1,0,0,-0.1,0,443.91)"/>
<path style=" stroke:none;fill-rule:nonzero;fill:rgb(13.299561%,11.799622%,12.199402%);fill-opacity:1;" d="M 220.527344 309.71875 C 220.527344 309.71875 230.046875 310.539063 233.605469 314.140625 L 233.605469 329.699219 C 233.605469 329.699219 223.6875 325.417969 215.890625 325.21875 "/>
<path style="fill:none;stroke-width:0.96;stroke-linecap:butt;stroke-linejoin:miter;stroke:rgb(13.299561%,11.799622%,12.199402%);stroke-opacity:1;stroke-miterlimit:3.864;" d="M 2205.273438 1341.9125 C 2205.273438 1341.9125 2300.46875 1333.709375 2336.054688 1297.69375 L 2336.054688 1142.107812 C 2336.054688 1142.107812 2236.875 1184.920312 2158.90625 1186.9125 Z M 2205.273438 1341.9125 " transform="matrix(0.1,0,0,-0.1,0,443.91)"/>
<path style=" stroke:none;fill-rule:nonzero;fill:rgb(13.299561%,11.799622%,12.199402%);fill-opacity:1;" d="M 248.679688 309.71875 C 248.679688 309.71875 239.15625 310.539063 235.601563 314.140625 L 235.601563 329.699219 C 235.601563 329.699219 245.515625 325.417969 253.3125 325.21875 "/>
<path style="fill:none;stroke-width:0.96;stroke-linecap:butt;stroke-linejoin:miter;stroke:rgb(13.299561%,11.799622%,12.199402%);stroke-opacity:1;stroke-miterlimit:3.864;" d="M 2486.796875 1341.9125 C 2486.796875 1341.9125 2391.5625 1333.709375 2356.015625 1297.69375 L 2356.015625 1142.107812 C 2356.015625 1142.107812 2455.15625 1184.920312 2533.125 1186.9125 Z M 2486.796875 1341.9125 " transform="matrix(0.1,0,0,-0.1,0,443.91)"/>
<path style=" stroke:none;fill-rule:nonzero;fill:rgb(13.299561%,11.799622%,12.199402%);fill-opacity:1;" d="M 220.527344 311.074219 C 220.527344 311.074219 230.046875 311.902344 233.605469 315.503906 L 233.605469 331.058594 C 233.605469 331.058594 223.6875 326.777344 215.890625 326.574219 "/>
<path style="fill:none;stroke-width:0.96;stroke-linecap:butt;stroke-linejoin:miter;stroke:rgb(13.299561%,11.799622%,12.199402%);stroke-opacity:1;stroke-miterlimit:3.864;" d="M 2205.273438 1328.357812 C 2205.273438 1328.357812 2300.46875 1320.115625 2336.054688 1284.1 L 2336.054688 1128.514062 C 2336.054688 1128.514062 2236.875 1171.326562 2158.90625 1173.357812 Z M 2205.273438 1328.357812 " transform="matrix(0.1,0,0,-0.1,0,443.91)"/>
<path style=" stroke:none;fill-rule:nonzero;fill:rgb(13.299561%,11.799622%,12.199402%);fill-opacity:1;" d="M 248.679688 311.074219 C 248.679688 311.074219 239.15625 311.902344 235.601563 315.503906 L 235.601563 331.058594 C 235.601563 331.058594 245.515625 326.777344 253.3125 326.574219 "/>
<path style="fill:none;stroke-width:0.96;stroke-linecap:butt;stroke-linejoin:miter;stroke:rgb(13.299561%,11.799622%,12.199402%);stroke-opacity:1;stroke-miterlimit:3.864;" d="M 2486.796875 1328.357812 C 2486.796875 1328.357812 2391.5625 1320.115625 2356.015625 1284.1 L 2356.015625 1128.514062 C 2356.015625 1128.514062 2455.15625 1171.326562 2533.125 1173.357812 Z M 2486.796875 1328.357812 " transform="matrix(0.1,0,0,-0.1,0,443.91)"/>
<path style=" stroke:none;fill-rule:nonzero;fill:rgb(13.299561%,11.799622%,12.199402%);fill-opacity:1;" d="M 232.925781 326.464844 L 236.710938 326.464844 L 236.710938 309.347656 L 232.925781 309.347656 Z M 232.925781 326.464844 "/>
<path style=" stroke:none;fill-rule:nonzero;fill:rgb(100%,100%,100%);fill-opacity:1;" d="M 231.027344 328.066406 C 231.027344 326.320313 232.601563 324.90625 234.546875 324.90625 C 236.496094 324.90625 238.070313 326.320313 238.070313 328.066406 C 238.070313 329.808594 236.496094 331.222656 234.546875 331.222656 C 232.601563 331.222656 231.027344 329.808594 231.027344 328.066406 "/>
<path style=" stroke:none;fill-rule:nonzero;fill:rgb(100%,100%,100%);fill-opacity:1;" d="M 220.527344 305.003906 C 220.527344 305.003906 230.046875 305.832031 233.605469 309.429688 L 233.605469 324.984375 C 233.605469 324.984375 223.6875 320.703125 215.890625 320.5 "/>
<path style="fill:none;stroke-width:0.96;stroke-linecap:butt;stroke-linejoin:miter;stroke:rgb(13.299561%,11.799622%,12.199402%);stroke-opacity:1;stroke-miterlimit:3.864;" d="M 2205.273438 1389.060937 C 2205.273438 1389.060937 2300.46875 1380.81875 2336.054688 1344.803125 L 2336.054688 1189.25625 C 2336.054688 1189.25625 2236.875 1232.06875 2158.90625 1234.1 Z M 2205.273438 1389.060937 " transform="matrix(0.1,0,0,-0.1,0,443.91)"/>
<path style=" stroke:none;fill-rule:nonzero;fill:rgb(100%,100%,100%);fill-opacity:1;" d="M 248.679688 305.003906 C 248.679688 305.003906 239.15625 305.832031 235.601563 309.429688 L 235.601563 324.984375 C 235.601563 324.984375 245.515625 320.703125 253.3125 320.5 "/>
<path style="fill:none;stroke-width:0.96;stroke-linecap:butt;stroke-linejoin:miter;stroke:rgb(13.299561%,11.799622%,12.199402%);stroke-opacity:1;stroke-miterlimit:3.864;" d="M 2486.796875 1389.060937 C 2486.796875 1389.060937 2391.5625 1380.81875 2356.015625 1344.803125 L 2356.015625 1189.25625 C 2356.015625 1189.25625 2455.15625 1232.06875 2533.125 1234.1 Z M 2486.796875 1389.060937 " transform="matrix(0.1,0,0,-0.1,0,443.91)"/>
<path style=" stroke:none;fill-rule:evenodd;fill:rgb(50.19989%,50.999451%,51.799011%);fill-opacity:1;" d="M 248.679688 226.992188 C 253.539063 226.992188 257.355469 232.710938 257.355469 239.769531 C 257.355469 246.820313 253.539063 252.546875 248.824219 252.546875 C 248.464844 252.546875 248.109375 252.507813 247.761719 252.445313 L 215.792969 252.445313 L 215.792969 226.992188 Z M 254.917969 220.011719 C 265.867188 220.011719 274.746094 228.851563 274.746094 239.757813 C 274.746094 250.664063 265.867188 259.511719 254.917969 259.511719 L 198.464844 259.503906 L 198.464844 220.015625 L 254.917969 220.011719 "/>
<path style=" stroke:none;fill-rule:evenodd;fill:rgb(13.299561%,11.799622%,12.199402%);fill-opacity:1;" d="M 215.519531 196.855469 C 215.519531 196.855469 219.539063 204.890625 230.65625 210.15625 C 230.65625 210.15625 238.140625 214.460938 239.816406 213.0625 C 241.503906 211.660156 243.871094 206.125 249.148438 203.21875 C 254.433594 200.3125 258.726563 196.175781 261.234375 195.898438 C 261.234375 195.898438 263.429688 195.351563 259.550781 193.269531 C 255.671875 191.183594 254.132813 189.339844 252.890625 186.878906 L 251.65625 190.359375 L 249.148438 196.175781 L 246.097656 201.710938 L 241.773438 205.304688 L 239.960938 205.574219 L 233.4375 203.21875 L 222.320313 199.488281 L 215.519531 196.855469 "/>
<path style=" stroke:none;fill-rule:nonzero;fill:rgb(100%,100%,100%);fill-opacity:1;" d="M 233.574219 137.339844 L 227.324219 138.847656 C 227.324219 138.847656 221.386719 141.582031 221.078125 142.160156 C 220.773438 142.738281 217.03125 148.003906 216.894531 148.550781 C 216.757813 149.097656 213.839844 152.113281 213.703125 153.371094 C 213.566406 154.636719 212.054688 157.984375 212.742188 159.761719 C 213.425781 161.542969 213.15625 167.082031 213.15625 167.082031 L 214.167969 171.28125 L 215.257813 174.148438 C 215.257813 174.148438 215.8125 176.96875 215.90625 177.578125 C 216.003906 178.1875 216.234375 179.261719 216.234375 179.261719 L 217.417969 183.347656 L 218.683594 188.371094 L 220.105469 192.222656 C 220.105469 192.222656 222.363281 197.988281 222.507813 198.128906 C 222.648438 198.273438 231.414063 202.167969 231.414063 202.167969 L 239.039063 203.390625 C 239.039063 203.390625 240.496094 206.34375 240.6875 206.386719 C 240.878906 206.433594 243.183594 205.359375 243.230469 205.171875 C 243.28125 204.984375 243.371094 202.875 243.84375 202.359375 C 244.3125 201.839844 249.449219 198.964844 249.828125 198.316406 C 250.207031 197.667969 252.324219 193.859375 252.324219 193.625 C 252.324219 193.390625 251.011719 187.617188 251.011719 187.617188 L 251.433594 185.175781 L 252.703125 183.726563 L 253.035156 183.492188 C 253.035156 183.492188 254.867188 181.144531 255.148438 179.96875 C 255.148438 179.96875 258.582031 172.554688 257.695313 168.847656 L 257.457031 164.296875 L 255.4375 157.53125 L 253.035156 152.511719 L 249.875 147.964844 L 245.496094 142.886719 L 242.289063 139.835938 L 238.613281 138.199219 L 233.574219 137.339844 "/>
<path style=" stroke:none;fill-rule:evenodd;fill:rgb(13.299561%,11.799622%,12.199402%);fill-opacity:1;" d="M 210.4375 162.835938 C 210.402344 162.824219 210.355469 162.867188 210.296875 162.902344 C 210.296875 162.902344 210.558594 163.152344 210.519531 163.480469 C 210.519531 163.480469 210.652344 164.21875 209.882813 164.546875 L 210.296875 164.847656 L 209.992188 164.929688 C 209.992188 164.929688 209.222656 164.191406 208.816406 164.765625 C 208.816406 164.765625 209.472656 165.839844 209.578125 166.523438 C 209.578125 166.523438 209.695313 167.589844 210.550781 167.839844 C 210.550781 167.839844 210.601563 167.480469 210.933594 167.34375 C 210.933594 167.34375 211.203125 168.691406 212.964844 169.484375 C 212.964844 169.484375 211.683594 170.496094 213.382813 170.359375 C 213.382813 170.359375 214.117188 173.273438 215.386719 174.5 L 215.363281 173.183594 L 214.921875 172.226563 L 215.003906 166.136719 C 215.003906 166.136719 215.691406 165.59375 215.605469 164.464844 C 215.605469 164.464844 215.621094 163.664063 215.527344 162.890625 Z M 244.371094 162.835938 L 244.308594 165.863281 C 244.308594 165.863281 244.421875 166.3125 244.574219 166.519531 C 244.714844 166.722656 244.980469 167.265625 245.03125 167.4375 C 245.03125 167.4375 246.609375 167.929688 247.65625 170.347656 C 247.65625 170.347656 248.667969 172.058594 248.902344 172.347656 C 248.902344 172.347656 248.558594 172.5625 248.789063 172.769531 C 249.023438 172.972656 249.585938 173.429688 249.585938 173.429688 L 249.972656 173.179688 C 249.972656 173.179688 249.777344 171.109375 250.941406 170.410156 L 250.722656 170.386719 C 250.722656 170.386719 250.675781 169.570313 251.171875 168.984375 L 251.871094 169.058594 C 251.871094 169.058594 251.773438 168.75 252.265625 168.222656 C 252.765625 167.6875 253.808594 166.933594 255.386719 166.363281 C 255.386719 166.363281 256.152344 165.988281 256.753906 167.132813 C 256.753906 167.132813 257.484375 168.566406 257.675781 169.046875 C 257.675781 169.046875 258.710938 167.675781 259.4375 167.425781 L 259.4375 166.820313 C 259.4375 166.820313 259.058594 166.8125 259.058594 166.574219 C 259.058594 166.339844 259.429688 166.335938 259.429688 166.335938 L 259.429688 165.75 C 259.429688 165.75 258.878906 165.875 258.671875 165.457031 C 258.671875 165.457031 259.457031 164.746094 258.816406 164.71875 C 258.816406 164.71875 260.054688 163.289063 260.117188 163.101563 C 260.128906 163.054688 260.148438 162.972656 260.15625 162.871094 Z M 230.308594 170.003906 C 230.308594 170.003906 229.589844 169.304688 228.347656 169.464844 C 228.347656 169.464844 227.964844 169.734375 227.898438 170.003906 C 227.839844 170.273438 227.898438 170.070313 227.898438 170.070313 C 227.898438 170.070313 228.945313 171.210938 229.566406 171.835938 C 230.183594 172.457031 231.519531 173.714844 232.597656 173.953125 C 232.597656 173.953125 233.363281 174.496094 234.257813 173.667969 C 234.257813 173.667969 234.574219 173.496094 235.039063 173.714844 C 235.507813 173.941406 236.316406 174.226563 237.007813 173.652344 C 237.691406 173.074219 238.007813 172.503906 238.347656 172.679688 C 238.679688 172.855469 238.585938 173.394531 238.472656 173.507813 C 238.472656 173.507813 239.273438 173.527344 239.527344 173.140625 L 241.15625 174.488281 C 241.15625 174.488281 241.101563 173.378906 242.597656 173.621094 C 242.597656 173.621094 242.140625 173.316406 241.273438 173.15625 C 241.273438 173.15625 240.523438 173.136719 240.636719 172.265625 L 243.011719 172.167969 C 243.011719 172.167969 242.34375 171.21875 240.667969 170.214844 L 238.613281 168.984375 C 238.613281 168.984375 237.980469 168.582031 237.296875 168.832031 C 236.605469 169.082031 234.851563 169.640625 234.851563 169.640625 C 234.851563 169.640625 233.761719 170.003906 233.425781 169.625 C 233.425781 169.625 232.953125 169.445313 232.519531 169.605469 C 232.089844 169.765625 231.976563 169.894531 231.703125 169.605469 C 231.703125 169.605469 231.363281 169.257813 230.777344 169.671875 Z M 216.832031 163.652344 C 216.832031 163.652344 217.558594 164.609375 218.609375 163.777344 C 218.609375 163.777344 217.996094 165.171875 217.183594 165.902344 C 217.183594 165.902344 218.304688 170 223.835938 169.359375 C 223.835938 169.359375 224.0625 168.933594 224.460938 169.125 C 224.855469 169.308594 225.472656 169.605469 225.472656 169.605469 C 225.472656 169.605469 225.8125 169.804688 225.78125 170.097656 C 225.753906 170.394531 225.753906 170.699219 225.753906 170.699219 C 225.753906 170.699219 225.710938 170.808594 225.972656 171.296875 C 226.226563 171.78125 227 173.007813 227 173.007813 C 227 173.007813 225.242188 172.753906 225.609375 176.527344 C 225.609375 176.527344 224.667969 176.058594 224.273438 176.132813 L 224.070313 175.707031 C 224.070313 175.707031 224.113281 175.429688 224.5 175.480469 L 224.5 175.199219 C 224.5 175.199219 224.011719 175.121094 223.738281 175.371094 C 223.738281 175.371094 223 175.925781 222.605469 175.171875 C 222.605469 175.171875 224.070313 175.207031 224.070313 174.25 C 224.070313 174.25 223.914063 173.433594 222.8125 173.371094 C 222.121094 173.335938 221.632813 173.847656 221.074219 173.777344 C 221.074219 173.777344 220.222656 173.589844 219.933594 173.351563 C 219.933594 173.351563 219.628906 173.222656 219.332031 173.285156 C 219.332031 173.285156 219.578125 173.570313 219.597656 173.636719 C 219.597656 173.636719 219.390625 173.945313 219.082031 173.867188 C 219.082031 173.867188 218.902344 174.351563 219.0625 174.777344 C 219.0625 174.777344 218.457031 174.820313 218.226563 174.449219 C 218.226563 174.449219 218.007813 174.886719 217.910156 175.09375 L 217.316406 174.539063 L 216.679688 174.484375 C 216.679688 174.484375 216.835938 173.992188 217.246094 173.667969 L 217.117188 173.304688 L 217.015625 173.550781 C 217.015625 173.550781 216.222656 173.195313 216.097656 172.402344 C 216.097656 172.402344 216.5625 172.492188 216.929688 172.757813 C 216.929688 172.757813 217.449219 172.882813 217.691406 172.753906 C 217.929688 172.621094 218.148438 172.40625 218.148438 171.9375 C 218.148438 171.9375 217.78125 171.96875 217.445313 172.214844 C 217.445313 172.214844 216.964844 172.664063 216.523438 172.109375 C 216.070313 171.550781 215.773438 170.433594 215.675781 169.703125 C 215.578125 168.972656 215.417969 168.734375 215.417969 168.414063 C 215.417969 168.097656 215.441406 166.164063 215.441406 166.164063 C 215.441406 166.164063 216.097656 165.902344 216.214844 165.175781 C 216.332031 164.441406 216.382813 163.761719 216.832031 163.652344 M 226.53125 193.695313 C 226.53125 193.695313 224.8125 189.304688 223.703125 189.929688 C 223.703125 189.929688 222.035156 190.761719 222.828125 191.269531 L 222.828125 191.566406 C 222.828125 191.566406 222.609375 191.550781 222.597656 191.660156 C 222.589844 191.769531 222.847656 191.847656 222.847656 191.847656 C 222.847656 191.847656 222.773438 192.242188 222.621094 192.40625 C 222.621094 192.40625 223.457031 193.359375 223.402344 194.027344 C 223.402344 194.027344 223.714844 193.996094 223.925781 194.386719 C 224.128906 194.777344 224.414063 195.339844 224.695313 195.933594 C 224.976563 196.527344 226.28125 198.820313 227.332031 197.976563 C 227.332031 197.976563 227.417969 197.796875 227.863281 197.988281 C 228.308594 198.179688 228.960938 198.453125 228.960938 198.453125 C 228.960938 198.453125 229.308594 198.519531 229.484375 198.304688 C 229.660156 198.085938 230.015625 198.230469 230.277344 198.3125 C 230.535156 198.398438 233.015625 199.105469 233.015625 199.105469 C 233.015625 199.105469 233.640625 199.253906 235.117188 198.886719 C 236.59375 198.519531 239.136719 197.878906 240.4375 195.324219 L 240.449219 192.796875 C 240.449219 192.796875 238.183594 190.15625 237.84375 189.808594 C 237.503906 189.464844 236.171875 188.386719 234.773438 189.746094 C 234.773438 189.746094 234.761719 189.390625 233.90625 189.3125 C 233.042969 189.238281 231.847656 189.441406 230.359375 189.640625 C 228.875 189.835938 226.832031 190.265625 226.832031 190.265625 L 226.800781 190.980469 C 226.800781 190.980469 227.09375 191.023438 227.148438 191.28125 L 230.917969 191.3125 C 230.917969 191.3125 231.40625 191.390625 231.371094 191.898438 L 229.082031 191.910156 C 229.082031 191.910156 228.246094 192.699219 228.695313 192.832031 C 229.136719 192.957031 229.773438 193.207031 229.992188 193.28125 C 230.210938 193.359375 230.550781 193.433594 230.550781 193.433594 L 230.523438 193.8125 Z M 218.847656 185.972656 C 218.847656 185.972656 218.996094 186.265625 219.183594 186.445313 C 219.371094 186.621094 220.003906 187.160156 220.003906 187.160156 C 220.003906 187.160156 220.300781 187.445313 220.257813 187.65625 C 220.214844 187.863281 220.332031 188.027344 220.433594 188.246094 C 220.539063 188.464844 220.917969 189.035156 220.917969 189.035156 C 220.917969 189.035156 220.75 189.324219 220.691406 189.882813 C 220.691406 189.882813 220.328125 189.523438 220.222656 189.304688 C 220.121094 189.089844 219.917969 188.867188 219.539063 188.847656 C 219.539063 188.847656 219.53125 187.65625 219.636719 187.144531 C 219.636719 187.144531 219.371094 187.285156 219.378906 187.617188 C 219.378906 187.617188 218.9375 187.757813 218.816406 187.390625 C 218.695313 187.015625 218.847656 185.972656 218.847656 185.972656 M 240.777344 203.777344 C 240.777344 203.777344 241.082031 203.859375 241.238281 203.964844 C 241.386719 204.066406 241.628906 204.183594 241.753906 204.210938 C 241.753906 204.210938 241.320313 204.894531 241.320313 205.191406 L 240.742188 205.175781 C 240.742188 205.175781 240.40625 204.425781 240.777344 203.777344 M 253.160156 183.082031 C 253.160156 183.082031 252.023438 183.765625 251.722656 183.757813 C 251.722656 183.757813 251.28125 183.832031 250.28125 182.746094 L 250.277344 185.65625 C 250.277344 185.65625 250.050781 187.921875 249.273438 188.46875 L 249.214844 191.574219 C 249.214844 191.574219 249.363281 192.386719 249.449219 192.6875 C 249.535156 192.988281 249.941406 194.007813 248.300781 196.085938 C 248.121094 196.308594 243.542969 200.792969 240 200.53125 L 240.039063 200.109375 C 240.039063 200.109375 240.351563 200.011719 240.71875 200.125 L 240.773438 199.828125 L 241.058594 199.363281 C 241.058594 199.363281 241.242188 199.167969 241.011719 199.113281 C 240.789063 199.058594 239.90625 198.898438 239.90625 198.898438 C 239.90625 198.898438 242.261719 197.296875 242.988281 196.429688 C 242.988281 196.429688 245.648438 193.726563 246.050781 193.5 L 246.039063 192.914063 C 246.039063 192.914063 245.445313 193.433594 244.953125 193.695313 C 244.46875 193.953125 243.097656 194.605469 242.71875 194.894531 L 241.742188 194.148438 C 241.742188 194.148438 241.949219 193.8125 241.242188 193.132813 C 241.242188 193.132813 241.261719 192.550781 241.011719 191.78125 C 240.765625 191.011719 240.339844 189.671875 240.394531 188.75 L 240.667969 185.917969 C 240.667969 185.917969 240.765625 185.507813 240.472656 185.277344 C 240.472656 185.277344 240.339844 185.070313 240.53125 184.847656 C 240.710938 184.617188 240.882813 184.5 240.644531 184.335938 C 240.644531 184.335938 238.765625 182.855469 235.660156 181.070313 C 235.371094 180.90625 234.542969 180.292969 233.816406 180.511719 L 233.828125 181.070313 C 233.828125 181.070313 234.378906 181.558594 235.152344 182.175781 C 235.921875 182.792969 238.058594 184.578125 238.820313 185.617188 C 238.820313 185.617188 239.222656 186.1875 239.015625 186.597656 C 239.015625 186.597656 238.9375 186.925781 238.210938 186.839844 C 238.210938 186.839844 237.546875 186.773438 236.703125 187.484375 C 236.703125 187.484375 236.097656 187.921875 235.878906 188.136719 C 235.660156 188.347656 235.25 188.53125 234.671875 188.566406 C 234.097656 188.601563 231.492188 188.386719 230.246094 188.761719 C 230.246094 188.761719 229.585938 188.894531 229.09375 188.460938 C 229.09375 188.460938 229.253906 188.363281 229.246094 188.148438 C 229.246094 188.148438 229.503906 188.148438 229.894531 187.929688 C 230.289063 187.714844 230.460938 187.527344 230.722656 187.636719 C 230.722656 187.636719 230.078125 186.609375 231.015625 186.105469 C 231.949219 185.59375 233.042969 185.214844 233.042969 185.214844 C 233.042969 185.214844 233.035156 184.648438 233.597656 184.335938 L 233.597656 183.734375 L 232.199219 183.699219 C 232.199219 183.699219 231.644531 183.632813 230.449219 184.523438 C 230.449219 184.523438 229.136719 185.734375 227.976563 185.636719 C 227.976563 185.636719 226.660156 185.582031 225.378906 184.1875 C 225.378906 184.1875 224.171875 183.125 223.566406 183.765625 C 223.566406 183.765625 223.53125 183.917969 223.78125 184.210938 C 224.03125 184.5 224.726563 185.410156 224.726563 185.410156 C 224.726563 185.410156 225 185.832031 224.605469 186.230469 C 224.605469 186.230469 224.378906 186.53125 224.59375 186.6875 L 224.8125 186.871094 C 224.8125 186.871094 224.359375 187.304688 224.226563 187.597656 C 224.226563 187.597656 223.667969 187.484375 223.25 187.175781 C 222.835938 186.855469 222.003906 186.363281 221.871094 186.304688 L 221.90625 183.984375 C 221.90625 183.984375 223.421875 181.546875 224.085938 181.039063 L 224.085938 180.457031 L 223.53125 180.476563 C 223.53125 180.476563 221.113281 182.632813 218.851563 183.960938 C 218.851563 183.960938 218.441406 184.238281 218.007813 183.496094 C 217.570313 182.75 216.660156 180.941406 216.21875 178.140625 L 215.921875 180.191406 C 215.921875 180.191406 217.269531 184.445313 217.503906 185.222656 C 217.746094 186.003906 218.765625 189.152344 218.765625 189.152344 C 218.765625 189.152344 219.589844 192.039063 219.710938 192.398438 C 219.710938 192.398438 220.078125 193.1875 219.191406 193.921875 C 219.191406 193.921875 215.867188 196.214844 215.441406 196.65625 C 215.441406 196.65625 219.382813 199.765625 220.558594 200.445313 C 220.558594 200.445313 225.339844 203.390625 227.574219 203.851563 C 228.347656 204.011719 229.253906 204.09375 230.101563 204.082031 C 230.949219 204.066406 232.289063 204.324219 233.335938 204.554688 C 234.375 204.785156 238.003906 205.839844 239.292969 206.234375 C 239.292969 206.234375 240.058594 206.496094 240.589844 206.1875 C 241.117188 205.875 242.105469 205.285156 242.621094 205.195313 C 243.140625 205.109375 245.492188 204.308594 247.089844 202.734375 C 247.777344 202.058594 248.683594 201.066406 249.160156 200.46875 C 249.636719 199.863281 251.195313 197.390625 251.503906 196.597656 C 251.503906 196.597656 250.089844 196.273438 250.804688 195.222656 C 250.804688 195.222656 253.625 191.714844 254.113281 191.34375 L 254.15625 188.957031 C 254.15625 188.957031 254.175781 188.554688 253.75 187.773438 C 253.328125 186.992188 252.367188 185.300781 252.367188 185.300781 C 252.367188 185.300781 251.734375 184.621094 253.1875 183.648438 Z M 252.402344 176.675781 C 252.402344 176.675781 253.550781 175.515625 253.855469 173.9375 C 253.894531 173.746094 253.828125 173.429688 253.566406 173.042969 C 253.304688 172.664063 252.546875 171.636719 252.546875 171.636719 C 252.546875 171.636719 253.851563 170.007813 254.410156 169.742188 C 254.410156 169.742188 254.867188 169.433594 254.949219 170 C 255.03125 170.570313 255.804688 173.652344 256.011719 174.027344 C 256.011719 174.027344 255.882813 174.207031 255.789063 174.191406 C 255.789063 174.191406 255.941406 174.324219 256.351563 174 C 256.351563 174 256.527344 173.867188 256.550781 173.574219 C 256.574219 173.285156 257.164063 169.480469 256.066406 168.589844 C 256.066406 168.589844 255.355469 168.054688 253.6875 169.472656 C 253.480469 169.648438 251.785156 171.15625 251.359375 172.683594 C 251.289063 172.949219 251.421875 173.0625 251.609375 173.390625 C 251.792969 173.722656 252.414063 174.742188 252.414063 174.742188 Z M 254.773438 179.390625 C 254.773438 179.390625 255.371094 178.414063 255.804688 178.429688 C 255.804688 178.429688 255.398438 180.132813 254.777344 180.664063 Z M 251.730469 178.167969 C 251.730469 178.167969 252.023438 177.648438 252.324219 177.457031 L 252.289063 176.855469 C 252.289063 176.855469 251.671875 177.085938 251.273438 177.902344 L 251.730469 178.167969 "/>
<path style=" stroke:none;fill-rule:evenodd;fill:rgb(13.299561%,11.799622%,12.199402%);fill-opacity:1;" d="M 215.53125 162.835938 C 215.476563 162.425781 215.390625 161.972656 215.234375 161.703125 C 215.234375 161.703125 214.578125 160.644531 214.609375 158.691406 C 214.609375 158.691406 214.253906 157.445313 216.679688 153.832031 C 216.679688 153.832031 217.292969 152.699219 218.664063 151.894531 L 219.125 152.492188 C 219.125 152.492188 218.816406 152.867188 218.914063 152.894531 C 219.011719 152.914063 219.496094 153.226563 219.453125 153.84375 C 219.453125 153.84375 220.160156 153.3125 220.175781 153.855469 C 220.175781 153.855469 220.078125 154.324219 219.832031 154.09375 L 219.460938 153.890625 C 219.460938 153.890625 219.304688 154.421875 218.363281 154.398438 L 218.363281 155.152344 C 218.363281 155.152344 218.964844 155.058594 219.640625 155.792969 C 219.640625 155.792969 220.09375 156.527344 220.867188 156.492188 C 221.632813 156.453125 223.863281 156.320313 225.03125 155.191406 C 225.304688 154.921875 226.542969 153.542969 227.289063 153.578125 C 227.289063 153.578125 227.921875 153.488281 228.789063 155.152344 C 228.789063 155.152344 228.992188 155.804688 229.539063 155.925781 L 231.851563 156.433594 C 231.851563 156.433594 234.324219 157.023438 237.625 154.722656 L 236.960938 153.953125 C 236.960938 153.953125 236.789063 153.664063 236.804688 153.503906 C 236.804688 153.503906 236.023438 153.789063 235.519531 152.925781 L 236.945313 152.925781 C 236.945313 152.925781 237.347656 153.359375 237.792969 153.347656 C 238.246094 153.339844 238.855469 153.078125 239.066406 151.980469 C 239.066406 151.980469 239.464844 150.628906 240.683594 151.257813 L 242.628906 152.3125 C 242.628906 152.3125 242.226563 152.675781 241.851563 152.734375 L 243.632813 153.746094 L 243.695313 153.433594 C 243.695313 153.433594 243.847656 153.832031 244.316406 153.976563 C 244.789063 154.117188 244.914063 154.429688 245.273438 155.179688 C 245.273438 155.179688 245.679688 156.574219 245.964844 156.878906 L 245.914063 158.441406 C 245.914063 158.441406 245.503906 158.953125 245.3125 159.875 C 245.3125 159.875 245.039063 161.441406 244.390625 161.777344 L 244.371094 162.835938 L 260.160156 162.835938 C 260.199219 162.570313 260.214844 162.089844 260.175781 161.824219 C 260.175781 161.824219 258.339844 161.921875 257.847656 159.8125 C 257.847656 159.8125 257.40625 157.671875 257.050781 157.289063 C 257.050781 157.289063 257.464844 157.21875 257.1875 156.816406 C 256.910156 156.410156 255.992188 155.296875 255.871094 154.785156 L 255.917969 151.015625 C 255.917969 151.015625 255.828125 148.285156 253.515625 146.515625 C 253.113281 146.203125 250.953125 144.414063 250.445313 143.980469 C 249.941406 143.546875 247.4375 141.074219 247.175781 140.632813 C 246.917969 140.1875 246.632813 139.734375 246.632813 139.734375 C 246.632813 139.734375 245.679688 139.230469 244.691406 138.957031 C 244.691406 138.957031 243.628906 138.589844 243.476563 138.296875 C 243.476563 138.296875 243.171875 138.648438 243.039063 138.722656 C 243.039063 138.722656 242.203125 138.070313 241.183594 137.554688 C 240.171875 137.039063 237.421875 135.796875 235.523438 135.898438 C 235.066406 135.925781 233.894531 136.097656 232.753906 136.386719 C 232.753906 136.386719 229.234375 137.359375 228.644531 137.398438 C 228.644531 137.398438 225.53125 137.367188 225.015625 137.347656 C 224.496094 137.328125 222.722656 137.738281 221.230469 138.792969 C 220.785156 139.109375 218.960938 140.28125 218.84375 141.53125 C 218.84375 141.53125 217.195313 143.207031 215.589844 144.339844 C 215.132813 144.660156 213.988281 145.902344 214.269531 146.472656 L 214.53125 146.542969 C 214.53125 146.542969 213.835938 147.554688 213.234375 148.179688 C 212.632813 148.796875 210.949219 150.582031 211.242188 152.132813 L 212.179688 154.542969 C 212.179688 154.542969 211.769531 154.59375 211.894531 155.003906 L 212.632813 157.121094 C 212.632813 157.121094 212.269531 160.058594 211.367188 161.390625 C 211.367188 161.390625 211.132813 161.648438 210.929688 161.523438 C 210.734375 161.398438 210.277344 161.070313 210.269531 161.207031 C 210.261719 161.324219 210.75 162.347656 210.441406 162.777344 Z M 251.5625 160.0625 L 251.550781 160.816406 L 252.105469 160.832031 C 252.105469 160.832031 252.210938 160.425781 252.457031 160.699219 C 252.695313 160.980469 253.257813 161.265625 253.453125 161.382813 C 253.453125 161.382813 253.242188 161.003906 252.96875 160.773438 C 252.691406 160.539063 252.335938 160.320313 252.273438 160.269531 C 252.210938 160.21875 251.945313 160.054688 251.8125 160.054688 C 251.683594 160.054688 251.5625 160.0625 251.5625 160.0625 M 251.570313 158.578125 L 252.191406 158.570313 L 252.238281 158.761719 C 252.238281 158.761719 252.429688 158.464844 252.542969 158.175781 L 253.121094 158.175781 C 253.121094 158.175781 252.90625 158.628906 253.277344 158.863281 C 253.648438 159.097656 254.082031 159.316406 254.15625 159.597656 C 254.15625 159.597656 253.414063 159.425781 253.113281 159.261719 C 252.808594 159.097656 252.289063 159.027344 252.023438 159.316406 L 251.753906 159.511719 C 251.753906 159.511719 251.53125 158.832031 251.570313 158.578125 M 246.222656 147.273438 L 246.824219 147.28125 C 246.824219 147.28125 246.988281 147.601563 247.324219 147.816406 C 247.65625 148.027344 248.515625 148.578125 248.589844 148.804688 C 248.589844 148.804688 248.179688 149.289063 247.757813 149.28125 C 247.757813 149.28125 247.730469 148.699219 247.167969 148.4375 C 246.605469 148.179688 245.953125 147.988281 246.066406 147.734375 C 246.191406 147.480469 246.222656 147.273438 246.222656 147.273438 M 239.0625 141.675781 C 239.0625 141.675781 239.363281 142.523438 238.867188 143.085938 C 238.867188 143.085938 238.632813 142.863281 238.675781 142.253906 C 238.675781 142.253906 238.847656 141.871094 239.0625 141.675781 M 235.882813 141.226563 C 235.882813 141.226563 235.117188 142.105469 234.691406 142.339844 C 234.691406 142.339844 234.195313 141.855469 234.664063 141.246094 C 235.132813 140.644531 236.347656 139.519531 237.253906 139.101563 C 237.253906 139.101563 237.957031 138.695313 238.957031 139.710938 C 238.957031 139.710938 239.535156 139.414063 239.820313 139.664063 C 239.820313 139.664063 239.863281 139.902344 239.800781 140.214844 C 239.738281 140.527344 239.886719 140.796875 240.171875 141.011719 L 240.171875 142.585938 C 240.171875 142.585938 239.566406 141.628906 238.972656 141.316406 C 238.378906 141.007813 237.203125 140.671875 237.378906 139.863281 C 237.378906 139.863281 236.734375 142.460938 236.457031 143.066406 C 236.457031 143.066406 235.710938 142.472656 236.015625 142.011719 C 236.015625 142.011719 236.347656 141.804688 236.136719 141.496094 Z M 229.378906 140.074219 L 227.902344 142.410156 C 227.902344 142.410156 227.113281 142.03125 227.398438 141.472656 C 227.691406 140.914063 228.503906 139.996094 228.503906 139.996094 Z M 231.636719 147.4375 C 231.636719 147.4375 231.929688 147.699219 232.074219 147.925781 C 232.214844 148.148438 232.308594 148.363281 232.464844 148.527344 L 232.429688 149.089844 C 232.429688 149.089844 231.613281 149.046875 231.398438 148.546875 Z M 228.867188 148.394531 L 228.882813 149.269531 C 228.882813 149.269531 229.65625 149.75 229.816406 150.292969 L 230.179688 148.480469 C 230.179688 148.480469 229.6875 148.113281 228.867188 148.394531 M 224.492188 148.265625 C 224.492188 148.265625 224.847656 149.714844 224.921875 150.210938 C 224.921875 150.210938 223.867188 149.589844 223.667969 149.1875 C 223.667969 149.1875 223.234375 148.183594 224.492188 148.265625 "/>
</g>
</svg>
